%TF.GenerationSoftware,KiCad,Pcbnew,7.0.1*%
%TF.CreationDate,2023-04-18T09:41:53+03:00*%
%TF.ProjectId,rp2040-bakeneko65,72703230-3430-42d6-9261-6b656e656b6f,rev?*%
%TF.SameCoordinates,Original*%
%TF.FileFunction,Legend,Bot*%
%TF.FilePolarity,Positive*%
%FSLAX46Y46*%
G04 Gerber Fmt 4.6, Leading zero omitted, Abs format (unit mm)*
G04 Created by KiCad (PCBNEW 7.0.1) date 2023-04-18 09:41:53*
%MOMM*%
%LPD*%
G01*
G04 APERTURE LIST*
%ADD10C,0.150000*%
%ADD11C,0.120000*%
G04 APERTURE END LIST*
D10*
%TO.C,C15*%
X83472051Y-120282111D02*
X83519670Y-120329731D01*
X83519670Y-120329731D02*
X83662527Y-120377350D01*
X83662527Y-120377350D02*
X83757765Y-120377350D01*
X83757765Y-120377350D02*
X83900622Y-120329731D01*
X83900622Y-120329731D02*
X83995860Y-120234492D01*
X83995860Y-120234492D02*
X84043479Y-120139254D01*
X84043479Y-120139254D02*
X84091098Y-119948778D01*
X84091098Y-119948778D02*
X84091098Y-119805921D01*
X84091098Y-119805921D02*
X84043479Y-119615445D01*
X84043479Y-119615445D02*
X83995860Y-119520207D01*
X83995860Y-119520207D02*
X83900622Y-119424969D01*
X83900622Y-119424969D02*
X83757765Y-119377350D01*
X83757765Y-119377350D02*
X83662527Y-119377350D01*
X83662527Y-119377350D02*
X83519670Y-119424969D01*
X83519670Y-119424969D02*
X83472051Y-119472588D01*
X82519670Y-120377350D02*
X83091098Y-120377350D01*
X82805384Y-120377350D02*
X82805384Y-119377350D01*
X82805384Y-119377350D02*
X82900622Y-119520207D01*
X82900622Y-119520207D02*
X82995860Y-119615445D01*
X82995860Y-119615445D02*
X83091098Y-119663064D01*
X81614908Y-119377350D02*
X82091098Y-119377350D01*
X82091098Y-119377350D02*
X82138717Y-119853540D01*
X82138717Y-119853540D02*
X82091098Y-119805921D01*
X82091098Y-119805921D02*
X81995860Y-119758302D01*
X81995860Y-119758302D02*
X81757765Y-119758302D01*
X81757765Y-119758302D02*
X81662527Y-119805921D01*
X81662527Y-119805921D02*
X81614908Y-119853540D01*
X81614908Y-119853540D02*
X81567289Y-119948778D01*
X81567289Y-119948778D02*
X81567289Y-120186873D01*
X81567289Y-120186873D02*
X81614908Y-120282111D01*
X81614908Y-120282111D02*
X81662527Y-120329731D01*
X81662527Y-120329731D02*
X81757765Y-120377350D01*
X81757765Y-120377350D02*
X81995860Y-120377350D01*
X81995860Y-120377350D02*
X82091098Y-120329731D01*
X82091098Y-120329731D02*
X82138717Y-120282111D01*
%TO.C,D29*%
X297737619Y-115466964D02*
X296737619Y-115466964D01*
X296737619Y-115466964D02*
X296737619Y-115705059D01*
X296737619Y-115705059D02*
X296785238Y-115847916D01*
X296785238Y-115847916D02*
X296880476Y-115943154D01*
X296880476Y-115943154D02*
X296975714Y-115990773D01*
X296975714Y-115990773D02*
X297166190Y-116038392D01*
X297166190Y-116038392D02*
X297309047Y-116038392D01*
X297309047Y-116038392D02*
X297499523Y-115990773D01*
X297499523Y-115990773D02*
X297594761Y-115943154D01*
X297594761Y-115943154D02*
X297690000Y-115847916D01*
X297690000Y-115847916D02*
X297737619Y-115705059D01*
X297737619Y-115705059D02*
X297737619Y-115466964D01*
X296832857Y-116419345D02*
X296785238Y-116466964D01*
X296785238Y-116466964D02*
X296737619Y-116562202D01*
X296737619Y-116562202D02*
X296737619Y-116800297D01*
X296737619Y-116800297D02*
X296785238Y-116895535D01*
X296785238Y-116895535D02*
X296832857Y-116943154D01*
X296832857Y-116943154D02*
X296928095Y-116990773D01*
X296928095Y-116990773D02*
X297023333Y-116990773D01*
X297023333Y-116990773D02*
X297166190Y-116943154D01*
X297166190Y-116943154D02*
X297737619Y-116371726D01*
X297737619Y-116371726D02*
X297737619Y-116990773D01*
X297737619Y-117466964D02*
X297737619Y-117657440D01*
X297737619Y-117657440D02*
X297690000Y-117752678D01*
X297690000Y-117752678D02*
X297642380Y-117800297D01*
X297642380Y-117800297D02*
X297499523Y-117895535D01*
X297499523Y-117895535D02*
X297309047Y-117943154D01*
X297309047Y-117943154D02*
X296928095Y-117943154D01*
X296928095Y-117943154D02*
X296832857Y-117895535D01*
X296832857Y-117895535D02*
X296785238Y-117847916D01*
X296785238Y-117847916D02*
X296737619Y-117752678D01*
X296737619Y-117752678D02*
X296737619Y-117562202D01*
X296737619Y-117562202D02*
X296785238Y-117466964D01*
X296785238Y-117466964D02*
X296832857Y-117419345D01*
X296832857Y-117419345D02*
X296928095Y-117371726D01*
X296928095Y-117371726D02*
X297166190Y-117371726D01*
X297166190Y-117371726D02*
X297261428Y-117419345D01*
X297261428Y-117419345D02*
X297309047Y-117466964D01*
X297309047Y-117466964D02*
X297356666Y-117562202D01*
X297356666Y-117562202D02*
X297356666Y-117752678D01*
X297356666Y-117752678D02*
X297309047Y-117847916D01*
X297309047Y-117847916D02*
X297261428Y-117895535D01*
X297261428Y-117895535D02*
X297166190Y-117943154D01*
%TO.C,D56*%
X178675119Y-153566964D02*
X177675119Y-153566964D01*
X177675119Y-153566964D02*
X177675119Y-153805059D01*
X177675119Y-153805059D02*
X177722738Y-153947916D01*
X177722738Y-153947916D02*
X177817976Y-154043154D01*
X177817976Y-154043154D02*
X177913214Y-154090773D01*
X177913214Y-154090773D02*
X178103690Y-154138392D01*
X178103690Y-154138392D02*
X178246547Y-154138392D01*
X178246547Y-154138392D02*
X178437023Y-154090773D01*
X178437023Y-154090773D02*
X178532261Y-154043154D01*
X178532261Y-154043154D02*
X178627500Y-153947916D01*
X178627500Y-153947916D02*
X178675119Y-153805059D01*
X178675119Y-153805059D02*
X178675119Y-153566964D01*
X177675119Y-155043154D02*
X177675119Y-154566964D01*
X177675119Y-154566964D02*
X178151309Y-154519345D01*
X178151309Y-154519345D02*
X178103690Y-154566964D01*
X178103690Y-154566964D02*
X178056071Y-154662202D01*
X178056071Y-154662202D02*
X178056071Y-154900297D01*
X178056071Y-154900297D02*
X178103690Y-154995535D01*
X178103690Y-154995535D02*
X178151309Y-155043154D01*
X178151309Y-155043154D02*
X178246547Y-155090773D01*
X178246547Y-155090773D02*
X178484642Y-155090773D01*
X178484642Y-155090773D02*
X178579880Y-155043154D01*
X178579880Y-155043154D02*
X178627500Y-154995535D01*
X178627500Y-154995535D02*
X178675119Y-154900297D01*
X178675119Y-154900297D02*
X178675119Y-154662202D01*
X178675119Y-154662202D02*
X178627500Y-154566964D01*
X178627500Y-154566964D02*
X178579880Y-154519345D01*
X177675119Y-155947916D02*
X177675119Y-155757440D01*
X177675119Y-155757440D02*
X177722738Y-155662202D01*
X177722738Y-155662202D02*
X177770357Y-155614583D01*
X177770357Y-155614583D02*
X177913214Y-155519345D01*
X177913214Y-155519345D02*
X178103690Y-155471726D01*
X178103690Y-155471726D02*
X178484642Y-155471726D01*
X178484642Y-155471726D02*
X178579880Y-155519345D01*
X178579880Y-155519345D02*
X178627500Y-155566964D01*
X178627500Y-155566964D02*
X178675119Y-155662202D01*
X178675119Y-155662202D02*
X178675119Y-155852678D01*
X178675119Y-155852678D02*
X178627500Y-155947916D01*
X178627500Y-155947916D02*
X178579880Y-155995535D01*
X178579880Y-155995535D02*
X178484642Y-156043154D01*
X178484642Y-156043154D02*
X178246547Y-156043154D01*
X178246547Y-156043154D02*
X178151309Y-155995535D01*
X178151309Y-155995535D02*
X178103690Y-155947916D01*
X178103690Y-155947916D02*
X178056071Y-155852678D01*
X178056071Y-155852678D02*
X178056071Y-155662202D01*
X178056071Y-155662202D02*
X178103690Y-155566964D01*
X178103690Y-155566964D02*
X178151309Y-155519345D01*
X178151309Y-155519345D02*
X178246547Y-155471726D01*
%TO.C,D40*%
X188200119Y-134516964D02*
X187200119Y-134516964D01*
X187200119Y-134516964D02*
X187200119Y-134755059D01*
X187200119Y-134755059D02*
X187247738Y-134897916D01*
X187247738Y-134897916D02*
X187342976Y-134993154D01*
X187342976Y-134993154D02*
X187438214Y-135040773D01*
X187438214Y-135040773D02*
X187628690Y-135088392D01*
X187628690Y-135088392D02*
X187771547Y-135088392D01*
X187771547Y-135088392D02*
X187962023Y-135040773D01*
X187962023Y-135040773D02*
X188057261Y-134993154D01*
X188057261Y-134993154D02*
X188152500Y-134897916D01*
X188152500Y-134897916D02*
X188200119Y-134755059D01*
X188200119Y-134755059D02*
X188200119Y-134516964D01*
X187533452Y-135945535D02*
X188200119Y-135945535D01*
X187152500Y-135707440D02*
X187866785Y-135469345D01*
X187866785Y-135469345D02*
X187866785Y-136088392D01*
X187200119Y-136659821D02*
X187200119Y-136755059D01*
X187200119Y-136755059D02*
X187247738Y-136850297D01*
X187247738Y-136850297D02*
X187295357Y-136897916D01*
X187295357Y-136897916D02*
X187390595Y-136945535D01*
X187390595Y-136945535D02*
X187581071Y-136993154D01*
X187581071Y-136993154D02*
X187819166Y-136993154D01*
X187819166Y-136993154D02*
X188009642Y-136945535D01*
X188009642Y-136945535D02*
X188104880Y-136897916D01*
X188104880Y-136897916D02*
X188152500Y-136850297D01*
X188152500Y-136850297D02*
X188200119Y-136755059D01*
X188200119Y-136755059D02*
X188200119Y-136659821D01*
X188200119Y-136659821D02*
X188152500Y-136564583D01*
X188152500Y-136564583D02*
X188104880Y-136516964D01*
X188104880Y-136516964D02*
X188009642Y-136469345D01*
X188009642Y-136469345D02*
X187819166Y-136421726D01*
X187819166Y-136421726D02*
X187581071Y-136421726D01*
X187581071Y-136421726D02*
X187390595Y-136469345D01*
X187390595Y-136469345D02*
X187295357Y-136516964D01*
X187295357Y-136516964D02*
X187247738Y-136564583D01*
X187247738Y-136564583D02*
X187200119Y-136659821D01*
%TO.C,D14*%
X326312619Y-96416964D02*
X325312619Y-96416964D01*
X325312619Y-96416964D02*
X325312619Y-96655059D01*
X325312619Y-96655059D02*
X325360238Y-96797916D01*
X325360238Y-96797916D02*
X325455476Y-96893154D01*
X325455476Y-96893154D02*
X325550714Y-96940773D01*
X325550714Y-96940773D02*
X325741190Y-96988392D01*
X325741190Y-96988392D02*
X325884047Y-96988392D01*
X325884047Y-96988392D02*
X326074523Y-96940773D01*
X326074523Y-96940773D02*
X326169761Y-96893154D01*
X326169761Y-96893154D02*
X326265000Y-96797916D01*
X326265000Y-96797916D02*
X326312619Y-96655059D01*
X326312619Y-96655059D02*
X326312619Y-96416964D01*
X326312619Y-97940773D02*
X326312619Y-97369345D01*
X326312619Y-97655059D02*
X325312619Y-97655059D01*
X325312619Y-97655059D02*
X325455476Y-97559821D01*
X325455476Y-97559821D02*
X325550714Y-97464583D01*
X325550714Y-97464583D02*
X325598333Y-97369345D01*
X325645952Y-98797916D02*
X326312619Y-98797916D01*
X325265000Y-98559821D02*
X325979285Y-98321726D01*
X325979285Y-98321726D02*
X325979285Y-98940773D01*
%TO.C,D39*%
X169150119Y-134516964D02*
X168150119Y-134516964D01*
X168150119Y-134516964D02*
X168150119Y-134755059D01*
X168150119Y-134755059D02*
X168197738Y-134897916D01*
X168197738Y-134897916D02*
X168292976Y-134993154D01*
X168292976Y-134993154D02*
X168388214Y-135040773D01*
X168388214Y-135040773D02*
X168578690Y-135088392D01*
X168578690Y-135088392D02*
X168721547Y-135088392D01*
X168721547Y-135088392D02*
X168912023Y-135040773D01*
X168912023Y-135040773D02*
X169007261Y-134993154D01*
X169007261Y-134993154D02*
X169102500Y-134897916D01*
X169102500Y-134897916D02*
X169150119Y-134755059D01*
X169150119Y-134755059D02*
X169150119Y-134516964D01*
X168150119Y-135421726D02*
X168150119Y-136040773D01*
X168150119Y-136040773D02*
X168531071Y-135707440D01*
X168531071Y-135707440D02*
X168531071Y-135850297D01*
X168531071Y-135850297D02*
X168578690Y-135945535D01*
X168578690Y-135945535D02*
X168626309Y-135993154D01*
X168626309Y-135993154D02*
X168721547Y-136040773D01*
X168721547Y-136040773D02*
X168959642Y-136040773D01*
X168959642Y-136040773D02*
X169054880Y-135993154D01*
X169054880Y-135993154D02*
X169102500Y-135945535D01*
X169102500Y-135945535D02*
X169150119Y-135850297D01*
X169150119Y-135850297D02*
X169150119Y-135564583D01*
X169150119Y-135564583D02*
X169102500Y-135469345D01*
X169102500Y-135469345D02*
X169054880Y-135421726D01*
X169150119Y-136516964D02*
X169150119Y-136707440D01*
X169150119Y-136707440D02*
X169102500Y-136802678D01*
X169102500Y-136802678D02*
X169054880Y-136850297D01*
X169054880Y-136850297D02*
X168912023Y-136945535D01*
X168912023Y-136945535D02*
X168721547Y-136993154D01*
X168721547Y-136993154D02*
X168340595Y-136993154D01*
X168340595Y-136993154D02*
X168245357Y-136945535D01*
X168245357Y-136945535D02*
X168197738Y-136897916D01*
X168197738Y-136897916D02*
X168150119Y-136802678D01*
X168150119Y-136802678D02*
X168150119Y-136612202D01*
X168150119Y-136612202D02*
X168197738Y-136516964D01*
X168197738Y-136516964D02*
X168245357Y-136469345D01*
X168245357Y-136469345D02*
X168340595Y-136421726D01*
X168340595Y-136421726D02*
X168578690Y-136421726D01*
X168578690Y-136421726D02*
X168673928Y-136469345D01*
X168673928Y-136469345D02*
X168721547Y-136516964D01*
X168721547Y-136516964D02*
X168769166Y-136612202D01*
X168769166Y-136612202D02*
X168769166Y-136802678D01*
X168769166Y-136802678D02*
X168721547Y-136897916D01*
X168721547Y-136897916D02*
X168673928Y-136945535D01*
X168673928Y-136945535D02*
X168578690Y-136993154D01*
%TO.C,D49*%
X364412619Y-134516964D02*
X363412619Y-134516964D01*
X363412619Y-134516964D02*
X363412619Y-134755059D01*
X363412619Y-134755059D02*
X363460238Y-134897916D01*
X363460238Y-134897916D02*
X363555476Y-134993154D01*
X363555476Y-134993154D02*
X363650714Y-135040773D01*
X363650714Y-135040773D02*
X363841190Y-135088392D01*
X363841190Y-135088392D02*
X363984047Y-135088392D01*
X363984047Y-135088392D02*
X364174523Y-135040773D01*
X364174523Y-135040773D02*
X364269761Y-134993154D01*
X364269761Y-134993154D02*
X364365000Y-134897916D01*
X364365000Y-134897916D02*
X364412619Y-134755059D01*
X364412619Y-134755059D02*
X364412619Y-134516964D01*
X363745952Y-135945535D02*
X364412619Y-135945535D01*
X363365000Y-135707440D02*
X364079285Y-135469345D01*
X364079285Y-135469345D02*
X364079285Y-136088392D01*
X364412619Y-136516964D02*
X364412619Y-136707440D01*
X364412619Y-136707440D02*
X364365000Y-136802678D01*
X364365000Y-136802678D02*
X364317380Y-136850297D01*
X364317380Y-136850297D02*
X364174523Y-136945535D01*
X364174523Y-136945535D02*
X363984047Y-136993154D01*
X363984047Y-136993154D02*
X363603095Y-136993154D01*
X363603095Y-136993154D02*
X363507857Y-136945535D01*
X363507857Y-136945535D02*
X363460238Y-136897916D01*
X363460238Y-136897916D02*
X363412619Y-136802678D01*
X363412619Y-136802678D02*
X363412619Y-136612202D01*
X363412619Y-136612202D02*
X363460238Y-136516964D01*
X363460238Y-136516964D02*
X363507857Y-136469345D01*
X363507857Y-136469345D02*
X363603095Y-136421726D01*
X363603095Y-136421726D02*
X363841190Y-136421726D01*
X363841190Y-136421726D02*
X363936428Y-136469345D01*
X363936428Y-136469345D02*
X363984047Y-136516964D01*
X363984047Y-136516964D02*
X364031666Y-136612202D01*
X364031666Y-136612202D02*
X364031666Y-136802678D01*
X364031666Y-136802678D02*
X363984047Y-136897916D01*
X363984047Y-136897916D02*
X363936428Y-136945535D01*
X363936428Y-136945535D02*
X363841190Y-136993154D01*
%TO.C,D43*%
X245350119Y-134516964D02*
X244350119Y-134516964D01*
X244350119Y-134516964D02*
X244350119Y-134755059D01*
X244350119Y-134755059D02*
X244397738Y-134897916D01*
X244397738Y-134897916D02*
X244492976Y-134993154D01*
X244492976Y-134993154D02*
X244588214Y-135040773D01*
X244588214Y-135040773D02*
X244778690Y-135088392D01*
X244778690Y-135088392D02*
X244921547Y-135088392D01*
X244921547Y-135088392D02*
X245112023Y-135040773D01*
X245112023Y-135040773D02*
X245207261Y-134993154D01*
X245207261Y-134993154D02*
X245302500Y-134897916D01*
X245302500Y-134897916D02*
X245350119Y-134755059D01*
X245350119Y-134755059D02*
X245350119Y-134516964D01*
X244683452Y-135945535D02*
X245350119Y-135945535D01*
X244302500Y-135707440D02*
X245016785Y-135469345D01*
X245016785Y-135469345D02*
X245016785Y-136088392D01*
X244350119Y-136374107D02*
X244350119Y-136993154D01*
X244350119Y-136993154D02*
X244731071Y-136659821D01*
X244731071Y-136659821D02*
X244731071Y-136802678D01*
X244731071Y-136802678D02*
X244778690Y-136897916D01*
X244778690Y-136897916D02*
X244826309Y-136945535D01*
X244826309Y-136945535D02*
X244921547Y-136993154D01*
X244921547Y-136993154D02*
X245159642Y-136993154D01*
X245159642Y-136993154D02*
X245254880Y-136945535D01*
X245254880Y-136945535D02*
X245302500Y-136897916D01*
X245302500Y-136897916D02*
X245350119Y-136802678D01*
X245350119Y-136802678D02*
X245350119Y-136516964D01*
X245350119Y-136516964D02*
X245302500Y-136421726D01*
X245302500Y-136421726D02*
X245254880Y-136374107D01*
%TO.C,C14*%
X83472051Y-119266111D02*
X83519670Y-119313731D01*
X83519670Y-119313731D02*
X83662527Y-119361350D01*
X83662527Y-119361350D02*
X83757765Y-119361350D01*
X83757765Y-119361350D02*
X83900622Y-119313731D01*
X83900622Y-119313731D02*
X83995860Y-119218492D01*
X83995860Y-119218492D02*
X84043479Y-119123254D01*
X84043479Y-119123254D02*
X84091098Y-118932778D01*
X84091098Y-118932778D02*
X84091098Y-118789921D01*
X84091098Y-118789921D02*
X84043479Y-118599445D01*
X84043479Y-118599445D02*
X83995860Y-118504207D01*
X83995860Y-118504207D02*
X83900622Y-118408969D01*
X83900622Y-118408969D02*
X83757765Y-118361350D01*
X83757765Y-118361350D02*
X83662527Y-118361350D01*
X83662527Y-118361350D02*
X83519670Y-118408969D01*
X83519670Y-118408969D02*
X83472051Y-118456588D01*
X82519670Y-119361350D02*
X83091098Y-119361350D01*
X82805384Y-119361350D02*
X82805384Y-118361350D01*
X82805384Y-118361350D02*
X82900622Y-118504207D01*
X82900622Y-118504207D02*
X82995860Y-118599445D01*
X82995860Y-118599445D02*
X83091098Y-118647064D01*
X81662527Y-118694683D02*
X81662527Y-119361350D01*
X81900622Y-118313731D02*
X82138717Y-119028016D01*
X82138717Y-119028016D02*
X81519670Y-119028016D01*
%TO.C,D84*%
X364412619Y-172616964D02*
X363412619Y-172616964D01*
X363412619Y-172616964D02*
X363412619Y-172855059D01*
X363412619Y-172855059D02*
X363460238Y-172997916D01*
X363460238Y-172997916D02*
X363555476Y-173093154D01*
X363555476Y-173093154D02*
X363650714Y-173140773D01*
X363650714Y-173140773D02*
X363841190Y-173188392D01*
X363841190Y-173188392D02*
X363984047Y-173188392D01*
X363984047Y-173188392D02*
X364174523Y-173140773D01*
X364174523Y-173140773D02*
X364269761Y-173093154D01*
X364269761Y-173093154D02*
X364365000Y-172997916D01*
X364365000Y-172997916D02*
X364412619Y-172855059D01*
X364412619Y-172855059D02*
X364412619Y-172616964D01*
X363841190Y-173759821D02*
X363793571Y-173664583D01*
X363793571Y-173664583D02*
X363745952Y-173616964D01*
X363745952Y-173616964D02*
X363650714Y-173569345D01*
X363650714Y-173569345D02*
X363603095Y-173569345D01*
X363603095Y-173569345D02*
X363507857Y-173616964D01*
X363507857Y-173616964D02*
X363460238Y-173664583D01*
X363460238Y-173664583D02*
X363412619Y-173759821D01*
X363412619Y-173759821D02*
X363412619Y-173950297D01*
X363412619Y-173950297D02*
X363460238Y-174045535D01*
X363460238Y-174045535D02*
X363507857Y-174093154D01*
X363507857Y-174093154D02*
X363603095Y-174140773D01*
X363603095Y-174140773D02*
X363650714Y-174140773D01*
X363650714Y-174140773D02*
X363745952Y-174093154D01*
X363745952Y-174093154D02*
X363793571Y-174045535D01*
X363793571Y-174045535D02*
X363841190Y-173950297D01*
X363841190Y-173950297D02*
X363841190Y-173759821D01*
X363841190Y-173759821D02*
X363888809Y-173664583D01*
X363888809Y-173664583D02*
X363936428Y-173616964D01*
X363936428Y-173616964D02*
X364031666Y-173569345D01*
X364031666Y-173569345D02*
X364222142Y-173569345D01*
X364222142Y-173569345D02*
X364317380Y-173616964D01*
X364317380Y-173616964D02*
X364365000Y-173664583D01*
X364365000Y-173664583D02*
X364412619Y-173759821D01*
X364412619Y-173759821D02*
X364412619Y-173950297D01*
X364412619Y-173950297D02*
X364365000Y-174045535D01*
X364365000Y-174045535D02*
X364317380Y-174093154D01*
X364317380Y-174093154D02*
X364222142Y-174140773D01*
X364222142Y-174140773D02*
X364031666Y-174140773D01*
X364031666Y-174140773D02*
X363936428Y-174093154D01*
X363936428Y-174093154D02*
X363888809Y-174045535D01*
X363888809Y-174045535D02*
X363841190Y-173950297D01*
X363745952Y-174997916D02*
X364412619Y-174997916D01*
X363365000Y-174759821D02*
X364079285Y-174521726D01*
X364079285Y-174521726D02*
X364079285Y-175140773D01*
%TO.C,C5*%
X97793380Y-99246333D02*
X97841000Y-99198714D01*
X97841000Y-99198714D02*
X97888619Y-99055857D01*
X97888619Y-99055857D02*
X97888619Y-98960619D01*
X97888619Y-98960619D02*
X97841000Y-98817762D01*
X97841000Y-98817762D02*
X97745761Y-98722524D01*
X97745761Y-98722524D02*
X97650523Y-98674905D01*
X97650523Y-98674905D02*
X97460047Y-98627286D01*
X97460047Y-98627286D02*
X97317190Y-98627286D01*
X97317190Y-98627286D02*
X97126714Y-98674905D01*
X97126714Y-98674905D02*
X97031476Y-98722524D01*
X97031476Y-98722524D02*
X96936238Y-98817762D01*
X96936238Y-98817762D02*
X96888619Y-98960619D01*
X96888619Y-98960619D02*
X96888619Y-99055857D01*
X96888619Y-99055857D02*
X96936238Y-99198714D01*
X96936238Y-99198714D02*
X96983857Y-99246333D01*
X96888619Y-100151095D02*
X96888619Y-99674905D01*
X96888619Y-99674905D02*
X97364809Y-99627286D01*
X97364809Y-99627286D02*
X97317190Y-99674905D01*
X97317190Y-99674905D02*
X97269571Y-99770143D01*
X97269571Y-99770143D02*
X97269571Y-100008238D01*
X97269571Y-100008238D02*
X97317190Y-100103476D01*
X97317190Y-100103476D02*
X97364809Y-100151095D01*
X97364809Y-100151095D02*
X97460047Y-100198714D01*
X97460047Y-100198714D02*
X97698142Y-100198714D01*
X97698142Y-100198714D02*
X97793380Y-100151095D01*
X97793380Y-100151095D02*
X97841000Y-100103476D01*
X97841000Y-100103476D02*
X97888619Y-100008238D01*
X97888619Y-100008238D02*
X97888619Y-99770143D01*
X97888619Y-99770143D02*
X97841000Y-99674905D01*
X97841000Y-99674905D02*
X97793380Y-99627286D01*
%TO.C,D52*%
X102475119Y-153566964D02*
X101475119Y-153566964D01*
X101475119Y-153566964D02*
X101475119Y-153805059D01*
X101475119Y-153805059D02*
X101522738Y-153947916D01*
X101522738Y-153947916D02*
X101617976Y-154043154D01*
X101617976Y-154043154D02*
X101713214Y-154090773D01*
X101713214Y-154090773D02*
X101903690Y-154138392D01*
X101903690Y-154138392D02*
X102046547Y-154138392D01*
X102046547Y-154138392D02*
X102237023Y-154090773D01*
X102237023Y-154090773D02*
X102332261Y-154043154D01*
X102332261Y-154043154D02*
X102427500Y-153947916D01*
X102427500Y-153947916D02*
X102475119Y-153805059D01*
X102475119Y-153805059D02*
X102475119Y-153566964D01*
X101475119Y-155043154D02*
X101475119Y-154566964D01*
X101475119Y-154566964D02*
X101951309Y-154519345D01*
X101951309Y-154519345D02*
X101903690Y-154566964D01*
X101903690Y-154566964D02*
X101856071Y-154662202D01*
X101856071Y-154662202D02*
X101856071Y-154900297D01*
X101856071Y-154900297D02*
X101903690Y-154995535D01*
X101903690Y-154995535D02*
X101951309Y-155043154D01*
X101951309Y-155043154D02*
X102046547Y-155090773D01*
X102046547Y-155090773D02*
X102284642Y-155090773D01*
X102284642Y-155090773D02*
X102379880Y-155043154D01*
X102379880Y-155043154D02*
X102427500Y-154995535D01*
X102427500Y-154995535D02*
X102475119Y-154900297D01*
X102475119Y-154900297D02*
X102475119Y-154662202D01*
X102475119Y-154662202D02*
X102427500Y-154566964D01*
X102427500Y-154566964D02*
X102379880Y-154519345D01*
X101570357Y-155471726D02*
X101522738Y-155519345D01*
X101522738Y-155519345D02*
X101475119Y-155614583D01*
X101475119Y-155614583D02*
X101475119Y-155852678D01*
X101475119Y-155852678D02*
X101522738Y-155947916D01*
X101522738Y-155947916D02*
X101570357Y-155995535D01*
X101570357Y-155995535D02*
X101665595Y-156043154D01*
X101665595Y-156043154D02*
X101760833Y-156043154D01*
X101760833Y-156043154D02*
X101903690Y-155995535D01*
X101903690Y-155995535D02*
X102475119Y-155424107D01*
X102475119Y-155424107D02*
X102475119Y-156043154D01*
%TO.C,D77*%
X253668619Y-170234714D02*
X252668619Y-170234714D01*
X252668619Y-170234714D02*
X252668619Y-170472809D01*
X252668619Y-170472809D02*
X252716238Y-170615666D01*
X252716238Y-170615666D02*
X252811476Y-170710904D01*
X252811476Y-170710904D02*
X252906714Y-170758523D01*
X252906714Y-170758523D02*
X253097190Y-170806142D01*
X253097190Y-170806142D02*
X253240047Y-170806142D01*
X253240047Y-170806142D02*
X253430523Y-170758523D01*
X253430523Y-170758523D02*
X253525761Y-170710904D01*
X253525761Y-170710904D02*
X253621000Y-170615666D01*
X253621000Y-170615666D02*
X253668619Y-170472809D01*
X253668619Y-170472809D02*
X253668619Y-170234714D01*
X252668619Y-171139476D02*
X252668619Y-171806142D01*
X252668619Y-171806142D02*
X253668619Y-171377571D01*
X252668619Y-172091857D02*
X252668619Y-172758523D01*
X252668619Y-172758523D02*
X253668619Y-172329952D01*
%TO.C,D1*%
X78662619Y-96893155D02*
X77662619Y-96893155D01*
X77662619Y-96893155D02*
X77662619Y-97131250D01*
X77662619Y-97131250D02*
X77710238Y-97274107D01*
X77710238Y-97274107D02*
X77805476Y-97369345D01*
X77805476Y-97369345D02*
X77900714Y-97416964D01*
X77900714Y-97416964D02*
X78091190Y-97464583D01*
X78091190Y-97464583D02*
X78234047Y-97464583D01*
X78234047Y-97464583D02*
X78424523Y-97416964D01*
X78424523Y-97416964D02*
X78519761Y-97369345D01*
X78519761Y-97369345D02*
X78615000Y-97274107D01*
X78615000Y-97274107D02*
X78662619Y-97131250D01*
X78662619Y-97131250D02*
X78662619Y-96893155D01*
X78662619Y-98416964D02*
X78662619Y-97845536D01*
X78662619Y-98131250D02*
X77662619Y-98131250D01*
X77662619Y-98131250D02*
X77805476Y-98036012D01*
X77805476Y-98036012D02*
X77900714Y-97940774D01*
X77900714Y-97940774D02*
X77948333Y-97845536D01*
%TO.C,C6*%
X86899386Y-117650065D02*
X86947006Y-117602446D01*
X86947006Y-117602446D02*
X86994625Y-117459589D01*
X86994625Y-117459589D02*
X86994625Y-117364351D01*
X86994625Y-117364351D02*
X86947006Y-117221494D01*
X86947006Y-117221494D02*
X86851767Y-117126256D01*
X86851767Y-117126256D02*
X86756529Y-117078637D01*
X86756529Y-117078637D02*
X86566053Y-117031018D01*
X86566053Y-117031018D02*
X86423196Y-117031018D01*
X86423196Y-117031018D02*
X86232720Y-117078637D01*
X86232720Y-117078637D02*
X86137482Y-117126256D01*
X86137482Y-117126256D02*
X86042244Y-117221494D01*
X86042244Y-117221494D02*
X85994625Y-117364351D01*
X85994625Y-117364351D02*
X85994625Y-117459589D01*
X85994625Y-117459589D02*
X86042244Y-117602446D01*
X86042244Y-117602446D02*
X86089863Y-117650065D01*
X85994625Y-118507208D02*
X85994625Y-118316732D01*
X85994625Y-118316732D02*
X86042244Y-118221494D01*
X86042244Y-118221494D02*
X86089863Y-118173875D01*
X86089863Y-118173875D02*
X86232720Y-118078637D01*
X86232720Y-118078637D02*
X86423196Y-118031018D01*
X86423196Y-118031018D02*
X86804148Y-118031018D01*
X86804148Y-118031018D02*
X86899386Y-118078637D01*
X86899386Y-118078637D02*
X86947006Y-118126256D01*
X86947006Y-118126256D02*
X86994625Y-118221494D01*
X86994625Y-118221494D02*
X86994625Y-118411970D01*
X86994625Y-118411970D02*
X86947006Y-118507208D01*
X86947006Y-118507208D02*
X86899386Y-118554827D01*
X86899386Y-118554827D02*
X86804148Y-118602446D01*
X86804148Y-118602446D02*
X86566053Y-118602446D01*
X86566053Y-118602446D02*
X86470815Y-118554827D01*
X86470815Y-118554827D02*
X86423196Y-118507208D01*
X86423196Y-118507208D02*
X86375577Y-118411970D01*
X86375577Y-118411970D02*
X86375577Y-118221494D01*
X86375577Y-118221494D02*
X86423196Y-118126256D01*
X86423196Y-118126256D02*
X86470815Y-118078637D01*
X86470815Y-118078637D02*
X86566053Y-118031018D01*
%TO.C,C1*%
X92967380Y-114867333D02*
X93015000Y-114819714D01*
X93015000Y-114819714D02*
X93062619Y-114676857D01*
X93062619Y-114676857D02*
X93062619Y-114581619D01*
X93062619Y-114581619D02*
X93015000Y-114438762D01*
X93015000Y-114438762D02*
X92919761Y-114343524D01*
X92919761Y-114343524D02*
X92824523Y-114295905D01*
X92824523Y-114295905D02*
X92634047Y-114248286D01*
X92634047Y-114248286D02*
X92491190Y-114248286D01*
X92491190Y-114248286D02*
X92300714Y-114295905D01*
X92300714Y-114295905D02*
X92205476Y-114343524D01*
X92205476Y-114343524D02*
X92110238Y-114438762D01*
X92110238Y-114438762D02*
X92062619Y-114581619D01*
X92062619Y-114581619D02*
X92062619Y-114676857D01*
X92062619Y-114676857D02*
X92110238Y-114819714D01*
X92110238Y-114819714D02*
X92157857Y-114867333D01*
X93062619Y-115819714D02*
X93062619Y-115248286D01*
X93062619Y-115534000D02*
X92062619Y-115534000D01*
X92062619Y-115534000D02*
X92205476Y-115438762D01*
X92205476Y-115438762D02*
X92300714Y-115343524D01*
X92300714Y-115343524D02*
X92348333Y-115248286D01*
%TO.C,D70*%
X128700619Y-172649714D02*
X127700619Y-172649714D01*
X127700619Y-172649714D02*
X127700619Y-172887809D01*
X127700619Y-172887809D02*
X127748238Y-173030666D01*
X127748238Y-173030666D02*
X127843476Y-173125904D01*
X127843476Y-173125904D02*
X127938714Y-173173523D01*
X127938714Y-173173523D02*
X128129190Y-173221142D01*
X128129190Y-173221142D02*
X128272047Y-173221142D01*
X128272047Y-173221142D02*
X128462523Y-173173523D01*
X128462523Y-173173523D02*
X128557761Y-173125904D01*
X128557761Y-173125904D02*
X128653000Y-173030666D01*
X128653000Y-173030666D02*
X128700619Y-172887809D01*
X128700619Y-172887809D02*
X128700619Y-172649714D01*
X127700619Y-173554476D02*
X127700619Y-174221142D01*
X127700619Y-174221142D02*
X128700619Y-173792571D01*
X127700619Y-174792571D02*
X127700619Y-174887809D01*
X127700619Y-174887809D02*
X127748238Y-174983047D01*
X127748238Y-174983047D02*
X127795857Y-175030666D01*
X127795857Y-175030666D02*
X127891095Y-175078285D01*
X127891095Y-175078285D02*
X128081571Y-175125904D01*
X128081571Y-175125904D02*
X128319666Y-175125904D01*
X128319666Y-175125904D02*
X128510142Y-175078285D01*
X128510142Y-175078285D02*
X128605380Y-175030666D01*
X128605380Y-175030666D02*
X128653000Y-174983047D01*
X128653000Y-174983047D02*
X128700619Y-174887809D01*
X128700619Y-174887809D02*
X128700619Y-174792571D01*
X128700619Y-174792571D02*
X128653000Y-174697333D01*
X128653000Y-174697333D02*
X128605380Y-174649714D01*
X128605380Y-174649714D02*
X128510142Y-174602095D01*
X128510142Y-174602095D02*
X128319666Y-174554476D01*
X128319666Y-174554476D02*
X128081571Y-174554476D01*
X128081571Y-174554476D02*
X127891095Y-174602095D01*
X127891095Y-174602095D02*
X127795857Y-174649714D01*
X127795857Y-174649714D02*
X127748238Y-174697333D01*
X127748238Y-174697333D02*
X127700619Y-174792571D01*
%TO.C,R2*%
X85680625Y-117650065D02*
X85204434Y-117316732D01*
X85680625Y-117078637D02*
X84680625Y-117078637D01*
X84680625Y-117078637D02*
X84680625Y-117459589D01*
X84680625Y-117459589D02*
X84728244Y-117554827D01*
X84728244Y-117554827D02*
X84775863Y-117602446D01*
X84775863Y-117602446D02*
X84871101Y-117650065D01*
X84871101Y-117650065D02*
X85013958Y-117650065D01*
X85013958Y-117650065D02*
X85109196Y-117602446D01*
X85109196Y-117602446D02*
X85156815Y-117554827D01*
X85156815Y-117554827D02*
X85204434Y-117459589D01*
X85204434Y-117459589D02*
X85204434Y-117078637D01*
X84775863Y-118031018D02*
X84728244Y-118078637D01*
X84728244Y-118078637D02*
X84680625Y-118173875D01*
X84680625Y-118173875D02*
X84680625Y-118411970D01*
X84680625Y-118411970D02*
X84728244Y-118507208D01*
X84728244Y-118507208D02*
X84775863Y-118554827D01*
X84775863Y-118554827D02*
X84871101Y-118602446D01*
X84871101Y-118602446D02*
X84966339Y-118602446D01*
X84966339Y-118602446D02*
X85109196Y-118554827D01*
X85109196Y-118554827D02*
X85680625Y-117983399D01*
X85680625Y-117983399D02*
X85680625Y-118602446D01*
%TO.C,LED1*%
X71685714Y-136511369D02*
X72161904Y-136511369D01*
X72161904Y-136511369D02*
X72161904Y-135511369D01*
X71352380Y-135987559D02*
X71019047Y-135987559D01*
X70876190Y-136511369D02*
X71352380Y-136511369D01*
X71352380Y-136511369D02*
X71352380Y-135511369D01*
X71352380Y-135511369D02*
X70876190Y-135511369D01*
X70447618Y-136511369D02*
X70447618Y-135511369D01*
X70447618Y-135511369D02*
X70209523Y-135511369D01*
X70209523Y-135511369D02*
X70066666Y-135558988D01*
X70066666Y-135558988D02*
X69971428Y-135654226D01*
X69971428Y-135654226D02*
X69923809Y-135749464D01*
X69923809Y-135749464D02*
X69876190Y-135939940D01*
X69876190Y-135939940D02*
X69876190Y-136082797D01*
X69876190Y-136082797D02*
X69923809Y-136273273D01*
X69923809Y-136273273D02*
X69971428Y-136368511D01*
X69971428Y-136368511D02*
X70066666Y-136463750D01*
X70066666Y-136463750D02*
X70209523Y-136511369D01*
X70209523Y-136511369D02*
X70447618Y-136511369D01*
X68923809Y-136511369D02*
X69495237Y-136511369D01*
X69209523Y-136511369D02*
X69209523Y-135511369D01*
X69209523Y-135511369D02*
X69304761Y-135654226D01*
X69304761Y-135654226D02*
X69399999Y-135749464D01*
X69399999Y-135749464D02*
X69495237Y-135797083D01*
%TO.C,C16*%
X83319857Y-124683380D02*
X83367476Y-124731000D01*
X83367476Y-124731000D02*
X83510333Y-124778619D01*
X83510333Y-124778619D02*
X83605571Y-124778619D01*
X83605571Y-124778619D02*
X83748428Y-124731000D01*
X83748428Y-124731000D02*
X83843666Y-124635761D01*
X83843666Y-124635761D02*
X83891285Y-124540523D01*
X83891285Y-124540523D02*
X83938904Y-124350047D01*
X83938904Y-124350047D02*
X83938904Y-124207190D01*
X83938904Y-124207190D02*
X83891285Y-124016714D01*
X83891285Y-124016714D02*
X83843666Y-123921476D01*
X83843666Y-123921476D02*
X83748428Y-123826238D01*
X83748428Y-123826238D02*
X83605571Y-123778619D01*
X83605571Y-123778619D02*
X83510333Y-123778619D01*
X83510333Y-123778619D02*
X83367476Y-123826238D01*
X83367476Y-123826238D02*
X83319857Y-123873857D01*
X82367476Y-124778619D02*
X82938904Y-124778619D01*
X82653190Y-124778619D02*
X82653190Y-123778619D01*
X82653190Y-123778619D02*
X82748428Y-123921476D01*
X82748428Y-123921476D02*
X82843666Y-124016714D01*
X82843666Y-124016714D02*
X82938904Y-124064333D01*
X81510333Y-123778619D02*
X81700809Y-123778619D01*
X81700809Y-123778619D02*
X81796047Y-123826238D01*
X81796047Y-123826238D02*
X81843666Y-123873857D01*
X81843666Y-123873857D02*
X81938904Y-124016714D01*
X81938904Y-124016714D02*
X81986523Y-124207190D01*
X81986523Y-124207190D02*
X81986523Y-124588142D01*
X81986523Y-124588142D02*
X81938904Y-124683380D01*
X81938904Y-124683380D02*
X81891285Y-124731000D01*
X81891285Y-124731000D02*
X81796047Y-124778619D01*
X81796047Y-124778619D02*
X81605571Y-124778619D01*
X81605571Y-124778619D02*
X81510333Y-124731000D01*
X81510333Y-124731000D02*
X81462714Y-124683380D01*
X81462714Y-124683380D02*
X81415095Y-124588142D01*
X81415095Y-124588142D02*
X81415095Y-124350047D01*
X81415095Y-124350047D02*
X81462714Y-124254809D01*
X81462714Y-124254809D02*
X81510333Y-124207190D01*
X81510333Y-124207190D02*
X81605571Y-124159571D01*
X81605571Y-124159571D02*
X81796047Y-124159571D01*
X81796047Y-124159571D02*
X81891285Y-124207190D01*
X81891285Y-124207190D02*
X81938904Y-124254809D01*
X81938904Y-124254809D02*
X81986523Y-124350047D01*
%TO.C,D24*%
X202487619Y-115466964D02*
X201487619Y-115466964D01*
X201487619Y-115466964D02*
X201487619Y-115705059D01*
X201487619Y-115705059D02*
X201535238Y-115847916D01*
X201535238Y-115847916D02*
X201630476Y-115943154D01*
X201630476Y-115943154D02*
X201725714Y-115990773D01*
X201725714Y-115990773D02*
X201916190Y-116038392D01*
X201916190Y-116038392D02*
X202059047Y-116038392D01*
X202059047Y-116038392D02*
X202249523Y-115990773D01*
X202249523Y-115990773D02*
X202344761Y-115943154D01*
X202344761Y-115943154D02*
X202440000Y-115847916D01*
X202440000Y-115847916D02*
X202487619Y-115705059D01*
X202487619Y-115705059D02*
X202487619Y-115466964D01*
X201582857Y-116419345D02*
X201535238Y-116466964D01*
X201535238Y-116466964D02*
X201487619Y-116562202D01*
X201487619Y-116562202D02*
X201487619Y-116800297D01*
X201487619Y-116800297D02*
X201535238Y-116895535D01*
X201535238Y-116895535D02*
X201582857Y-116943154D01*
X201582857Y-116943154D02*
X201678095Y-116990773D01*
X201678095Y-116990773D02*
X201773333Y-116990773D01*
X201773333Y-116990773D02*
X201916190Y-116943154D01*
X201916190Y-116943154D02*
X202487619Y-116371726D01*
X202487619Y-116371726D02*
X202487619Y-116990773D01*
X201820952Y-117847916D02*
X202487619Y-117847916D01*
X201440000Y-117609821D02*
X202154285Y-117371726D01*
X202154285Y-117371726D02*
X202154285Y-117990773D01*
%TO.C,D68*%
X104856369Y-172616964D02*
X103856369Y-172616964D01*
X103856369Y-172616964D02*
X103856369Y-172855059D01*
X103856369Y-172855059D02*
X103903988Y-172997916D01*
X103903988Y-172997916D02*
X103999226Y-173093154D01*
X103999226Y-173093154D02*
X104094464Y-173140773D01*
X104094464Y-173140773D02*
X104284940Y-173188392D01*
X104284940Y-173188392D02*
X104427797Y-173188392D01*
X104427797Y-173188392D02*
X104618273Y-173140773D01*
X104618273Y-173140773D02*
X104713511Y-173093154D01*
X104713511Y-173093154D02*
X104808750Y-172997916D01*
X104808750Y-172997916D02*
X104856369Y-172855059D01*
X104856369Y-172855059D02*
X104856369Y-172616964D01*
X103856369Y-174045535D02*
X103856369Y-173855059D01*
X103856369Y-173855059D02*
X103903988Y-173759821D01*
X103903988Y-173759821D02*
X103951607Y-173712202D01*
X103951607Y-173712202D02*
X104094464Y-173616964D01*
X104094464Y-173616964D02*
X104284940Y-173569345D01*
X104284940Y-173569345D02*
X104665892Y-173569345D01*
X104665892Y-173569345D02*
X104761130Y-173616964D01*
X104761130Y-173616964D02*
X104808750Y-173664583D01*
X104808750Y-173664583D02*
X104856369Y-173759821D01*
X104856369Y-173759821D02*
X104856369Y-173950297D01*
X104856369Y-173950297D02*
X104808750Y-174045535D01*
X104808750Y-174045535D02*
X104761130Y-174093154D01*
X104761130Y-174093154D02*
X104665892Y-174140773D01*
X104665892Y-174140773D02*
X104427797Y-174140773D01*
X104427797Y-174140773D02*
X104332559Y-174093154D01*
X104332559Y-174093154D02*
X104284940Y-174045535D01*
X104284940Y-174045535D02*
X104237321Y-173950297D01*
X104237321Y-173950297D02*
X104237321Y-173759821D01*
X104237321Y-173759821D02*
X104284940Y-173664583D01*
X104284940Y-173664583D02*
X104332559Y-173616964D01*
X104332559Y-173616964D02*
X104427797Y-173569345D01*
X104284940Y-174712202D02*
X104237321Y-174616964D01*
X104237321Y-174616964D02*
X104189702Y-174569345D01*
X104189702Y-174569345D02*
X104094464Y-174521726D01*
X104094464Y-174521726D02*
X104046845Y-174521726D01*
X104046845Y-174521726D02*
X103951607Y-174569345D01*
X103951607Y-174569345D02*
X103903988Y-174616964D01*
X103903988Y-174616964D02*
X103856369Y-174712202D01*
X103856369Y-174712202D02*
X103856369Y-174902678D01*
X103856369Y-174902678D02*
X103903988Y-174997916D01*
X103903988Y-174997916D02*
X103951607Y-175045535D01*
X103951607Y-175045535D02*
X104046845Y-175093154D01*
X104046845Y-175093154D02*
X104094464Y-175093154D01*
X104094464Y-175093154D02*
X104189702Y-175045535D01*
X104189702Y-175045535D02*
X104237321Y-174997916D01*
X104237321Y-174997916D02*
X104284940Y-174902678D01*
X104284940Y-174902678D02*
X104284940Y-174712202D01*
X104284940Y-174712202D02*
X104332559Y-174616964D01*
X104332559Y-174616964D02*
X104380178Y-174569345D01*
X104380178Y-174569345D02*
X104475416Y-174521726D01*
X104475416Y-174521726D02*
X104665892Y-174521726D01*
X104665892Y-174521726D02*
X104761130Y-174569345D01*
X104761130Y-174569345D02*
X104808750Y-174616964D01*
X104808750Y-174616964D02*
X104856369Y-174712202D01*
X104856369Y-174712202D02*
X104856369Y-174902678D01*
X104856369Y-174902678D02*
X104808750Y-174997916D01*
X104808750Y-174997916D02*
X104761130Y-175045535D01*
X104761130Y-175045535D02*
X104665892Y-175093154D01*
X104665892Y-175093154D02*
X104475416Y-175093154D01*
X104475416Y-175093154D02*
X104380178Y-175045535D01*
X104380178Y-175045535D02*
X104332559Y-174997916D01*
X104332559Y-174997916D02*
X104284940Y-174902678D01*
%TO.C,C8*%
X91344386Y-116888065D02*
X91392006Y-116840446D01*
X91392006Y-116840446D02*
X91439625Y-116697589D01*
X91439625Y-116697589D02*
X91439625Y-116602351D01*
X91439625Y-116602351D02*
X91392006Y-116459494D01*
X91392006Y-116459494D02*
X91296767Y-116364256D01*
X91296767Y-116364256D02*
X91201529Y-116316637D01*
X91201529Y-116316637D02*
X91011053Y-116269018D01*
X91011053Y-116269018D02*
X90868196Y-116269018D01*
X90868196Y-116269018D02*
X90677720Y-116316637D01*
X90677720Y-116316637D02*
X90582482Y-116364256D01*
X90582482Y-116364256D02*
X90487244Y-116459494D01*
X90487244Y-116459494D02*
X90439625Y-116602351D01*
X90439625Y-116602351D02*
X90439625Y-116697589D01*
X90439625Y-116697589D02*
X90487244Y-116840446D01*
X90487244Y-116840446D02*
X90534863Y-116888065D01*
X90868196Y-117459494D02*
X90820577Y-117364256D01*
X90820577Y-117364256D02*
X90772958Y-117316637D01*
X90772958Y-117316637D02*
X90677720Y-117269018D01*
X90677720Y-117269018D02*
X90630101Y-117269018D01*
X90630101Y-117269018D02*
X90534863Y-117316637D01*
X90534863Y-117316637D02*
X90487244Y-117364256D01*
X90487244Y-117364256D02*
X90439625Y-117459494D01*
X90439625Y-117459494D02*
X90439625Y-117649970D01*
X90439625Y-117649970D02*
X90487244Y-117745208D01*
X90487244Y-117745208D02*
X90534863Y-117792827D01*
X90534863Y-117792827D02*
X90630101Y-117840446D01*
X90630101Y-117840446D02*
X90677720Y-117840446D01*
X90677720Y-117840446D02*
X90772958Y-117792827D01*
X90772958Y-117792827D02*
X90820577Y-117745208D01*
X90820577Y-117745208D02*
X90868196Y-117649970D01*
X90868196Y-117649970D02*
X90868196Y-117459494D01*
X90868196Y-117459494D02*
X90915815Y-117364256D01*
X90915815Y-117364256D02*
X90963434Y-117316637D01*
X90963434Y-117316637D02*
X91058672Y-117269018D01*
X91058672Y-117269018D02*
X91249148Y-117269018D01*
X91249148Y-117269018D02*
X91344386Y-117316637D01*
X91344386Y-117316637D02*
X91392006Y-117364256D01*
X91392006Y-117364256D02*
X91439625Y-117459494D01*
X91439625Y-117459494D02*
X91439625Y-117649970D01*
X91439625Y-117649970D02*
X91392006Y-117745208D01*
X91392006Y-117745208D02*
X91344386Y-117792827D01*
X91344386Y-117792827D02*
X91249148Y-117840446D01*
X91249148Y-117840446D02*
X91058672Y-117840446D01*
X91058672Y-117840446D02*
X90963434Y-117792827D01*
X90963434Y-117792827D02*
X90915815Y-117745208D01*
X90915815Y-117745208D02*
X90868196Y-117649970D01*
%TO.C,D72*%
X173023619Y-172648714D02*
X172023619Y-172648714D01*
X172023619Y-172648714D02*
X172023619Y-172886809D01*
X172023619Y-172886809D02*
X172071238Y-173029666D01*
X172071238Y-173029666D02*
X172166476Y-173124904D01*
X172166476Y-173124904D02*
X172261714Y-173172523D01*
X172261714Y-173172523D02*
X172452190Y-173220142D01*
X172452190Y-173220142D02*
X172595047Y-173220142D01*
X172595047Y-173220142D02*
X172785523Y-173172523D01*
X172785523Y-173172523D02*
X172880761Y-173124904D01*
X172880761Y-173124904D02*
X172976000Y-173029666D01*
X172976000Y-173029666D02*
X173023619Y-172886809D01*
X173023619Y-172886809D02*
X173023619Y-172648714D01*
X172023619Y-173553476D02*
X172023619Y-174220142D01*
X172023619Y-174220142D02*
X173023619Y-173791571D01*
X172118857Y-174553476D02*
X172071238Y-174601095D01*
X172071238Y-174601095D02*
X172023619Y-174696333D01*
X172023619Y-174696333D02*
X172023619Y-174934428D01*
X172023619Y-174934428D02*
X172071238Y-175029666D01*
X172071238Y-175029666D02*
X172118857Y-175077285D01*
X172118857Y-175077285D02*
X172214095Y-175124904D01*
X172214095Y-175124904D02*
X172309333Y-175124904D01*
X172309333Y-175124904D02*
X172452190Y-175077285D01*
X172452190Y-175077285D02*
X173023619Y-174505857D01*
X173023619Y-174505857D02*
X173023619Y-175124904D01*
%TO.C,D33*%
X364412619Y-115466964D02*
X363412619Y-115466964D01*
X363412619Y-115466964D02*
X363412619Y-115705059D01*
X363412619Y-115705059D02*
X363460238Y-115847916D01*
X363460238Y-115847916D02*
X363555476Y-115943154D01*
X363555476Y-115943154D02*
X363650714Y-115990773D01*
X363650714Y-115990773D02*
X363841190Y-116038392D01*
X363841190Y-116038392D02*
X363984047Y-116038392D01*
X363984047Y-116038392D02*
X364174523Y-115990773D01*
X364174523Y-115990773D02*
X364269761Y-115943154D01*
X364269761Y-115943154D02*
X364365000Y-115847916D01*
X364365000Y-115847916D02*
X364412619Y-115705059D01*
X364412619Y-115705059D02*
X364412619Y-115466964D01*
X363412619Y-116371726D02*
X363412619Y-116990773D01*
X363412619Y-116990773D02*
X363793571Y-116657440D01*
X363793571Y-116657440D02*
X363793571Y-116800297D01*
X363793571Y-116800297D02*
X363841190Y-116895535D01*
X363841190Y-116895535D02*
X363888809Y-116943154D01*
X363888809Y-116943154D02*
X363984047Y-116990773D01*
X363984047Y-116990773D02*
X364222142Y-116990773D01*
X364222142Y-116990773D02*
X364317380Y-116943154D01*
X364317380Y-116943154D02*
X364365000Y-116895535D01*
X364365000Y-116895535D02*
X364412619Y-116800297D01*
X364412619Y-116800297D02*
X364412619Y-116514583D01*
X364412619Y-116514583D02*
X364365000Y-116419345D01*
X364365000Y-116419345D02*
X364317380Y-116371726D01*
X363412619Y-117324107D02*
X363412619Y-117943154D01*
X363412619Y-117943154D02*
X363793571Y-117609821D01*
X363793571Y-117609821D02*
X363793571Y-117752678D01*
X363793571Y-117752678D02*
X363841190Y-117847916D01*
X363841190Y-117847916D02*
X363888809Y-117895535D01*
X363888809Y-117895535D02*
X363984047Y-117943154D01*
X363984047Y-117943154D02*
X364222142Y-117943154D01*
X364222142Y-117943154D02*
X364317380Y-117895535D01*
X364317380Y-117895535D02*
X364365000Y-117847916D01*
X364365000Y-117847916D02*
X364412619Y-117752678D01*
X364412619Y-117752678D02*
X364412619Y-117466964D01*
X364412619Y-117466964D02*
X364365000Y-117371726D01*
X364365000Y-117371726D02*
X364317380Y-117324107D01*
%TO.C,D18*%
X84123619Y-109148714D02*
X83123619Y-109148714D01*
X83123619Y-109148714D02*
X83123619Y-109386809D01*
X83123619Y-109386809D02*
X83171238Y-109529666D01*
X83171238Y-109529666D02*
X83266476Y-109624904D01*
X83266476Y-109624904D02*
X83361714Y-109672523D01*
X83361714Y-109672523D02*
X83552190Y-109720142D01*
X83552190Y-109720142D02*
X83695047Y-109720142D01*
X83695047Y-109720142D02*
X83885523Y-109672523D01*
X83885523Y-109672523D02*
X83980761Y-109624904D01*
X83980761Y-109624904D02*
X84076000Y-109529666D01*
X84076000Y-109529666D02*
X84123619Y-109386809D01*
X84123619Y-109386809D02*
X84123619Y-109148714D01*
X84123619Y-110672523D02*
X84123619Y-110101095D01*
X84123619Y-110386809D02*
X83123619Y-110386809D01*
X83123619Y-110386809D02*
X83266476Y-110291571D01*
X83266476Y-110291571D02*
X83361714Y-110196333D01*
X83361714Y-110196333D02*
X83409333Y-110101095D01*
X83552190Y-111243952D02*
X83504571Y-111148714D01*
X83504571Y-111148714D02*
X83456952Y-111101095D01*
X83456952Y-111101095D02*
X83361714Y-111053476D01*
X83361714Y-111053476D02*
X83314095Y-111053476D01*
X83314095Y-111053476D02*
X83218857Y-111101095D01*
X83218857Y-111101095D02*
X83171238Y-111148714D01*
X83171238Y-111148714D02*
X83123619Y-111243952D01*
X83123619Y-111243952D02*
X83123619Y-111434428D01*
X83123619Y-111434428D02*
X83171238Y-111529666D01*
X83171238Y-111529666D02*
X83218857Y-111577285D01*
X83218857Y-111577285D02*
X83314095Y-111624904D01*
X83314095Y-111624904D02*
X83361714Y-111624904D01*
X83361714Y-111624904D02*
X83456952Y-111577285D01*
X83456952Y-111577285D02*
X83504571Y-111529666D01*
X83504571Y-111529666D02*
X83552190Y-111434428D01*
X83552190Y-111434428D02*
X83552190Y-111243952D01*
X83552190Y-111243952D02*
X83599809Y-111148714D01*
X83599809Y-111148714D02*
X83647428Y-111101095D01*
X83647428Y-111101095D02*
X83742666Y-111053476D01*
X83742666Y-111053476D02*
X83933142Y-111053476D01*
X83933142Y-111053476D02*
X84028380Y-111101095D01*
X84028380Y-111101095D02*
X84076000Y-111148714D01*
X84076000Y-111148714D02*
X84123619Y-111243952D01*
X84123619Y-111243952D02*
X84123619Y-111434428D01*
X84123619Y-111434428D02*
X84076000Y-111529666D01*
X84076000Y-111529666D02*
X84028380Y-111577285D01*
X84028380Y-111577285D02*
X83933142Y-111624904D01*
X83933142Y-111624904D02*
X83742666Y-111624904D01*
X83742666Y-111624904D02*
X83647428Y-111577285D01*
X83647428Y-111577285D02*
X83599809Y-111529666D01*
X83599809Y-111529666D02*
X83552190Y-111434428D01*
%TO.C,D38*%
X150100119Y-134516964D02*
X149100119Y-134516964D01*
X149100119Y-134516964D02*
X149100119Y-134755059D01*
X149100119Y-134755059D02*
X149147738Y-134897916D01*
X149147738Y-134897916D02*
X149242976Y-134993154D01*
X149242976Y-134993154D02*
X149338214Y-135040773D01*
X149338214Y-135040773D02*
X149528690Y-135088392D01*
X149528690Y-135088392D02*
X149671547Y-135088392D01*
X149671547Y-135088392D02*
X149862023Y-135040773D01*
X149862023Y-135040773D02*
X149957261Y-134993154D01*
X149957261Y-134993154D02*
X150052500Y-134897916D01*
X150052500Y-134897916D02*
X150100119Y-134755059D01*
X150100119Y-134755059D02*
X150100119Y-134516964D01*
X149100119Y-135421726D02*
X149100119Y-136040773D01*
X149100119Y-136040773D02*
X149481071Y-135707440D01*
X149481071Y-135707440D02*
X149481071Y-135850297D01*
X149481071Y-135850297D02*
X149528690Y-135945535D01*
X149528690Y-135945535D02*
X149576309Y-135993154D01*
X149576309Y-135993154D02*
X149671547Y-136040773D01*
X149671547Y-136040773D02*
X149909642Y-136040773D01*
X149909642Y-136040773D02*
X150004880Y-135993154D01*
X150004880Y-135993154D02*
X150052500Y-135945535D01*
X150052500Y-135945535D02*
X150100119Y-135850297D01*
X150100119Y-135850297D02*
X150100119Y-135564583D01*
X150100119Y-135564583D02*
X150052500Y-135469345D01*
X150052500Y-135469345D02*
X150004880Y-135421726D01*
X149528690Y-136612202D02*
X149481071Y-136516964D01*
X149481071Y-136516964D02*
X149433452Y-136469345D01*
X149433452Y-136469345D02*
X149338214Y-136421726D01*
X149338214Y-136421726D02*
X149290595Y-136421726D01*
X149290595Y-136421726D02*
X149195357Y-136469345D01*
X149195357Y-136469345D02*
X149147738Y-136516964D01*
X149147738Y-136516964D02*
X149100119Y-136612202D01*
X149100119Y-136612202D02*
X149100119Y-136802678D01*
X149100119Y-136802678D02*
X149147738Y-136897916D01*
X149147738Y-136897916D02*
X149195357Y-136945535D01*
X149195357Y-136945535D02*
X149290595Y-136993154D01*
X149290595Y-136993154D02*
X149338214Y-136993154D01*
X149338214Y-136993154D02*
X149433452Y-136945535D01*
X149433452Y-136945535D02*
X149481071Y-136897916D01*
X149481071Y-136897916D02*
X149528690Y-136802678D01*
X149528690Y-136802678D02*
X149528690Y-136612202D01*
X149528690Y-136612202D02*
X149576309Y-136516964D01*
X149576309Y-136516964D02*
X149623928Y-136469345D01*
X149623928Y-136469345D02*
X149719166Y-136421726D01*
X149719166Y-136421726D02*
X149909642Y-136421726D01*
X149909642Y-136421726D02*
X150004880Y-136469345D01*
X150004880Y-136469345D02*
X150052500Y-136516964D01*
X150052500Y-136516964D02*
X150100119Y-136612202D01*
X150100119Y-136612202D02*
X150100119Y-136802678D01*
X150100119Y-136802678D02*
X150052500Y-136897916D01*
X150052500Y-136897916D02*
X150004880Y-136945535D01*
X150004880Y-136945535D02*
X149909642Y-136993154D01*
X149909642Y-136993154D02*
X149719166Y-136993154D01*
X149719166Y-136993154D02*
X149623928Y-136945535D01*
X149623928Y-136945535D02*
X149576309Y-136897916D01*
X149576309Y-136897916D02*
X149528690Y-136802678D01*
%TO.C,C11*%
X85939885Y-131067106D02*
X86007228Y-131067106D01*
X86007228Y-131067106D02*
X86141915Y-130999763D01*
X86141915Y-130999763D02*
X86209259Y-130932419D01*
X86209259Y-130932419D02*
X86276602Y-130797732D01*
X86276602Y-130797732D02*
X86276602Y-130663045D01*
X86276602Y-130663045D02*
X86242931Y-130562030D01*
X86242931Y-130562030D02*
X86141915Y-130393671D01*
X86141915Y-130393671D02*
X86040900Y-130292656D01*
X86040900Y-130292656D02*
X85872541Y-130191641D01*
X85872541Y-130191641D02*
X85771526Y-130157969D01*
X85771526Y-130157969D02*
X85636839Y-130157969D01*
X85636839Y-130157969D02*
X85502152Y-130225313D01*
X85502152Y-130225313D02*
X85434808Y-130292656D01*
X85434808Y-130292656D02*
X85367465Y-130427343D01*
X85367465Y-130427343D02*
X85367465Y-130494687D01*
X85333793Y-131807885D02*
X85737854Y-131403824D01*
X85535824Y-131605854D02*
X84828717Y-130898748D01*
X84828717Y-130898748D02*
X84997076Y-130932419D01*
X84997076Y-130932419D02*
X85131763Y-130932419D01*
X85131763Y-130932419D02*
X85232778Y-130898748D01*
X84660358Y-132481320D02*
X85064419Y-132077259D01*
X84862389Y-132279289D02*
X84155282Y-131572183D01*
X84155282Y-131572183D02*
X84323641Y-131605854D01*
X84323641Y-131605854D02*
X84458328Y-131605854D01*
X84458328Y-131605854D02*
X84559343Y-131572183D01*
%TO.C,D35*%
X84786625Y-132857446D02*
X83786625Y-132857446D01*
X83786625Y-132857446D02*
X83786625Y-133095541D01*
X83786625Y-133095541D02*
X83834244Y-133238398D01*
X83834244Y-133238398D02*
X83929482Y-133333636D01*
X83929482Y-133333636D02*
X84024720Y-133381255D01*
X84024720Y-133381255D02*
X84215196Y-133428874D01*
X84215196Y-133428874D02*
X84358053Y-133428874D01*
X84358053Y-133428874D02*
X84548529Y-133381255D01*
X84548529Y-133381255D02*
X84643767Y-133333636D01*
X84643767Y-133333636D02*
X84739006Y-133238398D01*
X84739006Y-133238398D02*
X84786625Y-133095541D01*
X84786625Y-133095541D02*
X84786625Y-132857446D01*
X83786625Y-133762208D02*
X83786625Y-134381255D01*
X83786625Y-134381255D02*
X84167577Y-134047922D01*
X84167577Y-134047922D02*
X84167577Y-134190779D01*
X84167577Y-134190779D02*
X84215196Y-134286017D01*
X84215196Y-134286017D02*
X84262815Y-134333636D01*
X84262815Y-134333636D02*
X84358053Y-134381255D01*
X84358053Y-134381255D02*
X84596148Y-134381255D01*
X84596148Y-134381255D02*
X84691386Y-134333636D01*
X84691386Y-134333636D02*
X84739006Y-134286017D01*
X84739006Y-134286017D02*
X84786625Y-134190779D01*
X84786625Y-134190779D02*
X84786625Y-133905065D01*
X84786625Y-133905065D02*
X84739006Y-133809827D01*
X84739006Y-133809827D02*
X84691386Y-133762208D01*
X83786625Y-135286017D02*
X83786625Y-134809827D01*
X83786625Y-134809827D02*
X84262815Y-134762208D01*
X84262815Y-134762208D02*
X84215196Y-134809827D01*
X84215196Y-134809827D02*
X84167577Y-134905065D01*
X84167577Y-134905065D02*
X84167577Y-135143160D01*
X84167577Y-135143160D02*
X84215196Y-135238398D01*
X84215196Y-135238398D02*
X84262815Y-135286017D01*
X84262815Y-135286017D02*
X84358053Y-135333636D01*
X84358053Y-135333636D02*
X84596148Y-135333636D01*
X84596148Y-135333636D02*
X84691386Y-135286017D01*
X84691386Y-135286017D02*
X84739006Y-135238398D01*
X84739006Y-135238398D02*
X84786625Y-135143160D01*
X84786625Y-135143160D02*
X84786625Y-134905065D01*
X84786625Y-134905065D02*
X84739006Y-134809827D01*
X84739006Y-134809827D02*
X84691386Y-134762208D01*
%TO.C,D51*%
X90568869Y-153566964D02*
X89568869Y-153566964D01*
X89568869Y-153566964D02*
X89568869Y-153805059D01*
X89568869Y-153805059D02*
X89616488Y-153947916D01*
X89616488Y-153947916D02*
X89711726Y-154043154D01*
X89711726Y-154043154D02*
X89806964Y-154090773D01*
X89806964Y-154090773D02*
X89997440Y-154138392D01*
X89997440Y-154138392D02*
X90140297Y-154138392D01*
X90140297Y-154138392D02*
X90330773Y-154090773D01*
X90330773Y-154090773D02*
X90426011Y-154043154D01*
X90426011Y-154043154D02*
X90521250Y-153947916D01*
X90521250Y-153947916D02*
X90568869Y-153805059D01*
X90568869Y-153805059D02*
X90568869Y-153566964D01*
X89568869Y-155043154D02*
X89568869Y-154566964D01*
X89568869Y-154566964D02*
X90045059Y-154519345D01*
X90045059Y-154519345D02*
X89997440Y-154566964D01*
X89997440Y-154566964D02*
X89949821Y-154662202D01*
X89949821Y-154662202D02*
X89949821Y-154900297D01*
X89949821Y-154900297D02*
X89997440Y-154995535D01*
X89997440Y-154995535D02*
X90045059Y-155043154D01*
X90045059Y-155043154D02*
X90140297Y-155090773D01*
X90140297Y-155090773D02*
X90378392Y-155090773D01*
X90378392Y-155090773D02*
X90473630Y-155043154D01*
X90473630Y-155043154D02*
X90521250Y-154995535D01*
X90521250Y-154995535D02*
X90568869Y-154900297D01*
X90568869Y-154900297D02*
X90568869Y-154662202D01*
X90568869Y-154662202D02*
X90521250Y-154566964D01*
X90521250Y-154566964D02*
X90473630Y-154519345D01*
X90568869Y-156043154D02*
X90568869Y-155471726D01*
X90568869Y-155757440D02*
X89568869Y-155757440D01*
X89568869Y-155757440D02*
X89711726Y-155662202D01*
X89711726Y-155662202D02*
X89806964Y-155566964D01*
X89806964Y-155566964D02*
X89854583Y-155471726D01*
%TO.C,D37*%
X131050119Y-134516964D02*
X130050119Y-134516964D01*
X130050119Y-134516964D02*
X130050119Y-134755059D01*
X130050119Y-134755059D02*
X130097738Y-134897916D01*
X130097738Y-134897916D02*
X130192976Y-134993154D01*
X130192976Y-134993154D02*
X130288214Y-135040773D01*
X130288214Y-135040773D02*
X130478690Y-135088392D01*
X130478690Y-135088392D02*
X130621547Y-135088392D01*
X130621547Y-135088392D02*
X130812023Y-135040773D01*
X130812023Y-135040773D02*
X130907261Y-134993154D01*
X130907261Y-134993154D02*
X131002500Y-134897916D01*
X131002500Y-134897916D02*
X131050119Y-134755059D01*
X131050119Y-134755059D02*
X131050119Y-134516964D01*
X130050119Y-135421726D02*
X130050119Y-136040773D01*
X130050119Y-136040773D02*
X130431071Y-135707440D01*
X130431071Y-135707440D02*
X130431071Y-135850297D01*
X130431071Y-135850297D02*
X130478690Y-135945535D01*
X130478690Y-135945535D02*
X130526309Y-135993154D01*
X130526309Y-135993154D02*
X130621547Y-136040773D01*
X130621547Y-136040773D02*
X130859642Y-136040773D01*
X130859642Y-136040773D02*
X130954880Y-135993154D01*
X130954880Y-135993154D02*
X131002500Y-135945535D01*
X131002500Y-135945535D02*
X131050119Y-135850297D01*
X131050119Y-135850297D02*
X131050119Y-135564583D01*
X131050119Y-135564583D02*
X131002500Y-135469345D01*
X131002500Y-135469345D02*
X130954880Y-135421726D01*
X130050119Y-136374107D02*
X130050119Y-137040773D01*
X130050119Y-137040773D02*
X131050119Y-136612202D01*
%TO.C,D30*%
X316787619Y-115466964D02*
X315787619Y-115466964D01*
X315787619Y-115466964D02*
X315787619Y-115705059D01*
X315787619Y-115705059D02*
X315835238Y-115847916D01*
X315835238Y-115847916D02*
X315930476Y-115943154D01*
X315930476Y-115943154D02*
X316025714Y-115990773D01*
X316025714Y-115990773D02*
X316216190Y-116038392D01*
X316216190Y-116038392D02*
X316359047Y-116038392D01*
X316359047Y-116038392D02*
X316549523Y-115990773D01*
X316549523Y-115990773D02*
X316644761Y-115943154D01*
X316644761Y-115943154D02*
X316740000Y-115847916D01*
X316740000Y-115847916D02*
X316787619Y-115705059D01*
X316787619Y-115705059D02*
X316787619Y-115466964D01*
X315787619Y-116371726D02*
X315787619Y-116990773D01*
X315787619Y-116990773D02*
X316168571Y-116657440D01*
X316168571Y-116657440D02*
X316168571Y-116800297D01*
X316168571Y-116800297D02*
X316216190Y-116895535D01*
X316216190Y-116895535D02*
X316263809Y-116943154D01*
X316263809Y-116943154D02*
X316359047Y-116990773D01*
X316359047Y-116990773D02*
X316597142Y-116990773D01*
X316597142Y-116990773D02*
X316692380Y-116943154D01*
X316692380Y-116943154D02*
X316740000Y-116895535D01*
X316740000Y-116895535D02*
X316787619Y-116800297D01*
X316787619Y-116800297D02*
X316787619Y-116514583D01*
X316787619Y-116514583D02*
X316740000Y-116419345D01*
X316740000Y-116419345D02*
X316692380Y-116371726D01*
X315787619Y-117609821D02*
X315787619Y-117705059D01*
X315787619Y-117705059D02*
X315835238Y-117800297D01*
X315835238Y-117800297D02*
X315882857Y-117847916D01*
X315882857Y-117847916D02*
X315978095Y-117895535D01*
X315978095Y-117895535D02*
X316168571Y-117943154D01*
X316168571Y-117943154D02*
X316406666Y-117943154D01*
X316406666Y-117943154D02*
X316597142Y-117895535D01*
X316597142Y-117895535D02*
X316692380Y-117847916D01*
X316692380Y-117847916D02*
X316740000Y-117800297D01*
X316740000Y-117800297D02*
X316787619Y-117705059D01*
X316787619Y-117705059D02*
X316787619Y-117609821D01*
X316787619Y-117609821D02*
X316740000Y-117514583D01*
X316740000Y-117514583D02*
X316692380Y-117466964D01*
X316692380Y-117466964D02*
X316597142Y-117419345D01*
X316597142Y-117419345D02*
X316406666Y-117371726D01*
X316406666Y-117371726D02*
X316168571Y-117371726D01*
X316168571Y-117371726D02*
X315978095Y-117419345D01*
X315978095Y-117419345D02*
X315882857Y-117466964D01*
X315882857Y-117466964D02*
X315835238Y-117514583D01*
X315835238Y-117514583D02*
X315787619Y-117609821D01*
%TO.C,D46*%
X302944619Y-133151714D02*
X301944619Y-133151714D01*
X301944619Y-133151714D02*
X301944619Y-133389809D01*
X301944619Y-133389809D02*
X301992238Y-133532666D01*
X301992238Y-133532666D02*
X302087476Y-133627904D01*
X302087476Y-133627904D02*
X302182714Y-133675523D01*
X302182714Y-133675523D02*
X302373190Y-133723142D01*
X302373190Y-133723142D02*
X302516047Y-133723142D01*
X302516047Y-133723142D02*
X302706523Y-133675523D01*
X302706523Y-133675523D02*
X302801761Y-133627904D01*
X302801761Y-133627904D02*
X302897000Y-133532666D01*
X302897000Y-133532666D02*
X302944619Y-133389809D01*
X302944619Y-133389809D02*
X302944619Y-133151714D01*
X302277952Y-134580285D02*
X302944619Y-134580285D01*
X301897000Y-134342190D02*
X302611285Y-134104095D01*
X302611285Y-134104095D02*
X302611285Y-134723142D01*
X301944619Y-135532666D02*
X301944619Y-135342190D01*
X301944619Y-135342190D02*
X301992238Y-135246952D01*
X301992238Y-135246952D02*
X302039857Y-135199333D01*
X302039857Y-135199333D02*
X302182714Y-135104095D01*
X302182714Y-135104095D02*
X302373190Y-135056476D01*
X302373190Y-135056476D02*
X302754142Y-135056476D01*
X302754142Y-135056476D02*
X302849380Y-135104095D01*
X302849380Y-135104095D02*
X302897000Y-135151714D01*
X302897000Y-135151714D02*
X302944619Y-135246952D01*
X302944619Y-135246952D02*
X302944619Y-135437428D01*
X302944619Y-135437428D02*
X302897000Y-135532666D01*
X302897000Y-135532666D02*
X302849380Y-135580285D01*
X302849380Y-135580285D02*
X302754142Y-135627904D01*
X302754142Y-135627904D02*
X302516047Y-135627904D01*
X302516047Y-135627904D02*
X302420809Y-135580285D01*
X302420809Y-135580285D02*
X302373190Y-135532666D01*
X302373190Y-135532666D02*
X302325571Y-135437428D01*
X302325571Y-135437428D02*
X302325571Y-135246952D01*
X302325571Y-135246952D02*
X302373190Y-135151714D01*
X302373190Y-135151714D02*
X302420809Y-135104095D01*
X302420809Y-135104095D02*
X302516047Y-135056476D01*
%TO.C,D7*%
X192962619Y-96893155D02*
X191962619Y-96893155D01*
X191962619Y-96893155D02*
X191962619Y-97131250D01*
X191962619Y-97131250D02*
X192010238Y-97274107D01*
X192010238Y-97274107D02*
X192105476Y-97369345D01*
X192105476Y-97369345D02*
X192200714Y-97416964D01*
X192200714Y-97416964D02*
X192391190Y-97464583D01*
X192391190Y-97464583D02*
X192534047Y-97464583D01*
X192534047Y-97464583D02*
X192724523Y-97416964D01*
X192724523Y-97416964D02*
X192819761Y-97369345D01*
X192819761Y-97369345D02*
X192915000Y-97274107D01*
X192915000Y-97274107D02*
X192962619Y-97131250D01*
X192962619Y-97131250D02*
X192962619Y-96893155D01*
X191962619Y-97797917D02*
X191962619Y-98464583D01*
X191962619Y-98464583D02*
X192962619Y-98036012D01*
%TO.C,SW85*%
X109505523Y-113020000D02*
X109362666Y-113067619D01*
X109362666Y-113067619D02*
X109124571Y-113067619D01*
X109124571Y-113067619D02*
X109029333Y-113020000D01*
X109029333Y-113020000D02*
X108981714Y-112972380D01*
X108981714Y-112972380D02*
X108934095Y-112877142D01*
X108934095Y-112877142D02*
X108934095Y-112781904D01*
X108934095Y-112781904D02*
X108981714Y-112686666D01*
X108981714Y-112686666D02*
X109029333Y-112639047D01*
X109029333Y-112639047D02*
X109124571Y-112591428D01*
X109124571Y-112591428D02*
X109315047Y-112543809D01*
X109315047Y-112543809D02*
X109410285Y-112496190D01*
X109410285Y-112496190D02*
X109457904Y-112448571D01*
X109457904Y-112448571D02*
X109505523Y-112353333D01*
X109505523Y-112353333D02*
X109505523Y-112258095D01*
X109505523Y-112258095D02*
X109457904Y-112162857D01*
X109457904Y-112162857D02*
X109410285Y-112115238D01*
X109410285Y-112115238D02*
X109315047Y-112067619D01*
X109315047Y-112067619D02*
X109076952Y-112067619D01*
X109076952Y-112067619D02*
X108934095Y-112115238D01*
X108600761Y-112067619D02*
X108362666Y-113067619D01*
X108362666Y-113067619D02*
X108172190Y-112353333D01*
X108172190Y-112353333D02*
X107981714Y-113067619D01*
X107981714Y-113067619D02*
X107743619Y-112067619D01*
X107219809Y-112496190D02*
X107315047Y-112448571D01*
X107315047Y-112448571D02*
X107362666Y-112400952D01*
X107362666Y-112400952D02*
X107410285Y-112305714D01*
X107410285Y-112305714D02*
X107410285Y-112258095D01*
X107410285Y-112258095D02*
X107362666Y-112162857D01*
X107362666Y-112162857D02*
X107315047Y-112115238D01*
X107315047Y-112115238D02*
X107219809Y-112067619D01*
X107219809Y-112067619D02*
X107029333Y-112067619D01*
X107029333Y-112067619D02*
X106934095Y-112115238D01*
X106934095Y-112115238D02*
X106886476Y-112162857D01*
X106886476Y-112162857D02*
X106838857Y-112258095D01*
X106838857Y-112258095D02*
X106838857Y-112305714D01*
X106838857Y-112305714D02*
X106886476Y-112400952D01*
X106886476Y-112400952D02*
X106934095Y-112448571D01*
X106934095Y-112448571D02*
X107029333Y-112496190D01*
X107029333Y-112496190D02*
X107219809Y-112496190D01*
X107219809Y-112496190D02*
X107315047Y-112543809D01*
X107315047Y-112543809D02*
X107362666Y-112591428D01*
X107362666Y-112591428D02*
X107410285Y-112686666D01*
X107410285Y-112686666D02*
X107410285Y-112877142D01*
X107410285Y-112877142D02*
X107362666Y-112972380D01*
X107362666Y-112972380D02*
X107315047Y-113020000D01*
X107315047Y-113020000D02*
X107219809Y-113067619D01*
X107219809Y-113067619D02*
X107029333Y-113067619D01*
X107029333Y-113067619D02*
X106934095Y-113020000D01*
X106934095Y-113020000D02*
X106886476Y-112972380D01*
X106886476Y-112972380D02*
X106838857Y-112877142D01*
X106838857Y-112877142D02*
X106838857Y-112686666D01*
X106838857Y-112686666D02*
X106886476Y-112591428D01*
X106886476Y-112591428D02*
X106934095Y-112543809D01*
X106934095Y-112543809D02*
X107029333Y-112496190D01*
X105934095Y-112067619D02*
X106410285Y-112067619D01*
X106410285Y-112067619D02*
X106457904Y-112543809D01*
X106457904Y-112543809D02*
X106410285Y-112496190D01*
X106410285Y-112496190D02*
X106315047Y-112448571D01*
X106315047Y-112448571D02*
X106076952Y-112448571D01*
X106076952Y-112448571D02*
X105981714Y-112496190D01*
X105981714Y-112496190D02*
X105934095Y-112543809D01*
X105934095Y-112543809D02*
X105886476Y-112639047D01*
X105886476Y-112639047D02*
X105886476Y-112877142D01*
X105886476Y-112877142D02*
X105934095Y-112972380D01*
X105934095Y-112972380D02*
X105981714Y-113020000D01*
X105981714Y-113020000D02*
X106076952Y-113067619D01*
X106076952Y-113067619D02*
X106315047Y-113067619D01*
X106315047Y-113067619D02*
X106410285Y-113020000D01*
X106410285Y-113020000D02*
X106457904Y-112972380D01*
%TO.C,D58*%
X216775119Y-153566964D02*
X215775119Y-153566964D01*
X215775119Y-153566964D02*
X215775119Y-153805059D01*
X215775119Y-153805059D02*
X215822738Y-153947916D01*
X215822738Y-153947916D02*
X215917976Y-154043154D01*
X215917976Y-154043154D02*
X216013214Y-154090773D01*
X216013214Y-154090773D02*
X216203690Y-154138392D01*
X216203690Y-154138392D02*
X216346547Y-154138392D01*
X216346547Y-154138392D02*
X216537023Y-154090773D01*
X216537023Y-154090773D02*
X216632261Y-154043154D01*
X216632261Y-154043154D02*
X216727500Y-153947916D01*
X216727500Y-153947916D02*
X216775119Y-153805059D01*
X216775119Y-153805059D02*
X216775119Y-153566964D01*
X215775119Y-155043154D02*
X215775119Y-154566964D01*
X215775119Y-154566964D02*
X216251309Y-154519345D01*
X216251309Y-154519345D02*
X216203690Y-154566964D01*
X216203690Y-154566964D02*
X216156071Y-154662202D01*
X216156071Y-154662202D02*
X216156071Y-154900297D01*
X216156071Y-154900297D02*
X216203690Y-154995535D01*
X216203690Y-154995535D02*
X216251309Y-155043154D01*
X216251309Y-155043154D02*
X216346547Y-155090773D01*
X216346547Y-155090773D02*
X216584642Y-155090773D01*
X216584642Y-155090773D02*
X216679880Y-155043154D01*
X216679880Y-155043154D02*
X216727500Y-154995535D01*
X216727500Y-154995535D02*
X216775119Y-154900297D01*
X216775119Y-154900297D02*
X216775119Y-154662202D01*
X216775119Y-154662202D02*
X216727500Y-154566964D01*
X216727500Y-154566964D02*
X216679880Y-154519345D01*
X216203690Y-155662202D02*
X216156071Y-155566964D01*
X216156071Y-155566964D02*
X216108452Y-155519345D01*
X216108452Y-155519345D02*
X216013214Y-155471726D01*
X216013214Y-155471726D02*
X215965595Y-155471726D01*
X215965595Y-155471726D02*
X215870357Y-155519345D01*
X215870357Y-155519345D02*
X215822738Y-155566964D01*
X215822738Y-155566964D02*
X215775119Y-155662202D01*
X215775119Y-155662202D02*
X215775119Y-155852678D01*
X215775119Y-155852678D02*
X215822738Y-155947916D01*
X215822738Y-155947916D02*
X215870357Y-155995535D01*
X215870357Y-155995535D02*
X215965595Y-156043154D01*
X215965595Y-156043154D02*
X216013214Y-156043154D01*
X216013214Y-156043154D02*
X216108452Y-155995535D01*
X216108452Y-155995535D02*
X216156071Y-155947916D01*
X216156071Y-155947916D02*
X216203690Y-155852678D01*
X216203690Y-155852678D02*
X216203690Y-155662202D01*
X216203690Y-155662202D02*
X216251309Y-155566964D01*
X216251309Y-155566964D02*
X216298928Y-155519345D01*
X216298928Y-155519345D02*
X216394166Y-155471726D01*
X216394166Y-155471726D02*
X216584642Y-155471726D01*
X216584642Y-155471726D02*
X216679880Y-155519345D01*
X216679880Y-155519345D02*
X216727500Y-155566964D01*
X216727500Y-155566964D02*
X216775119Y-155662202D01*
X216775119Y-155662202D02*
X216775119Y-155852678D01*
X216775119Y-155852678D02*
X216727500Y-155947916D01*
X216727500Y-155947916D02*
X216679880Y-155995535D01*
X216679880Y-155995535D02*
X216584642Y-156043154D01*
X216584642Y-156043154D02*
X216394166Y-156043154D01*
X216394166Y-156043154D02*
X216298928Y-155995535D01*
X216298928Y-155995535D02*
X216251309Y-155947916D01*
X216251309Y-155947916D02*
X216203690Y-155852678D01*
%TO.C,D82*%
X322629619Y-172616964D02*
X321629619Y-172616964D01*
X321629619Y-172616964D02*
X321629619Y-172855059D01*
X321629619Y-172855059D02*
X321677238Y-172997916D01*
X321677238Y-172997916D02*
X321772476Y-173093154D01*
X321772476Y-173093154D02*
X321867714Y-173140773D01*
X321867714Y-173140773D02*
X322058190Y-173188392D01*
X322058190Y-173188392D02*
X322201047Y-173188392D01*
X322201047Y-173188392D02*
X322391523Y-173140773D01*
X322391523Y-173140773D02*
X322486761Y-173093154D01*
X322486761Y-173093154D02*
X322582000Y-172997916D01*
X322582000Y-172997916D02*
X322629619Y-172855059D01*
X322629619Y-172855059D02*
X322629619Y-172616964D01*
X322058190Y-173759821D02*
X322010571Y-173664583D01*
X322010571Y-173664583D02*
X321962952Y-173616964D01*
X321962952Y-173616964D02*
X321867714Y-173569345D01*
X321867714Y-173569345D02*
X321820095Y-173569345D01*
X321820095Y-173569345D02*
X321724857Y-173616964D01*
X321724857Y-173616964D02*
X321677238Y-173664583D01*
X321677238Y-173664583D02*
X321629619Y-173759821D01*
X321629619Y-173759821D02*
X321629619Y-173950297D01*
X321629619Y-173950297D02*
X321677238Y-174045535D01*
X321677238Y-174045535D02*
X321724857Y-174093154D01*
X321724857Y-174093154D02*
X321820095Y-174140773D01*
X321820095Y-174140773D02*
X321867714Y-174140773D01*
X321867714Y-174140773D02*
X321962952Y-174093154D01*
X321962952Y-174093154D02*
X322010571Y-174045535D01*
X322010571Y-174045535D02*
X322058190Y-173950297D01*
X322058190Y-173950297D02*
X322058190Y-173759821D01*
X322058190Y-173759821D02*
X322105809Y-173664583D01*
X322105809Y-173664583D02*
X322153428Y-173616964D01*
X322153428Y-173616964D02*
X322248666Y-173569345D01*
X322248666Y-173569345D02*
X322439142Y-173569345D01*
X322439142Y-173569345D02*
X322534380Y-173616964D01*
X322534380Y-173616964D02*
X322582000Y-173664583D01*
X322582000Y-173664583D02*
X322629619Y-173759821D01*
X322629619Y-173759821D02*
X322629619Y-173950297D01*
X322629619Y-173950297D02*
X322582000Y-174045535D01*
X322582000Y-174045535D02*
X322534380Y-174093154D01*
X322534380Y-174093154D02*
X322439142Y-174140773D01*
X322439142Y-174140773D02*
X322248666Y-174140773D01*
X322248666Y-174140773D02*
X322153428Y-174093154D01*
X322153428Y-174093154D02*
X322105809Y-174045535D01*
X322105809Y-174045535D02*
X322058190Y-173950297D01*
X321724857Y-174521726D02*
X321677238Y-174569345D01*
X321677238Y-174569345D02*
X321629619Y-174664583D01*
X321629619Y-174664583D02*
X321629619Y-174902678D01*
X321629619Y-174902678D02*
X321677238Y-174997916D01*
X321677238Y-174997916D02*
X321724857Y-175045535D01*
X321724857Y-175045535D02*
X321820095Y-175093154D01*
X321820095Y-175093154D02*
X321915333Y-175093154D01*
X321915333Y-175093154D02*
X322058190Y-175045535D01*
X322058190Y-175045535D02*
X322629619Y-174474107D01*
X322629619Y-174474107D02*
X322629619Y-175093154D01*
%TO.C,D27*%
X259637619Y-115466964D02*
X258637619Y-115466964D01*
X258637619Y-115466964D02*
X258637619Y-115705059D01*
X258637619Y-115705059D02*
X258685238Y-115847916D01*
X258685238Y-115847916D02*
X258780476Y-115943154D01*
X258780476Y-115943154D02*
X258875714Y-115990773D01*
X258875714Y-115990773D02*
X259066190Y-116038392D01*
X259066190Y-116038392D02*
X259209047Y-116038392D01*
X259209047Y-116038392D02*
X259399523Y-115990773D01*
X259399523Y-115990773D02*
X259494761Y-115943154D01*
X259494761Y-115943154D02*
X259590000Y-115847916D01*
X259590000Y-115847916D02*
X259637619Y-115705059D01*
X259637619Y-115705059D02*
X259637619Y-115466964D01*
X258732857Y-116419345D02*
X258685238Y-116466964D01*
X258685238Y-116466964D02*
X258637619Y-116562202D01*
X258637619Y-116562202D02*
X258637619Y-116800297D01*
X258637619Y-116800297D02*
X258685238Y-116895535D01*
X258685238Y-116895535D02*
X258732857Y-116943154D01*
X258732857Y-116943154D02*
X258828095Y-116990773D01*
X258828095Y-116990773D02*
X258923333Y-116990773D01*
X258923333Y-116990773D02*
X259066190Y-116943154D01*
X259066190Y-116943154D02*
X259637619Y-116371726D01*
X259637619Y-116371726D02*
X259637619Y-116990773D01*
X258637619Y-117324107D02*
X258637619Y-117990773D01*
X258637619Y-117990773D02*
X259637619Y-117562202D01*
%TO.C,C12*%
X94114857Y-123193380D02*
X94162476Y-123241000D01*
X94162476Y-123241000D02*
X94305333Y-123288619D01*
X94305333Y-123288619D02*
X94400571Y-123288619D01*
X94400571Y-123288619D02*
X94543428Y-123241000D01*
X94543428Y-123241000D02*
X94638666Y-123145761D01*
X94638666Y-123145761D02*
X94686285Y-123050523D01*
X94686285Y-123050523D02*
X94733904Y-122860047D01*
X94733904Y-122860047D02*
X94733904Y-122717190D01*
X94733904Y-122717190D02*
X94686285Y-122526714D01*
X94686285Y-122526714D02*
X94638666Y-122431476D01*
X94638666Y-122431476D02*
X94543428Y-122336238D01*
X94543428Y-122336238D02*
X94400571Y-122288619D01*
X94400571Y-122288619D02*
X94305333Y-122288619D01*
X94305333Y-122288619D02*
X94162476Y-122336238D01*
X94162476Y-122336238D02*
X94114857Y-122383857D01*
X93162476Y-123288619D02*
X93733904Y-123288619D01*
X93448190Y-123288619D02*
X93448190Y-122288619D01*
X93448190Y-122288619D02*
X93543428Y-122431476D01*
X93543428Y-122431476D02*
X93638666Y-122526714D01*
X93638666Y-122526714D02*
X93733904Y-122574333D01*
X92781523Y-122383857D02*
X92733904Y-122336238D01*
X92733904Y-122336238D02*
X92638666Y-122288619D01*
X92638666Y-122288619D02*
X92400571Y-122288619D01*
X92400571Y-122288619D02*
X92305333Y-122336238D01*
X92305333Y-122336238D02*
X92257714Y-122383857D01*
X92257714Y-122383857D02*
X92210095Y-122479095D01*
X92210095Y-122479095D02*
X92210095Y-122574333D01*
X92210095Y-122574333D02*
X92257714Y-122717190D01*
X92257714Y-122717190D02*
X92829142Y-123288619D01*
X92829142Y-123288619D02*
X92210095Y-123288619D01*
%TO.C,D80*%
X292975119Y-172616964D02*
X291975119Y-172616964D01*
X291975119Y-172616964D02*
X291975119Y-172855059D01*
X291975119Y-172855059D02*
X292022738Y-172997916D01*
X292022738Y-172997916D02*
X292117976Y-173093154D01*
X292117976Y-173093154D02*
X292213214Y-173140773D01*
X292213214Y-173140773D02*
X292403690Y-173188392D01*
X292403690Y-173188392D02*
X292546547Y-173188392D01*
X292546547Y-173188392D02*
X292737023Y-173140773D01*
X292737023Y-173140773D02*
X292832261Y-173093154D01*
X292832261Y-173093154D02*
X292927500Y-172997916D01*
X292927500Y-172997916D02*
X292975119Y-172855059D01*
X292975119Y-172855059D02*
X292975119Y-172616964D01*
X292403690Y-173759821D02*
X292356071Y-173664583D01*
X292356071Y-173664583D02*
X292308452Y-173616964D01*
X292308452Y-173616964D02*
X292213214Y-173569345D01*
X292213214Y-173569345D02*
X292165595Y-173569345D01*
X292165595Y-173569345D02*
X292070357Y-173616964D01*
X292070357Y-173616964D02*
X292022738Y-173664583D01*
X292022738Y-173664583D02*
X291975119Y-173759821D01*
X291975119Y-173759821D02*
X291975119Y-173950297D01*
X291975119Y-173950297D02*
X292022738Y-174045535D01*
X292022738Y-174045535D02*
X292070357Y-174093154D01*
X292070357Y-174093154D02*
X292165595Y-174140773D01*
X292165595Y-174140773D02*
X292213214Y-174140773D01*
X292213214Y-174140773D02*
X292308452Y-174093154D01*
X292308452Y-174093154D02*
X292356071Y-174045535D01*
X292356071Y-174045535D02*
X292403690Y-173950297D01*
X292403690Y-173950297D02*
X292403690Y-173759821D01*
X292403690Y-173759821D02*
X292451309Y-173664583D01*
X292451309Y-173664583D02*
X292498928Y-173616964D01*
X292498928Y-173616964D02*
X292594166Y-173569345D01*
X292594166Y-173569345D02*
X292784642Y-173569345D01*
X292784642Y-173569345D02*
X292879880Y-173616964D01*
X292879880Y-173616964D02*
X292927500Y-173664583D01*
X292927500Y-173664583D02*
X292975119Y-173759821D01*
X292975119Y-173759821D02*
X292975119Y-173950297D01*
X292975119Y-173950297D02*
X292927500Y-174045535D01*
X292927500Y-174045535D02*
X292879880Y-174093154D01*
X292879880Y-174093154D02*
X292784642Y-174140773D01*
X292784642Y-174140773D02*
X292594166Y-174140773D01*
X292594166Y-174140773D02*
X292498928Y-174093154D01*
X292498928Y-174093154D02*
X292451309Y-174045535D01*
X292451309Y-174045535D02*
X292403690Y-173950297D01*
X291975119Y-174759821D02*
X291975119Y-174855059D01*
X291975119Y-174855059D02*
X292022738Y-174950297D01*
X292022738Y-174950297D02*
X292070357Y-174997916D01*
X292070357Y-174997916D02*
X292165595Y-175045535D01*
X292165595Y-175045535D02*
X292356071Y-175093154D01*
X292356071Y-175093154D02*
X292594166Y-175093154D01*
X292594166Y-175093154D02*
X292784642Y-175045535D01*
X292784642Y-175045535D02*
X292879880Y-174997916D01*
X292879880Y-174997916D02*
X292927500Y-174950297D01*
X292927500Y-174950297D02*
X292975119Y-174855059D01*
X292975119Y-174855059D02*
X292975119Y-174759821D01*
X292975119Y-174759821D02*
X292927500Y-174664583D01*
X292927500Y-174664583D02*
X292879880Y-174616964D01*
X292879880Y-174616964D02*
X292784642Y-174569345D01*
X292784642Y-174569345D02*
X292594166Y-174521726D01*
X292594166Y-174521726D02*
X292356071Y-174521726D01*
X292356071Y-174521726D02*
X292165595Y-174569345D01*
X292165595Y-174569345D02*
X292070357Y-174616964D01*
X292070357Y-174616964D02*
X292022738Y-174664583D01*
X292022738Y-174664583D02*
X291975119Y-174759821D01*
%TO.C,D5*%
X154862619Y-96893155D02*
X153862619Y-96893155D01*
X153862619Y-96893155D02*
X153862619Y-97131250D01*
X153862619Y-97131250D02*
X153910238Y-97274107D01*
X153910238Y-97274107D02*
X154005476Y-97369345D01*
X154005476Y-97369345D02*
X154100714Y-97416964D01*
X154100714Y-97416964D02*
X154291190Y-97464583D01*
X154291190Y-97464583D02*
X154434047Y-97464583D01*
X154434047Y-97464583D02*
X154624523Y-97416964D01*
X154624523Y-97416964D02*
X154719761Y-97369345D01*
X154719761Y-97369345D02*
X154815000Y-97274107D01*
X154815000Y-97274107D02*
X154862619Y-97131250D01*
X154862619Y-97131250D02*
X154862619Y-96893155D01*
X153862619Y-98369345D02*
X153862619Y-97893155D01*
X153862619Y-97893155D02*
X154338809Y-97845536D01*
X154338809Y-97845536D02*
X154291190Y-97893155D01*
X154291190Y-97893155D02*
X154243571Y-97988393D01*
X154243571Y-97988393D02*
X154243571Y-98226488D01*
X154243571Y-98226488D02*
X154291190Y-98321726D01*
X154291190Y-98321726D02*
X154338809Y-98369345D01*
X154338809Y-98369345D02*
X154434047Y-98416964D01*
X154434047Y-98416964D02*
X154672142Y-98416964D01*
X154672142Y-98416964D02*
X154767380Y-98369345D01*
X154767380Y-98369345D02*
X154815000Y-98321726D01*
X154815000Y-98321726D02*
X154862619Y-98226488D01*
X154862619Y-98226488D02*
X154862619Y-97988393D01*
X154862619Y-97988393D02*
X154815000Y-97893155D01*
X154815000Y-97893155D02*
X154767380Y-97845536D01*
%TO.C,D64*%
X345362619Y-153566964D02*
X344362619Y-153566964D01*
X344362619Y-153566964D02*
X344362619Y-153805059D01*
X344362619Y-153805059D02*
X344410238Y-153947916D01*
X344410238Y-153947916D02*
X344505476Y-154043154D01*
X344505476Y-154043154D02*
X344600714Y-154090773D01*
X344600714Y-154090773D02*
X344791190Y-154138392D01*
X344791190Y-154138392D02*
X344934047Y-154138392D01*
X344934047Y-154138392D02*
X345124523Y-154090773D01*
X345124523Y-154090773D02*
X345219761Y-154043154D01*
X345219761Y-154043154D02*
X345315000Y-153947916D01*
X345315000Y-153947916D02*
X345362619Y-153805059D01*
X345362619Y-153805059D02*
X345362619Y-153566964D01*
X344362619Y-154995535D02*
X344362619Y-154805059D01*
X344362619Y-154805059D02*
X344410238Y-154709821D01*
X344410238Y-154709821D02*
X344457857Y-154662202D01*
X344457857Y-154662202D02*
X344600714Y-154566964D01*
X344600714Y-154566964D02*
X344791190Y-154519345D01*
X344791190Y-154519345D02*
X345172142Y-154519345D01*
X345172142Y-154519345D02*
X345267380Y-154566964D01*
X345267380Y-154566964D02*
X345315000Y-154614583D01*
X345315000Y-154614583D02*
X345362619Y-154709821D01*
X345362619Y-154709821D02*
X345362619Y-154900297D01*
X345362619Y-154900297D02*
X345315000Y-154995535D01*
X345315000Y-154995535D02*
X345267380Y-155043154D01*
X345267380Y-155043154D02*
X345172142Y-155090773D01*
X345172142Y-155090773D02*
X344934047Y-155090773D01*
X344934047Y-155090773D02*
X344838809Y-155043154D01*
X344838809Y-155043154D02*
X344791190Y-154995535D01*
X344791190Y-154995535D02*
X344743571Y-154900297D01*
X344743571Y-154900297D02*
X344743571Y-154709821D01*
X344743571Y-154709821D02*
X344791190Y-154614583D01*
X344791190Y-154614583D02*
X344838809Y-154566964D01*
X344838809Y-154566964D02*
X344934047Y-154519345D01*
X344695952Y-155947916D02*
X345362619Y-155947916D01*
X344315000Y-155709821D02*
X345029285Y-155471726D01*
X345029285Y-155471726D02*
X345029285Y-156090773D01*
%TO.C,D61*%
X273925119Y-153566964D02*
X272925119Y-153566964D01*
X272925119Y-153566964D02*
X272925119Y-153805059D01*
X272925119Y-153805059D02*
X272972738Y-153947916D01*
X272972738Y-153947916D02*
X273067976Y-154043154D01*
X273067976Y-154043154D02*
X273163214Y-154090773D01*
X273163214Y-154090773D02*
X273353690Y-154138392D01*
X273353690Y-154138392D02*
X273496547Y-154138392D01*
X273496547Y-154138392D02*
X273687023Y-154090773D01*
X273687023Y-154090773D02*
X273782261Y-154043154D01*
X273782261Y-154043154D02*
X273877500Y-153947916D01*
X273877500Y-153947916D02*
X273925119Y-153805059D01*
X273925119Y-153805059D02*
X273925119Y-153566964D01*
X272925119Y-154995535D02*
X272925119Y-154805059D01*
X272925119Y-154805059D02*
X272972738Y-154709821D01*
X272972738Y-154709821D02*
X273020357Y-154662202D01*
X273020357Y-154662202D02*
X273163214Y-154566964D01*
X273163214Y-154566964D02*
X273353690Y-154519345D01*
X273353690Y-154519345D02*
X273734642Y-154519345D01*
X273734642Y-154519345D02*
X273829880Y-154566964D01*
X273829880Y-154566964D02*
X273877500Y-154614583D01*
X273877500Y-154614583D02*
X273925119Y-154709821D01*
X273925119Y-154709821D02*
X273925119Y-154900297D01*
X273925119Y-154900297D02*
X273877500Y-154995535D01*
X273877500Y-154995535D02*
X273829880Y-155043154D01*
X273829880Y-155043154D02*
X273734642Y-155090773D01*
X273734642Y-155090773D02*
X273496547Y-155090773D01*
X273496547Y-155090773D02*
X273401309Y-155043154D01*
X273401309Y-155043154D02*
X273353690Y-154995535D01*
X273353690Y-154995535D02*
X273306071Y-154900297D01*
X273306071Y-154900297D02*
X273306071Y-154709821D01*
X273306071Y-154709821D02*
X273353690Y-154614583D01*
X273353690Y-154614583D02*
X273401309Y-154566964D01*
X273401309Y-154566964D02*
X273496547Y-154519345D01*
X273925119Y-156043154D02*
X273925119Y-155471726D01*
X273925119Y-155757440D02*
X272925119Y-155757440D01*
X272925119Y-155757440D02*
X273067976Y-155662202D01*
X273067976Y-155662202D02*
X273163214Y-155566964D01*
X273163214Y-155566964D02*
X273210833Y-155471726D01*
%TO.C,U1*%
X88792410Y-119530351D02*
X88792410Y-120339874D01*
X88792410Y-120339874D02*
X88744791Y-120435112D01*
X88744791Y-120435112D02*
X88697172Y-120482732D01*
X88697172Y-120482732D02*
X88601934Y-120530351D01*
X88601934Y-120530351D02*
X88411458Y-120530351D01*
X88411458Y-120530351D02*
X88316220Y-120482732D01*
X88316220Y-120482732D02*
X88268601Y-120435112D01*
X88268601Y-120435112D02*
X88220982Y-120339874D01*
X88220982Y-120339874D02*
X88220982Y-119530351D01*
X87220982Y-120530351D02*
X87792410Y-120530351D01*
X87506696Y-120530351D02*
X87506696Y-119530351D01*
X87506696Y-119530351D02*
X87601934Y-119673208D01*
X87601934Y-119673208D02*
X87697172Y-119768446D01*
X87697172Y-119768446D02*
X87792410Y-119816065D01*
%TO.C,D11*%
X269162619Y-96416964D02*
X268162619Y-96416964D01*
X268162619Y-96416964D02*
X268162619Y-96655059D01*
X268162619Y-96655059D02*
X268210238Y-96797916D01*
X268210238Y-96797916D02*
X268305476Y-96893154D01*
X268305476Y-96893154D02*
X268400714Y-96940773D01*
X268400714Y-96940773D02*
X268591190Y-96988392D01*
X268591190Y-96988392D02*
X268734047Y-96988392D01*
X268734047Y-96988392D02*
X268924523Y-96940773D01*
X268924523Y-96940773D02*
X269019761Y-96893154D01*
X269019761Y-96893154D02*
X269115000Y-96797916D01*
X269115000Y-96797916D02*
X269162619Y-96655059D01*
X269162619Y-96655059D02*
X269162619Y-96416964D01*
X269162619Y-97940773D02*
X269162619Y-97369345D01*
X269162619Y-97655059D02*
X268162619Y-97655059D01*
X268162619Y-97655059D02*
X268305476Y-97559821D01*
X268305476Y-97559821D02*
X268400714Y-97464583D01*
X268400714Y-97464583D02*
X268448333Y-97369345D01*
X269162619Y-98893154D02*
X269162619Y-98321726D01*
X269162619Y-98607440D02*
X268162619Y-98607440D01*
X268162619Y-98607440D02*
X268305476Y-98512202D01*
X268305476Y-98512202D02*
X268400714Y-98416964D01*
X268400714Y-98416964D02*
X268448333Y-98321726D01*
%TO.C,C3*%
X87054681Y-133975946D02*
X87054681Y-134043289D01*
X87054681Y-134043289D02*
X87122024Y-134177976D01*
X87122024Y-134177976D02*
X87189368Y-134245320D01*
X87189368Y-134245320D02*
X87324055Y-134312663D01*
X87324055Y-134312663D02*
X87458742Y-134312663D01*
X87458742Y-134312663D02*
X87559757Y-134278992D01*
X87559757Y-134278992D02*
X87728116Y-134177976D01*
X87728116Y-134177976D02*
X87829131Y-134076961D01*
X87829131Y-134076961D02*
X87930146Y-133908602D01*
X87930146Y-133908602D02*
X87963818Y-133807587D01*
X87963818Y-133807587D02*
X87963818Y-133672900D01*
X87963818Y-133672900D02*
X87896475Y-133538213D01*
X87896475Y-133538213D02*
X87829131Y-133470870D01*
X87829131Y-133470870D02*
X87694444Y-133403526D01*
X87694444Y-133403526D02*
X87627101Y-133403526D01*
X87458742Y-133100480D02*
X87021009Y-132662748D01*
X87021009Y-132662748D02*
X86987337Y-133167824D01*
X86987337Y-133167824D02*
X86886322Y-133066809D01*
X86886322Y-133066809D02*
X86785307Y-133033137D01*
X86785307Y-133033137D02*
X86717963Y-133033137D01*
X86717963Y-133033137D02*
X86616948Y-133066809D01*
X86616948Y-133066809D02*
X86448589Y-133235167D01*
X86448589Y-133235167D02*
X86414917Y-133336183D01*
X86414917Y-133336183D02*
X86414917Y-133403526D01*
X86414917Y-133403526D02*
X86448589Y-133504541D01*
X86448589Y-133504541D02*
X86650620Y-133706572D01*
X86650620Y-133706572D02*
X86751635Y-133740244D01*
X86751635Y-133740244D02*
X86818978Y-133740244D01*
%TO.C,D54*%
X140575119Y-153566964D02*
X139575119Y-153566964D01*
X139575119Y-153566964D02*
X139575119Y-153805059D01*
X139575119Y-153805059D02*
X139622738Y-153947916D01*
X139622738Y-153947916D02*
X139717976Y-154043154D01*
X139717976Y-154043154D02*
X139813214Y-154090773D01*
X139813214Y-154090773D02*
X140003690Y-154138392D01*
X140003690Y-154138392D02*
X140146547Y-154138392D01*
X140146547Y-154138392D02*
X140337023Y-154090773D01*
X140337023Y-154090773D02*
X140432261Y-154043154D01*
X140432261Y-154043154D02*
X140527500Y-153947916D01*
X140527500Y-153947916D02*
X140575119Y-153805059D01*
X140575119Y-153805059D02*
X140575119Y-153566964D01*
X139575119Y-155043154D02*
X139575119Y-154566964D01*
X139575119Y-154566964D02*
X140051309Y-154519345D01*
X140051309Y-154519345D02*
X140003690Y-154566964D01*
X140003690Y-154566964D02*
X139956071Y-154662202D01*
X139956071Y-154662202D02*
X139956071Y-154900297D01*
X139956071Y-154900297D02*
X140003690Y-154995535D01*
X140003690Y-154995535D02*
X140051309Y-155043154D01*
X140051309Y-155043154D02*
X140146547Y-155090773D01*
X140146547Y-155090773D02*
X140384642Y-155090773D01*
X140384642Y-155090773D02*
X140479880Y-155043154D01*
X140479880Y-155043154D02*
X140527500Y-154995535D01*
X140527500Y-154995535D02*
X140575119Y-154900297D01*
X140575119Y-154900297D02*
X140575119Y-154662202D01*
X140575119Y-154662202D02*
X140527500Y-154566964D01*
X140527500Y-154566964D02*
X140479880Y-154519345D01*
X139908452Y-155947916D02*
X140575119Y-155947916D01*
X139527500Y-155709821D02*
X140241785Y-155471726D01*
X140241785Y-155471726D02*
X140241785Y-156090773D01*
%TO.C,D21*%
X145337619Y-115466964D02*
X144337619Y-115466964D01*
X144337619Y-115466964D02*
X144337619Y-115705059D01*
X144337619Y-115705059D02*
X144385238Y-115847916D01*
X144385238Y-115847916D02*
X144480476Y-115943154D01*
X144480476Y-115943154D02*
X144575714Y-115990773D01*
X144575714Y-115990773D02*
X144766190Y-116038392D01*
X144766190Y-116038392D02*
X144909047Y-116038392D01*
X144909047Y-116038392D02*
X145099523Y-115990773D01*
X145099523Y-115990773D02*
X145194761Y-115943154D01*
X145194761Y-115943154D02*
X145290000Y-115847916D01*
X145290000Y-115847916D02*
X145337619Y-115705059D01*
X145337619Y-115705059D02*
X145337619Y-115466964D01*
X144432857Y-116419345D02*
X144385238Y-116466964D01*
X144385238Y-116466964D02*
X144337619Y-116562202D01*
X144337619Y-116562202D02*
X144337619Y-116800297D01*
X144337619Y-116800297D02*
X144385238Y-116895535D01*
X144385238Y-116895535D02*
X144432857Y-116943154D01*
X144432857Y-116943154D02*
X144528095Y-116990773D01*
X144528095Y-116990773D02*
X144623333Y-116990773D01*
X144623333Y-116990773D02*
X144766190Y-116943154D01*
X144766190Y-116943154D02*
X145337619Y-116371726D01*
X145337619Y-116371726D02*
X145337619Y-116990773D01*
X145337619Y-117943154D02*
X145337619Y-117371726D01*
X145337619Y-117657440D02*
X144337619Y-117657440D01*
X144337619Y-117657440D02*
X144480476Y-117562202D01*
X144480476Y-117562202D02*
X144575714Y-117466964D01*
X144575714Y-117466964D02*
X144623333Y-117371726D01*
%TO.C,D15*%
X335837619Y-96416964D02*
X334837619Y-96416964D01*
X334837619Y-96416964D02*
X334837619Y-96655059D01*
X334837619Y-96655059D02*
X334885238Y-96797916D01*
X334885238Y-96797916D02*
X334980476Y-96893154D01*
X334980476Y-96893154D02*
X335075714Y-96940773D01*
X335075714Y-96940773D02*
X335266190Y-96988392D01*
X335266190Y-96988392D02*
X335409047Y-96988392D01*
X335409047Y-96988392D02*
X335599523Y-96940773D01*
X335599523Y-96940773D02*
X335694761Y-96893154D01*
X335694761Y-96893154D02*
X335790000Y-96797916D01*
X335790000Y-96797916D02*
X335837619Y-96655059D01*
X335837619Y-96655059D02*
X335837619Y-96416964D01*
X335837619Y-97940773D02*
X335837619Y-97369345D01*
X335837619Y-97655059D02*
X334837619Y-97655059D01*
X334837619Y-97655059D02*
X334980476Y-97559821D01*
X334980476Y-97559821D02*
X335075714Y-97464583D01*
X335075714Y-97464583D02*
X335123333Y-97369345D01*
X334837619Y-98845535D02*
X334837619Y-98369345D01*
X334837619Y-98369345D02*
X335313809Y-98321726D01*
X335313809Y-98321726D02*
X335266190Y-98369345D01*
X335266190Y-98369345D02*
X335218571Y-98464583D01*
X335218571Y-98464583D02*
X335218571Y-98702678D01*
X335218571Y-98702678D02*
X335266190Y-98797916D01*
X335266190Y-98797916D02*
X335313809Y-98845535D01*
X335313809Y-98845535D02*
X335409047Y-98893154D01*
X335409047Y-98893154D02*
X335647142Y-98893154D01*
X335647142Y-98893154D02*
X335742380Y-98845535D01*
X335742380Y-98845535D02*
X335790000Y-98797916D01*
X335790000Y-98797916D02*
X335837619Y-98702678D01*
X335837619Y-98702678D02*
X335837619Y-98464583D01*
X335837619Y-98464583D02*
X335790000Y-98369345D01*
X335790000Y-98369345D02*
X335742380Y-98321726D01*
%TO.C,C10*%
X83472051Y-118250111D02*
X83519670Y-118297731D01*
X83519670Y-118297731D02*
X83662527Y-118345350D01*
X83662527Y-118345350D02*
X83757765Y-118345350D01*
X83757765Y-118345350D02*
X83900622Y-118297731D01*
X83900622Y-118297731D02*
X83995860Y-118202492D01*
X83995860Y-118202492D02*
X84043479Y-118107254D01*
X84043479Y-118107254D02*
X84091098Y-117916778D01*
X84091098Y-117916778D02*
X84091098Y-117773921D01*
X84091098Y-117773921D02*
X84043479Y-117583445D01*
X84043479Y-117583445D02*
X83995860Y-117488207D01*
X83995860Y-117488207D02*
X83900622Y-117392969D01*
X83900622Y-117392969D02*
X83757765Y-117345350D01*
X83757765Y-117345350D02*
X83662527Y-117345350D01*
X83662527Y-117345350D02*
X83519670Y-117392969D01*
X83519670Y-117392969D02*
X83472051Y-117440588D01*
X82519670Y-118345350D02*
X83091098Y-118345350D01*
X82805384Y-118345350D02*
X82805384Y-117345350D01*
X82805384Y-117345350D02*
X82900622Y-117488207D01*
X82900622Y-117488207D02*
X82995860Y-117583445D01*
X82995860Y-117583445D02*
X83091098Y-117631064D01*
X81900622Y-117345350D02*
X81805384Y-117345350D01*
X81805384Y-117345350D02*
X81710146Y-117392969D01*
X81710146Y-117392969D02*
X81662527Y-117440588D01*
X81662527Y-117440588D02*
X81614908Y-117535826D01*
X81614908Y-117535826D02*
X81567289Y-117726302D01*
X81567289Y-117726302D02*
X81567289Y-117964397D01*
X81567289Y-117964397D02*
X81614908Y-118154873D01*
X81614908Y-118154873D02*
X81662527Y-118250111D01*
X81662527Y-118250111D02*
X81710146Y-118297731D01*
X81710146Y-118297731D02*
X81805384Y-118345350D01*
X81805384Y-118345350D02*
X81900622Y-118345350D01*
X81900622Y-118345350D02*
X81995860Y-118297731D01*
X81995860Y-118297731D02*
X82043479Y-118250111D01*
X82043479Y-118250111D02*
X82091098Y-118154873D01*
X82091098Y-118154873D02*
X82138717Y-117964397D01*
X82138717Y-117964397D02*
X82138717Y-117726302D01*
X82138717Y-117726302D02*
X82091098Y-117535826D01*
X82091098Y-117535826D02*
X82043479Y-117440588D01*
X82043479Y-117440588D02*
X81995860Y-117392969D01*
X81995860Y-117392969D02*
X81900622Y-117345350D01*
%TO.C,D65*%
X364412619Y-153566964D02*
X363412619Y-153566964D01*
X363412619Y-153566964D02*
X363412619Y-153805059D01*
X363412619Y-153805059D02*
X363460238Y-153947916D01*
X363460238Y-153947916D02*
X363555476Y-154043154D01*
X363555476Y-154043154D02*
X363650714Y-154090773D01*
X363650714Y-154090773D02*
X363841190Y-154138392D01*
X363841190Y-154138392D02*
X363984047Y-154138392D01*
X363984047Y-154138392D02*
X364174523Y-154090773D01*
X364174523Y-154090773D02*
X364269761Y-154043154D01*
X364269761Y-154043154D02*
X364365000Y-153947916D01*
X364365000Y-153947916D02*
X364412619Y-153805059D01*
X364412619Y-153805059D02*
X364412619Y-153566964D01*
X363412619Y-154995535D02*
X363412619Y-154805059D01*
X363412619Y-154805059D02*
X363460238Y-154709821D01*
X363460238Y-154709821D02*
X363507857Y-154662202D01*
X363507857Y-154662202D02*
X363650714Y-154566964D01*
X363650714Y-154566964D02*
X363841190Y-154519345D01*
X363841190Y-154519345D02*
X364222142Y-154519345D01*
X364222142Y-154519345D02*
X364317380Y-154566964D01*
X364317380Y-154566964D02*
X364365000Y-154614583D01*
X364365000Y-154614583D02*
X364412619Y-154709821D01*
X364412619Y-154709821D02*
X364412619Y-154900297D01*
X364412619Y-154900297D02*
X364365000Y-154995535D01*
X364365000Y-154995535D02*
X364317380Y-155043154D01*
X364317380Y-155043154D02*
X364222142Y-155090773D01*
X364222142Y-155090773D02*
X363984047Y-155090773D01*
X363984047Y-155090773D02*
X363888809Y-155043154D01*
X363888809Y-155043154D02*
X363841190Y-154995535D01*
X363841190Y-154995535D02*
X363793571Y-154900297D01*
X363793571Y-154900297D02*
X363793571Y-154709821D01*
X363793571Y-154709821D02*
X363841190Y-154614583D01*
X363841190Y-154614583D02*
X363888809Y-154566964D01*
X363888809Y-154566964D02*
X363984047Y-154519345D01*
X363412619Y-155995535D02*
X363412619Y-155519345D01*
X363412619Y-155519345D02*
X363888809Y-155471726D01*
X363888809Y-155471726D02*
X363841190Y-155519345D01*
X363841190Y-155519345D02*
X363793571Y-155614583D01*
X363793571Y-155614583D02*
X363793571Y-155852678D01*
X363793571Y-155852678D02*
X363841190Y-155947916D01*
X363841190Y-155947916D02*
X363888809Y-155995535D01*
X363888809Y-155995535D02*
X363984047Y-156043154D01*
X363984047Y-156043154D02*
X364222142Y-156043154D01*
X364222142Y-156043154D02*
X364317380Y-155995535D01*
X364317380Y-155995535D02*
X364365000Y-155947916D01*
X364365000Y-155947916D02*
X364412619Y-155852678D01*
X364412619Y-155852678D02*
X364412619Y-155614583D01*
X364412619Y-155614583D02*
X364365000Y-155519345D01*
X364365000Y-155519345D02*
X364317380Y-155471726D01*
%TO.C,Y1*%
X93074609Y-135416028D02*
X93411326Y-135752746D01*
X92939922Y-134809937D02*
X93074609Y-135416028D01*
X93074609Y-135416028D02*
X92468517Y-135281341D01*
X92569532Y-136594540D02*
X92973593Y-136190479D01*
X92771563Y-136392509D02*
X92064456Y-135685403D01*
X92064456Y-135685403D02*
X92232815Y-135719074D01*
X92232815Y-135719074D02*
X92367502Y-135719074D01*
X92367502Y-135719074D02*
X92468517Y-135685403D01*
%TO.C,D62*%
X292975119Y-153566964D02*
X291975119Y-153566964D01*
X291975119Y-153566964D02*
X291975119Y-153805059D01*
X291975119Y-153805059D02*
X292022738Y-153947916D01*
X292022738Y-153947916D02*
X292117976Y-154043154D01*
X292117976Y-154043154D02*
X292213214Y-154090773D01*
X292213214Y-154090773D02*
X292403690Y-154138392D01*
X292403690Y-154138392D02*
X292546547Y-154138392D01*
X292546547Y-154138392D02*
X292737023Y-154090773D01*
X292737023Y-154090773D02*
X292832261Y-154043154D01*
X292832261Y-154043154D02*
X292927500Y-153947916D01*
X292927500Y-153947916D02*
X292975119Y-153805059D01*
X292975119Y-153805059D02*
X292975119Y-153566964D01*
X291975119Y-154995535D02*
X291975119Y-154805059D01*
X291975119Y-154805059D02*
X292022738Y-154709821D01*
X292022738Y-154709821D02*
X292070357Y-154662202D01*
X292070357Y-154662202D02*
X292213214Y-154566964D01*
X292213214Y-154566964D02*
X292403690Y-154519345D01*
X292403690Y-154519345D02*
X292784642Y-154519345D01*
X292784642Y-154519345D02*
X292879880Y-154566964D01*
X292879880Y-154566964D02*
X292927500Y-154614583D01*
X292927500Y-154614583D02*
X292975119Y-154709821D01*
X292975119Y-154709821D02*
X292975119Y-154900297D01*
X292975119Y-154900297D02*
X292927500Y-154995535D01*
X292927500Y-154995535D02*
X292879880Y-155043154D01*
X292879880Y-155043154D02*
X292784642Y-155090773D01*
X292784642Y-155090773D02*
X292546547Y-155090773D01*
X292546547Y-155090773D02*
X292451309Y-155043154D01*
X292451309Y-155043154D02*
X292403690Y-154995535D01*
X292403690Y-154995535D02*
X292356071Y-154900297D01*
X292356071Y-154900297D02*
X292356071Y-154709821D01*
X292356071Y-154709821D02*
X292403690Y-154614583D01*
X292403690Y-154614583D02*
X292451309Y-154566964D01*
X292451309Y-154566964D02*
X292546547Y-154519345D01*
X292070357Y-155471726D02*
X292022738Y-155519345D01*
X292022738Y-155519345D02*
X291975119Y-155614583D01*
X291975119Y-155614583D02*
X291975119Y-155852678D01*
X291975119Y-155852678D02*
X292022738Y-155947916D01*
X292022738Y-155947916D02*
X292070357Y-155995535D01*
X292070357Y-155995535D02*
X292165595Y-156043154D01*
X292165595Y-156043154D02*
X292260833Y-156043154D01*
X292260833Y-156043154D02*
X292403690Y-155995535D01*
X292403690Y-155995535D02*
X292975119Y-155424107D01*
X292975119Y-155424107D02*
X292975119Y-156043154D01*
%TO.C,D2*%
X98982619Y-90193905D02*
X97982619Y-90193905D01*
X97982619Y-90193905D02*
X97982619Y-90432000D01*
X97982619Y-90432000D02*
X98030238Y-90574857D01*
X98030238Y-90574857D02*
X98125476Y-90670095D01*
X98125476Y-90670095D02*
X98220714Y-90717714D01*
X98220714Y-90717714D02*
X98411190Y-90765333D01*
X98411190Y-90765333D02*
X98554047Y-90765333D01*
X98554047Y-90765333D02*
X98744523Y-90717714D01*
X98744523Y-90717714D02*
X98839761Y-90670095D01*
X98839761Y-90670095D02*
X98935000Y-90574857D01*
X98935000Y-90574857D02*
X98982619Y-90432000D01*
X98982619Y-90432000D02*
X98982619Y-90193905D01*
X98077857Y-91146286D02*
X98030238Y-91193905D01*
X98030238Y-91193905D02*
X97982619Y-91289143D01*
X97982619Y-91289143D02*
X97982619Y-91527238D01*
X97982619Y-91527238D02*
X98030238Y-91622476D01*
X98030238Y-91622476D02*
X98077857Y-91670095D01*
X98077857Y-91670095D02*
X98173095Y-91717714D01*
X98173095Y-91717714D02*
X98268333Y-91717714D01*
X98268333Y-91717714D02*
X98411190Y-91670095D01*
X98411190Y-91670095D02*
X98982619Y-91098667D01*
X98982619Y-91098667D02*
X98982619Y-91717714D01*
%TO.C,D22*%
X164387619Y-115466964D02*
X163387619Y-115466964D01*
X163387619Y-115466964D02*
X163387619Y-115705059D01*
X163387619Y-115705059D02*
X163435238Y-115847916D01*
X163435238Y-115847916D02*
X163530476Y-115943154D01*
X163530476Y-115943154D02*
X163625714Y-115990773D01*
X163625714Y-115990773D02*
X163816190Y-116038392D01*
X163816190Y-116038392D02*
X163959047Y-116038392D01*
X163959047Y-116038392D02*
X164149523Y-115990773D01*
X164149523Y-115990773D02*
X164244761Y-115943154D01*
X164244761Y-115943154D02*
X164340000Y-115847916D01*
X164340000Y-115847916D02*
X164387619Y-115705059D01*
X164387619Y-115705059D02*
X164387619Y-115466964D01*
X163482857Y-116419345D02*
X163435238Y-116466964D01*
X163435238Y-116466964D02*
X163387619Y-116562202D01*
X163387619Y-116562202D02*
X163387619Y-116800297D01*
X163387619Y-116800297D02*
X163435238Y-116895535D01*
X163435238Y-116895535D02*
X163482857Y-116943154D01*
X163482857Y-116943154D02*
X163578095Y-116990773D01*
X163578095Y-116990773D02*
X163673333Y-116990773D01*
X163673333Y-116990773D02*
X163816190Y-116943154D01*
X163816190Y-116943154D02*
X164387619Y-116371726D01*
X164387619Y-116371726D02*
X164387619Y-116990773D01*
X163482857Y-117371726D02*
X163435238Y-117419345D01*
X163435238Y-117419345D02*
X163387619Y-117514583D01*
X163387619Y-117514583D02*
X163387619Y-117752678D01*
X163387619Y-117752678D02*
X163435238Y-117847916D01*
X163435238Y-117847916D02*
X163482857Y-117895535D01*
X163482857Y-117895535D02*
X163578095Y-117943154D01*
X163578095Y-117943154D02*
X163673333Y-117943154D01*
X163673333Y-117943154D02*
X163816190Y-117895535D01*
X163816190Y-117895535D02*
X164387619Y-117324107D01*
X164387619Y-117324107D02*
X164387619Y-117943154D01*
%TO.C,D28*%
X278687619Y-115466964D02*
X277687619Y-115466964D01*
X277687619Y-115466964D02*
X277687619Y-115705059D01*
X277687619Y-115705059D02*
X277735238Y-115847916D01*
X277735238Y-115847916D02*
X277830476Y-115943154D01*
X277830476Y-115943154D02*
X277925714Y-115990773D01*
X277925714Y-115990773D02*
X278116190Y-116038392D01*
X278116190Y-116038392D02*
X278259047Y-116038392D01*
X278259047Y-116038392D02*
X278449523Y-115990773D01*
X278449523Y-115990773D02*
X278544761Y-115943154D01*
X278544761Y-115943154D02*
X278640000Y-115847916D01*
X278640000Y-115847916D02*
X278687619Y-115705059D01*
X278687619Y-115705059D02*
X278687619Y-115466964D01*
X277782857Y-116419345D02*
X277735238Y-116466964D01*
X277735238Y-116466964D02*
X277687619Y-116562202D01*
X277687619Y-116562202D02*
X277687619Y-116800297D01*
X277687619Y-116800297D02*
X277735238Y-116895535D01*
X277735238Y-116895535D02*
X277782857Y-116943154D01*
X277782857Y-116943154D02*
X277878095Y-116990773D01*
X277878095Y-116990773D02*
X277973333Y-116990773D01*
X277973333Y-116990773D02*
X278116190Y-116943154D01*
X278116190Y-116943154D02*
X278687619Y-116371726D01*
X278687619Y-116371726D02*
X278687619Y-116990773D01*
X278116190Y-117562202D02*
X278068571Y-117466964D01*
X278068571Y-117466964D02*
X278020952Y-117419345D01*
X278020952Y-117419345D02*
X277925714Y-117371726D01*
X277925714Y-117371726D02*
X277878095Y-117371726D01*
X277878095Y-117371726D02*
X277782857Y-117419345D01*
X277782857Y-117419345D02*
X277735238Y-117466964D01*
X277735238Y-117466964D02*
X277687619Y-117562202D01*
X277687619Y-117562202D02*
X277687619Y-117752678D01*
X277687619Y-117752678D02*
X277735238Y-117847916D01*
X277735238Y-117847916D02*
X277782857Y-117895535D01*
X277782857Y-117895535D02*
X277878095Y-117943154D01*
X277878095Y-117943154D02*
X277925714Y-117943154D01*
X277925714Y-117943154D02*
X278020952Y-117895535D01*
X278020952Y-117895535D02*
X278068571Y-117847916D01*
X278068571Y-117847916D02*
X278116190Y-117752678D01*
X278116190Y-117752678D02*
X278116190Y-117562202D01*
X278116190Y-117562202D02*
X278163809Y-117466964D01*
X278163809Y-117466964D02*
X278211428Y-117419345D01*
X278211428Y-117419345D02*
X278306666Y-117371726D01*
X278306666Y-117371726D02*
X278497142Y-117371726D01*
X278497142Y-117371726D02*
X278592380Y-117419345D01*
X278592380Y-117419345D02*
X278640000Y-117466964D01*
X278640000Y-117466964D02*
X278687619Y-117562202D01*
X278687619Y-117562202D02*
X278687619Y-117752678D01*
X278687619Y-117752678D02*
X278640000Y-117847916D01*
X278640000Y-117847916D02*
X278592380Y-117895535D01*
X278592380Y-117895535D02*
X278497142Y-117943154D01*
X278497142Y-117943154D02*
X278306666Y-117943154D01*
X278306666Y-117943154D02*
X278211428Y-117895535D01*
X278211428Y-117895535D02*
X278163809Y-117847916D01*
X278163809Y-117847916D02*
X278116190Y-117752678D01*
%TO.C,R5*%
X73209819Y-139584133D02*
X72733628Y-139250800D01*
X73209819Y-139012705D02*
X72209819Y-139012705D01*
X72209819Y-139012705D02*
X72209819Y-139393657D01*
X72209819Y-139393657D02*
X72257438Y-139488895D01*
X72257438Y-139488895D02*
X72305057Y-139536514D01*
X72305057Y-139536514D02*
X72400295Y-139584133D01*
X72400295Y-139584133D02*
X72543152Y-139584133D01*
X72543152Y-139584133D02*
X72638390Y-139536514D01*
X72638390Y-139536514D02*
X72686009Y-139488895D01*
X72686009Y-139488895D02*
X72733628Y-139393657D01*
X72733628Y-139393657D02*
X72733628Y-139012705D01*
X72209819Y-140488895D02*
X72209819Y-140012705D01*
X72209819Y-140012705D02*
X72686009Y-139965086D01*
X72686009Y-139965086D02*
X72638390Y-140012705D01*
X72638390Y-140012705D02*
X72590771Y-140107943D01*
X72590771Y-140107943D02*
X72590771Y-140346038D01*
X72590771Y-140346038D02*
X72638390Y-140441276D01*
X72638390Y-140441276D02*
X72686009Y-140488895D01*
X72686009Y-140488895D02*
X72781247Y-140536514D01*
X72781247Y-140536514D02*
X73019342Y-140536514D01*
X73019342Y-140536514D02*
X73114580Y-140488895D01*
X73114580Y-140488895D02*
X73162200Y-140441276D01*
X73162200Y-140441276D02*
X73209819Y-140346038D01*
X73209819Y-140346038D02*
X73209819Y-140107943D01*
X73209819Y-140107943D02*
X73162200Y-140012705D01*
X73162200Y-140012705D02*
X73114580Y-139965086D01*
%TO.C,C7*%
X84841167Y-130641824D02*
X84908510Y-130641824D01*
X84908510Y-130641824D02*
X85043197Y-130574481D01*
X85043197Y-130574481D02*
X85110541Y-130507137D01*
X85110541Y-130507137D02*
X85177884Y-130372450D01*
X85177884Y-130372450D02*
X85177884Y-130237763D01*
X85177884Y-130237763D02*
X85144213Y-130136748D01*
X85144213Y-130136748D02*
X85043197Y-129968389D01*
X85043197Y-129968389D02*
X84942182Y-129867374D01*
X84942182Y-129867374D02*
X84773823Y-129766359D01*
X84773823Y-129766359D02*
X84672808Y-129732687D01*
X84672808Y-129732687D02*
X84538121Y-129732687D01*
X84538121Y-129732687D02*
X84403434Y-129800030D01*
X84403434Y-129800030D02*
X84336091Y-129867374D01*
X84336091Y-129867374D02*
X84268747Y-130002061D01*
X84268747Y-130002061D02*
X84268747Y-130069404D01*
X83965701Y-130237763D02*
X83494297Y-130709168D01*
X83494297Y-130709168D02*
X84504449Y-131113229D01*
%TO.C,D59*%
X235825119Y-153566964D02*
X234825119Y-153566964D01*
X234825119Y-153566964D02*
X234825119Y-153805059D01*
X234825119Y-153805059D02*
X234872738Y-153947916D01*
X234872738Y-153947916D02*
X234967976Y-154043154D01*
X234967976Y-154043154D02*
X235063214Y-154090773D01*
X235063214Y-154090773D02*
X235253690Y-154138392D01*
X235253690Y-154138392D02*
X235396547Y-154138392D01*
X235396547Y-154138392D02*
X235587023Y-154090773D01*
X235587023Y-154090773D02*
X235682261Y-154043154D01*
X235682261Y-154043154D02*
X235777500Y-153947916D01*
X235777500Y-153947916D02*
X235825119Y-153805059D01*
X235825119Y-153805059D02*
X235825119Y-153566964D01*
X234825119Y-155043154D02*
X234825119Y-154566964D01*
X234825119Y-154566964D02*
X235301309Y-154519345D01*
X235301309Y-154519345D02*
X235253690Y-154566964D01*
X235253690Y-154566964D02*
X235206071Y-154662202D01*
X235206071Y-154662202D02*
X235206071Y-154900297D01*
X235206071Y-154900297D02*
X235253690Y-154995535D01*
X235253690Y-154995535D02*
X235301309Y-155043154D01*
X235301309Y-155043154D02*
X235396547Y-155090773D01*
X235396547Y-155090773D02*
X235634642Y-155090773D01*
X235634642Y-155090773D02*
X235729880Y-155043154D01*
X235729880Y-155043154D02*
X235777500Y-154995535D01*
X235777500Y-154995535D02*
X235825119Y-154900297D01*
X235825119Y-154900297D02*
X235825119Y-154662202D01*
X235825119Y-154662202D02*
X235777500Y-154566964D01*
X235777500Y-154566964D02*
X235729880Y-154519345D01*
X235825119Y-155566964D02*
X235825119Y-155757440D01*
X235825119Y-155757440D02*
X235777500Y-155852678D01*
X235777500Y-155852678D02*
X235729880Y-155900297D01*
X235729880Y-155900297D02*
X235587023Y-155995535D01*
X235587023Y-155995535D02*
X235396547Y-156043154D01*
X235396547Y-156043154D02*
X235015595Y-156043154D01*
X235015595Y-156043154D02*
X234920357Y-155995535D01*
X234920357Y-155995535D02*
X234872738Y-155947916D01*
X234872738Y-155947916D02*
X234825119Y-155852678D01*
X234825119Y-155852678D02*
X234825119Y-155662202D01*
X234825119Y-155662202D02*
X234872738Y-155566964D01*
X234872738Y-155566964D02*
X234920357Y-155519345D01*
X234920357Y-155519345D02*
X235015595Y-155471726D01*
X235015595Y-155471726D02*
X235253690Y-155471726D01*
X235253690Y-155471726D02*
X235348928Y-155519345D01*
X235348928Y-155519345D02*
X235396547Y-155566964D01*
X235396547Y-155566964D02*
X235444166Y-155662202D01*
X235444166Y-155662202D02*
X235444166Y-155852678D01*
X235444166Y-155852678D02*
X235396547Y-155947916D01*
X235396547Y-155947916D02*
X235348928Y-155995535D01*
X235348928Y-155995535D02*
X235253690Y-156043154D01*
%TO.C,D8*%
X212012619Y-96893155D02*
X211012619Y-96893155D01*
X211012619Y-96893155D02*
X211012619Y-97131250D01*
X211012619Y-97131250D02*
X211060238Y-97274107D01*
X211060238Y-97274107D02*
X211155476Y-97369345D01*
X211155476Y-97369345D02*
X211250714Y-97416964D01*
X211250714Y-97416964D02*
X211441190Y-97464583D01*
X211441190Y-97464583D02*
X211584047Y-97464583D01*
X211584047Y-97464583D02*
X211774523Y-97416964D01*
X211774523Y-97416964D02*
X211869761Y-97369345D01*
X211869761Y-97369345D02*
X211965000Y-97274107D01*
X211965000Y-97274107D02*
X212012619Y-97131250D01*
X212012619Y-97131250D02*
X212012619Y-96893155D01*
X211441190Y-98036012D02*
X211393571Y-97940774D01*
X211393571Y-97940774D02*
X211345952Y-97893155D01*
X211345952Y-97893155D02*
X211250714Y-97845536D01*
X211250714Y-97845536D02*
X211203095Y-97845536D01*
X211203095Y-97845536D02*
X211107857Y-97893155D01*
X211107857Y-97893155D02*
X211060238Y-97940774D01*
X211060238Y-97940774D02*
X211012619Y-98036012D01*
X211012619Y-98036012D02*
X211012619Y-98226488D01*
X211012619Y-98226488D02*
X211060238Y-98321726D01*
X211060238Y-98321726D02*
X211107857Y-98369345D01*
X211107857Y-98369345D02*
X211203095Y-98416964D01*
X211203095Y-98416964D02*
X211250714Y-98416964D01*
X211250714Y-98416964D02*
X211345952Y-98369345D01*
X211345952Y-98369345D02*
X211393571Y-98321726D01*
X211393571Y-98321726D02*
X211441190Y-98226488D01*
X211441190Y-98226488D02*
X211441190Y-98036012D01*
X211441190Y-98036012D02*
X211488809Y-97940774D01*
X211488809Y-97940774D02*
X211536428Y-97893155D01*
X211536428Y-97893155D02*
X211631666Y-97845536D01*
X211631666Y-97845536D02*
X211822142Y-97845536D01*
X211822142Y-97845536D02*
X211917380Y-97893155D01*
X211917380Y-97893155D02*
X211965000Y-97940774D01*
X211965000Y-97940774D02*
X212012619Y-98036012D01*
X212012619Y-98036012D02*
X212012619Y-98226488D01*
X212012619Y-98226488D02*
X211965000Y-98321726D01*
X211965000Y-98321726D02*
X211917380Y-98369345D01*
X211917380Y-98369345D02*
X211822142Y-98416964D01*
X211822142Y-98416964D02*
X211631666Y-98416964D01*
X211631666Y-98416964D02*
X211536428Y-98369345D01*
X211536428Y-98369345D02*
X211488809Y-98321726D01*
X211488809Y-98321726D02*
X211441190Y-98226488D01*
%TO.C,D25*%
X221537619Y-115466964D02*
X220537619Y-115466964D01*
X220537619Y-115466964D02*
X220537619Y-115705059D01*
X220537619Y-115705059D02*
X220585238Y-115847916D01*
X220585238Y-115847916D02*
X220680476Y-115943154D01*
X220680476Y-115943154D02*
X220775714Y-115990773D01*
X220775714Y-115990773D02*
X220966190Y-116038392D01*
X220966190Y-116038392D02*
X221109047Y-116038392D01*
X221109047Y-116038392D02*
X221299523Y-115990773D01*
X221299523Y-115990773D02*
X221394761Y-115943154D01*
X221394761Y-115943154D02*
X221490000Y-115847916D01*
X221490000Y-115847916D02*
X221537619Y-115705059D01*
X221537619Y-115705059D02*
X221537619Y-115466964D01*
X220632857Y-116419345D02*
X220585238Y-116466964D01*
X220585238Y-116466964D02*
X220537619Y-116562202D01*
X220537619Y-116562202D02*
X220537619Y-116800297D01*
X220537619Y-116800297D02*
X220585238Y-116895535D01*
X220585238Y-116895535D02*
X220632857Y-116943154D01*
X220632857Y-116943154D02*
X220728095Y-116990773D01*
X220728095Y-116990773D02*
X220823333Y-116990773D01*
X220823333Y-116990773D02*
X220966190Y-116943154D01*
X220966190Y-116943154D02*
X221537619Y-116371726D01*
X221537619Y-116371726D02*
X221537619Y-116990773D01*
X220537619Y-117895535D02*
X220537619Y-117419345D01*
X220537619Y-117419345D02*
X221013809Y-117371726D01*
X221013809Y-117371726D02*
X220966190Y-117419345D01*
X220966190Y-117419345D02*
X220918571Y-117514583D01*
X220918571Y-117514583D02*
X220918571Y-117752678D01*
X220918571Y-117752678D02*
X220966190Y-117847916D01*
X220966190Y-117847916D02*
X221013809Y-117895535D01*
X221013809Y-117895535D02*
X221109047Y-117943154D01*
X221109047Y-117943154D02*
X221347142Y-117943154D01*
X221347142Y-117943154D02*
X221442380Y-117895535D01*
X221442380Y-117895535D02*
X221490000Y-117847916D01*
X221490000Y-117847916D02*
X221537619Y-117752678D01*
X221537619Y-117752678D02*
X221537619Y-117514583D01*
X221537619Y-117514583D02*
X221490000Y-117419345D01*
X221490000Y-117419345D02*
X221442380Y-117371726D01*
%TO.C,D4*%
X135812619Y-96893155D02*
X134812619Y-96893155D01*
X134812619Y-96893155D02*
X134812619Y-97131250D01*
X134812619Y-97131250D02*
X134860238Y-97274107D01*
X134860238Y-97274107D02*
X134955476Y-97369345D01*
X134955476Y-97369345D02*
X135050714Y-97416964D01*
X135050714Y-97416964D02*
X135241190Y-97464583D01*
X135241190Y-97464583D02*
X135384047Y-97464583D01*
X135384047Y-97464583D02*
X135574523Y-97416964D01*
X135574523Y-97416964D02*
X135669761Y-97369345D01*
X135669761Y-97369345D02*
X135765000Y-97274107D01*
X135765000Y-97274107D02*
X135812619Y-97131250D01*
X135812619Y-97131250D02*
X135812619Y-96893155D01*
X135145952Y-98321726D02*
X135812619Y-98321726D01*
X134765000Y-98083631D02*
X135479285Y-97845536D01*
X135479285Y-97845536D02*
X135479285Y-98464583D01*
%TO.C,D41*%
X207250119Y-134516964D02*
X206250119Y-134516964D01*
X206250119Y-134516964D02*
X206250119Y-134755059D01*
X206250119Y-134755059D02*
X206297738Y-134897916D01*
X206297738Y-134897916D02*
X206392976Y-134993154D01*
X206392976Y-134993154D02*
X206488214Y-135040773D01*
X206488214Y-135040773D02*
X206678690Y-135088392D01*
X206678690Y-135088392D02*
X206821547Y-135088392D01*
X206821547Y-135088392D02*
X207012023Y-135040773D01*
X207012023Y-135040773D02*
X207107261Y-134993154D01*
X207107261Y-134993154D02*
X207202500Y-134897916D01*
X207202500Y-134897916D02*
X207250119Y-134755059D01*
X207250119Y-134755059D02*
X207250119Y-134516964D01*
X206583452Y-135945535D02*
X207250119Y-135945535D01*
X206202500Y-135707440D02*
X206916785Y-135469345D01*
X206916785Y-135469345D02*
X206916785Y-136088392D01*
X207250119Y-136993154D02*
X207250119Y-136421726D01*
X207250119Y-136707440D02*
X206250119Y-136707440D01*
X206250119Y-136707440D02*
X206392976Y-136612202D01*
X206392976Y-136612202D02*
X206488214Y-136516964D01*
X206488214Y-136516964D02*
X206535833Y-136421726D01*
%TO.C,D74*%
X200106369Y-172616964D02*
X199106369Y-172616964D01*
X199106369Y-172616964D02*
X199106369Y-172855059D01*
X199106369Y-172855059D02*
X199153988Y-172997916D01*
X199153988Y-172997916D02*
X199249226Y-173093154D01*
X199249226Y-173093154D02*
X199344464Y-173140773D01*
X199344464Y-173140773D02*
X199534940Y-173188392D01*
X199534940Y-173188392D02*
X199677797Y-173188392D01*
X199677797Y-173188392D02*
X199868273Y-173140773D01*
X199868273Y-173140773D02*
X199963511Y-173093154D01*
X199963511Y-173093154D02*
X200058750Y-172997916D01*
X200058750Y-172997916D02*
X200106369Y-172855059D01*
X200106369Y-172855059D02*
X200106369Y-172616964D01*
X199106369Y-173521726D02*
X199106369Y-174188392D01*
X199106369Y-174188392D02*
X200106369Y-173759821D01*
X199439702Y-174997916D02*
X200106369Y-174997916D01*
X199058750Y-174759821D02*
X199773035Y-174521726D01*
X199773035Y-174521726D02*
X199773035Y-175140773D01*
%TO.C,D57*%
X197725119Y-153566964D02*
X196725119Y-153566964D01*
X196725119Y-153566964D02*
X196725119Y-153805059D01*
X196725119Y-153805059D02*
X196772738Y-153947916D01*
X196772738Y-153947916D02*
X196867976Y-154043154D01*
X196867976Y-154043154D02*
X196963214Y-154090773D01*
X196963214Y-154090773D02*
X197153690Y-154138392D01*
X197153690Y-154138392D02*
X197296547Y-154138392D01*
X197296547Y-154138392D02*
X197487023Y-154090773D01*
X197487023Y-154090773D02*
X197582261Y-154043154D01*
X197582261Y-154043154D02*
X197677500Y-153947916D01*
X197677500Y-153947916D02*
X197725119Y-153805059D01*
X197725119Y-153805059D02*
X197725119Y-153566964D01*
X196725119Y-155043154D02*
X196725119Y-154566964D01*
X196725119Y-154566964D02*
X197201309Y-154519345D01*
X197201309Y-154519345D02*
X197153690Y-154566964D01*
X197153690Y-154566964D02*
X197106071Y-154662202D01*
X197106071Y-154662202D02*
X197106071Y-154900297D01*
X197106071Y-154900297D02*
X197153690Y-154995535D01*
X197153690Y-154995535D02*
X197201309Y-155043154D01*
X197201309Y-155043154D02*
X197296547Y-155090773D01*
X197296547Y-155090773D02*
X197534642Y-155090773D01*
X197534642Y-155090773D02*
X197629880Y-155043154D01*
X197629880Y-155043154D02*
X197677500Y-154995535D01*
X197677500Y-154995535D02*
X197725119Y-154900297D01*
X197725119Y-154900297D02*
X197725119Y-154662202D01*
X197725119Y-154662202D02*
X197677500Y-154566964D01*
X197677500Y-154566964D02*
X197629880Y-154519345D01*
X196725119Y-155424107D02*
X196725119Y-156090773D01*
X196725119Y-156090773D02*
X197725119Y-155662202D01*
%TO.C,D26*%
X240587619Y-115466964D02*
X239587619Y-115466964D01*
X239587619Y-115466964D02*
X239587619Y-115705059D01*
X239587619Y-115705059D02*
X239635238Y-115847916D01*
X239635238Y-115847916D02*
X239730476Y-115943154D01*
X239730476Y-115943154D02*
X239825714Y-115990773D01*
X239825714Y-115990773D02*
X240016190Y-116038392D01*
X240016190Y-116038392D02*
X240159047Y-116038392D01*
X240159047Y-116038392D02*
X240349523Y-115990773D01*
X240349523Y-115990773D02*
X240444761Y-115943154D01*
X240444761Y-115943154D02*
X240540000Y-115847916D01*
X240540000Y-115847916D02*
X240587619Y-115705059D01*
X240587619Y-115705059D02*
X240587619Y-115466964D01*
X239682857Y-116419345D02*
X239635238Y-116466964D01*
X239635238Y-116466964D02*
X239587619Y-116562202D01*
X239587619Y-116562202D02*
X239587619Y-116800297D01*
X239587619Y-116800297D02*
X239635238Y-116895535D01*
X239635238Y-116895535D02*
X239682857Y-116943154D01*
X239682857Y-116943154D02*
X239778095Y-116990773D01*
X239778095Y-116990773D02*
X239873333Y-116990773D01*
X239873333Y-116990773D02*
X240016190Y-116943154D01*
X240016190Y-116943154D02*
X240587619Y-116371726D01*
X240587619Y-116371726D02*
X240587619Y-116990773D01*
X239587619Y-117847916D02*
X239587619Y-117657440D01*
X239587619Y-117657440D02*
X239635238Y-117562202D01*
X239635238Y-117562202D02*
X239682857Y-117514583D01*
X239682857Y-117514583D02*
X239825714Y-117419345D01*
X239825714Y-117419345D02*
X240016190Y-117371726D01*
X240016190Y-117371726D02*
X240397142Y-117371726D01*
X240397142Y-117371726D02*
X240492380Y-117419345D01*
X240492380Y-117419345D02*
X240540000Y-117466964D01*
X240540000Y-117466964D02*
X240587619Y-117562202D01*
X240587619Y-117562202D02*
X240587619Y-117752678D01*
X240587619Y-117752678D02*
X240540000Y-117847916D01*
X240540000Y-117847916D02*
X240492380Y-117895535D01*
X240492380Y-117895535D02*
X240397142Y-117943154D01*
X240397142Y-117943154D02*
X240159047Y-117943154D01*
X240159047Y-117943154D02*
X240063809Y-117895535D01*
X240063809Y-117895535D02*
X240016190Y-117847916D01*
X240016190Y-117847916D02*
X239968571Y-117752678D01*
X239968571Y-117752678D02*
X239968571Y-117562202D01*
X239968571Y-117562202D02*
X240016190Y-117466964D01*
X240016190Y-117466964D02*
X240063809Y-117419345D01*
X240063809Y-117419345D02*
X240159047Y-117371726D01*
%TO.C,D55*%
X159625119Y-153566964D02*
X158625119Y-153566964D01*
X158625119Y-153566964D02*
X158625119Y-153805059D01*
X158625119Y-153805059D02*
X158672738Y-153947916D01*
X158672738Y-153947916D02*
X158767976Y-154043154D01*
X158767976Y-154043154D02*
X158863214Y-154090773D01*
X158863214Y-154090773D02*
X159053690Y-154138392D01*
X159053690Y-154138392D02*
X159196547Y-154138392D01*
X159196547Y-154138392D02*
X159387023Y-154090773D01*
X159387023Y-154090773D02*
X159482261Y-154043154D01*
X159482261Y-154043154D02*
X159577500Y-153947916D01*
X159577500Y-153947916D02*
X159625119Y-153805059D01*
X159625119Y-153805059D02*
X159625119Y-153566964D01*
X158625119Y-155043154D02*
X158625119Y-154566964D01*
X158625119Y-154566964D02*
X159101309Y-154519345D01*
X159101309Y-154519345D02*
X159053690Y-154566964D01*
X159053690Y-154566964D02*
X159006071Y-154662202D01*
X159006071Y-154662202D02*
X159006071Y-154900297D01*
X159006071Y-154900297D02*
X159053690Y-154995535D01*
X159053690Y-154995535D02*
X159101309Y-155043154D01*
X159101309Y-155043154D02*
X159196547Y-155090773D01*
X159196547Y-155090773D02*
X159434642Y-155090773D01*
X159434642Y-155090773D02*
X159529880Y-155043154D01*
X159529880Y-155043154D02*
X159577500Y-154995535D01*
X159577500Y-154995535D02*
X159625119Y-154900297D01*
X159625119Y-154900297D02*
X159625119Y-154662202D01*
X159625119Y-154662202D02*
X159577500Y-154566964D01*
X159577500Y-154566964D02*
X159529880Y-154519345D01*
X158625119Y-155995535D02*
X158625119Y-155519345D01*
X158625119Y-155519345D02*
X159101309Y-155471726D01*
X159101309Y-155471726D02*
X159053690Y-155519345D01*
X159053690Y-155519345D02*
X159006071Y-155614583D01*
X159006071Y-155614583D02*
X159006071Y-155852678D01*
X159006071Y-155852678D02*
X159053690Y-155947916D01*
X159053690Y-155947916D02*
X159101309Y-155995535D01*
X159101309Y-155995535D02*
X159196547Y-156043154D01*
X159196547Y-156043154D02*
X159434642Y-156043154D01*
X159434642Y-156043154D02*
X159529880Y-155995535D01*
X159529880Y-155995535D02*
X159577500Y-155947916D01*
X159577500Y-155947916D02*
X159625119Y-155852678D01*
X159625119Y-155852678D02*
X159625119Y-155614583D01*
X159625119Y-155614583D02*
X159577500Y-155519345D01*
X159577500Y-155519345D02*
X159529880Y-155471726D01*
%TO.C,D44*%
X264400119Y-134516964D02*
X263400119Y-134516964D01*
X263400119Y-134516964D02*
X263400119Y-134755059D01*
X263400119Y-134755059D02*
X263447738Y-134897916D01*
X263447738Y-134897916D02*
X263542976Y-134993154D01*
X263542976Y-134993154D02*
X263638214Y-135040773D01*
X263638214Y-135040773D02*
X263828690Y-135088392D01*
X263828690Y-135088392D02*
X263971547Y-135088392D01*
X263971547Y-135088392D02*
X264162023Y-135040773D01*
X264162023Y-135040773D02*
X264257261Y-134993154D01*
X264257261Y-134993154D02*
X264352500Y-134897916D01*
X264352500Y-134897916D02*
X264400119Y-134755059D01*
X264400119Y-134755059D02*
X264400119Y-134516964D01*
X263733452Y-135945535D02*
X264400119Y-135945535D01*
X263352500Y-135707440D02*
X264066785Y-135469345D01*
X264066785Y-135469345D02*
X264066785Y-136088392D01*
X263733452Y-136897916D02*
X264400119Y-136897916D01*
X263352500Y-136659821D02*
X264066785Y-136421726D01*
X264066785Y-136421726D02*
X264066785Y-137040773D01*
%TO.C,D16*%
X361110619Y-95686714D02*
X360110619Y-95686714D01*
X360110619Y-95686714D02*
X360110619Y-95924809D01*
X360110619Y-95924809D02*
X360158238Y-96067666D01*
X360158238Y-96067666D02*
X360253476Y-96162904D01*
X360253476Y-96162904D02*
X360348714Y-96210523D01*
X360348714Y-96210523D02*
X360539190Y-96258142D01*
X360539190Y-96258142D02*
X360682047Y-96258142D01*
X360682047Y-96258142D02*
X360872523Y-96210523D01*
X360872523Y-96210523D02*
X360967761Y-96162904D01*
X360967761Y-96162904D02*
X361063000Y-96067666D01*
X361063000Y-96067666D02*
X361110619Y-95924809D01*
X361110619Y-95924809D02*
X361110619Y-95686714D01*
X361110619Y-97210523D02*
X361110619Y-96639095D01*
X361110619Y-96924809D02*
X360110619Y-96924809D01*
X360110619Y-96924809D02*
X360253476Y-96829571D01*
X360253476Y-96829571D02*
X360348714Y-96734333D01*
X360348714Y-96734333D02*
X360396333Y-96639095D01*
X360110619Y-98067666D02*
X360110619Y-97877190D01*
X360110619Y-97877190D02*
X360158238Y-97781952D01*
X360158238Y-97781952D02*
X360205857Y-97734333D01*
X360205857Y-97734333D02*
X360348714Y-97639095D01*
X360348714Y-97639095D02*
X360539190Y-97591476D01*
X360539190Y-97591476D02*
X360920142Y-97591476D01*
X360920142Y-97591476D02*
X361015380Y-97639095D01*
X361015380Y-97639095D02*
X361063000Y-97686714D01*
X361063000Y-97686714D02*
X361110619Y-97781952D01*
X361110619Y-97781952D02*
X361110619Y-97972428D01*
X361110619Y-97972428D02*
X361063000Y-98067666D01*
X361063000Y-98067666D02*
X361015380Y-98115285D01*
X361015380Y-98115285D02*
X360920142Y-98162904D01*
X360920142Y-98162904D02*
X360682047Y-98162904D01*
X360682047Y-98162904D02*
X360586809Y-98115285D01*
X360586809Y-98115285D02*
X360539190Y-98067666D01*
X360539190Y-98067666D02*
X360491571Y-97972428D01*
X360491571Y-97972428D02*
X360491571Y-97781952D01*
X360491571Y-97781952D02*
X360539190Y-97686714D01*
X360539190Y-97686714D02*
X360586809Y-97639095D01*
X360586809Y-97639095D02*
X360682047Y-97591476D01*
%TO.C,C2*%
X95616912Y-134306705D02*
X95616912Y-134374048D01*
X95616912Y-134374048D02*
X95684255Y-134508735D01*
X95684255Y-134508735D02*
X95751599Y-134576079D01*
X95751599Y-134576079D02*
X95886286Y-134643422D01*
X95886286Y-134643422D02*
X96020973Y-134643422D01*
X96020973Y-134643422D02*
X96121988Y-134609751D01*
X96121988Y-134609751D02*
X96290347Y-134508735D01*
X96290347Y-134508735D02*
X96391362Y-134407720D01*
X96391362Y-134407720D02*
X96492377Y-134239361D01*
X96492377Y-134239361D02*
X96526049Y-134138346D01*
X96526049Y-134138346D02*
X96526049Y-134003659D01*
X96526049Y-134003659D02*
X96458706Y-133868972D01*
X96458706Y-133868972D02*
X96391362Y-133801629D01*
X96391362Y-133801629D02*
X96256675Y-133734285D01*
X96256675Y-133734285D02*
X96189332Y-133734285D01*
X95919957Y-133464911D02*
X95919957Y-133397568D01*
X95919957Y-133397568D02*
X95886286Y-133296552D01*
X95886286Y-133296552D02*
X95717927Y-133128194D01*
X95717927Y-133128194D02*
X95616912Y-133094522D01*
X95616912Y-133094522D02*
X95549568Y-133094522D01*
X95549568Y-133094522D02*
X95448553Y-133128194D01*
X95448553Y-133128194D02*
X95381209Y-133195537D01*
X95381209Y-133195537D02*
X95313866Y-133330224D01*
X95313866Y-133330224D02*
X95313866Y-134138346D01*
X95313866Y-134138346D02*
X94876133Y-133700613D01*
%TO.C,U3*%
X101599904Y-102700619D02*
X101599904Y-103510142D01*
X101599904Y-103510142D02*
X101552285Y-103605380D01*
X101552285Y-103605380D02*
X101504666Y-103653000D01*
X101504666Y-103653000D02*
X101409428Y-103700619D01*
X101409428Y-103700619D02*
X101218952Y-103700619D01*
X101218952Y-103700619D02*
X101123714Y-103653000D01*
X101123714Y-103653000D02*
X101076095Y-103605380D01*
X101076095Y-103605380D02*
X101028476Y-103510142D01*
X101028476Y-103510142D02*
X101028476Y-102700619D01*
X100647523Y-102700619D02*
X100028476Y-102700619D01*
X100028476Y-102700619D02*
X100361809Y-103081571D01*
X100361809Y-103081571D02*
X100218952Y-103081571D01*
X100218952Y-103081571D02*
X100123714Y-103129190D01*
X100123714Y-103129190D02*
X100076095Y-103176809D01*
X100076095Y-103176809D02*
X100028476Y-103272047D01*
X100028476Y-103272047D02*
X100028476Y-103510142D01*
X100028476Y-103510142D02*
X100076095Y-103605380D01*
X100076095Y-103605380D02*
X100123714Y-103653000D01*
X100123714Y-103653000D02*
X100218952Y-103700619D01*
X100218952Y-103700619D02*
X100504666Y-103700619D01*
X100504666Y-103700619D02*
X100599904Y-103653000D01*
X100599904Y-103653000D02*
X100647523Y-103605380D01*
%TO.C,D19*%
X108634619Y-108767714D02*
X107634619Y-108767714D01*
X107634619Y-108767714D02*
X107634619Y-109005809D01*
X107634619Y-109005809D02*
X107682238Y-109148666D01*
X107682238Y-109148666D02*
X107777476Y-109243904D01*
X107777476Y-109243904D02*
X107872714Y-109291523D01*
X107872714Y-109291523D02*
X108063190Y-109339142D01*
X108063190Y-109339142D02*
X108206047Y-109339142D01*
X108206047Y-109339142D02*
X108396523Y-109291523D01*
X108396523Y-109291523D02*
X108491761Y-109243904D01*
X108491761Y-109243904D02*
X108587000Y-109148666D01*
X108587000Y-109148666D02*
X108634619Y-109005809D01*
X108634619Y-109005809D02*
X108634619Y-108767714D01*
X108634619Y-110291523D02*
X108634619Y-109720095D01*
X108634619Y-110005809D02*
X107634619Y-110005809D01*
X107634619Y-110005809D02*
X107777476Y-109910571D01*
X107777476Y-109910571D02*
X107872714Y-109815333D01*
X107872714Y-109815333D02*
X107920333Y-109720095D01*
X108634619Y-110767714D02*
X108634619Y-110958190D01*
X108634619Y-110958190D02*
X108587000Y-111053428D01*
X108587000Y-111053428D02*
X108539380Y-111101047D01*
X108539380Y-111101047D02*
X108396523Y-111196285D01*
X108396523Y-111196285D02*
X108206047Y-111243904D01*
X108206047Y-111243904D02*
X107825095Y-111243904D01*
X107825095Y-111243904D02*
X107729857Y-111196285D01*
X107729857Y-111196285D02*
X107682238Y-111148666D01*
X107682238Y-111148666D02*
X107634619Y-111053428D01*
X107634619Y-111053428D02*
X107634619Y-110862952D01*
X107634619Y-110862952D02*
X107682238Y-110767714D01*
X107682238Y-110767714D02*
X107729857Y-110720095D01*
X107729857Y-110720095D02*
X107825095Y-110672476D01*
X107825095Y-110672476D02*
X108063190Y-110672476D01*
X108063190Y-110672476D02*
X108158428Y-110720095D01*
X108158428Y-110720095D02*
X108206047Y-110767714D01*
X108206047Y-110767714D02*
X108253666Y-110862952D01*
X108253666Y-110862952D02*
X108253666Y-111053428D01*
X108253666Y-111053428D02*
X108206047Y-111148666D01*
X108206047Y-111148666D02*
X108158428Y-111196285D01*
X108158428Y-111196285D02*
X108063190Y-111243904D01*
%TO.C,D36*%
X112000119Y-134516964D02*
X111000119Y-134516964D01*
X111000119Y-134516964D02*
X111000119Y-134755059D01*
X111000119Y-134755059D02*
X111047738Y-134897916D01*
X111047738Y-134897916D02*
X111142976Y-134993154D01*
X111142976Y-134993154D02*
X111238214Y-135040773D01*
X111238214Y-135040773D02*
X111428690Y-135088392D01*
X111428690Y-135088392D02*
X111571547Y-135088392D01*
X111571547Y-135088392D02*
X111762023Y-135040773D01*
X111762023Y-135040773D02*
X111857261Y-134993154D01*
X111857261Y-134993154D02*
X111952500Y-134897916D01*
X111952500Y-134897916D02*
X112000119Y-134755059D01*
X112000119Y-134755059D02*
X112000119Y-134516964D01*
X111000119Y-135421726D02*
X111000119Y-136040773D01*
X111000119Y-136040773D02*
X111381071Y-135707440D01*
X111381071Y-135707440D02*
X111381071Y-135850297D01*
X111381071Y-135850297D02*
X111428690Y-135945535D01*
X111428690Y-135945535D02*
X111476309Y-135993154D01*
X111476309Y-135993154D02*
X111571547Y-136040773D01*
X111571547Y-136040773D02*
X111809642Y-136040773D01*
X111809642Y-136040773D02*
X111904880Y-135993154D01*
X111904880Y-135993154D02*
X111952500Y-135945535D01*
X111952500Y-135945535D02*
X112000119Y-135850297D01*
X112000119Y-135850297D02*
X112000119Y-135564583D01*
X112000119Y-135564583D02*
X111952500Y-135469345D01*
X111952500Y-135469345D02*
X111904880Y-135421726D01*
X111000119Y-136897916D02*
X111000119Y-136707440D01*
X111000119Y-136707440D02*
X111047738Y-136612202D01*
X111047738Y-136612202D02*
X111095357Y-136564583D01*
X111095357Y-136564583D02*
X111238214Y-136469345D01*
X111238214Y-136469345D02*
X111428690Y-136421726D01*
X111428690Y-136421726D02*
X111809642Y-136421726D01*
X111809642Y-136421726D02*
X111904880Y-136469345D01*
X111904880Y-136469345D02*
X111952500Y-136516964D01*
X111952500Y-136516964D02*
X112000119Y-136612202D01*
X112000119Y-136612202D02*
X112000119Y-136802678D01*
X112000119Y-136802678D02*
X111952500Y-136897916D01*
X111952500Y-136897916D02*
X111904880Y-136945535D01*
X111904880Y-136945535D02*
X111809642Y-136993154D01*
X111809642Y-136993154D02*
X111571547Y-136993154D01*
X111571547Y-136993154D02*
X111476309Y-136945535D01*
X111476309Y-136945535D02*
X111428690Y-136897916D01*
X111428690Y-136897916D02*
X111381071Y-136802678D01*
X111381071Y-136802678D02*
X111381071Y-136612202D01*
X111381071Y-136612202D02*
X111428690Y-136516964D01*
X111428690Y-136516964D02*
X111476309Y-136469345D01*
X111476309Y-136469345D02*
X111571547Y-136421726D01*
%TO.C,C17*%
X94495857Y-127257380D02*
X94543476Y-127305000D01*
X94543476Y-127305000D02*
X94686333Y-127352619D01*
X94686333Y-127352619D02*
X94781571Y-127352619D01*
X94781571Y-127352619D02*
X94924428Y-127305000D01*
X94924428Y-127305000D02*
X95019666Y-127209761D01*
X95019666Y-127209761D02*
X95067285Y-127114523D01*
X95067285Y-127114523D02*
X95114904Y-126924047D01*
X95114904Y-126924047D02*
X95114904Y-126781190D01*
X95114904Y-126781190D02*
X95067285Y-126590714D01*
X95067285Y-126590714D02*
X95019666Y-126495476D01*
X95019666Y-126495476D02*
X94924428Y-126400238D01*
X94924428Y-126400238D02*
X94781571Y-126352619D01*
X94781571Y-126352619D02*
X94686333Y-126352619D01*
X94686333Y-126352619D02*
X94543476Y-126400238D01*
X94543476Y-126400238D02*
X94495857Y-126447857D01*
X93543476Y-127352619D02*
X94114904Y-127352619D01*
X93829190Y-127352619D02*
X93829190Y-126352619D01*
X93829190Y-126352619D02*
X93924428Y-126495476D01*
X93924428Y-126495476D02*
X94019666Y-126590714D01*
X94019666Y-126590714D02*
X94114904Y-126638333D01*
X93210142Y-126352619D02*
X92543476Y-126352619D01*
X92543476Y-126352619D02*
X92972047Y-127352619D01*
%TO.C,R1*%
X86696625Y-117650065D02*
X86220434Y-117316732D01*
X86696625Y-117078637D02*
X85696625Y-117078637D01*
X85696625Y-117078637D02*
X85696625Y-117459589D01*
X85696625Y-117459589D02*
X85744244Y-117554827D01*
X85744244Y-117554827D02*
X85791863Y-117602446D01*
X85791863Y-117602446D02*
X85887101Y-117650065D01*
X85887101Y-117650065D02*
X86029958Y-117650065D01*
X86029958Y-117650065D02*
X86125196Y-117602446D01*
X86125196Y-117602446D02*
X86172815Y-117554827D01*
X86172815Y-117554827D02*
X86220434Y-117459589D01*
X86220434Y-117459589D02*
X86220434Y-117078637D01*
X86696625Y-118602446D02*
X86696625Y-118031018D01*
X86696625Y-118316732D02*
X85696625Y-118316732D01*
X85696625Y-118316732D02*
X85839482Y-118221494D01*
X85839482Y-118221494D02*
X85934720Y-118126256D01*
X85934720Y-118126256D02*
X85982339Y-118031018D01*
%TO.C,D12*%
X288212619Y-96416964D02*
X287212619Y-96416964D01*
X287212619Y-96416964D02*
X287212619Y-96655059D01*
X287212619Y-96655059D02*
X287260238Y-96797916D01*
X287260238Y-96797916D02*
X287355476Y-96893154D01*
X287355476Y-96893154D02*
X287450714Y-96940773D01*
X287450714Y-96940773D02*
X287641190Y-96988392D01*
X287641190Y-96988392D02*
X287784047Y-96988392D01*
X287784047Y-96988392D02*
X287974523Y-96940773D01*
X287974523Y-96940773D02*
X288069761Y-96893154D01*
X288069761Y-96893154D02*
X288165000Y-96797916D01*
X288165000Y-96797916D02*
X288212619Y-96655059D01*
X288212619Y-96655059D02*
X288212619Y-96416964D01*
X288212619Y-97940773D02*
X288212619Y-97369345D01*
X288212619Y-97655059D02*
X287212619Y-97655059D01*
X287212619Y-97655059D02*
X287355476Y-97559821D01*
X287355476Y-97559821D02*
X287450714Y-97464583D01*
X287450714Y-97464583D02*
X287498333Y-97369345D01*
X287307857Y-98321726D02*
X287260238Y-98369345D01*
X287260238Y-98369345D02*
X287212619Y-98464583D01*
X287212619Y-98464583D02*
X287212619Y-98702678D01*
X287212619Y-98702678D02*
X287260238Y-98797916D01*
X287260238Y-98797916D02*
X287307857Y-98845535D01*
X287307857Y-98845535D02*
X287403095Y-98893154D01*
X287403095Y-98893154D02*
X287498333Y-98893154D01*
X287498333Y-98893154D02*
X287641190Y-98845535D01*
X287641190Y-98845535D02*
X288212619Y-98274107D01*
X288212619Y-98274107D02*
X288212619Y-98893154D01*
%TO.C,D10*%
X250112619Y-96416964D02*
X249112619Y-96416964D01*
X249112619Y-96416964D02*
X249112619Y-96655059D01*
X249112619Y-96655059D02*
X249160238Y-96797916D01*
X249160238Y-96797916D02*
X249255476Y-96893154D01*
X249255476Y-96893154D02*
X249350714Y-96940773D01*
X249350714Y-96940773D02*
X249541190Y-96988392D01*
X249541190Y-96988392D02*
X249684047Y-96988392D01*
X249684047Y-96988392D02*
X249874523Y-96940773D01*
X249874523Y-96940773D02*
X249969761Y-96893154D01*
X249969761Y-96893154D02*
X250065000Y-96797916D01*
X250065000Y-96797916D02*
X250112619Y-96655059D01*
X250112619Y-96655059D02*
X250112619Y-96416964D01*
X250112619Y-97940773D02*
X250112619Y-97369345D01*
X250112619Y-97655059D02*
X249112619Y-97655059D01*
X249112619Y-97655059D02*
X249255476Y-97559821D01*
X249255476Y-97559821D02*
X249350714Y-97464583D01*
X249350714Y-97464583D02*
X249398333Y-97369345D01*
X249112619Y-98559821D02*
X249112619Y-98655059D01*
X249112619Y-98655059D02*
X249160238Y-98750297D01*
X249160238Y-98750297D02*
X249207857Y-98797916D01*
X249207857Y-98797916D02*
X249303095Y-98845535D01*
X249303095Y-98845535D02*
X249493571Y-98893154D01*
X249493571Y-98893154D02*
X249731666Y-98893154D01*
X249731666Y-98893154D02*
X249922142Y-98845535D01*
X249922142Y-98845535D02*
X250017380Y-98797916D01*
X250017380Y-98797916D02*
X250065000Y-98750297D01*
X250065000Y-98750297D02*
X250112619Y-98655059D01*
X250112619Y-98655059D02*
X250112619Y-98559821D01*
X250112619Y-98559821D02*
X250065000Y-98464583D01*
X250065000Y-98464583D02*
X250017380Y-98416964D01*
X250017380Y-98416964D02*
X249922142Y-98369345D01*
X249922142Y-98369345D02*
X249731666Y-98321726D01*
X249731666Y-98321726D02*
X249493571Y-98321726D01*
X249493571Y-98321726D02*
X249303095Y-98369345D01*
X249303095Y-98369345D02*
X249207857Y-98416964D01*
X249207857Y-98416964D02*
X249160238Y-98464583D01*
X249160238Y-98464583D02*
X249112619Y-98559821D01*
%TO.C,U2*%
X97695104Y-113377619D02*
X97695104Y-114187142D01*
X97695104Y-114187142D02*
X97647485Y-114282380D01*
X97647485Y-114282380D02*
X97599866Y-114330000D01*
X97599866Y-114330000D02*
X97504628Y-114377619D01*
X97504628Y-114377619D02*
X97314152Y-114377619D01*
X97314152Y-114377619D02*
X97218914Y-114330000D01*
X97218914Y-114330000D02*
X97171295Y-114282380D01*
X97171295Y-114282380D02*
X97123676Y-114187142D01*
X97123676Y-114187142D02*
X97123676Y-113377619D01*
X96695104Y-113472857D02*
X96647485Y-113425238D01*
X96647485Y-113425238D02*
X96552247Y-113377619D01*
X96552247Y-113377619D02*
X96314152Y-113377619D01*
X96314152Y-113377619D02*
X96218914Y-113425238D01*
X96218914Y-113425238D02*
X96171295Y-113472857D01*
X96171295Y-113472857D02*
X96123676Y-113568095D01*
X96123676Y-113568095D02*
X96123676Y-113663333D01*
X96123676Y-113663333D02*
X96171295Y-113806190D01*
X96171295Y-113806190D02*
X96742723Y-114377619D01*
X96742723Y-114377619D02*
X96123676Y-114377619D01*
%TO.C,D9*%
X231062619Y-96893155D02*
X230062619Y-96893155D01*
X230062619Y-96893155D02*
X230062619Y-97131250D01*
X230062619Y-97131250D02*
X230110238Y-97274107D01*
X230110238Y-97274107D02*
X230205476Y-97369345D01*
X230205476Y-97369345D02*
X230300714Y-97416964D01*
X230300714Y-97416964D02*
X230491190Y-97464583D01*
X230491190Y-97464583D02*
X230634047Y-97464583D01*
X230634047Y-97464583D02*
X230824523Y-97416964D01*
X230824523Y-97416964D02*
X230919761Y-97369345D01*
X230919761Y-97369345D02*
X231015000Y-97274107D01*
X231015000Y-97274107D02*
X231062619Y-97131250D01*
X231062619Y-97131250D02*
X231062619Y-96893155D01*
X231062619Y-97940774D02*
X231062619Y-98131250D01*
X231062619Y-98131250D02*
X231015000Y-98226488D01*
X231015000Y-98226488D02*
X230967380Y-98274107D01*
X230967380Y-98274107D02*
X230824523Y-98369345D01*
X230824523Y-98369345D02*
X230634047Y-98416964D01*
X230634047Y-98416964D02*
X230253095Y-98416964D01*
X230253095Y-98416964D02*
X230157857Y-98369345D01*
X230157857Y-98369345D02*
X230110238Y-98321726D01*
X230110238Y-98321726D02*
X230062619Y-98226488D01*
X230062619Y-98226488D02*
X230062619Y-98036012D01*
X230062619Y-98036012D02*
X230110238Y-97940774D01*
X230110238Y-97940774D02*
X230157857Y-97893155D01*
X230157857Y-97893155D02*
X230253095Y-97845536D01*
X230253095Y-97845536D02*
X230491190Y-97845536D01*
X230491190Y-97845536D02*
X230586428Y-97893155D01*
X230586428Y-97893155D02*
X230634047Y-97940774D01*
X230634047Y-97940774D02*
X230681666Y-98036012D01*
X230681666Y-98036012D02*
X230681666Y-98226488D01*
X230681666Y-98226488D02*
X230634047Y-98321726D01*
X230634047Y-98321726D02*
X230586428Y-98369345D01*
X230586428Y-98369345D02*
X230491190Y-98416964D01*
%TO.C,C4*%
X102839380Y-101179333D02*
X102887000Y-101131714D01*
X102887000Y-101131714D02*
X102934619Y-100988857D01*
X102934619Y-100988857D02*
X102934619Y-100893619D01*
X102934619Y-100893619D02*
X102887000Y-100750762D01*
X102887000Y-100750762D02*
X102791761Y-100655524D01*
X102791761Y-100655524D02*
X102696523Y-100607905D01*
X102696523Y-100607905D02*
X102506047Y-100560286D01*
X102506047Y-100560286D02*
X102363190Y-100560286D01*
X102363190Y-100560286D02*
X102172714Y-100607905D01*
X102172714Y-100607905D02*
X102077476Y-100655524D01*
X102077476Y-100655524D02*
X101982238Y-100750762D01*
X101982238Y-100750762D02*
X101934619Y-100893619D01*
X101934619Y-100893619D02*
X101934619Y-100988857D01*
X101934619Y-100988857D02*
X101982238Y-101131714D01*
X101982238Y-101131714D02*
X102029857Y-101179333D01*
X102267952Y-102036476D02*
X102934619Y-102036476D01*
X101887000Y-101798381D02*
X102601285Y-101560286D01*
X102601285Y-101560286D02*
X102601285Y-102179333D01*
%TO.C,U4*%
X112987619Y-99441095D02*
X113797142Y-99441095D01*
X113797142Y-99441095D02*
X113892380Y-99488714D01*
X113892380Y-99488714D02*
X113940000Y-99536333D01*
X113940000Y-99536333D02*
X113987619Y-99631571D01*
X113987619Y-99631571D02*
X113987619Y-99822047D01*
X113987619Y-99822047D02*
X113940000Y-99917285D01*
X113940000Y-99917285D02*
X113892380Y-99964904D01*
X113892380Y-99964904D02*
X113797142Y-100012523D01*
X113797142Y-100012523D02*
X112987619Y-100012523D01*
X113320952Y-100917285D02*
X113987619Y-100917285D01*
X112940000Y-100679190D02*
X113654285Y-100441095D01*
X113654285Y-100441095D02*
X113654285Y-101060142D01*
%TO.C,J1*%
X121496619Y-99875666D02*
X122210904Y-99875666D01*
X122210904Y-99875666D02*
X122353761Y-99828047D01*
X122353761Y-99828047D02*
X122449000Y-99732809D01*
X122449000Y-99732809D02*
X122496619Y-99589952D01*
X122496619Y-99589952D02*
X122496619Y-99494714D01*
X122496619Y-100875666D02*
X122496619Y-100304238D01*
X122496619Y-100589952D02*
X121496619Y-100589952D01*
X121496619Y-100589952D02*
X121639476Y-100494714D01*
X121639476Y-100494714D02*
X121734714Y-100399476D01*
X121734714Y-100399476D02*
X121782333Y-100304238D01*
%TO.C,C9*%
X99714380Y-98880333D02*
X99762000Y-98832714D01*
X99762000Y-98832714D02*
X99809619Y-98689857D01*
X99809619Y-98689857D02*
X99809619Y-98594619D01*
X99809619Y-98594619D02*
X99762000Y-98451762D01*
X99762000Y-98451762D02*
X99666761Y-98356524D01*
X99666761Y-98356524D02*
X99571523Y-98308905D01*
X99571523Y-98308905D02*
X99381047Y-98261286D01*
X99381047Y-98261286D02*
X99238190Y-98261286D01*
X99238190Y-98261286D02*
X99047714Y-98308905D01*
X99047714Y-98308905D02*
X98952476Y-98356524D01*
X98952476Y-98356524D02*
X98857238Y-98451762D01*
X98857238Y-98451762D02*
X98809619Y-98594619D01*
X98809619Y-98594619D02*
X98809619Y-98689857D01*
X98809619Y-98689857D02*
X98857238Y-98832714D01*
X98857238Y-98832714D02*
X98904857Y-98880333D01*
X99809619Y-99356524D02*
X99809619Y-99547000D01*
X99809619Y-99547000D02*
X99762000Y-99642238D01*
X99762000Y-99642238D02*
X99714380Y-99689857D01*
X99714380Y-99689857D02*
X99571523Y-99785095D01*
X99571523Y-99785095D02*
X99381047Y-99832714D01*
X99381047Y-99832714D02*
X99000095Y-99832714D01*
X99000095Y-99832714D02*
X98904857Y-99785095D01*
X98904857Y-99785095D02*
X98857238Y-99737476D01*
X98857238Y-99737476D02*
X98809619Y-99642238D01*
X98809619Y-99642238D02*
X98809619Y-99451762D01*
X98809619Y-99451762D02*
X98857238Y-99356524D01*
X98857238Y-99356524D02*
X98904857Y-99308905D01*
X98904857Y-99308905D02*
X99000095Y-99261286D01*
X99000095Y-99261286D02*
X99238190Y-99261286D01*
X99238190Y-99261286D02*
X99333428Y-99308905D01*
X99333428Y-99308905D02*
X99381047Y-99356524D01*
X99381047Y-99356524D02*
X99428666Y-99451762D01*
X99428666Y-99451762D02*
X99428666Y-99642238D01*
X99428666Y-99642238D02*
X99381047Y-99737476D01*
X99381047Y-99737476D02*
X99333428Y-99785095D01*
X99333428Y-99785095D02*
X99238190Y-99832714D01*
%TO.C,D83*%
X345362619Y-172616964D02*
X344362619Y-172616964D01*
X344362619Y-172616964D02*
X344362619Y-172855059D01*
X344362619Y-172855059D02*
X344410238Y-172997916D01*
X344410238Y-172997916D02*
X344505476Y-173093154D01*
X344505476Y-173093154D02*
X344600714Y-173140773D01*
X344600714Y-173140773D02*
X344791190Y-173188392D01*
X344791190Y-173188392D02*
X344934047Y-173188392D01*
X344934047Y-173188392D02*
X345124523Y-173140773D01*
X345124523Y-173140773D02*
X345219761Y-173093154D01*
X345219761Y-173093154D02*
X345315000Y-172997916D01*
X345315000Y-172997916D02*
X345362619Y-172855059D01*
X345362619Y-172855059D02*
X345362619Y-172616964D01*
X344791190Y-173759821D02*
X344743571Y-173664583D01*
X344743571Y-173664583D02*
X344695952Y-173616964D01*
X344695952Y-173616964D02*
X344600714Y-173569345D01*
X344600714Y-173569345D02*
X344553095Y-173569345D01*
X344553095Y-173569345D02*
X344457857Y-173616964D01*
X344457857Y-173616964D02*
X344410238Y-173664583D01*
X344410238Y-173664583D02*
X344362619Y-173759821D01*
X344362619Y-173759821D02*
X344362619Y-173950297D01*
X344362619Y-173950297D02*
X344410238Y-174045535D01*
X344410238Y-174045535D02*
X344457857Y-174093154D01*
X344457857Y-174093154D02*
X344553095Y-174140773D01*
X344553095Y-174140773D02*
X344600714Y-174140773D01*
X344600714Y-174140773D02*
X344695952Y-174093154D01*
X344695952Y-174093154D02*
X344743571Y-174045535D01*
X344743571Y-174045535D02*
X344791190Y-173950297D01*
X344791190Y-173950297D02*
X344791190Y-173759821D01*
X344791190Y-173759821D02*
X344838809Y-173664583D01*
X344838809Y-173664583D02*
X344886428Y-173616964D01*
X344886428Y-173616964D02*
X344981666Y-173569345D01*
X344981666Y-173569345D02*
X345172142Y-173569345D01*
X345172142Y-173569345D02*
X345267380Y-173616964D01*
X345267380Y-173616964D02*
X345315000Y-173664583D01*
X345315000Y-173664583D02*
X345362619Y-173759821D01*
X345362619Y-173759821D02*
X345362619Y-173950297D01*
X345362619Y-173950297D02*
X345315000Y-174045535D01*
X345315000Y-174045535D02*
X345267380Y-174093154D01*
X345267380Y-174093154D02*
X345172142Y-174140773D01*
X345172142Y-174140773D02*
X344981666Y-174140773D01*
X344981666Y-174140773D02*
X344886428Y-174093154D01*
X344886428Y-174093154D02*
X344838809Y-174045535D01*
X344838809Y-174045535D02*
X344791190Y-173950297D01*
X344362619Y-174474107D02*
X344362619Y-175093154D01*
X344362619Y-175093154D02*
X344743571Y-174759821D01*
X344743571Y-174759821D02*
X344743571Y-174902678D01*
X344743571Y-174902678D02*
X344791190Y-174997916D01*
X344791190Y-174997916D02*
X344838809Y-175045535D01*
X344838809Y-175045535D02*
X344934047Y-175093154D01*
X344934047Y-175093154D02*
X345172142Y-175093154D01*
X345172142Y-175093154D02*
X345267380Y-175045535D01*
X345267380Y-175045535D02*
X345315000Y-174997916D01*
X345315000Y-174997916D02*
X345362619Y-174902678D01*
X345362619Y-174902678D02*
X345362619Y-174616964D01*
X345362619Y-174616964D02*
X345315000Y-174521726D01*
X345315000Y-174521726D02*
X345267380Y-174474107D01*
%TO.C,D20*%
X126287619Y-115466964D02*
X125287619Y-115466964D01*
X125287619Y-115466964D02*
X125287619Y-115705059D01*
X125287619Y-115705059D02*
X125335238Y-115847916D01*
X125335238Y-115847916D02*
X125430476Y-115943154D01*
X125430476Y-115943154D02*
X125525714Y-115990773D01*
X125525714Y-115990773D02*
X125716190Y-116038392D01*
X125716190Y-116038392D02*
X125859047Y-116038392D01*
X125859047Y-116038392D02*
X126049523Y-115990773D01*
X126049523Y-115990773D02*
X126144761Y-115943154D01*
X126144761Y-115943154D02*
X126240000Y-115847916D01*
X126240000Y-115847916D02*
X126287619Y-115705059D01*
X126287619Y-115705059D02*
X126287619Y-115466964D01*
X125382857Y-116419345D02*
X125335238Y-116466964D01*
X125335238Y-116466964D02*
X125287619Y-116562202D01*
X125287619Y-116562202D02*
X125287619Y-116800297D01*
X125287619Y-116800297D02*
X125335238Y-116895535D01*
X125335238Y-116895535D02*
X125382857Y-116943154D01*
X125382857Y-116943154D02*
X125478095Y-116990773D01*
X125478095Y-116990773D02*
X125573333Y-116990773D01*
X125573333Y-116990773D02*
X125716190Y-116943154D01*
X125716190Y-116943154D02*
X126287619Y-116371726D01*
X126287619Y-116371726D02*
X126287619Y-116990773D01*
X125287619Y-117609821D02*
X125287619Y-117705059D01*
X125287619Y-117705059D02*
X125335238Y-117800297D01*
X125335238Y-117800297D02*
X125382857Y-117847916D01*
X125382857Y-117847916D02*
X125478095Y-117895535D01*
X125478095Y-117895535D02*
X125668571Y-117943154D01*
X125668571Y-117943154D02*
X125906666Y-117943154D01*
X125906666Y-117943154D02*
X126097142Y-117895535D01*
X126097142Y-117895535D02*
X126192380Y-117847916D01*
X126192380Y-117847916D02*
X126240000Y-117800297D01*
X126240000Y-117800297D02*
X126287619Y-117705059D01*
X126287619Y-117705059D02*
X126287619Y-117609821D01*
X126287619Y-117609821D02*
X126240000Y-117514583D01*
X126240000Y-117514583D02*
X126192380Y-117466964D01*
X126192380Y-117466964D02*
X126097142Y-117419345D01*
X126097142Y-117419345D02*
X125906666Y-117371726D01*
X125906666Y-117371726D02*
X125668571Y-117371726D01*
X125668571Y-117371726D02*
X125478095Y-117419345D01*
X125478095Y-117419345D02*
X125382857Y-117466964D01*
X125382857Y-117466964D02*
X125335238Y-117514583D01*
X125335238Y-117514583D02*
X125287619Y-117609821D01*
%TO.C,C18*%
X71226857Y-136782380D02*
X71274476Y-136830000D01*
X71274476Y-136830000D02*
X71417333Y-136877619D01*
X71417333Y-136877619D02*
X71512571Y-136877619D01*
X71512571Y-136877619D02*
X71655428Y-136830000D01*
X71655428Y-136830000D02*
X71750666Y-136734761D01*
X71750666Y-136734761D02*
X71798285Y-136639523D01*
X71798285Y-136639523D02*
X71845904Y-136449047D01*
X71845904Y-136449047D02*
X71845904Y-136306190D01*
X71845904Y-136306190D02*
X71798285Y-136115714D01*
X71798285Y-136115714D02*
X71750666Y-136020476D01*
X71750666Y-136020476D02*
X71655428Y-135925238D01*
X71655428Y-135925238D02*
X71512571Y-135877619D01*
X71512571Y-135877619D02*
X71417333Y-135877619D01*
X71417333Y-135877619D02*
X71274476Y-135925238D01*
X71274476Y-135925238D02*
X71226857Y-135972857D01*
X70274476Y-136877619D02*
X70845904Y-136877619D01*
X70560190Y-136877619D02*
X70560190Y-135877619D01*
X70560190Y-135877619D02*
X70655428Y-136020476D01*
X70655428Y-136020476D02*
X70750666Y-136115714D01*
X70750666Y-136115714D02*
X70845904Y-136163333D01*
X69703047Y-136306190D02*
X69798285Y-136258571D01*
X69798285Y-136258571D02*
X69845904Y-136210952D01*
X69845904Y-136210952D02*
X69893523Y-136115714D01*
X69893523Y-136115714D02*
X69893523Y-136068095D01*
X69893523Y-136068095D02*
X69845904Y-135972857D01*
X69845904Y-135972857D02*
X69798285Y-135925238D01*
X69798285Y-135925238D02*
X69703047Y-135877619D01*
X69703047Y-135877619D02*
X69512571Y-135877619D01*
X69512571Y-135877619D02*
X69417333Y-135925238D01*
X69417333Y-135925238D02*
X69369714Y-135972857D01*
X69369714Y-135972857D02*
X69322095Y-136068095D01*
X69322095Y-136068095D02*
X69322095Y-136115714D01*
X69322095Y-136115714D02*
X69369714Y-136210952D01*
X69369714Y-136210952D02*
X69417333Y-136258571D01*
X69417333Y-136258571D02*
X69512571Y-136306190D01*
X69512571Y-136306190D02*
X69703047Y-136306190D01*
X69703047Y-136306190D02*
X69798285Y-136353809D01*
X69798285Y-136353809D02*
X69845904Y-136401428D01*
X69845904Y-136401428D02*
X69893523Y-136496666D01*
X69893523Y-136496666D02*
X69893523Y-136687142D01*
X69893523Y-136687142D02*
X69845904Y-136782380D01*
X69845904Y-136782380D02*
X69798285Y-136830000D01*
X69798285Y-136830000D02*
X69703047Y-136877619D01*
X69703047Y-136877619D02*
X69512571Y-136877619D01*
X69512571Y-136877619D02*
X69417333Y-136830000D01*
X69417333Y-136830000D02*
X69369714Y-136782380D01*
X69369714Y-136782380D02*
X69322095Y-136687142D01*
X69322095Y-136687142D02*
X69322095Y-136496666D01*
X69322095Y-136496666D02*
X69369714Y-136401428D01*
X69369714Y-136401428D02*
X69417333Y-136353809D01*
X69417333Y-136353809D02*
X69512571Y-136306190D01*
%TO.C,D31*%
X340600119Y-115466964D02*
X339600119Y-115466964D01*
X339600119Y-115466964D02*
X339600119Y-115705059D01*
X339600119Y-115705059D02*
X339647738Y-115847916D01*
X339647738Y-115847916D02*
X339742976Y-115943154D01*
X339742976Y-115943154D02*
X339838214Y-115990773D01*
X339838214Y-115990773D02*
X340028690Y-116038392D01*
X340028690Y-116038392D02*
X340171547Y-116038392D01*
X340171547Y-116038392D02*
X340362023Y-115990773D01*
X340362023Y-115990773D02*
X340457261Y-115943154D01*
X340457261Y-115943154D02*
X340552500Y-115847916D01*
X340552500Y-115847916D02*
X340600119Y-115705059D01*
X340600119Y-115705059D02*
X340600119Y-115466964D01*
X339600119Y-116371726D02*
X339600119Y-116990773D01*
X339600119Y-116990773D02*
X339981071Y-116657440D01*
X339981071Y-116657440D02*
X339981071Y-116800297D01*
X339981071Y-116800297D02*
X340028690Y-116895535D01*
X340028690Y-116895535D02*
X340076309Y-116943154D01*
X340076309Y-116943154D02*
X340171547Y-116990773D01*
X340171547Y-116990773D02*
X340409642Y-116990773D01*
X340409642Y-116990773D02*
X340504880Y-116943154D01*
X340504880Y-116943154D02*
X340552500Y-116895535D01*
X340552500Y-116895535D02*
X340600119Y-116800297D01*
X340600119Y-116800297D02*
X340600119Y-116514583D01*
X340600119Y-116514583D02*
X340552500Y-116419345D01*
X340552500Y-116419345D02*
X340504880Y-116371726D01*
X340600119Y-117943154D02*
X340600119Y-117371726D01*
X340600119Y-117657440D02*
X339600119Y-117657440D01*
X339600119Y-117657440D02*
X339742976Y-117562202D01*
X339742976Y-117562202D02*
X339838214Y-117466964D01*
X339838214Y-117466964D02*
X339885833Y-117371726D01*
%TO.C,D13*%
X307262619Y-96416964D02*
X306262619Y-96416964D01*
X306262619Y-96416964D02*
X306262619Y-96655059D01*
X306262619Y-96655059D02*
X306310238Y-96797916D01*
X306310238Y-96797916D02*
X306405476Y-96893154D01*
X306405476Y-96893154D02*
X306500714Y-96940773D01*
X306500714Y-96940773D02*
X306691190Y-96988392D01*
X306691190Y-96988392D02*
X306834047Y-96988392D01*
X306834047Y-96988392D02*
X307024523Y-96940773D01*
X307024523Y-96940773D02*
X307119761Y-96893154D01*
X307119761Y-96893154D02*
X307215000Y-96797916D01*
X307215000Y-96797916D02*
X307262619Y-96655059D01*
X307262619Y-96655059D02*
X307262619Y-96416964D01*
X307262619Y-97940773D02*
X307262619Y-97369345D01*
X307262619Y-97655059D02*
X306262619Y-97655059D01*
X306262619Y-97655059D02*
X306405476Y-97559821D01*
X306405476Y-97559821D02*
X306500714Y-97464583D01*
X306500714Y-97464583D02*
X306548333Y-97369345D01*
X306262619Y-98274107D02*
X306262619Y-98893154D01*
X306262619Y-98893154D02*
X306643571Y-98559821D01*
X306643571Y-98559821D02*
X306643571Y-98702678D01*
X306643571Y-98702678D02*
X306691190Y-98797916D01*
X306691190Y-98797916D02*
X306738809Y-98845535D01*
X306738809Y-98845535D02*
X306834047Y-98893154D01*
X306834047Y-98893154D02*
X307072142Y-98893154D01*
X307072142Y-98893154D02*
X307167380Y-98845535D01*
X307167380Y-98845535D02*
X307215000Y-98797916D01*
X307215000Y-98797916D02*
X307262619Y-98702678D01*
X307262619Y-98702678D02*
X307262619Y-98416964D01*
X307262619Y-98416964D02*
X307215000Y-98321726D01*
X307215000Y-98321726D02*
X307167380Y-98274107D01*
%TO.C,D63*%
X319168869Y-153566964D02*
X318168869Y-153566964D01*
X318168869Y-153566964D02*
X318168869Y-153805059D01*
X318168869Y-153805059D02*
X318216488Y-153947916D01*
X318216488Y-153947916D02*
X318311726Y-154043154D01*
X318311726Y-154043154D02*
X318406964Y-154090773D01*
X318406964Y-154090773D02*
X318597440Y-154138392D01*
X318597440Y-154138392D02*
X318740297Y-154138392D01*
X318740297Y-154138392D02*
X318930773Y-154090773D01*
X318930773Y-154090773D02*
X319026011Y-154043154D01*
X319026011Y-154043154D02*
X319121250Y-153947916D01*
X319121250Y-153947916D02*
X319168869Y-153805059D01*
X319168869Y-153805059D02*
X319168869Y-153566964D01*
X318168869Y-154995535D02*
X318168869Y-154805059D01*
X318168869Y-154805059D02*
X318216488Y-154709821D01*
X318216488Y-154709821D02*
X318264107Y-154662202D01*
X318264107Y-154662202D02*
X318406964Y-154566964D01*
X318406964Y-154566964D02*
X318597440Y-154519345D01*
X318597440Y-154519345D02*
X318978392Y-154519345D01*
X318978392Y-154519345D02*
X319073630Y-154566964D01*
X319073630Y-154566964D02*
X319121250Y-154614583D01*
X319121250Y-154614583D02*
X319168869Y-154709821D01*
X319168869Y-154709821D02*
X319168869Y-154900297D01*
X319168869Y-154900297D02*
X319121250Y-154995535D01*
X319121250Y-154995535D02*
X319073630Y-155043154D01*
X319073630Y-155043154D02*
X318978392Y-155090773D01*
X318978392Y-155090773D02*
X318740297Y-155090773D01*
X318740297Y-155090773D02*
X318645059Y-155043154D01*
X318645059Y-155043154D02*
X318597440Y-154995535D01*
X318597440Y-154995535D02*
X318549821Y-154900297D01*
X318549821Y-154900297D02*
X318549821Y-154709821D01*
X318549821Y-154709821D02*
X318597440Y-154614583D01*
X318597440Y-154614583D02*
X318645059Y-154566964D01*
X318645059Y-154566964D02*
X318740297Y-154519345D01*
X318168869Y-155424107D02*
X318168869Y-156043154D01*
X318168869Y-156043154D02*
X318549821Y-155709821D01*
X318549821Y-155709821D02*
X318549821Y-155852678D01*
X318549821Y-155852678D02*
X318597440Y-155947916D01*
X318597440Y-155947916D02*
X318645059Y-155995535D01*
X318645059Y-155995535D02*
X318740297Y-156043154D01*
X318740297Y-156043154D02*
X318978392Y-156043154D01*
X318978392Y-156043154D02*
X319073630Y-155995535D01*
X319073630Y-155995535D02*
X319121250Y-155947916D01*
X319121250Y-155947916D02*
X319168869Y-155852678D01*
X319168869Y-155852678D02*
X319168869Y-155566964D01*
X319168869Y-155566964D02*
X319121250Y-155471726D01*
X319121250Y-155471726D02*
X319073630Y-155424107D01*
%TO.C,D42*%
X226300119Y-134516964D02*
X225300119Y-134516964D01*
X225300119Y-134516964D02*
X225300119Y-134755059D01*
X225300119Y-134755059D02*
X225347738Y-134897916D01*
X225347738Y-134897916D02*
X225442976Y-134993154D01*
X225442976Y-134993154D02*
X225538214Y-135040773D01*
X225538214Y-135040773D02*
X225728690Y-135088392D01*
X225728690Y-135088392D02*
X225871547Y-135088392D01*
X225871547Y-135088392D02*
X226062023Y-135040773D01*
X226062023Y-135040773D02*
X226157261Y-134993154D01*
X226157261Y-134993154D02*
X226252500Y-134897916D01*
X226252500Y-134897916D02*
X226300119Y-134755059D01*
X226300119Y-134755059D02*
X226300119Y-134516964D01*
X225633452Y-135945535D02*
X226300119Y-135945535D01*
X225252500Y-135707440D02*
X225966785Y-135469345D01*
X225966785Y-135469345D02*
X225966785Y-136088392D01*
X225395357Y-136421726D02*
X225347738Y-136469345D01*
X225347738Y-136469345D02*
X225300119Y-136564583D01*
X225300119Y-136564583D02*
X225300119Y-136802678D01*
X225300119Y-136802678D02*
X225347738Y-136897916D01*
X225347738Y-136897916D02*
X225395357Y-136945535D01*
X225395357Y-136945535D02*
X225490595Y-136993154D01*
X225490595Y-136993154D02*
X225585833Y-136993154D01*
X225585833Y-136993154D02*
X225728690Y-136945535D01*
X225728690Y-136945535D02*
X226300119Y-136374107D01*
X226300119Y-136374107D02*
X226300119Y-136993154D01*
%TO.C,D45*%
X283450119Y-134516964D02*
X282450119Y-134516964D01*
X282450119Y-134516964D02*
X282450119Y-134755059D01*
X282450119Y-134755059D02*
X282497738Y-134897916D01*
X282497738Y-134897916D02*
X282592976Y-134993154D01*
X282592976Y-134993154D02*
X282688214Y-135040773D01*
X282688214Y-135040773D02*
X282878690Y-135088392D01*
X282878690Y-135088392D02*
X283021547Y-135088392D01*
X283021547Y-135088392D02*
X283212023Y-135040773D01*
X283212023Y-135040773D02*
X283307261Y-134993154D01*
X283307261Y-134993154D02*
X283402500Y-134897916D01*
X283402500Y-134897916D02*
X283450119Y-134755059D01*
X283450119Y-134755059D02*
X283450119Y-134516964D01*
X282783452Y-135945535D02*
X283450119Y-135945535D01*
X282402500Y-135707440D02*
X283116785Y-135469345D01*
X283116785Y-135469345D02*
X283116785Y-136088392D01*
X282450119Y-136945535D02*
X282450119Y-136469345D01*
X282450119Y-136469345D02*
X282926309Y-136421726D01*
X282926309Y-136421726D02*
X282878690Y-136469345D01*
X282878690Y-136469345D02*
X282831071Y-136564583D01*
X282831071Y-136564583D02*
X282831071Y-136802678D01*
X282831071Y-136802678D02*
X282878690Y-136897916D01*
X282878690Y-136897916D02*
X282926309Y-136945535D01*
X282926309Y-136945535D02*
X283021547Y-136993154D01*
X283021547Y-136993154D02*
X283259642Y-136993154D01*
X283259642Y-136993154D02*
X283354880Y-136945535D01*
X283354880Y-136945535D02*
X283402500Y-136897916D01*
X283402500Y-136897916D02*
X283450119Y-136802678D01*
X283450119Y-136802678D02*
X283450119Y-136564583D01*
X283450119Y-136564583D02*
X283402500Y-136469345D01*
X283402500Y-136469345D02*
X283354880Y-136421726D01*
%TO.C,D3*%
X117651619Y-90828905D02*
X116651619Y-90828905D01*
X116651619Y-90828905D02*
X116651619Y-91067000D01*
X116651619Y-91067000D02*
X116699238Y-91209857D01*
X116699238Y-91209857D02*
X116794476Y-91305095D01*
X116794476Y-91305095D02*
X116889714Y-91352714D01*
X116889714Y-91352714D02*
X117080190Y-91400333D01*
X117080190Y-91400333D02*
X117223047Y-91400333D01*
X117223047Y-91400333D02*
X117413523Y-91352714D01*
X117413523Y-91352714D02*
X117508761Y-91305095D01*
X117508761Y-91305095D02*
X117604000Y-91209857D01*
X117604000Y-91209857D02*
X117651619Y-91067000D01*
X117651619Y-91067000D02*
X117651619Y-90828905D01*
X116651619Y-91733667D02*
X116651619Y-92352714D01*
X116651619Y-92352714D02*
X117032571Y-92019381D01*
X117032571Y-92019381D02*
X117032571Y-92162238D01*
X117032571Y-92162238D02*
X117080190Y-92257476D01*
X117080190Y-92257476D02*
X117127809Y-92305095D01*
X117127809Y-92305095D02*
X117223047Y-92352714D01*
X117223047Y-92352714D02*
X117461142Y-92352714D01*
X117461142Y-92352714D02*
X117556380Y-92305095D01*
X117556380Y-92305095D02*
X117604000Y-92257476D01*
X117604000Y-92257476D02*
X117651619Y-92162238D01*
X117651619Y-92162238D02*
X117651619Y-91876524D01*
X117651619Y-91876524D02*
X117604000Y-91781286D01*
X117604000Y-91781286D02*
X117556380Y-91733667D01*
%TO.C,D53*%
X121525119Y-153566964D02*
X120525119Y-153566964D01*
X120525119Y-153566964D02*
X120525119Y-153805059D01*
X120525119Y-153805059D02*
X120572738Y-153947916D01*
X120572738Y-153947916D02*
X120667976Y-154043154D01*
X120667976Y-154043154D02*
X120763214Y-154090773D01*
X120763214Y-154090773D02*
X120953690Y-154138392D01*
X120953690Y-154138392D02*
X121096547Y-154138392D01*
X121096547Y-154138392D02*
X121287023Y-154090773D01*
X121287023Y-154090773D02*
X121382261Y-154043154D01*
X121382261Y-154043154D02*
X121477500Y-153947916D01*
X121477500Y-153947916D02*
X121525119Y-153805059D01*
X121525119Y-153805059D02*
X121525119Y-153566964D01*
X120525119Y-155043154D02*
X120525119Y-154566964D01*
X120525119Y-154566964D02*
X121001309Y-154519345D01*
X121001309Y-154519345D02*
X120953690Y-154566964D01*
X120953690Y-154566964D02*
X120906071Y-154662202D01*
X120906071Y-154662202D02*
X120906071Y-154900297D01*
X120906071Y-154900297D02*
X120953690Y-154995535D01*
X120953690Y-154995535D02*
X121001309Y-155043154D01*
X121001309Y-155043154D02*
X121096547Y-155090773D01*
X121096547Y-155090773D02*
X121334642Y-155090773D01*
X121334642Y-155090773D02*
X121429880Y-155043154D01*
X121429880Y-155043154D02*
X121477500Y-154995535D01*
X121477500Y-154995535D02*
X121525119Y-154900297D01*
X121525119Y-154900297D02*
X121525119Y-154662202D01*
X121525119Y-154662202D02*
X121477500Y-154566964D01*
X121477500Y-154566964D02*
X121429880Y-154519345D01*
X120525119Y-155424107D02*
X120525119Y-156043154D01*
X120525119Y-156043154D02*
X120906071Y-155709821D01*
X120906071Y-155709821D02*
X120906071Y-155852678D01*
X120906071Y-155852678D02*
X120953690Y-155947916D01*
X120953690Y-155947916D02*
X121001309Y-155995535D01*
X121001309Y-155995535D02*
X121096547Y-156043154D01*
X121096547Y-156043154D02*
X121334642Y-156043154D01*
X121334642Y-156043154D02*
X121429880Y-155995535D01*
X121429880Y-155995535D02*
X121477500Y-155947916D01*
X121477500Y-155947916D02*
X121525119Y-155852678D01*
X121525119Y-155852678D02*
X121525119Y-155566964D01*
X121525119Y-155566964D02*
X121477500Y-155471726D01*
X121477500Y-155471726D02*
X121429880Y-155424107D01*
%TO.C,D66*%
X81043869Y-172616964D02*
X80043869Y-172616964D01*
X80043869Y-172616964D02*
X80043869Y-172855059D01*
X80043869Y-172855059D02*
X80091488Y-172997916D01*
X80091488Y-172997916D02*
X80186726Y-173093154D01*
X80186726Y-173093154D02*
X80281964Y-173140773D01*
X80281964Y-173140773D02*
X80472440Y-173188392D01*
X80472440Y-173188392D02*
X80615297Y-173188392D01*
X80615297Y-173188392D02*
X80805773Y-173140773D01*
X80805773Y-173140773D02*
X80901011Y-173093154D01*
X80901011Y-173093154D02*
X80996250Y-172997916D01*
X80996250Y-172997916D02*
X81043869Y-172855059D01*
X81043869Y-172855059D02*
X81043869Y-172616964D01*
X80043869Y-174045535D02*
X80043869Y-173855059D01*
X80043869Y-173855059D02*
X80091488Y-173759821D01*
X80091488Y-173759821D02*
X80139107Y-173712202D01*
X80139107Y-173712202D02*
X80281964Y-173616964D01*
X80281964Y-173616964D02*
X80472440Y-173569345D01*
X80472440Y-173569345D02*
X80853392Y-173569345D01*
X80853392Y-173569345D02*
X80948630Y-173616964D01*
X80948630Y-173616964D02*
X80996250Y-173664583D01*
X80996250Y-173664583D02*
X81043869Y-173759821D01*
X81043869Y-173759821D02*
X81043869Y-173950297D01*
X81043869Y-173950297D02*
X80996250Y-174045535D01*
X80996250Y-174045535D02*
X80948630Y-174093154D01*
X80948630Y-174093154D02*
X80853392Y-174140773D01*
X80853392Y-174140773D02*
X80615297Y-174140773D01*
X80615297Y-174140773D02*
X80520059Y-174093154D01*
X80520059Y-174093154D02*
X80472440Y-174045535D01*
X80472440Y-174045535D02*
X80424821Y-173950297D01*
X80424821Y-173950297D02*
X80424821Y-173759821D01*
X80424821Y-173759821D02*
X80472440Y-173664583D01*
X80472440Y-173664583D02*
X80520059Y-173616964D01*
X80520059Y-173616964D02*
X80615297Y-173569345D01*
X80043869Y-174997916D02*
X80043869Y-174807440D01*
X80043869Y-174807440D02*
X80091488Y-174712202D01*
X80091488Y-174712202D02*
X80139107Y-174664583D01*
X80139107Y-174664583D02*
X80281964Y-174569345D01*
X80281964Y-174569345D02*
X80472440Y-174521726D01*
X80472440Y-174521726D02*
X80853392Y-174521726D01*
X80853392Y-174521726D02*
X80948630Y-174569345D01*
X80948630Y-174569345D02*
X80996250Y-174616964D01*
X80996250Y-174616964D02*
X81043869Y-174712202D01*
X81043869Y-174712202D02*
X81043869Y-174902678D01*
X81043869Y-174902678D02*
X80996250Y-174997916D01*
X80996250Y-174997916D02*
X80948630Y-175045535D01*
X80948630Y-175045535D02*
X80853392Y-175093154D01*
X80853392Y-175093154D02*
X80615297Y-175093154D01*
X80615297Y-175093154D02*
X80520059Y-175045535D01*
X80520059Y-175045535D02*
X80472440Y-174997916D01*
X80472440Y-174997916D02*
X80424821Y-174902678D01*
X80424821Y-174902678D02*
X80424821Y-174712202D01*
X80424821Y-174712202D02*
X80472440Y-174616964D01*
X80472440Y-174616964D02*
X80520059Y-174569345D01*
X80520059Y-174569345D02*
X80615297Y-174521726D01*
%TO.C,R3*%
X101553019Y-114844533D02*
X101076828Y-114511200D01*
X101553019Y-114273105D02*
X100553019Y-114273105D01*
X100553019Y-114273105D02*
X100553019Y-114654057D01*
X100553019Y-114654057D02*
X100600638Y-114749295D01*
X100600638Y-114749295D02*
X100648257Y-114796914D01*
X100648257Y-114796914D02*
X100743495Y-114844533D01*
X100743495Y-114844533D02*
X100886352Y-114844533D01*
X100886352Y-114844533D02*
X100981590Y-114796914D01*
X100981590Y-114796914D02*
X101029209Y-114749295D01*
X101029209Y-114749295D02*
X101076828Y-114654057D01*
X101076828Y-114654057D02*
X101076828Y-114273105D01*
X100553019Y-115177867D02*
X100553019Y-115796914D01*
X100553019Y-115796914D02*
X100933971Y-115463581D01*
X100933971Y-115463581D02*
X100933971Y-115606438D01*
X100933971Y-115606438D02*
X100981590Y-115701676D01*
X100981590Y-115701676D02*
X101029209Y-115749295D01*
X101029209Y-115749295D02*
X101124447Y-115796914D01*
X101124447Y-115796914D02*
X101362542Y-115796914D01*
X101362542Y-115796914D02*
X101457780Y-115749295D01*
X101457780Y-115749295D02*
X101505400Y-115701676D01*
X101505400Y-115701676D02*
X101553019Y-115606438D01*
X101553019Y-115606438D02*
X101553019Y-115320724D01*
X101553019Y-115320724D02*
X101505400Y-115225486D01*
X101505400Y-115225486D02*
X101457780Y-115177867D01*
%TO.C,R4*%
X91087514Y-132905283D02*
X90986499Y-132332863D01*
X91491575Y-132501222D02*
X90784469Y-131794115D01*
X90784469Y-131794115D02*
X90515095Y-132063489D01*
X90515095Y-132063489D02*
X90481423Y-132164504D01*
X90481423Y-132164504D02*
X90481423Y-132231848D01*
X90481423Y-132231848D02*
X90515095Y-132332863D01*
X90515095Y-132332863D02*
X90616110Y-132433878D01*
X90616110Y-132433878D02*
X90717125Y-132467550D01*
X90717125Y-132467550D02*
X90784469Y-132467550D01*
X90784469Y-132467550D02*
X90885484Y-132433878D01*
X90885484Y-132433878D02*
X91154858Y-132164504D01*
X90010018Y-133039970D02*
X90481423Y-133511374D01*
X89909003Y-132602237D02*
X90582438Y-132938955D01*
X90582438Y-132938955D02*
X90144705Y-133376687D01*
%TO.C,D47*%
X321550119Y-134516964D02*
X320550119Y-134516964D01*
X320550119Y-134516964D02*
X320550119Y-134755059D01*
X320550119Y-134755059D02*
X320597738Y-134897916D01*
X320597738Y-134897916D02*
X320692976Y-134993154D01*
X320692976Y-134993154D02*
X320788214Y-135040773D01*
X320788214Y-135040773D02*
X320978690Y-135088392D01*
X320978690Y-135088392D02*
X321121547Y-135088392D01*
X321121547Y-135088392D02*
X321312023Y-135040773D01*
X321312023Y-135040773D02*
X321407261Y-134993154D01*
X321407261Y-134993154D02*
X321502500Y-134897916D01*
X321502500Y-134897916D02*
X321550119Y-134755059D01*
X321550119Y-134755059D02*
X321550119Y-134516964D01*
X320883452Y-135945535D02*
X321550119Y-135945535D01*
X320502500Y-135707440D02*
X321216785Y-135469345D01*
X321216785Y-135469345D02*
X321216785Y-136088392D01*
X320550119Y-136374107D02*
X320550119Y-137040773D01*
X320550119Y-137040773D02*
X321550119Y-136612202D01*
%TO.C,C13*%
X89947386Y-117173874D02*
X89995006Y-117126255D01*
X89995006Y-117126255D02*
X90042625Y-116983398D01*
X90042625Y-116983398D02*
X90042625Y-116888160D01*
X90042625Y-116888160D02*
X89995006Y-116745303D01*
X89995006Y-116745303D02*
X89899767Y-116650065D01*
X89899767Y-116650065D02*
X89804529Y-116602446D01*
X89804529Y-116602446D02*
X89614053Y-116554827D01*
X89614053Y-116554827D02*
X89471196Y-116554827D01*
X89471196Y-116554827D02*
X89280720Y-116602446D01*
X89280720Y-116602446D02*
X89185482Y-116650065D01*
X89185482Y-116650065D02*
X89090244Y-116745303D01*
X89090244Y-116745303D02*
X89042625Y-116888160D01*
X89042625Y-116888160D02*
X89042625Y-116983398D01*
X89042625Y-116983398D02*
X89090244Y-117126255D01*
X89090244Y-117126255D02*
X89137863Y-117173874D01*
X90042625Y-118126255D02*
X90042625Y-117554827D01*
X90042625Y-117840541D02*
X89042625Y-117840541D01*
X89042625Y-117840541D02*
X89185482Y-117745303D01*
X89185482Y-117745303D02*
X89280720Y-117650065D01*
X89280720Y-117650065D02*
X89328339Y-117554827D01*
X89042625Y-118459589D02*
X89042625Y-119078636D01*
X89042625Y-119078636D02*
X89423577Y-118745303D01*
X89423577Y-118745303D02*
X89423577Y-118888160D01*
X89423577Y-118888160D02*
X89471196Y-118983398D01*
X89471196Y-118983398D02*
X89518815Y-119031017D01*
X89518815Y-119031017D02*
X89614053Y-119078636D01*
X89614053Y-119078636D02*
X89852148Y-119078636D01*
X89852148Y-119078636D02*
X89947386Y-119031017D01*
X89947386Y-119031017D02*
X89995006Y-118983398D01*
X89995006Y-118983398D02*
X90042625Y-118888160D01*
X90042625Y-118888160D02*
X90042625Y-118602446D01*
X90042625Y-118602446D02*
X89995006Y-118507208D01*
X89995006Y-118507208D02*
X89947386Y-118459589D01*
%TO.C,D60*%
X254875119Y-153566964D02*
X253875119Y-153566964D01*
X253875119Y-153566964D02*
X253875119Y-153805059D01*
X253875119Y-153805059D02*
X253922738Y-153947916D01*
X253922738Y-153947916D02*
X254017976Y-154043154D01*
X254017976Y-154043154D02*
X254113214Y-154090773D01*
X254113214Y-154090773D02*
X254303690Y-154138392D01*
X254303690Y-154138392D02*
X254446547Y-154138392D01*
X254446547Y-154138392D02*
X254637023Y-154090773D01*
X254637023Y-154090773D02*
X254732261Y-154043154D01*
X254732261Y-154043154D02*
X254827500Y-153947916D01*
X254827500Y-153947916D02*
X254875119Y-153805059D01*
X254875119Y-153805059D02*
X254875119Y-153566964D01*
X253875119Y-154995535D02*
X253875119Y-154805059D01*
X253875119Y-154805059D02*
X253922738Y-154709821D01*
X253922738Y-154709821D02*
X253970357Y-154662202D01*
X253970357Y-154662202D02*
X254113214Y-154566964D01*
X254113214Y-154566964D02*
X254303690Y-154519345D01*
X254303690Y-154519345D02*
X254684642Y-154519345D01*
X254684642Y-154519345D02*
X254779880Y-154566964D01*
X254779880Y-154566964D02*
X254827500Y-154614583D01*
X254827500Y-154614583D02*
X254875119Y-154709821D01*
X254875119Y-154709821D02*
X254875119Y-154900297D01*
X254875119Y-154900297D02*
X254827500Y-154995535D01*
X254827500Y-154995535D02*
X254779880Y-155043154D01*
X254779880Y-155043154D02*
X254684642Y-155090773D01*
X254684642Y-155090773D02*
X254446547Y-155090773D01*
X254446547Y-155090773D02*
X254351309Y-155043154D01*
X254351309Y-155043154D02*
X254303690Y-154995535D01*
X254303690Y-154995535D02*
X254256071Y-154900297D01*
X254256071Y-154900297D02*
X254256071Y-154709821D01*
X254256071Y-154709821D02*
X254303690Y-154614583D01*
X254303690Y-154614583D02*
X254351309Y-154566964D01*
X254351309Y-154566964D02*
X254446547Y-154519345D01*
X253875119Y-155709821D02*
X253875119Y-155805059D01*
X253875119Y-155805059D02*
X253922738Y-155900297D01*
X253922738Y-155900297D02*
X253970357Y-155947916D01*
X253970357Y-155947916D02*
X254065595Y-155995535D01*
X254065595Y-155995535D02*
X254256071Y-156043154D01*
X254256071Y-156043154D02*
X254494166Y-156043154D01*
X254494166Y-156043154D02*
X254684642Y-155995535D01*
X254684642Y-155995535D02*
X254779880Y-155947916D01*
X254779880Y-155947916D02*
X254827500Y-155900297D01*
X254827500Y-155900297D02*
X254875119Y-155805059D01*
X254875119Y-155805059D02*
X254875119Y-155709821D01*
X254875119Y-155709821D02*
X254827500Y-155614583D01*
X254827500Y-155614583D02*
X254779880Y-155566964D01*
X254779880Y-155566964D02*
X254684642Y-155519345D01*
X254684642Y-155519345D02*
X254494166Y-155471726D01*
X254494166Y-155471726D02*
X254256071Y-155471726D01*
X254256071Y-155471726D02*
X254065595Y-155519345D01*
X254065595Y-155519345D02*
X253970357Y-155566964D01*
X253970357Y-155566964D02*
X253922738Y-155614583D01*
X253922738Y-155614583D02*
X253875119Y-155709821D01*
%TO.C,F1*%
X112855333Y-98362809D02*
X113188666Y-98362809D01*
X113188666Y-98886619D02*
X113188666Y-97886619D01*
X113188666Y-97886619D02*
X112712476Y-97886619D01*
X111807714Y-98886619D02*
X112379142Y-98886619D01*
X112093428Y-98886619D02*
X112093428Y-97886619D01*
X112093428Y-97886619D02*
X112188666Y-98029476D01*
X112188666Y-98029476D02*
X112283904Y-98124714D01*
X112283904Y-98124714D02*
X112379142Y-98172333D01*
%TO.C,D23*%
X183437619Y-115466964D02*
X182437619Y-115466964D01*
X182437619Y-115466964D02*
X182437619Y-115705059D01*
X182437619Y-115705059D02*
X182485238Y-115847916D01*
X182485238Y-115847916D02*
X182580476Y-115943154D01*
X182580476Y-115943154D02*
X182675714Y-115990773D01*
X182675714Y-115990773D02*
X182866190Y-116038392D01*
X182866190Y-116038392D02*
X183009047Y-116038392D01*
X183009047Y-116038392D02*
X183199523Y-115990773D01*
X183199523Y-115990773D02*
X183294761Y-115943154D01*
X183294761Y-115943154D02*
X183390000Y-115847916D01*
X183390000Y-115847916D02*
X183437619Y-115705059D01*
X183437619Y-115705059D02*
X183437619Y-115466964D01*
X182532857Y-116419345D02*
X182485238Y-116466964D01*
X182485238Y-116466964D02*
X182437619Y-116562202D01*
X182437619Y-116562202D02*
X182437619Y-116800297D01*
X182437619Y-116800297D02*
X182485238Y-116895535D01*
X182485238Y-116895535D02*
X182532857Y-116943154D01*
X182532857Y-116943154D02*
X182628095Y-116990773D01*
X182628095Y-116990773D02*
X182723333Y-116990773D01*
X182723333Y-116990773D02*
X182866190Y-116943154D01*
X182866190Y-116943154D02*
X183437619Y-116371726D01*
X183437619Y-116371726D02*
X183437619Y-116990773D01*
X182437619Y-117324107D02*
X182437619Y-117943154D01*
X182437619Y-117943154D02*
X182818571Y-117609821D01*
X182818571Y-117609821D02*
X182818571Y-117752678D01*
X182818571Y-117752678D02*
X182866190Y-117847916D01*
X182866190Y-117847916D02*
X182913809Y-117895535D01*
X182913809Y-117895535D02*
X183009047Y-117943154D01*
X183009047Y-117943154D02*
X183247142Y-117943154D01*
X183247142Y-117943154D02*
X183342380Y-117895535D01*
X183342380Y-117895535D02*
X183390000Y-117847916D01*
X183390000Y-117847916D02*
X183437619Y-117752678D01*
X183437619Y-117752678D02*
X183437619Y-117466964D01*
X183437619Y-117466964D02*
X183390000Y-117371726D01*
X183390000Y-117371726D02*
X183342380Y-117324107D01*
%TO.C,D6*%
X173912619Y-96893155D02*
X172912619Y-96893155D01*
X172912619Y-96893155D02*
X172912619Y-97131250D01*
X172912619Y-97131250D02*
X172960238Y-97274107D01*
X172960238Y-97274107D02*
X173055476Y-97369345D01*
X173055476Y-97369345D02*
X173150714Y-97416964D01*
X173150714Y-97416964D02*
X173341190Y-97464583D01*
X173341190Y-97464583D02*
X173484047Y-97464583D01*
X173484047Y-97464583D02*
X173674523Y-97416964D01*
X173674523Y-97416964D02*
X173769761Y-97369345D01*
X173769761Y-97369345D02*
X173865000Y-97274107D01*
X173865000Y-97274107D02*
X173912619Y-97131250D01*
X173912619Y-97131250D02*
X173912619Y-96893155D01*
X172912619Y-98321726D02*
X172912619Y-98131250D01*
X172912619Y-98131250D02*
X172960238Y-98036012D01*
X172960238Y-98036012D02*
X173007857Y-97988393D01*
X173007857Y-97988393D02*
X173150714Y-97893155D01*
X173150714Y-97893155D02*
X173341190Y-97845536D01*
X173341190Y-97845536D02*
X173722142Y-97845536D01*
X173722142Y-97845536D02*
X173817380Y-97893155D01*
X173817380Y-97893155D02*
X173865000Y-97940774D01*
X173865000Y-97940774D02*
X173912619Y-98036012D01*
X173912619Y-98036012D02*
X173912619Y-98226488D01*
X173912619Y-98226488D02*
X173865000Y-98321726D01*
X173865000Y-98321726D02*
X173817380Y-98369345D01*
X173817380Y-98369345D02*
X173722142Y-98416964D01*
X173722142Y-98416964D02*
X173484047Y-98416964D01*
X173484047Y-98416964D02*
X173388809Y-98369345D01*
X173388809Y-98369345D02*
X173341190Y-98321726D01*
X173341190Y-98321726D02*
X173293571Y-98226488D01*
X173293571Y-98226488D02*
X173293571Y-98036012D01*
X173293571Y-98036012D02*
X173341190Y-97940774D01*
X173341190Y-97940774D02*
X173388809Y-97893155D01*
X173388809Y-97893155D02*
X173484047Y-97845536D01*
%TO.C,D79*%
X271543869Y-172616964D02*
X270543869Y-172616964D01*
X270543869Y-172616964D02*
X270543869Y-172855059D01*
X270543869Y-172855059D02*
X270591488Y-172997916D01*
X270591488Y-172997916D02*
X270686726Y-173093154D01*
X270686726Y-173093154D02*
X270781964Y-173140773D01*
X270781964Y-173140773D02*
X270972440Y-173188392D01*
X270972440Y-173188392D02*
X271115297Y-173188392D01*
X271115297Y-173188392D02*
X271305773Y-173140773D01*
X271305773Y-173140773D02*
X271401011Y-173093154D01*
X271401011Y-173093154D02*
X271496250Y-172997916D01*
X271496250Y-172997916D02*
X271543869Y-172855059D01*
X271543869Y-172855059D02*
X271543869Y-172616964D01*
X270543869Y-173521726D02*
X270543869Y-174188392D01*
X270543869Y-174188392D02*
X271543869Y-173759821D01*
X271543869Y-174616964D02*
X271543869Y-174807440D01*
X271543869Y-174807440D02*
X271496250Y-174902678D01*
X271496250Y-174902678D02*
X271448630Y-174950297D01*
X271448630Y-174950297D02*
X271305773Y-175045535D01*
X271305773Y-175045535D02*
X271115297Y-175093154D01*
X271115297Y-175093154D02*
X270734345Y-175093154D01*
X270734345Y-175093154D02*
X270639107Y-175045535D01*
X270639107Y-175045535D02*
X270591488Y-174997916D01*
X270591488Y-174997916D02*
X270543869Y-174902678D01*
X270543869Y-174902678D02*
X270543869Y-174712202D01*
X270543869Y-174712202D02*
X270591488Y-174616964D01*
X270591488Y-174616964D02*
X270639107Y-174569345D01*
X270639107Y-174569345D02*
X270734345Y-174521726D01*
X270734345Y-174521726D02*
X270972440Y-174521726D01*
X270972440Y-174521726D02*
X271067678Y-174569345D01*
X271067678Y-174569345D02*
X271115297Y-174616964D01*
X271115297Y-174616964D02*
X271162916Y-174712202D01*
X271162916Y-174712202D02*
X271162916Y-174902678D01*
X271162916Y-174902678D02*
X271115297Y-174997916D01*
X271115297Y-174997916D02*
X271067678Y-175045535D01*
X271067678Y-175045535D02*
X270972440Y-175093154D01*
D11*
%TO.C,C15*%
X82937030Y-121434731D02*
X82721358Y-121434731D01*
X82937030Y-120714731D02*
X82721358Y-120714731D01*
%TO.C,D29*%
X294275000Y-118931250D02*
X294275000Y-115031250D01*
X296275000Y-118931250D02*
X294275000Y-118931250D01*
X296275000Y-118931250D02*
X296275000Y-115031250D01*
%TO.C,D56*%
X175212500Y-157031250D02*
X175212500Y-153131250D01*
X177212500Y-157031250D02*
X175212500Y-157031250D01*
X177212500Y-157031250D02*
X177212500Y-153131250D01*
%TO.C,D40*%
X184737500Y-137981250D02*
X184737500Y-134081250D01*
X186737500Y-137981250D02*
X184737500Y-137981250D01*
X186737500Y-137981250D02*
X186737500Y-134081250D01*
%TO.C,D14*%
X322850000Y-99881250D02*
X322850000Y-95981250D01*
X324850000Y-99881250D02*
X322850000Y-99881250D01*
X324850000Y-99881250D02*
X324850000Y-95981250D01*
%TO.C,D39*%
X165687500Y-137981250D02*
X165687500Y-134081250D01*
X167687500Y-137981250D02*
X165687500Y-137981250D01*
X167687500Y-137981250D02*
X167687500Y-134081250D01*
%TO.C,D49*%
X360950000Y-137981250D02*
X360950000Y-134081250D01*
X362950000Y-137981250D02*
X360950000Y-137981250D01*
X362950000Y-137981250D02*
X362950000Y-134081250D01*
%TO.C,D43*%
X241887500Y-137981250D02*
X241887500Y-134081250D01*
X243887500Y-137981250D02*
X241887500Y-137981250D01*
X243887500Y-137981250D02*
X243887500Y-134081250D01*
%TO.C,C14*%
X82937030Y-120418731D02*
X82721358Y-120418731D01*
X82937030Y-119698731D02*
X82721358Y-119698731D01*
%TO.C,D84*%
X360950000Y-176081250D02*
X360950000Y-172181250D01*
X362950000Y-176081250D02*
X360950000Y-176081250D01*
X362950000Y-176081250D02*
X362950000Y-172181250D01*
%TO.C,C5*%
X95906000Y-99520836D02*
X95906000Y-99305164D01*
X96626000Y-99520836D02*
X96626000Y-99305164D01*
%TO.C,D52*%
X99012500Y-157031250D02*
X99012500Y-153131250D01*
X101012500Y-157031250D02*
X99012500Y-157031250D01*
X101012500Y-157031250D02*
X101012500Y-153131250D01*
%TO.C,D77*%
X250206000Y-173699000D02*
X250206000Y-169799000D01*
X252206000Y-173699000D02*
X250206000Y-173699000D01*
X252206000Y-173699000D02*
X252206000Y-169799000D01*
%TO.C,D1*%
X75200000Y-99881250D02*
X75200000Y-95981250D01*
X77200000Y-99881250D02*
X75200000Y-99881250D01*
X77200000Y-99881250D02*
X77200000Y-95981250D01*
%TO.C,C6*%
X85012006Y-117924568D02*
X85012006Y-117708896D01*
X85732006Y-117924568D02*
X85732006Y-117708896D01*
%TO.C,C1*%
X91080000Y-115141836D02*
X91080000Y-114926164D01*
X91800000Y-115141836D02*
X91800000Y-114926164D01*
%TO.C,D70*%
X125238000Y-176114000D02*
X125238000Y-172214000D01*
X127238000Y-176114000D02*
X125238000Y-176114000D01*
X127238000Y-176114000D02*
X127238000Y-172214000D01*
%TO.C,R2*%
X86768006Y-117663091D02*
X86768006Y-117970373D01*
X86008006Y-117663091D02*
X86008006Y-117970373D01*
%TO.C,LED1*%
X80000000Y-137548750D02*
X79100000Y-137548750D01*
X80000000Y-136548750D02*
X80000000Y-137548750D01*
%TO.C,C16*%
X82784836Y-125836000D02*
X82569164Y-125836000D01*
X82784836Y-125116000D02*
X82569164Y-125116000D01*
%TO.C,D24*%
X199025000Y-118931250D02*
X199025000Y-115031250D01*
X201025000Y-118931250D02*
X199025000Y-118931250D01*
X201025000Y-118931250D02*
X201025000Y-115031250D01*
%TO.C,D68*%
X101393750Y-176081250D02*
X101393750Y-172181250D01*
X103393750Y-176081250D02*
X101393750Y-176081250D01*
X103393750Y-176081250D02*
X103393750Y-172181250D01*
%TO.C,C8*%
X89457006Y-117162568D02*
X89457006Y-116946896D01*
X90177006Y-117162568D02*
X90177006Y-116946896D01*
%TO.C,D72*%
X169561000Y-176113000D02*
X169561000Y-172213000D01*
X171561000Y-176113000D02*
X169561000Y-176113000D01*
X171561000Y-176113000D02*
X171561000Y-172213000D01*
%TO.C,D33*%
X360950000Y-118931250D02*
X360950000Y-115031250D01*
X362950000Y-118931250D02*
X360950000Y-118931250D01*
X362950000Y-118931250D02*
X362950000Y-115031250D01*
%TO.C,D18*%
X80661000Y-112613000D02*
X80661000Y-108713000D01*
X82661000Y-112613000D02*
X80661000Y-112613000D01*
X82661000Y-112613000D02*
X82661000Y-108713000D01*
%TO.C,D38*%
X146637500Y-137981250D02*
X146637500Y-134081250D01*
X148637500Y-137981250D02*
X146637500Y-137981250D01*
X148637500Y-137981250D02*
X148637500Y-134081250D01*
%TO.C,C11*%
X86376593Y-132260449D02*
X86224090Y-132412952D01*
X85867476Y-131751332D02*
X85714973Y-131903835D01*
%TO.C,D35*%
X82439000Y-137885000D02*
X82439000Y-133985000D01*
X84439000Y-137885000D02*
X82439000Y-137885000D01*
X84439000Y-137885000D02*
X84439000Y-133985000D01*
%TO.C,D51*%
X87106250Y-157031250D02*
X87106250Y-153131250D01*
X89106250Y-157031250D02*
X87106250Y-157031250D01*
X89106250Y-157031250D02*
X89106250Y-153131250D01*
%TO.C,D37*%
X127587500Y-137981250D02*
X127587500Y-134081250D01*
X129587500Y-137981250D02*
X127587500Y-137981250D01*
X129587500Y-137981250D02*
X129587500Y-134081250D01*
%TO.C,D30*%
X313325000Y-118931250D02*
X313325000Y-115031250D01*
X315325000Y-118931250D02*
X313325000Y-118931250D01*
X315325000Y-118931250D02*
X315325000Y-115031250D01*
%TO.C,D46*%
X299482000Y-136616000D02*
X299482000Y-132716000D01*
X301482000Y-136616000D02*
X299482000Y-136616000D01*
X301482000Y-136616000D02*
X301482000Y-132716000D01*
%TO.C,D7*%
X189500000Y-99881250D02*
X189500000Y-95981250D01*
X191500000Y-99881250D02*
X189500000Y-99881250D01*
X191500000Y-99881250D02*
X191500000Y-95981250D01*
%TO.C,SW85*%
X110416000Y-117245000D02*
X110416000Y-115165000D01*
X109146000Y-118925000D02*
X109636000Y-118435000D01*
X109146000Y-118925000D02*
X106246000Y-118925000D01*
X109146000Y-113485000D02*
X109636000Y-113975000D01*
X109146000Y-113485000D02*
X106246000Y-113485000D01*
X106246000Y-118925000D02*
X105756000Y-118435000D01*
X106246000Y-113485000D02*
X105756000Y-113975000D01*
X104976000Y-117245000D02*
X104976000Y-115165000D01*
%TO.C,D58*%
X213312500Y-157031250D02*
X213312500Y-153131250D01*
X215312500Y-157031250D02*
X213312500Y-157031250D01*
X215312500Y-157031250D02*
X215312500Y-153131250D01*
%TO.C,D82*%
X319167000Y-176081250D02*
X319167000Y-172181250D01*
X321167000Y-176081250D02*
X319167000Y-176081250D01*
X321167000Y-176081250D02*
X321167000Y-172181250D01*
%TO.C,D27*%
X256175000Y-118931250D02*
X256175000Y-115031250D01*
X258175000Y-118931250D02*
X256175000Y-118931250D01*
X258175000Y-118931250D02*
X258175000Y-115031250D01*
%TO.C,C12*%
X93364164Y-121306000D02*
X93579836Y-121306000D01*
X93364164Y-122026000D02*
X93579836Y-122026000D01*
%TO.C,D80*%
X289512500Y-176081250D02*
X289512500Y-172181250D01*
X291512500Y-176081250D02*
X289512500Y-176081250D01*
X291512500Y-176081250D02*
X291512500Y-172181250D01*
%TO.C,D5*%
X151400000Y-99881250D02*
X151400000Y-95981250D01*
X153400000Y-99881250D02*
X151400000Y-99881250D01*
X153400000Y-99881250D02*
X153400000Y-95981250D01*
%TO.C,D64*%
X341900000Y-157031250D02*
X341900000Y-153131250D01*
X343900000Y-157031250D02*
X341900000Y-157031250D01*
X343900000Y-157031250D02*
X343900000Y-153131250D01*
%TO.C,D61*%
X270462500Y-157031250D02*
X270462500Y-153131250D01*
X272462500Y-157031250D02*
X270462500Y-157031250D01*
X272462500Y-157031250D02*
X272462500Y-153131250D01*
%TO.C,U1*%
X84420506Y-121277732D02*
X84420506Y-121927732D01*
X84420506Y-128497732D02*
X84420506Y-127847732D01*
X85070506Y-121277732D02*
X84420506Y-121277732D01*
X85070506Y-128497732D02*
X84420506Y-128497732D01*
X90990506Y-121277732D02*
X91640506Y-121277732D01*
X90990506Y-128497732D02*
X91640506Y-128497732D01*
X91640506Y-128497732D02*
X91640506Y-127847732D01*
%TO.C,D11*%
X265700000Y-99881250D02*
X265700000Y-95981250D01*
X267700000Y-99881250D02*
X265700000Y-99881250D01*
X267700000Y-99881250D02*
X267700000Y-95981250D01*
%TO.C,C3*%
X88195159Y-132447264D02*
X88347662Y-132599767D01*
X87686042Y-132956381D02*
X87838545Y-133108884D01*
%TO.C,D54*%
X137112500Y-157031250D02*
X137112500Y-153131250D01*
X139112500Y-157031250D02*
X137112500Y-157031250D01*
X139112500Y-157031250D02*
X139112500Y-153131250D01*
%TO.C,D21*%
X141875000Y-118931250D02*
X141875000Y-115031250D01*
X143875000Y-118931250D02*
X141875000Y-118931250D01*
X143875000Y-118931250D02*
X143875000Y-115031250D01*
%TO.C,D15*%
X332375000Y-99881250D02*
X332375000Y-95981250D01*
X334375000Y-99881250D02*
X332375000Y-99881250D01*
X334375000Y-99881250D02*
X334375000Y-95981250D01*
%TO.C,C10*%
X82937030Y-119402731D02*
X82721358Y-119402731D01*
X82937030Y-118682731D02*
X82721358Y-118682731D01*
%TO.C,D65*%
X360950000Y-157031250D02*
X360950000Y-153131250D01*
X362950000Y-157031250D02*
X360950000Y-157031250D01*
X362950000Y-157031250D02*
X362950000Y-153131250D01*
%TO.C,Y1*%
X88434136Y-134277418D02*
X91262563Y-131448991D01*
X90767589Y-136610871D02*
X88434136Y-134277418D01*
%TO.C,D62*%
X289512500Y-157031250D02*
X289512500Y-153131250D01*
X291512500Y-157031250D02*
X289512500Y-157031250D01*
X291512500Y-157031250D02*
X291512500Y-153131250D01*
%TO.C,D2*%
X95520000Y-93182000D02*
X95520000Y-89282000D01*
X97520000Y-93182000D02*
X95520000Y-93182000D01*
X97520000Y-93182000D02*
X97520000Y-89282000D01*
%TO.C,D22*%
X160925000Y-118931250D02*
X160925000Y-115031250D01*
X162925000Y-118931250D02*
X160925000Y-118931250D01*
X162925000Y-118931250D02*
X162925000Y-115031250D01*
%TO.C,D28*%
X275225000Y-118931250D02*
X275225000Y-115031250D01*
X277225000Y-118931250D02*
X275225000Y-118931250D01*
X277225000Y-118931250D02*
X277225000Y-115031250D01*
%TO.C,R5*%
X71197200Y-139904441D02*
X71197200Y-139597159D01*
X71957200Y-139904441D02*
X71957200Y-139597159D01*
%TO.C,C7*%
X85614593Y-131498449D02*
X85462090Y-131650952D01*
X85105476Y-130989332D02*
X84952973Y-131141835D01*
%TO.C,D59*%
X232362500Y-157031250D02*
X232362500Y-153131250D01*
X234362500Y-157031250D02*
X232362500Y-157031250D01*
X234362500Y-157031250D02*
X234362500Y-153131250D01*
%TO.C,D8*%
X208550000Y-99881250D02*
X208550000Y-95981250D01*
X210550000Y-99881250D02*
X208550000Y-99881250D01*
X210550000Y-99881250D02*
X210550000Y-95981250D01*
%TO.C,D25*%
X218075000Y-118931250D02*
X218075000Y-115031250D01*
X220075000Y-118931250D02*
X218075000Y-118931250D01*
X220075000Y-118931250D02*
X220075000Y-115031250D01*
%TO.C,D4*%
X132350000Y-99881250D02*
X132350000Y-95981250D01*
X134350000Y-99881250D02*
X132350000Y-99881250D01*
X134350000Y-99881250D02*
X134350000Y-95981250D01*
%TO.C,D41*%
X203787500Y-137981250D02*
X203787500Y-134081250D01*
X205787500Y-137981250D02*
X203787500Y-137981250D01*
X205787500Y-137981250D02*
X205787500Y-134081250D01*
%TO.C,D74*%
X196643750Y-176081250D02*
X196643750Y-172181250D01*
X198643750Y-176081250D02*
X196643750Y-176081250D01*
X198643750Y-176081250D02*
X198643750Y-172181250D01*
%TO.C,D57*%
X194262500Y-157031250D02*
X194262500Y-153131250D01*
X196262500Y-157031250D02*
X194262500Y-157031250D01*
X196262500Y-157031250D02*
X196262500Y-153131250D01*
%TO.C,D26*%
X237125000Y-118931250D02*
X237125000Y-115031250D01*
X239125000Y-118931250D02*
X237125000Y-118931250D01*
X239125000Y-118931250D02*
X239125000Y-115031250D01*
%TO.C,D55*%
X156162500Y-157031250D02*
X156162500Y-153131250D01*
X158162500Y-157031250D02*
X156162500Y-157031250D01*
X158162500Y-157031250D02*
X158162500Y-153131250D01*
%TO.C,D44*%
X260937500Y-137981250D02*
X260937500Y-134081250D01*
X262937500Y-137981250D02*
X260937500Y-137981250D01*
X262937500Y-137981250D02*
X262937500Y-134081250D01*
%TO.C,D16*%
X357648000Y-99151000D02*
X357648000Y-95251000D01*
X359648000Y-99151000D02*
X357648000Y-99151000D01*
X359648000Y-99151000D02*
X359648000Y-95251000D01*
%TO.C,C2*%
X94760288Y-135080131D02*
X94607785Y-134927628D01*
X95269405Y-134571014D02*
X95116902Y-134418511D01*
%TO.C,U3*%
X100838000Y-99278000D02*
X100188000Y-99278000D01*
X100838000Y-99278000D02*
X101488000Y-99278000D01*
X100838000Y-102398000D02*
X99163000Y-102398000D01*
X100838000Y-102398000D02*
X101488000Y-102398000D01*
%TO.C,D19*%
X105172000Y-112232000D02*
X105172000Y-108332000D01*
X107172000Y-112232000D02*
X105172000Y-112232000D01*
X107172000Y-112232000D02*
X107172000Y-108332000D01*
%TO.C,D36*%
X108537500Y-137981250D02*
X108537500Y-134081250D01*
X110537500Y-137981250D02*
X108537500Y-137981250D01*
X110537500Y-137981250D02*
X110537500Y-134081250D01*
%TO.C,C17*%
X93745164Y-125370000D02*
X93960836Y-125370000D01*
X93745164Y-126090000D02*
X93960836Y-126090000D01*
%TO.C,R1*%
X87784006Y-117663091D02*
X87784006Y-117970373D01*
X87024006Y-117663091D02*
X87024006Y-117970373D01*
%TO.C,D12*%
X284750000Y-99881250D02*
X284750000Y-95981250D01*
X286750000Y-99881250D02*
X284750000Y-99881250D01*
X286750000Y-99881250D02*
X286750000Y-95981250D01*
%TO.C,D10*%
X246650000Y-99881250D02*
X246650000Y-95981250D01*
X248650000Y-99881250D02*
X246650000Y-99881250D01*
X248650000Y-99881250D02*
X248650000Y-95981250D01*
%TO.C,U2*%
X99658200Y-120200000D02*
X99658200Y-119940000D01*
X99658200Y-115010000D02*
X101333200Y-115010000D01*
X99658200Y-114750000D02*
X99658200Y-115010000D01*
X96933200Y-120200000D02*
X99658200Y-120200000D01*
X96933200Y-120200000D02*
X94208200Y-120200000D01*
X96933200Y-114750000D02*
X99658200Y-114750000D01*
X96933200Y-114750000D02*
X94208200Y-114750000D01*
X94208200Y-120200000D02*
X94208200Y-119940000D01*
X94208200Y-114750000D02*
X94208200Y-115010000D01*
%TO.C,D9*%
X227600000Y-99881250D02*
X227600000Y-95981250D01*
X229600000Y-99881250D02*
X227600000Y-99881250D01*
X229600000Y-99881250D02*
X229600000Y-95981250D01*
%TO.C,C4*%
X103992000Y-101238164D02*
X103992000Y-101453836D01*
X103272000Y-101238164D02*
X103272000Y-101453836D01*
%TO.C,U4*%
X112075000Y-102303000D02*
X112685000Y-102303000D01*
X112685000Y-102303000D02*
X112685000Y-99403000D01*
X109565000Y-100203000D02*
X109565000Y-101003000D01*
X109565000Y-100203000D02*
X109565000Y-99403000D01*
%TO.C,J1*%
X126729000Y-97099000D02*
X124229000Y-97099000D01*
X124229000Y-97099000D02*
X124229000Y-98149000D01*
X124229000Y-98149000D02*
X123239000Y-98149000D01*
X128699000Y-98269000D02*
X128699000Y-102149000D01*
X126729000Y-103319000D02*
X124229000Y-103319000D01*
X124229000Y-103319000D02*
X124229000Y-102269000D01*
%TO.C,C9*%
X98427000Y-99187580D02*
X98427000Y-98906420D01*
X97407000Y-99187580D02*
X97407000Y-98906420D01*
%TO.C,D83*%
X341900000Y-176081250D02*
X341900000Y-172181250D01*
X343900000Y-176081250D02*
X341900000Y-176081250D01*
X343900000Y-176081250D02*
X343900000Y-172181250D01*
%TO.C,D20*%
X122825000Y-118931250D02*
X122825000Y-115031250D01*
X124825000Y-118931250D02*
X122825000Y-118931250D01*
X124825000Y-118931250D02*
X124825000Y-115031250D01*
%TO.C,C18*%
X70476164Y-134895000D02*
X70691836Y-134895000D01*
X70476164Y-135615000D02*
X70691836Y-135615000D01*
%TO.C,D31*%
X337137500Y-118931250D02*
X337137500Y-115031250D01*
X339137500Y-118931250D02*
X337137500Y-118931250D01*
X339137500Y-118931250D02*
X339137500Y-115031250D01*
%TO.C,D13*%
X303800000Y-99881250D02*
X303800000Y-95981250D01*
X305800000Y-99881250D02*
X303800000Y-99881250D01*
X305800000Y-99881250D02*
X305800000Y-95981250D01*
%TO.C,D63*%
X315706250Y-157031250D02*
X315706250Y-153131250D01*
X317706250Y-157031250D02*
X315706250Y-157031250D01*
X317706250Y-157031250D02*
X317706250Y-153131250D01*
%TO.C,D42*%
X222837500Y-137981250D02*
X222837500Y-134081250D01*
X224837500Y-137981250D02*
X222837500Y-137981250D01*
X224837500Y-137981250D02*
X224837500Y-134081250D01*
%TO.C,D45*%
X279987500Y-137981250D02*
X279987500Y-134081250D01*
X281987500Y-137981250D02*
X279987500Y-137981250D01*
X281987500Y-137981250D02*
X281987500Y-134081250D01*
%TO.C,D3*%
X114189000Y-93817000D02*
X114189000Y-89917000D01*
X116189000Y-93817000D02*
X114189000Y-93817000D01*
X116189000Y-93817000D02*
X116189000Y-89917000D01*
%TO.C,D53*%
X118062500Y-157031250D02*
X118062500Y-153131250D01*
X120062500Y-157031250D02*
X118062500Y-157031250D01*
X120062500Y-157031250D02*
X120062500Y-153131250D01*
%TO.C,D66*%
X77581250Y-176081250D02*
X77581250Y-172181250D01*
X79581250Y-176081250D02*
X77581250Y-176081250D01*
X79581250Y-176081250D02*
X79581250Y-172181250D01*
%TO.C,R3*%
X102640400Y-114857559D02*
X102640400Y-115164841D01*
X101880400Y-114857559D02*
X101880400Y-115164841D01*
%TO.C,R4*%
X89437887Y-131708638D02*
X89655168Y-131491357D01*
X89975288Y-132246039D02*
X90192569Y-132028758D01*
%TO.C,D47*%
X318087500Y-137981250D02*
X318087500Y-134081250D01*
X320087500Y-137981250D02*
X318087500Y-137981250D01*
X320087500Y-137981250D02*
X320087500Y-134081250D01*
%TO.C,C13*%
X88060006Y-117924568D02*
X88060006Y-117708896D01*
X88780006Y-117924568D02*
X88780006Y-117708896D01*
%TO.C,D60*%
X251412500Y-157031250D02*
X251412500Y-153131250D01*
X253412500Y-157031250D02*
X251412500Y-157031250D01*
X253412500Y-157031250D02*
X253412500Y-153131250D01*
%TO.C,F1*%
X112263422Y-96064000D02*
X112780578Y-96064000D01*
X112263422Y-97484000D02*
X112780578Y-97484000D01*
%TO.C,D23*%
X179975000Y-118931250D02*
X179975000Y-115031250D01*
X181975000Y-118931250D02*
X179975000Y-118931250D01*
X181975000Y-118931250D02*
X181975000Y-115031250D01*
%TO.C,D6*%
X172450000Y-99881250D02*
X172450000Y-95981250D01*
X172450000Y-99881250D02*
X170450000Y-99881250D01*
X170450000Y-99881250D02*
X170450000Y-95981250D01*
%TO.C,D79*%
X268081250Y-176081250D02*
X268081250Y-172181250D01*
X270081250Y-176081250D02*
X268081250Y-176081250D01*
X270081250Y-176081250D02*
X270081250Y-172181250D01*
%TD*%
M02*
