%TF.GenerationSoftware,KiCad,Pcbnew,7.0.1*%
%TF.CreationDate,2023-04-18T09:41:53+03:00*%
%TF.ProjectId,rp2040-bakeneko65,72703230-3430-42d6-9261-6b656e656b6f,rev?*%
%TF.SameCoordinates,Original*%
%TF.FileFunction,Legend,Top*%
%TF.FilePolarity,Positive*%
%FSLAX46Y46*%
G04 Gerber Fmt 4.6, Leading zero omitted, Abs format (unit mm)*
G04 Created by KiCad (PCBNEW 7.0.1) date 2023-04-18 09:41:53*
%MOMM*%
%LPD*%
G01*
G04 APERTURE LIST*
%ADD10C,0.150000*%
%ADD11C,0.120000*%
G04 APERTURE END LIST*
D10*
%TO.C,J2*%
X61896666Y-137916619D02*
X61896666Y-138630904D01*
X61896666Y-138630904D02*
X61849047Y-138773761D01*
X61849047Y-138773761D02*
X61753809Y-138869000D01*
X61753809Y-138869000D02*
X61610952Y-138916619D01*
X61610952Y-138916619D02*
X61515714Y-138916619D01*
X62325238Y-138011857D02*
X62372857Y-137964238D01*
X62372857Y-137964238D02*
X62468095Y-137916619D01*
X62468095Y-137916619D02*
X62706190Y-137916619D01*
X62706190Y-137916619D02*
X62801428Y-137964238D01*
X62801428Y-137964238D02*
X62849047Y-138011857D01*
X62849047Y-138011857D02*
X62896666Y-138107095D01*
X62896666Y-138107095D02*
X62896666Y-138202333D01*
X62896666Y-138202333D02*
X62849047Y-138345190D01*
X62849047Y-138345190D02*
X62277619Y-138916619D01*
X62277619Y-138916619D02*
X62896666Y-138916619D01*
D11*
X63560000Y-142494000D02*
X63560000Y-152714000D01*
X63560000Y-139894000D02*
X63560000Y-141224000D01*
X62230000Y-139894000D02*
X63560000Y-139894000D01*
X60900000Y-152714000D02*
X63560000Y-152714000D01*
X60900000Y-142494000D02*
X63560000Y-142494000D01*
X60900000Y-142494000D02*
X60900000Y-152714000D01*
%TD*%
M02*
