M48
; DRILL file {KiCad 7.0.2-0} date 2023 May 06, Saturday 19:15:02
; FORMAT={-:-/ absolute / inch / decimal}
; #@! TF.CreationDate,2023-05-06T19:15:02+03:00
; #@! TF.GenerationSoftware,Kicad,Pcbnew,7.0.2-0
; #@! TF.FileFunction,Plated,1,2,PTH
FMAT,2
INCH
; #@! TA.AperFunction,Plated,PTH,ViaDrill
T1C0.0157
; #@! TA.AperFunction,Plated,PTH,ComponentDrill
T2C0.0394
; #@! TA.AperFunction,Plated,PTH,ComponentDrill
T3C0.0600
; #@! TA.AperFunction,Plated,PTH,ComponentDrill
T4C0.1200
%
G90
G05
T1
X2.43Y-6.13
X2.5Y-4.95
X2.5Y-5.7
X2.5Y-5.925
X2.55Y-5.71
X2.55Y-5.8
X2.56Y-4.995
X2.57Y-6.915
X2.59Y-5.345
X2.62Y-4.885
X2.652Y-5.556
X2.66Y-4.905
X2.66Y-5.26
X2.68Y-5.205
X2.685Y-5.295
X2.685Y-5.365
X2.705Y-4.935
X2.72Y-5.275
X2.7282Y-5.5182
X2.74Y-5.4
X2.76Y-5.285
X2.76Y-5.36
X2.818Y-5.422
X2.82Y-5.565
X2.835Y-4.945
X2.85Y-5.275
X2.855Y-5.45
X2.865Y-4.0
X2.865Y-4.09
X2.885Y-5.495
X2.9Y-5.24
X2.915Y-4.125
X2.95Y-3.97
X2.95Y-5.05
X2.97Y-4.0
X2.97Y-4.095
X3.005Y-4.985
X3.01Y-5.49
X3.04Y-5.045
X3.04Y-5.46
X3.075Y-4.59
X3.12Y-5.24
X3.13Y-4.82
X3.17Y-4.525
X3.19Y-4.94
X3.2361Y-4.8035
X3.245Y-5.475
X3.28Y-3.895
X3.305Y-5.225
X3.315Y-4.64
X3.325Y-3.985
X3.365Y-3.865
X3.375Y-3.94
X3.384Y-5.002
X3.3961Y-5.2385
X3.4115Y-5.1419
X3.426Y-4.8767
X3.426Y-4.9167
X3.426Y-4.9567
X3.4511Y-4.7035
X3.466Y-4.8767
X3.466Y-4.9167
X3.466Y-4.9567
X3.486Y-5.1767
X3.506Y-4.8767
X3.506Y-4.9167
X3.506Y-4.9567
X3.5111Y-5.3935
X3.516Y-4.662
X3.5228Y-5.1222
X3.525Y-4.175
X3.545Y-4.835
X3.545Y-4.9985
X3.55Y-4.546
X3.555Y-4.11
X3.57Y-4.225
X3.572Y-4.588
X3.6Y-4.47
X3.62Y-4.18
X3.625Y-4.295
X3.65Y-5.18
X3.695Y-4.235
X3.7161Y-5.3535
X3.74Y-4.79
X3.7408Y-4.9492
X3.86Y-4.01
X3.875Y-5.45
X3.895Y-3.875
X3.928Y-4.754
X3.93Y-4.32
X4.015Y-3.775
X4.03Y-3.85
X4.115Y-3.775
X4.12Y-4.0438
X4.195Y-4.005
X4.205Y-4.115
X4.21Y-5.455
X4.255Y-4.06
X4.37Y-4.065
X4.44Y-4.505
X4.8Y-4.005
X11.56Y-5.38
X11.73Y-5.36
X12.035Y-4.66
X12.275Y-4.66
X12.35Y-4.88
X12.38Y-4.365
X12.38Y-4.465
X12.495Y-3.845
X12.625Y-3.915
X12.725Y-4.585
X13.02Y-5.015
X13.435Y-4.55
T2
X2.45Y-5.56
X2.45Y-5.66
X2.45Y-5.76
X2.45Y-5.86
X2.45Y-5.96
T3
X2.5688Y-3.5562
X2.6625Y-5.0562
X2.6625Y-5.8062
X2.6625Y-6.5562
X2.7563Y-4.3062
X2.7563Y-6.5562
X2.8188Y-3.4562
X2.85Y-5.0562
X2.9125Y-4.9562
X2.9125Y-5.7062
X2.9125Y-6.4562
X3.0063Y-4.2062
X3.0063Y-6.4562
X3.0375Y-5.8062
X3.1Y-4.9562
X3.2875Y-5.7062
X3.3188Y-3.5562
X3.5063Y-5.8062
X3.5688Y-3.4562
X3.6Y-6.5562
X3.6938Y-4.3062
X3.6938Y-6.5562
X3.7563Y-5.7062
X3.85Y-6.4562
X3.8813Y-5.0562
X3.9438Y-4.2062
X3.9438Y-6.4562
X4.0687Y-3.5562
X4.1312Y-4.9562
X4.2562Y-5.8062
X4.3187Y-3.4562
X4.4437Y-4.3062
X4.5062Y-5.7062
X4.5375Y-6.5562
X4.6312Y-5.0562
X4.6312Y-6.5562
X4.6937Y-4.2062
X4.7875Y-6.4562
X4.8187Y-3.5562
X4.8812Y-4.9562
X4.8812Y-6.4562
X5.0062Y-5.8062
X5.0687Y-3.4562
X5.1937Y-4.3062
X5.2562Y-5.7062
X5.3812Y-5.0562
X5.4437Y-4.2062
X5.5687Y-3.5562
X5.6312Y-4.9562
X5.7562Y-5.8062
X5.8187Y-3.4562
X5.9437Y-4.3062
X6.0062Y-5.7062
X6.0375Y-6.5562
X6.1312Y-5.0562
X6.1937Y-4.2062
X6.2875Y-6.4562
X6.3187Y-3.5562
X6.3187Y-6.5562
X6.3812Y-4.9562
X6.5062Y-5.8062
X6.5687Y-3.4562
X6.5687Y-6.4562
X6.6937Y-4.3062
X6.7562Y-5.7062
X6.8812Y-5.0562
X6.9437Y-4.2062
X7.0687Y-3.5562
X7.1312Y-4.9562
X7.2562Y-5.8062
X7.3187Y-3.4562
X7.35Y-6.5562
X7.4437Y-4.3062
X7.5062Y-5.7062
X7.6Y-6.4562
X7.6312Y-5.0562
X7.6312Y-6.5562
X7.6937Y-4.2062
X7.8187Y-3.5562
X7.8187Y-6.5562
X7.8812Y-4.9562
X7.8812Y-6.4562
X8.0062Y-5.8062
X8.0687Y-3.4562
X8.0687Y-6.4562
X8.1937Y-4.3062
X8.2562Y-5.7062
X8.3812Y-5.0562
X8.4437Y-4.2062
X8.5687Y-3.5562
X8.6312Y-4.9562
X8.7562Y-5.8062
X8.8187Y-3.4562
X8.9437Y-4.3062
X9.0062Y-5.7062
X9.1312Y-5.0562
X9.1937Y-4.2062
X9.3187Y-3.5562
X9.3187Y-6.5562
X9.3812Y-4.9562
X9.4125Y-6.5562
X9.5062Y-5.8062
X9.5687Y-3.4562
X9.5687Y-6.4562
X9.6625Y-6.4562
X9.6937Y-4.3062
X9.7562Y-5.7062
X9.8812Y-5.0562
X9.9437Y-4.2062
X10.0687Y-3.5562
X10.1312Y-4.9562
X10.1625Y-6.5562
X10.2562Y-5.8062
X10.3187Y-3.4562
X10.4125Y-6.4562
X10.4437Y-4.3062
X10.5062Y-5.7062
X10.6312Y-5.0562
X10.6937Y-4.2062
X10.8187Y-3.5562
X10.8812Y-4.9562
X11.0062Y-5.8062
X11.0062Y-6.5562
X11.0687Y-3.4562
X11.1Y-6.5562
X11.1937Y-4.3062
X11.2562Y-5.7062
X11.2562Y-6.4562
X11.35Y-6.4562
X11.3812Y-5.0562
X11.4437Y-4.2062
X11.5687Y-3.5562
X11.6312Y-4.9562
X11.8187Y-3.4562
X11.9437Y-4.3062
X12.0375Y-5.8062
X12.1312Y-5.0562
X12.1937Y-4.2062
X12.2875Y-5.7062
X12.3187Y-3.5562
X12.3187Y-6.5562
X12.3812Y-4.9562
X12.5687Y-3.4562
X12.5687Y-6.4562
X12.6Y-5.0562
X12.6937Y-3.5562
X12.85Y-4.9562
X12.8812Y-4.3062
X12.9437Y-3.4562
X12.975Y-4.6812
X13.0687Y-5.8062
X13.0687Y-6.5562
X13.07Y-3.555
X13.1312Y-4.2062
X13.225Y-4.5812
X13.3187Y-5.7062
X13.3187Y-6.4562
X13.32Y-3.455
X13.8187Y-4.3062
X13.8187Y-5.0562
X13.8187Y-5.8062
X13.8187Y-6.5562
X13.82Y-3.555
X14.0687Y-4.2062
X14.0687Y-4.9562
X14.0687Y-5.7062
X14.0687Y-6.4562
X14.07Y-3.455
T4
X2.7188Y-5.6312
X3.6562Y-5.6312
X5.25Y-6.9312
X5.4375Y-6.9312
X5.8125Y-6.9312
X6.0Y-6.9312
X6.9375Y-6.9312
X6.9375Y-6.9312
X7.5Y-6.9312
X8.4375Y-6.9312
X8.7188Y-6.9312
X9.0938Y-6.9312
X9.75Y-6.9312
X9.75Y-6.9312
X10.0312Y-6.9312
X10.2188Y-6.9312
X11.8125Y-4.8812
X12.375Y-3.38
X12.75Y-4.8812
X13.3125Y-3.38
X13.4Y-4.3125
X13.4Y-5.25
T0
M30
