M48
; DRILL file {KiCad 7.0.1} date R 19 mai   2023 17:42:20
; FORMAT={-:-/ absolute / metric / decimal}
; #@! TF.CreationDate,2023-05-19T17:42:20+03:00
; #@! TF.GenerationSoftware,Kicad,Pcbnew,7.0.1
; #@! TF.FileFunction,NonPlated,1,2,NPTH
FMAT,2
METRIC
; #@! TA.AperFunction,NonPlated,NPTH,ComponentDrill
T1C1.750
; #@! TA.AperFunction,NonPlated,NPTH,ComponentDrill
T2C3.988
%
G90
G05
T1
X63.976Y-92.869
X66.358Y-130.969
X66.358Y-150.019
X66.358Y-169.069
X68.739Y-111.919
X68.739Y-169.069
X71.12Y-130.969
X74.136Y-92.869
X75.882Y-150.019
X76.517Y-130.969
X76.517Y-150.019
X76.517Y-169.069
X78.899Y-111.919
X78.899Y-169.069
X81.28Y-130.969
X83.026Y-92.869
X86.042Y-150.019
X87.789Y-150.019
X90.17Y-169.069
X92.551Y-111.919
X92.551Y-169.069
X93.186Y-92.869
X97.314Y-130.969
X97.949Y-150.019
X100.33Y-169.069
X102.076Y-92.869
X102.711Y-111.919
X102.711Y-169.069
X106.839Y-150.019
X107.474Y-130.969
X111.601Y-111.919
X112.236Y-92.869
X113.983Y-169.069
X116.364Y-130.969
X116.364Y-169.069
X116.999Y-150.019
X121.126Y-92.869
X121.761Y-111.919
X124.142Y-169.069
X125.889Y-150.019
X126.524Y-130.969
X126.524Y-169.069
X130.651Y-111.919
X131.286Y-92.869
X135.414Y-130.969
X136.049Y-150.019
X140.176Y-92.869
X140.811Y-111.919
X144.939Y-150.019
X145.574Y-130.969
X149.701Y-111.919
X150.336Y-92.869
X152.082Y-169.069
X154.464Y-130.969
X155.099Y-150.019
X159.226Y-92.869
X159.226Y-169.069
X159.861Y-111.919
X162.243Y-169.069
X163.989Y-150.019
X164.624Y-130.969
X168.751Y-111.919
X169.386Y-92.869
X169.386Y-169.069
X173.514Y-130.969
X174.149Y-150.019
X178.276Y-92.869
X178.911Y-111.919
X183.039Y-150.019
X183.674Y-130.969
X185.42Y-169.069
X187.801Y-111.919
X188.436Y-92.869
X192.564Y-130.969
X192.564Y-169.069
X193.199Y-150.019
X195.58Y-169.069
X197.326Y-92.869
X197.326Y-169.069
X197.961Y-111.919
X202.089Y-150.019
X202.724Y-130.969
X202.724Y-169.069
X206.851Y-111.919
X207.486Y-92.869
X207.486Y-169.069
X211.614Y-130.969
X212.249Y-150.019
X216.376Y-92.869
X217.011Y-111.919
X221.139Y-150.019
X221.774Y-130.969
X225.901Y-111.919
X226.536Y-92.869
X230.664Y-130.969
X231.299Y-150.019
X235.426Y-92.869
X235.426Y-169.069
X236.061Y-111.919
X237.807Y-169.069
X240.189Y-150.019
X240.824Y-130.969
X244.951Y-111.919
X245.586Y-92.869
X245.586Y-169.069
X247.968Y-169.069
X249.714Y-130.969
X250.349Y-150.019
X254.476Y-92.869
X255.111Y-111.919
X256.858Y-169.069
X259.239Y-150.019
X259.874Y-130.969
X264.001Y-111.919
X264.636Y-92.869
X267.017Y-169.069
X268.764Y-130.969
X269.399Y-150.019
X273.526Y-92.869
X274.161Y-111.919
X278.289Y-150.019
X278.289Y-169.069
X278.924Y-130.969
X280.67Y-169.069
X283.051Y-111.919
X283.686Y-92.869
X287.814Y-130.969
X288.449Y-150.019
X288.449Y-169.069
X290.83Y-169.069
X292.576Y-92.869
X293.211Y-111.919
X297.974Y-130.969
X302.101Y-111.919
X302.736Y-92.869
X304.482Y-150.019
X306.864Y-130.969
X311.626Y-92.869
X311.626Y-169.069
X312.261Y-111.919
X314.642Y-150.019
X317.024Y-130.969
X318.77Y-130.969
X321.151Y-92.869
X321.786Y-92.869
X321.786Y-169.069
X325.914Y-111.919
X328.295Y-121.444
X328.93Y-130.969
X330.676Y-150.019
X330.676Y-169.069
X330.708Y-92.837
X331.311Y-92.869
X336.074Y-111.919
X338.455Y-121.444
X340.836Y-150.019
X340.836Y-169.069
X340.868Y-92.837
X349.726Y-111.919
X349.726Y-130.969
X349.726Y-150.019
X349.726Y-169.069
X349.758Y-92.837
X359.886Y-111.919
X359.886Y-130.969
X359.886Y-150.019
X359.886Y-169.069
X359.918Y-92.837
T2
X69.056Y-92.869
X69.056Y-158.274
X71.438Y-130.969
X71.438Y-150.019
X71.438Y-169.069
X73.819Y-111.919
X73.819Y-169.069
X76.2Y-130.969
X80.962Y-150.019
X88.106Y-92.869
X92.869Y-150.019
X92.869Y-158.274
X95.25Y-169.069
X97.631Y-111.919
X97.631Y-169.069
X102.394Y-130.969
X107.156Y-92.869
X111.919Y-150.019
X116.681Y-111.919
X119.062Y-169.069
X121.444Y-130.969
X121.444Y-169.069
X126.206Y-92.869
X130.969Y-150.019
X133.35Y-160.814
X135.731Y-111.919
X138.112Y-160.814
X140.494Y-130.969
X145.256Y-92.869
X147.637Y-160.814
X150.019Y-150.019
X152.4Y-160.814
X154.781Y-111.919
X157.162Y-169.069
X159.544Y-130.969
X164.306Y-92.869
X164.306Y-169.069
X169.069Y-150.019
X173.831Y-111.919
X176.213Y-160.814
X176.213Y-160.814
X178.594Y-130.969
X183.356Y-92.869
X188.119Y-150.019
X190.5Y-160.814
X190.5Y-169.069
X192.881Y-111.919
X197.644Y-130.969
X197.644Y-169.069
X202.406Y-92.869
X202.406Y-169.069
X207.169Y-150.019
X211.931Y-111.919
X214.312Y-160.814
X216.694Y-130.969
X221.456Y-92.869
X221.456Y-160.814
X226.219Y-150.019
X230.981Y-111.919
X230.981Y-160.814
X235.744Y-130.969
X240.506Y-92.869
X240.506Y-169.069
X242.887Y-169.069
X245.269Y-150.019
X247.65Y-160.814
X247.65Y-160.814
X250.031Y-111.919
X254.794Y-130.969
X254.794Y-160.814
X259.556Y-92.869
X259.556Y-160.814
X261.938Y-169.069
X264.319Y-150.019
X269.081Y-111.919
X273.844Y-130.969
X278.606Y-92.869
X283.369Y-150.019
X283.369Y-169.069
X285.75Y-169.069
X288.131Y-111.919
X292.894Y-130.969
X297.656Y-92.869
X300.037Y-139.224
X307.181Y-111.919
X309.562Y-150.019
X311.944Y-130.969
X314.325Y-101.092
X316.706Y-92.869
X316.706Y-169.069
X323.85Y-130.969
X323.85Y-139.224
X325.12Y-109.537
X325.12Y-133.35
X326.231Y-92.869
X330.994Y-111.919
X333.375Y-121.444
X335.756Y-150.019
X335.756Y-169.069
X335.788Y-92.837
X338.137Y-101.092
X354.806Y-111.919
X354.806Y-130.969
X354.806Y-150.019
X354.806Y-169.069
X354.838Y-92.837
T0
M30
