%TF.GenerationSoftware,KiCad,Pcbnew,7.0.2-0*%
%TF.CreationDate,2023-05-06T20:32:24+03:00*%
%TF.ProjectId,rp2040-bakeneko65,72703230-3430-42d6-9261-6b656e656b6f,rev?*%
%TF.SameCoordinates,Original*%
%TF.FileFunction,Drillmap*%
%TF.FilePolarity,Positive*%
%FSLAX45Y45*%
G04 Gerber Fmt 4.5, Leading zero omitted, Abs format (unit mm)*
G04 Created by KiCad (PCBNEW 7.0.2-0) date 2023-05-06 20:32:24*
%MOMM*%
%LPD*%
G01*
G04 APERTURE LIST*
%ADD10C,0.200000*%
%ADD11C,0.175000*%
%ADD12C,0.398780*%
G04 APERTURE END LIST*
D10*
X5964790Y-17551110D02*
G75*
G03*
X6189789Y-17776110I225000J-1D01*
G01*
X29797289Y-15871109D02*
G75*
G03*
X29672289Y-15996109I-9J-124991D01*
G01*
X6189789Y-8356109D02*
G75*
G03*
X5964789Y-8581110I-9J-224991D01*
G01*
X8229600Y-8356113D02*
G75*
G03*
X8096597Y-8436755I-10J-149987D01*
G01*
X29447289Y-17776110D02*
X27755850Y-17776110D01*
X10738729Y-17776110D02*
X6189789Y-17776110D01*
X26931229Y-17776112D02*
G75*
G03*
X27064232Y-17695464I-9J150012D01*
G01*
X32169979Y-17776110D02*
X30954789Y-17776110D01*
X34207982Y-8436755D02*
G75*
G03*
X34766597Y-8436755I279307J145645D01*
G01*
X30729790Y-17551110D02*
G75*
G03*
X30954789Y-17776110I225000J-1D01*
G01*
X36114789Y-17776109D02*
G75*
G03*
X36339789Y-17551110I-9J225009D01*
G01*
X10738729Y-17776112D02*
G75*
G03*
X10871732Y-17695464I-9J150012D01*
G01*
X18967979Y-8436757D02*
G75*
G03*
X18834979Y-8356109I-132999J-69344D01*
G01*
X29797289Y-15871109D02*
X30604789Y-15871109D01*
X26931229Y-17776110D02*
X11563350Y-17776110D01*
X34074979Y-8356109D02*
X19659600Y-8356109D01*
X30729789Y-15996109D02*
X30729789Y-17551110D01*
X18834979Y-8356109D02*
X8229600Y-8356109D01*
X36114789Y-17776110D02*
X32994600Y-17776110D01*
X32861602Y-17695462D02*
G75*
G03*
X32994600Y-17776110I132998J69342D01*
G01*
X36339791Y-8581110D02*
G75*
G03*
X36114789Y-8356109I-225001J-1D01*
G01*
X7537979Y-8436757D02*
G75*
G03*
X7404979Y-8356109I-132999J-69344D01*
G01*
X11430352Y-17695462D02*
G75*
G03*
X11563350Y-17776110I132998J69342D01*
G01*
X32169979Y-17776112D02*
G75*
G03*
X32302982Y-17695464I-9J150012D01*
G01*
X32861597Y-17695464D02*
G75*
G03*
X32302982Y-17695464I-279307J-145645D01*
G01*
X36114789Y-8356109D02*
X34899600Y-8356109D01*
X27622847Y-17695464D02*
G75*
G03*
X27064232Y-17695464I-279307J-145645D01*
G01*
X29672289Y-15996109D02*
X29672289Y-17551110D01*
X30729790Y-15996109D02*
G75*
G03*
X30604789Y-15871109I-125001J-1D01*
G01*
X7537982Y-8436755D02*
G75*
G03*
X8096596Y-8436755I279307J145645D01*
G01*
X12619789Y-10106110D02*
G75*
G03*
X12619789Y-10106110I-50000J0D01*
G01*
X34899600Y-8356113D02*
G75*
G03*
X34766597Y-8436755I-10J-149987D01*
G01*
X11430347Y-17695464D02*
G75*
G03*
X10871732Y-17695464I-279307J-145645D01*
G01*
X18967982Y-8436755D02*
G75*
G03*
X19526597Y-8436755I279307J145645D01*
G01*
X19659600Y-8356113D02*
G75*
G03*
X19526597Y-8436755I-10J-149987D01*
G01*
X36339789Y-17551110D02*
X36339789Y-8581110D01*
X29447289Y-17776109D02*
G75*
G03*
X29672289Y-17551110I-9J225009D01*
G01*
X27622852Y-17695462D02*
G75*
G03*
X27755850Y-17776110I132998J69342D01*
G01*
X34207979Y-8436757D02*
G75*
G03*
X34074979Y-8356109I-132999J-69344D01*
G01*
X7404979Y-8356109D02*
X6189789Y-8356109D01*
X5964789Y-17551110D02*
X5964789Y-8581110D01*
D11*
X6310125Y-9199375D02*
X6485125Y-9374375D01*
X6485125Y-9199375D02*
X6310125Y-9374375D01*
X6548250Y-13009375D02*
X6723250Y-13184375D01*
X6723250Y-13009375D02*
X6548250Y-13184375D01*
X6548250Y-14914375D02*
X6723250Y-15089375D01*
X6723250Y-14914375D02*
X6548250Y-15089375D01*
X6548250Y-16819375D02*
X6723250Y-16994375D01*
X6723250Y-16819375D02*
X6548250Y-16994375D01*
X6786375Y-11104375D02*
X6961375Y-11279375D01*
X6961375Y-11104375D02*
X6786375Y-11279375D01*
X6786375Y-16819375D02*
X6961375Y-16994375D01*
X6961375Y-16819375D02*
X6786375Y-16994375D01*
X7024500Y-13009375D02*
X7199500Y-13184375D01*
X7199500Y-13009375D02*
X7024500Y-13184375D01*
X7326125Y-9199375D02*
X7501125Y-9374375D01*
X7501125Y-9199375D02*
X7326125Y-9374375D01*
X7500750Y-14914375D02*
X7675750Y-15089375D01*
X7675750Y-14914375D02*
X7500750Y-15089375D01*
X7564250Y-13009375D02*
X7739250Y-13184375D01*
X7739250Y-13009375D02*
X7564250Y-13184375D01*
X7564250Y-14914375D02*
X7739250Y-15089375D01*
X7739250Y-14914375D02*
X7564250Y-15089375D01*
X7564250Y-16819375D02*
X7739250Y-16994375D01*
X7739250Y-16819375D02*
X7564250Y-16994375D01*
X7802375Y-11104375D02*
X7977375Y-11279375D01*
X7977375Y-11104375D02*
X7802375Y-11279375D01*
X7802375Y-16819375D02*
X7977375Y-16994375D01*
X7977375Y-16819375D02*
X7802375Y-16994375D01*
X8040500Y-13009375D02*
X8215500Y-13184375D01*
X8215500Y-13009375D02*
X8040500Y-13184375D01*
X8215125Y-9199375D02*
X8390125Y-9374375D01*
X8390125Y-9199375D02*
X8215125Y-9374375D01*
X8516750Y-14914375D02*
X8691750Y-15089375D01*
X8691750Y-14914375D02*
X8516750Y-15089375D01*
X8691375Y-14914375D02*
X8866375Y-15089375D01*
X8866375Y-14914375D02*
X8691375Y-15089375D01*
X8929500Y-16819375D02*
X9104500Y-16994375D01*
X9104500Y-16819375D02*
X8929500Y-16994375D01*
X9167625Y-11104375D02*
X9342625Y-11279375D01*
X9342625Y-11104375D02*
X9167625Y-11279375D01*
X9167625Y-16819375D02*
X9342625Y-16994375D01*
X9342625Y-16819375D02*
X9167625Y-16994375D01*
X9231125Y-9199375D02*
X9406125Y-9374375D01*
X9406125Y-9199375D02*
X9231125Y-9374375D01*
X9643875Y-13009375D02*
X9818875Y-13184375D01*
X9818875Y-13009375D02*
X9643875Y-13184375D01*
X9707375Y-14914375D02*
X9882375Y-15089375D01*
X9882375Y-14914375D02*
X9707375Y-15089375D01*
X9945500Y-16819375D02*
X10120500Y-16994375D01*
X10120500Y-16819375D02*
X9945500Y-16994375D01*
X10120125Y-9199375D02*
X10295125Y-9374375D01*
X10295125Y-9199375D02*
X10120125Y-9374375D01*
X10183625Y-11104375D02*
X10358625Y-11279375D01*
X10358625Y-11104375D02*
X10183625Y-11279375D01*
X10183625Y-16819375D02*
X10358625Y-16994375D01*
X10358625Y-16819375D02*
X10183625Y-16994375D01*
X10596375Y-14914375D02*
X10771375Y-15089375D01*
X10771375Y-14914375D02*
X10596375Y-15089375D01*
X10659875Y-13009375D02*
X10834875Y-13184375D01*
X10834875Y-13009375D02*
X10659875Y-13184375D01*
X11072625Y-11104375D02*
X11247625Y-11279375D01*
X11247625Y-11104375D02*
X11072625Y-11279375D01*
X11136125Y-9199375D02*
X11311125Y-9374375D01*
X11311125Y-9199375D02*
X11136125Y-9374375D01*
X11310750Y-16819375D02*
X11485750Y-16994375D01*
X11485750Y-16819375D02*
X11310750Y-16994375D01*
X11548875Y-13009375D02*
X11723875Y-13184375D01*
X11723875Y-13009375D02*
X11548875Y-13184375D01*
X11548875Y-16819375D02*
X11723875Y-16994375D01*
X11723875Y-16819375D02*
X11548875Y-16994375D01*
X11612375Y-14914375D02*
X11787375Y-15089375D01*
X11787375Y-14914375D02*
X11612375Y-15089375D01*
X12025125Y-9199375D02*
X12200125Y-9374375D01*
X12200125Y-9199375D02*
X12025125Y-9374375D01*
X12088625Y-11104375D02*
X12263625Y-11279375D01*
X12263625Y-11104375D02*
X12088625Y-11279375D01*
X12326750Y-16819375D02*
X12501750Y-16994375D01*
X12501750Y-16819375D02*
X12326750Y-16994375D01*
X12501375Y-14914375D02*
X12676375Y-15089375D01*
X12676375Y-14914375D02*
X12501375Y-15089375D01*
X12564875Y-13009375D02*
X12739875Y-13184375D01*
X12739875Y-13009375D02*
X12564875Y-13184375D01*
X12564875Y-16819375D02*
X12739875Y-16994375D01*
X12739875Y-16819375D02*
X12564875Y-16994375D01*
X12977625Y-11104375D02*
X13152625Y-11279375D01*
X13152625Y-11104375D02*
X12977625Y-11279375D01*
X13041125Y-9199375D02*
X13216125Y-9374375D01*
X13216125Y-9199375D02*
X13041125Y-9374375D01*
X13453875Y-13009375D02*
X13628875Y-13184375D01*
X13628875Y-13009375D02*
X13453875Y-13184375D01*
X13517375Y-14914375D02*
X13692375Y-15089375D01*
X13692375Y-14914375D02*
X13517375Y-15089375D01*
X13930125Y-9199375D02*
X14105125Y-9374375D01*
X14105125Y-9199375D02*
X13930125Y-9374375D01*
X13993625Y-11104375D02*
X14168625Y-11279375D01*
X14168625Y-11104375D02*
X13993625Y-11279375D01*
X14406375Y-14914375D02*
X14581375Y-15089375D01*
X14581375Y-14914375D02*
X14406375Y-15089375D01*
X14469875Y-13009375D02*
X14644875Y-13184375D01*
X14644875Y-13009375D02*
X14469875Y-13184375D01*
X14882625Y-11104375D02*
X15057625Y-11279375D01*
X15057625Y-11104375D02*
X14882625Y-11279375D01*
X14946125Y-9199375D02*
X15121125Y-9374375D01*
X15121125Y-9199375D02*
X14946125Y-9374375D01*
X15120750Y-16819375D02*
X15295750Y-16994375D01*
X15295750Y-16819375D02*
X15120750Y-16994375D01*
X15358875Y-13009375D02*
X15533875Y-13184375D01*
X15533875Y-13009375D02*
X15358875Y-13184375D01*
X15422375Y-14914375D02*
X15597375Y-15089375D01*
X15597375Y-14914375D02*
X15422375Y-15089375D01*
X15835125Y-9199375D02*
X16010125Y-9374375D01*
X16010125Y-9199375D02*
X15835125Y-9374375D01*
X15835125Y-16819375D02*
X16010125Y-16994375D01*
X16010125Y-16819375D02*
X15835125Y-16994375D01*
X15898625Y-11104375D02*
X16073625Y-11279375D01*
X16073625Y-11104375D02*
X15898625Y-11279375D01*
X16136750Y-16819375D02*
X16311750Y-16994375D01*
X16311750Y-16819375D02*
X16136750Y-16994375D01*
X16311375Y-14914375D02*
X16486375Y-15089375D01*
X16486375Y-14914375D02*
X16311375Y-15089375D01*
X16374875Y-13009375D02*
X16549875Y-13184375D01*
X16549875Y-13009375D02*
X16374875Y-13184375D01*
X16787625Y-11104375D02*
X16962625Y-11279375D01*
X16962625Y-11104375D02*
X16787625Y-11279375D01*
X16851125Y-9199375D02*
X17026125Y-9374375D01*
X17026125Y-9199375D02*
X16851125Y-9374375D01*
X16851125Y-16819375D02*
X17026125Y-16994375D01*
X17026125Y-16819375D02*
X16851125Y-16994375D01*
X17263875Y-13009375D02*
X17438875Y-13184375D01*
X17438875Y-13009375D02*
X17263875Y-13184375D01*
X17327375Y-14914375D02*
X17502375Y-15089375D01*
X17502375Y-14914375D02*
X17327375Y-15089375D01*
X17740125Y-9199375D02*
X17915125Y-9374375D01*
X17915125Y-9199375D02*
X17740125Y-9374375D01*
X17803625Y-11104375D02*
X17978625Y-11279375D01*
X17978625Y-11104375D02*
X17803625Y-11279375D01*
X18216375Y-14914375D02*
X18391375Y-15089375D01*
X18391375Y-14914375D02*
X18216375Y-15089375D01*
X18279875Y-13009375D02*
X18454875Y-13184375D01*
X18454875Y-13009375D02*
X18279875Y-13184375D01*
X18454500Y-16819375D02*
X18629500Y-16994375D01*
X18629500Y-16819375D02*
X18454500Y-16994375D01*
X18692625Y-11104375D02*
X18867625Y-11279375D01*
X18867625Y-11104375D02*
X18692625Y-11279375D01*
X18756125Y-9199375D02*
X18931125Y-9374375D01*
X18931125Y-9199375D02*
X18756125Y-9374375D01*
X19168875Y-13009375D02*
X19343875Y-13184375D01*
X19343875Y-13009375D02*
X19168875Y-13184375D01*
X19168875Y-16819375D02*
X19343875Y-16994375D01*
X19343875Y-16819375D02*
X19168875Y-16994375D01*
X19232375Y-14914375D02*
X19407375Y-15089375D01*
X19407375Y-14914375D02*
X19232375Y-15089375D01*
X19470500Y-16819375D02*
X19645500Y-16994375D01*
X19645500Y-16819375D02*
X19470500Y-16994375D01*
X19645125Y-9199375D02*
X19820125Y-9374375D01*
X19820125Y-9199375D02*
X19645125Y-9374375D01*
X19645125Y-16819375D02*
X19820125Y-16994375D01*
X19820125Y-16819375D02*
X19645125Y-16994375D01*
X19708625Y-11104375D02*
X19883625Y-11279375D01*
X19883625Y-11104375D02*
X19708625Y-11279375D01*
X20121375Y-14914375D02*
X20296375Y-15089375D01*
X20296375Y-14914375D02*
X20121375Y-15089375D01*
X20184875Y-13009375D02*
X20359875Y-13184375D01*
X20359875Y-13009375D02*
X20184875Y-13184375D01*
X20184875Y-16819375D02*
X20359875Y-16994375D01*
X20359875Y-16819375D02*
X20184875Y-16994375D01*
X20597625Y-11104375D02*
X20772625Y-11279375D01*
X20772625Y-11104375D02*
X20597625Y-11279375D01*
X20661125Y-9199375D02*
X20836125Y-9374375D01*
X20836125Y-9199375D02*
X20661125Y-9374375D01*
X20661125Y-16819375D02*
X20836125Y-16994375D01*
X20836125Y-16819375D02*
X20661125Y-16994375D01*
X21073875Y-13009375D02*
X21248875Y-13184375D01*
X21248875Y-13009375D02*
X21073875Y-13184375D01*
X21137375Y-14914375D02*
X21312375Y-15089375D01*
X21312375Y-14914375D02*
X21137375Y-15089375D01*
X21550125Y-9199375D02*
X21725125Y-9374375D01*
X21725125Y-9199375D02*
X21550125Y-9374375D01*
X21613625Y-11104375D02*
X21788625Y-11279375D01*
X21788625Y-11104375D02*
X21613625Y-11279375D01*
X22026375Y-14914375D02*
X22201375Y-15089375D01*
X22201375Y-14914375D02*
X22026375Y-15089375D01*
X22089875Y-13009375D02*
X22264875Y-13184375D01*
X22264875Y-13009375D02*
X22089875Y-13184375D01*
X22502625Y-11104375D02*
X22677625Y-11279375D01*
X22677625Y-11104375D02*
X22502625Y-11279375D01*
X22566125Y-9199375D02*
X22741125Y-9374375D01*
X22741125Y-9199375D02*
X22566125Y-9374375D01*
X22978875Y-13009375D02*
X23153875Y-13184375D01*
X23153875Y-13009375D02*
X22978875Y-13184375D01*
X23042375Y-14914375D02*
X23217375Y-15089375D01*
X23217375Y-14914375D02*
X23042375Y-15089375D01*
X23455125Y-9199375D02*
X23630125Y-9374375D01*
X23630125Y-9199375D02*
X23455125Y-9374375D01*
X23455125Y-16819375D02*
X23630125Y-16994375D01*
X23630125Y-16819375D02*
X23455125Y-16994375D01*
X23518625Y-11104375D02*
X23693625Y-11279375D01*
X23693625Y-11104375D02*
X23518625Y-11279375D01*
X23693250Y-16819375D02*
X23868250Y-16994375D01*
X23868250Y-16819375D02*
X23693250Y-16994375D01*
X23931375Y-14914375D02*
X24106375Y-15089375D01*
X24106375Y-14914375D02*
X23931375Y-15089375D01*
X23994875Y-13009375D02*
X24169875Y-13184375D01*
X24169875Y-13009375D02*
X23994875Y-13184375D01*
X24407625Y-11104375D02*
X24582625Y-11279375D01*
X24582625Y-11104375D02*
X24407625Y-11279375D01*
X24471125Y-9199375D02*
X24646125Y-9374375D01*
X24646125Y-9199375D02*
X24471125Y-9374375D01*
X24471125Y-16819375D02*
X24646125Y-16994375D01*
X24646125Y-16819375D02*
X24471125Y-16994375D01*
X24709250Y-16819375D02*
X24884250Y-16994375D01*
X24884250Y-16819375D02*
X24709250Y-16994375D01*
X24883875Y-13009375D02*
X25058875Y-13184375D01*
X25058875Y-13009375D02*
X24883875Y-13184375D01*
X24947375Y-14914375D02*
X25122375Y-15089375D01*
X25122375Y-14914375D02*
X24947375Y-15089375D01*
X25360125Y-9199375D02*
X25535125Y-9374375D01*
X25535125Y-9199375D02*
X25360125Y-9374375D01*
X25423625Y-11104375D02*
X25598625Y-11279375D01*
X25598625Y-11104375D02*
X25423625Y-11279375D01*
X25598250Y-16819375D02*
X25773250Y-16994375D01*
X25773250Y-16819375D02*
X25598250Y-16994375D01*
X25836375Y-14914375D02*
X26011375Y-15089375D01*
X26011375Y-14914375D02*
X25836375Y-15089375D01*
X25899875Y-13009375D02*
X26074875Y-13184375D01*
X26074875Y-13009375D02*
X25899875Y-13184375D01*
X26312625Y-11104375D02*
X26487625Y-11279375D01*
X26487625Y-11104375D02*
X26312625Y-11279375D01*
X26376125Y-9199375D02*
X26551125Y-9374375D01*
X26551125Y-9199375D02*
X26376125Y-9374375D01*
X26614250Y-16819375D02*
X26789250Y-16994375D01*
X26789250Y-16819375D02*
X26614250Y-16994375D01*
X26788875Y-13009375D02*
X26963875Y-13184375D01*
X26963875Y-13009375D02*
X26788875Y-13184375D01*
X26852375Y-14914375D02*
X27027375Y-15089375D01*
X27027375Y-14914375D02*
X26852375Y-15089375D01*
X27265125Y-9199375D02*
X27440125Y-9374375D01*
X27440125Y-9199375D02*
X27265125Y-9374375D01*
X27328625Y-11104375D02*
X27503625Y-11279375D01*
X27503625Y-11104375D02*
X27328625Y-11279375D01*
X27741375Y-14914375D02*
X27916375Y-15089375D01*
X27916375Y-14914375D02*
X27741375Y-15089375D01*
X27741375Y-16819375D02*
X27916375Y-16994375D01*
X27916375Y-16819375D02*
X27741375Y-16994375D01*
X27804875Y-13009375D02*
X27979875Y-13184375D01*
X27979875Y-13009375D02*
X27804875Y-13184375D01*
X27979500Y-16819375D02*
X28154500Y-16994375D01*
X28154500Y-16819375D02*
X27979500Y-16994375D01*
X28217625Y-11104375D02*
X28392625Y-11279375D01*
X28392625Y-11104375D02*
X28217625Y-11279375D01*
X28281125Y-9199375D02*
X28456125Y-9374375D01*
X28456125Y-9199375D02*
X28281125Y-9374375D01*
X28693875Y-13009375D02*
X28868875Y-13184375D01*
X28868875Y-13009375D02*
X28693875Y-13184375D01*
X28757375Y-14914375D02*
X28932375Y-15089375D01*
X28932375Y-14914375D02*
X28757375Y-15089375D01*
X28757375Y-16819375D02*
X28932375Y-16994375D01*
X28932375Y-16819375D02*
X28757375Y-16994375D01*
X28995500Y-16819375D02*
X29170500Y-16994375D01*
X29170500Y-16819375D02*
X28995500Y-16994375D01*
X29170125Y-9199375D02*
X29345125Y-9374375D01*
X29345125Y-9199375D02*
X29170125Y-9374375D01*
X29233625Y-11104375D02*
X29408625Y-11279375D01*
X29408625Y-11104375D02*
X29233625Y-11279375D01*
X29709875Y-13009375D02*
X29884875Y-13184375D01*
X29884875Y-13009375D02*
X29709875Y-13184375D01*
X30122625Y-11104375D02*
X30297625Y-11279375D01*
X30297625Y-11104375D02*
X30122625Y-11279375D01*
X30186125Y-9199375D02*
X30361125Y-9374375D01*
X30361125Y-9199375D02*
X30186125Y-9374375D01*
X30360750Y-14914375D02*
X30535750Y-15089375D01*
X30535750Y-14914375D02*
X30360750Y-15089375D01*
X30598875Y-13009375D02*
X30773875Y-13184375D01*
X30773875Y-13009375D02*
X30598875Y-13184375D01*
X31075125Y-9199375D02*
X31250125Y-9374375D01*
X31250125Y-9199375D02*
X31075125Y-9374375D01*
X31075125Y-16819375D02*
X31250125Y-16994375D01*
X31250125Y-16819375D02*
X31075125Y-16994375D01*
X31138625Y-11104375D02*
X31313625Y-11279375D01*
X31313625Y-11104375D02*
X31138625Y-11279375D01*
X31376750Y-14914375D02*
X31551750Y-15089375D01*
X31551750Y-14914375D02*
X31376750Y-15089375D01*
X31614875Y-13009375D02*
X31789875Y-13184375D01*
X31789875Y-13009375D02*
X31614875Y-13184375D01*
X31789500Y-13009375D02*
X31964500Y-13184375D01*
X31964500Y-13009375D02*
X31789500Y-13184375D01*
X32027625Y-9199375D02*
X32202625Y-9374375D01*
X32202625Y-9199375D02*
X32027625Y-9374375D01*
X32091125Y-9199375D02*
X32266125Y-9374375D01*
X32266125Y-9199375D02*
X32091125Y-9374375D01*
X32091125Y-16819375D02*
X32266125Y-16994375D01*
X32266125Y-16819375D02*
X32091125Y-16994375D01*
X32503875Y-11104375D02*
X32678875Y-11279375D01*
X32678875Y-11104375D02*
X32503875Y-11279375D01*
X32742000Y-12056875D02*
X32917000Y-12231875D01*
X32917000Y-12056875D02*
X32742000Y-12231875D01*
X32805500Y-13009375D02*
X32980500Y-13184375D01*
X32980500Y-13009375D02*
X32805500Y-13184375D01*
X32980125Y-14914375D02*
X33155125Y-15089375D01*
X33155125Y-14914375D02*
X32980125Y-15089375D01*
X32980125Y-16819375D02*
X33155125Y-16994375D01*
X33155125Y-16819375D02*
X32980125Y-16994375D01*
X32983300Y-9196200D02*
X33158300Y-9371200D01*
X33158300Y-9196200D02*
X32983300Y-9371200D01*
X33043625Y-9199375D02*
X33218625Y-9374375D01*
X33218625Y-9199375D02*
X33043625Y-9374375D01*
X33519875Y-11104375D02*
X33694875Y-11279375D01*
X33694875Y-11104375D02*
X33519875Y-11279375D01*
X33758000Y-12056875D02*
X33933000Y-12231875D01*
X33933000Y-12056875D02*
X33758000Y-12231875D01*
X33996125Y-14914375D02*
X34171125Y-15089375D01*
X34171125Y-14914375D02*
X33996125Y-15089375D01*
X33996125Y-16819375D02*
X34171125Y-16994375D01*
X34171125Y-16819375D02*
X33996125Y-16994375D01*
X33999300Y-9196200D02*
X34174300Y-9371200D01*
X34174300Y-9196200D02*
X33999300Y-9371200D01*
X34885125Y-11104375D02*
X35060125Y-11279375D01*
X35060125Y-11104375D02*
X34885125Y-11279375D01*
X34885125Y-13009375D02*
X35060125Y-13184375D01*
X35060125Y-13009375D02*
X34885125Y-13184375D01*
X34885125Y-14914375D02*
X35060125Y-15089375D01*
X35060125Y-14914375D02*
X34885125Y-15089375D01*
X34885125Y-16819375D02*
X35060125Y-16994375D01*
X35060125Y-16819375D02*
X34885125Y-16994375D01*
X34888300Y-9196200D02*
X35063300Y-9371200D01*
X35063300Y-9196200D02*
X34888300Y-9371200D01*
X35901125Y-11104375D02*
X36076125Y-11279375D01*
X36076125Y-11104375D02*
X35901125Y-11279375D01*
X35901125Y-13009375D02*
X36076125Y-13184375D01*
X36076125Y-13009375D02*
X35901125Y-13184375D01*
X35901125Y-14914375D02*
X36076125Y-15089375D01*
X36076125Y-14914375D02*
X35901125Y-15089375D01*
X35901125Y-16819375D02*
X36076125Y-16994375D01*
X36076125Y-16819375D02*
X35901125Y-16994375D01*
X35904300Y-9196200D02*
X36079300Y-9371200D01*
X36079300Y-9196200D02*
X35904300Y-9371200D01*
D12*
X7105015Y-9286875D02*
G75*
G03*
X7105015Y-9286875I-199390J0D01*
G01*
X7105015Y-15827375D02*
G75*
G03*
X7105015Y-15827375I-199390J0D01*
G01*
X7343140Y-13096875D02*
G75*
G03*
X7343140Y-13096875I-199390J0D01*
G01*
X7343140Y-15001875D02*
G75*
G03*
X7343140Y-15001875I-199390J0D01*
G01*
X7343140Y-16906875D02*
G75*
G03*
X7343140Y-16906875I-199390J0D01*
G01*
X7581265Y-11191875D02*
G75*
G03*
X7581265Y-11191875I-199390J0D01*
G01*
X7581265Y-16906875D02*
G75*
G03*
X7581265Y-16906875I-199390J0D01*
G01*
X7819390Y-13096875D02*
G75*
G03*
X7819390Y-13096875I-199390J0D01*
G01*
X8295640Y-15001875D02*
G75*
G03*
X8295640Y-15001875I-199390J0D01*
G01*
X9010015Y-9286875D02*
G75*
G03*
X9010015Y-9286875I-199390J0D01*
G01*
X9486265Y-15001875D02*
G75*
G03*
X9486265Y-15001875I-199390J0D01*
G01*
X9486265Y-15827375D02*
G75*
G03*
X9486265Y-15827375I-199390J0D01*
G01*
X9724390Y-16906875D02*
G75*
G03*
X9724390Y-16906875I-199390J0D01*
G01*
X9962515Y-11191875D02*
G75*
G03*
X9962515Y-11191875I-199390J0D01*
G01*
X9962515Y-16906875D02*
G75*
G03*
X9962515Y-16906875I-199390J0D01*
G01*
X10438765Y-13096875D02*
G75*
G03*
X10438765Y-13096875I-199390J0D01*
G01*
X10915015Y-9286875D02*
G75*
G03*
X10915015Y-9286875I-199390J0D01*
G01*
X11391265Y-15001875D02*
G75*
G03*
X11391265Y-15001875I-199390J0D01*
G01*
X11867515Y-11191875D02*
G75*
G03*
X11867515Y-11191875I-199390J0D01*
G01*
X12105640Y-16906875D02*
G75*
G03*
X12105640Y-16906875I-199390J0D01*
G01*
X12343765Y-13096875D02*
G75*
G03*
X12343765Y-13096875I-199390J0D01*
G01*
X12343765Y-16906875D02*
G75*
G03*
X12343765Y-16906875I-199390J0D01*
G01*
X12820015Y-9286875D02*
G75*
G03*
X12820015Y-9286875I-199390J0D01*
G01*
X13296265Y-15001875D02*
G75*
G03*
X13296265Y-15001875I-199390J0D01*
G01*
X13534390Y-16081375D02*
G75*
G03*
X13534390Y-16081375I-199390J0D01*
G01*
X13772515Y-11191875D02*
G75*
G03*
X13772515Y-11191875I-199390J0D01*
G01*
X14010640Y-16081375D02*
G75*
G03*
X14010640Y-16081375I-199390J0D01*
G01*
X14248765Y-13096875D02*
G75*
G03*
X14248765Y-13096875I-199390J0D01*
G01*
X14725015Y-9286875D02*
G75*
G03*
X14725015Y-9286875I-199390J0D01*
G01*
X14963140Y-16081375D02*
G75*
G03*
X14963140Y-16081375I-199390J0D01*
G01*
X15201265Y-15001875D02*
G75*
G03*
X15201265Y-15001875I-199390J0D01*
G01*
X15439390Y-16081375D02*
G75*
G03*
X15439390Y-16081375I-199390J0D01*
G01*
X15677515Y-11191875D02*
G75*
G03*
X15677515Y-11191875I-199390J0D01*
G01*
X15915640Y-16906875D02*
G75*
G03*
X15915640Y-16906875I-199390J0D01*
G01*
X16153765Y-13096875D02*
G75*
G03*
X16153765Y-13096875I-199390J0D01*
G01*
X16630015Y-9286875D02*
G75*
G03*
X16630015Y-9286875I-199390J0D01*
G01*
X16630015Y-16906875D02*
G75*
G03*
X16630015Y-16906875I-199390J0D01*
G01*
X17106265Y-15001875D02*
G75*
G03*
X17106265Y-15001875I-199390J0D01*
G01*
X17582515Y-11191875D02*
G75*
G03*
X17582515Y-11191875I-199390J0D01*
G01*
X17820640Y-16081375D02*
G75*
G03*
X17820640Y-16081375I-199390J0D01*
G01*
X17820640Y-16081375D02*
G75*
G03*
X17820640Y-16081375I-199390J0D01*
G01*
X18058765Y-13096875D02*
G75*
G03*
X18058765Y-13096875I-199390J0D01*
G01*
X18535015Y-9286875D02*
G75*
G03*
X18535015Y-9286875I-199390J0D01*
G01*
X19011265Y-15001875D02*
G75*
G03*
X19011265Y-15001875I-199390J0D01*
G01*
X19249390Y-16081375D02*
G75*
G03*
X19249390Y-16081375I-199390J0D01*
G01*
X19249390Y-16906875D02*
G75*
G03*
X19249390Y-16906875I-199390J0D01*
G01*
X19487515Y-11191875D02*
G75*
G03*
X19487515Y-11191875I-199390J0D01*
G01*
X19963765Y-13096875D02*
G75*
G03*
X19963765Y-13096875I-199390J0D01*
G01*
X19963765Y-16906875D02*
G75*
G03*
X19963765Y-16906875I-199390J0D01*
G01*
X20440015Y-9286875D02*
G75*
G03*
X20440015Y-9286875I-199390J0D01*
G01*
X20440015Y-16906875D02*
G75*
G03*
X20440015Y-16906875I-199390J0D01*
G01*
X20916265Y-15001875D02*
G75*
G03*
X20916265Y-15001875I-199390J0D01*
G01*
X21392515Y-11191875D02*
G75*
G03*
X21392515Y-11191875I-199390J0D01*
G01*
X21630640Y-16081375D02*
G75*
G03*
X21630640Y-16081375I-199390J0D01*
G01*
X21868765Y-13096875D02*
G75*
G03*
X21868765Y-13096875I-199390J0D01*
G01*
X22345015Y-9286875D02*
G75*
G03*
X22345015Y-9286875I-199390J0D01*
G01*
X22345015Y-16081375D02*
G75*
G03*
X22345015Y-16081375I-199390J0D01*
G01*
X22821265Y-15001875D02*
G75*
G03*
X22821265Y-15001875I-199390J0D01*
G01*
X23297515Y-11191875D02*
G75*
G03*
X23297515Y-11191875I-199390J0D01*
G01*
X23297515Y-16081375D02*
G75*
G03*
X23297515Y-16081375I-199390J0D01*
G01*
X23773765Y-13096875D02*
G75*
G03*
X23773765Y-13096875I-199390J0D01*
G01*
X24250015Y-9286875D02*
G75*
G03*
X24250015Y-9286875I-199390J0D01*
G01*
X24250015Y-16906875D02*
G75*
G03*
X24250015Y-16906875I-199390J0D01*
G01*
X24488140Y-16906875D02*
G75*
G03*
X24488140Y-16906875I-199390J0D01*
G01*
X24726265Y-15001875D02*
G75*
G03*
X24726265Y-15001875I-199390J0D01*
G01*
X24964390Y-16081375D02*
G75*
G03*
X24964390Y-16081375I-199390J0D01*
G01*
X24964390Y-16081375D02*
G75*
G03*
X24964390Y-16081375I-199390J0D01*
G01*
X25202515Y-11191875D02*
G75*
G03*
X25202515Y-11191875I-199390J0D01*
G01*
X25678765Y-13096875D02*
G75*
G03*
X25678765Y-13096875I-199390J0D01*
G01*
X25678765Y-16081375D02*
G75*
G03*
X25678765Y-16081375I-199390J0D01*
G01*
X26155015Y-9286875D02*
G75*
G03*
X26155015Y-9286875I-199390J0D01*
G01*
X26155015Y-16081375D02*
G75*
G03*
X26155015Y-16081375I-199390J0D01*
G01*
X26393140Y-16906875D02*
G75*
G03*
X26393140Y-16906875I-199390J0D01*
G01*
X26631265Y-15001875D02*
G75*
G03*
X26631265Y-15001875I-199390J0D01*
G01*
X27107515Y-11191875D02*
G75*
G03*
X27107515Y-11191875I-199390J0D01*
G01*
X27583765Y-13096875D02*
G75*
G03*
X27583765Y-13096875I-199390J0D01*
G01*
X28060015Y-9286875D02*
G75*
G03*
X28060015Y-9286875I-199390J0D01*
G01*
X28536265Y-15001875D02*
G75*
G03*
X28536265Y-15001875I-199390J0D01*
G01*
X28536265Y-16906875D02*
G75*
G03*
X28536265Y-16906875I-199390J0D01*
G01*
X28774390Y-16906875D02*
G75*
G03*
X28774390Y-16906875I-199390J0D01*
G01*
X29012515Y-11191875D02*
G75*
G03*
X29012515Y-11191875I-199390J0D01*
G01*
X29488765Y-13096875D02*
G75*
G03*
X29488765Y-13096875I-199390J0D01*
G01*
X29965015Y-9286875D02*
G75*
G03*
X29965015Y-9286875I-199390J0D01*
G01*
X30203140Y-13922375D02*
G75*
G03*
X30203140Y-13922375I-199390J0D01*
G01*
X30917515Y-11191875D02*
G75*
G03*
X30917515Y-11191875I-199390J0D01*
G01*
X31155640Y-15001875D02*
G75*
G03*
X31155640Y-15001875I-199390J0D01*
G01*
X31393765Y-13096875D02*
G75*
G03*
X31393765Y-13096875I-199390J0D01*
G01*
X31631890Y-10109200D02*
G75*
G03*
X31631890Y-10109200I-199390J0D01*
G01*
X31870015Y-9286875D02*
G75*
G03*
X31870015Y-9286875I-199390J0D01*
G01*
X31870015Y-16906875D02*
G75*
G03*
X31870015Y-16906875I-199390J0D01*
G01*
X32584390Y-13096875D02*
G75*
G03*
X32584390Y-13096875I-199390J0D01*
G01*
X32584390Y-13922375D02*
G75*
G03*
X32584390Y-13922375I-199390J0D01*
G01*
X32711390Y-10953750D02*
G75*
G03*
X32711390Y-10953750I-199390J0D01*
G01*
X32711390Y-13335000D02*
G75*
G03*
X32711390Y-13335000I-199390J0D01*
G01*
X32822515Y-9286875D02*
G75*
G03*
X32822515Y-9286875I-199390J0D01*
G01*
X33298765Y-11191875D02*
G75*
G03*
X33298765Y-11191875I-199390J0D01*
G01*
X33536890Y-12144375D02*
G75*
G03*
X33536890Y-12144375I-199390J0D01*
G01*
X33775015Y-15001875D02*
G75*
G03*
X33775015Y-15001875I-199390J0D01*
G01*
X33775015Y-16906875D02*
G75*
G03*
X33775015Y-16906875I-199390J0D01*
G01*
X33778190Y-9283700D02*
G75*
G03*
X33778190Y-9283700I-199390J0D01*
G01*
X34013140Y-10109200D02*
G75*
G03*
X34013140Y-10109200I-199390J0D01*
G01*
X35680015Y-11191875D02*
G75*
G03*
X35680015Y-11191875I-199390J0D01*
G01*
X35680015Y-13096875D02*
G75*
G03*
X35680015Y-13096875I-199390J0D01*
G01*
X35680015Y-15001875D02*
G75*
G03*
X35680015Y-15001875I-199390J0D01*
G01*
X35680015Y-16906875D02*
G75*
G03*
X35680015Y-16906875I-199390J0D01*
G01*
X35683190Y-9283700D02*
G75*
G03*
X35683190Y-9283700I-199390J0D01*
G01*
D10*
X6202408Y-18098633D02*
X6202408Y-17898633D01*
X6202408Y-17898633D02*
X6250027Y-17898633D01*
X6250027Y-17898633D02*
X6278599Y-17908157D01*
X6278599Y-17908157D02*
X6297646Y-17927205D01*
X6297646Y-17927205D02*
X6307170Y-17946252D01*
X6307170Y-17946252D02*
X6316694Y-17984348D01*
X6316694Y-17984348D02*
X6316694Y-18012919D01*
X6316694Y-18012919D02*
X6307170Y-18051014D01*
X6307170Y-18051014D02*
X6297646Y-18070062D01*
X6297646Y-18070062D02*
X6278599Y-18089110D01*
X6278599Y-18089110D02*
X6250027Y-18098633D01*
X6250027Y-18098633D02*
X6202408Y-18098633D01*
X6402408Y-18098633D02*
X6402408Y-17965300D01*
X6402408Y-18003395D02*
X6411932Y-17984348D01*
X6411932Y-17984348D02*
X6421456Y-17974824D01*
X6421456Y-17974824D02*
X6440504Y-17965300D01*
X6440504Y-17965300D02*
X6459551Y-17965300D01*
X6526218Y-18098633D02*
X6526218Y-17965300D01*
X6526218Y-17898633D02*
X6516694Y-17908157D01*
X6516694Y-17908157D02*
X6526218Y-17917681D01*
X6526218Y-17917681D02*
X6535742Y-17908157D01*
X6535742Y-17908157D02*
X6526218Y-17898633D01*
X6526218Y-17898633D02*
X6526218Y-17917681D01*
X6650027Y-18098633D02*
X6630980Y-18089110D01*
X6630980Y-18089110D02*
X6621456Y-18070062D01*
X6621456Y-18070062D02*
X6621456Y-17898633D01*
X6754789Y-18098633D02*
X6735742Y-18089110D01*
X6735742Y-18089110D02*
X6726218Y-18070062D01*
X6726218Y-18070062D02*
X6726218Y-17898633D01*
X6983361Y-18098633D02*
X6983361Y-17898633D01*
X6983361Y-17898633D02*
X7050027Y-18041490D01*
X7050027Y-18041490D02*
X7116694Y-17898633D01*
X7116694Y-17898633D02*
X7116694Y-18098633D01*
X7297646Y-18098633D02*
X7297646Y-17993871D01*
X7297646Y-17993871D02*
X7288123Y-17974824D01*
X7288123Y-17974824D02*
X7269075Y-17965300D01*
X7269075Y-17965300D02*
X7230980Y-17965300D01*
X7230980Y-17965300D02*
X7211932Y-17974824D01*
X7297646Y-18089110D02*
X7278599Y-18098633D01*
X7278599Y-18098633D02*
X7230980Y-18098633D01*
X7230980Y-18098633D02*
X7211932Y-18089110D01*
X7211932Y-18089110D02*
X7202408Y-18070062D01*
X7202408Y-18070062D02*
X7202408Y-18051014D01*
X7202408Y-18051014D02*
X7211932Y-18031967D01*
X7211932Y-18031967D02*
X7230980Y-18022443D01*
X7230980Y-18022443D02*
X7278599Y-18022443D01*
X7278599Y-18022443D02*
X7297646Y-18012919D01*
X7392885Y-17965300D02*
X7392885Y-18165300D01*
X7392885Y-17974824D02*
X7411932Y-17965300D01*
X7411932Y-17965300D02*
X7450027Y-17965300D01*
X7450027Y-17965300D02*
X7469075Y-17974824D01*
X7469075Y-17974824D02*
X7478599Y-17984348D01*
X7478599Y-17984348D02*
X7488123Y-18003395D01*
X7488123Y-18003395D02*
X7488123Y-18060538D01*
X7488123Y-18060538D02*
X7478599Y-18079586D01*
X7478599Y-18079586D02*
X7469075Y-18089110D01*
X7469075Y-18089110D02*
X7450027Y-18098633D01*
X7450027Y-18098633D02*
X7411932Y-18098633D01*
X7411932Y-18098633D02*
X7392885Y-18089110D01*
X7573837Y-18079586D02*
X7583361Y-18089110D01*
X7583361Y-18089110D02*
X7573837Y-18098633D01*
X7573837Y-18098633D02*
X7564313Y-18089110D01*
X7564313Y-18089110D02*
X7573837Y-18079586D01*
X7573837Y-18079586D02*
X7573837Y-18098633D01*
X7573837Y-17974824D02*
X7583361Y-17984348D01*
X7583361Y-17984348D02*
X7573837Y-17993871D01*
X7573837Y-17993871D02*
X7564313Y-17984348D01*
X7564313Y-17984348D02*
X7573837Y-17974824D01*
X7573837Y-17974824D02*
X7573837Y-17993871D01*
D11*
X5779789Y-18338610D02*
X5954789Y-18513610D01*
X5954789Y-18338610D02*
X5779789Y-18513610D01*
D10*
X6307170Y-18518633D02*
X6192885Y-18518633D01*
X6250027Y-18518633D02*
X6250027Y-18318633D01*
X6250027Y-18318633D02*
X6230980Y-18347205D01*
X6230980Y-18347205D02*
X6211932Y-18366252D01*
X6211932Y-18366252D02*
X6192885Y-18375776D01*
X6392885Y-18499586D02*
X6402408Y-18509110D01*
X6402408Y-18509110D02*
X6392885Y-18518633D01*
X6392885Y-18518633D02*
X6383361Y-18509110D01*
X6383361Y-18509110D02*
X6392885Y-18499586D01*
X6392885Y-18499586D02*
X6392885Y-18518633D01*
X6469075Y-18318633D02*
X6602408Y-18318633D01*
X6602408Y-18318633D02*
X6516694Y-18518633D01*
X6773837Y-18318633D02*
X6678599Y-18318633D01*
X6678599Y-18318633D02*
X6669075Y-18413871D01*
X6669075Y-18413871D02*
X6678599Y-18404348D01*
X6678599Y-18404348D02*
X6697646Y-18394824D01*
X6697646Y-18394824D02*
X6745266Y-18394824D01*
X6745266Y-18394824D02*
X6764313Y-18404348D01*
X6764313Y-18404348D02*
X6773837Y-18413871D01*
X6773837Y-18413871D02*
X6783361Y-18432919D01*
X6783361Y-18432919D02*
X6783361Y-18480538D01*
X6783361Y-18480538D02*
X6773837Y-18499586D01*
X6773837Y-18499586D02*
X6764313Y-18509110D01*
X6764313Y-18509110D02*
X6745266Y-18518633D01*
X6745266Y-18518633D02*
X6697646Y-18518633D01*
X6697646Y-18518633D02*
X6678599Y-18509110D01*
X6678599Y-18509110D02*
X6669075Y-18499586D01*
X6907170Y-18318633D02*
X6926218Y-18318633D01*
X6926218Y-18318633D02*
X6945266Y-18328157D01*
X6945266Y-18328157D02*
X6954789Y-18337681D01*
X6954789Y-18337681D02*
X6964313Y-18356729D01*
X6964313Y-18356729D02*
X6973837Y-18394824D01*
X6973837Y-18394824D02*
X6973837Y-18442443D01*
X6973837Y-18442443D02*
X6964313Y-18480538D01*
X6964313Y-18480538D02*
X6954789Y-18499586D01*
X6954789Y-18499586D02*
X6945266Y-18509110D01*
X6945266Y-18509110D02*
X6926218Y-18518633D01*
X6926218Y-18518633D02*
X6907170Y-18518633D01*
X6907170Y-18518633D02*
X6888123Y-18509110D01*
X6888123Y-18509110D02*
X6878599Y-18499586D01*
X6878599Y-18499586D02*
X6869075Y-18480538D01*
X6869075Y-18480538D02*
X6859551Y-18442443D01*
X6859551Y-18442443D02*
X6859551Y-18394824D01*
X6859551Y-18394824D02*
X6869075Y-18356729D01*
X6869075Y-18356729D02*
X6878599Y-18337681D01*
X6878599Y-18337681D02*
X6888123Y-18328157D01*
X6888123Y-18328157D02*
X6907170Y-18318633D01*
X7059551Y-18518633D02*
X7059551Y-18385300D01*
X7059551Y-18404348D02*
X7069075Y-18394824D01*
X7069075Y-18394824D02*
X7088123Y-18385300D01*
X7088123Y-18385300D02*
X7116694Y-18385300D01*
X7116694Y-18385300D02*
X7135742Y-18394824D01*
X7135742Y-18394824D02*
X7145266Y-18413871D01*
X7145266Y-18413871D02*
X7145266Y-18518633D01*
X7145266Y-18413871D02*
X7154789Y-18394824D01*
X7154789Y-18394824D02*
X7173837Y-18385300D01*
X7173837Y-18385300D02*
X7202408Y-18385300D01*
X7202408Y-18385300D02*
X7221456Y-18394824D01*
X7221456Y-18394824D02*
X7230980Y-18413871D01*
X7230980Y-18413871D02*
X7230980Y-18518633D01*
X7326218Y-18518633D02*
X7326218Y-18385300D01*
X7326218Y-18404348D02*
X7335742Y-18394824D01*
X7335742Y-18394824D02*
X7354789Y-18385300D01*
X7354789Y-18385300D02*
X7383361Y-18385300D01*
X7383361Y-18385300D02*
X7402408Y-18394824D01*
X7402408Y-18394824D02*
X7411932Y-18413871D01*
X7411932Y-18413871D02*
X7411932Y-18518633D01*
X7411932Y-18413871D02*
X7421456Y-18394824D01*
X7421456Y-18394824D02*
X7440504Y-18385300D01*
X7440504Y-18385300D02*
X7469075Y-18385300D01*
X7469075Y-18385300D02*
X7488123Y-18394824D01*
X7488123Y-18394824D02*
X7497647Y-18413871D01*
X7497647Y-18413871D02*
X7497647Y-18518633D01*
X7888123Y-18309110D02*
X7716694Y-18566252D01*
X8145266Y-18318633D02*
X8164313Y-18318633D01*
X8164313Y-18318633D02*
X8183361Y-18328157D01*
X8183361Y-18328157D02*
X8192885Y-18337681D01*
X8192885Y-18337681D02*
X8202409Y-18356729D01*
X8202409Y-18356729D02*
X8211932Y-18394824D01*
X8211932Y-18394824D02*
X8211932Y-18442443D01*
X8211932Y-18442443D02*
X8202409Y-18480538D01*
X8202409Y-18480538D02*
X8192885Y-18499586D01*
X8192885Y-18499586D02*
X8183361Y-18509110D01*
X8183361Y-18509110D02*
X8164313Y-18518633D01*
X8164313Y-18518633D02*
X8145266Y-18518633D01*
X8145266Y-18518633D02*
X8126218Y-18509110D01*
X8126218Y-18509110D02*
X8116694Y-18499586D01*
X8116694Y-18499586D02*
X8107170Y-18480538D01*
X8107170Y-18480538D02*
X8097647Y-18442443D01*
X8097647Y-18442443D02*
X8097647Y-18394824D01*
X8097647Y-18394824D02*
X8107170Y-18356729D01*
X8107170Y-18356729D02*
X8116694Y-18337681D01*
X8116694Y-18337681D02*
X8126218Y-18328157D01*
X8126218Y-18328157D02*
X8145266Y-18318633D01*
X8297647Y-18499586D02*
X8307170Y-18509110D01*
X8307170Y-18509110D02*
X8297647Y-18518633D01*
X8297647Y-18518633D02*
X8288123Y-18509110D01*
X8288123Y-18509110D02*
X8297647Y-18499586D01*
X8297647Y-18499586D02*
X8297647Y-18518633D01*
X8430980Y-18318633D02*
X8450028Y-18318633D01*
X8450028Y-18318633D02*
X8469075Y-18328157D01*
X8469075Y-18328157D02*
X8478599Y-18337681D01*
X8478599Y-18337681D02*
X8488123Y-18356729D01*
X8488123Y-18356729D02*
X8497647Y-18394824D01*
X8497647Y-18394824D02*
X8497647Y-18442443D01*
X8497647Y-18442443D02*
X8488123Y-18480538D01*
X8488123Y-18480538D02*
X8478599Y-18499586D01*
X8478599Y-18499586D02*
X8469075Y-18509110D01*
X8469075Y-18509110D02*
X8450028Y-18518633D01*
X8450028Y-18518633D02*
X8430980Y-18518633D01*
X8430980Y-18518633D02*
X8411932Y-18509110D01*
X8411932Y-18509110D02*
X8402409Y-18499586D01*
X8402409Y-18499586D02*
X8392885Y-18480538D01*
X8392885Y-18480538D02*
X8383361Y-18442443D01*
X8383361Y-18442443D02*
X8383361Y-18394824D01*
X8383361Y-18394824D02*
X8392885Y-18356729D01*
X8392885Y-18356729D02*
X8402409Y-18337681D01*
X8402409Y-18337681D02*
X8411932Y-18328157D01*
X8411932Y-18328157D02*
X8430980Y-18318633D01*
X8669075Y-18318633D02*
X8630980Y-18318633D01*
X8630980Y-18318633D02*
X8611932Y-18328157D01*
X8611932Y-18328157D02*
X8602409Y-18337681D01*
X8602409Y-18337681D02*
X8583361Y-18366252D01*
X8583361Y-18366252D02*
X8573837Y-18404348D01*
X8573837Y-18404348D02*
X8573837Y-18480538D01*
X8573837Y-18480538D02*
X8583361Y-18499586D01*
X8583361Y-18499586D02*
X8592885Y-18509110D01*
X8592885Y-18509110D02*
X8611932Y-18518633D01*
X8611932Y-18518633D02*
X8650028Y-18518633D01*
X8650028Y-18518633D02*
X8669075Y-18509110D01*
X8669075Y-18509110D02*
X8678599Y-18499586D01*
X8678599Y-18499586D02*
X8688123Y-18480538D01*
X8688123Y-18480538D02*
X8688123Y-18432919D01*
X8688123Y-18432919D02*
X8678599Y-18413871D01*
X8678599Y-18413871D02*
X8669075Y-18404348D01*
X8669075Y-18404348D02*
X8650028Y-18394824D01*
X8650028Y-18394824D02*
X8611932Y-18394824D01*
X8611932Y-18394824D02*
X8592885Y-18404348D01*
X8592885Y-18404348D02*
X8583361Y-18413871D01*
X8583361Y-18413871D02*
X8573837Y-18432919D01*
X8802409Y-18404348D02*
X8783361Y-18394824D01*
X8783361Y-18394824D02*
X8773837Y-18385300D01*
X8773837Y-18385300D02*
X8764313Y-18366252D01*
X8764313Y-18366252D02*
X8764313Y-18356729D01*
X8764313Y-18356729D02*
X8773837Y-18337681D01*
X8773837Y-18337681D02*
X8783361Y-18328157D01*
X8783361Y-18328157D02*
X8802409Y-18318633D01*
X8802409Y-18318633D02*
X8840504Y-18318633D01*
X8840504Y-18318633D02*
X8859552Y-18328157D01*
X8859552Y-18328157D02*
X8869075Y-18337681D01*
X8869075Y-18337681D02*
X8878599Y-18356729D01*
X8878599Y-18356729D02*
X8878599Y-18366252D01*
X8878599Y-18366252D02*
X8869075Y-18385300D01*
X8869075Y-18385300D02*
X8859552Y-18394824D01*
X8859552Y-18394824D02*
X8840504Y-18404348D01*
X8840504Y-18404348D02*
X8802409Y-18404348D01*
X8802409Y-18404348D02*
X8783361Y-18413871D01*
X8783361Y-18413871D02*
X8773837Y-18423395D01*
X8773837Y-18423395D02*
X8764313Y-18442443D01*
X8764313Y-18442443D02*
X8764313Y-18480538D01*
X8764313Y-18480538D02*
X8773837Y-18499586D01*
X8773837Y-18499586D02*
X8783361Y-18509110D01*
X8783361Y-18509110D02*
X8802409Y-18518633D01*
X8802409Y-18518633D02*
X8840504Y-18518633D01*
X8840504Y-18518633D02*
X8859552Y-18509110D01*
X8859552Y-18509110D02*
X8869075Y-18499586D01*
X8869075Y-18499586D02*
X8878599Y-18480538D01*
X8878599Y-18480538D02*
X8878599Y-18442443D01*
X8878599Y-18442443D02*
X8869075Y-18423395D01*
X8869075Y-18423395D02*
X8859552Y-18413871D01*
X8859552Y-18413871D02*
X8840504Y-18404348D01*
X8973837Y-18518633D02*
X9011932Y-18518633D01*
X9011932Y-18518633D02*
X9030980Y-18509110D01*
X9030980Y-18509110D02*
X9040504Y-18499586D01*
X9040504Y-18499586D02*
X9059552Y-18471014D01*
X9059552Y-18471014D02*
X9069075Y-18432919D01*
X9069075Y-18432919D02*
X9069075Y-18356729D01*
X9069075Y-18356729D02*
X9059552Y-18337681D01*
X9059552Y-18337681D02*
X9050028Y-18328157D01*
X9050028Y-18328157D02*
X9030980Y-18318633D01*
X9030980Y-18318633D02*
X8992885Y-18318633D01*
X8992885Y-18318633D02*
X8973837Y-18328157D01*
X8973837Y-18328157D02*
X8964313Y-18337681D01*
X8964313Y-18337681D02*
X8954790Y-18356729D01*
X8954790Y-18356729D02*
X8954790Y-18404348D01*
X8954790Y-18404348D02*
X8964313Y-18423395D01*
X8964313Y-18423395D02*
X8973837Y-18432919D01*
X8973837Y-18432919D02*
X8992885Y-18442443D01*
X8992885Y-18442443D02*
X9030980Y-18442443D01*
X9030980Y-18442443D02*
X9050028Y-18432919D01*
X9050028Y-18432919D02*
X9059552Y-18423395D01*
X9059552Y-18423395D02*
X9069075Y-18404348D01*
X9145266Y-18318633D02*
X9145266Y-18356729D01*
X9221456Y-18318633D02*
X9221456Y-18356729D01*
X9516695Y-18594824D02*
X9507171Y-18585300D01*
X9507171Y-18585300D02*
X9488123Y-18556729D01*
X9488123Y-18556729D02*
X9478599Y-18537681D01*
X9478599Y-18537681D02*
X9469075Y-18509110D01*
X9469075Y-18509110D02*
X9459552Y-18461490D01*
X9459552Y-18461490D02*
X9459552Y-18423395D01*
X9459552Y-18423395D02*
X9469075Y-18375776D01*
X9469075Y-18375776D02*
X9478599Y-18347205D01*
X9478599Y-18347205D02*
X9488123Y-18328157D01*
X9488123Y-18328157D02*
X9507171Y-18299586D01*
X9507171Y-18299586D02*
X9516695Y-18290062D01*
X9697647Y-18518633D02*
X9583361Y-18518633D01*
X9640504Y-18518633D02*
X9640504Y-18318633D01*
X9640504Y-18318633D02*
X9621456Y-18347205D01*
X9621456Y-18347205D02*
X9602409Y-18366252D01*
X9602409Y-18366252D02*
X9583361Y-18375776D01*
X9869075Y-18318633D02*
X9830980Y-18318633D01*
X9830980Y-18318633D02*
X9811933Y-18328157D01*
X9811933Y-18328157D02*
X9802409Y-18337681D01*
X9802409Y-18337681D02*
X9783361Y-18366252D01*
X9783361Y-18366252D02*
X9773837Y-18404348D01*
X9773837Y-18404348D02*
X9773837Y-18480538D01*
X9773837Y-18480538D02*
X9783361Y-18499586D01*
X9783361Y-18499586D02*
X9792885Y-18509110D01*
X9792885Y-18509110D02*
X9811933Y-18518633D01*
X9811933Y-18518633D02*
X9850028Y-18518633D01*
X9850028Y-18518633D02*
X9869075Y-18509110D01*
X9869075Y-18509110D02*
X9878599Y-18499586D01*
X9878599Y-18499586D02*
X9888123Y-18480538D01*
X9888123Y-18480538D02*
X9888123Y-18432919D01*
X9888123Y-18432919D02*
X9878599Y-18413871D01*
X9878599Y-18413871D02*
X9869075Y-18404348D01*
X9869075Y-18404348D02*
X9850028Y-18394824D01*
X9850028Y-18394824D02*
X9811933Y-18394824D01*
X9811933Y-18394824D02*
X9792885Y-18404348D01*
X9792885Y-18404348D02*
X9783361Y-18413871D01*
X9783361Y-18413871D02*
X9773837Y-18432919D01*
X10002409Y-18404348D02*
X9983361Y-18394824D01*
X9983361Y-18394824D02*
X9973837Y-18385300D01*
X9973837Y-18385300D02*
X9964314Y-18366252D01*
X9964314Y-18366252D02*
X9964314Y-18356729D01*
X9964314Y-18356729D02*
X9973837Y-18337681D01*
X9973837Y-18337681D02*
X9983361Y-18328157D01*
X9983361Y-18328157D02*
X10002409Y-18318633D01*
X10002409Y-18318633D02*
X10040504Y-18318633D01*
X10040504Y-18318633D02*
X10059552Y-18328157D01*
X10059552Y-18328157D02*
X10069075Y-18337681D01*
X10069075Y-18337681D02*
X10078599Y-18356729D01*
X10078599Y-18356729D02*
X10078599Y-18366252D01*
X10078599Y-18366252D02*
X10069075Y-18385300D01*
X10069075Y-18385300D02*
X10059552Y-18394824D01*
X10059552Y-18394824D02*
X10040504Y-18404348D01*
X10040504Y-18404348D02*
X10002409Y-18404348D01*
X10002409Y-18404348D02*
X9983361Y-18413871D01*
X9983361Y-18413871D02*
X9973837Y-18423395D01*
X9973837Y-18423395D02*
X9964314Y-18442443D01*
X9964314Y-18442443D02*
X9964314Y-18480538D01*
X9964314Y-18480538D02*
X9973837Y-18499586D01*
X9973837Y-18499586D02*
X9983361Y-18509110D01*
X9983361Y-18509110D02*
X10002409Y-18518633D01*
X10002409Y-18518633D02*
X10040504Y-18518633D01*
X10040504Y-18518633D02*
X10059552Y-18509110D01*
X10059552Y-18509110D02*
X10069075Y-18499586D01*
X10069075Y-18499586D02*
X10078599Y-18480538D01*
X10078599Y-18480538D02*
X10078599Y-18442443D01*
X10078599Y-18442443D02*
X10069075Y-18423395D01*
X10069075Y-18423395D02*
X10059552Y-18413871D01*
X10059552Y-18413871D02*
X10040504Y-18404348D01*
X10316695Y-18518633D02*
X10316695Y-18318633D01*
X10402409Y-18518633D02*
X10402409Y-18413871D01*
X10402409Y-18413871D02*
X10392885Y-18394824D01*
X10392885Y-18394824D02*
X10373837Y-18385300D01*
X10373837Y-18385300D02*
X10345266Y-18385300D01*
X10345266Y-18385300D02*
X10326218Y-18394824D01*
X10326218Y-18394824D02*
X10316695Y-18404348D01*
X10526218Y-18518633D02*
X10507171Y-18509110D01*
X10507171Y-18509110D02*
X10497647Y-18499586D01*
X10497647Y-18499586D02*
X10488123Y-18480538D01*
X10488123Y-18480538D02*
X10488123Y-18423395D01*
X10488123Y-18423395D02*
X10497647Y-18404348D01*
X10497647Y-18404348D02*
X10507171Y-18394824D01*
X10507171Y-18394824D02*
X10526218Y-18385300D01*
X10526218Y-18385300D02*
X10554790Y-18385300D01*
X10554790Y-18385300D02*
X10573837Y-18394824D01*
X10573837Y-18394824D02*
X10583361Y-18404348D01*
X10583361Y-18404348D02*
X10592885Y-18423395D01*
X10592885Y-18423395D02*
X10592885Y-18480538D01*
X10592885Y-18480538D02*
X10583361Y-18499586D01*
X10583361Y-18499586D02*
X10573837Y-18509110D01*
X10573837Y-18509110D02*
X10554790Y-18518633D01*
X10554790Y-18518633D02*
X10526218Y-18518633D01*
X10707171Y-18518633D02*
X10688123Y-18509110D01*
X10688123Y-18509110D02*
X10678599Y-18490062D01*
X10678599Y-18490062D02*
X10678599Y-18318633D01*
X10859552Y-18509110D02*
X10840504Y-18518633D01*
X10840504Y-18518633D02*
X10802409Y-18518633D01*
X10802409Y-18518633D02*
X10783361Y-18509110D01*
X10783361Y-18509110D02*
X10773837Y-18490062D01*
X10773837Y-18490062D02*
X10773837Y-18413871D01*
X10773837Y-18413871D02*
X10783361Y-18394824D01*
X10783361Y-18394824D02*
X10802409Y-18385300D01*
X10802409Y-18385300D02*
X10840504Y-18385300D01*
X10840504Y-18385300D02*
X10859552Y-18394824D01*
X10859552Y-18394824D02*
X10869076Y-18413871D01*
X10869076Y-18413871D02*
X10869076Y-18432919D01*
X10869076Y-18432919D02*
X10773837Y-18451967D01*
X10945266Y-18509110D02*
X10964314Y-18518633D01*
X10964314Y-18518633D02*
X11002409Y-18518633D01*
X11002409Y-18518633D02*
X11021457Y-18509110D01*
X11021457Y-18509110D02*
X11030980Y-18490062D01*
X11030980Y-18490062D02*
X11030980Y-18480538D01*
X11030980Y-18480538D02*
X11021457Y-18461490D01*
X11021457Y-18461490D02*
X11002409Y-18451967D01*
X11002409Y-18451967D02*
X10973837Y-18451967D01*
X10973837Y-18451967D02*
X10954790Y-18442443D01*
X10954790Y-18442443D02*
X10945266Y-18423395D01*
X10945266Y-18423395D02*
X10945266Y-18413871D01*
X10945266Y-18413871D02*
X10954790Y-18394824D01*
X10954790Y-18394824D02*
X10973837Y-18385300D01*
X10973837Y-18385300D02*
X11002409Y-18385300D01*
X11002409Y-18385300D02*
X11021457Y-18394824D01*
X11097647Y-18594824D02*
X11107171Y-18585300D01*
X11107171Y-18585300D02*
X11126218Y-18556729D01*
X11126218Y-18556729D02*
X11135742Y-18537681D01*
X11135742Y-18537681D02*
X11145266Y-18509110D01*
X11145266Y-18509110D02*
X11154790Y-18461490D01*
X11154790Y-18461490D02*
X11154790Y-18423395D01*
X11154790Y-18423395D02*
X11145266Y-18375776D01*
X11145266Y-18375776D02*
X11135742Y-18347205D01*
X11135742Y-18347205D02*
X11126218Y-18328157D01*
X11126218Y-18328157D02*
X11107171Y-18299586D01*
X11107171Y-18299586D02*
X11097647Y-18290062D01*
X11459552Y-18594824D02*
X11450028Y-18585300D01*
X11450028Y-18585300D02*
X11430980Y-18556729D01*
X11430980Y-18556729D02*
X11421456Y-18537681D01*
X11421456Y-18537681D02*
X11411933Y-18509110D01*
X11411933Y-18509110D02*
X11402409Y-18461490D01*
X11402409Y-18461490D02*
X11402409Y-18423395D01*
X11402409Y-18423395D02*
X11411933Y-18375776D01*
X11411933Y-18375776D02*
X11421456Y-18347205D01*
X11421456Y-18347205D02*
X11430980Y-18328157D01*
X11430980Y-18328157D02*
X11450028Y-18299586D01*
X11450028Y-18299586D02*
X11459552Y-18290062D01*
X11535742Y-18385300D02*
X11535742Y-18518633D01*
X11535742Y-18404348D02*
X11545266Y-18394824D01*
X11545266Y-18394824D02*
X11564314Y-18385300D01*
X11564314Y-18385300D02*
X11592885Y-18385300D01*
X11592885Y-18385300D02*
X11611933Y-18394824D01*
X11611933Y-18394824D02*
X11621456Y-18413871D01*
X11621456Y-18413871D02*
X11621456Y-18518633D01*
X11745266Y-18518633D02*
X11726218Y-18509110D01*
X11726218Y-18509110D02*
X11716695Y-18499586D01*
X11716695Y-18499586D02*
X11707171Y-18480538D01*
X11707171Y-18480538D02*
X11707171Y-18423395D01*
X11707171Y-18423395D02*
X11716695Y-18404348D01*
X11716695Y-18404348D02*
X11726218Y-18394824D01*
X11726218Y-18394824D02*
X11745266Y-18385300D01*
X11745266Y-18385300D02*
X11773837Y-18385300D01*
X11773837Y-18385300D02*
X11792885Y-18394824D01*
X11792885Y-18394824D02*
X11802409Y-18404348D01*
X11802409Y-18404348D02*
X11811933Y-18423395D01*
X11811933Y-18423395D02*
X11811933Y-18480538D01*
X11811933Y-18480538D02*
X11802409Y-18499586D01*
X11802409Y-18499586D02*
X11792885Y-18509110D01*
X11792885Y-18509110D02*
X11773837Y-18518633D01*
X11773837Y-18518633D02*
X11745266Y-18518633D01*
X11869076Y-18385300D02*
X11945266Y-18385300D01*
X11897647Y-18318633D02*
X11897647Y-18490062D01*
X11897647Y-18490062D02*
X11907171Y-18509110D01*
X11907171Y-18509110D02*
X11926218Y-18518633D01*
X11926218Y-18518633D02*
X11945266Y-18518633D01*
X12164314Y-18385300D02*
X12164314Y-18585300D01*
X12164314Y-18394824D02*
X12183361Y-18385300D01*
X12183361Y-18385300D02*
X12221457Y-18385300D01*
X12221457Y-18385300D02*
X12240504Y-18394824D01*
X12240504Y-18394824D02*
X12250028Y-18404348D01*
X12250028Y-18404348D02*
X12259552Y-18423395D01*
X12259552Y-18423395D02*
X12259552Y-18480538D01*
X12259552Y-18480538D02*
X12250028Y-18499586D01*
X12250028Y-18499586D02*
X12240504Y-18509110D01*
X12240504Y-18509110D02*
X12221457Y-18518633D01*
X12221457Y-18518633D02*
X12183361Y-18518633D01*
X12183361Y-18518633D02*
X12164314Y-18509110D01*
X12373837Y-18518633D02*
X12354790Y-18509110D01*
X12354790Y-18509110D02*
X12345266Y-18490062D01*
X12345266Y-18490062D02*
X12345266Y-18318633D01*
X12535742Y-18518633D02*
X12535742Y-18413871D01*
X12535742Y-18413871D02*
X12526218Y-18394824D01*
X12526218Y-18394824D02*
X12507171Y-18385300D01*
X12507171Y-18385300D02*
X12469076Y-18385300D01*
X12469076Y-18385300D02*
X12450028Y-18394824D01*
X12535742Y-18509110D02*
X12516695Y-18518633D01*
X12516695Y-18518633D02*
X12469076Y-18518633D01*
X12469076Y-18518633D02*
X12450028Y-18509110D01*
X12450028Y-18509110D02*
X12440504Y-18490062D01*
X12440504Y-18490062D02*
X12440504Y-18471014D01*
X12440504Y-18471014D02*
X12450028Y-18451967D01*
X12450028Y-18451967D02*
X12469076Y-18442443D01*
X12469076Y-18442443D02*
X12516695Y-18442443D01*
X12516695Y-18442443D02*
X12535742Y-18432919D01*
X12602409Y-18385300D02*
X12678599Y-18385300D01*
X12630980Y-18318633D02*
X12630980Y-18490062D01*
X12630980Y-18490062D02*
X12640504Y-18509110D01*
X12640504Y-18509110D02*
X12659552Y-18518633D01*
X12659552Y-18518633D02*
X12678599Y-18518633D01*
X12821457Y-18509110D02*
X12802409Y-18518633D01*
X12802409Y-18518633D02*
X12764314Y-18518633D01*
X12764314Y-18518633D02*
X12745266Y-18509110D01*
X12745266Y-18509110D02*
X12735742Y-18490062D01*
X12735742Y-18490062D02*
X12735742Y-18413871D01*
X12735742Y-18413871D02*
X12745266Y-18394824D01*
X12745266Y-18394824D02*
X12764314Y-18385300D01*
X12764314Y-18385300D02*
X12802409Y-18385300D01*
X12802409Y-18385300D02*
X12821457Y-18394824D01*
X12821457Y-18394824D02*
X12830980Y-18413871D01*
X12830980Y-18413871D02*
X12830980Y-18432919D01*
X12830980Y-18432919D02*
X12735742Y-18451967D01*
X13002409Y-18518633D02*
X13002409Y-18318633D01*
X13002409Y-18509110D02*
X12983361Y-18518633D01*
X12983361Y-18518633D02*
X12945266Y-18518633D01*
X12945266Y-18518633D02*
X12926218Y-18509110D01*
X12926218Y-18509110D02*
X12916695Y-18499586D01*
X12916695Y-18499586D02*
X12907171Y-18480538D01*
X12907171Y-18480538D02*
X12907171Y-18423395D01*
X12907171Y-18423395D02*
X12916695Y-18404348D01*
X12916695Y-18404348D02*
X12926218Y-18394824D01*
X12926218Y-18394824D02*
X12945266Y-18385300D01*
X12945266Y-18385300D02*
X12983361Y-18385300D01*
X12983361Y-18385300D02*
X13002409Y-18394824D01*
X13078599Y-18594824D02*
X13088123Y-18585300D01*
X13088123Y-18585300D02*
X13107171Y-18556729D01*
X13107171Y-18556729D02*
X13116695Y-18537681D01*
X13116695Y-18537681D02*
X13126218Y-18509110D01*
X13126218Y-18509110D02*
X13135742Y-18461490D01*
X13135742Y-18461490D02*
X13135742Y-18423395D01*
X13135742Y-18423395D02*
X13126218Y-18375776D01*
X13126218Y-18375776D02*
X13116695Y-18347205D01*
X13116695Y-18347205D02*
X13107171Y-18328157D01*
X13107171Y-18328157D02*
X13088123Y-18299586D01*
X13088123Y-18299586D02*
X13078599Y-18290062D01*
X5954789Y-18721110D02*
G75*
G03*
X5954789Y-18721110I-100000J0D01*
G01*
X6183361Y-18613633D02*
X6307170Y-18613633D01*
X6307170Y-18613633D02*
X6240504Y-18689824D01*
X6240504Y-18689824D02*
X6269075Y-18689824D01*
X6269075Y-18689824D02*
X6288123Y-18699348D01*
X6288123Y-18699348D02*
X6297646Y-18708871D01*
X6297646Y-18708871D02*
X6307170Y-18727919D01*
X6307170Y-18727919D02*
X6307170Y-18775538D01*
X6307170Y-18775538D02*
X6297646Y-18794586D01*
X6297646Y-18794586D02*
X6288123Y-18804110D01*
X6288123Y-18804110D02*
X6269075Y-18813633D01*
X6269075Y-18813633D02*
X6211932Y-18813633D01*
X6211932Y-18813633D02*
X6192885Y-18804110D01*
X6192885Y-18804110D02*
X6183361Y-18794586D01*
X6392885Y-18794586D02*
X6402408Y-18804110D01*
X6402408Y-18804110D02*
X6392885Y-18813633D01*
X6392885Y-18813633D02*
X6383361Y-18804110D01*
X6383361Y-18804110D02*
X6392885Y-18794586D01*
X6392885Y-18794586D02*
X6392885Y-18813633D01*
X6497646Y-18813633D02*
X6535742Y-18813633D01*
X6535742Y-18813633D02*
X6554789Y-18804110D01*
X6554789Y-18804110D02*
X6564313Y-18794586D01*
X6564313Y-18794586D02*
X6583361Y-18766014D01*
X6583361Y-18766014D02*
X6592885Y-18727919D01*
X6592885Y-18727919D02*
X6592885Y-18651729D01*
X6592885Y-18651729D02*
X6583361Y-18632681D01*
X6583361Y-18632681D02*
X6573837Y-18623157D01*
X6573837Y-18623157D02*
X6554789Y-18613633D01*
X6554789Y-18613633D02*
X6516694Y-18613633D01*
X6516694Y-18613633D02*
X6497646Y-18623157D01*
X6497646Y-18623157D02*
X6488123Y-18632681D01*
X6488123Y-18632681D02*
X6478599Y-18651729D01*
X6478599Y-18651729D02*
X6478599Y-18699348D01*
X6478599Y-18699348D02*
X6488123Y-18718395D01*
X6488123Y-18718395D02*
X6497646Y-18727919D01*
X6497646Y-18727919D02*
X6516694Y-18737443D01*
X6516694Y-18737443D02*
X6554789Y-18737443D01*
X6554789Y-18737443D02*
X6573837Y-18727919D01*
X6573837Y-18727919D02*
X6583361Y-18718395D01*
X6583361Y-18718395D02*
X6592885Y-18699348D01*
X6707170Y-18699348D02*
X6688123Y-18689824D01*
X6688123Y-18689824D02*
X6678599Y-18680300D01*
X6678599Y-18680300D02*
X6669075Y-18661252D01*
X6669075Y-18661252D02*
X6669075Y-18651729D01*
X6669075Y-18651729D02*
X6678599Y-18632681D01*
X6678599Y-18632681D02*
X6688123Y-18623157D01*
X6688123Y-18623157D02*
X6707170Y-18613633D01*
X6707170Y-18613633D02*
X6745266Y-18613633D01*
X6745266Y-18613633D02*
X6764313Y-18623157D01*
X6764313Y-18623157D02*
X6773837Y-18632681D01*
X6773837Y-18632681D02*
X6783361Y-18651729D01*
X6783361Y-18651729D02*
X6783361Y-18661252D01*
X6783361Y-18661252D02*
X6773837Y-18680300D01*
X6773837Y-18680300D02*
X6764313Y-18689824D01*
X6764313Y-18689824D02*
X6745266Y-18699348D01*
X6745266Y-18699348D02*
X6707170Y-18699348D01*
X6707170Y-18699348D02*
X6688123Y-18708871D01*
X6688123Y-18708871D02*
X6678599Y-18718395D01*
X6678599Y-18718395D02*
X6669075Y-18737443D01*
X6669075Y-18737443D02*
X6669075Y-18775538D01*
X6669075Y-18775538D02*
X6678599Y-18794586D01*
X6678599Y-18794586D02*
X6688123Y-18804110D01*
X6688123Y-18804110D02*
X6707170Y-18813633D01*
X6707170Y-18813633D02*
X6745266Y-18813633D01*
X6745266Y-18813633D02*
X6764313Y-18804110D01*
X6764313Y-18804110D02*
X6773837Y-18794586D01*
X6773837Y-18794586D02*
X6783361Y-18775538D01*
X6783361Y-18775538D02*
X6783361Y-18737443D01*
X6783361Y-18737443D02*
X6773837Y-18718395D01*
X6773837Y-18718395D02*
X6764313Y-18708871D01*
X6764313Y-18708871D02*
X6745266Y-18699348D01*
X6897646Y-18699348D02*
X6878599Y-18689824D01*
X6878599Y-18689824D02*
X6869075Y-18680300D01*
X6869075Y-18680300D02*
X6859551Y-18661252D01*
X6859551Y-18661252D02*
X6859551Y-18651729D01*
X6859551Y-18651729D02*
X6869075Y-18632681D01*
X6869075Y-18632681D02*
X6878599Y-18623157D01*
X6878599Y-18623157D02*
X6897646Y-18613633D01*
X6897646Y-18613633D02*
X6935742Y-18613633D01*
X6935742Y-18613633D02*
X6954789Y-18623157D01*
X6954789Y-18623157D02*
X6964313Y-18632681D01*
X6964313Y-18632681D02*
X6973837Y-18651729D01*
X6973837Y-18651729D02*
X6973837Y-18661252D01*
X6973837Y-18661252D02*
X6964313Y-18680300D01*
X6964313Y-18680300D02*
X6954789Y-18689824D01*
X6954789Y-18689824D02*
X6935742Y-18699348D01*
X6935742Y-18699348D02*
X6897646Y-18699348D01*
X6897646Y-18699348D02*
X6878599Y-18708871D01*
X6878599Y-18708871D02*
X6869075Y-18718395D01*
X6869075Y-18718395D02*
X6859551Y-18737443D01*
X6859551Y-18737443D02*
X6859551Y-18775538D01*
X6859551Y-18775538D02*
X6869075Y-18794586D01*
X6869075Y-18794586D02*
X6878599Y-18804110D01*
X6878599Y-18804110D02*
X6897646Y-18813633D01*
X6897646Y-18813633D02*
X6935742Y-18813633D01*
X6935742Y-18813633D02*
X6954789Y-18804110D01*
X6954789Y-18804110D02*
X6964313Y-18794586D01*
X6964313Y-18794586D02*
X6973837Y-18775538D01*
X6973837Y-18775538D02*
X6973837Y-18737443D01*
X6973837Y-18737443D02*
X6964313Y-18718395D01*
X6964313Y-18718395D02*
X6954789Y-18708871D01*
X6954789Y-18708871D02*
X6935742Y-18699348D01*
X7059551Y-18813633D02*
X7059551Y-18680300D01*
X7059551Y-18699348D02*
X7069075Y-18689824D01*
X7069075Y-18689824D02*
X7088123Y-18680300D01*
X7088123Y-18680300D02*
X7116694Y-18680300D01*
X7116694Y-18680300D02*
X7135742Y-18689824D01*
X7135742Y-18689824D02*
X7145266Y-18708871D01*
X7145266Y-18708871D02*
X7145266Y-18813633D01*
X7145266Y-18708871D02*
X7154789Y-18689824D01*
X7154789Y-18689824D02*
X7173837Y-18680300D01*
X7173837Y-18680300D02*
X7202408Y-18680300D01*
X7202408Y-18680300D02*
X7221456Y-18689824D01*
X7221456Y-18689824D02*
X7230980Y-18708871D01*
X7230980Y-18708871D02*
X7230980Y-18813633D01*
X7326218Y-18813633D02*
X7326218Y-18680300D01*
X7326218Y-18699348D02*
X7335742Y-18689824D01*
X7335742Y-18689824D02*
X7354789Y-18680300D01*
X7354789Y-18680300D02*
X7383361Y-18680300D01*
X7383361Y-18680300D02*
X7402408Y-18689824D01*
X7402408Y-18689824D02*
X7411932Y-18708871D01*
X7411932Y-18708871D02*
X7411932Y-18813633D01*
X7411932Y-18708871D02*
X7421456Y-18689824D01*
X7421456Y-18689824D02*
X7440504Y-18680300D01*
X7440504Y-18680300D02*
X7469075Y-18680300D01*
X7469075Y-18680300D02*
X7488123Y-18689824D01*
X7488123Y-18689824D02*
X7497647Y-18708871D01*
X7497647Y-18708871D02*
X7497647Y-18813633D01*
X7888123Y-18604110D02*
X7716694Y-18861252D01*
X8145266Y-18613633D02*
X8164313Y-18613633D01*
X8164313Y-18613633D02*
X8183361Y-18623157D01*
X8183361Y-18623157D02*
X8192885Y-18632681D01*
X8192885Y-18632681D02*
X8202409Y-18651729D01*
X8202409Y-18651729D02*
X8211932Y-18689824D01*
X8211932Y-18689824D02*
X8211932Y-18737443D01*
X8211932Y-18737443D02*
X8202409Y-18775538D01*
X8202409Y-18775538D02*
X8192885Y-18794586D01*
X8192885Y-18794586D02*
X8183361Y-18804110D01*
X8183361Y-18804110D02*
X8164313Y-18813633D01*
X8164313Y-18813633D02*
X8145266Y-18813633D01*
X8145266Y-18813633D02*
X8126218Y-18804110D01*
X8126218Y-18804110D02*
X8116694Y-18794586D01*
X8116694Y-18794586D02*
X8107170Y-18775538D01*
X8107170Y-18775538D02*
X8097647Y-18737443D01*
X8097647Y-18737443D02*
X8097647Y-18689824D01*
X8097647Y-18689824D02*
X8107170Y-18651729D01*
X8107170Y-18651729D02*
X8116694Y-18632681D01*
X8116694Y-18632681D02*
X8126218Y-18623157D01*
X8126218Y-18623157D02*
X8145266Y-18613633D01*
X8297647Y-18794586D02*
X8307170Y-18804110D01*
X8307170Y-18804110D02*
X8297647Y-18813633D01*
X8297647Y-18813633D02*
X8288123Y-18804110D01*
X8288123Y-18804110D02*
X8297647Y-18794586D01*
X8297647Y-18794586D02*
X8297647Y-18813633D01*
X8497647Y-18813633D02*
X8383361Y-18813633D01*
X8440504Y-18813633D02*
X8440504Y-18613633D01*
X8440504Y-18613633D02*
X8421456Y-18642205D01*
X8421456Y-18642205D02*
X8402409Y-18661252D01*
X8402409Y-18661252D02*
X8383361Y-18670776D01*
X8678599Y-18613633D02*
X8583361Y-18613633D01*
X8583361Y-18613633D02*
X8573837Y-18708871D01*
X8573837Y-18708871D02*
X8583361Y-18699348D01*
X8583361Y-18699348D02*
X8602409Y-18689824D01*
X8602409Y-18689824D02*
X8650028Y-18689824D01*
X8650028Y-18689824D02*
X8669075Y-18699348D01*
X8669075Y-18699348D02*
X8678599Y-18708871D01*
X8678599Y-18708871D02*
X8688123Y-18727919D01*
X8688123Y-18727919D02*
X8688123Y-18775538D01*
X8688123Y-18775538D02*
X8678599Y-18794586D01*
X8678599Y-18794586D02*
X8669075Y-18804110D01*
X8669075Y-18804110D02*
X8650028Y-18813633D01*
X8650028Y-18813633D02*
X8602409Y-18813633D01*
X8602409Y-18813633D02*
X8583361Y-18804110D01*
X8583361Y-18804110D02*
X8573837Y-18794586D01*
X8754790Y-18613633D02*
X8888123Y-18613633D01*
X8888123Y-18613633D02*
X8802409Y-18813633D01*
X9002409Y-18613633D02*
X9021456Y-18613633D01*
X9021456Y-18613633D02*
X9040504Y-18623157D01*
X9040504Y-18623157D02*
X9050028Y-18632681D01*
X9050028Y-18632681D02*
X9059552Y-18651729D01*
X9059552Y-18651729D02*
X9069075Y-18689824D01*
X9069075Y-18689824D02*
X9069075Y-18737443D01*
X9069075Y-18737443D02*
X9059552Y-18775538D01*
X9059552Y-18775538D02*
X9050028Y-18794586D01*
X9050028Y-18794586D02*
X9040504Y-18804110D01*
X9040504Y-18804110D02*
X9021456Y-18813633D01*
X9021456Y-18813633D02*
X9002409Y-18813633D01*
X9002409Y-18813633D02*
X8983361Y-18804110D01*
X8983361Y-18804110D02*
X8973837Y-18794586D01*
X8973837Y-18794586D02*
X8964313Y-18775538D01*
X8964313Y-18775538D02*
X8954790Y-18737443D01*
X8954790Y-18737443D02*
X8954790Y-18689824D01*
X8954790Y-18689824D02*
X8964313Y-18651729D01*
X8964313Y-18651729D02*
X8973837Y-18632681D01*
X8973837Y-18632681D02*
X8983361Y-18623157D01*
X8983361Y-18623157D02*
X9002409Y-18613633D01*
X9145266Y-18613633D02*
X9145266Y-18651729D01*
X9221456Y-18613633D02*
X9221456Y-18651729D01*
X9516695Y-18889824D02*
X9507171Y-18880300D01*
X9507171Y-18880300D02*
X9488123Y-18851729D01*
X9488123Y-18851729D02*
X9478599Y-18832681D01*
X9478599Y-18832681D02*
X9469075Y-18804110D01*
X9469075Y-18804110D02*
X9459552Y-18756490D01*
X9459552Y-18756490D02*
X9459552Y-18718395D01*
X9459552Y-18718395D02*
X9469075Y-18670776D01*
X9469075Y-18670776D02*
X9478599Y-18642205D01*
X9478599Y-18642205D02*
X9488123Y-18623157D01*
X9488123Y-18623157D02*
X9507171Y-18594586D01*
X9507171Y-18594586D02*
X9516695Y-18585062D01*
X9697647Y-18813633D02*
X9583361Y-18813633D01*
X9640504Y-18813633D02*
X9640504Y-18613633D01*
X9640504Y-18613633D02*
X9621456Y-18642205D01*
X9621456Y-18642205D02*
X9602409Y-18661252D01*
X9602409Y-18661252D02*
X9583361Y-18670776D01*
X9821456Y-18613633D02*
X9840504Y-18613633D01*
X9840504Y-18613633D02*
X9859552Y-18623157D01*
X9859552Y-18623157D02*
X9869075Y-18632681D01*
X9869075Y-18632681D02*
X9878599Y-18651729D01*
X9878599Y-18651729D02*
X9888123Y-18689824D01*
X9888123Y-18689824D02*
X9888123Y-18737443D01*
X9888123Y-18737443D02*
X9878599Y-18775538D01*
X9878599Y-18775538D02*
X9869075Y-18794586D01*
X9869075Y-18794586D02*
X9859552Y-18804110D01*
X9859552Y-18804110D02*
X9840504Y-18813633D01*
X9840504Y-18813633D02*
X9821456Y-18813633D01*
X9821456Y-18813633D02*
X9802409Y-18804110D01*
X9802409Y-18804110D02*
X9792885Y-18794586D01*
X9792885Y-18794586D02*
X9783361Y-18775538D01*
X9783361Y-18775538D02*
X9773837Y-18737443D01*
X9773837Y-18737443D02*
X9773837Y-18689824D01*
X9773837Y-18689824D02*
X9783361Y-18651729D01*
X9783361Y-18651729D02*
X9792885Y-18632681D01*
X9792885Y-18632681D02*
X9802409Y-18623157D01*
X9802409Y-18623157D02*
X9821456Y-18613633D01*
X10059552Y-18613633D02*
X10021456Y-18613633D01*
X10021456Y-18613633D02*
X10002409Y-18623157D01*
X10002409Y-18623157D02*
X9992885Y-18632681D01*
X9992885Y-18632681D02*
X9973837Y-18661252D01*
X9973837Y-18661252D02*
X9964314Y-18699348D01*
X9964314Y-18699348D02*
X9964314Y-18775538D01*
X9964314Y-18775538D02*
X9973837Y-18794586D01*
X9973837Y-18794586D02*
X9983361Y-18804110D01*
X9983361Y-18804110D02*
X10002409Y-18813633D01*
X10002409Y-18813633D02*
X10040504Y-18813633D01*
X10040504Y-18813633D02*
X10059552Y-18804110D01*
X10059552Y-18804110D02*
X10069075Y-18794586D01*
X10069075Y-18794586D02*
X10078599Y-18775538D01*
X10078599Y-18775538D02*
X10078599Y-18727919D01*
X10078599Y-18727919D02*
X10069075Y-18708871D01*
X10069075Y-18708871D02*
X10059552Y-18699348D01*
X10059552Y-18699348D02*
X10040504Y-18689824D01*
X10040504Y-18689824D02*
X10002409Y-18689824D01*
X10002409Y-18689824D02*
X9983361Y-18699348D01*
X9983361Y-18699348D02*
X9973837Y-18708871D01*
X9973837Y-18708871D02*
X9964314Y-18727919D01*
X10316695Y-18813633D02*
X10316695Y-18613633D01*
X10402409Y-18813633D02*
X10402409Y-18708871D01*
X10402409Y-18708871D02*
X10392885Y-18689824D01*
X10392885Y-18689824D02*
X10373837Y-18680300D01*
X10373837Y-18680300D02*
X10345266Y-18680300D01*
X10345266Y-18680300D02*
X10326218Y-18689824D01*
X10326218Y-18689824D02*
X10316695Y-18699348D01*
X10526218Y-18813633D02*
X10507171Y-18804110D01*
X10507171Y-18804110D02*
X10497647Y-18794586D01*
X10497647Y-18794586D02*
X10488123Y-18775538D01*
X10488123Y-18775538D02*
X10488123Y-18718395D01*
X10488123Y-18718395D02*
X10497647Y-18699348D01*
X10497647Y-18699348D02*
X10507171Y-18689824D01*
X10507171Y-18689824D02*
X10526218Y-18680300D01*
X10526218Y-18680300D02*
X10554790Y-18680300D01*
X10554790Y-18680300D02*
X10573837Y-18689824D01*
X10573837Y-18689824D02*
X10583361Y-18699348D01*
X10583361Y-18699348D02*
X10592885Y-18718395D01*
X10592885Y-18718395D02*
X10592885Y-18775538D01*
X10592885Y-18775538D02*
X10583361Y-18794586D01*
X10583361Y-18794586D02*
X10573837Y-18804110D01*
X10573837Y-18804110D02*
X10554790Y-18813633D01*
X10554790Y-18813633D02*
X10526218Y-18813633D01*
X10707171Y-18813633D02*
X10688123Y-18804110D01*
X10688123Y-18804110D02*
X10678599Y-18785062D01*
X10678599Y-18785062D02*
X10678599Y-18613633D01*
X10859552Y-18804110D02*
X10840504Y-18813633D01*
X10840504Y-18813633D02*
X10802409Y-18813633D01*
X10802409Y-18813633D02*
X10783361Y-18804110D01*
X10783361Y-18804110D02*
X10773837Y-18785062D01*
X10773837Y-18785062D02*
X10773837Y-18708871D01*
X10773837Y-18708871D02*
X10783361Y-18689824D01*
X10783361Y-18689824D02*
X10802409Y-18680300D01*
X10802409Y-18680300D02*
X10840504Y-18680300D01*
X10840504Y-18680300D02*
X10859552Y-18689824D01*
X10859552Y-18689824D02*
X10869076Y-18708871D01*
X10869076Y-18708871D02*
X10869076Y-18727919D01*
X10869076Y-18727919D02*
X10773837Y-18746967D01*
X10945266Y-18804110D02*
X10964314Y-18813633D01*
X10964314Y-18813633D02*
X11002409Y-18813633D01*
X11002409Y-18813633D02*
X11021457Y-18804110D01*
X11021457Y-18804110D02*
X11030980Y-18785062D01*
X11030980Y-18785062D02*
X11030980Y-18775538D01*
X11030980Y-18775538D02*
X11021457Y-18756490D01*
X11021457Y-18756490D02*
X11002409Y-18746967D01*
X11002409Y-18746967D02*
X10973837Y-18746967D01*
X10973837Y-18746967D02*
X10954790Y-18737443D01*
X10954790Y-18737443D02*
X10945266Y-18718395D01*
X10945266Y-18718395D02*
X10945266Y-18708871D01*
X10945266Y-18708871D02*
X10954790Y-18689824D01*
X10954790Y-18689824D02*
X10973837Y-18680300D01*
X10973837Y-18680300D02*
X11002409Y-18680300D01*
X11002409Y-18680300D02*
X11021457Y-18689824D01*
X11097647Y-18889824D02*
X11107171Y-18880300D01*
X11107171Y-18880300D02*
X11126218Y-18851729D01*
X11126218Y-18851729D02*
X11135742Y-18832681D01*
X11135742Y-18832681D02*
X11145266Y-18804110D01*
X11145266Y-18804110D02*
X11154790Y-18756490D01*
X11154790Y-18756490D02*
X11154790Y-18718395D01*
X11154790Y-18718395D02*
X11145266Y-18670776D01*
X11145266Y-18670776D02*
X11135742Y-18642205D01*
X11135742Y-18642205D02*
X11126218Y-18623157D01*
X11126218Y-18623157D02*
X11107171Y-18594586D01*
X11107171Y-18594586D02*
X11097647Y-18585062D01*
X11459552Y-18889824D02*
X11450028Y-18880300D01*
X11450028Y-18880300D02*
X11430980Y-18851729D01*
X11430980Y-18851729D02*
X11421456Y-18832681D01*
X11421456Y-18832681D02*
X11411933Y-18804110D01*
X11411933Y-18804110D02*
X11402409Y-18756490D01*
X11402409Y-18756490D02*
X11402409Y-18718395D01*
X11402409Y-18718395D02*
X11411933Y-18670776D01*
X11411933Y-18670776D02*
X11421456Y-18642205D01*
X11421456Y-18642205D02*
X11430980Y-18623157D01*
X11430980Y-18623157D02*
X11450028Y-18594586D01*
X11450028Y-18594586D02*
X11459552Y-18585062D01*
X11535742Y-18680300D02*
X11535742Y-18813633D01*
X11535742Y-18699348D02*
X11545266Y-18689824D01*
X11545266Y-18689824D02*
X11564314Y-18680300D01*
X11564314Y-18680300D02*
X11592885Y-18680300D01*
X11592885Y-18680300D02*
X11611933Y-18689824D01*
X11611933Y-18689824D02*
X11621456Y-18708871D01*
X11621456Y-18708871D02*
X11621456Y-18813633D01*
X11745266Y-18813633D02*
X11726218Y-18804110D01*
X11726218Y-18804110D02*
X11716695Y-18794586D01*
X11716695Y-18794586D02*
X11707171Y-18775538D01*
X11707171Y-18775538D02*
X11707171Y-18718395D01*
X11707171Y-18718395D02*
X11716695Y-18699348D01*
X11716695Y-18699348D02*
X11726218Y-18689824D01*
X11726218Y-18689824D02*
X11745266Y-18680300D01*
X11745266Y-18680300D02*
X11773837Y-18680300D01*
X11773837Y-18680300D02*
X11792885Y-18689824D01*
X11792885Y-18689824D02*
X11802409Y-18699348D01*
X11802409Y-18699348D02*
X11811933Y-18718395D01*
X11811933Y-18718395D02*
X11811933Y-18775538D01*
X11811933Y-18775538D02*
X11802409Y-18794586D01*
X11802409Y-18794586D02*
X11792885Y-18804110D01*
X11792885Y-18804110D02*
X11773837Y-18813633D01*
X11773837Y-18813633D02*
X11745266Y-18813633D01*
X11869076Y-18680300D02*
X11945266Y-18680300D01*
X11897647Y-18613633D02*
X11897647Y-18785062D01*
X11897647Y-18785062D02*
X11907171Y-18804110D01*
X11907171Y-18804110D02*
X11926218Y-18813633D01*
X11926218Y-18813633D02*
X11945266Y-18813633D01*
X12164314Y-18680300D02*
X12164314Y-18880300D01*
X12164314Y-18689824D02*
X12183361Y-18680300D01*
X12183361Y-18680300D02*
X12221457Y-18680300D01*
X12221457Y-18680300D02*
X12240504Y-18689824D01*
X12240504Y-18689824D02*
X12250028Y-18699348D01*
X12250028Y-18699348D02*
X12259552Y-18718395D01*
X12259552Y-18718395D02*
X12259552Y-18775538D01*
X12259552Y-18775538D02*
X12250028Y-18794586D01*
X12250028Y-18794586D02*
X12240504Y-18804110D01*
X12240504Y-18804110D02*
X12221457Y-18813633D01*
X12221457Y-18813633D02*
X12183361Y-18813633D01*
X12183361Y-18813633D02*
X12164314Y-18804110D01*
X12373837Y-18813633D02*
X12354790Y-18804110D01*
X12354790Y-18804110D02*
X12345266Y-18785062D01*
X12345266Y-18785062D02*
X12345266Y-18613633D01*
X12535742Y-18813633D02*
X12535742Y-18708871D01*
X12535742Y-18708871D02*
X12526218Y-18689824D01*
X12526218Y-18689824D02*
X12507171Y-18680300D01*
X12507171Y-18680300D02*
X12469076Y-18680300D01*
X12469076Y-18680300D02*
X12450028Y-18689824D01*
X12535742Y-18804110D02*
X12516695Y-18813633D01*
X12516695Y-18813633D02*
X12469076Y-18813633D01*
X12469076Y-18813633D02*
X12450028Y-18804110D01*
X12450028Y-18804110D02*
X12440504Y-18785062D01*
X12440504Y-18785062D02*
X12440504Y-18766014D01*
X12440504Y-18766014D02*
X12450028Y-18746967D01*
X12450028Y-18746967D02*
X12469076Y-18737443D01*
X12469076Y-18737443D02*
X12516695Y-18737443D01*
X12516695Y-18737443D02*
X12535742Y-18727919D01*
X12602409Y-18680300D02*
X12678599Y-18680300D01*
X12630980Y-18613633D02*
X12630980Y-18785062D01*
X12630980Y-18785062D02*
X12640504Y-18804110D01*
X12640504Y-18804110D02*
X12659552Y-18813633D01*
X12659552Y-18813633D02*
X12678599Y-18813633D01*
X12821457Y-18804110D02*
X12802409Y-18813633D01*
X12802409Y-18813633D02*
X12764314Y-18813633D01*
X12764314Y-18813633D02*
X12745266Y-18804110D01*
X12745266Y-18804110D02*
X12735742Y-18785062D01*
X12735742Y-18785062D02*
X12735742Y-18708871D01*
X12735742Y-18708871D02*
X12745266Y-18689824D01*
X12745266Y-18689824D02*
X12764314Y-18680300D01*
X12764314Y-18680300D02*
X12802409Y-18680300D01*
X12802409Y-18680300D02*
X12821457Y-18689824D01*
X12821457Y-18689824D02*
X12830980Y-18708871D01*
X12830980Y-18708871D02*
X12830980Y-18727919D01*
X12830980Y-18727919D02*
X12735742Y-18746967D01*
X13002409Y-18813633D02*
X13002409Y-18613633D01*
X13002409Y-18804110D02*
X12983361Y-18813633D01*
X12983361Y-18813633D02*
X12945266Y-18813633D01*
X12945266Y-18813633D02*
X12926218Y-18804110D01*
X12926218Y-18804110D02*
X12916695Y-18794586D01*
X12916695Y-18794586D02*
X12907171Y-18775538D01*
X12907171Y-18775538D02*
X12907171Y-18718395D01*
X12907171Y-18718395D02*
X12916695Y-18699348D01*
X12916695Y-18699348D02*
X12926218Y-18689824D01*
X12926218Y-18689824D02*
X12945266Y-18680300D01*
X12945266Y-18680300D02*
X12983361Y-18680300D01*
X12983361Y-18680300D02*
X13002409Y-18689824D01*
X13078599Y-18889824D02*
X13088123Y-18880300D01*
X13088123Y-18880300D02*
X13107171Y-18851729D01*
X13107171Y-18851729D02*
X13116695Y-18832681D01*
X13116695Y-18832681D02*
X13126218Y-18804110D01*
X13126218Y-18804110D02*
X13135742Y-18756490D01*
X13135742Y-18756490D02*
X13135742Y-18718395D01*
X13135742Y-18718395D02*
X13126218Y-18670776D01*
X13126218Y-18670776D02*
X13116695Y-18642205D01*
X13116695Y-18642205D02*
X13107171Y-18623157D01*
X13107171Y-18623157D02*
X13088123Y-18594586D01*
X13088123Y-18594586D02*
X13078599Y-18585062D01*
M02*
