M48
; DRILL file {KiCad 7.0.1} date R 19 mai   2023 17:42:20
; FORMAT={-:-/ absolute / metric / decimal}
; #@! TF.CreationDate,2023-05-19T17:42:20+03:00
; #@! TF.GenerationSoftware,Kicad,Pcbnew,7.0.1
; #@! TF.FileFunction,Plated,1,2,PTH
FMAT,2
METRIC
; #@! TA.AperFunction,Plated,PTH,ViaDrill
T1C0.300
; #@! TA.AperFunction,Plated,PTH,ViaDrill
T2C0.400
; #@! TA.AperFunction,Plated,PTH,ComponentDrill
T3C1.000
; #@! TA.AperFunction,Plated,PTH,ComponentDrill
T4C1.524
; #@! TA.AperFunction,Plated,PTH,ComponentDrill
T5C3.048
%
G90
G05
T1
X63.5Y-150.622
X64.77Y-145.034
X64.77Y-147.32
X67.564Y-140.843
X71.577Y-137.719
X79.248Y-133.096
X82.197Y-122.008
X85.598Y-122.428
X85.954Y-127.051
X86.652Y-130.604
X89.408Y-118.364
X89.488Y-130.094
X90.043Y-122.809
X90.043Y-126.961
X92.71Y-131.572
X95.017Y-125.709
X99.771Y-120.752
X101.981Y-95.885
X104.521Y-95.885
T2
X61.722Y-155.702
X63.246Y-125.73
X63.373Y-133.223
X63.754Y-154.813
X65.278Y-126.873
X65.278Y-175.641
X65.634Y-132.613
X66.167Y-107.442
X66.167Y-156.718
X66.548Y-124.079
X67.564Y-124.587
X67.564Y-133.604
X68.072Y-132.207
X68.199Y-136.271
X68.199Y-154.813
X68.707Y-125.349
X69.088Y-133.985
X69.596Y-137.16
X69.85Y-107.442
X70.104Y-134.239
X70.231Y-136.271
X72.009Y-125.603
X72.39Y-133.985
X72.517Y-138.43
X72.771Y-101.6
X72.771Y-103.886
X73.279Y-139.446
X73.66Y-133.096
X74.041Y-104.775
X74.93Y-100.838
X74.93Y-128.27
X75.438Y-101.727
X75.438Y-104.013
X76.327Y-126.619
X76.454Y-139.446
X77.216Y-128.143
X77.216Y-138.684
X78.105Y-116.586
X79.502Y-122.428
X80.518Y-114.935
X81.026Y-125.476
X82.423Y-139.065
X83.312Y-98.933
X83.947Y-132.715
X84.201Y-117.856
X84.455Y-101.219
X85.471Y-98.171
X85.725Y-100.076
X86.261Y-133.057
X87.02Y-123.869
X87.02Y-124.885
X87.02Y-125.901
X87.691Y-119.047
X88.036Y-123.869
X88.036Y-124.885
X88.036Y-125.901
X89.027Y-106.045
X89.052Y-123.869
X89.052Y-124.885
X89.052Y-125.901
X89.182Y-136.779
X90.17Y-115.468
X90.297Y-104.394
X90.678Y-107.315
X90.932Y-116.586
X90.932Y-154.813
X91.44Y-113.538
X91.948Y-106.172
X92.075Y-109.093
X93.853Y-107.442
X94.996Y-121.666
X98.044Y-101.854
X98.425Y-138.43
X98.933Y-98.425
X99.822Y-109.728
X102.362Y-97.79
X104.775Y-102.489
X106.553Y-101.727
X106.807Y-104.521
X106.934Y-138.557
X107.569Y-157.48
X108.077Y-103.124
X110.109Y-155.321
X110.998Y-103.251
X112.776Y-114.427
X114.3Y-116.332
X116.586Y-118.872
X116.713Y-115.062
X116.967Y-136.398
X118.872Y-117.221
X119.253Y-138.557
X121.92Y-101.727
X123.444Y-96.393
X131.318Y-119.507
X133.604Y-117.221
X136.017Y-136.271
X138.176Y-138.43
X140.843Y-100.33
X143.51Y-98.044
X150.622Y-117.475
X152.781Y-119.253
X155.194Y-136.144
X157.353Y-138.303
X159.893Y-100.33
X162.433Y-98.171
X164.846Y-157.353
X167.259Y-155.448
X169.291Y-119.507
X171.958Y-117.094
X174.117Y-136.017
X176.403Y-138.43
X178.435Y-100.457
X181.737Y-98.044
X183.515Y-155.448
X186.055Y-157.861
X188.087Y-119.507
X191.008Y-117.094
X193.04Y-136.144
X195.453Y-138.557
X197.866Y-100.33
X200.533Y-98.171
X207.645Y-119.253
X209.677Y-117.348
X212.344Y-136.271
X214.884Y-138.557
X217.17Y-100.203
X219.71Y-98.171
X222.504Y-157.48
X224.028Y-155.321
X226.06Y-119.253
X228.219Y-117.348
X231.521Y-136.271
X233.426Y-138.303
X235.966Y-100.457
X238.633Y-98.171
X244.729Y-155.575
X244.983Y-119.126
X247.269Y-117.348
X249.174Y-157.353
X250.444Y-136.398
X252.476Y-138.557
X255.016Y-100.457
X257.81Y-98.044
X264.16Y-119.126
X266.319Y-117.348
X269.494Y-136.398
X271.526Y-138.43
X274.32Y-100.203
X276.733Y-98.298
X278.384Y-155.321
X281.305Y-157.607
X283.083Y-119.38
X285.369Y-117.348
X287.909Y-136.271
X290.449Y-138.557
X293.116Y-100.33
X293.624Y-136.652
X295.148Y-137.541
X295.529Y-98.298
X297.307Y-137.541
X297.942Y-136.144
X302.133Y-119.253
X302.387Y-136.906
X304.419Y-117.221
X304.419Y-134.874
X305.689Y-118.364
X307.848Y-155.321
X309.372Y-157.353
X311.785Y-118.364
X313.69Y-123.952
X314.452Y-110.871
X314.452Y-113.411
X315.341Y-119.888
X315.722Y-98.679
X315.722Y-112.522
X316.23Y-127.508
X317.373Y-97.663
X318.262Y-101.6
X318.389Y-96.52
X319.151Y-116.205
X320.548Y-100.711
X320.548Y-118.745
X320.675Y-97.663
X320.675Y-99.441
X322.707Y-120.142
X323.215Y-116.459
X327.279Y-115.57
X328.295Y-124.968
X330.708Y-127.381
X330.962Y-137.668
X330.962Y-155.321
X331.343Y-128.397
X332.232Y-125.73
X333.375Y-135.382
X333.375Y-157.353
X340.868Y-119.507
X341.249Y-115.57
X343.535Y-117.348
X349.631Y-119.761
X350.139Y-97.155
X350.139Y-137.541
X350.139Y-157.607
X352.425Y-135.382
X352.425Y-155.321
X352.552Y-117.221
X352.933Y-99.695
T3
X62.23Y-141.224
X62.23Y-143.764
X62.23Y-146.304
X62.23Y-148.844
X62.23Y-151.384
T4
X65.246Y-90.329
X67.627Y-128.429
X67.627Y-147.479
X67.627Y-166.529
X70.009Y-109.379
X70.009Y-166.529
X71.596Y-87.789
X72.39Y-128.429
X73.977Y-125.889
X73.977Y-144.939
X73.977Y-163.989
X76.359Y-106.839
X76.359Y-163.989
X77.153Y-147.479
X78.74Y-125.889
X83.502Y-144.939
X84.296Y-90.329
X89.059Y-147.479
X90.646Y-87.789
X91.44Y-166.529
X93.821Y-109.379
X93.821Y-166.529
X95.409Y-144.939
X97.79Y-163.989
X98.584Y-128.429
X100.171Y-106.839
X100.171Y-163.989
X103.346Y-90.329
X104.934Y-125.889
X108.109Y-147.479
X109.696Y-87.789
X112.871Y-109.379
X114.459Y-144.939
X115.252Y-166.529
X117.634Y-128.429
X117.634Y-166.529
X119.221Y-106.839
X121.602Y-163.989
X122.396Y-90.329
X123.984Y-125.889
X123.984Y-163.989
X127.159Y-147.479
X128.746Y-87.789
X131.921Y-109.379
X133.509Y-144.939
X136.684Y-128.429
X138.271Y-106.839
X141.446Y-90.329
X143.034Y-125.889
X146.209Y-147.479
X147.796Y-87.789
X150.971Y-109.379
X152.559Y-144.939
X153.352Y-166.529
X155.734Y-128.429
X157.321Y-106.839
X159.702Y-163.989
X160.496Y-90.329
X160.496Y-166.529
X162.084Y-125.889
X165.259Y-147.479
X166.846Y-87.789
X166.846Y-163.989
X170.021Y-109.379
X171.609Y-144.939
X174.784Y-128.429
X176.371Y-106.839
X179.546Y-90.329
X181.134Y-125.889
X184.309Y-147.479
X185.896Y-87.789
X186.69Y-166.529
X189.071Y-109.379
X190.659Y-144.939
X193.04Y-163.989
X193.834Y-128.429
X193.834Y-166.529
X195.421Y-106.839
X198.596Y-90.329
X198.596Y-166.529
X200.184Y-125.889
X200.184Y-163.989
X203.359Y-147.479
X204.946Y-87.789
X204.946Y-163.989
X208.121Y-109.379
X209.709Y-144.939
X212.884Y-128.429
X214.471Y-106.839
X217.646Y-90.329
X219.234Y-125.889
X222.409Y-147.479
X223.996Y-87.789
X227.171Y-109.379
X228.759Y-144.939
X231.934Y-128.429
X233.521Y-106.839
X236.696Y-90.329
X236.696Y-166.529
X238.284Y-125.889
X239.077Y-166.529
X241.459Y-147.479
X243.046Y-87.789
X243.046Y-163.989
X245.427Y-163.989
X246.221Y-109.379
X247.809Y-144.939
X250.984Y-128.429
X252.571Y-106.839
X255.746Y-90.329
X257.334Y-125.889
X258.127Y-166.529
X260.509Y-147.479
X262.096Y-87.789
X264.477Y-163.989
X265.271Y-109.379
X266.859Y-144.939
X270.034Y-128.429
X271.621Y-106.839
X274.796Y-90.329
X276.384Y-125.889
X279.559Y-147.479
X279.559Y-166.529
X281.146Y-87.789
X281.94Y-166.529
X284.321Y-109.379
X285.909Y-144.939
X285.909Y-163.989
X288.29Y-163.989
X289.084Y-128.429
X290.671Y-106.839
X293.846Y-90.329
X295.434Y-125.889
X300.196Y-87.789
X303.371Y-109.379
X305.752Y-147.479
X308.134Y-128.429
X309.721Y-106.839
X312.102Y-144.939
X312.896Y-90.329
X312.896Y-166.529
X314.484Y-125.889
X319.246Y-87.789
X319.246Y-163.989
X320.04Y-128.429
X322.421Y-90.329
X326.39Y-125.889
X327.184Y-109.379
X328.771Y-87.789
X329.565Y-118.904
X331.946Y-147.479
X331.946Y-166.529
X331.978Y-90.297
X333.534Y-106.839
X335.915Y-116.364
X338.296Y-144.939
X338.296Y-163.989
X338.328Y-87.757
X350.996Y-109.379
X350.996Y-128.429
X350.996Y-147.479
X350.996Y-166.529
X351.028Y-90.297
X357.346Y-106.839
X357.346Y-125.889
X357.346Y-144.939
X357.346Y-163.989
X357.378Y-87.757
T5
X69.056Y-143.034
X92.869Y-143.034
X133.35Y-176.054
X138.112Y-176.054
X147.637Y-176.054
X152.4Y-176.054
X176.213Y-176.054
X176.213Y-176.054
X190.5Y-176.054
X214.312Y-176.054
X221.456Y-176.054
X230.981Y-176.054
X247.65Y-176.054
X247.65Y-176.054
X254.794Y-176.054
X259.556Y-176.054
X300.037Y-123.984
X314.325Y-85.852
X323.85Y-123.984
X338.137Y-85.852
X340.36Y-109.537
X340.36Y-133.35
T0
M30
