%TF.GenerationSoftware,KiCad,Pcbnew,7.0.2-0*%
%TF.CreationDate,2023-05-06T19:11:34+03:00*%
%TF.ProjectId,rp2040-bakeneko65,72703230-3430-42d6-9261-6b656e656b6f,rev?*%
%TF.SameCoordinates,Original*%
%TF.FileFunction,Drillmap*%
%TF.FilePolarity,Positive*%
%FSLAX45Y45*%
G04 Gerber Fmt 4.5, Leading zero omitted, Abs format (unit mm)*
G04 Created by KiCad (PCBNEW 7.0.2-0) date 2023-05-06 19:11:34*
%MOMM*%
%LPD*%
G01*
G04 APERTURE LIST*
%ADD10C,0.200000*%
%ADD11C,0.040000*%
%ADD12C,0.100000*%
%ADD13C,0.152400*%
%ADD14C,0.304800*%
G04 APERTURE END LIST*
D10*
X5964790Y-17551110D02*
G75*
G03*
X6189789Y-17776110I225000J-1D01*
G01*
X29797289Y-15871109D02*
G75*
G03*
X29672289Y-15996109I-9J-124991D01*
G01*
X6189789Y-8356109D02*
G75*
G03*
X5964789Y-8581110I-9J-224991D01*
G01*
X8229600Y-8356113D02*
G75*
G03*
X8096597Y-8436755I-10J-149987D01*
G01*
X29447289Y-17776110D02*
X27755850Y-17776110D01*
X10738729Y-17776110D02*
X6189789Y-17776110D01*
X26931229Y-17776112D02*
G75*
G03*
X27064232Y-17695464I-9J150012D01*
G01*
X32169979Y-17776110D02*
X30954789Y-17776110D01*
X34207982Y-8436755D02*
G75*
G03*
X34766597Y-8436755I279307J145645D01*
G01*
X30729790Y-17551110D02*
G75*
G03*
X30954789Y-17776110I225000J-1D01*
G01*
X36114789Y-17776109D02*
G75*
G03*
X36339789Y-17551110I-9J225009D01*
G01*
X10738729Y-17776112D02*
G75*
G03*
X10871732Y-17695464I-9J150012D01*
G01*
X18967979Y-8436757D02*
G75*
G03*
X18834979Y-8356109I-132999J-69344D01*
G01*
X29797289Y-15871109D02*
X30604789Y-15871109D01*
X26931229Y-17776110D02*
X11563350Y-17776110D01*
X34074979Y-8356109D02*
X19659600Y-8356109D01*
X30729789Y-15996109D02*
X30729789Y-17551110D01*
X18834979Y-8356109D02*
X8229600Y-8356109D01*
X36114789Y-17776110D02*
X32994600Y-17776110D01*
X32861602Y-17695462D02*
G75*
G03*
X32994600Y-17776110I132998J69342D01*
G01*
X36339791Y-8581110D02*
G75*
G03*
X36114789Y-8356109I-225001J-1D01*
G01*
X7537979Y-8436757D02*
G75*
G03*
X7404979Y-8356109I-132999J-69344D01*
G01*
X11430352Y-17695462D02*
G75*
G03*
X11563350Y-17776110I132998J69342D01*
G01*
X32169979Y-17776112D02*
G75*
G03*
X32302982Y-17695464I-9J150012D01*
G01*
X32861597Y-17695464D02*
G75*
G03*
X32302982Y-17695464I-279307J-145645D01*
G01*
X36114789Y-8356109D02*
X34899600Y-8356109D01*
X27622847Y-17695464D02*
G75*
G03*
X27064232Y-17695464I-279307J-145645D01*
G01*
X29672289Y-15996109D02*
X29672289Y-17551110D01*
X30729790Y-15996109D02*
G75*
G03*
X30604789Y-15871109I-125001J-1D01*
G01*
X7537982Y-8436755D02*
G75*
G03*
X8096596Y-8436755I279307J145645D01*
G01*
X12619789Y-10106110D02*
G75*
G03*
X12619789Y-10106110I-50000J0D01*
G01*
X34899600Y-8356113D02*
G75*
G03*
X34766597Y-8436755I-10J-149987D01*
G01*
X11430347Y-17695464D02*
G75*
G03*
X10871732Y-17695464I-279307J-145645D01*
G01*
X18967982Y-8436755D02*
G75*
G03*
X19526597Y-8436755I279307J145645D01*
G01*
X19659600Y-8356113D02*
G75*
G03*
X19526597Y-8436755I-10J-149987D01*
G01*
X36339789Y-17551110D02*
X36339789Y-8581110D01*
X29447289Y-17776109D02*
G75*
G03*
X29672289Y-17551110I-9J225009D01*
G01*
X27622852Y-17695462D02*
G75*
G03*
X27755850Y-17776110I132998J69342D01*
G01*
X34207979Y-8436757D02*
G75*
G03*
X34074979Y-8356109I-132999J-69344D01*
G01*
X7404979Y-8356109D02*
X6189789Y-8356109D01*
X5964789Y-17551110D02*
X5964789Y-8581110D01*
D11*
X6152200Y-15550200D02*
X6192200Y-15590200D01*
X6192200Y-15550200D02*
X6152200Y-15590200D01*
X6330000Y-12553000D02*
X6370000Y-12593000D01*
X6370000Y-12553000D02*
X6330000Y-12593000D01*
X6330000Y-14458000D02*
X6370000Y-14498000D01*
X6370000Y-14458000D02*
X6330000Y-14498000D01*
X6330000Y-15029500D02*
X6370000Y-15069500D01*
X6370000Y-15029500D02*
X6330000Y-15069500D01*
X6457000Y-14483400D02*
X6497000Y-14523400D01*
X6497000Y-14483400D02*
X6457000Y-14523400D01*
X6457000Y-14712000D02*
X6497000Y-14752000D01*
X6497000Y-14712000D02*
X6457000Y-14752000D01*
X6482400Y-12667300D02*
X6522400Y-12707300D01*
X6522400Y-12667300D02*
X6482400Y-12707300D01*
X6507800Y-17544100D02*
X6547800Y-17584100D01*
X6547800Y-17544100D02*
X6507800Y-17584100D01*
X6558600Y-13556300D02*
X6598600Y-13596300D01*
X6598600Y-13556300D02*
X6558600Y-13596300D01*
X6634800Y-12387900D02*
X6674800Y-12427900D01*
X6674800Y-12387900D02*
X6634800Y-12427900D01*
X6716080Y-14092240D02*
X6756080Y-14132240D01*
X6756080Y-14092240D02*
X6716080Y-14132240D01*
X6736400Y-12438700D02*
X6776400Y-12478700D01*
X6776400Y-12438700D02*
X6736400Y-12478700D01*
X6736400Y-13340400D02*
X6776400Y-13380400D01*
X6776400Y-13340400D02*
X6736400Y-13380400D01*
X6787200Y-13200700D02*
X6827200Y-13240700D01*
X6827200Y-13200700D02*
X6787200Y-13240700D01*
X6799900Y-13429300D02*
X6839900Y-13469300D01*
X6839900Y-13429300D02*
X6799900Y-13469300D01*
X6799900Y-13607100D02*
X6839900Y-13647100D01*
X6839900Y-13607100D02*
X6799900Y-13647100D01*
X6850700Y-12514900D02*
X6890700Y-12554900D01*
X6890700Y-12514900D02*
X6850700Y-12554900D01*
X6888800Y-13378500D02*
X6928800Y-13418500D01*
X6928800Y-13378500D02*
X6888800Y-13418500D01*
X6909650Y-13996250D02*
X6949650Y-14036250D01*
X6949650Y-13996250D02*
X6909650Y-14036250D01*
X6939600Y-13696000D02*
X6979600Y-13736000D01*
X6979600Y-13696000D02*
X6939600Y-13736000D01*
X6990400Y-13403900D02*
X7030400Y-13443900D01*
X7030400Y-13403900D02*
X6990400Y-13443900D01*
X6990400Y-13594400D02*
X7030400Y-13634400D01*
X7030400Y-13594400D02*
X6990400Y-13634400D01*
X7137720Y-13751880D02*
X7177720Y-13791880D01*
X7177720Y-13751880D02*
X7137720Y-13791880D01*
X7142800Y-14115100D02*
X7182800Y-14155100D01*
X7182800Y-14115100D02*
X7142800Y-14155100D01*
X7180900Y-12540300D02*
X7220900Y-12580300D01*
X7220900Y-12540300D02*
X7180900Y-12580300D01*
X7219000Y-13378500D02*
X7259000Y-13418500D01*
X7259000Y-13378500D02*
X7219000Y-13418500D01*
X7231700Y-13823000D02*
X7271700Y-13863000D01*
X7271700Y-13823000D02*
X7231700Y-13863000D01*
X7257100Y-10140000D02*
X7297100Y-10180000D01*
X7297100Y-10140000D02*
X7257100Y-10180000D01*
X7257100Y-10368600D02*
X7297100Y-10408600D01*
X7297100Y-10368600D02*
X7257100Y-10408600D01*
X7307900Y-13937300D02*
X7347900Y-13977300D01*
X7347900Y-13937300D02*
X7307900Y-13977300D01*
X7346000Y-13289600D02*
X7386000Y-13329600D01*
X7386000Y-13289600D02*
X7346000Y-13329600D01*
X7384100Y-10457500D02*
X7424100Y-10497500D01*
X7424100Y-10457500D02*
X7384100Y-10497500D01*
X7473000Y-10063800D02*
X7513000Y-10103800D01*
X7513000Y-10063800D02*
X7473000Y-10103800D01*
X7473000Y-12807000D02*
X7513000Y-12847000D01*
X7513000Y-12807000D02*
X7473000Y-12847000D01*
X7523800Y-10140000D02*
X7563800Y-10180000D01*
X7563800Y-10140000D02*
X7523800Y-10180000D01*
X7523800Y-10381300D02*
X7563800Y-10421300D01*
X7563800Y-10381300D02*
X7523800Y-10421300D01*
X7612700Y-12641900D02*
X7652700Y-12681900D01*
X7652700Y-12641900D02*
X7612700Y-12681900D01*
X7625400Y-13924600D02*
X7665400Y-13964600D01*
X7665400Y-13924600D02*
X7625400Y-13964600D01*
X7701600Y-12794300D02*
X7741600Y-12834300D01*
X7741600Y-12794300D02*
X7701600Y-12834300D01*
X7701600Y-13848400D02*
X7741600Y-13888400D01*
X7741600Y-13848400D02*
X7701600Y-13888400D01*
X7790500Y-11638600D02*
X7830500Y-11678600D01*
X7830500Y-11638600D02*
X7790500Y-11678600D01*
X7904800Y-13289600D02*
X7944800Y-13329600D01*
X7944800Y-13289600D02*
X7904800Y-13329600D01*
X7930200Y-12222800D02*
X7970200Y-12262800D01*
X7970200Y-12222800D02*
X7930200Y-12262800D01*
X8031800Y-11473500D02*
X8071800Y-11513500D01*
X8071800Y-11473500D02*
X8031800Y-11513500D01*
X8082600Y-12527600D02*
X8122600Y-12567600D01*
X8122600Y-12527600D02*
X8082600Y-12567600D01*
X8199701Y-12180773D02*
X8239701Y-12220773D01*
X8239701Y-12180773D02*
X8199701Y-12220773D01*
X8222300Y-13886500D02*
X8262300Y-13926500D01*
X8262300Y-13886500D02*
X8222300Y-13926500D01*
X8311200Y-9873300D02*
X8351200Y-9913300D01*
X8351200Y-9873300D02*
X8311200Y-9913300D01*
X8374700Y-13251500D02*
X8414700Y-13291500D01*
X8414700Y-13251500D02*
X8374700Y-13291500D01*
X8400100Y-11765600D02*
X8440100Y-11805600D01*
X8440100Y-11765600D02*
X8400100Y-11805600D01*
X8425500Y-10101900D02*
X8465500Y-10141900D01*
X8465500Y-10101900D02*
X8425500Y-10141900D01*
X8527100Y-9797100D02*
X8567100Y-9837100D01*
X8567100Y-9797100D02*
X8527100Y-9837100D01*
X8552500Y-9987600D02*
X8592500Y-10027600D01*
X8592500Y-9987600D02*
X8552500Y-10027600D01*
X8575360Y-12685080D02*
X8615360Y-12725080D01*
X8615360Y-12685080D02*
X8575360Y-12725080D01*
X8606101Y-13285673D02*
X8646101Y-13325673D01*
X8646101Y-13285673D02*
X8606101Y-13325673D01*
X8645208Y-13040430D02*
X8685208Y-13080430D01*
X8685208Y-13040430D02*
X8645208Y-13080430D01*
X8682019Y-12366873D02*
X8722019Y-12406873D01*
X8722019Y-12366873D02*
X8682019Y-12406873D01*
X8682019Y-12468473D02*
X8722019Y-12508473D01*
X8722019Y-12468473D02*
X8682019Y-12508473D01*
X8682019Y-12570073D02*
X8722019Y-12610073D01*
X8722019Y-12570073D02*
X8682019Y-12610073D01*
X8745801Y-11926773D02*
X8785801Y-11966773D01*
X8785801Y-11926773D02*
X8745801Y-11966773D01*
X8783619Y-12366873D02*
X8823619Y-12406873D01*
X8823619Y-12366873D02*
X8783619Y-12406873D01*
X8783619Y-12468473D02*
X8823619Y-12508473D01*
X8823619Y-12468473D02*
X8783619Y-12508473D01*
X8783619Y-12570073D02*
X8823619Y-12610073D01*
X8823619Y-12570073D02*
X8783619Y-12610073D01*
X8834419Y-13128873D02*
X8874419Y-13168873D01*
X8874419Y-13128873D02*
X8834419Y-13168873D01*
X8885219Y-12366873D02*
X8925219Y-12406873D01*
X8925219Y-12366873D02*
X8885219Y-12406873D01*
X8885219Y-12468473D02*
X8925219Y-12508473D01*
X8925219Y-12468473D02*
X8885219Y-12508473D01*
X8885219Y-12570073D02*
X8925219Y-12610073D01*
X8925219Y-12570073D02*
X8885219Y-12610073D01*
X8898201Y-13679373D02*
X8938201Y-13719373D01*
X8938201Y-13679373D02*
X8898201Y-13719373D01*
X8910640Y-11821480D02*
X8950640Y-11861480D01*
X8950640Y-11821480D02*
X8910640Y-11861480D01*
X8927975Y-12990325D02*
X8967975Y-13030325D01*
X8967975Y-12990325D02*
X8927975Y-13030325D01*
X8933500Y-10584500D02*
X8973500Y-10624500D01*
X8973500Y-10584500D02*
X8933500Y-10624500D01*
X8984300Y-12260900D02*
X9024300Y-12300900D01*
X9024300Y-12260900D02*
X8984300Y-12300900D01*
X8984300Y-12676073D02*
X9024300Y-12716073D01*
X9024300Y-12676073D02*
X8984300Y-12716073D01*
X8997000Y-11526840D02*
X9037000Y-11566840D01*
X9037000Y-11526840D02*
X8997000Y-11566840D01*
X9009700Y-10419400D02*
X9049700Y-10459400D01*
X9049700Y-10419400D02*
X9009700Y-10459400D01*
X9047800Y-10711500D02*
X9087800Y-10751500D01*
X9087800Y-10711500D02*
X9047800Y-10751500D01*
X9052880Y-11633520D02*
X9092880Y-11673520D01*
X9092880Y-11633520D02*
X9052880Y-11673520D01*
X9124000Y-11333800D02*
X9164000Y-11373800D01*
X9164000Y-11333800D02*
X9124000Y-11373800D01*
X9174800Y-10597200D02*
X9214800Y-10637200D01*
X9214800Y-10597200D02*
X9174800Y-10637200D01*
X9187500Y-10889300D02*
X9227500Y-10929300D01*
X9227500Y-10889300D02*
X9187500Y-10929300D01*
X9251000Y-13137200D02*
X9291000Y-13177200D01*
X9291000Y-13137200D02*
X9251000Y-13177200D01*
X9365300Y-10736900D02*
X9405300Y-10776900D01*
X9405300Y-10736900D02*
X9365300Y-10776900D01*
X9418901Y-13577773D02*
X9458901Y-13617773D01*
X9458901Y-13577773D02*
X9418901Y-13617773D01*
X9479600Y-12146600D02*
X9519600Y-12186600D01*
X9519600Y-12146600D02*
X9479600Y-12186600D01*
X9481659Y-12550941D02*
X9521659Y-12590941D01*
X9521659Y-12550941D02*
X9481659Y-12590941D01*
X9784400Y-10165400D02*
X9824400Y-10205400D01*
X9824400Y-10165400D02*
X9784400Y-10205400D01*
X9822500Y-13823000D02*
X9862500Y-13863000D01*
X9862500Y-13823000D02*
X9822500Y-13863000D01*
X9873300Y-9822500D02*
X9913300Y-9862500D01*
X9913300Y-9822500D02*
X9873300Y-9862500D01*
X9957120Y-12055160D02*
X9997120Y-12095160D01*
X9997120Y-12055160D02*
X9957120Y-12095160D01*
X9962200Y-10952800D02*
X10002200Y-10992800D01*
X10002200Y-10952800D02*
X9962200Y-10992800D01*
X10178100Y-9568500D02*
X10218100Y-9608500D01*
X10218100Y-9568500D02*
X10178100Y-9608500D01*
X10216200Y-9759000D02*
X10256200Y-9799000D01*
X10256200Y-9759000D02*
X10216200Y-9799000D01*
X10432100Y-9568500D02*
X10472100Y-9608500D01*
X10472100Y-9568500D02*
X10432100Y-9608500D01*
X10444800Y-10251250D02*
X10484800Y-10291250D01*
X10484800Y-10251250D02*
X10444800Y-10291250D01*
X10635300Y-10152700D02*
X10675300Y-10192700D01*
X10675300Y-10152700D02*
X10635300Y-10192700D01*
X10660700Y-10432100D02*
X10700700Y-10472100D01*
X10700700Y-10432100D02*
X10660700Y-10472100D01*
X10673400Y-13835700D02*
X10713400Y-13875700D01*
X10713400Y-13835700D02*
X10673400Y-13875700D01*
X10787700Y-10292400D02*
X10827700Y-10332400D01*
X10827700Y-10292400D02*
X10787700Y-10332400D01*
X11079800Y-10305100D02*
X11119800Y-10345100D01*
X11119800Y-10305100D02*
X11079800Y-10345100D01*
X11257600Y-11422700D02*
X11297600Y-11462700D01*
X11297600Y-11422700D02*
X11257600Y-11462700D01*
X12172000Y-10152700D02*
X12212000Y-10192700D01*
X12212000Y-10152700D02*
X12172000Y-10192700D01*
X29342400Y-13645200D02*
X29382400Y-13685200D01*
X29382400Y-13645200D02*
X29342400Y-13685200D01*
X29774200Y-13594400D02*
X29814200Y-13634400D01*
X29814200Y-13594400D02*
X29774200Y-13634400D01*
X30548900Y-11816400D02*
X30588900Y-11856400D01*
X30588900Y-11816400D02*
X30548900Y-11856400D01*
X31158500Y-11816400D02*
X31198500Y-11856400D01*
X31198500Y-11816400D02*
X31158500Y-11856400D01*
X31349000Y-12375200D02*
X31389000Y-12415200D01*
X31389000Y-12375200D02*
X31349000Y-12415200D01*
X31425200Y-11067100D02*
X31465200Y-11107100D01*
X31465200Y-11067100D02*
X31425200Y-11107100D01*
X31425200Y-11321100D02*
X31465200Y-11361100D01*
X31465200Y-11321100D02*
X31425200Y-11361100D01*
X31717300Y-9746300D02*
X31757300Y-9786300D01*
X31757300Y-9746300D02*
X31717300Y-9786300D01*
X32047500Y-9924100D02*
X32087500Y-9964100D01*
X32087500Y-9924100D02*
X32047500Y-9964100D01*
X32301500Y-11625900D02*
X32341500Y-11665900D01*
X32341500Y-11625900D02*
X32301500Y-11665900D01*
X33050800Y-12718100D02*
X33090800Y-12758100D01*
X33090800Y-12718100D02*
X33050800Y-12758100D01*
X34104900Y-11537000D02*
X34144900Y-11577000D01*
X34144900Y-11537000D02*
X34104900Y-11577000D01*
D12*
X6273000Y-14122400D02*
G75*
G03*
X6273000Y-14122400I-50000J0D01*
G01*
X6273000Y-14376400D02*
G75*
G03*
X6273000Y-14376400I-50000J0D01*
G01*
X6273000Y-14630400D02*
G75*
G03*
X6273000Y-14630400I-50000J0D01*
G01*
X6273000Y-14884400D02*
G75*
G03*
X6273000Y-14884400I-50000J0D01*
G01*
X6273000Y-15138400D02*
G75*
G03*
X6273000Y-15138400I-50000J0D01*
G01*
D13*
X6524625Y-8956675D02*
X6524625Y-9109075D01*
X6448425Y-9032875D02*
X6600825Y-9032875D01*
X6762750Y-12766675D02*
X6762750Y-12919075D01*
X6686550Y-12842875D02*
X6838950Y-12842875D01*
X6762750Y-14671675D02*
X6762750Y-14824075D01*
X6686550Y-14747875D02*
X6838950Y-14747875D01*
X6762750Y-16576675D02*
X6762750Y-16729075D01*
X6686550Y-16652875D02*
X6838950Y-16652875D01*
X7000875Y-10861675D02*
X7000875Y-11014075D01*
X6924675Y-10937875D02*
X7077075Y-10937875D01*
X7000875Y-16576675D02*
X7000875Y-16729075D01*
X6924675Y-16652875D02*
X7077075Y-16652875D01*
X7159625Y-8702675D02*
X7159625Y-8855075D01*
X7083425Y-8778875D02*
X7235825Y-8778875D01*
X7239000Y-12766675D02*
X7239000Y-12919075D01*
X7162800Y-12842875D02*
X7315200Y-12842875D01*
X7397750Y-12512675D02*
X7397750Y-12665075D01*
X7321550Y-12588875D02*
X7473950Y-12588875D01*
X7397750Y-14417675D02*
X7397750Y-14570075D01*
X7321550Y-14493875D02*
X7473950Y-14493875D01*
X7397750Y-16322675D02*
X7397750Y-16475075D01*
X7321550Y-16398875D02*
X7473950Y-16398875D01*
X7635875Y-10607675D02*
X7635875Y-10760075D01*
X7559675Y-10683875D02*
X7712075Y-10683875D01*
X7635875Y-16322675D02*
X7635875Y-16475075D01*
X7559675Y-16398875D02*
X7712075Y-16398875D01*
X7715250Y-14671675D02*
X7715250Y-14824075D01*
X7639050Y-14747875D02*
X7791450Y-14747875D01*
X7874000Y-12512675D02*
X7874000Y-12665075D01*
X7797800Y-12588875D02*
X7950200Y-12588875D01*
X8350250Y-14417675D02*
X8350250Y-14570075D01*
X8274050Y-14493875D02*
X8426450Y-14493875D01*
X8429625Y-8956675D02*
X8429625Y-9109075D01*
X8353425Y-9032875D02*
X8505825Y-9032875D01*
X8905875Y-14671675D02*
X8905875Y-14824075D01*
X8829675Y-14747875D02*
X8982075Y-14747875D01*
X9064625Y-8702675D02*
X9064625Y-8855075D01*
X8988425Y-8778875D02*
X9140825Y-8778875D01*
X9144000Y-16576675D02*
X9144000Y-16729075D01*
X9067800Y-16652875D02*
X9220200Y-16652875D01*
X9382125Y-10861675D02*
X9382125Y-11014075D01*
X9305925Y-10937875D02*
X9458325Y-10937875D01*
X9382125Y-16576675D02*
X9382125Y-16729075D01*
X9305925Y-16652875D02*
X9458325Y-16652875D01*
X9540875Y-14417675D02*
X9540875Y-14570075D01*
X9464675Y-14493875D02*
X9617075Y-14493875D01*
X9779000Y-16322675D02*
X9779000Y-16475075D01*
X9702800Y-16398875D02*
X9855200Y-16398875D01*
X9858375Y-12766675D02*
X9858375Y-12919075D01*
X9782175Y-12842875D02*
X9934575Y-12842875D01*
X10017125Y-10607675D02*
X10017125Y-10760075D01*
X9940925Y-10683875D02*
X10093325Y-10683875D01*
X10017125Y-16322675D02*
X10017125Y-16475075D01*
X9940925Y-16398875D02*
X10093325Y-16398875D01*
X10334625Y-8956675D02*
X10334625Y-9109075D01*
X10258425Y-9032875D02*
X10410825Y-9032875D01*
X10493375Y-12512675D02*
X10493375Y-12665075D01*
X10417175Y-12588875D02*
X10569575Y-12588875D01*
X10810875Y-14671675D02*
X10810875Y-14824075D01*
X10734675Y-14747875D02*
X10887075Y-14747875D01*
X10969625Y-8702675D02*
X10969625Y-8855075D01*
X10893425Y-8778875D02*
X11045825Y-8778875D01*
X11287125Y-10861675D02*
X11287125Y-11014075D01*
X11210925Y-10937875D02*
X11363325Y-10937875D01*
X11445875Y-14417675D02*
X11445875Y-14570075D01*
X11369675Y-14493875D02*
X11522075Y-14493875D01*
X11525250Y-16576675D02*
X11525250Y-16729075D01*
X11449050Y-16652875D02*
X11601450Y-16652875D01*
X11763375Y-12766675D02*
X11763375Y-12919075D01*
X11687175Y-12842875D02*
X11839575Y-12842875D01*
X11763375Y-16576675D02*
X11763375Y-16729075D01*
X11687175Y-16652875D02*
X11839575Y-16652875D01*
X11922125Y-10607675D02*
X11922125Y-10760075D01*
X11845925Y-10683875D02*
X11998325Y-10683875D01*
X12160250Y-16322675D02*
X12160250Y-16475075D01*
X12084050Y-16398875D02*
X12236450Y-16398875D01*
X12239625Y-8956675D02*
X12239625Y-9109075D01*
X12163425Y-9032875D02*
X12315825Y-9032875D01*
X12398375Y-12512675D02*
X12398375Y-12665075D01*
X12322175Y-12588875D02*
X12474575Y-12588875D01*
X12398375Y-16322675D02*
X12398375Y-16475075D01*
X12322175Y-16398875D02*
X12474575Y-16398875D01*
X12715875Y-14671675D02*
X12715875Y-14824075D01*
X12639675Y-14747875D02*
X12792075Y-14747875D01*
X12874625Y-8702675D02*
X12874625Y-8855075D01*
X12798425Y-8778875D02*
X12950825Y-8778875D01*
X13192125Y-10861675D02*
X13192125Y-11014075D01*
X13115925Y-10937875D02*
X13268325Y-10937875D01*
X13350875Y-14417675D02*
X13350875Y-14570075D01*
X13274675Y-14493875D02*
X13427075Y-14493875D01*
X13668375Y-12766675D02*
X13668375Y-12919075D01*
X13592175Y-12842875D02*
X13744575Y-12842875D01*
X13827125Y-10607675D02*
X13827125Y-10760075D01*
X13750925Y-10683875D02*
X13903325Y-10683875D01*
X14144625Y-8956675D02*
X14144625Y-9109075D01*
X14068425Y-9032875D02*
X14220825Y-9032875D01*
X14303375Y-12512675D02*
X14303375Y-12665075D01*
X14227175Y-12588875D02*
X14379575Y-12588875D01*
X14620875Y-14671675D02*
X14620875Y-14824075D01*
X14544675Y-14747875D02*
X14697075Y-14747875D01*
X14779625Y-8702675D02*
X14779625Y-8855075D01*
X14703425Y-8778875D02*
X14855825Y-8778875D01*
X15097125Y-10861675D02*
X15097125Y-11014075D01*
X15020925Y-10937875D02*
X15173325Y-10937875D01*
X15255875Y-14417675D02*
X15255875Y-14570075D01*
X15179675Y-14493875D02*
X15332075Y-14493875D01*
X15335250Y-16576675D02*
X15335250Y-16729075D01*
X15259050Y-16652875D02*
X15411450Y-16652875D01*
X15573375Y-12766675D02*
X15573375Y-12919075D01*
X15497175Y-12842875D02*
X15649575Y-12842875D01*
X15732125Y-10607675D02*
X15732125Y-10760075D01*
X15655925Y-10683875D02*
X15808325Y-10683875D01*
X15970250Y-16322675D02*
X15970250Y-16475075D01*
X15894050Y-16398875D02*
X16046450Y-16398875D01*
X16049625Y-8956675D02*
X16049625Y-9109075D01*
X15973425Y-9032875D02*
X16125825Y-9032875D01*
X16049625Y-16576675D02*
X16049625Y-16729075D01*
X15973425Y-16652875D02*
X16125825Y-16652875D01*
X16208375Y-12512675D02*
X16208375Y-12665075D01*
X16132175Y-12588875D02*
X16284575Y-12588875D01*
X16525875Y-14671675D02*
X16525875Y-14824075D01*
X16449675Y-14747875D02*
X16602075Y-14747875D01*
X16684625Y-8702675D02*
X16684625Y-8855075D01*
X16608425Y-8778875D02*
X16760825Y-8778875D01*
X16684625Y-16322675D02*
X16684625Y-16475075D01*
X16608425Y-16398875D02*
X16760825Y-16398875D01*
X17002125Y-10861675D02*
X17002125Y-11014075D01*
X16925925Y-10937875D02*
X17078325Y-10937875D01*
X17160875Y-14417675D02*
X17160875Y-14570075D01*
X17084675Y-14493875D02*
X17237075Y-14493875D01*
X17478375Y-12766675D02*
X17478375Y-12919075D01*
X17402175Y-12842875D02*
X17554575Y-12842875D01*
X17637125Y-10607675D02*
X17637125Y-10760075D01*
X17560925Y-10683875D02*
X17713325Y-10683875D01*
X17954625Y-8956675D02*
X17954625Y-9109075D01*
X17878425Y-9032875D02*
X18030825Y-9032875D01*
X18113375Y-12512675D02*
X18113375Y-12665075D01*
X18037175Y-12588875D02*
X18189575Y-12588875D01*
X18430875Y-14671675D02*
X18430875Y-14824075D01*
X18354675Y-14747875D02*
X18507075Y-14747875D01*
X18589625Y-8702675D02*
X18589625Y-8855075D01*
X18513425Y-8778875D02*
X18665825Y-8778875D01*
X18669000Y-16576675D02*
X18669000Y-16729075D01*
X18592800Y-16652875D02*
X18745200Y-16652875D01*
X18907125Y-10861675D02*
X18907125Y-11014075D01*
X18830925Y-10937875D02*
X18983325Y-10937875D01*
X19065875Y-14417675D02*
X19065875Y-14570075D01*
X18989675Y-14493875D02*
X19142075Y-14493875D01*
X19304000Y-16322675D02*
X19304000Y-16475075D01*
X19227800Y-16398875D02*
X19380200Y-16398875D01*
X19383375Y-12766675D02*
X19383375Y-12919075D01*
X19307175Y-12842875D02*
X19459575Y-12842875D01*
X19383375Y-16576675D02*
X19383375Y-16729075D01*
X19307175Y-16652875D02*
X19459575Y-16652875D01*
X19542125Y-10607675D02*
X19542125Y-10760075D01*
X19465925Y-10683875D02*
X19618325Y-10683875D01*
X19859625Y-8956675D02*
X19859625Y-9109075D01*
X19783425Y-9032875D02*
X19935825Y-9032875D01*
X19859625Y-16576675D02*
X19859625Y-16729075D01*
X19783425Y-16652875D02*
X19935825Y-16652875D01*
X20018375Y-12512675D02*
X20018375Y-12665075D01*
X19942175Y-12588875D02*
X20094575Y-12588875D01*
X20018375Y-16322675D02*
X20018375Y-16475075D01*
X19942175Y-16398875D02*
X20094575Y-16398875D01*
X20335875Y-14671675D02*
X20335875Y-14824075D01*
X20259675Y-14747875D02*
X20412075Y-14747875D01*
X20494625Y-8702675D02*
X20494625Y-8855075D01*
X20418425Y-8778875D02*
X20570825Y-8778875D01*
X20494625Y-16322675D02*
X20494625Y-16475075D01*
X20418425Y-16398875D02*
X20570825Y-16398875D01*
X20812125Y-10861675D02*
X20812125Y-11014075D01*
X20735925Y-10937875D02*
X20888325Y-10937875D01*
X20970875Y-14417675D02*
X20970875Y-14570075D01*
X20894675Y-14493875D02*
X21047075Y-14493875D01*
X21288375Y-12766675D02*
X21288375Y-12919075D01*
X21212175Y-12842875D02*
X21364575Y-12842875D01*
X21447125Y-10607675D02*
X21447125Y-10760075D01*
X21370925Y-10683875D02*
X21523325Y-10683875D01*
X21764625Y-8956675D02*
X21764625Y-9109075D01*
X21688425Y-9032875D02*
X21840825Y-9032875D01*
X21923375Y-12512675D02*
X21923375Y-12665075D01*
X21847175Y-12588875D02*
X21999575Y-12588875D01*
X22240875Y-14671675D02*
X22240875Y-14824075D01*
X22164675Y-14747875D02*
X22317075Y-14747875D01*
X22399625Y-8702675D02*
X22399625Y-8855075D01*
X22323425Y-8778875D02*
X22475825Y-8778875D01*
X22717125Y-10861675D02*
X22717125Y-11014075D01*
X22640925Y-10937875D02*
X22793325Y-10937875D01*
X22875875Y-14417675D02*
X22875875Y-14570075D01*
X22799675Y-14493875D02*
X22952075Y-14493875D01*
X23193375Y-12766675D02*
X23193375Y-12919075D01*
X23117175Y-12842875D02*
X23269575Y-12842875D01*
X23352125Y-10607675D02*
X23352125Y-10760075D01*
X23275925Y-10683875D02*
X23428325Y-10683875D01*
X23669625Y-8956675D02*
X23669625Y-9109075D01*
X23593425Y-9032875D02*
X23745825Y-9032875D01*
X23669625Y-16576675D02*
X23669625Y-16729075D01*
X23593425Y-16652875D02*
X23745825Y-16652875D01*
X23828375Y-12512675D02*
X23828375Y-12665075D01*
X23752175Y-12588875D02*
X23904575Y-12588875D01*
X23907750Y-16576675D02*
X23907750Y-16729075D01*
X23831550Y-16652875D02*
X23983950Y-16652875D01*
X24145875Y-14671675D02*
X24145875Y-14824075D01*
X24069675Y-14747875D02*
X24222075Y-14747875D01*
X24304625Y-8702675D02*
X24304625Y-8855075D01*
X24228425Y-8778875D02*
X24380825Y-8778875D01*
X24304625Y-16322675D02*
X24304625Y-16475075D01*
X24228425Y-16398875D02*
X24380825Y-16398875D01*
X24542750Y-16322675D02*
X24542750Y-16475075D01*
X24466550Y-16398875D02*
X24618950Y-16398875D01*
X24622125Y-10861675D02*
X24622125Y-11014075D01*
X24545925Y-10937875D02*
X24698325Y-10937875D01*
X24780875Y-14417675D02*
X24780875Y-14570075D01*
X24704675Y-14493875D02*
X24857075Y-14493875D01*
X25098375Y-12766675D02*
X25098375Y-12919075D01*
X25022175Y-12842875D02*
X25174575Y-12842875D01*
X25257125Y-10607675D02*
X25257125Y-10760075D01*
X25180925Y-10683875D02*
X25333325Y-10683875D01*
X25574625Y-8956675D02*
X25574625Y-9109075D01*
X25498425Y-9032875D02*
X25650825Y-9032875D01*
X25733375Y-12512675D02*
X25733375Y-12665075D01*
X25657175Y-12588875D02*
X25809575Y-12588875D01*
X25812750Y-16576675D02*
X25812750Y-16729075D01*
X25736550Y-16652875D02*
X25888950Y-16652875D01*
X26050875Y-14671675D02*
X26050875Y-14824075D01*
X25974675Y-14747875D02*
X26127075Y-14747875D01*
X26209625Y-8702675D02*
X26209625Y-8855075D01*
X26133425Y-8778875D02*
X26285825Y-8778875D01*
X26447750Y-16322675D02*
X26447750Y-16475075D01*
X26371550Y-16398875D02*
X26523950Y-16398875D01*
X26527125Y-10861675D02*
X26527125Y-11014075D01*
X26450925Y-10937875D02*
X26603325Y-10937875D01*
X26685875Y-14417675D02*
X26685875Y-14570075D01*
X26609675Y-14493875D02*
X26762075Y-14493875D01*
X27003375Y-12766675D02*
X27003375Y-12919075D01*
X26927175Y-12842875D02*
X27079575Y-12842875D01*
X27162125Y-10607675D02*
X27162125Y-10760075D01*
X27085925Y-10683875D02*
X27238325Y-10683875D01*
X27479625Y-8956675D02*
X27479625Y-9109075D01*
X27403425Y-9032875D02*
X27555825Y-9032875D01*
X27638375Y-12512675D02*
X27638375Y-12665075D01*
X27562175Y-12588875D02*
X27714575Y-12588875D01*
X27955875Y-14671675D02*
X27955875Y-14824075D01*
X27879675Y-14747875D02*
X28032075Y-14747875D01*
X27955875Y-16576675D02*
X27955875Y-16729075D01*
X27879675Y-16652875D02*
X28032075Y-16652875D01*
X28114625Y-8702675D02*
X28114625Y-8855075D01*
X28038425Y-8778875D02*
X28190825Y-8778875D01*
X28194000Y-16576675D02*
X28194000Y-16729075D01*
X28117800Y-16652875D02*
X28270200Y-16652875D01*
X28432125Y-10861675D02*
X28432125Y-11014075D01*
X28355925Y-10937875D02*
X28508325Y-10937875D01*
X28590875Y-14417675D02*
X28590875Y-14570075D01*
X28514675Y-14493875D02*
X28667075Y-14493875D01*
X28590875Y-16322675D02*
X28590875Y-16475075D01*
X28514675Y-16398875D02*
X28667075Y-16398875D01*
X28829000Y-16322675D02*
X28829000Y-16475075D01*
X28752800Y-16398875D02*
X28905200Y-16398875D01*
X28908375Y-12766675D02*
X28908375Y-12919075D01*
X28832175Y-12842875D02*
X28984575Y-12842875D01*
X29067125Y-10607675D02*
X29067125Y-10760075D01*
X28990925Y-10683875D02*
X29143325Y-10683875D01*
X29384625Y-8956675D02*
X29384625Y-9109075D01*
X29308425Y-9032875D02*
X29460825Y-9032875D01*
X29543375Y-12512675D02*
X29543375Y-12665075D01*
X29467175Y-12588875D02*
X29619575Y-12588875D01*
X30019625Y-8702675D02*
X30019625Y-8855075D01*
X29943425Y-8778875D02*
X30095825Y-8778875D01*
X30337125Y-10861675D02*
X30337125Y-11014075D01*
X30260925Y-10937875D02*
X30413325Y-10937875D01*
X30575250Y-14671675D02*
X30575250Y-14824075D01*
X30499050Y-14747875D02*
X30651450Y-14747875D01*
X30813375Y-12766675D02*
X30813375Y-12919075D01*
X30737175Y-12842875D02*
X30889575Y-12842875D01*
X30972125Y-10607675D02*
X30972125Y-10760075D01*
X30895925Y-10683875D02*
X31048325Y-10683875D01*
X31210250Y-14417675D02*
X31210250Y-14570075D01*
X31134050Y-14493875D02*
X31286450Y-14493875D01*
X31289625Y-8956675D02*
X31289625Y-9109075D01*
X31213425Y-9032875D02*
X31365825Y-9032875D01*
X31289625Y-16576675D02*
X31289625Y-16729075D01*
X31213425Y-16652875D02*
X31365825Y-16652875D01*
X31448375Y-12512675D02*
X31448375Y-12665075D01*
X31372175Y-12588875D02*
X31524575Y-12588875D01*
X31924625Y-8702675D02*
X31924625Y-8855075D01*
X31848425Y-8778875D02*
X32000825Y-8778875D01*
X31924625Y-16322675D02*
X31924625Y-16475075D01*
X31848425Y-16398875D02*
X32000825Y-16398875D01*
X32004000Y-12766675D02*
X32004000Y-12919075D01*
X31927800Y-12842875D02*
X32080200Y-12842875D01*
X32242125Y-8956675D02*
X32242125Y-9109075D01*
X32165925Y-9032875D02*
X32318325Y-9032875D01*
X32639000Y-12512675D02*
X32639000Y-12665075D01*
X32562800Y-12588875D02*
X32715200Y-12588875D01*
X32718375Y-10861675D02*
X32718375Y-11014075D01*
X32642175Y-10937875D02*
X32794575Y-10937875D01*
X32877125Y-8702675D02*
X32877125Y-8855075D01*
X32800925Y-8778875D02*
X32953325Y-8778875D01*
X32956500Y-11814175D02*
X32956500Y-11966575D01*
X32880300Y-11890375D02*
X33032700Y-11890375D01*
X33194625Y-14671675D02*
X33194625Y-14824075D01*
X33118425Y-14747875D02*
X33270825Y-14747875D01*
X33194625Y-16576675D02*
X33194625Y-16729075D01*
X33118425Y-16652875D02*
X33270825Y-16652875D01*
X33197800Y-8953500D02*
X33197800Y-9105900D01*
X33121600Y-9029700D02*
X33274000Y-9029700D01*
X33353375Y-10607675D02*
X33353375Y-10760075D01*
X33277175Y-10683875D02*
X33429575Y-10683875D01*
X33591500Y-11560175D02*
X33591500Y-11712575D01*
X33515300Y-11636375D02*
X33667700Y-11636375D01*
X33829625Y-14417675D02*
X33829625Y-14570075D01*
X33753425Y-14493875D02*
X33905825Y-14493875D01*
X33829625Y-16322675D02*
X33829625Y-16475075D01*
X33753425Y-16398875D02*
X33905825Y-16398875D01*
X33832800Y-8699500D02*
X33832800Y-8851900D01*
X33756600Y-8775700D02*
X33909000Y-8775700D01*
X35099625Y-10861675D02*
X35099625Y-11014075D01*
X35023425Y-10937875D02*
X35175825Y-10937875D01*
X35099625Y-12766675D02*
X35099625Y-12919075D01*
X35023425Y-12842875D02*
X35175825Y-12842875D01*
X35099625Y-14671675D02*
X35099625Y-14824075D01*
X35023425Y-14747875D02*
X35175825Y-14747875D01*
X35099625Y-16576675D02*
X35099625Y-16729075D01*
X35023425Y-16652875D02*
X35175825Y-16652875D01*
X35102800Y-8953500D02*
X35102800Y-9105900D01*
X35026600Y-9029700D02*
X35179000Y-9029700D01*
X35734625Y-10607675D02*
X35734625Y-10760075D01*
X35658425Y-10683875D02*
X35810825Y-10683875D01*
X35734625Y-12512675D02*
X35734625Y-12665075D01*
X35658425Y-12588875D02*
X35810825Y-12588875D01*
X35734625Y-14417675D02*
X35734625Y-14570075D01*
X35658425Y-14493875D02*
X35810825Y-14493875D01*
X35734625Y-16322675D02*
X35734625Y-16475075D01*
X35658425Y-16398875D02*
X35810825Y-16398875D01*
X35737800Y-8699500D02*
X35737800Y-8851900D01*
X35661600Y-8775700D02*
X35814000Y-8775700D01*
D14*
X7013389Y-14411139D02*
X7013389Y-14195611D01*
X6797861Y-14195611D01*
X6797861Y-14411139D01*
X7013389Y-14411139D01*
X9394639Y-14411139D02*
X9394639Y-14195611D01*
X9179111Y-14195611D01*
X9179111Y-14411139D01*
X9394639Y-14411139D01*
X13442764Y-17713139D02*
X13442764Y-17497611D01*
X13227236Y-17497611D01*
X13227236Y-17713139D01*
X13442764Y-17713139D01*
X13919014Y-17713139D02*
X13919014Y-17497611D01*
X13703486Y-17497611D01*
X13703486Y-17713139D01*
X13919014Y-17713139D01*
X14871514Y-17713139D02*
X14871514Y-17497611D01*
X14655986Y-17497611D01*
X14655986Y-17713139D01*
X14871514Y-17713139D01*
X15347764Y-17713139D02*
X15347764Y-17497611D01*
X15132236Y-17497611D01*
X15132236Y-17713139D01*
X15347764Y-17713139D01*
X17729014Y-17713139D02*
X17729014Y-17497611D01*
X17513486Y-17497611D01*
X17513486Y-17713139D01*
X17729014Y-17713139D01*
X17729014Y-17713139D02*
X17729014Y-17497611D01*
X17513486Y-17497611D01*
X17513486Y-17713139D01*
X17729014Y-17713139D01*
X19157764Y-17713139D02*
X19157764Y-17497611D01*
X18942236Y-17497611D01*
X18942236Y-17713139D01*
X19157764Y-17713139D01*
X21539014Y-17713139D02*
X21539014Y-17497611D01*
X21323486Y-17497611D01*
X21323486Y-17713139D01*
X21539014Y-17713139D01*
X22253389Y-17713139D02*
X22253389Y-17497611D01*
X22037861Y-17497611D01*
X22037861Y-17713139D01*
X22253389Y-17713139D01*
X23205889Y-17713139D02*
X23205889Y-17497611D01*
X22990361Y-17497611D01*
X22990361Y-17713139D01*
X23205889Y-17713139D01*
X24872764Y-17713139D02*
X24872764Y-17497611D01*
X24657236Y-17497611D01*
X24657236Y-17713139D01*
X24872764Y-17713139D01*
X24872764Y-17713139D02*
X24872764Y-17497611D01*
X24657236Y-17497611D01*
X24657236Y-17713139D01*
X24872764Y-17713139D01*
X25587139Y-17713139D02*
X25587139Y-17497611D01*
X25371611Y-17497611D01*
X25371611Y-17713139D01*
X25587139Y-17713139D01*
X26063389Y-17713139D02*
X26063389Y-17497611D01*
X25847861Y-17497611D01*
X25847861Y-17713139D01*
X26063389Y-17713139D01*
X30111514Y-12506139D02*
X30111514Y-12290611D01*
X29895986Y-12290611D01*
X29895986Y-12506139D01*
X30111514Y-12506139D01*
X31540264Y-8692964D02*
X31540264Y-8477436D01*
X31324736Y-8477436D01*
X31324736Y-8692964D01*
X31540264Y-8692964D01*
X32492764Y-12506139D02*
X32492764Y-12290611D01*
X32277236Y-12290611D01*
X32277236Y-12506139D01*
X32492764Y-12506139D01*
X33921514Y-8692964D02*
X33921514Y-8477436D01*
X33705986Y-8477436D01*
X33705986Y-8692964D01*
X33921514Y-8692964D01*
X34143764Y-11061514D02*
X34143764Y-10845986D01*
X33928236Y-10845986D01*
X33928236Y-11061514D01*
X34143764Y-11061514D01*
X34143764Y-13442764D02*
X34143764Y-13227236D01*
X33928236Y-13227236D01*
X33928236Y-13442764D01*
X34143764Y-13442764D01*
D10*
X6202408Y-18098633D02*
X6202408Y-17898633D01*
X6202408Y-17898633D02*
X6250027Y-17898633D01*
X6250027Y-17898633D02*
X6278599Y-17908157D01*
X6278599Y-17908157D02*
X6297646Y-17927205D01*
X6297646Y-17927205D02*
X6307170Y-17946252D01*
X6307170Y-17946252D02*
X6316694Y-17984348D01*
X6316694Y-17984348D02*
X6316694Y-18012919D01*
X6316694Y-18012919D02*
X6307170Y-18051014D01*
X6307170Y-18051014D02*
X6297646Y-18070062D01*
X6297646Y-18070062D02*
X6278599Y-18089110D01*
X6278599Y-18089110D02*
X6250027Y-18098633D01*
X6250027Y-18098633D02*
X6202408Y-18098633D01*
X6402408Y-18098633D02*
X6402408Y-17965300D01*
X6402408Y-18003395D02*
X6411932Y-17984348D01*
X6411932Y-17984348D02*
X6421456Y-17974824D01*
X6421456Y-17974824D02*
X6440504Y-17965300D01*
X6440504Y-17965300D02*
X6459551Y-17965300D01*
X6526218Y-18098633D02*
X6526218Y-17965300D01*
X6526218Y-17898633D02*
X6516694Y-17908157D01*
X6516694Y-17908157D02*
X6526218Y-17917681D01*
X6526218Y-17917681D02*
X6535742Y-17908157D01*
X6535742Y-17908157D02*
X6526218Y-17898633D01*
X6526218Y-17898633D02*
X6526218Y-17917681D01*
X6650027Y-18098633D02*
X6630980Y-18089110D01*
X6630980Y-18089110D02*
X6621456Y-18070062D01*
X6621456Y-18070062D02*
X6621456Y-17898633D01*
X6754789Y-18098633D02*
X6735742Y-18089110D01*
X6735742Y-18089110D02*
X6726218Y-18070062D01*
X6726218Y-18070062D02*
X6726218Y-17898633D01*
X6983361Y-18098633D02*
X6983361Y-17898633D01*
X6983361Y-17898633D02*
X7050027Y-18041490D01*
X7050027Y-18041490D02*
X7116694Y-17898633D01*
X7116694Y-17898633D02*
X7116694Y-18098633D01*
X7297646Y-18098633D02*
X7297646Y-17993871D01*
X7297646Y-17993871D02*
X7288123Y-17974824D01*
X7288123Y-17974824D02*
X7269075Y-17965300D01*
X7269075Y-17965300D02*
X7230980Y-17965300D01*
X7230980Y-17965300D02*
X7211932Y-17974824D01*
X7297646Y-18089110D02*
X7278599Y-18098633D01*
X7278599Y-18098633D02*
X7230980Y-18098633D01*
X7230980Y-18098633D02*
X7211932Y-18089110D01*
X7211932Y-18089110D02*
X7202408Y-18070062D01*
X7202408Y-18070062D02*
X7202408Y-18051014D01*
X7202408Y-18051014D02*
X7211932Y-18031967D01*
X7211932Y-18031967D02*
X7230980Y-18022443D01*
X7230980Y-18022443D02*
X7278599Y-18022443D01*
X7278599Y-18022443D02*
X7297646Y-18012919D01*
X7392885Y-17965300D02*
X7392885Y-18165300D01*
X7392885Y-17974824D02*
X7411932Y-17965300D01*
X7411932Y-17965300D02*
X7450027Y-17965300D01*
X7450027Y-17965300D02*
X7469075Y-17974824D01*
X7469075Y-17974824D02*
X7478599Y-17984348D01*
X7478599Y-17984348D02*
X7488123Y-18003395D01*
X7488123Y-18003395D02*
X7488123Y-18060538D01*
X7488123Y-18060538D02*
X7478599Y-18079586D01*
X7478599Y-18079586D02*
X7469075Y-18089110D01*
X7469075Y-18089110D02*
X7450027Y-18098633D01*
X7450027Y-18098633D02*
X7411932Y-18098633D01*
X7411932Y-18098633D02*
X7392885Y-18089110D01*
X7573837Y-18079586D02*
X7583361Y-18089110D01*
X7583361Y-18089110D02*
X7573837Y-18098633D01*
X7573837Y-18098633D02*
X7564313Y-18089110D01*
X7564313Y-18089110D02*
X7573837Y-18079586D01*
X7573837Y-18079586D02*
X7573837Y-18098633D01*
X7573837Y-17974824D02*
X7583361Y-17984348D01*
X7583361Y-17984348D02*
X7573837Y-17993871D01*
X7573837Y-17993871D02*
X7564313Y-17984348D01*
X7564313Y-17984348D02*
X7573837Y-17974824D01*
X7573837Y-17974824D02*
X7573837Y-17993871D01*
D11*
X5914789Y-18406110D02*
X5954789Y-18446110D01*
X5954789Y-18406110D02*
X5914789Y-18446110D01*
D10*
X6240504Y-18318633D02*
X6259551Y-18318633D01*
X6259551Y-18318633D02*
X6278599Y-18328157D01*
X6278599Y-18328157D02*
X6288123Y-18337681D01*
X6288123Y-18337681D02*
X6297646Y-18356729D01*
X6297646Y-18356729D02*
X6307170Y-18394824D01*
X6307170Y-18394824D02*
X6307170Y-18442443D01*
X6307170Y-18442443D02*
X6297646Y-18480538D01*
X6297646Y-18480538D02*
X6288123Y-18499586D01*
X6288123Y-18499586D02*
X6278599Y-18509110D01*
X6278599Y-18509110D02*
X6259551Y-18518633D01*
X6259551Y-18518633D02*
X6240504Y-18518633D01*
X6240504Y-18518633D02*
X6221456Y-18509110D01*
X6221456Y-18509110D02*
X6211932Y-18499586D01*
X6211932Y-18499586D02*
X6202408Y-18480538D01*
X6202408Y-18480538D02*
X6192885Y-18442443D01*
X6192885Y-18442443D02*
X6192885Y-18394824D01*
X6192885Y-18394824D02*
X6202408Y-18356729D01*
X6202408Y-18356729D02*
X6211932Y-18337681D01*
X6211932Y-18337681D02*
X6221456Y-18328157D01*
X6221456Y-18328157D02*
X6240504Y-18318633D01*
X6392885Y-18499586D02*
X6402408Y-18509110D01*
X6402408Y-18509110D02*
X6392885Y-18518633D01*
X6392885Y-18518633D02*
X6383361Y-18509110D01*
X6383361Y-18509110D02*
X6392885Y-18499586D01*
X6392885Y-18499586D02*
X6392885Y-18518633D01*
X6573837Y-18385300D02*
X6573837Y-18518633D01*
X6526218Y-18309110D02*
X6478599Y-18451967D01*
X6478599Y-18451967D02*
X6602408Y-18451967D01*
X6716694Y-18318633D02*
X6735742Y-18318633D01*
X6735742Y-18318633D02*
X6754789Y-18328157D01*
X6754789Y-18328157D02*
X6764313Y-18337681D01*
X6764313Y-18337681D02*
X6773837Y-18356729D01*
X6773837Y-18356729D02*
X6783361Y-18394824D01*
X6783361Y-18394824D02*
X6783361Y-18442443D01*
X6783361Y-18442443D02*
X6773837Y-18480538D01*
X6773837Y-18480538D02*
X6764313Y-18499586D01*
X6764313Y-18499586D02*
X6754789Y-18509110D01*
X6754789Y-18509110D02*
X6735742Y-18518633D01*
X6735742Y-18518633D02*
X6716694Y-18518633D01*
X6716694Y-18518633D02*
X6697646Y-18509110D01*
X6697646Y-18509110D02*
X6688123Y-18499586D01*
X6688123Y-18499586D02*
X6678599Y-18480538D01*
X6678599Y-18480538D02*
X6669075Y-18442443D01*
X6669075Y-18442443D02*
X6669075Y-18394824D01*
X6669075Y-18394824D02*
X6678599Y-18356729D01*
X6678599Y-18356729D02*
X6688123Y-18337681D01*
X6688123Y-18337681D02*
X6697646Y-18328157D01*
X6697646Y-18328157D02*
X6716694Y-18318633D01*
X6907170Y-18318633D02*
X6926218Y-18318633D01*
X6926218Y-18318633D02*
X6945266Y-18328157D01*
X6945266Y-18328157D02*
X6954789Y-18337681D01*
X6954789Y-18337681D02*
X6964313Y-18356729D01*
X6964313Y-18356729D02*
X6973837Y-18394824D01*
X6973837Y-18394824D02*
X6973837Y-18442443D01*
X6973837Y-18442443D02*
X6964313Y-18480538D01*
X6964313Y-18480538D02*
X6954789Y-18499586D01*
X6954789Y-18499586D02*
X6945266Y-18509110D01*
X6945266Y-18509110D02*
X6926218Y-18518633D01*
X6926218Y-18518633D02*
X6907170Y-18518633D01*
X6907170Y-18518633D02*
X6888123Y-18509110D01*
X6888123Y-18509110D02*
X6878599Y-18499586D01*
X6878599Y-18499586D02*
X6869075Y-18480538D01*
X6869075Y-18480538D02*
X6859551Y-18442443D01*
X6859551Y-18442443D02*
X6859551Y-18394824D01*
X6859551Y-18394824D02*
X6869075Y-18356729D01*
X6869075Y-18356729D02*
X6878599Y-18337681D01*
X6878599Y-18337681D02*
X6888123Y-18328157D01*
X6888123Y-18328157D02*
X6907170Y-18318633D01*
X7059551Y-18518633D02*
X7059551Y-18385300D01*
X7059551Y-18404348D02*
X7069075Y-18394824D01*
X7069075Y-18394824D02*
X7088123Y-18385300D01*
X7088123Y-18385300D02*
X7116694Y-18385300D01*
X7116694Y-18385300D02*
X7135742Y-18394824D01*
X7135742Y-18394824D02*
X7145266Y-18413871D01*
X7145266Y-18413871D02*
X7145266Y-18518633D01*
X7145266Y-18413871D02*
X7154789Y-18394824D01*
X7154789Y-18394824D02*
X7173837Y-18385300D01*
X7173837Y-18385300D02*
X7202408Y-18385300D01*
X7202408Y-18385300D02*
X7221456Y-18394824D01*
X7221456Y-18394824D02*
X7230980Y-18413871D01*
X7230980Y-18413871D02*
X7230980Y-18518633D01*
X7326218Y-18518633D02*
X7326218Y-18385300D01*
X7326218Y-18404348D02*
X7335742Y-18394824D01*
X7335742Y-18394824D02*
X7354789Y-18385300D01*
X7354789Y-18385300D02*
X7383361Y-18385300D01*
X7383361Y-18385300D02*
X7402408Y-18394824D01*
X7402408Y-18394824D02*
X7411932Y-18413871D01*
X7411932Y-18413871D02*
X7411932Y-18518633D01*
X7411932Y-18413871D02*
X7421456Y-18394824D01*
X7421456Y-18394824D02*
X7440504Y-18385300D01*
X7440504Y-18385300D02*
X7469075Y-18385300D01*
X7469075Y-18385300D02*
X7488123Y-18394824D01*
X7488123Y-18394824D02*
X7497647Y-18413871D01*
X7497647Y-18413871D02*
X7497647Y-18518633D01*
X7888123Y-18309110D02*
X7716694Y-18566252D01*
X8145266Y-18318633D02*
X8164313Y-18318633D01*
X8164313Y-18318633D02*
X8183361Y-18328157D01*
X8183361Y-18328157D02*
X8192885Y-18337681D01*
X8192885Y-18337681D02*
X8202409Y-18356729D01*
X8202409Y-18356729D02*
X8211932Y-18394824D01*
X8211932Y-18394824D02*
X8211932Y-18442443D01*
X8211932Y-18442443D02*
X8202409Y-18480538D01*
X8202409Y-18480538D02*
X8192885Y-18499586D01*
X8192885Y-18499586D02*
X8183361Y-18509110D01*
X8183361Y-18509110D02*
X8164313Y-18518633D01*
X8164313Y-18518633D02*
X8145266Y-18518633D01*
X8145266Y-18518633D02*
X8126218Y-18509110D01*
X8126218Y-18509110D02*
X8116694Y-18499586D01*
X8116694Y-18499586D02*
X8107170Y-18480538D01*
X8107170Y-18480538D02*
X8097647Y-18442443D01*
X8097647Y-18442443D02*
X8097647Y-18394824D01*
X8097647Y-18394824D02*
X8107170Y-18356729D01*
X8107170Y-18356729D02*
X8116694Y-18337681D01*
X8116694Y-18337681D02*
X8126218Y-18328157D01*
X8126218Y-18328157D02*
X8145266Y-18318633D01*
X8297647Y-18499586D02*
X8307170Y-18509110D01*
X8307170Y-18509110D02*
X8297647Y-18518633D01*
X8297647Y-18518633D02*
X8288123Y-18509110D01*
X8288123Y-18509110D02*
X8297647Y-18499586D01*
X8297647Y-18499586D02*
X8297647Y-18518633D01*
X8430980Y-18318633D02*
X8450028Y-18318633D01*
X8450028Y-18318633D02*
X8469075Y-18328157D01*
X8469075Y-18328157D02*
X8478599Y-18337681D01*
X8478599Y-18337681D02*
X8488123Y-18356729D01*
X8488123Y-18356729D02*
X8497647Y-18394824D01*
X8497647Y-18394824D02*
X8497647Y-18442443D01*
X8497647Y-18442443D02*
X8488123Y-18480538D01*
X8488123Y-18480538D02*
X8478599Y-18499586D01*
X8478599Y-18499586D02*
X8469075Y-18509110D01*
X8469075Y-18509110D02*
X8450028Y-18518633D01*
X8450028Y-18518633D02*
X8430980Y-18518633D01*
X8430980Y-18518633D02*
X8411932Y-18509110D01*
X8411932Y-18509110D02*
X8402409Y-18499586D01*
X8402409Y-18499586D02*
X8392885Y-18480538D01*
X8392885Y-18480538D02*
X8383361Y-18442443D01*
X8383361Y-18442443D02*
X8383361Y-18394824D01*
X8383361Y-18394824D02*
X8392885Y-18356729D01*
X8392885Y-18356729D02*
X8402409Y-18337681D01*
X8402409Y-18337681D02*
X8411932Y-18328157D01*
X8411932Y-18328157D02*
X8430980Y-18318633D01*
X8688123Y-18518633D02*
X8573837Y-18518633D01*
X8630980Y-18518633D02*
X8630980Y-18318633D01*
X8630980Y-18318633D02*
X8611932Y-18347205D01*
X8611932Y-18347205D02*
X8592885Y-18366252D01*
X8592885Y-18366252D02*
X8573837Y-18375776D01*
X8869075Y-18318633D02*
X8773837Y-18318633D01*
X8773837Y-18318633D02*
X8764313Y-18413871D01*
X8764313Y-18413871D02*
X8773837Y-18404348D01*
X8773837Y-18404348D02*
X8792885Y-18394824D01*
X8792885Y-18394824D02*
X8840504Y-18394824D01*
X8840504Y-18394824D02*
X8859552Y-18404348D01*
X8859552Y-18404348D02*
X8869075Y-18413871D01*
X8869075Y-18413871D02*
X8878599Y-18432919D01*
X8878599Y-18432919D02*
X8878599Y-18480538D01*
X8878599Y-18480538D02*
X8869075Y-18499586D01*
X8869075Y-18499586D02*
X8859552Y-18509110D01*
X8859552Y-18509110D02*
X8840504Y-18518633D01*
X8840504Y-18518633D02*
X8792885Y-18518633D01*
X8792885Y-18518633D02*
X8773837Y-18509110D01*
X8773837Y-18509110D02*
X8764313Y-18499586D01*
X8945266Y-18318633D02*
X9078599Y-18318633D01*
X9078599Y-18318633D02*
X8992885Y-18518633D01*
X9145266Y-18318633D02*
X9145266Y-18356729D01*
X9221456Y-18318633D02*
X9221456Y-18356729D01*
X9516695Y-18594824D02*
X9507171Y-18585300D01*
X9507171Y-18585300D02*
X9488123Y-18556729D01*
X9488123Y-18556729D02*
X9478599Y-18537681D01*
X9478599Y-18537681D02*
X9469075Y-18509110D01*
X9469075Y-18509110D02*
X9459552Y-18461490D01*
X9459552Y-18461490D02*
X9459552Y-18423395D01*
X9459552Y-18423395D02*
X9469075Y-18375776D01*
X9469075Y-18375776D02*
X9478599Y-18347205D01*
X9478599Y-18347205D02*
X9488123Y-18328157D01*
X9488123Y-18328157D02*
X9507171Y-18299586D01*
X9507171Y-18299586D02*
X9516695Y-18290062D01*
X9697647Y-18518633D02*
X9583361Y-18518633D01*
X9640504Y-18518633D02*
X9640504Y-18318633D01*
X9640504Y-18318633D02*
X9621456Y-18347205D01*
X9621456Y-18347205D02*
X9602409Y-18366252D01*
X9602409Y-18366252D02*
X9583361Y-18375776D01*
X9888123Y-18518633D02*
X9773837Y-18518633D01*
X9830980Y-18518633D02*
X9830980Y-18318633D01*
X9830980Y-18318633D02*
X9811933Y-18347205D01*
X9811933Y-18347205D02*
X9792885Y-18366252D01*
X9792885Y-18366252D02*
X9773837Y-18375776D01*
X9954790Y-18318633D02*
X10078599Y-18318633D01*
X10078599Y-18318633D02*
X10011933Y-18394824D01*
X10011933Y-18394824D02*
X10040504Y-18394824D01*
X10040504Y-18394824D02*
X10059552Y-18404348D01*
X10059552Y-18404348D02*
X10069075Y-18413871D01*
X10069075Y-18413871D02*
X10078599Y-18432919D01*
X10078599Y-18432919D02*
X10078599Y-18480538D01*
X10078599Y-18480538D02*
X10069075Y-18499586D01*
X10069075Y-18499586D02*
X10059552Y-18509110D01*
X10059552Y-18509110D02*
X10040504Y-18518633D01*
X10040504Y-18518633D02*
X9983361Y-18518633D01*
X9983361Y-18518633D02*
X9964314Y-18509110D01*
X9964314Y-18509110D02*
X9954790Y-18499586D01*
X10316695Y-18518633D02*
X10316695Y-18318633D01*
X10402409Y-18518633D02*
X10402409Y-18413871D01*
X10402409Y-18413871D02*
X10392885Y-18394824D01*
X10392885Y-18394824D02*
X10373837Y-18385300D01*
X10373837Y-18385300D02*
X10345266Y-18385300D01*
X10345266Y-18385300D02*
X10326218Y-18394824D01*
X10326218Y-18394824D02*
X10316695Y-18404348D01*
X10526218Y-18518633D02*
X10507171Y-18509110D01*
X10507171Y-18509110D02*
X10497647Y-18499586D01*
X10497647Y-18499586D02*
X10488123Y-18480538D01*
X10488123Y-18480538D02*
X10488123Y-18423395D01*
X10488123Y-18423395D02*
X10497647Y-18404348D01*
X10497647Y-18404348D02*
X10507171Y-18394824D01*
X10507171Y-18394824D02*
X10526218Y-18385300D01*
X10526218Y-18385300D02*
X10554790Y-18385300D01*
X10554790Y-18385300D02*
X10573837Y-18394824D01*
X10573837Y-18394824D02*
X10583361Y-18404348D01*
X10583361Y-18404348D02*
X10592885Y-18423395D01*
X10592885Y-18423395D02*
X10592885Y-18480538D01*
X10592885Y-18480538D02*
X10583361Y-18499586D01*
X10583361Y-18499586D02*
X10573837Y-18509110D01*
X10573837Y-18509110D02*
X10554790Y-18518633D01*
X10554790Y-18518633D02*
X10526218Y-18518633D01*
X10707171Y-18518633D02*
X10688123Y-18509110D01*
X10688123Y-18509110D02*
X10678599Y-18490062D01*
X10678599Y-18490062D02*
X10678599Y-18318633D01*
X10859552Y-18509110D02*
X10840504Y-18518633D01*
X10840504Y-18518633D02*
X10802409Y-18518633D01*
X10802409Y-18518633D02*
X10783361Y-18509110D01*
X10783361Y-18509110D02*
X10773837Y-18490062D01*
X10773837Y-18490062D02*
X10773837Y-18413871D01*
X10773837Y-18413871D02*
X10783361Y-18394824D01*
X10783361Y-18394824D02*
X10802409Y-18385300D01*
X10802409Y-18385300D02*
X10840504Y-18385300D01*
X10840504Y-18385300D02*
X10859552Y-18394824D01*
X10859552Y-18394824D02*
X10869076Y-18413871D01*
X10869076Y-18413871D02*
X10869076Y-18432919D01*
X10869076Y-18432919D02*
X10773837Y-18451967D01*
X10945266Y-18509110D02*
X10964314Y-18518633D01*
X10964314Y-18518633D02*
X11002409Y-18518633D01*
X11002409Y-18518633D02*
X11021457Y-18509110D01*
X11021457Y-18509110D02*
X11030980Y-18490062D01*
X11030980Y-18490062D02*
X11030980Y-18480538D01*
X11030980Y-18480538D02*
X11021457Y-18461490D01*
X11021457Y-18461490D02*
X11002409Y-18451967D01*
X11002409Y-18451967D02*
X10973837Y-18451967D01*
X10973837Y-18451967D02*
X10954790Y-18442443D01*
X10954790Y-18442443D02*
X10945266Y-18423395D01*
X10945266Y-18423395D02*
X10945266Y-18413871D01*
X10945266Y-18413871D02*
X10954790Y-18394824D01*
X10954790Y-18394824D02*
X10973837Y-18385300D01*
X10973837Y-18385300D02*
X11002409Y-18385300D01*
X11002409Y-18385300D02*
X11021457Y-18394824D01*
X11097647Y-18594824D02*
X11107171Y-18585300D01*
X11107171Y-18585300D02*
X11126218Y-18556729D01*
X11126218Y-18556729D02*
X11135742Y-18537681D01*
X11135742Y-18537681D02*
X11145266Y-18509110D01*
X11145266Y-18509110D02*
X11154790Y-18461490D01*
X11154790Y-18461490D02*
X11154790Y-18423395D01*
X11154790Y-18423395D02*
X11145266Y-18375776D01*
X11145266Y-18375776D02*
X11135742Y-18347205D01*
X11135742Y-18347205D02*
X11126218Y-18328157D01*
X11126218Y-18328157D02*
X11107171Y-18299586D01*
X11107171Y-18299586D02*
X11097647Y-18290062D01*
D12*
X5954789Y-18690110D02*
G75*
G03*
X5954789Y-18690110I-50000J0D01*
G01*
D10*
X6307170Y-18782633D02*
X6192885Y-18782633D01*
X6250027Y-18782633D02*
X6250027Y-18582633D01*
X6250027Y-18582633D02*
X6230980Y-18611205D01*
X6230980Y-18611205D02*
X6211932Y-18630252D01*
X6211932Y-18630252D02*
X6192885Y-18639776D01*
X6392885Y-18763586D02*
X6402408Y-18773110D01*
X6402408Y-18773110D02*
X6392885Y-18782633D01*
X6392885Y-18782633D02*
X6383361Y-18773110D01*
X6383361Y-18773110D02*
X6392885Y-18763586D01*
X6392885Y-18763586D02*
X6392885Y-18782633D01*
X6526218Y-18582633D02*
X6545266Y-18582633D01*
X6545266Y-18582633D02*
X6564313Y-18592157D01*
X6564313Y-18592157D02*
X6573837Y-18601681D01*
X6573837Y-18601681D02*
X6583361Y-18620729D01*
X6583361Y-18620729D02*
X6592885Y-18658824D01*
X6592885Y-18658824D02*
X6592885Y-18706443D01*
X6592885Y-18706443D02*
X6583361Y-18744538D01*
X6583361Y-18744538D02*
X6573837Y-18763586D01*
X6573837Y-18763586D02*
X6564313Y-18773110D01*
X6564313Y-18773110D02*
X6545266Y-18782633D01*
X6545266Y-18782633D02*
X6526218Y-18782633D01*
X6526218Y-18782633D02*
X6507170Y-18773110D01*
X6507170Y-18773110D02*
X6497646Y-18763586D01*
X6497646Y-18763586D02*
X6488123Y-18744538D01*
X6488123Y-18744538D02*
X6478599Y-18706443D01*
X6478599Y-18706443D02*
X6478599Y-18658824D01*
X6478599Y-18658824D02*
X6488123Y-18620729D01*
X6488123Y-18620729D02*
X6497646Y-18601681D01*
X6497646Y-18601681D02*
X6507170Y-18592157D01*
X6507170Y-18592157D02*
X6526218Y-18582633D01*
X6716694Y-18582633D02*
X6735742Y-18582633D01*
X6735742Y-18582633D02*
X6754789Y-18592157D01*
X6754789Y-18592157D02*
X6764313Y-18601681D01*
X6764313Y-18601681D02*
X6773837Y-18620729D01*
X6773837Y-18620729D02*
X6783361Y-18658824D01*
X6783361Y-18658824D02*
X6783361Y-18706443D01*
X6783361Y-18706443D02*
X6773837Y-18744538D01*
X6773837Y-18744538D02*
X6764313Y-18763586D01*
X6764313Y-18763586D02*
X6754789Y-18773110D01*
X6754789Y-18773110D02*
X6735742Y-18782633D01*
X6735742Y-18782633D02*
X6716694Y-18782633D01*
X6716694Y-18782633D02*
X6697646Y-18773110D01*
X6697646Y-18773110D02*
X6688123Y-18763586D01*
X6688123Y-18763586D02*
X6678599Y-18744538D01*
X6678599Y-18744538D02*
X6669075Y-18706443D01*
X6669075Y-18706443D02*
X6669075Y-18658824D01*
X6669075Y-18658824D02*
X6678599Y-18620729D01*
X6678599Y-18620729D02*
X6688123Y-18601681D01*
X6688123Y-18601681D02*
X6697646Y-18592157D01*
X6697646Y-18592157D02*
X6716694Y-18582633D01*
X6907170Y-18582633D02*
X6926218Y-18582633D01*
X6926218Y-18582633D02*
X6945266Y-18592157D01*
X6945266Y-18592157D02*
X6954789Y-18601681D01*
X6954789Y-18601681D02*
X6964313Y-18620729D01*
X6964313Y-18620729D02*
X6973837Y-18658824D01*
X6973837Y-18658824D02*
X6973837Y-18706443D01*
X6973837Y-18706443D02*
X6964313Y-18744538D01*
X6964313Y-18744538D02*
X6954789Y-18763586D01*
X6954789Y-18763586D02*
X6945266Y-18773110D01*
X6945266Y-18773110D02*
X6926218Y-18782633D01*
X6926218Y-18782633D02*
X6907170Y-18782633D01*
X6907170Y-18782633D02*
X6888123Y-18773110D01*
X6888123Y-18773110D02*
X6878599Y-18763586D01*
X6878599Y-18763586D02*
X6869075Y-18744538D01*
X6869075Y-18744538D02*
X6859551Y-18706443D01*
X6859551Y-18706443D02*
X6859551Y-18658824D01*
X6859551Y-18658824D02*
X6869075Y-18620729D01*
X6869075Y-18620729D02*
X6878599Y-18601681D01*
X6878599Y-18601681D02*
X6888123Y-18592157D01*
X6888123Y-18592157D02*
X6907170Y-18582633D01*
X7059551Y-18782633D02*
X7059551Y-18649300D01*
X7059551Y-18668348D02*
X7069075Y-18658824D01*
X7069075Y-18658824D02*
X7088123Y-18649300D01*
X7088123Y-18649300D02*
X7116694Y-18649300D01*
X7116694Y-18649300D02*
X7135742Y-18658824D01*
X7135742Y-18658824D02*
X7145266Y-18677871D01*
X7145266Y-18677871D02*
X7145266Y-18782633D01*
X7145266Y-18677871D02*
X7154789Y-18658824D01*
X7154789Y-18658824D02*
X7173837Y-18649300D01*
X7173837Y-18649300D02*
X7202408Y-18649300D01*
X7202408Y-18649300D02*
X7221456Y-18658824D01*
X7221456Y-18658824D02*
X7230980Y-18677871D01*
X7230980Y-18677871D02*
X7230980Y-18782633D01*
X7326218Y-18782633D02*
X7326218Y-18649300D01*
X7326218Y-18668348D02*
X7335742Y-18658824D01*
X7335742Y-18658824D02*
X7354789Y-18649300D01*
X7354789Y-18649300D02*
X7383361Y-18649300D01*
X7383361Y-18649300D02*
X7402408Y-18658824D01*
X7402408Y-18658824D02*
X7411932Y-18677871D01*
X7411932Y-18677871D02*
X7411932Y-18782633D01*
X7411932Y-18677871D02*
X7421456Y-18658824D01*
X7421456Y-18658824D02*
X7440504Y-18649300D01*
X7440504Y-18649300D02*
X7469075Y-18649300D01*
X7469075Y-18649300D02*
X7488123Y-18658824D01*
X7488123Y-18658824D02*
X7497647Y-18677871D01*
X7497647Y-18677871D02*
X7497647Y-18782633D01*
X7888123Y-18573110D02*
X7716694Y-18830252D01*
X8145266Y-18582633D02*
X8164313Y-18582633D01*
X8164313Y-18582633D02*
X8183361Y-18592157D01*
X8183361Y-18592157D02*
X8192885Y-18601681D01*
X8192885Y-18601681D02*
X8202409Y-18620729D01*
X8202409Y-18620729D02*
X8211932Y-18658824D01*
X8211932Y-18658824D02*
X8211932Y-18706443D01*
X8211932Y-18706443D02*
X8202409Y-18744538D01*
X8202409Y-18744538D02*
X8192885Y-18763586D01*
X8192885Y-18763586D02*
X8183361Y-18773110D01*
X8183361Y-18773110D02*
X8164313Y-18782633D01*
X8164313Y-18782633D02*
X8145266Y-18782633D01*
X8145266Y-18782633D02*
X8126218Y-18773110D01*
X8126218Y-18773110D02*
X8116694Y-18763586D01*
X8116694Y-18763586D02*
X8107170Y-18744538D01*
X8107170Y-18744538D02*
X8097647Y-18706443D01*
X8097647Y-18706443D02*
X8097647Y-18658824D01*
X8097647Y-18658824D02*
X8107170Y-18620729D01*
X8107170Y-18620729D02*
X8116694Y-18601681D01*
X8116694Y-18601681D02*
X8126218Y-18592157D01*
X8126218Y-18592157D02*
X8145266Y-18582633D01*
X8297647Y-18763586D02*
X8307170Y-18773110D01*
X8307170Y-18773110D02*
X8297647Y-18782633D01*
X8297647Y-18782633D02*
X8288123Y-18773110D01*
X8288123Y-18773110D02*
X8297647Y-18763586D01*
X8297647Y-18763586D02*
X8297647Y-18782633D01*
X8430980Y-18582633D02*
X8450028Y-18582633D01*
X8450028Y-18582633D02*
X8469075Y-18592157D01*
X8469075Y-18592157D02*
X8478599Y-18601681D01*
X8478599Y-18601681D02*
X8488123Y-18620729D01*
X8488123Y-18620729D02*
X8497647Y-18658824D01*
X8497647Y-18658824D02*
X8497647Y-18706443D01*
X8497647Y-18706443D02*
X8488123Y-18744538D01*
X8488123Y-18744538D02*
X8478599Y-18763586D01*
X8478599Y-18763586D02*
X8469075Y-18773110D01*
X8469075Y-18773110D02*
X8450028Y-18782633D01*
X8450028Y-18782633D02*
X8430980Y-18782633D01*
X8430980Y-18782633D02*
X8411932Y-18773110D01*
X8411932Y-18773110D02*
X8402409Y-18763586D01*
X8402409Y-18763586D02*
X8392885Y-18744538D01*
X8392885Y-18744538D02*
X8383361Y-18706443D01*
X8383361Y-18706443D02*
X8383361Y-18658824D01*
X8383361Y-18658824D02*
X8392885Y-18620729D01*
X8392885Y-18620729D02*
X8402409Y-18601681D01*
X8402409Y-18601681D02*
X8411932Y-18592157D01*
X8411932Y-18592157D02*
X8430980Y-18582633D01*
X8564313Y-18582633D02*
X8688123Y-18582633D01*
X8688123Y-18582633D02*
X8621456Y-18658824D01*
X8621456Y-18658824D02*
X8650028Y-18658824D01*
X8650028Y-18658824D02*
X8669075Y-18668348D01*
X8669075Y-18668348D02*
X8678599Y-18677871D01*
X8678599Y-18677871D02*
X8688123Y-18696919D01*
X8688123Y-18696919D02*
X8688123Y-18744538D01*
X8688123Y-18744538D02*
X8678599Y-18763586D01*
X8678599Y-18763586D02*
X8669075Y-18773110D01*
X8669075Y-18773110D02*
X8650028Y-18782633D01*
X8650028Y-18782633D02*
X8592885Y-18782633D01*
X8592885Y-18782633D02*
X8573837Y-18773110D01*
X8573837Y-18773110D02*
X8564313Y-18763586D01*
X8783361Y-18782633D02*
X8821456Y-18782633D01*
X8821456Y-18782633D02*
X8840504Y-18773110D01*
X8840504Y-18773110D02*
X8850028Y-18763586D01*
X8850028Y-18763586D02*
X8869075Y-18735014D01*
X8869075Y-18735014D02*
X8878599Y-18696919D01*
X8878599Y-18696919D02*
X8878599Y-18620729D01*
X8878599Y-18620729D02*
X8869075Y-18601681D01*
X8869075Y-18601681D02*
X8859552Y-18592157D01*
X8859552Y-18592157D02*
X8840504Y-18582633D01*
X8840504Y-18582633D02*
X8802409Y-18582633D01*
X8802409Y-18582633D02*
X8783361Y-18592157D01*
X8783361Y-18592157D02*
X8773837Y-18601681D01*
X8773837Y-18601681D02*
X8764313Y-18620729D01*
X8764313Y-18620729D02*
X8764313Y-18668348D01*
X8764313Y-18668348D02*
X8773837Y-18687395D01*
X8773837Y-18687395D02*
X8783361Y-18696919D01*
X8783361Y-18696919D02*
X8802409Y-18706443D01*
X8802409Y-18706443D02*
X8840504Y-18706443D01*
X8840504Y-18706443D02*
X8859552Y-18696919D01*
X8859552Y-18696919D02*
X8869075Y-18687395D01*
X8869075Y-18687395D02*
X8878599Y-18668348D01*
X9050028Y-18649300D02*
X9050028Y-18782633D01*
X9002409Y-18573110D02*
X8954790Y-18715967D01*
X8954790Y-18715967D02*
X9078599Y-18715967D01*
X9145266Y-18582633D02*
X9145266Y-18620729D01*
X9221456Y-18582633D02*
X9221456Y-18620729D01*
X9516695Y-18858824D02*
X9507171Y-18849300D01*
X9507171Y-18849300D02*
X9488123Y-18820729D01*
X9488123Y-18820729D02*
X9478599Y-18801681D01*
X9478599Y-18801681D02*
X9469075Y-18773110D01*
X9469075Y-18773110D02*
X9459552Y-18725490D01*
X9459552Y-18725490D02*
X9459552Y-18687395D01*
X9459552Y-18687395D02*
X9469075Y-18639776D01*
X9469075Y-18639776D02*
X9478599Y-18611205D01*
X9478599Y-18611205D02*
X9488123Y-18592157D01*
X9488123Y-18592157D02*
X9507171Y-18563586D01*
X9507171Y-18563586D02*
X9516695Y-18554062D01*
X9688123Y-18582633D02*
X9592885Y-18582633D01*
X9592885Y-18582633D02*
X9583361Y-18677871D01*
X9583361Y-18677871D02*
X9592885Y-18668348D01*
X9592885Y-18668348D02*
X9611933Y-18658824D01*
X9611933Y-18658824D02*
X9659552Y-18658824D01*
X9659552Y-18658824D02*
X9678599Y-18668348D01*
X9678599Y-18668348D02*
X9688123Y-18677871D01*
X9688123Y-18677871D02*
X9697647Y-18696919D01*
X9697647Y-18696919D02*
X9697647Y-18744538D01*
X9697647Y-18744538D02*
X9688123Y-18763586D01*
X9688123Y-18763586D02*
X9678599Y-18773110D01*
X9678599Y-18773110D02*
X9659552Y-18782633D01*
X9659552Y-18782633D02*
X9611933Y-18782633D01*
X9611933Y-18782633D02*
X9592885Y-18773110D01*
X9592885Y-18773110D02*
X9583361Y-18763586D01*
X9935742Y-18782633D02*
X9935742Y-18582633D01*
X10021456Y-18782633D02*
X10021456Y-18677871D01*
X10021456Y-18677871D02*
X10011933Y-18658824D01*
X10011933Y-18658824D02*
X9992885Y-18649300D01*
X9992885Y-18649300D02*
X9964314Y-18649300D01*
X9964314Y-18649300D02*
X9945266Y-18658824D01*
X9945266Y-18658824D02*
X9935742Y-18668348D01*
X10145266Y-18782633D02*
X10126218Y-18773110D01*
X10126218Y-18773110D02*
X10116695Y-18763586D01*
X10116695Y-18763586D02*
X10107171Y-18744538D01*
X10107171Y-18744538D02*
X10107171Y-18687395D01*
X10107171Y-18687395D02*
X10116695Y-18668348D01*
X10116695Y-18668348D02*
X10126218Y-18658824D01*
X10126218Y-18658824D02*
X10145266Y-18649300D01*
X10145266Y-18649300D02*
X10173837Y-18649300D01*
X10173837Y-18649300D02*
X10192885Y-18658824D01*
X10192885Y-18658824D02*
X10202409Y-18668348D01*
X10202409Y-18668348D02*
X10211933Y-18687395D01*
X10211933Y-18687395D02*
X10211933Y-18744538D01*
X10211933Y-18744538D02*
X10202409Y-18763586D01*
X10202409Y-18763586D02*
X10192885Y-18773110D01*
X10192885Y-18773110D02*
X10173837Y-18782633D01*
X10173837Y-18782633D02*
X10145266Y-18782633D01*
X10326218Y-18782633D02*
X10307171Y-18773110D01*
X10307171Y-18773110D02*
X10297647Y-18754062D01*
X10297647Y-18754062D02*
X10297647Y-18582633D01*
X10478599Y-18773110D02*
X10459552Y-18782633D01*
X10459552Y-18782633D02*
X10421456Y-18782633D01*
X10421456Y-18782633D02*
X10402409Y-18773110D01*
X10402409Y-18773110D02*
X10392885Y-18754062D01*
X10392885Y-18754062D02*
X10392885Y-18677871D01*
X10392885Y-18677871D02*
X10402409Y-18658824D01*
X10402409Y-18658824D02*
X10421456Y-18649300D01*
X10421456Y-18649300D02*
X10459552Y-18649300D01*
X10459552Y-18649300D02*
X10478599Y-18658824D01*
X10478599Y-18658824D02*
X10488123Y-18677871D01*
X10488123Y-18677871D02*
X10488123Y-18696919D01*
X10488123Y-18696919D02*
X10392885Y-18715967D01*
X10564314Y-18773110D02*
X10583361Y-18782633D01*
X10583361Y-18782633D02*
X10621456Y-18782633D01*
X10621456Y-18782633D02*
X10640504Y-18773110D01*
X10640504Y-18773110D02*
X10650028Y-18754062D01*
X10650028Y-18754062D02*
X10650028Y-18744538D01*
X10650028Y-18744538D02*
X10640504Y-18725490D01*
X10640504Y-18725490D02*
X10621456Y-18715967D01*
X10621456Y-18715967D02*
X10592885Y-18715967D01*
X10592885Y-18715967D02*
X10573837Y-18706443D01*
X10573837Y-18706443D02*
X10564314Y-18687395D01*
X10564314Y-18687395D02*
X10564314Y-18677871D01*
X10564314Y-18677871D02*
X10573837Y-18658824D01*
X10573837Y-18658824D02*
X10592885Y-18649300D01*
X10592885Y-18649300D02*
X10621456Y-18649300D01*
X10621456Y-18649300D02*
X10640504Y-18658824D01*
X10716695Y-18858824D02*
X10726218Y-18849300D01*
X10726218Y-18849300D02*
X10745266Y-18820729D01*
X10745266Y-18820729D02*
X10754790Y-18801681D01*
X10754790Y-18801681D02*
X10764314Y-18773110D01*
X10764314Y-18773110D02*
X10773837Y-18725490D01*
X10773837Y-18725490D02*
X10773837Y-18687395D01*
X10773837Y-18687395D02*
X10764314Y-18639776D01*
X10764314Y-18639776D02*
X10754790Y-18611205D01*
X10754790Y-18611205D02*
X10745266Y-18592157D01*
X10745266Y-18592157D02*
X10726218Y-18563586D01*
X10726218Y-18563586D02*
X10716695Y-18554062D01*
D13*
X5878589Y-18877910D02*
X5878589Y-19030310D01*
X5802389Y-18954110D02*
X5954789Y-18954110D01*
D10*
X6307170Y-19046633D02*
X6192885Y-19046633D01*
X6250027Y-19046633D02*
X6250027Y-18846633D01*
X6250027Y-18846633D02*
X6230980Y-18875205D01*
X6230980Y-18875205D02*
X6211932Y-18894252D01*
X6211932Y-18894252D02*
X6192885Y-18903776D01*
X6392885Y-19027586D02*
X6402408Y-19037110D01*
X6402408Y-19037110D02*
X6392885Y-19046633D01*
X6392885Y-19046633D02*
X6383361Y-19037110D01*
X6383361Y-19037110D02*
X6392885Y-19027586D01*
X6392885Y-19027586D02*
X6392885Y-19046633D01*
X6583361Y-18846633D02*
X6488123Y-18846633D01*
X6488123Y-18846633D02*
X6478599Y-18941871D01*
X6478599Y-18941871D02*
X6488123Y-18932348D01*
X6488123Y-18932348D02*
X6507170Y-18922824D01*
X6507170Y-18922824D02*
X6554789Y-18922824D01*
X6554789Y-18922824D02*
X6573837Y-18932348D01*
X6573837Y-18932348D02*
X6583361Y-18941871D01*
X6583361Y-18941871D02*
X6592885Y-18960919D01*
X6592885Y-18960919D02*
X6592885Y-19008538D01*
X6592885Y-19008538D02*
X6583361Y-19027586D01*
X6583361Y-19027586D02*
X6573837Y-19037110D01*
X6573837Y-19037110D02*
X6554789Y-19046633D01*
X6554789Y-19046633D02*
X6507170Y-19046633D01*
X6507170Y-19046633D02*
X6488123Y-19037110D01*
X6488123Y-19037110D02*
X6478599Y-19027586D01*
X6669075Y-18865681D02*
X6678599Y-18856157D01*
X6678599Y-18856157D02*
X6697646Y-18846633D01*
X6697646Y-18846633D02*
X6745266Y-18846633D01*
X6745266Y-18846633D02*
X6764313Y-18856157D01*
X6764313Y-18856157D02*
X6773837Y-18865681D01*
X6773837Y-18865681D02*
X6783361Y-18884729D01*
X6783361Y-18884729D02*
X6783361Y-18903776D01*
X6783361Y-18903776D02*
X6773837Y-18932348D01*
X6773837Y-18932348D02*
X6659551Y-19046633D01*
X6659551Y-19046633D02*
X6783361Y-19046633D01*
X6954789Y-18913300D02*
X6954789Y-19046633D01*
X6907170Y-18837110D02*
X6859551Y-18979967D01*
X6859551Y-18979967D02*
X6983361Y-18979967D01*
X7059551Y-19046633D02*
X7059551Y-18913300D01*
X7059551Y-18932348D02*
X7069075Y-18922824D01*
X7069075Y-18922824D02*
X7088123Y-18913300D01*
X7088123Y-18913300D02*
X7116694Y-18913300D01*
X7116694Y-18913300D02*
X7135742Y-18922824D01*
X7135742Y-18922824D02*
X7145266Y-18941871D01*
X7145266Y-18941871D02*
X7145266Y-19046633D01*
X7145266Y-18941871D02*
X7154789Y-18922824D01*
X7154789Y-18922824D02*
X7173837Y-18913300D01*
X7173837Y-18913300D02*
X7202408Y-18913300D01*
X7202408Y-18913300D02*
X7221456Y-18922824D01*
X7221456Y-18922824D02*
X7230980Y-18941871D01*
X7230980Y-18941871D02*
X7230980Y-19046633D01*
X7326218Y-19046633D02*
X7326218Y-18913300D01*
X7326218Y-18932348D02*
X7335742Y-18922824D01*
X7335742Y-18922824D02*
X7354789Y-18913300D01*
X7354789Y-18913300D02*
X7383361Y-18913300D01*
X7383361Y-18913300D02*
X7402408Y-18922824D01*
X7402408Y-18922824D02*
X7411932Y-18941871D01*
X7411932Y-18941871D02*
X7411932Y-19046633D01*
X7411932Y-18941871D02*
X7421456Y-18922824D01*
X7421456Y-18922824D02*
X7440504Y-18913300D01*
X7440504Y-18913300D02*
X7469075Y-18913300D01*
X7469075Y-18913300D02*
X7488123Y-18922824D01*
X7488123Y-18922824D02*
X7497647Y-18941871D01*
X7497647Y-18941871D02*
X7497647Y-19046633D01*
X7888123Y-18837110D02*
X7716694Y-19094252D01*
X8145266Y-18846633D02*
X8164313Y-18846633D01*
X8164313Y-18846633D02*
X8183361Y-18856157D01*
X8183361Y-18856157D02*
X8192885Y-18865681D01*
X8192885Y-18865681D02*
X8202409Y-18884729D01*
X8202409Y-18884729D02*
X8211932Y-18922824D01*
X8211932Y-18922824D02*
X8211932Y-18970443D01*
X8211932Y-18970443D02*
X8202409Y-19008538D01*
X8202409Y-19008538D02*
X8192885Y-19027586D01*
X8192885Y-19027586D02*
X8183361Y-19037110D01*
X8183361Y-19037110D02*
X8164313Y-19046633D01*
X8164313Y-19046633D02*
X8145266Y-19046633D01*
X8145266Y-19046633D02*
X8126218Y-19037110D01*
X8126218Y-19037110D02*
X8116694Y-19027586D01*
X8116694Y-19027586D02*
X8107170Y-19008538D01*
X8107170Y-19008538D02*
X8097647Y-18970443D01*
X8097647Y-18970443D02*
X8097647Y-18922824D01*
X8097647Y-18922824D02*
X8107170Y-18884729D01*
X8107170Y-18884729D02*
X8116694Y-18865681D01*
X8116694Y-18865681D02*
X8126218Y-18856157D01*
X8126218Y-18856157D02*
X8145266Y-18846633D01*
X8297647Y-19027586D02*
X8307170Y-19037110D01*
X8307170Y-19037110D02*
X8297647Y-19046633D01*
X8297647Y-19046633D02*
X8288123Y-19037110D01*
X8288123Y-19037110D02*
X8297647Y-19027586D01*
X8297647Y-19027586D02*
X8297647Y-19046633D01*
X8430980Y-18846633D02*
X8450028Y-18846633D01*
X8450028Y-18846633D02*
X8469075Y-18856157D01*
X8469075Y-18856157D02*
X8478599Y-18865681D01*
X8478599Y-18865681D02*
X8488123Y-18884729D01*
X8488123Y-18884729D02*
X8497647Y-18922824D01*
X8497647Y-18922824D02*
X8497647Y-18970443D01*
X8497647Y-18970443D02*
X8488123Y-19008538D01*
X8488123Y-19008538D02*
X8478599Y-19027586D01*
X8478599Y-19027586D02*
X8469075Y-19037110D01*
X8469075Y-19037110D02*
X8450028Y-19046633D01*
X8450028Y-19046633D02*
X8430980Y-19046633D01*
X8430980Y-19046633D02*
X8411932Y-19037110D01*
X8411932Y-19037110D02*
X8402409Y-19027586D01*
X8402409Y-19027586D02*
X8392885Y-19008538D01*
X8392885Y-19008538D02*
X8383361Y-18970443D01*
X8383361Y-18970443D02*
X8383361Y-18922824D01*
X8383361Y-18922824D02*
X8392885Y-18884729D01*
X8392885Y-18884729D02*
X8402409Y-18865681D01*
X8402409Y-18865681D02*
X8411932Y-18856157D01*
X8411932Y-18856157D02*
X8430980Y-18846633D01*
X8669075Y-18846633D02*
X8630980Y-18846633D01*
X8630980Y-18846633D02*
X8611932Y-18856157D01*
X8611932Y-18856157D02*
X8602409Y-18865681D01*
X8602409Y-18865681D02*
X8583361Y-18894252D01*
X8583361Y-18894252D02*
X8573837Y-18932348D01*
X8573837Y-18932348D02*
X8573837Y-19008538D01*
X8573837Y-19008538D02*
X8583361Y-19027586D01*
X8583361Y-19027586D02*
X8592885Y-19037110D01*
X8592885Y-19037110D02*
X8611932Y-19046633D01*
X8611932Y-19046633D02*
X8650028Y-19046633D01*
X8650028Y-19046633D02*
X8669075Y-19037110D01*
X8669075Y-19037110D02*
X8678599Y-19027586D01*
X8678599Y-19027586D02*
X8688123Y-19008538D01*
X8688123Y-19008538D02*
X8688123Y-18960919D01*
X8688123Y-18960919D02*
X8678599Y-18941871D01*
X8678599Y-18941871D02*
X8669075Y-18932348D01*
X8669075Y-18932348D02*
X8650028Y-18922824D01*
X8650028Y-18922824D02*
X8611932Y-18922824D01*
X8611932Y-18922824D02*
X8592885Y-18932348D01*
X8592885Y-18932348D02*
X8583361Y-18941871D01*
X8583361Y-18941871D02*
X8573837Y-18960919D01*
X8811932Y-18846633D02*
X8830980Y-18846633D01*
X8830980Y-18846633D02*
X8850028Y-18856157D01*
X8850028Y-18856157D02*
X8859552Y-18865681D01*
X8859552Y-18865681D02*
X8869075Y-18884729D01*
X8869075Y-18884729D02*
X8878599Y-18922824D01*
X8878599Y-18922824D02*
X8878599Y-18970443D01*
X8878599Y-18970443D02*
X8869075Y-19008538D01*
X8869075Y-19008538D02*
X8859552Y-19027586D01*
X8859552Y-19027586D02*
X8850028Y-19037110D01*
X8850028Y-19037110D02*
X8830980Y-19046633D01*
X8830980Y-19046633D02*
X8811932Y-19046633D01*
X8811932Y-19046633D02*
X8792885Y-19037110D01*
X8792885Y-19037110D02*
X8783361Y-19027586D01*
X8783361Y-19027586D02*
X8773837Y-19008538D01*
X8773837Y-19008538D02*
X8764313Y-18970443D01*
X8764313Y-18970443D02*
X8764313Y-18922824D01*
X8764313Y-18922824D02*
X8773837Y-18884729D01*
X8773837Y-18884729D02*
X8783361Y-18865681D01*
X8783361Y-18865681D02*
X8792885Y-18856157D01*
X8792885Y-18856157D02*
X8811932Y-18846633D01*
X9002409Y-18846633D02*
X9021456Y-18846633D01*
X9021456Y-18846633D02*
X9040504Y-18856157D01*
X9040504Y-18856157D02*
X9050028Y-18865681D01*
X9050028Y-18865681D02*
X9059552Y-18884729D01*
X9059552Y-18884729D02*
X9069075Y-18922824D01*
X9069075Y-18922824D02*
X9069075Y-18970443D01*
X9069075Y-18970443D02*
X9059552Y-19008538D01*
X9059552Y-19008538D02*
X9050028Y-19027586D01*
X9050028Y-19027586D02*
X9040504Y-19037110D01*
X9040504Y-19037110D02*
X9021456Y-19046633D01*
X9021456Y-19046633D02*
X9002409Y-19046633D01*
X9002409Y-19046633D02*
X8983361Y-19037110D01*
X8983361Y-19037110D02*
X8973837Y-19027586D01*
X8973837Y-19027586D02*
X8964313Y-19008538D01*
X8964313Y-19008538D02*
X8954790Y-18970443D01*
X8954790Y-18970443D02*
X8954790Y-18922824D01*
X8954790Y-18922824D02*
X8964313Y-18884729D01*
X8964313Y-18884729D02*
X8973837Y-18865681D01*
X8973837Y-18865681D02*
X8983361Y-18856157D01*
X8983361Y-18856157D02*
X9002409Y-18846633D01*
X9145266Y-18846633D02*
X9145266Y-18884729D01*
X9221456Y-18846633D02*
X9221456Y-18884729D01*
X9516695Y-19122824D02*
X9507171Y-19113300D01*
X9507171Y-19113300D02*
X9488123Y-19084729D01*
X9488123Y-19084729D02*
X9478599Y-19065681D01*
X9478599Y-19065681D02*
X9469075Y-19037110D01*
X9469075Y-19037110D02*
X9459552Y-18989490D01*
X9459552Y-18989490D02*
X9459552Y-18951395D01*
X9459552Y-18951395D02*
X9469075Y-18903776D01*
X9469075Y-18903776D02*
X9478599Y-18875205D01*
X9478599Y-18875205D02*
X9488123Y-18856157D01*
X9488123Y-18856157D02*
X9507171Y-18827586D01*
X9507171Y-18827586D02*
X9516695Y-18818062D01*
X9697647Y-19046633D02*
X9583361Y-19046633D01*
X9640504Y-19046633D02*
X9640504Y-18846633D01*
X9640504Y-18846633D02*
X9621456Y-18875205D01*
X9621456Y-18875205D02*
X9602409Y-18894252D01*
X9602409Y-18894252D02*
X9583361Y-18903776D01*
X9869075Y-18846633D02*
X9830980Y-18846633D01*
X9830980Y-18846633D02*
X9811933Y-18856157D01*
X9811933Y-18856157D02*
X9802409Y-18865681D01*
X9802409Y-18865681D02*
X9783361Y-18894252D01*
X9783361Y-18894252D02*
X9773837Y-18932348D01*
X9773837Y-18932348D02*
X9773837Y-19008538D01*
X9773837Y-19008538D02*
X9783361Y-19027586D01*
X9783361Y-19027586D02*
X9792885Y-19037110D01*
X9792885Y-19037110D02*
X9811933Y-19046633D01*
X9811933Y-19046633D02*
X9850028Y-19046633D01*
X9850028Y-19046633D02*
X9869075Y-19037110D01*
X9869075Y-19037110D02*
X9878599Y-19027586D01*
X9878599Y-19027586D02*
X9888123Y-19008538D01*
X9888123Y-19008538D02*
X9888123Y-18960919D01*
X9888123Y-18960919D02*
X9878599Y-18941871D01*
X9878599Y-18941871D02*
X9869075Y-18932348D01*
X9869075Y-18932348D02*
X9850028Y-18922824D01*
X9850028Y-18922824D02*
X9811933Y-18922824D01*
X9811933Y-18922824D02*
X9792885Y-18932348D01*
X9792885Y-18932348D02*
X9783361Y-18941871D01*
X9783361Y-18941871D02*
X9773837Y-18960919D01*
X10002409Y-18932348D02*
X9983361Y-18922824D01*
X9983361Y-18922824D02*
X9973837Y-18913300D01*
X9973837Y-18913300D02*
X9964314Y-18894252D01*
X9964314Y-18894252D02*
X9964314Y-18884729D01*
X9964314Y-18884729D02*
X9973837Y-18865681D01*
X9973837Y-18865681D02*
X9983361Y-18856157D01*
X9983361Y-18856157D02*
X10002409Y-18846633D01*
X10002409Y-18846633D02*
X10040504Y-18846633D01*
X10040504Y-18846633D02*
X10059552Y-18856157D01*
X10059552Y-18856157D02*
X10069075Y-18865681D01*
X10069075Y-18865681D02*
X10078599Y-18884729D01*
X10078599Y-18884729D02*
X10078599Y-18894252D01*
X10078599Y-18894252D02*
X10069075Y-18913300D01*
X10069075Y-18913300D02*
X10059552Y-18922824D01*
X10059552Y-18922824D02*
X10040504Y-18932348D01*
X10040504Y-18932348D02*
X10002409Y-18932348D01*
X10002409Y-18932348D02*
X9983361Y-18941871D01*
X9983361Y-18941871D02*
X9973837Y-18951395D01*
X9973837Y-18951395D02*
X9964314Y-18970443D01*
X9964314Y-18970443D02*
X9964314Y-19008538D01*
X9964314Y-19008538D02*
X9973837Y-19027586D01*
X9973837Y-19027586D02*
X9983361Y-19037110D01*
X9983361Y-19037110D02*
X10002409Y-19046633D01*
X10002409Y-19046633D02*
X10040504Y-19046633D01*
X10040504Y-19046633D02*
X10059552Y-19037110D01*
X10059552Y-19037110D02*
X10069075Y-19027586D01*
X10069075Y-19027586D02*
X10078599Y-19008538D01*
X10078599Y-19008538D02*
X10078599Y-18970443D01*
X10078599Y-18970443D02*
X10069075Y-18951395D01*
X10069075Y-18951395D02*
X10059552Y-18941871D01*
X10059552Y-18941871D02*
X10040504Y-18932348D01*
X10316695Y-19046633D02*
X10316695Y-18846633D01*
X10402409Y-19046633D02*
X10402409Y-18941871D01*
X10402409Y-18941871D02*
X10392885Y-18922824D01*
X10392885Y-18922824D02*
X10373837Y-18913300D01*
X10373837Y-18913300D02*
X10345266Y-18913300D01*
X10345266Y-18913300D02*
X10326218Y-18922824D01*
X10326218Y-18922824D02*
X10316695Y-18932348D01*
X10526218Y-19046633D02*
X10507171Y-19037110D01*
X10507171Y-19037110D02*
X10497647Y-19027586D01*
X10497647Y-19027586D02*
X10488123Y-19008538D01*
X10488123Y-19008538D02*
X10488123Y-18951395D01*
X10488123Y-18951395D02*
X10497647Y-18932348D01*
X10497647Y-18932348D02*
X10507171Y-18922824D01*
X10507171Y-18922824D02*
X10526218Y-18913300D01*
X10526218Y-18913300D02*
X10554790Y-18913300D01*
X10554790Y-18913300D02*
X10573837Y-18922824D01*
X10573837Y-18922824D02*
X10583361Y-18932348D01*
X10583361Y-18932348D02*
X10592885Y-18951395D01*
X10592885Y-18951395D02*
X10592885Y-19008538D01*
X10592885Y-19008538D02*
X10583361Y-19027586D01*
X10583361Y-19027586D02*
X10573837Y-19037110D01*
X10573837Y-19037110D02*
X10554790Y-19046633D01*
X10554790Y-19046633D02*
X10526218Y-19046633D01*
X10707171Y-19046633D02*
X10688123Y-19037110D01*
X10688123Y-19037110D02*
X10678599Y-19018062D01*
X10678599Y-19018062D02*
X10678599Y-18846633D01*
X10859552Y-19037110D02*
X10840504Y-19046633D01*
X10840504Y-19046633D02*
X10802409Y-19046633D01*
X10802409Y-19046633D02*
X10783361Y-19037110D01*
X10783361Y-19037110D02*
X10773837Y-19018062D01*
X10773837Y-19018062D02*
X10773837Y-18941871D01*
X10773837Y-18941871D02*
X10783361Y-18922824D01*
X10783361Y-18922824D02*
X10802409Y-18913300D01*
X10802409Y-18913300D02*
X10840504Y-18913300D01*
X10840504Y-18913300D02*
X10859552Y-18922824D01*
X10859552Y-18922824D02*
X10869076Y-18941871D01*
X10869076Y-18941871D02*
X10869076Y-18960919D01*
X10869076Y-18960919D02*
X10773837Y-18979967D01*
X10945266Y-19037110D02*
X10964314Y-19046633D01*
X10964314Y-19046633D02*
X11002409Y-19046633D01*
X11002409Y-19046633D02*
X11021457Y-19037110D01*
X11021457Y-19037110D02*
X11030980Y-19018062D01*
X11030980Y-19018062D02*
X11030980Y-19008538D01*
X11030980Y-19008538D02*
X11021457Y-18989490D01*
X11021457Y-18989490D02*
X11002409Y-18979967D01*
X11002409Y-18979967D02*
X10973837Y-18979967D01*
X10973837Y-18979967D02*
X10954790Y-18970443D01*
X10954790Y-18970443D02*
X10945266Y-18951395D01*
X10945266Y-18951395D02*
X10945266Y-18941871D01*
X10945266Y-18941871D02*
X10954790Y-18922824D01*
X10954790Y-18922824D02*
X10973837Y-18913300D01*
X10973837Y-18913300D02*
X11002409Y-18913300D01*
X11002409Y-18913300D02*
X11021457Y-18922824D01*
X11097647Y-19122824D02*
X11107171Y-19113300D01*
X11107171Y-19113300D02*
X11126218Y-19084729D01*
X11126218Y-19084729D02*
X11135742Y-19065681D01*
X11135742Y-19065681D02*
X11145266Y-19037110D01*
X11145266Y-19037110D02*
X11154790Y-18989490D01*
X11154790Y-18989490D02*
X11154790Y-18951395D01*
X11154790Y-18951395D02*
X11145266Y-18903776D01*
X11145266Y-18903776D02*
X11135742Y-18875205D01*
X11135742Y-18875205D02*
X11126218Y-18856157D01*
X11126218Y-18856157D02*
X11107171Y-18827586D01*
X11107171Y-18827586D02*
X11097647Y-18818062D01*
X5925501Y-19297221D02*
X5925501Y-19155798D01*
X5784078Y-19155798D01*
X5784078Y-19297221D01*
X5925501Y-19297221D01*
X6183361Y-19119033D02*
X6307170Y-19119033D01*
X6307170Y-19119033D02*
X6240504Y-19195224D01*
X6240504Y-19195224D02*
X6269075Y-19195224D01*
X6269075Y-19195224D02*
X6288123Y-19204748D01*
X6288123Y-19204748D02*
X6297646Y-19214271D01*
X6297646Y-19214271D02*
X6307170Y-19233319D01*
X6307170Y-19233319D02*
X6307170Y-19280938D01*
X6307170Y-19280938D02*
X6297646Y-19299986D01*
X6297646Y-19299986D02*
X6288123Y-19309510D01*
X6288123Y-19309510D02*
X6269075Y-19319033D01*
X6269075Y-19319033D02*
X6211932Y-19319033D01*
X6211932Y-19319033D02*
X6192885Y-19309510D01*
X6192885Y-19309510D02*
X6183361Y-19299986D01*
X6392885Y-19299986D02*
X6402408Y-19309510D01*
X6402408Y-19309510D02*
X6392885Y-19319033D01*
X6392885Y-19319033D02*
X6383361Y-19309510D01*
X6383361Y-19309510D02*
X6392885Y-19299986D01*
X6392885Y-19299986D02*
X6392885Y-19319033D01*
X6526218Y-19119033D02*
X6545266Y-19119033D01*
X6545266Y-19119033D02*
X6564313Y-19128557D01*
X6564313Y-19128557D02*
X6573837Y-19138081D01*
X6573837Y-19138081D02*
X6583361Y-19157129D01*
X6583361Y-19157129D02*
X6592885Y-19195224D01*
X6592885Y-19195224D02*
X6592885Y-19242843D01*
X6592885Y-19242843D02*
X6583361Y-19280938D01*
X6583361Y-19280938D02*
X6573837Y-19299986D01*
X6573837Y-19299986D02*
X6564313Y-19309510D01*
X6564313Y-19309510D02*
X6545266Y-19319033D01*
X6545266Y-19319033D02*
X6526218Y-19319033D01*
X6526218Y-19319033D02*
X6507170Y-19309510D01*
X6507170Y-19309510D02*
X6497646Y-19299986D01*
X6497646Y-19299986D02*
X6488123Y-19280938D01*
X6488123Y-19280938D02*
X6478599Y-19242843D01*
X6478599Y-19242843D02*
X6478599Y-19195224D01*
X6478599Y-19195224D02*
X6488123Y-19157129D01*
X6488123Y-19157129D02*
X6497646Y-19138081D01*
X6497646Y-19138081D02*
X6507170Y-19128557D01*
X6507170Y-19128557D02*
X6526218Y-19119033D01*
X6764313Y-19185700D02*
X6764313Y-19319033D01*
X6716694Y-19109510D02*
X6669075Y-19252367D01*
X6669075Y-19252367D02*
X6792885Y-19252367D01*
X6897646Y-19204748D02*
X6878599Y-19195224D01*
X6878599Y-19195224D02*
X6869075Y-19185700D01*
X6869075Y-19185700D02*
X6859551Y-19166652D01*
X6859551Y-19166652D02*
X6859551Y-19157129D01*
X6859551Y-19157129D02*
X6869075Y-19138081D01*
X6869075Y-19138081D02*
X6878599Y-19128557D01*
X6878599Y-19128557D02*
X6897646Y-19119033D01*
X6897646Y-19119033D02*
X6935742Y-19119033D01*
X6935742Y-19119033D02*
X6954789Y-19128557D01*
X6954789Y-19128557D02*
X6964313Y-19138081D01*
X6964313Y-19138081D02*
X6973837Y-19157129D01*
X6973837Y-19157129D02*
X6973837Y-19166652D01*
X6973837Y-19166652D02*
X6964313Y-19185700D01*
X6964313Y-19185700D02*
X6954789Y-19195224D01*
X6954789Y-19195224D02*
X6935742Y-19204748D01*
X6935742Y-19204748D02*
X6897646Y-19204748D01*
X6897646Y-19204748D02*
X6878599Y-19214271D01*
X6878599Y-19214271D02*
X6869075Y-19223795D01*
X6869075Y-19223795D02*
X6859551Y-19242843D01*
X6859551Y-19242843D02*
X6859551Y-19280938D01*
X6859551Y-19280938D02*
X6869075Y-19299986D01*
X6869075Y-19299986D02*
X6878599Y-19309510D01*
X6878599Y-19309510D02*
X6897646Y-19319033D01*
X6897646Y-19319033D02*
X6935742Y-19319033D01*
X6935742Y-19319033D02*
X6954789Y-19309510D01*
X6954789Y-19309510D02*
X6964313Y-19299986D01*
X6964313Y-19299986D02*
X6973837Y-19280938D01*
X6973837Y-19280938D02*
X6973837Y-19242843D01*
X6973837Y-19242843D02*
X6964313Y-19223795D01*
X6964313Y-19223795D02*
X6954789Y-19214271D01*
X6954789Y-19214271D02*
X6935742Y-19204748D01*
X7059551Y-19319033D02*
X7059551Y-19185700D01*
X7059551Y-19204748D02*
X7069075Y-19195224D01*
X7069075Y-19195224D02*
X7088123Y-19185700D01*
X7088123Y-19185700D02*
X7116694Y-19185700D01*
X7116694Y-19185700D02*
X7135742Y-19195224D01*
X7135742Y-19195224D02*
X7145266Y-19214271D01*
X7145266Y-19214271D02*
X7145266Y-19319033D01*
X7145266Y-19214271D02*
X7154789Y-19195224D01*
X7154789Y-19195224D02*
X7173837Y-19185700D01*
X7173837Y-19185700D02*
X7202408Y-19185700D01*
X7202408Y-19185700D02*
X7221456Y-19195224D01*
X7221456Y-19195224D02*
X7230980Y-19214271D01*
X7230980Y-19214271D02*
X7230980Y-19319033D01*
X7326218Y-19319033D02*
X7326218Y-19185700D01*
X7326218Y-19204748D02*
X7335742Y-19195224D01*
X7335742Y-19195224D02*
X7354789Y-19185700D01*
X7354789Y-19185700D02*
X7383361Y-19185700D01*
X7383361Y-19185700D02*
X7402408Y-19195224D01*
X7402408Y-19195224D02*
X7411932Y-19214271D01*
X7411932Y-19214271D02*
X7411932Y-19319033D01*
X7411932Y-19214271D02*
X7421456Y-19195224D01*
X7421456Y-19195224D02*
X7440504Y-19185700D01*
X7440504Y-19185700D02*
X7469075Y-19185700D01*
X7469075Y-19185700D02*
X7488123Y-19195224D01*
X7488123Y-19195224D02*
X7497647Y-19214271D01*
X7497647Y-19214271D02*
X7497647Y-19319033D01*
X7888123Y-19109510D02*
X7716694Y-19366652D01*
X8145266Y-19119033D02*
X8164313Y-19119033D01*
X8164313Y-19119033D02*
X8183361Y-19128557D01*
X8183361Y-19128557D02*
X8192885Y-19138081D01*
X8192885Y-19138081D02*
X8202409Y-19157129D01*
X8202409Y-19157129D02*
X8211932Y-19195224D01*
X8211932Y-19195224D02*
X8211932Y-19242843D01*
X8211932Y-19242843D02*
X8202409Y-19280938D01*
X8202409Y-19280938D02*
X8192885Y-19299986D01*
X8192885Y-19299986D02*
X8183361Y-19309510D01*
X8183361Y-19309510D02*
X8164313Y-19319033D01*
X8164313Y-19319033D02*
X8145266Y-19319033D01*
X8145266Y-19319033D02*
X8126218Y-19309510D01*
X8126218Y-19309510D02*
X8116694Y-19299986D01*
X8116694Y-19299986D02*
X8107170Y-19280938D01*
X8107170Y-19280938D02*
X8097647Y-19242843D01*
X8097647Y-19242843D02*
X8097647Y-19195224D01*
X8097647Y-19195224D02*
X8107170Y-19157129D01*
X8107170Y-19157129D02*
X8116694Y-19138081D01*
X8116694Y-19138081D02*
X8126218Y-19128557D01*
X8126218Y-19128557D02*
X8145266Y-19119033D01*
X8297647Y-19299986D02*
X8307170Y-19309510D01*
X8307170Y-19309510D02*
X8297647Y-19319033D01*
X8297647Y-19319033D02*
X8288123Y-19309510D01*
X8288123Y-19309510D02*
X8297647Y-19299986D01*
X8297647Y-19299986D02*
X8297647Y-19319033D01*
X8497647Y-19319033D02*
X8383361Y-19319033D01*
X8440504Y-19319033D02*
X8440504Y-19119033D01*
X8440504Y-19119033D02*
X8421456Y-19147605D01*
X8421456Y-19147605D02*
X8402409Y-19166652D01*
X8402409Y-19166652D02*
X8383361Y-19176176D01*
X8573837Y-19138081D02*
X8583361Y-19128557D01*
X8583361Y-19128557D02*
X8602409Y-19119033D01*
X8602409Y-19119033D02*
X8650028Y-19119033D01*
X8650028Y-19119033D02*
X8669075Y-19128557D01*
X8669075Y-19128557D02*
X8678599Y-19138081D01*
X8678599Y-19138081D02*
X8688123Y-19157129D01*
X8688123Y-19157129D02*
X8688123Y-19176176D01*
X8688123Y-19176176D02*
X8678599Y-19204748D01*
X8678599Y-19204748D02*
X8564313Y-19319033D01*
X8564313Y-19319033D02*
X8688123Y-19319033D01*
X8811932Y-19119033D02*
X8830980Y-19119033D01*
X8830980Y-19119033D02*
X8850028Y-19128557D01*
X8850028Y-19128557D02*
X8859552Y-19138081D01*
X8859552Y-19138081D02*
X8869075Y-19157129D01*
X8869075Y-19157129D02*
X8878599Y-19195224D01*
X8878599Y-19195224D02*
X8878599Y-19242843D01*
X8878599Y-19242843D02*
X8869075Y-19280938D01*
X8869075Y-19280938D02*
X8859552Y-19299986D01*
X8859552Y-19299986D02*
X8850028Y-19309510D01*
X8850028Y-19309510D02*
X8830980Y-19319033D01*
X8830980Y-19319033D02*
X8811932Y-19319033D01*
X8811932Y-19319033D02*
X8792885Y-19309510D01*
X8792885Y-19309510D02*
X8783361Y-19299986D01*
X8783361Y-19299986D02*
X8773837Y-19280938D01*
X8773837Y-19280938D02*
X8764313Y-19242843D01*
X8764313Y-19242843D02*
X8764313Y-19195224D01*
X8764313Y-19195224D02*
X8773837Y-19157129D01*
X8773837Y-19157129D02*
X8783361Y-19138081D01*
X8783361Y-19138081D02*
X8792885Y-19128557D01*
X8792885Y-19128557D02*
X8811932Y-19119033D01*
X9002409Y-19119033D02*
X9021456Y-19119033D01*
X9021456Y-19119033D02*
X9040504Y-19128557D01*
X9040504Y-19128557D02*
X9050028Y-19138081D01*
X9050028Y-19138081D02*
X9059552Y-19157129D01*
X9059552Y-19157129D02*
X9069075Y-19195224D01*
X9069075Y-19195224D02*
X9069075Y-19242843D01*
X9069075Y-19242843D02*
X9059552Y-19280938D01*
X9059552Y-19280938D02*
X9050028Y-19299986D01*
X9050028Y-19299986D02*
X9040504Y-19309510D01*
X9040504Y-19309510D02*
X9021456Y-19319033D01*
X9021456Y-19319033D02*
X9002409Y-19319033D01*
X9002409Y-19319033D02*
X8983361Y-19309510D01*
X8983361Y-19309510D02*
X8973837Y-19299986D01*
X8973837Y-19299986D02*
X8964313Y-19280938D01*
X8964313Y-19280938D02*
X8954790Y-19242843D01*
X8954790Y-19242843D02*
X8954790Y-19195224D01*
X8954790Y-19195224D02*
X8964313Y-19157129D01*
X8964313Y-19157129D02*
X8973837Y-19138081D01*
X8973837Y-19138081D02*
X8983361Y-19128557D01*
X8983361Y-19128557D02*
X9002409Y-19119033D01*
X9145266Y-19119033D02*
X9145266Y-19157129D01*
X9221456Y-19119033D02*
X9221456Y-19157129D01*
X9516695Y-19395224D02*
X9507171Y-19385700D01*
X9507171Y-19385700D02*
X9488123Y-19357129D01*
X9488123Y-19357129D02*
X9478599Y-19338081D01*
X9478599Y-19338081D02*
X9469075Y-19309510D01*
X9469075Y-19309510D02*
X9459552Y-19261890D01*
X9459552Y-19261890D02*
X9459552Y-19223795D01*
X9459552Y-19223795D02*
X9469075Y-19176176D01*
X9469075Y-19176176D02*
X9478599Y-19147605D01*
X9478599Y-19147605D02*
X9488123Y-19128557D01*
X9488123Y-19128557D02*
X9507171Y-19099986D01*
X9507171Y-19099986D02*
X9516695Y-19090462D01*
X9583361Y-19138081D02*
X9592885Y-19128557D01*
X9592885Y-19128557D02*
X9611933Y-19119033D01*
X9611933Y-19119033D02*
X9659552Y-19119033D01*
X9659552Y-19119033D02*
X9678599Y-19128557D01*
X9678599Y-19128557D02*
X9688123Y-19138081D01*
X9688123Y-19138081D02*
X9697647Y-19157129D01*
X9697647Y-19157129D02*
X9697647Y-19176176D01*
X9697647Y-19176176D02*
X9688123Y-19204748D01*
X9688123Y-19204748D02*
X9573837Y-19319033D01*
X9573837Y-19319033D02*
X9697647Y-19319033D01*
X9773837Y-19138081D02*
X9783361Y-19128557D01*
X9783361Y-19128557D02*
X9802409Y-19119033D01*
X9802409Y-19119033D02*
X9850028Y-19119033D01*
X9850028Y-19119033D02*
X9869075Y-19128557D01*
X9869075Y-19128557D02*
X9878599Y-19138081D01*
X9878599Y-19138081D02*
X9888123Y-19157129D01*
X9888123Y-19157129D02*
X9888123Y-19176176D01*
X9888123Y-19176176D02*
X9878599Y-19204748D01*
X9878599Y-19204748D02*
X9764314Y-19319033D01*
X9764314Y-19319033D02*
X9888123Y-19319033D01*
X10126218Y-19319033D02*
X10126218Y-19119033D01*
X10211933Y-19319033D02*
X10211933Y-19214271D01*
X10211933Y-19214271D02*
X10202409Y-19195224D01*
X10202409Y-19195224D02*
X10183361Y-19185700D01*
X10183361Y-19185700D02*
X10154790Y-19185700D01*
X10154790Y-19185700D02*
X10135742Y-19195224D01*
X10135742Y-19195224D02*
X10126218Y-19204748D01*
X10335742Y-19319033D02*
X10316695Y-19309510D01*
X10316695Y-19309510D02*
X10307171Y-19299986D01*
X10307171Y-19299986D02*
X10297647Y-19280938D01*
X10297647Y-19280938D02*
X10297647Y-19223795D01*
X10297647Y-19223795D02*
X10307171Y-19204748D01*
X10307171Y-19204748D02*
X10316695Y-19195224D01*
X10316695Y-19195224D02*
X10335742Y-19185700D01*
X10335742Y-19185700D02*
X10364314Y-19185700D01*
X10364314Y-19185700D02*
X10383361Y-19195224D01*
X10383361Y-19195224D02*
X10392885Y-19204748D01*
X10392885Y-19204748D02*
X10402409Y-19223795D01*
X10402409Y-19223795D02*
X10402409Y-19280938D01*
X10402409Y-19280938D02*
X10392885Y-19299986D01*
X10392885Y-19299986D02*
X10383361Y-19309510D01*
X10383361Y-19309510D02*
X10364314Y-19319033D01*
X10364314Y-19319033D02*
X10335742Y-19319033D01*
X10516695Y-19319033D02*
X10497647Y-19309510D01*
X10497647Y-19309510D02*
X10488123Y-19290462D01*
X10488123Y-19290462D02*
X10488123Y-19119033D01*
X10669076Y-19309510D02*
X10650028Y-19319033D01*
X10650028Y-19319033D02*
X10611933Y-19319033D01*
X10611933Y-19319033D02*
X10592885Y-19309510D01*
X10592885Y-19309510D02*
X10583361Y-19290462D01*
X10583361Y-19290462D02*
X10583361Y-19214271D01*
X10583361Y-19214271D02*
X10592885Y-19195224D01*
X10592885Y-19195224D02*
X10611933Y-19185700D01*
X10611933Y-19185700D02*
X10650028Y-19185700D01*
X10650028Y-19185700D02*
X10669076Y-19195224D01*
X10669076Y-19195224D02*
X10678599Y-19214271D01*
X10678599Y-19214271D02*
X10678599Y-19233319D01*
X10678599Y-19233319D02*
X10583361Y-19252367D01*
X10754790Y-19309510D02*
X10773837Y-19319033D01*
X10773837Y-19319033D02*
X10811933Y-19319033D01*
X10811933Y-19319033D02*
X10830980Y-19309510D01*
X10830980Y-19309510D02*
X10840504Y-19290462D01*
X10840504Y-19290462D02*
X10840504Y-19280938D01*
X10840504Y-19280938D02*
X10830980Y-19261890D01*
X10830980Y-19261890D02*
X10811933Y-19252367D01*
X10811933Y-19252367D02*
X10783361Y-19252367D01*
X10783361Y-19252367D02*
X10764314Y-19242843D01*
X10764314Y-19242843D02*
X10754790Y-19223795D01*
X10754790Y-19223795D02*
X10754790Y-19214271D01*
X10754790Y-19214271D02*
X10764314Y-19195224D01*
X10764314Y-19195224D02*
X10783361Y-19185700D01*
X10783361Y-19185700D02*
X10811933Y-19185700D01*
X10811933Y-19185700D02*
X10830980Y-19195224D01*
X10907171Y-19395224D02*
X10916695Y-19385700D01*
X10916695Y-19385700D02*
X10935742Y-19357129D01*
X10935742Y-19357129D02*
X10945266Y-19338081D01*
X10945266Y-19338081D02*
X10954790Y-19309510D01*
X10954790Y-19309510D02*
X10964314Y-19261890D01*
X10964314Y-19261890D02*
X10964314Y-19223795D01*
X10964314Y-19223795D02*
X10954790Y-19176176D01*
X10954790Y-19176176D02*
X10945266Y-19147605D01*
X10945266Y-19147605D02*
X10935742Y-19128557D01*
X10935742Y-19128557D02*
X10916695Y-19099986D01*
X10916695Y-19099986D02*
X10907171Y-19090462D01*
M02*
