M48
; DRILL file {KiCad 7.0.2-0} date 2023 June 18, Sunday 14:26:59
; FORMAT={-:-/ absolute / inch / decimal}
; #@! TF.CreationDate,2023-06-18T14:26:59+03:00
; #@! TF.GenerationSoftware,Kicad,Pcbnew,7.0.2-0
; #@! TF.FileFunction,NonPlated,1,2,NPTH
FMAT,2
INCH
; #@! TA.AperFunction,NonPlated,NPTH,ComponentDrill
T1C0.0689
; #@! TA.AperFunction,NonPlated,NPTH,ComponentDrill
T2C0.1570
%
G90
G05
T1
X2.5187Y-3.6562
X2.6125Y-5.1562
X2.6125Y-5.9062
X2.6125Y-6.6562
X2.7062Y-4.4062
X2.7062Y-6.6562
X2.8Y-5.1562
X2.9187Y-3.6562
X2.9875Y-5.9062
X3.0125Y-5.1562
X3.0125Y-5.9062
X3.0125Y-6.6562
X3.1062Y-4.4062
X3.1062Y-6.6562
X3.2Y-5.1562
X3.2687Y-3.6562
X3.3875Y-5.9062
X3.4562Y-5.9062
X3.55Y-6.6562
X3.6437Y-4.4062
X3.6437Y-6.6562
X3.6687Y-3.6562
X3.8312Y-5.1562
X3.8562Y-5.9062
X3.95Y-6.6562
X4.0187Y-3.6562
X4.0438Y-4.4062
X4.0438Y-6.6562
X4.2062Y-5.9062
X4.2313Y-5.1562
X4.3937Y-4.4062
X4.4188Y-3.6562
X4.4875Y-6.6562
X4.5812Y-5.1562
X4.5812Y-6.6562
X4.6063Y-5.9062
X4.7687Y-3.6562
X4.7938Y-4.4062
X4.8875Y-6.6562
X4.9562Y-5.9062
X4.9813Y-5.1562
X4.9813Y-6.6562
X5.1437Y-4.4062
X5.1688Y-3.6562
X5.3312Y-5.1562
X5.3563Y-5.9062
X5.5187Y-3.6562
X5.5438Y-4.4062
X5.7062Y-5.9062
X5.7313Y-5.1562
X5.8937Y-4.4062
X5.9188Y-3.6562
X5.9875Y-6.6562
X6.0812Y-5.1562
X6.1063Y-5.9062
X6.2687Y-3.6562
X6.2687Y-6.6562
X6.2938Y-4.4062
X6.3875Y-6.6562
X6.4562Y-5.9062
X6.4813Y-5.1562
X6.6437Y-4.4062
X6.6688Y-3.6562
X6.6688Y-6.6562
X6.8312Y-5.1562
X6.8563Y-5.9062
X7.0187Y-3.6562
X7.0438Y-4.4062
X7.2062Y-5.9062
X7.2313Y-5.1562
X7.3Y-6.6562
X7.3937Y-4.4062
X7.4188Y-3.6562
X7.5812Y-5.1562
X7.5812Y-6.6562
X7.6063Y-5.9062
X7.7Y-6.6562
X7.7687Y-3.6562
X7.7687Y-6.6562
X7.7938Y-4.4062
X7.9562Y-5.9062
X7.9813Y-5.1562
X7.9813Y-6.6562
X8.1437Y-4.4062
X8.1687Y-3.6562
X8.1687Y-6.6562
X8.3312Y-5.1562
X8.3562Y-5.9062
X8.5187Y-3.6562
X8.5437Y-4.4062
X8.7062Y-5.9062
X8.7312Y-5.1562
X8.8937Y-4.4062
X8.9187Y-3.6562
X9.0812Y-5.1562
X9.1062Y-5.9062
X9.2687Y-3.6562
X9.2687Y-6.6562
X9.2937Y-4.4062
X9.3625Y-6.6562
X9.4562Y-5.9062
X9.4812Y-5.1562
X9.6437Y-4.4062
X9.6687Y-3.6562
X9.6687Y-6.6562
X9.7625Y-6.6562
X9.8312Y-5.1562
X9.8562Y-5.9062
X10.0187Y-3.6562
X10.0437Y-4.4062
X10.1125Y-6.6562
X10.2062Y-5.9062
X10.2312Y-5.1562
X10.3937Y-4.4062
X10.4187Y-3.6562
X10.5125Y-6.6562
X10.5812Y-5.1562
X10.6062Y-5.9062
X10.7687Y-3.6562
X10.7937Y-4.4062
X10.9562Y-5.9062
X10.9562Y-6.6562
X10.9812Y-5.1562
X11.05Y-6.6562
X11.1437Y-4.4062
X11.1687Y-3.6562
X11.3312Y-5.1562
X11.3562Y-5.9062
X11.3562Y-6.6562
X11.45Y-6.6562
X11.5187Y-3.6562
X11.5437Y-4.4062
X11.7312Y-5.1562
X11.8937Y-4.4062
X11.9187Y-3.6562
X11.9875Y-5.9062
X12.0812Y-5.1562
X12.2687Y-3.6562
X12.2687Y-6.6562
X12.2937Y-4.4062
X12.3875Y-5.9062
X12.4812Y-5.1562
X12.55Y-5.1562
X12.6437Y-3.6562
X12.6687Y-3.6562
X12.6687Y-6.6562
X12.8312Y-4.4062
X12.925Y-4.7812
X12.95Y-5.1562
X13.0187Y-5.9062
X13.0187Y-6.6562
X13.02Y-3.655
X13.0437Y-3.6562
X13.2312Y-4.4062
X13.325Y-4.7812
X13.4187Y-5.9062
X13.4187Y-6.6562
X13.42Y-3.655
X13.7687Y-4.4062
X13.7687Y-5.1562
X13.7687Y-5.9062
X13.7687Y-6.6562
X13.77Y-3.655
X14.1687Y-4.4062
X14.1687Y-5.1562
X14.1687Y-5.9062
X14.1687Y-6.6562
X14.17Y-3.655
T2
X2.7188Y-3.6562
X2.7188Y-6.2313
X2.8125Y-5.1562
X2.8125Y-5.9062
X2.8125Y-6.6562
X2.9062Y-4.4062
X2.9062Y-6.6562
X3.0Y-5.1562
X3.1875Y-5.9062
X3.4688Y-3.6562
X3.6562Y-5.9062
X3.6562Y-6.2313
X3.75Y-6.6562
X3.8438Y-4.4062
X3.8438Y-6.6562
X4.0312Y-5.1562
X4.2188Y-3.6562
X4.4062Y-5.9062
X4.5938Y-4.4062
X4.6875Y-6.6562
X4.7812Y-5.1562
X4.7812Y-6.6562
X4.9688Y-3.6562
X5.1562Y-5.9062
X5.25Y-6.3312
X5.3438Y-4.4062
X5.4375Y-6.3312
X5.5312Y-5.1562
X5.7188Y-3.6562
X5.8125Y-6.3312
X5.9062Y-5.9062
X6.0Y-6.3312
X6.0938Y-4.4062
X6.1875Y-6.6562
X6.2812Y-5.1562
X6.4688Y-3.6562
X6.4688Y-6.6562
X6.6562Y-5.9062
X6.8438Y-4.4062
X6.9375Y-6.3312
X6.9375Y-6.3312
X7.0312Y-5.1562
X7.2188Y-3.6562
X7.4062Y-5.9062
X7.5Y-6.3312
X7.5Y-6.6562
X7.5938Y-4.4062
X7.7812Y-5.1562
X7.7812Y-6.6562
X7.9688Y-3.6562
X7.9688Y-6.6562
X8.1562Y-5.9062
X8.3438Y-4.4062
X8.4375Y-6.3312
X8.5312Y-5.1562
X8.7188Y-3.6562
X8.7188Y-6.3312
X8.9062Y-5.9062
X9.0938Y-4.4062
X9.0938Y-6.3312
X9.2812Y-5.1562
X9.4688Y-3.6562
X9.4688Y-6.6562
X9.5625Y-6.6562
X9.6562Y-5.9062
X9.75Y-6.3312
X9.75Y-6.3312
X9.8438Y-4.4062
X10.0312Y-5.1562
X10.0312Y-6.3312
X10.2188Y-3.6562
X10.2188Y-6.3312
X10.3125Y-6.6562
X10.4062Y-5.9062
X10.5938Y-4.4062
X10.7812Y-5.1562
X10.9688Y-3.6562
X11.1562Y-5.9062
X11.1562Y-6.6562
X11.25Y-6.6562
X11.3438Y-4.4062
X11.5312Y-5.1562
X11.7188Y-3.6562
X11.8125Y-5.4813
X12.0938Y-4.4062
X12.1875Y-5.9062
X12.2812Y-5.1562
X12.375Y-3.98
X12.4688Y-3.6562
X12.4688Y-6.6562
X12.75Y-5.1562
X12.75Y-5.4813
X12.8Y-4.3125
X12.8Y-5.25
X12.8438Y-3.6562
X13.0312Y-4.4062
X13.125Y-4.7812
X13.2188Y-5.9062
X13.2188Y-6.6562
X13.22Y-3.655
X13.3125Y-3.98
X13.9688Y-4.4062
X13.9688Y-5.1562
X13.9688Y-5.9062
X13.9688Y-6.6562
X13.97Y-3.655
T0
M30
