%TF.GenerationSoftware,KiCad,Pcbnew,7.0.1*%
%TF.CreationDate,2023-05-15T16:06:07+03:00*%
%TF.ProjectId,rp2040-bakeneko65,72703230-3430-42d6-9261-6b656e656b6f,rev?*%
%TF.SameCoordinates,Original*%
%TF.FileFunction,Profile,NP*%
%FSLAX46Y46*%
G04 Gerber Fmt 4.6, Leading zero omitted, Abs format (unit mm)*
G04 Created by KiCad (PCBNEW 7.0.1) date 2023-05-15 16:06:07*
%MOMM*%
%LPD*%
G01*
G04 APERTURE LIST*
%TA.AperFunction,Profile*%
%ADD10C,0.200000*%
%TD*%
%TA.AperFunction,Profile*%
%ADD11C,0.100000*%
%TD*%
G04 APERTURE END LIST*
D10*
X59647905Y-175511095D02*
G75*
G03*
X61897894Y-177761095I2249995J-5D01*
G01*
X297972894Y-158711094D02*
G75*
G03*
X296722894Y-159961095I-94J-1249906D01*
G01*
X61897894Y-83561094D02*
G75*
G03*
X59647894Y-85811095I-94J-2249906D01*
G01*
X82296000Y-83561133D02*
G75*
G03*
X80965967Y-84367546I-100J-1499867D01*
G01*
X294472894Y-177761095D02*
X277558500Y-177761095D01*
X107387289Y-177761095D02*
X61897894Y-177761095D01*
X269312289Y-177761122D02*
G75*
G03*
X270642322Y-176954643I-89J1500122D01*
G01*
X321699789Y-177761095D02*
X309547894Y-177761095D01*
X342079824Y-84367545D02*
G75*
G03*
X347665966Y-84367546I2793071J1456448D01*
G01*
X307297905Y-175511095D02*
G75*
G03*
X309547894Y-177761095I2249995J-5D01*
G01*
X361147894Y-177761094D02*
G75*
G03*
X363397894Y-175511095I-94J2250094D01*
G01*
X107387289Y-177761122D02*
G75*
G03*
X108717322Y-176954643I-89J1500122D01*
G01*
X189679786Y-84367565D02*
G75*
G03*
X188349789Y-83561095I-1329986J-693435D01*
G01*
X297972894Y-158711095D02*
X306047894Y-158711095D01*
X269312289Y-177761095D02*
X115633500Y-177761095D01*
X340749789Y-83561095D02*
X196596000Y-83561095D01*
X307297894Y-159961095D02*
X307297894Y-175511095D01*
X188349789Y-83561095D02*
X82296000Y-83561095D01*
X361147894Y-177761095D02*
X329946000Y-177761095D01*
X328616016Y-176954617D02*
G75*
G03*
X329946000Y-177761095I1329984J693417D01*
G01*
X363397905Y-85811095D02*
G75*
G03*
X361147894Y-83561095I-2250005J-5D01*
G01*
X75379786Y-84367565D02*
G75*
G03*
X74049789Y-83561095I-1329986J-693435D01*
G01*
X114303516Y-176954617D02*
G75*
G03*
X115633500Y-177761095I1329984J693417D01*
G01*
X321699789Y-177761122D02*
G75*
G03*
X323029822Y-176954643I-89J1500122D01*
G01*
X328615966Y-176954643D02*
G75*
G03*
X323029824Y-176954643I-2793071J-1456450D01*
G01*
X361147894Y-83561095D02*
X348996000Y-83561095D01*
X276228466Y-176954643D02*
G75*
G03*
X270642324Y-176954643I-2793071J-1456450D01*
G01*
X296722894Y-159961095D02*
X296722894Y-175511095D01*
X307297905Y-159961095D02*
G75*
G03*
X306047894Y-158711095I-1250005J-5D01*
G01*
X75379824Y-84367545D02*
G75*
G03*
X80965965Y-84367546I2793071J1456449D01*
G01*
X126197894Y-101061095D02*
G75*
G03*
X126197894Y-101061095I-500000J0D01*
G01*
X348996000Y-83561133D02*
G75*
G03*
X347665967Y-84367546I-100J-1499867D01*
G01*
X114303466Y-176954643D02*
G75*
G03*
X108717324Y-176954643I-2793071J-1456450D01*
G01*
X189679824Y-84367545D02*
G75*
G03*
X195265966Y-84367546I2793071J1456448D01*
G01*
X196596000Y-83561133D02*
G75*
G03*
X195265967Y-84367546I-100J-1499867D01*
G01*
X363397894Y-175511095D02*
X363397894Y-85811095D01*
X294472894Y-177761094D02*
G75*
G03*
X296722894Y-175511095I-94J2250094D01*
G01*
X276228516Y-176954617D02*
G75*
G03*
X277558500Y-177761095I1329984J693417D01*
G01*
X342079786Y-84367565D02*
G75*
G03*
X340749789Y-83561095I-1329986J-693435D01*
G01*
X74049789Y-83561095D02*
X61897894Y-83561095D01*
X59647894Y-175511095D02*
X59647894Y-85811095D01*
D11*
%TO.C,LED1*%
X77899999Y-135345907D02*
X77899999Y-136751591D01*
X76994452Y-137548749D02*
X75405548Y-137548749D01*
X75405548Y-134548750D02*
X76994453Y-134548750D01*
X74500001Y-136751591D02*
X74500001Y-135345907D01*
X77900000Y-136751591D02*
G75*
G03*
X77949485Y-136968469I499989J-2D01*
G01*
X77246711Y-137617048D02*
G75*
G03*
X77949483Y-136968468I252259J431700D01*
G01*
X77949484Y-135129029D02*
G75*
G03*
X77899999Y-135345906I450505J-216876D01*
G01*
X77949484Y-135129029D02*
G75*
G03*
X77246711Y-134480452I-450515J216877D01*
G01*
X76994453Y-134548750D02*
G75*
G03*
X77246711Y-134480451I-3J500009D01*
G01*
X77246711Y-137617048D02*
G75*
G03*
X76994452Y-137548749I-252261J-431710D01*
G01*
X75153289Y-134480450D02*
G75*
G03*
X75405547Y-134548749I252261J431710D01*
G01*
X75405548Y-137548750D02*
G75*
G03*
X75153290Y-137617048I2J-500010D01*
G01*
X74450520Y-136968471D02*
G75*
G03*
X75153289Y-137617046I450510J-216879D01*
G01*
X74450516Y-136968469D02*
G75*
G03*
X74500001Y-136751592I-450866J216959D01*
G01*
X75153289Y-134480450D02*
G75*
G03*
X74450516Y-135129029I-252259J-431700D01*
G01*
X74499989Y-135345907D02*
G75*
G03*
X74450515Y-135129029I-500289J-43D01*
G01*
%TD*%
M02*
