%TF.GenerationSoftware,KiCad,Pcbnew,7.0.2-0*%
%TF.CreationDate,2023-06-18T14:26:52+03:00*%
%TF.ProjectId,rp2040-bakeneko65,72703230-3430-42d6-9261-6b656e656b6f,1*%
%TF.SameCoordinates,Original*%
%TF.FileFunction,Soldermask,Top*%
%TF.FilePolarity,Negative*%
%FSLAX46Y46*%
G04 Gerber Fmt 4.6, Leading zero omitted, Abs format (unit mm)*
G04 Created by KiCad (PCBNEW 7.0.2-0) date 2023-06-18 14:26:52*
%MOMM*%
%LPD*%
G01*
G04 APERTURE LIST*
%ADD10C,1.750000*%
%ADD11C,3.987800*%
%ADD12R,1.700000X1.700000*%
%ADD13O,1.700000X1.700000*%
G04 APERTURE END LIST*
D10*
%TO.C,SW42*%
X211613750Y-130968750D03*
D11*
X216693750Y-130968750D03*
D10*
X221773750Y-130968750D03*
%TD*%
%TO.C,SW27*%
X244951250Y-111918750D03*
D11*
X250031250Y-111918750D03*
D10*
X255111250Y-111918750D03*
%TD*%
%TO.C,SW76*%
X197326250Y-169068750D03*
D11*
X202406250Y-169068750D03*
D10*
X207486250Y-169068750D03*
%TD*%
%TO.C,SW14*%
X311626250Y-92868750D03*
D11*
X316706250Y-92868750D03*
D10*
X321786250Y-92868750D03*
%TD*%
%TO.C,SW41*%
X192563750Y-130968750D03*
D11*
X197643750Y-130968750D03*
D10*
X202723750Y-130968750D03*
%TD*%
%TO.C,SW39*%
X154463750Y-130968750D03*
D11*
X159543750Y-130968750D03*
D10*
X164623750Y-130968750D03*
%TD*%
%TO.C,SW33*%
X349726250Y-111918750D03*
D11*
X354806250Y-111918750D03*
D10*
X359886250Y-111918750D03*
%TD*%
%TO.C,SW37*%
X116363750Y-130968750D03*
D11*
X121443750Y-130968750D03*
D10*
X126523750Y-130968750D03*
%TD*%
%TO.C,SW43*%
X230663750Y-130968750D03*
D11*
X235743750Y-130968750D03*
D10*
X240823750Y-130968750D03*
%TD*%
%TO.C,SW52*%
X87788750Y-150018750D03*
D11*
X92868750Y-150018750D03*
D10*
X97948750Y-150018750D03*
%TD*%
%TO.C,SW17*%
X330708000Y-92837000D03*
D11*
X335788000Y-92837000D03*
D10*
X340868000Y-92837000D03*
%TD*%
%TO.C,SW68*%
X90170000Y-169068750D03*
D11*
X95250000Y-169068750D03*
D10*
X100330000Y-169068750D03*
%TD*%
%TO.C,SW21*%
X130651250Y-111918750D03*
D11*
X135731250Y-111918750D03*
D10*
X140811250Y-111918750D03*
%TD*%
%TO.C,SW40*%
X173513750Y-130968750D03*
D11*
X178593750Y-130968750D03*
D10*
X183673750Y-130968750D03*
%TD*%
D11*
%TO.C,S73*%
X176212500Y-160813750D03*
X152400000Y-160813750D03*
%TD*%
D10*
%TO.C,SW75*%
X192563750Y-169068750D03*
D11*
X197643750Y-169068750D03*
D10*
X202723750Y-169068750D03*
%TD*%
%TO.C,SW45*%
X268763750Y-130968750D03*
D11*
X273843750Y-130968750D03*
D10*
X278923750Y-130968750D03*
%TD*%
%TO.C,SW7*%
X178276250Y-92868750D03*
D11*
X183356250Y-92868750D03*
D10*
X188436250Y-92868750D03*
%TD*%
%TO.C,SW77*%
X235426250Y-169068750D03*
D11*
X240506250Y-169068750D03*
D10*
X245586250Y-169068750D03*
%TD*%
%TO.C,SW53*%
X106838750Y-150018750D03*
D11*
X111918750Y-150018750D03*
D10*
X116998750Y-150018750D03*
%TD*%
%TO.C,SW56*%
X163988750Y-150018750D03*
D11*
X169068750Y-150018750D03*
D10*
X174148750Y-150018750D03*
%TD*%
%TO.C,SW4*%
X121126250Y-92868750D03*
D11*
X126206250Y-92868750D03*
D10*
X131286250Y-92868750D03*
%TD*%
%TO.C,SW1*%
X63976250Y-92868750D03*
D11*
X69056250Y-92868750D03*
D10*
X74136250Y-92868750D03*
%TD*%
%TO.C,SW80*%
X278288750Y-169068750D03*
D11*
X283368750Y-169068750D03*
D10*
X288448750Y-169068750D03*
%TD*%
%TO.C,SW34*%
X66357500Y-130968750D03*
D11*
X71437500Y-130968750D03*
D10*
X76517500Y-130968750D03*
%TD*%
%TO.C,SW59*%
X221138750Y-150018750D03*
D11*
X226218750Y-150018750D03*
D10*
X231298750Y-150018750D03*
%TD*%
%TO.C,SW9*%
X216376250Y-92868750D03*
D11*
X221456250Y-92868750D03*
D10*
X226536250Y-92868750D03*
%TD*%
D12*
%TO.C,J2*%
X62230000Y-141224000D03*
D13*
X62230000Y-143764000D03*
X62230000Y-146304000D03*
X62230000Y-148844000D03*
X62230000Y-151384000D03*
%TD*%
D10*
%TO.C,SW6*%
X159226250Y-92868750D03*
D11*
X164306250Y-92868750D03*
D10*
X169386250Y-92868750D03*
%TD*%
%TO.C,SW81*%
X280670000Y-169068750D03*
D11*
X285750000Y-169068750D03*
D10*
X290830000Y-169068750D03*
%TD*%
D11*
%TO.C,S77*%
X259556250Y-160813750D03*
X221456250Y-160813750D03*
%TD*%
D10*
%TO.C,SW38*%
X135413750Y-130968750D03*
D11*
X140493750Y-130968750D03*
D10*
X145573750Y-130968750D03*
%TD*%
D11*
%TO.C,S50*%
X69056250Y-158273750D03*
X92868750Y-158273750D03*
%TD*%
D10*
%TO.C,SW66*%
X66357500Y-169068750D03*
D11*
X71437500Y-169068750D03*
D10*
X76517500Y-169068750D03*
%TD*%
%TO.C,SW51*%
X75882500Y-150018750D03*
D11*
X80962500Y-150018750D03*
D10*
X86042500Y-150018750D03*
%TD*%
%TO.C,SW55*%
X144938750Y-150018750D03*
D11*
X150018750Y-150018750D03*
D10*
X155098750Y-150018750D03*
%TD*%
%TO.C,SW44*%
X249713750Y-130968750D03*
D11*
X254793750Y-130968750D03*
D10*
X259873750Y-130968750D03*
%TD*%
%TO.C,SW57*%
X183038750Y-150018750D03*
D11*
X188118750Y-150018750D03*
D10*
X193198750Y-150018750D03*
%TD*%
%TO.C,SW30*%
X302101250Y-111918750D03*
D11*
X307181250Y-111918750D03*
D10*
X312261250Y-111918750D03*
%TD*%
%TO.C,SW2*%
X83026250Y-92868750D03*
D11*
X88106250Y-92868750D03*
D10*
X93186250Y-92868750D03*
%TD*%
D11*
%TO.C,S78*%
X254793750Y-160813750D03*
X230981250Y-160813750D03*
%TD*%
D10*
%TO.C,SW84*%
X349726250Y-169068750D03*
D11*
X354806250Y-169068750D03*
D10*
X359886250Y-169068750D03*
%TD*%
%TO.C,SW20*%
X111601250Y-111918750D03*
D11*
X116681250Y-111918750D03*
D10*
X121761250Y-111918750D03*
%TD*%
%TO.C,SW35*%
X71120000Y-130968750D03*
D11*
X76200000Y-130968750D03*
D10*
X81280000Y-130968750D03*
%TD*%
%TO.C,SW18*%
X68738750Y-111918750D03*
D11*
X73818750Y-111918750D03*
D10*
X78898750Y-111918750D03*
%TD*%
%TO.C,SW49*%
X349726250Y-130968750D03*
D11*
X354806250Y-130968750D03*
D10*
X359886250Y-130968750D03*
%TD*%
%TO.C,SW54*%
X125888750Y-150018750D03*
D11*
X130968750Y-150018750D03*
D10*
X136048750Y-150018750D03*
%TD*%
%TO.C,SW73*%
X159226250Y-169068750D03*
D11*
X164306250Y-169068750D03*
D10*
X169386250Y-169068750D03*
%TD*%
%TO.C,SW22*%
X149701250Y-111918750D03*
D11*
X154781250Y-111918750D03*
D10*
X159861250Y-111918750D03*
%TD*%
%TO.C,SW12*%
X273526250Y-92868750D03*
D11*
X278606250Y-92868750D03*
D10*
X283686250Y-92868750D03*
%TD*%
%TO.C,SW62*%
X278288750Y-150018750D03*
D11*
X283368750Y-150018750D03*
D10*
X288448750Y-150018750D03*
%TD*%
%TO.C,SW8*%
X197326250Y-92868750D03*
D11*
X202406250Y-92868750D03*
D10*
X207486250Y-92868750D03*
%TD*%
%TO.C,SW83*%
X330676250Y-169068750D03*
D11*
X335756250Y-169068750D03*
D10*
X340836250Y-169068750D03*
%TD*%
D11*
%TO.C,S32*%
X325120000Y-133350000D03*
X325120000Y-109537500D03*
%TD*%
D10*
%TO.C,SW46*%
X287813750Y-130968750D03*
D11*
X292893750Y-130968750D03*
D10*
X297973750Y-130968750D03*
%TD*%
%TO.C,SW48*%
X318770000Y-130968750D03*
D11*
X323850000Y-130968750D03*
D10*
X328930000Y-130968750D03*
%TD*%
%TO.C,SW67*%
X68738750Y-169068750D03*
D11*
X73818750Y-169068750D03*
D10*
X78898750Y-169068750D03*
%TD*%
%TO.C,SW61*%
X259238750Y-150018750D03*
D11*
X264318750Y-150018750D03*
D10*
X269398750Y-150018750D03*
%TD*%
%TO.C,SW82*%
X311626250Y-169068750D03*
D11*
X316706250Y-169068750D03*
D10*
X321786250Y-169068750D03*
%TD*%
%TO.C,SW26*%
X225901250Y-111918750D03*
D11*
X230981250Y-111918750D03*
D10*
X236061250Y-111918750D03*
%TD*%
D11*
%TO.C,S75*%
X247650000Y-160813750D03*
X147637500Y-160813750D03*
%TD*%
D10*
%TO.C,SW79*%
X256857500Y-169068750D03*
D11*
X261937500Y-169068750D03*
D10*
X267017500Y-169068750D03*
%TD*%
%TO.C,SW47*%
X306863750Y-130968750D03*
D11*
X311943750Y-130968750D03*
D10*
X317023750Y-130968750D03*
%TD*%
%TO.C,SW32*%
X328295000Y-121443750D03*
D11*
X333375000Y-121443750D03*
D10*
X338455000Y-121443750D03*
%TD*%
D11*
%TO.C,S74*%
X247650000Y-160813750D03*
X133350000Y-160813750D03*
%TD*%
%TO.C,S47*%
X300037500Y-139223750D03*
X323850000Y-139223750D03*
%TD*%
D10*
%TO.C,SW10*%
X235426250Y-92868750D03*
D11*
X240506250Y-92868750D03*
D10*
X245586250Y-92868750D03*
%TD*%
%TO.C,SW31*%
X325913750Y-111918750D03*
D11*
X330993750Y-111918750D03*
D10*
X336073750Y-111918750D03*
%TD*%
%TO.C,SW11*%
X254476250Y-92868750D03*
D11*
X259556250Y-92868750D03*
D10*
X264636250Y-92868750D03*
%TD*%
%TO.C,SW70*%
X113982500Y-169068750D03*
D11*
X119062500Y-169068750D03*
D10*
X124142500Y-169068750D03*
%TD*%
%TO.C,SW5*%
X140176250Y-92868750D03*
D11*
X145256250Y-92868750D03*
D10*
X150336250Y-92868750D03*
%TD*%
%TO.C,SW78*%
X237807500Y-169068750D03*
D11*
X242887500Y-169068750D03*
D10*
X247967500Y-169068750D03*
%TD*%
%TO.C,SW16*%
X349758000Y-92837000D03*
D11*
X354838000Y-92837000D03*
D10*
X359918000Y-92837000D03*
%TD*%
%TO.C,SW13*%
X292576250Y-92868750D03*
D11*
X297656250Y-92868750D03*
D10*
X302736250Y-92868750D03*
%TD*%
%TO.C,SW3*%
X102076250Y-92868750D03*
D11*
X107156250Y-92868750D03*
D10*
X112236250Y-92868750D03*
%TD*%
%TO.C,SW72*%
X152082500Y-169068750D03*
D11*
X157162500Y-169068750D03*
D10*
X162242500Y-169068750D03*
%TD*%
%TO.C,SW23*%
X168751250Y-111918750D03*
D11*
X173831250Y-111918750D03*
D10*
X178911250Y-111918750D03*
%TD*%
%TO.C,SW65*%
X349726250Y-150018750D03*
D11*
X354806250Y-150018750D03*
D10*
X359886250Y-150018750D03*
%TD*%
%TO.C,SW69*%
X92551250Y-169068750D03*
D11*
X97631250Y-169068750D03*
D10*
X102711250Y-169068750D03*
%TD*%
%TO.C,SW19*%
X92551250Y-111918750D03*
D11*
X97631250Y-111918750D03*
D10*
X102711250Y-111918750D03*
%TD*%
%TO.C,SW25*%
X206851250Y-111918750D03*
D11*
X211931250Y-111918750D03*
D10*
X217011250Y-111918750D03*
%TD*%
%TO.C,SW74*%
X185420000Y-169068750D03*
D11*
X190500000Y-169068750D03*
D10*
X195580000Y-169068750D03*
%TD*%
%TO.C,SW71*%
X116363750Y-169068750D03*
D11*
X121443750Y-169068750D03*
D10*
X126523750Y-169068750D03*
%TD*%
%TO.C,SW24*%
X187801250Y-111918750D03*
D11*
X192881250Y-111918750D03*
D10*
X197961250Y-111918750D03*
%TD*%
%TO.C,SW60*%
X240188750Y-150018750D03*
D11*
X245268750Y-150018750D03*
D10*
X250348750Y-150018750D03*
%TD*%
D11*
%TO.C,S76*%
X214312500Y-160813750D03*
X190500000Y-160813750D03*
%TD*%
D10*
%TO.C,SW63*%
X304482500Y-150018750D03*
D11*
X309562500Y-150018750D03*
D10*
X314642500Y-150018750D03*
%TD*%
%TO.C,SW50*%
X66357500Y-150018750D03*
D11*
X71437500Y-150018750D03*
D10*
X76517500Y-150018750D03*
%TD*%
%TO.C,SW58*%
X202088750Y-150018750D03*
D11*
X207168750Y-150018750D03*
D10*
X212248750Y-150018750D03*
%TD*%
D11*
%TO.C,S72*%
X176212500Y-160813750D03*
X138112500Y-160813750D03*
%TD*%
D10*
%TO.C,SW36*%
X97313750Y-130968750D03*
D11*
X102393750Y-130968750D03*
D10*
X107473750Y-130968750D03*
%TD*%
%TO.C,SW28*%
X264001250Y-111918750D03*
D11*
X269081250Y-111918750D03*
D10*
X274161250Y-111918750D03*
%TD*%
%TO.C,SW64*%
X330676250Y-150018750D03*
D11*
X335756250Y-150018750D03*
D10*
X340836250Y-150018750D03*
%TD*%
D11*
%TO.C,S17*%
X314325000Y-101092000D03*
X338137500Y-101092000D03*
%TD*%
D10*
%TO.C,SW15*%
X321151250Y-92868750D03*
D11*
X326231250Y-92868750D03*
D10*
X331311250Y-92868750D03*
%TD*%
%TO.C,SW29*%
X283051250Y-111918750D03*
D11*
X288131250Y-111918750D03*
D10*
X293211250Y-111918750D03*
%TD*%
M02*
