  0
SECTION
  2
HEADER
  9
$ANGBASE
  50
0.0
  9
$ANGDIR
  70
1
  9
$MEASUREMENT
  70
1
  0
ENDSEC
  0
SECTION
  2
TABLES
  0
TABLE
  2
LTYPE
  70
4
  0
LTYPE
  5
40F
  2
CONTINUOUS
  70
0
  3
Solid line
  72
65
  73
0
  40
0.0
  0
LTYPE
  5
410
  2
DASHDOT
 70
0
  3
Dash Dot ____ _ ____ _
 72
65
 73
4
 40
2.0
 49
1.25
 49
-0.25
 49
0.25
 49
-0.25
  0
LTYPE
  5
411
  2
DASHED
 70
0
  3
Dashed __ __ __ __ __
 72
65
 73
2
 40
0.75
 49
0.5
 49
-0.25
  0
LTYPE
  5
43B
  2
DOTTED
 70
0
  3
Dotted .  .  .  .
 72
65
 73
2
 40
0.2
 49
0.0
 49
-0.2
  0
ENDTAB
  0
TABLE
  2
STYLE
  70
4
  0
STYLE
  2
KICAD
  70
0
  40
0
  41
1
  42
1
  50
0
  71
0
  3
isocp.shx
  0
STYLE
  2
KICADB
  70
0
  40
0
  41
1
  42
1
  50
0
  71
0
  3
isocp.shx
  0
STYLE
  2
KICADI
  70
0
  40
0
  41
1
  42
1
  50
15
  71
0
  3
isocp.shx
  0
STYLE
  2
KICADBI
  70
0
  40
0
  41
1
  42
1
  50
15
  71
0
  3
isocp.shx
  0
ENDTAB
  0
TABLE
  2
LAYER
  70
1
  0
LAYER
  2
BLACK
  70
0
  62
7
  6
CONTINUOUS
  0
ENDTAB
  0
ENDSEC
  0
SECTION
  2
ENTITIES
0
ARC
8
BLACK
10
61.8979
20
-175.511
40
2.24999
50
-180
51
-90.0002
0
ARC
8
BLACK
10
297.973
20
-159.961
40
1.24991
50
-270.004
51
-179.996
0
ARC
8
BLACK
10
61.8978
20
-85.811
40
2.24991
50
-270.002
51
-179.998
0
ARC
8
BLACK
10
82.2959
20
-85.061
40
1.49987
50
89.9962
51
152.462
0
LINE
8
BLACK
6
CONTINUOUS
10
294.473
20
-177.761
11
277.558
21
-177.761
0
LINE
8
BLACK
6
CONTINUOUS
10
107.387
20
-177.761
11
61.8979
21
-177.761
0
ARC
8
BLACK
10
269.312
20
-176.261
40
1.50012
50
-89.9966
51
-27.5415
0
LINE
8
BLACK
6
CONTINUOUS
10
321.7
20
-177.761
11
309.548
21
-177.761
0
ARC
8
BLACK
10
344.873
20
-82.9111
40
3.15
50
-152.46
51
-27.5398
0
ARC
8
BLACK
10
309.548
20
-175.511
40
2.24999
50
-180
51
-90.0002
0
ARC
8
BLACK
10
361.148
20
-175.511
40
2.25009
50
-89.9976
51
-0.00241905
0
ARC
8
BLACK
10
107.387
20
-176.261
40
1.50012
50
-89.9966
51
-27.5415
0
ARC
8
BLACK
10
188.35
20
-85.061
40
1.4999
50
27.5369
51
90.0004
0
LINE
8
BLACK
6
CONTINUOUS
10
297.973
20
-158.711
11
306.048
21
-158.711
0
LINE
8
BLACK
6
CONTINUOUS
10
269.312
20
-177.761
11
115.633
21
-177.761
0
LINE
8
BLACK
6
CONTINUOUS
10
340.75
20
-83.5611
11
196.596
21
-83.5611
0
LINE
8
BLACK
6
CONTINUOUS
10
307.298
20
-159.961
11
307.298
21
-175.511
0
LINE
8
BLACK
6
CONTINUOUS
10
188.35
20
-83.5611
11
82.296
21
-83.5611
0
LINE
8
BLACK
6
CONTINUOUS
10
361.148
20
-177.761
11
329.946
21
-177.761
0
ARC
8
BLACK
10
329.946
20
-176.261
40
1.49989
50
-152.464
51
-90
0
ARC
8
BLACK
10
361.148
20
-85.8111
40
2.25
50
0.000127324
51
90.0002
0
ARC
8
BLACK
10
74.0498
20
-85.061
40
1.4999
50
27.5369
51
90.0004
0
ARC
8
BLACK
10
115.633
20
-176.261
40
1.49989
50
-152.464
51
-90
0
ARC
8
BLACK
10
321.7
20
-176.261
40
1.50012
50
-89.9966
51
-27.5415
0
ARC
8
BLACK
10
325.823
20
-178.411
40
3.15
50
27.5398
51
152.46
0
LINE
8
BLACK
6
CONTINUOUS
10
361.148
20
-83.5611
11
348.996
21
-83.5611
0
ARC
8
BLACK
10
273.435
20
-178.411
40
3.15
50
27.5398
51
152.46
0
LINE
8
BLACK
6
CONTINUOUS
10
296.723
20
-159.961
11
296.723
21
-175.511
0
ARC
8
BLACK
10
306.048
20
-159.961
40
1.25001
50
0.000229184
51
90.0003
0
ARC
8
BLACK
10
78.1729
20
-82.9111
40
3.15
50
-152.46
51
-27.5398
0
CIRCLE
8
BLACK
10
125.698
20
-101.061
40
0.5
0
ARC
8
BLACK
10
348.996
20
-85.061
40
1.49987
50
89.9962
51
152.462
0
ARC
8
BLACK
10
111.51
20
-178.411
40
3.15
50
27.5398
51
152.46
0
ARC
8
BLACK
10
192.473
20
-82.9111
40
3.15
50
-152.46
51
-27.5398
0
ARC
8
BLACK
10
196.596
20
-85.061
40
1.49987
50
89.9962
51
152.462
0
LINE
8
BLACK
6
CONTINUOUS
10
363.398
20
-175.511
11
363.398
21
-85.8111
0
ARC
8
BLACK
10
294.473
20
-175.511
40
2.25009
50
-89.9976
51
-0.00241905
0
ARC
8
BLACK
10
277.558
20
-176.261
40
1.49989
50
-152.464
51
-90
0
ARC
8
BLACK
10
340.75
20
-85.061
40
1.4999
50
27.5369
51
90.0004
0
LINE
8
BLACK
6
CONTINUOUS
10
74.0498
20
-83.5611
11
61.8979
21
-83.5611
0
LINE
8
BLACK
6
CONTINUOUS
10
59.6479
20
-175.511
11
59.6479
21
-85.8111
0
LINE
8
BLACK
6
CONTINUOUS
10
62.0241
20
-180.986
11
62.0241
21
-178.986
0
LINE
8
BLACK
6
CONTINUOUS
10
62.0241
20
-178.986
11
62.5003
21
-178.986
0
LINE
8
BLACK
6
CONTINUOUS
10
62.5003
20
-178.986
11
62.786
21
-179.082
0
LINE
8
BLACK
6
CONTINUOUS
10
62.786
20
-179.082
11
62.9765
21
-179.272
0
LINE
8
BLACK
6
CONTINUOUS
10
62.9765
20
-179.272
11
63.0717
21
-179.463
0
LINE
8
BLACK
6
CONTINUOUS
10
63.0717
20
-179.463
11
63.1669
21
-179.843
0
LINE
8
BLACK
6
CONTINUOUS
10
63.1669
20
-179.843
11
63.1669
21
-180.129
0
LINE
8
BLACK
6
CONTINUOUS
10
63.1669
20
-180.129
11
63.0717
21
-180.51
0
LINE
8
BLACK
6
CONTINUOUS
10
63.0717
20
-180.51
11
62.9765
21
-180.701
0
LINE
8
BLACK
6
CONTINUOUS
10
62.9765
20
-180.701
11
62.786
21
-180.891
0
LINE
8
BLACK
6
CONTINUOUS
10
62.786
20
-180.891
11
62.5003
21
-180.986
0
LINE
8
BLACK
6
CONTINUOUS
10
62.5003
20
-180.986
11
62.0241
21
-180.986
0
LINE
8
BLACK
6
CONTINUOUS
10
64.0241
20
-180.986
11
64.0241
21
-179.653
0
LINE
8
BLACK
6
CONTINUOUS
10
64.0241
20
-180.034
11
64.1193
21
-179.843
0
LINE
8
BLACK
6
CONTINUOUS
10
64.1193
20
-179.843
11
64.2146
21
-179.748
0
LINE
8
BLACK
6
CONTINUOUS
10
64.2146
20
-179.748
11
64.405
21
-179.653
0
LINE
8
BLACK
6
CONTINUOUS
10
64.405
20
-179.653
11
64.5955
21
-179.653
0
LINE
8
BLACK
6
CONTINUOUS
10
65.2622
20
-180.986
11
65.2622
21
-179.653
0
LINE
8
BLACK
6
CONTINUOUS
10
65.2622
20
-178.986
11
65.1669
21
-179.082
0
LINE
8
BLACK
6
CONTINUOUS
10
65.1669
20
-179.082
11
65.2622
21
-179.177
0
LINE
8
BLACK
6
CONTINUOUS
10
65.2622
20
-179.177
11
65.3574
21
-179.082
0
LINE
8
BLACK
6
CONTINUOUS
10
65.3574
20
-179.082
11
65.2622
21
-178.986
0
LINE
8
BLACK
6
CONTINUOUS
10
65.2622
20
-178.986
11
65.2622
21
-179.177
0
LINE
8
BLACK
6
CONTINUOUS
10
66.5003
20
-180.986
11
66.3098
21
-180.891
0
LINE
8
BLACK
6
CONTINUOUS
10
66.3098
20
-180.891
11
66.2146
21
-180.701
0
LINE
8
BLACK
6
CONTINUOUS
10
66.2146
20
-180.701
11
66.2146
21
-178.986
0
LINE
8
BLACK
6
CONTINUOUS
10
67.5479
20
-180.986
11
67.3574
21
-180.891
0
LINE
8
BLACK
6
CONTINUOUS
10
67.3574
20
-180.891
11
67.2622
21
-180.701
0
LINE
8
BLACK
6
CONTINUOUS
10
67.2622
20
-180.701
11
67.2622
21
-178.986
0
LINE
8
BLACK
6
CONTINUOUS
10
69.8336
20
-180.986
11
69.8336
21
-178.986
0
LINE
8
BLACK
6
CONTINUOUS
10
69.8336
20
-178.986
11
70.5003
21
-180.415
0
LINE
8
BLACK
6
CONTINUOUS
10
70.5003
20
-180.415
11
71.1669
21
-178.986
0
LINE
8
BLACK
6
CONTINUOUS
10
71.1669
20
-178.986
11
71.1669
21
-180.986
0
LINE
8
BLACK
6
CONTINUOUS
10
72.9765
20
-180.986
11
72.9765
21
-179.939
0
LINE
8
BLACK
6
CONTINUOUS
10
72.9765
20
-179.939
11
72.8812
21
-179.748
0
LINE
8
BLACK
6
CONTINUOUS
10
72.8812
20
-179.748
11
72.6908
21
-179.653
0
LINE
8
BLACK
6
CONTINUOUS
10
72.6908
20
-179.653
11
72.3098
21
-179.653
0
LINE
8
BLACK
6
CONTINUOUS
10
72.3098
20
-179.653
11
72.1193
21
-179.748
0
LINE
8
BLACK
6
CONTINUOUS
10
72.9765
20
-180.891
11
72.786
21
-180.986
0
LINE
8
BLACK
6
CONTINUOUS
10
72.786
20
-180.986
11
72.3098
21
-180.986
0
LINE
8
BLACK
6
CONTINUOUS
10
72.3098
20
-180.986
11
72.1193
21
-180.891
0
LINE
8
BLACK
6
CONTINUOUS
10
72.1193
20
-180.891
11
72.0241
21
-180.701
0
LINE
8
BLACK
6
CONTINUOUS
10
72.0241
20
-180.701
11
72.0241
21
-180.51
0
LINE
8
BLACK
6
CONTINUOUS
10
72.0241
20
-180.51
11
72.1193
21
-180.32
0
LINE
8
BLACK
6
CONTINUOUS
10
72.1193
20
-180.32
11
72.3098
21
-180.224
0
LINE
8
BLACK
6
CONTINUOUS
10
72.3098
20
-180.224
11
72.786
21
-180.224
0
LINE
8
BLACK
6
CONTINUOUS
10
72.786
20
-180.224
11
72.9765
21
-180.129
0
LINE
8
BLACK
6
CONTINUOUS
10
73.9288
20
-179.653
11
73.9288
21
-181.653
0
LINE
8
BLACK
6
CONTINUOUS
10
73.9288
20
-179.748
11
74.1193
21
-179.653
0
LINE
8
BLACK
6
CONTINUOUS
10
74.1193
20
-179.653
11
74.5003
21
-179.653
0
LINE
8
BLACK
6
CONTINUOUS
10
74.5003
20
-179.653
11
74.6908
21
-179.748
0
LINE
8
BLACK
6
CONTINUOUS
10
74.6908
20
-179.748
11
74.786
21
-179.843
0
LINE
8
BLACK
6
CONTINUOUS
10
74.786
20
-179.843
11
74.8812
21
-180.034
0
LINE
8
BLACK
6
CONTINUOUS
10
74.8812
20
-180.034
11
74.8812
21
-180.605
0
LINE
8
BLACK
6
CONTINUOUS
10
74.8812
20
-180.605
11
74.786
21
-180.796
0
LINE
8
BLACK
6
CONTINUOUS
10
74.786
20
-180.796
11
74.6908
21
-180.891
0
LINE
8
BLACK
6
CONTINUOUS
10
74.6908
20
-180.891
11
74.5003
21
-180.986
0
LINE
8
BLACK
6
CONTINUOUS
10
74.5003
20
-180.986
11
74.1193
21
-180.986
0
LINE
8
BLACK
6
CONTINUOUS
10
74.1193
20
-180.986
11
73.9288
21
-180.891
0
LINE
8
BLACK
6
CONTINUOUS
10
75.7384
20
-180.796
11
75.8336
21
-180.891
0
LINE
8
BLACK
6
CONTINUOUS
10
75.8336
20
-180.891
11
75.7384
21
-180.986
0
LINE
8
BLACK
6
CONTINUOUS
10
75.7384
20
-180.986
11
75.6431
21
-180.891
0
LINE
8
BLACK
6
CONTINUOUS
10
75.6431
20
-180.891
11
75.7384
21
-180.796
0
LINE
8
BLACK
6
CONTINUOUS
10
75.7384
20
-180.796
11
75.7384
21
-180.986
0
LINE
8
BLACK
6
CONTINUOUS
10
75.7384
20
-179.748
11
75.8336
21
-179.843
0
LINE
8
BLACK
6
CONTINUOUS
10
75.8336
20
-179.843
11
75.7384
21
-179.939
0
LINE
8
BLACK
6
CONTINUOUS
10
75.7384
20
-179.939
11
75.6431
21
-179.843
0
LINE
8
BLACK
6
CONTINUOUS
10
75.6431
20
-179.843
11
75.7384
21
-179.748
0
LINE
8
BLACK
6
CONTINUOUS
10
75.7384
20
-179.748
11
75.7384
21
-179.939
  0
ENDSEC
  0
EOF
