  0
SECTION
  2
HEADER
  9
$ANGBASE
  50
0.0
  9
$ANGDIR
  70
1
  9
$MEASUREMENT
  70
1
  0
ENDSEC
  0
SECTION
  2
TABLES
  0
TABLE
  2
LTYPE
  70
4
  0
LTYPE
  5
40F
  2
CONTINUOUS
  70
0
  3
Solid line
  72
65
  73
0
  40
0.0
  0
LTYPE
  5
410
  2
DASHDOT
 70
0
  3
Dash Dot ____ _ ____ _
 72
65
 73
4
 40
2.0
 49
1.25
 49
-0.25
 49
0.25
 49
-0.25
  0
LTYPE
  5
411
  2
DASHED
 70
0
  3
Dashed __ __ __ __ __
 72
65
 73
2
 40
0.75
 49
0.5
 49
-0.25
  0
LTYPE
  5
43B
  2
DOTTED
 70
0
  3
Dotted .  .  .  .
 72
65
 73
2
 40
0.2
 49
0.0
 49
-0.2
  0
ENDTAB
  0
TABLE
  2
STYLE
  70
4
  0
STYLE
  2
KICAD
  70
0
  40
0
  41
1
  42
1
  50
0
  71
0
  3
isocp.shx
  0
STYLE
  2
KICADB
  70
0
  40
0
  41
1
  42
1
  50
0
  71
0
  3
isocp.shx
  0
STYLE
  2
KICADI
  70
0
  40
0
  41
1
  42
1
  50
15
  71
0
  3
isocp.shx
  0
STYLE
  2
KICADBI
  70
0
  40
0
  41
1
  42
1
  50
15
  71
0
  3
isocp.shx
  0
ENDTAB
  0
TABLE
  2
LAYER
  70
1
  0
LAYER
  2
BLACK
  70
0
  62
7
  6
CONTINUOUS
  0
ENDTAB
  0
ENDSEC
  0
SECTION
  2
ENTITIES
0
ARC
8
BLACK
10
61.8979
20
-175.511
40
2.24999
50
-180
51
-90.0002
0
ARC
8
BLACK
10
297.973
20
-159.961
40
1.24991
50
-270.004
51
-179.996
0
ARC
8
BLACK
10
61.8978
20
-85.811
40
2.24991
50
-270.002
51
-179.998
0
ARC
8
BLACK
10
82.2959
20
-85.061
40
1.49987
50
89.9962
51
152.462
0
LINE
8
BLACK
6
CONTINUOUS
10
294.473
20
-177.761
11
277.558
21
-177.761
0
LINE
8
BLACK
6
CONTINUOUS
10
107.387
20
-177.761
11
61.8979
21
-177.761
0
ARC
8
BLACK
10
269.312
20
-176.261
40
1.50012
50
-89.9966
51
-27.5415
0
LINE
8
BLACK
6
CONTINUOUS
10
321.7
20
-177.761
11
309.548
21
-177.761
0
ARC
8
BLACK
10
344.873
20
-82.9111
40
3.15
50
-152.46
51
-27.5398
0
ARC
8
BLACK
10
309.548
20
-175.511
40
2.24999
50
-180
51
-90.0002
0
ARC
8
BLACK
10
361.148
20
-175.511
40
2.25009
50
-89.9976
51
-0.00241905
0
ARC
8
BLACK
10
107.387
20
-176.261
40
1.50012
50
-89.9966
51
-27.5415
0
ARC
8
BLACK
10
188.35
20
-85.061
40
1.4999
50
27.5369
51
90.0004
0
LINE
8
BLACK
6
CONTINUOUS
10
297.973
20
-158.711
11
306.048
21
-158.711
0
LINE
8
BLACK
6
CONTINUOUS
10
269.312
20
-177.761
11
115.633
21
-177.761
0
LINE
8
BLACK
6
CONTINUOUS
10
340.75
20
-83.5611
11
196.596
21
-83.5611
0
LINE
8
BLACK
6
CONTINUOUS
10
307.298
20
-159.961
11
307.298
21
-175.511
0
LINE
8
BLACK
6
CONTINUOUS
10
188.35
20
-83.5611
11
82.296
21
-83.5611
0
LINE
8
BLACK
6
CONTINUOUS
10
361.148
20
-177.761
11
329.946
21
-177.761
0
ARC
8
BLACK
10
329.946
20
-176.261
40
1.49989
50
-152.464
51
-90
0
ARC
8
BLACK
10
361.148
20
-85.8111
40
2.25
50
0.000127324
51
90.0002
0
ARC
8
BLACK
10
74.0498
20
-85.061
40
1.4999
50
27.5369
51
90.0004
0
ARC
8
BLACK
10
115.633
20
-176.261
40
1.49989
50
-152.464
51
-90
0
ARC
8
BLACK
10
321.7
20
-176.261
40
1.50012
50
-89.9966
51
-27.5415
0
ARC
8
BLACK
10
325.823
20
-178.411
40
3.15
50
27.5398
51
152.46
0
LINE
8
BLACK
6
CONTINUOUS
10
361.148
20
-83.5611
11
348.996
21
-83.5611
0
ARC
8
BLACK
10
273.435
20
-178.411
40
3.15
50
27.5398
51
152.46
0
LINE
8
BLACK
6
CONTINUOUS
10
296.723
20
-159.961
11
296.723
21
-175.511
0
ARC
8
BLACK
10
306.048
20
-159.961
40
1.25001
50
0.000229184
51
90.0003
0
ARC
8
BLACK
10
78.1729
20
-82.9111
40
3.15
50
-152.46
51
-27.5398
0
CIRCLE
8
BLACK
10
125.698
20
-101.061
40
0.5
0
ARC
8
BLACK
10
348.996
20
-85.061
40
1.49987
50
89.9962
51
152.462
0
ARC
8
BLACK
10
111.51
20
-178.411
40
3.15
50
27.5398
51
152.46
0
ARC
8
BLACK
10
192.473
20
-82.9111
40
3.15
50
-152.46
51
-27.5398
0
ARC
8
BLACK
10
196.596
20
-85.061
40
1.49987
50
89.9962
51
152.462
0
LINE
8
BLACK
6
CONTINUOUS
10
363.398
20
-175.511
11
363.398
21
-85.8111
0
ARC
8
BLACK
10
294.473
20
-175.511
40
2.25009
50
-89.9976
51
-0.00241905
0
ARC
8
BLACK
10
277.558
20
-176.261
40
1.49989
50
-152.464
51
-90
0
ARC
8
BLACK
10
340.75
20
-85.061
40
1.4999
50
27.5369
51
90.0004
0
LINE
8
BLACK
6
CONTINUOUS
10
74.0498
20
-83.5611
11
61.8979
21
-83.5611
0
LINE
8
BLACK
6
CONTINUOUS
10
59.6479
20
-175.511
11
59.6479
21
-85.8111
0
LINE
8
BLACK
6
CONTINUOUS
10
63.1013
20
-91.9937
11
64.8512
21
-93.7437
0
LINE
8
BLACK
6
CONTINUOUS
10
64.8512
20
-91.9937
11
63.1013
21
-93.7437
0
LINE
8
BLACK
6
CONTINUOUS
10
65.4825
20
-130.094
11
67.2325
21
-131.844
0
LINE
8
BLACK
6
CONTINUOUS
10
67.2325
20
-130.094
11
65.4825
21
-131.844
0
LINE
8
BLACK
6
CONTINUOUS
10
65.4825
20
-149.144
11
67.2325
21
-150.894
0
LINE
8
BLACK
6
CONTINUOUS
10
67.2325
20
-149.144
11
65.4825
21
-150.894
0
LINE
8
BLACK
6
CONTINUOUS
10
65.4825
20
-168.194
11
67.2325
21
-169.944
0
LINE
8
BLACK
6
CONTINUOUS
10
67.2325
20
-168.194
11
65.4825
21
-169.944
0
LINE
8
BLACK
6
CONTINUOUS
10
67.8637
20
-111.044
11
69.6137
21
-112.794
0
LINE
8
BLACK
6
CONTINUOUS
10
69.6137
20
-111.044
11
67.8637
21
-112.794
0
LINE
8
BLACK
6
CONTINUOUS
10
67.8637
20
-168.194
11
69.6137
21
-169.944
0
LINE
8
BLACK
6
CONTINUOUS
10
69.6137
20
-168.194
11
67.8637
21
-169.944
0
LINE
8
BLACK
6
CONTINUOUS
10
70.245
20
-130.094
11
71.995
21
-131.844
0
LINE
8
BLACK
6
CONTINUOUS
10
71.995
20
-130.094
11
70.245
21
-131.844
0
LINE
8
BLACK
6
CONTINUOUS
10
73.2612
20
-91.9937
11
75.0112
21
-93.7437
0
LINE
8
BLACK
6
CONTINUOUS
10
75.0112
20
-91.9937
11
73.2612
21
-93.7437
0
LINE
8
BLACK
6
CONTINUOUS
10
75.0075
20
-149.144
11
76.7575
21
-150.894
0
LINE
8
BLACK
6
CONTINUOUS
10
76.7575
20
-149.144
11
75.0075
21
-150.894
0
LINE
8
BLACK
6
CONTINUOUS
10
75.6425
20
-130.094
11
77.3925
21
-131.844
0
LINE
8
BLACK
6
CONTINUOUS
10
77.3925
20
-130.094
11
75.6425
21
-131.844
0
LINE
8
BLACK
6
CONTINUOUS
10
75.6425
20
-149.144
11
77.3925
21
-150.894
0
LINE
8
BLACK
6
CONTINUOUS
10
77.3925
20
-149.144
11
75.6425
21
-150.894
0
LINE
8
BLACK
6
CONTINUOUS
10
75.6425
20
-168.194
11
77.3925
21
-169.944
0
LINE
8
BLACK
6
CONTINUOUS
10
77.3925
20
-168.194
11
75.6425
21
-169.944
0
LINE
8
BLACK
6
CONTINUOUS
10
78.0237
20
-111.044
11
79.7737
21
-112.794
0
LINE
8
BLACK
6
CONTINUOUS
10
79.7737
20
-111.044
11
78.0237
21
-112.794
0
LINE
8
BLACK
6
CONTINUOUS
10
78.0237
20
-168.194
11
79.7737
21
-169.944
0
LINE
8
BLACK
6
CONTINUOUS
10
79.7737
20
-168.194
11
78.0237
21
-169.944
0
LINE
8
BLACK
6
CONTINUOUS
10
80.405
20
-130.094
11
82.155
21
-131.844
0
LINE
8
BLACK
6
CONTINUOUS
10
82.155
20
-130.094
11
80.405
21
-131.844
0
LINE
8
BLACK
6
CONTINUOUS
10
82.1512
20
-91.9937
11
83.9012
21
-93.7437
0
LINE
8
BLACK
6
CONTINUOUS
10
83.9012
20
-91.9937
11
82.1512
21
-93.7437
0
LINE
8
BLACK
6
CONTINUOUS
10
85.1675
20
-149.144
11
86.9175
21
-150.894
0
LINE
8
BLACK
6
CONTINUOUS
10
86.9175
20
-149.144
11
85.1675
21
-150.894
0
LINE
8
BLACK
6
CONTINUOUS
10
86.9137
20
-149.144
11
88.6637
21
-150.894
0
LINE
8
BLACK
6
CONTINUOUS
10
88.6637
20
-149.144
11
86.9137
21
-150.894
0
LINE
8
BLACK
6
CONTINUOUS
10
89.295
20
-168.194
11
91.045
21
-169.944
0
LINE
8
BLACK
6
CONTINUOUS
10
91.045
20
-168.194
11
89.295
21
-169.944
0
LINE
8
BLACK
6
CONTINUOUS
10
91.6762
20
-111.044
11
93.4262
21
-112.794
0
LINE
8
BLACK
6
CONTINUOUS
10
93.4262
20
-111.044
11
91.6762
21
-112.794
0
LINE
8
BLACK
6
CONTINUOUS
10
91.6762
20
-168.194
11
93.4262
21
-169.944
0
LINE
8
BLACK
6
CONTINUOUS
10
93.4262
20
-168.194
11
91.6762
21
-169.944
0
LINE
8
BLACK
6
CONTINUOUS
10
92.3113
20
-91.9937
11
94.0613
21
-93.7437
0
LINE
8
BLACK
6
CONTINUOUS
10
94.0613
20
-91.9937
11
92.3113
21
-93.7437
0
LINE
8
BLACK
6
CONTINUOUS
10
96.4387
20
-130.094
11
98.1887
21
-131.844
0
LINE
8
BLACK
6
CONTINUOUS
10
98.1887
20
-130.094
11
96.4387
21
-131.844
0
LINE
8
BLACK
6
CONTINUOUS
10
97.0737
20
-149.144
11
98.8237
21
-150.894
0
LINE
8
BLACK
6
CONTINUOUS
10
98.8237
20
-149.144
11
97.0737
21
-150.894
0
LINE
8
BLACK
6
CONTINUOUS
10
99.455
20
-168.194
11
101.205
21
-169.944
0
LINE
8
BLACK
6
CONTINUOUS
10
101.205
20
-168.194
11
99.455
21
-169.944
0
LINE
8
BLACK
6
CONTINUOUS
10
101.201
20
-91.9937
11
102.951
21
-93.7437
0
LINE
8
BLACK
6
CONTINUOUS
10
102.951
20
-91.9937
11
101.201
21
-93.7437
0
LINE
8
BLACK
6
CONTINUOUS
10
101.836
20
-111.044
11
103.586
21
-112.794
0
LINE
8
BLACK
6
CONTINUOUS
10
103.586
20
-111.044
11
101.836
21
-112.794
0
LINE
8
BLACK
6
CONTINUOUS
10
101.836
20
-168.194
11
103.586
21
-169.944
0
LINE
8
BLACK
6
CONTINUOUS
10
103.586
20
-168.194
11
101.836
21
-169.944
0
LINE
8
BLACK
6
CONTINUOUS
10
105.964
20
-149.144
11
107.714
21
-150.894
0
LINE
8
BLACK
6
CONTINUOUS
10
107.714
20
-149.144
11
105.964
21
-150.894
0
LINE
8
BLACK
6
CONTINUOUS
10
106.599
20
-130.094
11
108.349
21
-131.844
0
LINE
8
BLACK
6
CONTINUOUS
10
108.349
20
-130.094
11
106.599
21
-131.844
0
LINE
8
BLACK
6
CONTINUOUS
10
110.726
20
-111.044
11
112.476
21
-112.794
0
LINE
8
BLACK
6
CONTINUOUS
10
112.476
20
-111.044
11
110.726
21
-112.794
0
LINE
8
BLACK
6
CONTINUOUS
10
111.361
20
-91.9937
11
113.111
21
-93.7437
0
LINE
8
BLACK
6
CONTINUOUS
10
113.111
20
-91.9937
11
111.361
21
-93.7437
0
LINE
8
BLACK
6
CONTINUOUS
10
113.108
20
-168.194
11
114.858
21
-169.944
0
LINE
8
BLACK
6
CONTINUOUS
10
114.858
20
-168.194
11
113.108
21
-169.944
0
LINE
8
BLACK
6
CONTINUOUS
10
115.489
20
-130.094
11
117.239
21
-131.844
0
LINE
8
BLACK
6
CONTINUOUS
10
117.239
20
-130.094
11
115.489
21
-131.844
0
LINE
8
BLACK
6
CONTINUOUS
10
115.489
20
-168.194
11
117.239
21
-169.944
0
LINE
8
BLACK
6
CONTINUOUS
10
117.239
20
-168.194
11
115.489
21
-169.944
0
LINE
8
BLACK
6
CONTINUOUS
10
116.124
20
-149.144
11
117.874
21
-150.894
0
LINE
8
BLACK
6
CONTINUOUS
10
117.874
20
-149.144
11
116.124
21
-150.894
0
LINE
8
BLACK
6
CONTINUOUS
10
120.251
20
-91.9937
11
122.001
21
-93.7437
0
LINE
8
BLACK
6
CONTINUOUS
10
122.001
20
-91.9937
11
120.251
21
-93.7437
0
LINE
8
BLACK
6
CONTINUOUS
10
120.886
20
-111.044
11
122.636
21
-112.794
0
LINE
8
BLACK
6
CONTINUOUS
10
122.636
20
-111.044
11
120.886
21
-112.794
0
LINE
8
BLACK
6
CONTINUOUS
10
123.267
20
-168.194
11
125.017
21
-169.944
0
LINE
8
BLACK
6
CONTINUOUS
10
125.017
20
-168.194
11
123.267
21
-169.944
0
LINE
8
BLACK
6
CONTINUOUS
10
125.014
20
-149.144
11
126.764
21
-150.894
0
LINE
8
BLACK
6
CONTINUOUS
10
126.764
20
-149.144
11
125.014
21
-150.894
0
LINE
8
BLACK
6
CONTINUOUS
10
125.649
20
-130.094
11
127.399
21
-131.844
0
LINE
8
BLACK
6
CONTINUOUS
10
127.399
20
-130.094
11
125.649
21
-131.844
0
LINE
8
BLACK
6
CONTINUOUS
10
125.649
20
-168.194
11
127.399
21
-169.944
0
LINE
8
BLACK
6
CONTINUOUS
10
127.399
20
-168.194
11
125.649
21
-169.944
0
LINE
8
BLACK
6
CONTINUOUS
10
129.776
20
-111.044
11
131.526
21
-112.794
0
LINE
8
BLACK
6
CONTINUOUS
10
131.526
20
-111.044
11
129.776
21
-112.794
0
LINE
8
BLACK
6
CONTINUOUS
10
130.411
20
-91.9937
11
132.161
21
-93.7437
0
LINE
8
BLACK
6
CONTINUOUS
10
132.161
20
-91.9937
11
130.411
21
-93.7437
0
LINE
8
BLACK
6
CONTINUOUS
10
134.539
20
-130.094
11
136.289
21
-131.844
0
LINE
8
BLACK
6
CONTINUOUS
10
136.289
20
-130.094
11
134.539
21
-131.844
0
LINE
8
BLACK
6
CONTINUOUS
10
135.174
20
-149.144
11
136.924
21
-150.894
0
LINE
8
BLACK
6
CONTINUOUS
10
136.924
20
-149.144
11
135.174
21
-150.894
0
LINE
8
BLACK
6
CONTINUOUS
10
139.301
20
-91.9937
11
141.051
21
-93.7437
0
LINE
8
BLACK
6
CONTINUOUS
10
141.051
20
-91.9937
11
139.301
21
-93.7437
0
LINE
8
BLACK
6
CONTINUOUS
10
139.936
20
-111.044
11
141.686
21
-112.794
0
LINE
8
BLACK
6
CONTINUOUS
10
141.686
20
-111.044
11
139.936
21
-112.794
0
LINE
8
BLACK
6
CONTINUOUS
10
144.064
20
-149.144
11
145.814
21
-150.894
0
LINE
8
BLACK
6
CONTINUOUS
10
145.814
20
-149.144
11
144.064
21
-150.894
0
LINE
8
BLACK
6
CONTINUOUS
10
144.699
20
-130.094
11
146.449
21
-131.844
0
LINE
8
BLACK
6
CONTINUOUS
10
146.449
20
-130.094
11
144.699
21
-131.844
0
LINE
8
BLACK
6
CONTINUOUS
10
148.826
20
-111.044
11
150.576
21
-112.794
0
LINE
8
BLACK
6
CONTINUOUS
10
150.576
20
-111.044
11
148.826
21
-112.794
0
LINE
8
BLACK
6
CONTINUOUS
10
149.461
20
-91.9937
11
151.211
21
-93.7437
0
LINE
8
BLACK
6
CONTINUOUS
10
151.211
20
-91.9937
11
149.461
21
-93.7437
0
LINE
8
BLACK
6
CONTINUOUS
10
151.207
20
-168.194
11
152.957
21
-169.944
0
LINE
8
BLACK
6
CONTINUOUS
10
152.957
20
-168.194
11
151.207
21
-169.944
0
LINE
8
BLACK
6
CONTINUOUS
10
153.589
20
-130.094
11
155.339
21
-131.844
0
LINE
8
BLACK
6
CONTINUOUS
10
155.339
20
-130.094
11
153.589
21
-131.844
0
LINE
8
BLACK
6
CONTINUOUS
10
154.224
20
-149.144
11
155.974
21
-150.894
0
LINE
8
BLACK
6
CONTINUOUS
10
155.974
20
-149.144
11
154.224
21
-150.894
0
LINE
8
BLACK
6
CONTINUOUS
10
158.351
20
-91.9937
11
160.101
21
-93.7437
0
LINE
8
BLACK
6
CONTINUOUS
10
160.101
20
-91.9937
11
158.351
21
-93.7437
0
LINE
8
BLACK
6
CONTINUOUS
10
158.351
20
-168.194
11
160.101
21
-169.944
0
LINE
8
BLACK
6
CONTINUOUS
10
160.101
20
-168.194
11
158.351
21
-169.944
0
LINE
8
BLACK
6
CONTINUOUS
10
158.986
20
-111.044
11
160.736
21
-112.794
0
LINE
8
BLACK
6
CONTINUOUS
10
160.736
20
-111.044
11
158.986
21
-112.794
0
LINE
8
BLACK
6
CONTINUOUS
10
161.368
20
-168.194
11
163.118
21
-169.944
0
LINE
8
BLACK
6
CONTINUOUS
10
163.118
20
-168.194
11
161.368
21
-169.944
0
LINE
8
BLACK
6
CONTINUOUS
10
163.114
20
-149.144
11
164.864
21
-150.894
0
LINE
8
BLACK
6
CONTINUOUS
10
164.864
20
-149.144
11
163.114
21
-150.894
0
LINE
8
BLACK
6
CONTINUOUS
10
163.749
20
-130.094
11
165.499
21
-131.844
0
LINE
8
BLACK
6
CONTINUOUS
10
165.499
20
-130.094
11
163.749
21
-131.844
0
LINE
8
BLACK
6
CONTINUOUS
10
167.876
20
-111.044
11
169.626
21
-112.794
0
LINE
8
BLACK
6
CONTINUOUS
10
169.626
20
-111.044
11
167.876
21
-112.794
0
LINE
8
BLACK
6
CONTINUOUS
10
168.511
20
-91.9937
11
170.261
21
-93.7437
0
LINE
8
BLACK
6
CONTINUOUS
10
170.261
20
-91.9937
11
168.511
21
-93.7437
0
LINE
8
BLACK
6
CONTINUOUS
10
168.511
20
-168.194
11
170.261
21
-169.944
0
LINE
8
BLACK
6
CONTINUOUS
10
170.261
20
-168.194
11
168.511
21
-169.944
0
LINE
8
BLACK
6
CONTINUOUS
10
172.639
20
-130.094
11
174.389
21
-131.844
0
LINE
8
BLACK
6
CONTINUOUS
10
174.389
20
-130.094
11
172.639
21
-131.844
0
LINE
8
BLACK
6
CONTINUOUS
10
173.274
20
-149.144
11
175.024
21
-150.894
0
LINE
8
BLACK
6
CONTINUOUS
10
175.024
20
-149.144
11
173.274
21
-150.894
0
LINE
8
BLACK
6
CONTINUOUS
10
177.401
20
-91.9937
11
179.151
21
-93.7437
0
LINE
8
BLACK
6
CONTINUOUS
10
179.151
20
-91.9937
11
177.401
21
-93.7437
0
LINE
8
BLACK
6
CONTINUOUS
10
178.036
20
-111.044
11
179.786
21
-112.794
0
LINE
8
BLACK
6
CONTINUOUS
10
179.786
20
-111.044
11
178.036
21
-112.794
0
LINE
8
BLACK
6
CONTINUOUS
10
182.164
20
-149.144
11
183.914
21
-150.894
0
LINE
8
BLACK
6
CONTINUOUS
10
183.914
20
-149.144
11
182.164
21
-150.894
0
LINE
8
BLACK
6
CONTINUOUS
10
182.799
20
-130.094
11
184.549
21
-131.844
0
LINE
8
BLACK
6
CONTINUOUS
10
184.549
20
-130.094
11
182.799
21
-131.844
0
LINE
8
BLACK
6
CONTINUOUS
10
184.545
20
-168.194
11
186.295
21
-169.944
0
LINE
8
BLACK
6
CONTINUOUS
10
186.295
20
-168.194
11
184.545
21
-169.944
0
LINE
8
BLACK
6
CONTINUOUS
10
186.926
20
-111.044
11
188.676
21
-112.794
0
LINE
8
BLACK
6
CONTINUOUS
10
188.676
20
-111.044
11
186.926
21
-112.794
0
LINE
8
BLACK
6
CONTINUOUS
10
187.561
20
-91.9937
11
189.311
21
-93.7437
0
LINE
8
BLACK
6
CONTINUOUS
10
189.311
20
-91.9937
11
187.561
21
-93.7437
0
LINE
8
BLACK
6
CONTINUOUS
10
191.689
20
-130.094
11
193.439
21
-131.844
0
LINE
8
BLACK
6
CONTINUOUS
10
193.439
20
-130.094
11
191.689
21
-131.844
0
LINE
8
BLACK
6
CONTINUOUS
10
191.689
20
-168.194
11
193.439
21
-169.944
0
LINE
8
BLACK
6
CONTINUOUS
10
193.439
20
-168.194
11
191.689
21
-169.944
0
LINE
8
BLACK
6
CONTINUOUS
10
192.324
20
-149.144
11
194.074
21
-150.894
0
LINE
8
BLACK
6
CONTINUOUS
10
194.074
20
-149.144
11
192.324
21
-150.894
0
LINE
8
BLACK
6
CONTINUOUS
10
194.705
20
-168.194
11
196.455
21
-169.944
0
LINE
8
BLACK
6
CONTINUOUS
10
196.455
20
-168.194
11
194.705
21
-169.944
0
LINE
8
BLACK
6
CONTINUOUS
10
196.451
20
-91.9937
11
198.201
21
-93.7437
0
LINE
8
BLACK
6
CONTINUOUS
10
198.201
20
-91.9937
11
196.451
21
-93.7437
0
LINE
8
BLACK
6
CONTINUOUS
10
196.451
20
-168.194
11
198.201
21
-169.944
0
LINE
8
BLACK
6
CONTINUOUS
10
198.201
20
-168.194
11
196.451
21
-169.944
0
LINE
8
BLACK
6
CONTINUOUS
10
197.086
20
-111.044
11
198.836
21
-112.794
0
LINE
8
BLACK
6
CONTINUOUS
10
198.836
20
-111.044
11
197.086
21
-112.794
0
LINE
8
BLACK
6
CONTINUOUS
10
201.214
20
-149.144
11
202.964
21
-150.894
0
LINE
8
BLACK
6
CONTINUOUS
10
202.964
20
-149.144
11
201.214
21
-150.894
0
LINE
8
BLACK
6
CONTINUOUS
10
201.849
20
-130.094
11
203.599
21
-131.844
0
LINE
8
BLACK
6
CONTINUOUS
10
203.599
20
-130.094
11
201.849
21
-131.844
0
LINE
8
BLACK
6
CONTINUOUS
10
201.849
20
-168.194
11
203.599
21
-169.944
0
LINE
8
BLACK
6
CONTINUOUS
10
203.599
20
-168.194
11
201.849
21
-169.944
0
LINE
8
BLACK
6
CONTINUOUS
10
205.976
20
-111.044
11
207.726
21
-112.794
0
LINE
8
BLACK
6
CONTINUOUS
10
207.726
20
-111.044
11
205.976
21
-112.794
0
LINE
8
BLACK
6
CONTINUOUS
10
206.611
20
-91.9937
11
208.361
21
-93.7437
0
LINE
8
BLACK
6
CONTINUOUS
10
208.361
20
-91.9937
11
206.611
21
-93.7437
0
LINE
8
BLACK
6
CONTINUOUS
10
206.611
20
-168.194
11
208.361
21
-169.944
0
LINE
8
BLACK
6
CONTINUOUS
10
208.361
20
-168.194
11
206.611
21
-169.944
0
LINE
8
BLACK
6
CONTINUOUS
10
210.739
20
-130.094
11
212.489
21
-131.844
0
LINE
8
BLACK
6
CONTINUOUS
10
212.489
20
-130.094
11
210.739
21
-131.844
0
LINE
8
BLACK
6
CONTINUOUS
10
211.374
20
-149.144
11
213.124
21
-150.894
0
LINE
8
BLACK
6
CONTINUOUS
10
213.124
20
-149.144
11
211.374
21
-150.894
0
LINE
8
BLACK
6
CONTINUOUS
10
215.501
20
-91.9937
11
217.251
21
-93.7437
0
LINE
8
BLACK
6
CONTINUOUS
10
217.251
20
-91.9937
11
215.501
21
-93.7437
0
LINE
8
BLACK
6
CONTINUOUS
10
216.136
20
-111.044
11
217.886
21
-112.794
0
LINE
8
BLACK
6
CONTINUOUS
10
217.886
20
-111.044
11
216.136
21
-112.794
0
LINE
8
BLACK
6
CONTINUOUS
10
220.264
20
-149.144
11
222.014
21
-150.894
0
LINE
8
BLACK
6
CONTINUOUS
10
222.014
20
-149.144
11
220.264
21
-150.894
0
LINE
8
BLACK
6
CONTINUOUS
10
220.899
20
-130.094
11
222.649
21
-131.844
0
LINE
8
BLACK
6
CONTINUOUS
10
222.649
20
-130.094
11
220.899
21
-131.844
0
LINE
8
BLACK
6
CONTINUOUS
10
225.026
20
-111.044
11
226.776
21
-112.794
0
LINE
8
BLACK
6
CONTINUOUS
10
226.776
20
-111.044
11
225.026
21
-112.794
0
LINE
8
BLACK
6
CONTINUOUS
10
225.661
20
-91.9937
11
227.411
21
-93.7437
0
LINE
8
BLACK
6
CONTINUOUS
10
227.411
20
-91.9937
11
225.661
21
-93.7437
0
LINE
8
BLACK
6
CONTINUOUS
10
229.789
20
-130.094
11
231.539
21
-131.844
0
LINE
8
BLACK
6
CONTINUOUS
10
231.539
20
-130.094
11
229.789
21
-131.844
0
LINE
8
BLACK
6
CONTINUOUS
10
230.424
20
-149.144
11
232.174
21
-150.894
0
LINE
8
BLACK
6
CONTINUOUS
10
232.174
20
-149.144
11
230.424
21
-150.894
0
LINE
8
BLACK
6
CONTINUOUS
10
234.551
20
-91.9937
11
236.301
21
-93.7437
0
LINE
8
BLACK
6
CONTINUOUS
10
236.301
20
-91.9937
11
234.551
21
-93.7437
0
LINE
8
BLACK
6
CONTINUOUS
10
234.551
20
-168.194
11
236.301
21
-169.944
0
LINE
8
BLACK
6
CONTINUOUS
10
236.301
20
-168.194
11
234.551
21
-169.944
0
LINE
8
BLACK
6
CONTINUOUS
10
235.186
20
-111.044
11
236.936
21
-112.794
0
LINE
8
BLACK
6
CONTINUOUS
10
236.936
20
-111.044
11
235.186
21
-112.794
0
LINE
8
BLACK
6
CONTINUOUS
10
236.932
20
-168.194
11
238.682
21
-169.944
0
LINE
8
BLACK
6
CONTINUOUS
10
238.682
20
-168.194
11
236.932
21
-169.944
0
LINE
8
BLACK
6
CONTINUOUS
10
239.314
20
-149.144
11
241.064
21
-150.894
0
LINE
8
BLACK
6
CONTINUOUS
10
241.064
20
-149.144
11
239.314
21
-150.894
0
LINE
8
BLACK
6
CONTINUOUS
10
239.949
20
-130.094
11
241.699
21
-131.844
0
LINE
8
BLACK
6
CONTINUOUS
10
241.699
20
-130.094
11
239.949
21
-131.844
0
LINE
8
BLACK
6
CONTINUOUS
10
244.076
20
-111.044
11
245.826
21
-112.794
0
LINE
8
BLACK
6
CONTINUOUS
10
245.826
20
-111.044
11
244.076
21
-112.794
0
LINE
8
BLACK
6
CONTINUOUS
10
244.711
20
-91.9937
11
246.461
21
-93.7437
0
LINE
8
BLACK
6
CONTINUOUS
10
246.461
20
-91.9937
11
244.711
21
-93.7437
0
LINE
8
BLACK
6
CONTINUOUS
10
244.711
20
-168.194
11
246.461
21
-169.944
0
LINE
8
BLACK
6
CONTINUOUS
10
246.461
20
-168.194
11
244.711
21
-169.944
0
LINE
8
BLACK
6
CONTINUOUS
10
247.093
20
-168.194
11
248.843
21
-169.944
0
LINE
8
BLACK
6
CONTINUOUS
10
248.843
20
-168.194
11
247.093
21
-169.944
0
LINE
8
BLACK
6
CONTINUOUS
10
248.839
20
-130.094
11
250.589
21
-131.844
0
LINE
8
BLACK
6
CONTINUOUS
10
250.589
20
-130.094
11
248.839
21
-131.844
0
LINE
8
BLACK
6
CONTINUOUS
10
249.474
20
-149.144
11
251.224
21
-150.894
0
LINE
8
BLACK
6
CONTINUOUS
10
251.224
20
-149.144
11
249.474
21
-150.894
0
LINE
8
BLACK
6
CONTINUOUS
10
253.601
20
-91.9937
11
255.351
21
-93.7437
0
LINE
8
BLACK
6
CONTINUOUS
10
255.351
20
-91.9937
11
253.601
21
-93.7437
0
LINE
8
BLACK
6
CONTINUOUS
10
254.236
20
-111.044
11
255.986
21
-112.794
0
LINE
8
BLACK
6
CONTINUOUS
10
255.986
20
-111.044
11
254.236
21
-112.794
0
LINE
8
BLACK
6
CONTINUOUS
10
255.982
20
-168.194
11
257.733
21
-169.944
0
LINE
8
BLACK
6
CONTINUOUS
10
257.733
20
-168.194
11
255.982
21
-169.944
0
LINE
8
BLACK
6
CONTINUOUS
10
258.364
20
-149.144
11
260.114
21
-150.894
0
LINE
8
BLACK
6
CONTINUOUS
10
260.114
20
-149.144
11
258.364
21
-150.894
0
LINE
8
BLACK
6
CONTINUOUS
10
258.999
20
-130.094
11
260.749
21
-131.844
0
LINE
8
BLACK
6
CONTINUOUS
10
260.749
20
-130.094
11
258.999
21
-131.844
0
LINE
8
BLACK
6
CONTINUOUS
10
263.126
20
-111.044
11
264.876
21
-112.794
0
LINE
8
BLACK
6
CONTINUOUS
10
264.876
20
-111.044
11
263.126
21
-112.794
0
LINE
8
BLACK
6
CONTINUOUS
10
263.761
20
-91.9937
11
265.511
21
-93.7437
0
LINE
8
BLACK
6
CONTINUOUS
10
265.511
20
-91.9937
11
263.761
21
-93.7437
0
LINE
8
BLACK
6
CONTINUOUS
10
266.142
20
-168.194
11
267.892
21
-169.944
0
LINE
8
BLACK
6
CONTINUOUS
10
267.892
20
-168.194
11
266.142
21
-169.944
0
LINE
8
BLACK
6
CONTINUOUS
10
267.889
20
-130.094
11
269.639
21
-131.844
0
LINE
8
BLACK
6
CONTINUOUS
10
269.639
20
-130.094
11
267.889
21
-131.844
0
LINE
8
BLACK
6
CONTINUOUS
10
268.524
20
-149.144
11
270.274
21
-150.894
0
LINE
8
BLACK
6
CONTINUOUS
10
270.274
20
-149.144
11
268.524
21
-150.894
0
LINE
8
BLACK
6
CONTINUOUS
10
272.651
20
-91.9937
11
274.401
21
-93.7437
0
LINE
8
BLACK
6
CONTINUOUS
10
274.401
20
-91.9937
11
272.651
21
-93.7437
0
LINE
8
BLACK
6
CONTINUOUS
10
273.286
20
-111.044
11
275.036
21
-112.794
0
LINE
8
BLACK
6
CONTINUOUS
10
275.036
20
-111.044
11
273.286
21
-112.794
0
LINE
8
BLACK
6
CONTINUOUS
10
277.414
20
-149.144
11
279.164
21
-150.894
0
LINE
8
BLACK
6
CONTINUOUS
10
279.164
20
-149.144
11
277.414
21
-150.894
0
LINE
8
BLACK
6
CONTINUOUS
10
277.414
20
-168.194
11
279.164
21
-169.944
0
LINE
8
BLACK
6
CONTINUOUS
10
279.164
20
-168.194
11
277.414
21
-169.944
0
LINE
8
BLACK
6
CONTINUOUS
10
278.049
20
-130.094
11
279.799
21
-131.844
0
LINE
8
BLACK
6
CONTINUOUS
10
279.799
20
-130.094
11
278.049
21
-131.844
0
LINE
8
BLACK
6
CONTINUOUS
10
279.795
20
-168.194
11
281.545
21
-169.944
0
LINE
8
BLACK
6
CONTINUOUS
10
281.545
20
-168.194
11
279.795
21
-169.944
0
LINE
8
BLACK
6
CONTINUOUS
10
282.176
20
-111.044
11
283.926
21
-112.794
0
LINE
8
BLACK
6
CONTINUOUS
10
283.926
20
-111.044
11
282.176
21
-112.794
0
LINE
8
BLACK
6
CONTINUOUS
10
282.811
20
-91.9937
11
284.561
21
-93.7437
0
LINE
8
BLACK
6
CONTINUOUS
10
284.561
20
-91.9937
11
282.811
21
-93.7437
0
LINE
8
BLACK
6
CONTINUOUS
10
286.939
20
-130.094
11
288.689
21
-131.844
0
LINE
8
BLACK
6
CONTINUOUS
10
288.689
20
-130.094
11
286.939
21
-131.844
0
LINE
8
BLACK
6
CONTINUOUS
10
287.574
20
-149.144
11
289.324
21
-150.894
0
LINE
8
BLACK
6
CONTINUOUS
10
289.324
20
-149.144
11
287.574
21
-150.894
0
LINE
8
BLACK
6
CONTINUOUS
10
287.574
20
-168.194
11
289.324
21
-169.944
0
LINE
8
BLACK
6
CONTINUOUS
10
289.324
20
-168.194
11
287.574
21
-169.944
0
LINE
8
BLACK
6
CONTINUOUS
10
289.955
20
-168.194
11
291.705
21
-169.944
0
LINE
8
BLACK
6
CONTINUOUS
10
291.705
20
-168.194
11
289.955
21
-169.944
0
LINE
8
BLACK
6
CONTINUOUS
10
291.701
20
-91.9937
11
293.451
21
-93.7437
0
LINE
8
BLACK
6
CONTINUOUS
10
293.451
20
-91.9937
11
291.701
21
-93.7437
0
LINE
8
BLACK
6
CONTINUOUS
10
292.336
20
-111.044
11
294.086
21
-112.794
0
LINE
8
BLACK
6
CONTINUOUS
10
294.086
20
-111.044
11
292.336
21
-112.794
0
LINE
8
BLACK
6
CONTINUOUS
10
297.099
20
-130.094
11
298.849
21
-131.844
0
LINE
8
BLACK
6
CONTINUOUS
10
298.849
20
-130.094
11
297.099
21
-131.844
0
LINE
8
BLACK
6
CONTINUOUS
10
301.226
20
-111.044
11
302.976
21
-112.794
0
LINE
8
BLACK
6
CONTINUOUS
10
302.976
20
-111.044
11
301.226
21
-112.794
0
LINE
8
BLACK
6
CONTINUOUS
10
301.861
20
-91.9937
11
303.611
21
-93.7437
0
LINE
8
BLACK
6
CONTINUOUS
10
303.611
20
-91.9937
11
301.861
21
-93.7437
0
LINE
8
BLACK
6
CONTINUOUS
10
303.607
20
-149.144
11
305.357
21
-150.894
0
LINE
8
BLACK
6
CONTINUOUS
10
305.357
20
-149.144
11
303.607
21
-150.894
0
LINE
8
BLACK
6
CONTINUOUS
10
305.989
20
-130.094
11
307.739
21
-131.844
0
LINE
8
BLACK
6
CONTINUOUS
10
307.739
20
-130.094
11
305.989
21
-131.844
0
LINE
8
BLACK
6
CONTINUOUS
10
310.751
20
-91.9937
11
312.501
21
-93.7437
0
LINE
8
BLACK
6
CONTINUOUS
10
312.501
20
-91.9937
11
310.751
21
-93.7437
0
LINE
8
BLACK
6
CONTINUOUS
10
310.751
20
-168.194
11
312.501
21
-169.944
0
LINE
8
BLACK
6
CONTINUOUS
10
312.501
20
-168.194
11
310.751
21
-169.944
0
LINE
8
BLACK
6
CONTINUOUS
10
311.386
20
-111.044
11
313.136
21
-112.794
0
LINE
8
BLACK
6
CONTINUOUS
10
313.136
20
-111.044
11
311.386
21
-112.794
0
LINE
8
BLACK
6
CONTINUOUS
10
313.767
20
-149.144
11
315.517
21
-150.894
0
LINE
8
BLACK
6
CONTINUOUS
10
315.517
20
-149.144
11
313.767
21
-150.894
0
LINE
8
BLACK
6
CONTINUOUS
10
316.149
20
-130.094
11
317.899
21
-131.844
0
LINE
8
BLACK
6
CONTINUOUS
10
317.899
20
-130.094
11
316.149
21
-131.844
0
LINE
8
BLACK
6
CONTINUOUS
10
317.895
20
-130.094
11
319.645
21
-131.844
0
LINE
8
BLACK
6
CONTINUOUS
10
319.645
20
-130.094
11
317.895
21
-131.844
0
LINE
8
BLACK
6
CONTINUOUS
10
320.276
20
-91.9937
11
322.026
21
-93.7437
0
LINE
8
BLACK
6
CONTINUOUS
10
322.026
20
-91.9937
11
320.276
21
-93.7437
0
LINE
8
BLACK
6
CONTINUOUS
10
320.911
20
-91.9937
11
322.661
21
-93.7437
0
LINE
8
BLACK
6
CONTINUOUS
10
322.661
20
-91.9937
11
320.911
21
-93.7437
0
LINE
8
BLACK
6
CONTINUOUS
10
320.911
20
-168.194
11
322.661
21
-169.944
0
LINE
8
BLACK
6
CONTINUOUS
10
322.661
20
-168.194
11
320.911
21
-169.944
0
LINE
8
BLACK
6
CONTINUOUS
10
325.039
20
-111.044
11
326.789
21
-112.794
0
LINE
8
BLACK
6
CONTINUOUS
10
326.789
20
-111.044
11
325.039
21
-112.794
0
LINE
8
BLACK
6
CONTINUOUS
10
327.42
20
-120.569
11
329.17
21
-122.319
0
LINE
8
BLACK
6
CONTINUOUS
10
329.17
20
-120.569
11
327.42
21
-122.319
0
LINE
8
BLACK
6
CONTINUOUS
10
328.055
20
-130.094
11
329.805
21
-131.844
0
LINE
8
BLACK
6
CONTINUOUS
10
329.805
20
-130.094
11
328.055
21
-131.844
0
LINE
8
BLACK
6
CONTINUOUS
10
329.801
20
-149.144
11
331.551
21
-150.894
0
LINE
8
BLACK
6
CONTINUOUS
10
331.551
20
-149.144
11
329.801
21
-150.894
0
LINE
8
BLACK
6
CONTINUOUS
10
329.801
20
-168.194
11
331.551
21
-169.944
0
LINE
8
BLACK
6
CONTINUOUS
10
331.551
20
-168.194
11
329.801
21
-169.944
0
LINE
8
BLACK
6
CONTINUOUS
10
329.833
20
-91.962
11
331.583
21
-93.712
0
LINE
8
BLACK
6
CONTINUOUS
10
331.583
20
-91.962
11
329.833
21
-93.712
0
LINE
8
BLACK
6
CONTINUOUS
10
330.436
20
-91.9937
11
332.186
21
-93.7437
0
LINE
8
BLACK
6
CONTINUOUS
10
332.186
20
-91.9937
11
330.436
21
-93.7437
0
LINE
8
BLACK
6
CONTINUOUS
10
335.199
20
-111.044
11
336.949
21
-112.794
0
LINE
8
BLACK
6
CONTINUOUS
10
336.949
20
-111.044
11
335.199
21
-112.794
0
LINE
8
BLACK
6
CONTINUOUS
10
337.58
20
-120.569
11
339.33
21
-122.319
0
LINE
8
BLACK
6
CONTINUOUS
10
339.33
20
-120.569
11
337.58
21
-122.319
0
LINE
8
BLACK
6
CONTINUOUS
10
339.961
20
-149.144
11
341.711
21
-150.894
0
LINE
8
BLACK
6
CONTINUOUS
10
341.711
20
-149.144
11
339.961
21
-150.894
0
LINE
8
BLACK
6
CONTINUOUS
10
339.961
20
-168.194
11
341.711
21
-169.944
0
LINE
8
BLACK
6
CONTINUOUS
10
341.711
20
-168.194
11
339.961
21
-169.944
0
LINE
8
BLACK
6
CONTINUOUS
10
339.993
20
-91.962
11
341.743
21
-93.712
0
LINE
8
BLACK
6
CONTINUOUS
10
341.743
20
-91.962
11
339.993
21
-93.712
0
LINE
8
BLACK
6
CONTINUOUS
10
348.851
20
-111.044
11
350.601
21
-112.794
0
LINE
8
BLACK
6
CONTINUOUS
10
350.601
20
-111.044
11
348.851
21
-112.794
0
LINE
8
BLACK
6
CONTINUOUS
10
348.851
20
-130.094
11
350.601
21
-131.844
0
LINE
8
BLACK
6
CONTINUOUS
10
350.601
20
-130.094
11
348.851
21
-131.844
0
LINE
8
BLACK
6
CONTINUOUS
10
348.851
20
-149.144
11
350.601
21
-150.894
0
LINE
8
BLACK
6
CONTINUOUS
10
350.601
20
-149.144
11
348.851
21
-150.894
0
LINE
8
BLACK
6
CONTINUOUS
10
348.851
20
-168.194
11
350.601
21
-169.944
0
LINE
8
BLACK
6
CONTINUOUS
10
350.601
20
-168.194
11
348.851
21
-169.944
0
LINE
8
BLACK
6
CONTINUOUS
10
348.883
20
-91.962
11
350.633
21
-93.712
0
LINE
8
BLACK
6
CONTINUOUS
10
350.633
20
-91.962
11
348.883
21
-93.712
0
LINE
8
BLACK
6
CONTINUOUS
10
359.011
20
-111.044
11
360.761
21
-112.794
0
LINE
8
BLACK
6
CONTINUOUS
10
360.761
20
-111.044
11
359.011
21
-112.794
0
LINE
8
BLACK
6
CONTINUOUS
10
359.011
20
-130.094
11
360.761
21
-131.844
0
LINE
8
BLACK
6
CONTINUOUS
10
360.761
20
-130.094
11
359.011
21
-131.844
0
LINE
8
BLACK
6
CONTINUOUS
10
359.011
20
-149.144
11
360.761
21
-150.894
0
LINE
8
BLACK
6
CONTINUOUS
10
360.761
20
-149.144
11
359.011
21
-150.894
0
LINE
8
BLACK
6
CONTINUOUS
10
359.011
20
-168.194
11
360.761
21
-169.944
0
LINE
8
BLACK
6
CONTINUOUS
10
360.761
20
-168.194
11
359.011
21
-169.944
0
LINE
8
BLACK
6
CONTINUOUS
10
359.043
20
-91.962
11
360.793
21
-93.712
0
LINE
8
BLACK
6
CONTINUOUS
10
360.793
20
-91.962
11
359.043
21
-93.712
0
CIRCLE
8
BLACK
10
69.0562
20
-92.8687
40
1.9939
0
CIRCLE
8
BLACK
10
69.0562
20
-158.274
40
1.9939
0
CIRCLE
8
BLACK
10
71.4375
20
-130.969
40
1.9939
0
CIRCLE
8
BLACK
10
71.4375
20
-150.019
40
1.9939
0
CIRCLE
8
BLACK
10
71.4375
20
-169.069
40
1.9939
0
CIRCLE
8
BLACK
10
73.8187
20
-111.919
40
1.9939
0
CIRCLE
8
BLACK
10
73.8187
20
-169.069
40
1.9939
0
CIRCLE
8
BLACK
10
76.2
20
-130.969
40
1.9939
0
CIRCLE
8
BLACK
10
80.9625
20
-150.019
40
1.9939
0
CIRCLE
8
BLACK
10
88.1063
20
-92.8687
40
1.9939
0
CIRCLE
8
BLACK
10
92.8687
20
-150.019
40
1.9939
0
CIRCLE
8
BLACK
10
92.8687
20
-158.274
40
1.9939
0
CIRCLE
8
BLACK
10
95.25
20
-169.069
40
1.9939
0
CIRCLE
8
BLACK
10
97.6312
20
-111.919
40
1.9939
0
CIRCLE
8
BLACK
10
97.6312
20
-169.069
40
1.9939
0
CIRCLE
8
BLACK
10
102.394
20
-130.969
40
1.9939
0
CIRCLE
8
BLACK
10
107.156
20
-92.8687
40
1.9939
0
CIRCLE
8
BLACK
10
111.919
20
-150.019
40
1.9939
0
CIRCLE
8
BLACK
10
116.681
20
-111.919
40
1.9939
0
CIRCLE
8
BLACK
10
119.062
20
-169.069
40
1.9939
0
CIRCLE
8
BLACK
10
121.444
20
-130.969
40
1.9939
0
CIRCLE
8
BLACK
10
121.444
20
-169.069
40
1.9939
0
CIRCLE
8
BLACK
10
126.206
20
-92.8687
40
1.9939
0
CIRCLE
8
BLACK
10
130.969
20
-150.019
40
1.9939
0
CIRCLE
8
BLACK
10
133.35
20
-160.814
40
1.9939
0
CIRCLE
8
BLACK
10
135.731
20
-111.919
40
1.9939
0
CIRCLE
8
BLACK
10
138.112
20
-160.814
40
1.9939
0
CIRCLE
8
BLACK
10
140.494
20
-130.969
40
1.9939
0
CIRCLE
8
BLACK
10
145.256
20
-92.8687
40
1.9939
0
CIRCLE
8
BLACK
10
147.637
20
-160.814
40
1.9939
0
CIRCLE
8
BLACK
10
150.019
20
-150.019
40
1.9939
0
CIRCLE
8
BLACK
10
152.4
20
-160.814
40
1.9939
0
CIRCLE
8
BLACK
10
154.781
20
-111.919
40
1.9939
0
CIRCLE
8
BLACK
10
157.162
20
-169.069
40
1.9939
0
CIRCLE
8
BLACK
10
159.544
20
-130.969
40
1.9939
0
CIRCLE
8
BLACK
10
164.306
20
-92.8687
40
1.9939
0
CIRCLE
8
BLACK
10
164.306
20
-169.069
40
1.9939
0
CIRCLE
8
BLACK
10
169.069
20
-150.019
40
1.9939
0
CIRCLE
8
BLACK
10
173.831
20
-111.919
40
1.9939
0
CIRCLE
8
BLACK
10
176.213
20
-160.814
40
1.9939
0
CIRCLE
8
BLACK
10
176.213
20
-160.814
40
1.9939
0
CIRCLE
8
BLACK
10
178.594
20
-130.969
40
1.9939
0
CIRCLE
8
BLACK
10
183.356
20
-92.8687
40
1.9939
0
CIRCLE
8
BLACK
10
188.119
20
-150.019
40
1.9939
0
CIRCLE
8
BLACK
10
190.5
20
-160.814
40
1.9939
0
CIRCLE
8
BLACK
10
190.5
20
-169.069
40
1.9939
0
CIRCLE
8
BLACK
10
192.881
20
-111.919
40
1.9939
0
CIRCLE
8
BLACK
10
197.644
20
-130.969
40
1.9939
0
CIRCLE
8
BLACK
10
197.644
20
-169.069
40
1.9939
0
CIRCLE
8
BLACK
10
202.406
20
-92.8687
40
1.9939
0
CIRCLE
8
BLACK
10
202.406
20
-169.069
40
1.9939
0
CIRCLE
8
BLACK
10
207.169
20
-150.019
40
1.9939
0
CIRCLE
8
BLACK
10
211.931
20
-111.919
40
1.9939
0
CIRCLE
8
BLACK
10
214.312
20
-160.814
40
1.9939
0
CIRCLE
8
BLACK
10
216.694
20
-130.969
40
1.9939
0
CIRCLE
8
BLACK
10
221.456
20
-92.8687
40
1.9939
0
CIRCLE
8
BLACK
10
221.456
20
-160.814
40
1.9939
0
CIRCLE
8
BLACK
10
226.219
20
-150.019
40
1.9939
0
CIRCLE
8
BLACK
10
230.981
20
-111.919
40
1.9939
0
CIRCLE
8
BLACK
10
230.981
20
-160.814
40
1.9939
0
CIRCLE
8
BLACK
10
235.744
20
-130.969
40
1.9939
0
CIRCLE
8
BLACK
10
240.506
20
-92.8687
40
1.9939
0
CIRCLE
8
BLACK
10
240.506
20
-169.069
40
1.9939
0
CIRCLE
8
BLACK
10
242.887
20
-169.069
40
1.9939
0
CIRCLE
8
BLACK
10
245.269
20
-150.019
40
1.9939
0
CIRCLE
8
BLACK
10
247.65
20
-160.814
40
1.9939
0
CIRCLE
8
BLACK
10
247.65
20
-160.814
40
1.9939
0
CIRCLE
8
BLACK
10
250.031
20
-111.919
40
1.9939
0
CIRCLE
8
BLACK
10
254.794
20
-130.969
40
1.9939
0
CIRCLE
8
BLACK
10
254.794
20
-160.814
40
1.9939
0
CIRCLE
8
BLACK
10
259.556
20
-92.8687
40
1.9939
0
CIRCLE
8
BLACK
10
259.556
20
-160.814
40
1.9939
0
CIRCLE
8
BLACK
10
261.938
20
-169.069
40
1.9939
0
CIRCLE
8
BLACK
10
264.319
20
-150.019
40
1.9939
0
CIRCLE
8
BLACK
10
269.081
20
-111.919
40
1.9939
0
CIRCLE
8
BLACK
10
273.844
20
-130.969
40
1.9939
0
CIRCLE
8
BLACK
10
278.606
20
-92.8687
40
1.9939
0
CIRCLE
8
BLACK
10
283.369
20
-150.019
40
1.9939
0
CIRCLE
8
BLACK
10
283.369
20
-169.069
40
1.9939
0
CIRCLE
8
BLACK
10
285.75
20
-169.069
40
1.9939
0
CIRCLE
8
BLACK
10
288.131
20
-111.919
40
1.9939
0
CIRCLE
8
BLACK
10
292.894
20
-130.969
40
1.9939
0
CIRCLE
8
BLACK
10
297.656
20
-92.8687
40
1.9939
0
CIRCLE
8
BLACK
10
300.037
20
-139.224
40
1.9939
0
CIRCLE
8
BLACK
10
307.181
20
-111.919
40
1.9939
0
CIRCLE
8
BLACK
10
309.562
20
-150.019
40
1.9939
0
CIRCLE
8
BLACK
10
311.944
20
-130.969
40
1.9939
0
CIRCLE
8
BLACK
10
314.325
20
-101.092
40
1.9939
0
CIRCLE
8
BLACK
10
316.706
20
-92.8687
40
1.9939
0
CIRCLE
8
BLACK
10
316.706
20
-169.069
40
1.9939
0
CIRCLE
8
BLACK
10
323.85
20
-130.969
40
1.9939
0
CIRCLE
8
BLACK
10
323.85
20
-139.224
40
1.9939
0
CIRCLE
8
BLACK
10
325.12
20
-109.537
40
1.9939
0
CIRCLE
8
BLACK
10
325.12
20
-133.35
40
1.9939
0
CIRCLE
8
BLACK
10
326.231
20
-92.8687
40
1.9939
0
CIRCLE
8
BLACK
10
330.994
20
-111.919
40
1.9939
0
CIRCLE
8
BLACK
10
333.375
20
-121.444
40
1.9939
0
CIRCLE
8
BLACK
10
335.756
20
-150.019
40
1.9939
0
CIRCLE
8
BLACK
10
335.756
20
-169.069
40
1.9939
0
CIRCLE
8
BLACK
10
335.788
20
-92.837
40
1.9939
0
CIRCLE
8
BLACK
10
338.137
20
-101.092
40
1.9939
0
CIRCLE
8
BLACK
10
354.806
20
-111.919
40
1.9939
0
CIRCLE
8
BLACK
10
354.806
20
-130.969
40
1.9939
0
CIRCLE
8
BLACK
10
354.806
20
-150.019
40
1.9939
0
CIRCLE
8
BLACK
10
354.806
20
-169.069
40
1.9939
0
CIRCLE
8
BLACK
10
354.838
20
-92.837
40
1.9939
0
LINE
8
BLACK
6
CONTINUOUS
10
62.0241
20
-180.986
11
62.0241
21
-178.986
0
LINE
8
BLACK
6
CONTINUOUS
10
62.0241
20
-178.986
11
62.5003
21
-178.986
0
LINE
8
BLACK
6
CONTINUOUS
10
62.5003
20
-178.986
11
62.786
21
-179.082
0
LINE
8
BLACK
6
CONTINUOUS
10
62.786
20
-179.082
11
62.9765
21
-179.272
0
LINE
8
BLACK
6
CONTINUOUS
10
62.9765
20
-179.272
11
63.0717
21
-179.463
0
LINE
8
BLACK
6
CONTINUOUS
10
63.0717
20
-179.463
11
63.1669
21
-179.843
0
LINE
8
BLACK
6
CONTINUOUS
10
63.1669
20
-179.843
11
63.1669
21
-180.129
0
LINE
8
BLACK
6
CONTINUOUS
10
63.1669
20
-180.129
11
63.0717
21
-180.51
0
LINE
8
BLACK
6
CONTINUOUS
10
63.0717
20
-180.51
11
62.9765
21
-180.701
0
LINE
8
BLACK
6
CONTINUOUS
10
62.9765
20
-180.701
11
62.786
21
-180.891
0
LINE
8
BLACK
6
CONTINUOUS
10
62.786
20
-180.891
11
62.5003
21
-180.986
0
LINE
8
BLACK
6
CONTINUOUS
10
62.5003
20
-180.986
11
62.0241
21
-180.986
0
LINE
8
BLACK
6
CONTINUOUS
10
64.0241
20
-180.986
11
64.0241
21
-179.653
0
LINE
8
BLACK
6
CONTINUOUS
10
64.0241
20
-180.034
11
64.1193
21
-179.843
0
LINE
8
BLACK
6
CONTINUOUS
10
64.1193
20
-179.843
11
64.2146
21
-179.748
0
LINE
8
BLACK
6
CONTINUOUS
10
64.2146
20
-179.748
11
64.405
21
-179.653
0
LINE
8
BLACK
6
CONTINUOUS
10
64.405
20
-179.653
11
64.5955
21
-179.653
0
LINE
8
BLACK
6
CONTINUOUS
10
65.2622
20
-180.986
11
65.2622
21
-179.653
0
LINE
8
BLACK
6
CONTINUOUS
10
65.2622
20
-178.986
11
65.1669
21
-179.082
0
LINE
8
BLACK
6
CONTINUOUS
10
65.1669
20
-179.082
11
65.2622
21
-179.177
0
LINE
8
BLACK
6
CONTINUOUS
10
65.2622
20
-179.177
11
65.3574
21
-179.082
0
LINE
8
BLACK
6
CONTINUOUS
10
65.3574
20
-179.082
11
65.2622
21
-178.986
0
LINE
8
BLACK
6
CONTINUOUS
10
65.2622
20
-178.986
11
65.2622
21
-179.177
0
LINE
8
BLACK
6
CONTINUOUS
10
66.5003
20
-180.986
11
66.3098
21
-180.891
0
LINE
8
BLACK
6
CONTINUOUS
10
66.3098
20
-180.891
11
66.2146
21
-180.701
0
LINE
8
BLACK
6
CONTINUOUS
10
66.2146
20
-180.701
11
66.2146
21
-178.986
0
LINE
8
BLACK
6
CONTINUOUS
10
67.5479
20
-180.986
11
67.3574
21
-180.891
0
LINE
8
BLACK
6
CONTINUOUS
10
67.3574
20
-180.891
11
67.2622
21
-180.701
0
LINE
8
BLACK
6
CONTINUOUS
10
67.2622
20
-180.701
11
67.2622
21
-178.986
0
LINE
8
BLACK
6
CONTINUOUS
10
69.8336
20
-180.986
11
69.8336
21
-178.986
0
LINE
8
BLACK
6
CONTINUOUS
10
69.8336
20
-178.986
11
70.5003
21
-180.415
0
LINE
8
BLACK
6
CONTINUOUS
10
70.5003
20
-180.415
11
71.1669
21
-178.986
0
LINE
8
BLACK
6
CONTINUOUS
10
71.1669
20
-178.986
11
71.1669
21
-180.986
0
LINE
8
BLACK
6
CONTINUOUS
10
72.9765
20
-180.986
11
72.9765
21
-179.939
0
LINE
8
BLACK
6
CONTINUOUS
10
72.9765
20
-179.939
11
72.8812
21
-179.748
0
LINE
8
BLACK
6
CONTINUOUS
10
72.8812
20
-179.748
11
72.6908
21
-179.653
0
LINE
8
BLACK
6
CONTINUOUS
10
72.6908
20
-179.653
11
72.3098
21
-179.653
0
LINE
8
BLACK
6
CONTINUOUS
10
72.3098
20
-179.653
11
72.1193
21
-179.748
0
LINE
8
BLACK
6
CONTINUOUS
10
72.9765
20
-180.891
11
72.786
21
-180.986
0
LINE
8
BLACK
6
CONTINUOUS
10
72.786
20
-180.986
11
72.3098
21
-180.986
0
LINE
8
BLACK
6
CONTINUOUS
10
72.3098
20
-180.986
11
72.1193
21
-180.891
0
LINE
8
BLACK
6
CONTINUOUS
10
72.1193
20
-180.891
11
72.0241
21
-180.701
0
LINE
8
BLACK
6
CONTINUOUS
10
72.0241
20
-180.701
11
72.0241
21
-180.51
0
LINE
8
BLACK
6
CONTINUOUS
10
72.0241
20
-180.51
11
72.1193
21
-180.32
0
LINE
8
BLACK
6
CONTINUOUS
10
72.1193
20
-180.32
11
72.3098
21
-180.224
0
LINE
8
BLACK
6
CONTINUOUS
10
72.3098
20
-180.224
11
72.786
21
-180.224
0
LINE
8
BLACK
6
CONTINUOUS
10
72.786
20
-180.224
11
72.9765
21
-180.129
0
LINE
8
BLACK
6
CONTINUOUS
10
73.9288
20
-179.653
11
73.9288
21
-181.653
0
LINE
8
BLACK
6
CONTINUOUS
10
73.9288
20
-179.748
11
74.1193
21
-179.653
0
LINE
8
BLACK
6
CONTINUOUS
10
74.1193
20
-179.653
11
74.5003
21
-179.653
0
LINE
8
BLACK
6
CONTINUOUS
10
74.5003
20
-179.653
11
74.6908
21
-179.748
0
LINE
8
BLACK
6
CONTINUOUS
10
74.6908
20
-179.748
11
74.786
21
-179.843
0
LINE
8
BLACK
6
CONTINUOUS
10
74.786
20
-179.843
11
74.8812
21
-180.034
0
LINE
8
BLACK
6
CONTINUOUS
10
74.8812
20
-180.034
11
74.8812
21
-180.605
0
LINE
8
BLACK
6
CONTINUOUS
10
74.8812
20
-180.605
11
74.786
21
-180.796
0
LINE
8
BLACK
6
CONTINUOUS
10
74.786
20
-180.796
11
74.6908
21
-180.891
0
LINE
8
BLACK
6
CONTINUOUS
10
74.6908
20
-180.891
11
74.5003
21
-180.986
0
LINE
8
BLACK
6
CONTINUOUS
10
74.5003
20
-180.986
11
74.1193
21
-180.986
0
LINE
8
BLACK
6
CONTINUOUS
10
74.1193
20
-180.986
11
73.9288
21
-180.891
0
LINE
8
BLACK
6
CONTINUOUS
10
75.7384
20
-180.796
11
75.8336
21
-180.891
0
LINE
8
BLACK
6
CONTINUOUS
10
75.8336
20
-180.891
11
75.7384
21
-180.986
0
LINE
8
BLACK
6
CONTINUOUS
10
75.7384
20
-180.986
11
75.6431
21
-180.891
0
LINE
8
BLACK
6
CONTINUOUS
10
75.6431
20
-180.891
11
75.7384
21
-180.796
0
LINE
8
BLACK
6
CONTINUOUS
10
75.7384
20
-180.796
11
75.7384
21
-180.986
0
LINE
8
BLACK
6
CONTINUOUS
10
75.7384
20
-179.748
11
75.8336
21
-179.843
0
LINE
8
BLACK
6
CONTINUOUS
10
75.8336
20
-179.843
11
75.7384
21
-179.939
0
LINE
8
BLACK
6
CONTINUOUS
10
75.7384
20
-179.939
11
75.6431
21
-179.843
0
LINE
8
BLACK
6
CONTINUOUS
10
75.6431
20
-179.843
11
75.7384
21
-179.748
0
LINE
8
BLACK
6
CONTINUOUS
10
75.7384
20
-179.748
11
75.7384
21
-179.939
0
LINE
8
BLACK
6
CONTINUOUS
10
57.7979
20
-183.386
11
59.5479
21
-185.136
0
LINE
8
BLACK
6
CONTINUOUS
10
59.5479
20
-183.386
11
57.7979
21
-185.136
0
LINE
8
BLACK
6
CONTINUOUS
10
63.0717
20
-185.186
11
61.9288
21
-185.186
0
LINE
8
BLACK
6
CONTINUOUS
10
62.5003
20
-185.186
11
62.5003
21
-183.186
0
LINE
8
BLACK
6
CONTINUOUS
10
62.5003
20
-183.186
11
62.3098
21
-183.472
0
LINE
8
BLACK
6
CONTINUOUS
10
62.3098
20
-183.472
11
62.1193
21
-183.663
0
LINE
8
BLACK
6
CONTINUOUS
10
62.1193
20
-183.663
11
61.9288
21
-183.758
0
LINE
8
BLACK
6
CONTINUOUS
10
63.9288
20
-184.996
11
64.0241
21
-185.091
0
LINE
8
BLACK
6
CONTINUOUS
10
64.0241
20
-185.091
11
63.9288
21
-185.186
0
LINE
8
BLACK
6
CONTINUOUS
10
63.9288
20
-185.186
11
63.8336
21
-185.091
0
LINE
8
BLACK
6
CONTINUOUS
10
63.8336
20
-185.091
11
63.9288
21
-184.996
0
LINE
8
BLACK
6
CONTINUOUS
10
63.9288
20
-184.996
11
63.9288
21
-185.186
0
LINE
8
BLACK
6
CONTINUOUS
10
64.6908
20
-183.186
11
66.0241
21
-183.186
0
LINE
8
BLACK
6
CONTINUOUS
10
66.0241
20
-183.186
11
65.1669
21
-185.186
0
LINE
8
BLACK
6
CONTINUOUS
10
67.7384
20
-183.186
11
66.786
21
-183.186
0
LINE
8
BLACK
6
CONTINUOUS
10
66.786
20
-183.186
11
66.6908
21
-184.139
0
LINE
8
BLACK
6
CONTINUOUS
10
66.6908
20
-184.139
11
66.786
21
-184.043
0
LINE
8
BLACK
6
CONTINUOUS
10
66.786
20
-184.043
11
66.9765
21
-183.948
0
LINE
8
BLACK
6
CONTINUOUS
10
66.9765
20
-183.948
11
67.4527
21
-183.948
0
LINE
8
BLACK
6
CONTINUOUS
10
67.4527
20
-183.948
11
67.6431
21
-184.043
0
LINE
8
BLACK
6
CONTINUOUS
10
67.6431
20
-184.043
11
67.7384
21
-184.139
0
LINE
8
BLACK
6
CONTINUOUS
10
67.7384
20
-184.139
11
67.8336
21
-184.329
0
LINE
8
BLACK
6
CONTINUOUS
10
67.8336
20
-184.329
11
67.8336
21
-184.805
0
LINE
8
BLACK
6
CONTINUOUS
10
67.8336
20
-184.805
11
67.7384
21
-184.996
0
LINE
8
BLACK
6
CONTINUOUS
10
67.7384
20
-184.996
11
67.6431
21
-185.091
0
LINE
8
BLACK
6
CONTINUOUS
10
67.6431
20
-185.091
11
67.4527
21
-185.186
0
LINE
8
BLACK
6
CONTINUOUS
10
67.4527
20
-185.186
11
66.9765
21
-185.186
0
LINE
8
BLACK
6
CONTINUOUS
10
66.9765
20
-185.186
11
66.786
21
-185.091
0
LINE
8
BLACK
6
CONTINUOUS
10
66.786
20
-185.091
11
66.6908
21
-184.996
0
LINE
8
BLACK
6
CONTINUOUS
10
69.0717
20
-183.186
11
69.2622
21
-183.186
0
LINE
8
BLACK
6
CONTINUOUS
10
69.2622
20
-183.186
11
69.4527
21
-183.282
0
LINE
8
BLACK
6
CONTINUOUS
10
69.4527
20
-183.282
11
69.5479
21
-183.377
0
LINE
8
BLACK
6
CONTINUOUS
10
69.5479
20
-183.377
11
69.6431
21
-183.567
0
LINE
8
BLACK
6
CONTINUOUS
10
69.6431
20
-183.567
11
69.7384
21
-183.948
0
LINE
8
BLACK
6
CONTINUOUS
10
69.7384
20
-183.948
11
69.7384
21
-184.424
0
LINE
8
BLACK
6
CONTINUOUS
10
69.7384
20
-184.424
11
69.6431
21
-184.805
0
LINE
8
BLACK
6
CONTINUOUS
10
69.6431
20
-184.805
11
69.5479
21
-184.996
0
LINE
8
BLACK
6
CONTINUOUS
10
69.5479
20
-184.996
11
69.4527
21
-185.091
0
LINE
8
BLACK
6
CONTINUOUS
10
69.4527
20
-185.091
11
69.2622
21
-185.186
0
LINE
8
BLACK
6
CONTINUOUS
10
69.2622
20
-185.186
11
69.0717
21
-185.186
0
LINE
8
BLACK
6
CONTINUOUS
10
69.0717
20
-185.186
11
68.8812
21
-185.091
0
LINE
8
BLACK
6
CONTINUOUS
10
68.8812
20
-185.091
11
68.786
21
-184.996
0
LINE
8
BLACK
6
CONTINUOUS
10
68.786
20
-184.996
11
68.6908
21
-184.805
0
LINE
8
BLACK
6
CONTINUOUS
10
68.6908
20
-184.805
11
68.5955
21
-184.424
0
LINE
8
BLACK
6
CONTINUOUS
10
68.5955
20
-184.424
11
68.5955
21
-183.948
0
LINE
8
BLACK
6
CONTINUOUS
10
68.5955
20
-183.948
11
68.6908
21
-183.567
0
LINE
8
BLACK
6
CONTINUOUS
10
68.6908
20
-183.567
11
68.786
21
-183.377
0
LINE
8
BLACK
6
CONTINUOUS
10
68.786
20
-183.377
11
68.8812
21
-183.282
0
LINE
8
BLACK
6
CONTINUOUS
10
68.8812
20
-183.282
11
69.0717
21
-183.186
0
LINE
8
BLACK
6
CONTINUOUS
10
70.5955
20
-185.186
11
70.5955
21
-183.853
0
LINE
8
BLACK
6
CONTINUOUS
10
70.5955
20
-184.043
11
70.6908
21
-183.948
0
LINE
8
BLACK
6
CONTINUOUS
10
70.6908
20
-183.948
11
70.8812
21
-183.853
0
LINE
8
BLACK
6
CONTINUOUS
10
70.8812
20
-183.853
11
71.1669
21
-183.853
0
LINE
8
BLACK
6
CONTINUOUS
10
71.1669
20
-183.853
11
71.3574
21
-183.948
0
LINE
8
BLACK
6
CONTINUOUS
10
71.3574
20
-183.948
11
71.4527
21
-184.139
0
LINE
8
BLACK
6
CONTINUOUS
10
71.4527
20
-184.139
11
71.4527
21
-185.186
0
LINE
8
BLACK
6
CONTINUOUS
10
71.4527
20
-184.139
11
71.5479
21
-183.948
0
LINE
8
BLACK
6
CONTINUOUS
10
71.5479
20
-183.948
11
71.7384
21
-183.853
0
LINE
8
BLACK
6
CONTINUOUS
10
71.7384
20
-183.853
11
72.0241
21
-183.853
0
LINE
8
BLACK
6
CONTINUOUS
10
72.0241
20
-183.853
11
72.2146
21
-183.948
0
LINE
8
BLACK
6
CONTINUOUS
10
72.2146
20
-183.948
11
72.3098
21
-184.139
0
LINE
8
BLACK
6
CONTINUOUS
10
72.3098
20
-184.139
11
72.3098
21
-185.186
0
LINE
8
BLACK
6
CONTINUOUS
10
73.2622
20
-185.186
11
73.2622
21
-183.853
0
LINE
8
BLACK
6
CONTINUOUS
10
73.2622
20
-184.043
11
73.3574
21
-183.948
0
LINE
8
BLACK
6
CONTINUOUS
10
73.3574
20
-183.948
11
73.5479
21
-183.853
0
LINE
8
BLACK
6
CONTINUOUS
10
73.5479
20
-183.853
11
73.8336
21
-183.853
0
LINE
8
BLACK
6
CONTINUOUS
10
73.8336
20
-183.853
11
74.0241
21
-183.948
0
LINE
8
BLACK
6
CONTINUOUS
10
74.0241
20
-183.948
11
74.1193
21
-184.139
0
LINE
8
BLACK
6
CONTINUOUS
10
74.1193
20
-184.139
11
74.1193
21
-185.186
0
LINE
8
BLACK
6
CONTINUOUS
10
74.1193
20
-184.139
11
74.2146
21
-183.948
0
LINE
8
BLACK
6
CONTINUOUS
10
74.2146
20
-183.948
11
74.405
21
-183.853
0
LINE
8
BLACK
6
CONTINUOUS
10
74.405
20
-183.853
11
74.6908
21
-183.853
0
LINE
8
BLACK
6
CONTINUOUS
10
74.6908
20
-183.853
11
74.8812
21
-183.948
0
LINE
8
BLACK
6
CONTINUOUS
10
74.8812
20
-183.948
11
74.9765
21
-184.139
0
LINE
8
BLACK
6
CONTINUOUS
10
74.9765
20
-184.139
11
74.9765
21
-185.186
0
LINE
8
BLACK
6
CONTINUOUS
10
78.8812
20
-183.091
11
77.1669
21
-185.663
0
LINE
8
BLACK
6
CONTINUOUS
10
81.4527
20
-183.186
11
81.6431
21
-183.186
0
LINE
8
BLACK
6
CONTINUOUS
10
81.6431
20
-183.186
11
81.8336
21
-183.282
0
LINE
8
BLACK
6
CONTINUOUS
10
81.8336
20
-183.282
11
81.9288
21
-183.377
0
LINE
8
BLACK
6
CONTINUOUS
10
81.9288
20
-183.377
11
82.0241
21
-183.567
0
LINE
8
BLACK
6
CONTINUOUS
10
82.0241
20
-183.567
11
82.1193
21
-183.948
0
LINE
8
BLACK
6
CONTINUOUS
10
82.1193
20
-183.948
11
82.1193
21
-184.424
0
LINE
8
BLACK
6
CONTINUOUS
10
82.1193
20
-184.424
11
82.0241
21
-184.805
0
LINE
8
BLACK
6
CONTINUOUS
10
82.0241
20
-184.805
11
81.9288
21
-184.996
0
LINE
8
BLACK
6
CONTINUOUS
10
81.9288
20
-184.996
11
81.8336
21
-185.091
0
LINE
8
BLACK
6
CONTINUOUS
10
81.8336
20
-185.091
11
81.6431
21
-185.186
0
LINE
8
BLACK
6
CONTINUOUS
10
81.6431
20
-185.186
11
81.4527
21
-185.186
0
LINE
8
BLACK
6
CONTINUOUS
10
81.4527
20
-185.186
11
81.2622
21
-185.091
0
LINE
8
BLACK
6
CONTINUOUS
10
81.2622
20
-185.091
11
81.1669
21
-184.996
0
LINE
8
BLACK
6
CONTINUOUS
10
81.1669
20
-184.996
11
81.0717
21
-184.805
0
LINE
8
BLACK
6
CONTINUOUS
10
81.0717
20
-184.805
11
80.9765
21
-184.424
0
LINE
8
BLACK
6
CONTINUOUS
10
80.9765
20
-184.424
11
80.9765
21
-183.948
0
LINE
8
BLACK
6
CONTINUOUS
10
80.9765
20
-183.948
11
81.0717
21
-183.567
0
LINE
8
BLACK
6
CONTINUOUS
10
81.0717
20
-183.567
11
81.1669
21
-183.377
0
LINE
8
BLACK
6
CONTINUOUS
10
81.1669
20
-183.377
11
81.2622
21
-183.282
0
LINE
8
BLACK
6
CONTINUOUS
10
81.2622
20
-183.282
11
81.4527
21
-183.186
0
LINE
8
BLACK
6
CONTINUOUS
10
82.9765
20
-184.996
11
83.0717
21
-185.091
0
LINE
8
BLACK
6
CONTINUOUS
10
83.0717
20
-185.091
11
82.9765
21
-185.186
0
LINE
8
BLACK
6
CONTINUOUS
10
82.9765
20
-185.186
11
82.8812
21
-185.091
0
LINE
8
BLACK
6
CONTINUOUS
10
82.8812
20
-185.091
11
82.9765
21
-184.996
0
LINE
8
BLACK
6
CONTINUOUS
10
82.9765
20
-184.996
11
82.9765
21
-185.186
0
LINE
8
BLACK
6
CONTINUOUS
10
84.3098
20
-183.186
11
84.5003
21
-183.186
0
LINE
8
BLACK
6
CONTINUOUS
10
84.5003
20
-183.186
11
84.6908
21
-183.282
0
LINE
8
BLACK
6
CONTINUOUS
10
84.6908
20
-183.282
11
84.786
21
-183.377
0
LINE
8
BLACK
6
CONTINUOUS
10
84.786
20
-183.377
11
84.8812
21
-183.567
0
LINE
8
BLACK
6
CONTINUOUS
10
84.8812
20
-183.567
11
84.9765
21
-183.948
0
LINE
8
BLACK
6
CONTINUOUS
10
84.9765
20
-183.948
11
84.9765
21
-184.424
0
LINE
8
BLACK
6
CONTINUOUS
10
84.9765
20
-184.424
11
84.8812
21
-184.805
0
LINE
8
BLACK
6
CONTINUOUS
10
84.8812
20
-184.805
11
84.786
21
-184.996
0
LINE
8
BLACK
6
CONTINUOUS
10
84.786
20
-184.996
11
84.6908
21
-185.091
0
LINE
8
BLACK
6
CONTINUOUS
10
84.6908
20
-185.091
11
84.5003
21
-185.186
0
LINE
8
BLACK
6
CONTINUOUS
10
84.5003
20
-185.186
11
84.3098
21
-185.186
0
LINE
8
BLACK
6
CONTINUOUS
10
84.3098
20
-185.186
11
84.1193
21
-185.091
0
LINE
8
BLACK
6
CONTINUOUS
10
84.1193
20
-185.091
11
84.0241
21
-184.996
0
LINE
8
BLACK
6
CONTINUOUS
10
84.0241
20
-184.996
11
83.9288
21
-184.805
0
LINE
8
BLACK
6
CONTINUOUS
10
83.9288
20
-184.805
11
83.8336
21
-184.424
0
LINE
8
BLACK
6
CONTINUOUS
10
83.8336
20
-184.424
11
83.8336
21
-183.948
0
LINE
8
BLACK
6
CONTINUOUS
10
83.8336
20
-183.948
11
83.9288
21
-183.567
0
LINE
8
BLACK
6
CONTINUOUS
10
83.9288
20
-183.567
11
84.0241
21
-183.377
0
LINE
8
BLACK
6
CONTINUOUS
10
84.0241
20
-183.377
11
84.1193
21
-183.282
0
LINE
8
BLACK
6
CONTINUOUS
10
84.1193
20
-183.282
11
84.3098
21
-183.186
0
LINE
8
BLACK
6
CONTINUOUS
10
86.6908
20
-183.186
11
86.3098
21
-183.186
0
LINE
8
BLACK
6
CONTINUOUS
10
86.3098
20
-183.186
11
86.1193
21
-183.282
0
LINE
8
BLACK
6
CONTINUOUS
10
86.1193
20
-183.282
11
86.0241
21
-183.377
0
LINE
8
BLACK
6
CONTINUOUS
10
86.0241
20
-183.377
11
85.8336
21
-183.663
0
LINE
8
BLACK
6
CONTINUOUS
10
85.8336
20
-183.663
11
85.7384
21
-184.043
0
LINE
8
BLACK
6
CONTINUOUS
10
85.7384
20
-184.043
11
85.7384
21
-184.805
0
LINE
8
BLACK
6
CONTINUOUS
10
85.7384
20
-184.805
11
85.8336
21
-184.996
0
LINE
8
BLACK
6
CONTINUOUS
10
85.8336
20
-184.996
11
85.9288
21
-185.091
0
LINE
8
BLACK
6
CONTINUOUS
10
85.9288
20
-185.091
11
86.1193
21
-185.186
0
LINE
8
BLACK
6
CONTINUOUS
10
86.1193
20
-185.186
11
86.5003
21
-185.186
0
LINE
8
BLACK
6
CONTINUOUS
10
86.5003
20
-185.186
11
86.6908
21
-185.091
0
LINE
8
BLACK
6
CONTINUOUS
10
86.6908
20
-185.091
11
86.786
21
-184.996
0
LINE
8
BLACK
6
CONTINUOUS
10
86.786
20
-184.996
11
86.8812
21
-184.805
0
LINE
8
BLACK
6
CONTINUOUS
10
86.8812
20
-184.805
11
86.8812
21
-184.329
0
LINE
8
BLACK
6
CONTINUOUS
10
86.8812
20
-184.329
11
86.786
21
-184.139
0
LINE
8
BLACK
6
CONTINUOUS
10
86.786
20
-184.139
11
86.6908
21
-184.043
0
LINE
8
BLACK
6
CONTINUOUS
10
86.6908
20
-184.043
11
86.5003
21
-183.948
0
LINE
8
BLACK
6
CONTINUOUS
10
86.5003
20
-183.948
11
86.1193
21
-183.948
0
LINE
8
BLACK
6
CONTINUOUS
10
86.1193
20
-183.948
11
85.9288
21
-184.043
0
LINE
8
BLACK
6
CONTINUOUS
10
85.9288
20
-184.043
11
85.8336
21
-184.139
0
LINE
8
BLACK
6
CONTINUOUS
10
85.8336
20
-184.139
11
85.7384
21
-184.329
0
LINE
8
BLACK
6
CONTINUOUS
10
88.0241
20
-184.043
11
87.8336
21
-183.948
0
LINE
8
BLACK
6
CONTINUOUS
10
87.8336
20
-183.948
11
87.7384
21
-183.853
0
LINE
8
BLACK
6
CONTINUOUS
10
87.7384
20
-183.853
11
87.6431
21
-183.663
0
LINE
8
BLACK
6
CONTINUOUS
10
87.6431
20
-183.663
11
87.6431
21
-183.567
0
LINE
8
BLACK
6
CONTINUOUS
10
87.6431
20
-183.567
11
87.7384
21
-183.377
0
LINE
8
BLACK
6
CONTINUOUS
10
87.7384
20
-183.377
11
87.8336
21
-183.282
0
LINE
8
BLACK
6
CONTINUOUS
10
87.8336
20
-183.282
11
88.0241
21
-183.186
0
LINE
8
BLACK
6
CONTINUOUS
10
88.0241
20
-183.186
11
88.405
21
-183.186
0
LINE
8
BLACK
6
CONTINUOUS
10
88.405
20
-183.186
11
88.5955
21
-183.282
0
LINE
8
BLACK
6
CONTINUOUS
10
88.5955
20
-183.282
11
88.6908
21
-183.377
0
LINE
8
BLACK
6
CONTINUOUS
10
88.6908
20
-183.377
11
88.786
21
-183.567
0
LINE
8
BLACK
6
CONTINUOUS
10
88.786
20
-183.567
11
88.786
21
-183.663
0
LINE
8
BLACK
6
CONTINUOUS
10
88.786
20
-183.663
11
88.6908
21
-183.853
0
LINE
8
BLACK
6
CONTINUOUS
10
88.6908
20
-183.853
11
88.5955
21
-183.948
0
LINE
8
BLACK
6
CONTINUOUS
10
88.5955
20
-183.948
11
88.405
21
-184.043
0
LINE
8
BLACK
6
CONTINUOUS
10
88.405
20
-184.043
11
88.0241
21
-184.043
0
LINE
8
BLACK
6
CONTINUOUS
10
88.0241
20
-184.043
11
87.8336
21
-184.139
0
LINE
8
BLACK
6
CONTINUOUS
10
87.8336
20
-184.139
11
87.7384
21
-184.234
0
LINE
8
BLACK
6
CONTINUOUS
10
87.7384
20
-184.234
11
87.6431
21
-184.424
0
LINE
8
BLACK
6
CONTINUOUS
10
87.6431
20
-184.424
11
87.6431
21
-184.805
0
LINE
8
BLACK
6
CONTINUOUS
10
87.6431
20
-184.805
11
87.7384
21
-184.996
0
LINE
8
BLACK
6
CONTINUOUS
10
87.7384
20
-184.996
11
87.8336
21
-185.091
0
LINE
8
BLACK
6
CONTINUOUS
10
87.8336
20
-185.091
11
88.0241
21
-185.186
0
LINE
8
BLACK
6
CONTINUOUS
10
88.0241
20
-185.186
11
88.405
21
-185.186
0
LINE
8
BLACK
6
CONTINUOUS
10
88.405
20
-185.186
11
88.5955
21
-185.091
0
LINE
8
BLACK
6
CONTINUOUS
10
88.5955
20
-185.091
11
88.6908
21
-184.996
0
LINE
8
BLACK
6
CONTINUOUS
10
88.6908
20
-184.996
11
88.786
21
-184.805
0
LINE
8
BLACK
6
CONTINUOUS
10
88.786
20
-184.805
11
88.786
21
-184.424
0
LINE
8
BLACK
6
CONTINUOUS
10
88.786
20
-184.424
11
88.6908
21
-184.234
0
LINE
8
BLACK
6
CONTINUOUS
10
88.6908
20
-184.234
11
88.5955
21
-184.139
0
LINE
8
BLACK
6
CONTINUOUS
10
88.5955
20
-184.139
11
88.405
21
-184.043
0
LINE
8
BLACK
6
CONTINUOUS
10
89.7384
20
-185.186
11
90.1193
21
-185.186
0
LINE
8
BLACK
6
CONTINUOUS
10
90.1193
20
-185.186
11
90.3098
21
-185.091
0
LINE
8
BLACK
6
CONTINUOUS
10
90.3098
20
-185.091
11
90.405
21
-184.996
0
LINE
8
BLACK
6
CONTINUOUS
10
90.405
20
-184.996
11
90.5955
21
-184.71
0
LINE
8
BLACK
6
CONTINUOUS
10
90.5955
20
-184.71
11
90.6908
21
-184.329
0
LINE
8
BLACK
6
CONTINUOUS
10
90.6908
20
-184.329
11
90.6908
21
-183.567
0
LINE
8
BLACK
6
CONTINUOUS
10
90.6908
20
-183.567
11
90.5955
21
-183.377
0
LINE
8
BLACK
6
CONTINUOUS
10
90.5955
20
-183.377
11
90.5003
21
-183.282
0
LINE
8
BLACK
6
CONTINUOUS
10
90.5003
20
-183.282
11
90.3098
21
-183.186
0
LINE
8
BLACK
6
CONTINUOUS
10
90.3098
20
-183.186
11
89.9288
21
-183.186
0
LINE
8
BLACK
6
CONTINUOUS
10
89.9288
20
-183.186
11
89.7384
21
-183.282
0
LINE
8
BLACK
6
CONTINUOUS
10
89.7384
20
-183.282
11
89.6431
21
-183.377
0
LINE
8
BLACK
6
CONTINUOUS
10
89.6431
20
-183.377
11
89.5479
21
-183.567
0
LINE
8
BLACK
6
CONTINUOUS
10
89.5479
20
-183.567
11
89.5479
21
-184.043
0
LINE
8
BLACK
6
CONTINUOUS
10
89.5479
20
-184.043
11
89.6431
21
-184.234
0
LINE
8
BLACK
6
CONTINUOUS
10
89.6431
20
-184.234
11
89.7384
21
-184.329
0
LINE
8
BLACK
6
CONTINUOUS
10
89.7384
20
-184.329
11
89.9288
21
-184.424
0
LINE
8
BLACK
6
CONTINUOUS
10
89.9288
20
-184.424
11
90.3098
21
-184.424
0
LINE
8
BLACK
6
CONTINUOUS
10
90.3098
20
-184.424
11
90.5003
21
-184.329
0
LINE
8
BLACK
6
CONTINUOUS
10
90.5003
20
-184.329
11
90.5955
21
-184.234
0
LINE
8
BLACK
6
CONTINUOUS
10
90.5955
20
-184.234
11
90.6908
21
-184.043
0
LINE
8
BLACK
6
CONTINUOUS
10
91.4527
20
-183.186
11
91.4527
21
-183.567
0
LINE
8
BLACK
6
CONTINUOUS
10
92.2146
20
-183.186
11
92.2146
21
-183.567
0
LINE
8
BLACK
6
CONTINUOUS
10
95.1669
20
-185.948
11
95.0717
21
-185.853
0
LINE
8
BLACK
6
CONTINUOUS
10
95.0717
20
-185.853
11
94.8812
21
-185.567
0
LINE
8
BLACK
6
CONTINUOUS
10
94.8812
20
-185.567
11
94.786
21
-185.377
0
LINE
8
BLACK
6
CONTINUOUS
10
94.786
20
-185.377
11
94.6908
21
-185.091
0
LINE
8
BLACK
6
CONTINUOUS
10
94.6908
20
-185.091
11
94.5955
21
-184.615
0
LINE
8
BLACK
6
CONTINUOUS
10
94.5955
20
-184.615
11
94.5955
21
-184.234
0
LINE
8
BLACK
6
CONTINUOUS
10
94.5955
20
-184.234
11
94.6908
21
-183.758
0
LINE
8
BLACK
6
CONTINUOUS
10
94.6908
20
-183.758
11
94.786
21
-183.472
0
LINE
8
BLACK
6
CONTINUOUS
10
94.786
20
-183.472
11
94.8812
21
-183.282
0
LINE
8
BLACK
6
CONTINUOUS
10
94.8812
20
-183.282
11
95.0717
21
-182.996
0
LINE
8
BLACK
6
CONTINUOUS
10
95.0717
20
-182.996
11
95.1669
21
-182.901
0
LINE
8
BLACK
6
CONTINUOUS
10
96.9765
20
-185.186
11
95.8336
21
-185.186
0
LINE
8
BLACK
6
CONTINUOUS
10
96.405
20
-185.186
11
96.405
21
-183.186
0
LINE
8
BLACK
6
CONTINUOUS
10
96.405
20
-183.186
11
96.2146
21
-183.472
0
LINE
8
BLACK
6
CONTINUOUS
10
96.2146
20
-183.472
11
96.0241
21
-183.663
0
LINE
8
BLACK
6
CONTINUOUS
10
96.0241
20
-183.663
11
95.8336
21
-183.758
0
LINE
8
BLACK
6
CONTINUOUS
10
98.6908
20
-183.186
11
98.3098
21
-183.186
0
LINE
8
BLACK
6
CONTINUOUS
10
98.3098
20
-183.186
11
98.1193
21
-183.282
0
LINE
8
BLACK
6
CONTINUOUS
10
98.1193
20
-183.282
11
98.0241
21
-183.377
0
LINE
8
BLACK
6
CONTINUOUS
10
98.0241
20
-183.377
11
97.8336
21
-183.663
0
LINE
8
BLACK
6
CONTINUOUS
10
97.8336
20
-183.663
11
97.7384
21
-184.043
0
LINE
8
BLACK
6
CONTINUOUS
10
97.7384
20
-184.043
11
97.7384
21
-184.805
0
LINE
8
BLACK
6
CONTINUOUS
10
97.7384
20
-184.805
11
97.8336
21
-184.996
0
LINE
8
BLACK
6
CONTINUOUS
10
97.8336
20
-184.996
11
97.9288
21
-185.091
0
LINE
8
BLACK
6
CONTINUOUS
10
97.9288
20
-185.091
11
98.1193
21
-185.186
0
LINE
8
BLACK
6
CONTINUOUS
10
98.1193
20
-185.186
11
98.5003
21
-185.186
0
LINE
8
BLACK
6
CONTINUOUS
10
98.5003
20
-185.186
11
98.6908
21
-185.091
0
LINE
8
BLACK
6
CONTINUOUS
10
98.6908
20
-185.091
11
98.786
21
-184.996
0
LINE
8
BLACK
6
CONTINUOUS
10
98.786
20
-184.996
11
98.8812
21
-184.805
0
LINE
8
BLACK
6
CONTINUOUS
10
98.8812
20
-184.805
11
98.8812
21
-184.329
0
LINE
8
BLACK
6
CONTINUOUS
10
98.8812
20
-184.329
11
98.786
21
-184.139
0
LINE
8
BLACK
6
CONTINUOUS
10
98.786
20
-184.139
11
98.6908
21
-184.043
0
LINE
8
BLACK
6
CONTINUOUS
10
98.6908
20
-184.043
11
98.5003
21
-183.948
0
LINE
8
BLACK
6
CONTINUOUS
10
98.5003
20
-183.948
11
98.1193
21
-183.948
0
LINE
8
BLACK
6
CONTINUOUS
10
98.1193
20
-183.948
11
97.9288
21
-184.043
0
LINE
8
BLACK
6
CONTINUOUS
10
97.9288
20
-184.043
11
97.8336
21
-184.139
0
LINE
8
BLACK
6
CONTINUOUS
10
97.8336
20
-184.139
11
97.7384
21
-184.329
0
LINE
8
BLACK
6
CONTINUOUS
10
100.024
20
-184.043
11
99.8336
21
-183.948
0
LINE
8
BLACK
6
CONTINUOUS
10
99.8336
20
-183.948
11
99.7384
21
-183.853
0
LINE
8
BLACK
6
CONTINUOUS
10
99.7384
20
-183.853
11
99.6431
21
-183.663
0
LINE
8
BLACK
6
CONTINUOUS
10
99.6431
20
-183.663
11
99.6431
21
-183.567
0
LINE
8
BLACK
6
CONTINUOUS
10
99.6431
20
-183.567
11
99.7384
21
-183.377
0
LINE
8
BLACK
6
CONTINUOUS
10
99.7384
20
-183.377
11
99.8336
21
-183.282
0
LINE
8
BLACK
6
CONTINUOUS
10
99.8336
20
-183.282
11
100.024
21
-183.186
0
LINE
8
BLACK
6
CONTINUOUS
10
100.024
20
-183.186
11
100.405
21
-183.186
0
LINE
8
BLACK
6
CONTINUOUS
10
100.405
20
-183.186
11
100.596
21
-183.282
0
LINE
8
BLACK
6
CONTINUOUS
10
100.596
20
-183.282
11
100.691
21
-183.377
0
LINE
8
BLACK
6
CONTINUOUS
10
100.691
20
-183.377
11
100.786
21
-183.567
0
LINE
8
BLACK
6
CONTINUOUS
10
100.786
20
-183.567
11
100.786
21
-183.663
0
LINE
8
BLACK
6
CONTINUOUS
10
100.786
20
-183.663
11
100.691
21
-183.853
0
LINE
8
BLACK
6
CONTINUOUS
10
100.691
20
-183.853
11
100.596
21
-183.948
0
LINE
8
BLACK
6
CONTINUOUS
10
100.596
20
-183.948
11
100.405
21
-184.043
0
LINE
8
BLACK
6
CONTINUOUS
10
100.405
20
-184.043
11
100.024
21
-184.043
0
LINE
8
BLACK
6
CONTINUOUS
10
100.024
20
-184.043
11
99.8336
21
-184.139
0
LINE
8
BLACK
6
CONTINUOUS
10
99.8336
20
-184.139
11
99.7384
21
-184.234
0
LINE
8
BLACK
6
CONTINUOUS
10
99.7384
20
-184.234
11
99.6431
21
-184.424
0
LINE
8
BLACK
6
CONTINUOUS
10
99.6431
20
-184.424
11
99.6431
21
-184.805
0
LINE
8
BLACK
6
CONTINUOUS
10
99.6431
20
-184.805
11
99.7384
21
-184.996
0
LINE
8
BLACK
6
CONTINUOUS
10
99.7384
20
-184.996
11
99.8336
21
-185.091
0
LINE
8
BLACK
6
CONTINUOUS
10
99.8336
20
-185.091
11
100.024
21
-185.186
0
LINE
8
BLACK
6
CONTINUOUS
10
100.024
20
-185.186
11
100.405
21
-185.186
0
LINE
8
BLACK
6
CONTINUOUS
10
100.405
20
-185.186
11
100.596
21
-185.091
0
LINE
8
BLACK
6
CONTINUOUS
10
100.596
20
-185.091
11
100.691
21
-184.996
0
LINE
8
BLACK
6
CONTINUOUS
10
100.691
20
-184.996
11
100.786
21
-184.805
0
LINE
8
BLACK
6
CONTINUOUS
10
100.786
20
-184.805
11
100.786
21
-184.424
0
LINE
8
BLACK
6
CONTINUOUS
10
100.786
20
-184.424
11
100.691
21
-184.234
0
LINE
8
BLACK
6
CONTINUOUS
10
100.691
20
-184.234
11
100.596
21
-184.139
0
LINE
8
BLACK
6
CONTINUOUS
10
100.596
20
-184.139
11
100.405
21
-184.043
0
LINE
8
BLACK
6
CONTINUOUS
10
103.167
20
-185.186
11
103.167
21
-183.186
0
LINE
8
BLACK
6
CONTINUOUS
10
104.024
20
-185.186
11
104.024
21
-184.139
0
LINE
8
BLACK
6
CONTINUOUS
10
104.024
20
-184.139
11
103.929
21
-183.948
0
LINE
8
BLACK
6
CONTINUOUS
10
103.929
20
-183.948
11
103.738
21
-183.853
0
LINE
8
BLACK
6
CONTINUOUS
10
103.738
20
-183.853
11
103.453
21
-183.853
0
LINE
8
BLACK
6
CONTINUOUS
10
103.453
20
-183.853
11
103.262
21
-183.948
0
LINE
8
BLACK
6
CONTINUOUS
10
103.262
20
-183.948
11
103.167
21
-184.043
0
LINE
8
BLACK
6
CONTINUOUS
10
105.262
20
-185.186
11
105.072
21
-185.091
0
LINE
8
BLACK
6
CONTINUOUS
10
105.072
20
-185.091
11
104.976
21
-184.996
0
LINE
8
BLACK
6
CONTINUOUS
10
104.976
20
-184.996
11
104.881
21
-184.805
0
LINE
8
BLACK
6
CONTINUOUS
10
104.881
20
-184.805
11
104.881
21
-184.234
0
LINE
8
BLACK
6
CONTINUOUS
10
104.881
20
-184.234
11
104.976
21
-184.043
0
LINE
8
BLACK
6
CONTINUOUS
10
104.976
20
-184.043
11
105.072
21
-183.948
0
LINE
8
BLACK
6
CONTINUOUS
10
105.072
20
-183.948
11
105.262
21
-183.853
0
LINE
8
BLACK
6
CONTINUOUS
10
105.262
20
-183.853
11
105.548
21
-183.853
0
LINE
8
BLACK
6
CONTINUOUS
10
105.548
20
-183.853
11
105.738
21
-183.948
0
LINE
8
BLACK
6
CONTINUOUS
10
105.738
20
-183.948
11
105.834
21
-184.043
0
LINE
8
BLACK
6
CONTINUOUS
10
105.834
20
-184.043
11
105.929
21
-184.234
0
LINE
8
BLACK
6
CONTINUOUS
10
105.929
20
-184.234
11
105.929
21
-184.805
0
LINE
8
BLACK
6
CONTINUOUS
10
105.929
20
-184.805
11
105.834
21
-184.996
0
LINE
8
BLACK
6
CONTINUOUS
10
105.834
20
-184.996
11
105.738
21
-185.091
0
LINE
8
BLACK
6
CONTINUOUS
10
105.738
20
-185.091
11
105.548
21
-185.186
0
LINE
8
BLACK
6
CONTINUOUS
10
105.548
20
-185.186
11
105.262
21
-185.186
0
LINE
8
BLACK
6
CONTINUOUS
10
107.072
20
-185.186
11
106.881
21
-185.091
0
LINE
8
BLACK
6
CONTINUOUS
10
106.881
20
-185.091
11
106.786
21
-184.901
0
LINE
8
BLACK
6
CONTINUOUS
10
106.786
20
-184.901
11
106.786
21
-183.186
0
LINE
8
BLACK
6
CONTINUOUS
10
108.596
20
-185.091
11
108.405
21
-185.186
0
LINE
8
BLACK
6
CONTINUOUS
10
108.405
20
-185.186
11
108.024
21
-185.186
0
LINE
8
BLACK
6
CONTINUOUS
10
108.024
20
-185.186
11
107.834
21
-185.091
0
LINE
8
BLACK
6
CONTINUOUS
10
107.834
20
-185.091
11
107.738
21
-184.901
0
LINE
8
BLACK
6
CONTINUOUS
10
107.738
20
-184.901
11
107.738
21
-184.139
0
LINE
8
BLACK
6
CONTINUOUS
10
107.738
20
-184.139
11
107.834
21
-183.948
0
LINE
8
BLACK
6
CONTINUOUS
10
107.834
20
-183.948
11
108.024
21
-183.853
0
LINE
8
BLACK
6
CONTINUOUS
10
108.024
20
-183.853
11
108.405
21
-183.853
0
LINE
8
BLACK
6
CONTINUOUS
10
108.405
20
-183.853
11
108.596
21
-183.948
0
LINE
8
BLACK
6
CONTINUOUS
10
108.596
20
-183.948
11
108.691
21
-184.139
0
LINE
8
BLACK
6
CONTINUOUS
10
108.691
20
-184.139
11
108.691
21
-184.329
0
LINE
8
BLACK
6
CONTINUOUS
10
108.691
20
-184.329
11
107.738
21
-184.52
0
LINE
8
BLACK
6
CONTINUOUS
10
109.453
20
-185.091
11
109.643
21
-185.186
0
LINE
8
BLACK
6
CONTINUOUS
10
109.643
20
-185.186
11
110.024
21
-185.186
0
LINE
8
BLACK
6
CONTINUOUS
10
110.024
20
-185.186
11
110.215
21
-185.091
0
LINE
8
BLACK
6
CONTINUOUS
10
110.215
20
-185.091
11
110.31
21
-184.901
0
LINE
8
BLACK
6
CONTINUOUS
10
110.31
20
-184.901
11
110.31
21
-184.805
0
LINE
8
BLACK
6
CONTINUOUS
10
110.31
20
-184.805
11
110.215
21
-184.615
0
LINE
8
BLACK
6
CONTINUOUS
10
110.215
20
-184.615
11
110.024
21
-184.52
0
LINE
8
BLACK
6
CONTINUOUS
10
110.024
20
-184.52
11
109.738
21
-184.52
0
LINE
8
BLACK
6
CONTINUOUS
10
109.738
20
-184.52
11
109.548
21
-184.424
0
LINE
8
BLACK
6
CONTINUOUS
10
109.548
20
-184.424
11
109.453
21
-184.234
0
LINE
8
BLACK
6
CONTINUOUS
10
109.453
20
-184.234
11
109.453
21
-184.139
0
LINE
8
BLACK
6
CONTINUOUS
10
109.453
20
-184.139
11
109.548
21
-183.948
0
LINE
8
BLACK
6
CONTINUOUS
10
109.548
20
-183.948
11
109.738
21
-183.853
0
LINE
8
BLACK
6
CONTINUOUS
10
109.738
20
-183.853
11
110.024
21
-183.853
0
LINE
8
BLACK
6
CONTINUOUS
10
110.024
20
-183.853
11
110.215
21
-183.948
0
LINE
8
BLACK
6
CONTINUOUS
10
110.976
20
-185.948
11
111.072
21
-185.853
0
LINE
8
BLACK
6
CONTINUOUS
10
111.072
20
-185.853
11
111.262
21
-185.567
0
LINE
8
BLACK
6
CONTINUOUS
10
111.262
20
-185.567
11
111.357
21
-185.377
0
LINE
8
BLACK
6
CONTINUOUS
10
111.357
20
-185.377
11
111.453
21
-185.091
0
LINE
8
BLACK
6
CONTINUOUS
10
111.453
20
-185.091
11
111.548
21
-184.615
0
LINE
8
BLACK
6
CONTINUOUS
10
111.548
20
-184.615
11
111.548
21
-184.234
0
LINE
8
BLACK
6
CONTINUOUS
10
111.548
20
-184.234
11
111.453
21
-183.758
0
LINE
8
BLACK
6
CONTINUOUS
10
111.453
20
-183.758
11
111.357
21
-183.472
0
LINE
8
BLACK
6
CONTINUOUS
10
111.357
20
-183.472
11
111.262
21
-183.282
0
LINE
8
BLACK
6
CONTINUOUS
10
111.262
20
-183.282
11
111.072
21
-182.996
0
LINE
8
BLACK
6
CONTINUOUS
10
111.072
20
-182.996
11
110.976
21
-182.901
0
LINE
8
BLACK
6
CONTINUOUS
10
114.596
20
-185.948
11
114.5
21
-185.853
0
LINE
8
BLACK
6
CONTINUOUS
10
114.5
20
-185.853
11
114.31
21
-185.567
0
LINE
8
BLACK
6
CONTINUOUS
10
114.31
20
-185.567
11
114.215
21
-185.377
0
LINE
8
BLACK
6
CONTINUOUS
10
114.215
20
-185.377
11
114.119
21
-185.091
0
LINE
8
BLACK
6
CONTINUOUS
10
114.119
20
-185.091
11
114.024
21
-184.615
0
LINE
8
BLACK
6
CONTINUOUS
10
114.024
20
-184.615
11
114.024
21
-184.234
0
LINE
8
BLACK
6
CONTINUOUS
10
114.024
20
-184.234
11
114.119
21
-183.758
0
LINE
8
BLACK
6
CONTINUOUS
10
114.119
20
-183.758
11
114.215
21
-183.472
0
LINE
8
BLACK
6
CONTINUOUS
10
114.215
20
-183.472
11
114.31
21
-183.282
0
LINE
8
BLACK
6
CONTINUOUS
10
114.31
20
-183.282
11
114.5
21
-182.996
0
LINE
8
BLACK
6
CONTINUOUS
10
114.5
20
-182.996
11
114.596
21
-182.901
0
LINE
8
BLACK
6
CONTINUOUS
10
115.357
20
-183.853
11
115.357
21
-185.186
0
LINE
8
BLACK
6
CONTINUOUS
10
115.357
20
-184.043
11
115.453
21
-183.948
0
LINE
8
BLACK
6
CONTINUOUS
10
115.453
20
-183.948
11
115.643
21
-183.853
0
LINE
8
BLACK
6
CONTINUOUS
10
115.643
20
-183.853
11
115.929
21
-183.853
0
LINE
8
BLACK
6
CONTINUOUS
10
115.929
20
-183.853
11
116.119
21
-183.948
0
LINE
8
BLACK
6
CONTINUOUS
10
116.119
20
-183.948
11
116.215
21
-184.139
0
LINE
8
BLACK
6
CONTINUOUS
10
116.215
20
-184.139
11
116.215
21
-185.186
0
LINE
8
BLACK
6
CONTINUOUS
10
117.453
20
-185.186
11
117.262
21
-185.091
0
LINE
8
BLACK
6
CONTINUOUS
10
117.262
20
-185.091
11
117.167
21
-184.996
0
LINE
8
BLACK
6
CONTINUOUS
10
117.167
20
-184.996
11
117.072
21
-184.805
0
LINE
8
BLACK
6
CONTINUOUS
10
117.072
20
-184.805
11
117.072
21
-184.234
0
LINE
8
BLACK
6
CONTINUOUS
10
117.072
20
-184.234
11
117.167
21
-184.043
0
LINE
8
BLACK
6
CONTINUOUS
10
117.167
20
-184.043
11
117.262
21
-183.948
0
LINE
8
BLACK
6
CONTINUOUS
10
117.262
20
-183.948
11
117.453
21
-183.853
0
LINE
8
BLACK
6
CONTINUOUS
10
117.453
20
-183.853
11
117.738
21
-183.853
0
LINE
8
BLACK
6
CONTINUOUS
10
117.738
20
-183.853
11
117.929
21
-183.948
0
LINE
8
BLACK
6
CONTINUOUS
10
117.929
20
-183.948
11
118.024
21
-184.043
0
LINE
8
BLACK
6
CONTINUOUS
10
118.024
20
-184.043
11
118.119
21
-184.234
0
LINE
8
BLACK
6
CONTINUOUS
10
118.119
20
-184.234
11
118.119
21
-184.805
0
LINE
8
BLACK
6
CONTINUOUS
10
118.119
20
-184.805
11
118.024
21
-184.996
0
LINE
8
BLACK
6
CONTINUOUS
10
118.024
20
-184.996
11
117.929
21
-185.091
0
LINE
8
BLACK
6
CONTINUOUS
10
117.929
20
-185.091
11
117.738
21
-185.186
0
LINE
8
BLACK
6
CONTINUOUS
10
117.738
20
-185.186
11
117.453
21
-185.186
0
LINE
8
BLACK
6
CONTINUOUS
10
118.691
20
-183.853
11
119.453
21
-183.853
0
LINE
8
BLACK
6
CONTINUOUS
10
118.976
20
-183.186
11
118.976
21
-184.901
0
LINE
8
BLACK
6
CONTINUOUS
10
118.976
20
-184.901
11
119.072
21
-185.091
0
LINE
8
BLACK
6
CONTINUOUS
10
119.072
20
-185.091
11
119.262
21
-185.186
0
LINE
8
BLACK
6
CONTINUOUS
10
119.262
20
-185.186
11
119.453
21
-185.186
0
LINE
8
BLACK
6
CONTINUOUS
10
121.643
20
-183.853
11
121.643
21
-185.853
0
LINE
8
BLACK
6
CONTINUOUS
10
121.643
20
-183.948
11
121.834
21
-183.853
0
LINE
8
BLACK
6
CONTINUOUS
10
121.834
20
-183.853
11
122.215
21
-183.853
0
LINE
8
BLACK
6
CONTINUOUS
10
122.215
20
-183.853
11
122.405
21
-183.948
0
LINE
8
BLACK
6
CONTINUOUS
10
122.405
20
-183.948
11
122.5
21
-184.043
0
LINE
8
BLACK
6
CONTINUOUS
10
122.5
20
-184.043
11
122.596
21
-184.234
0
LINE
8
BLACK
6
CONTINUOUS
10
122.596
20
-184.234
11
122.596
21
-184.805
0
LINE
8
BLACK
6
CONTINUOUS
10
122.596
20
-184.805
11
122.5
21
-184.996
0
LINE
8
BLACK
6
CONTINUOUS
10
122.5
20
-184.996
11
122.405
21
-185.091
0
LINE
8
BLACK
6
CONTINUOUS
10
122.405
20
-185.091
11
122.215
21
-185.186
0
LINE
8
BLACK
6
CONTINUOUS
10
122.215
20
-185.186
11
121.834
21
-185.186
0
LINE
8
BLACK
6
CONTINUOUS
10
121.834
20
-185.186
11
121.643
21
-185.091
0
LINE
8
BLACK
6
CONTINUOUS
10
123.738
20
-185.186
11
123.548
21
-185.091
0
LINE
8
BLACK
6
CONTINUOUS
10
123.548
20
-185.091
11
123.453
21
-184.901
0
LINE
8
BLACK
6
CONTINUOUS
10
123.453
20
-184.901
11
123.453
21
-183.186
0
LINE
8
BLACK
6
CONTINUOUS
10
125.357
20
-185.186
11
125.357
21
-184.139
0
LINE
8
BLACK
6
CONTINUOUS
10
125.357
20
-184.139
11
125.262
21
-183.948
0
LINE
8
BLACK
6
CONTINUOUS
10
125.262
20
-183.948
11
125.072
21
-183.853
0
LINE
8
BLACK
6
CONTINUOUS
10
125.072
20
-183.853
11
124.691
21
-183.853
0
LINE
8
BLACK
6
CONTINUOUS
10
124.691
20
-183.853
11
124.5
21
-183.948
0
LINE
8
BLACK
6
CONTINUOUS
10
125.357
20
-185.091
11
125.167
21
-185.186
0
LINE
8
BLACK
6
CONTINUOUS
10
125.167
20
-185.186
11
124.691
21
-185.186
0
LINE
8
BLACK
6
CONTINUOUS
10
124.691
20
-185.186
11
124.5
21
-185.091
0
LINE
8
BLACK
6
CONTINUOUS
10
124.5
20
-185.091
11
124.405
21
-184.901
0
LINE
8
BLACK
6
CONTINUOUS
10
124.405
20
-184.901
11
124.405
21
-184.71
0
LINE
8
BLACK
6
CONTINUOUS
10
124.405
20
-184.71
11
124.5
21
-184.52
0
LINE
8
BLACK
6
CONTINUOUS
10
124.5
20
-184.52
11
124.691
21
-184.424
0
LINE
8
BLACK
6
CONTINUOUS
10
124.691
20
-184.424
11
125.167
21
-184.424
0
LINE
8
BLACK
6
CONTINUOUS
10
125.167
20
-184.424
11
125.357
21
-184.329
0
LINE
8
BLACK
6
CONTINUOUS
10
126.024
20
-183.853
11
126.786
21
-183.853
0
LINE
8
BLACK
6
CONTINUOUS
10
126.31
20
-183.186
11
126.31
21
-184.901
0
LINE
8
BLACK
6
CONTINUOUS
10
126.31
20
-184.901
11
126.405
21
-185.091
0
LINE
8
BLACK
6
CONTINUOUS
10
126.405
20
-185.091
11
126.596
21
-185.186
0
LINE
8
BLACK
6
CONTINUOUS
10
126.596
20
-185.186
11
126.786
21
-185.186
0
LINE
8
BLACK
6
CONTINUOUS
10
128.215
20
-185.091
11
128.024
21
-185.186
0
LINE
8
BLACK
6
CONTINUOUS
10
128.024
20
-185.186
11
127.643
21
-185.186
0
LINE
8
BLACK
6
CONTINUOUS
10
127.643
20
-185.186
11
127.453
21
-185.091
0
LINE
8
BLACK
6
CONTINUOUS
10
127.453
20
-185.091
11
127.357
21
-184.901
0
LINE
8
BLACK
6
CONTINUOUS
10
127.357
20
-184.901
11
127.357
21
-184.139
0
LINE
8
BLACK
6
CONTINUOUS
10
127.357
20
-184.139
11
127.453
21
-183.948
0
LINE
8
BLACK
6
CONTINUOUS
10
127.453
20
-183.948
11
127.643
21
-183.853
0
LINE
8
BLACK
6
CONTINUOUS
10
127.643
20
-183.853
11
128.024
21
-183.853
0
LINE
8
BLACK
6
CONTINUOUS
10
128.024
20
-183.853
11
128.215
21
-183.948
0
LINE
8
BLACK
6
CONTINUOUS
10
128.215
20
-183.948
11
128.31
21
-184.139
0
LINE
8
BLACK
6
CONTINUOUS
10
128.31
20
-184.139
11
128.31
21
-184.329
0
LINE
8
BLACK
6
CONTINUOUS
10
128.31
20
-184.329
11
127.357
21
-184.52
0
LINE
8
BLACK
6
CONTINUOUS
10
130.024
20
-185.186
11
130.024
21
-183.186
0
LINE
8
BLACK
6
CONTINUOUS
10
130.024
20
-185.091
11
129.834
21
-185.186
0
LINE
8
BLACK
6
CONTINUOUS
10
129.834
20
-185.186
11
129.453
21
-185.186
0
LINE
8
BLACK
6
CONTINUOUS
10
129.453
20
-185.186
11
129.262
21
-185.091
0
LINE
8
BLACK
6
CONTINUOUS
10
129.262
20
-185.091
11
129.167
21
-184.996
0
LINE
8
BLACK
6
CONTINUOUS
10
129.167
20
-184.996
11
129.072
21
-184.805
0
LINE
8
BLACK
6
CONTINUOUS
10
129.072
20
-184.805
11
129.072
21
-184.234
0
LINE
8
BLACK
6
CONTINUOUS
10
129.072
20
-184.234
11
129.167
21
-184.043
0
LINE
8
BLACK
6
CONTINUOUS
10
129.167
20
-184.043
11
129.262
21
-183.948
0
LINE
8
BLACK
6
CONTINUOUS
10
129.262
20
-183.948
11
129.453
21
-183.853
0
LINE
8
BLACK
6
CONTINUOUS
10
129.453
20
-183.853
11
129.834
21
-183.853
0
LINE
8
BLACK
6
CONTINUOUS
10
129.834
20
-183.853
11
130.024
21
-183.948
0
LINE
8
BLACK
6
CONTINUOUS
10
130.786
20
-185.948
11
130.881
21
-185.853
0
LINE
8
BLACK
6
CONTINUOUS
10
130.881
20
-185.853
11
131.072
21
-185.567
0
LINE
8
BLACK
6
CONTINUOUS
10
131.072
20
-185.567
11
131.167
21
-185.377
0
LINE
8
BLACK
6
CONTINUOUS
10
131.167
20
-185.377
11
131.262
21
-185.091
0
LINE
8
BLACK
6
CONTINUOUS
10
131.262
20
-185.091
11
131.357
21
-184.615
0
LINE
8
BLACK
6
CONTINUOUS
10
131.357
20
-184.615
11
131.357
21
-184.234
0
LINE
8
BLACK
6
CONTINUOUS
10
131.357
20
-184.234
11
131.262
21
-183.758
0
LINE
8
BLACK
6
CONTINUOUS
10
131.262
20
-183.758
11
131.167
21
-183.472
0
LINE
8
BLACK
6
CONTINUOUS
10
131.167
20
-183.472
11
131.072
21
-183.282
0
LINE
8
BLACK
6
CONTINUOUS
10
131.072
20
-183.282
11
130.881
21
-182.996
0
LINE
8
BLACK
6
CONTINUOUS
10
130.881
20
-182.996
11
130.786
21
-182.901
0
CIRCLE
8
BLACK
10
58.5479
20
-187.211
40
1
0
LINE
8
BLACK
6
CONTINUOUS
10
61.8336
20
-186.136
11
63.0717
21
-186.136
0
LINE
8
BLACK
6
CONTINUOUS
10
63.0717
20
-186.136
11
62.405
21
-186.898
0
LINE
8
BLACK
6
CONTINUOUS
10
62.405
20
-186.898
11
62.6908
21
-186.898
0
LINE
8
BLACK
6
CONTINUOUS
10
62.6908
20
-186.898
11
62.8812
21
-186.993
0
LINE
8
BLACK
6
CONTINUOUS
10
62.8812
20
-186.993
11
62.9765
21
-187.089
0
LINE
8
BLACK
6
CONTINUOUS
10
62.9765
20
-187.089
11
63.0717
21
-187.279
0
LINE
8
BLACK
6
CONTINUOUS
10
63.0717
20
-187.279
11
63.0717
21
-187.755
0
LINE
8
BLACK
6
CONTINUOUS
10
63.0717
20
-187.755
11
62.9765
21
-187.946
0
LINE
8
BLACK
6
CONTINUOUS
10
62.9765
20
-187.946
11
62.8812
21
-188.041
0
LINE
8
BLACK
6
CONTINUOUS
10
62.8812
20
-188.041
11
62.6908
21
-188.136
0
LINE
8
BLACK
6
CONTINUOUS
10
62.6908
20
-188.136
11
62.1193
21
-188.136
0
LINE
8
BLACK
6
CONTINUOUS
10
62.1193
20
-188.136
11
61.9288
21
-188.041
0
LINE
8
BLACK
6
CONTINUOUS
10
61.9288
20
-188.041
11
61.8336
21
-187.946
0
LINE
8
BLACK
6
CONTINUOUS
10
63.9288
20
-187.946
11
64.0241
21
-188.041
0
LINE
8
BLACK
6
CONTINUOUS
10
64.0241
20
-188.041
11
63.9288
21
-188.136
0
LINE
8
BLACK
6
CONTINUOUS
10
63.9288
20
-188.136
11
63.8336
21
-188.041
0
LINE
8
BLACK
6
CONTINUOUS
10
63.8336
20
-188.041
11
63.9288
21
-187.946
0
LINE
8
BLACK
6
CONTINUOUS
10
63.9288
20
-187.946
11
63.9288
21
-188.136
0
LINE
8
BLACK
6
CONTINUOUS
10
64.9765
20
-188.136
11
65.3574
21
-188.136
0
LINE
8
BLACK
6
CONTINUOUS
10
65.3574
20
-188.136
11
65.5479
21
-188.041
0
LINE
8
BLACK
6
CONTINUOUS
10
65.5479
20
-188.041
11
65.6431
21
-187.946
0
LINE
8
BLACK
6
CONTINUOUS
10
65.6431
20
-187.946
11
65.8336
21
-187.66
0
LINE
8
BLACK
6
CONTINUOUS
10
65.8336
20
-187.66
11
65.9288
21
-187.279
0
LINE
8
BLACK
6
CONTINUOUS
10
65.9288
20
-187.279
11
65.9288
21
-186.517
0
LINE
8
BLACK
6
CONTINUOUS
10
65.9288
20
-186.517
11
65.8336
21
-186.327
0
LINE
8
BLACK
6
CONTINUOUS
10
65.8336
20
-186.327
11
65.7384
21
-186.232
0
LINE
8
BLACK
6
CONTINUOUS
10
65.7384
20
-186.232
11
65.5479
21
-186.136
0
LINE
8
BLACK
6
CONTINUOUS
10
65.5479
20
-186.136
11
65.1669
21
-186.136
0
LINE
8
BLACK
6
CONTINUOUS
10
65.1669
20
-186.136
11
64.9765
21
-186.232
0
LINE
8
BLACK
6
CONTINUOUS
10
64.9765
20
-186.232
11
64.8812
21
-186.327
0
LINE
8
BLACK
6
CONTINUOUS
10
64.8812
20
-186.327
11
64.786
21
-186.517
0
LINE
8
BLACK
6
CONTINUOUS
10
64.786
20
-186.517
11
64.786
21
-186.993
0
LINE
8
BLACK
6
CONTINUOUS
10
64.786
20
-186.993
11
64.8812
21
-187.184
0
LINE
8
BLACK
6
CONTINUOUS
10
64.8812
20
-187.184
11
64.9765
21
-187.279
0
LINE
8
BLACK
6
CONTINUOUS
10
64.9765
20
-187.279
11
65.1669
21
-187.374
0
LINE
8
BLACK
6
CONTINUOUS
10
65.1669
20
-187.374
11
65.5479
21
-187.374
0
LINE
8
BLACK
6
CONTINUOUS
10
65.5479
20
-187.374
11
65.7384
21
-187.279
0
LINE
8
BLACK
6
CONTINUOUS
10
65.7384
20
-187.279
11
65.8336
21
-187.184
0
LINE
8
BLACK
6
CONTINUOUS
10
65.8336
20
-187.184
11
65.9288
21
-186.993
0
LINE
8
BLACK
6
CONTINUOUS
10
67.0717
20
-186.993
11
66.8812
21
-186.898
0
LINE
8
BLACK
6
CONTINUOUS
10
66.8812
20
-186.898
11
66.786
21
-186.803
0
LINE
8
BLACK
6
CONTINUOUS
10
66.786
20
-186.803
11
66.6908
21
-186.613
0
LINE
8
BLACK
6
CONTINUOUS
10
66.6908
20
-186.613
11
66.6908
21
-186.517
0
LINE
8
BLACK
6
CONTINUOUS
10
66.6908
20
-186.517
11
66.786
21
-186.327
0
LINE
8
BLACK
6
CONTINUOUS
10
66.786
20
-186.327
11
66.8812
21
-186.232
0
LINE
8
BLACK
6
CONTINUOUS
10
66.8812
20
-186.232
11
67.0717
21
-186.136
0
LINE
8
BLACK
6
CONTINUOUS
10
67.0717
20
-186.136
11
67.4527
21
-186.136
0
LINE
8
BLACK
6
CONTINUOUS
10
67.4527
20
-186.136
11
67.6431
21
-186.232
0
LINE
8
BLACK
6
CONTINUOUS
10
67.6431
20
-186.232
11
67.7384
21
-186.327
0
LINE
8
BLACK
6
CONTINUOUS
10
67.7384
20
-186.327
11
67.8336
21
-186.517
0
LINE
8
BLACK
6
CONTINUOUS
10
67.8336
20
-186.517
11
67.8336
21
-186.613
0
LINE
8
BLACK
6
CONTINUOUS
10
67.8336
20
-186.613
11
67.7384
21
-186.803
0
LINE
8
BLACK
6
CONTINUOUS
10
67.7384
20
-186.803
11
67.6431
21
-186.898
0
LINE
8
BLACK
6
CONTINUOUS
10
67.6431
20
-186.898
11
67.4527
21
-186.993
0
LINE
8
BLACK
6
CONTINUOUS
10
67.4527
20
-186.993
11
67.0717
21
-186.993
0
LINE
8
BLACK
6
CONTINUOUS
10
67.0717
20
-186.993
11
66.8812
21
-187.089
0
LINE
8
BLACK
6
CONTINUOUS
10
66.8812
20
-187.089
11
66.786
21
-187.184
0
LINE
8
BLACK
6
CONTINUOUS
10
66.786
20
-187.184
11
66.6908
21
-187.374
0
LINE
8
BLACK
6
CONTINUOUS
10
66.6908
20
-187.374
11
66.6908
21
-187.755
0
LINE
8
BLACK
6
CONTINUOUS
10
66.6908
20
-187.755
11
66.786
21
-187.946
0
LINE
8
BLACK
6
CONTINUOUS
10
66.786
20
-187.946
11
66.8812
21
-188.041
0
LINE
8
BLACK
6
CONTINUOUS
10
66.8812
20
-188.041
11
67.0717
21
-188.136
0
LINE
8
BLACK
6
CONTINUOUS
10
67.0717
20
-188.136
11
67.4527
21
-188.136
0
LINE
8
BLACK
6
CONTINUOUS
10
67.4527
20
-188.136
11
67.6431
21
-188.041
0
LINE
8
BLACK
6
CONTINUOUS
10
67.6431
20
-188.041
11
67.7384
21
-187.946
0
LINE
8
BLACK
6
CONTINUOUS
10
67.7384
20
-187.946
11
67.8336
21
-187.755
0
LINE
8
BLACK
6
CONTINUOUS
10
67.8336
20
-187.755
11
67.8336
21
-187.374
0
LINE
8
BLACK
6
CONTINUOUS
10
67.8336
20
-187.374
11
67.7384
21
-187.184
0
LINE
8
BLACK
6
CONTINUOUS
10
67.7384
20
-187.184
11
67.6431
21
-187.089
0
LINE
8
BLACK
6
CONTINUOUS
10
67.6431
20
-187.089
11
67.4527
21
-186.993
0
LINE
8
BLACK
6
CONTINUOUS
10
68.9765
20
-186.993
11
68.786
21
-186.898
0
LINE
8
BLACK
6
CONTINUOUS
10
68.786
20
-186.898
11
68.6908
21
-186.803
0
LINE
8
BLACK
6
CONTINUOUS
10
68.6908
20
-186.803
11
68.5955
21
-186.613
0
LINE
8
BLACK
6
CONTINUOUS
10
68.5955
20
-186.613
11
68.5955
21
-186.517
0
LINE
8
BLACK
6
CONTINUOUS
10
68.5955
20
-186.517
11
68.6908
21
-186.327
0
LINE
8
BLACK
6
CONTINUOUS
10
68.6908
20
-186.327
11
68.786
21
-186.232
0
LINE
8
BLACK
6
CONTINUOUS
10
68.786
20
-186.232
11
68.9765
21
-186.136
0
LINE
8
BLACK
6
CONTINUOUS
10
68.9765
20
-186.136
11
69.3574
21
-186.136
0
LINE
8
BLACK
6
CONTINUOUS
10
69.3574
20
-186.136
11
69.5479
21
-186.232
0
LINE
8
BLACK
6
CONTINUOUS
10
69.5479
20
-186.232
11
69.6431
21
-186.327
0
LINE
8
BLACK
6
CONTINUOUS
10
69.6431
20
-186.327
11
69.7384
21
-186.517
0
LINE
8
BLACK
6
CONTINUOUS
10
69.7384
20
-186.517
11
69.7384
21
-186.613
0
LINE
8
BLACK
6
CONTINUOUS
10
69.7384
20
-186.613
11
69.6431
21
-186.803
0
LINE
8
BLACK
6
CONTINUOUS
10
69.6431
20
-186.803
11
69.5479
21
-186.898
0
LINE
8
BLACK
6
CONTINUOUS
10
69.5479
20
-186.898
11
69.3574
21
-186.993
0
LINE
8
BLACK
6
CONTINUOUS
10
69.3574
20
-186.993
11
68.9765
21
-186.993
0
LINE
8
BLACK
6
CONTINUOUS
10
68.9765
20
-186.993
11
68.786
21
-187.089
0
LINE
8
BLACK
6
CONTINUOUS
10
68.786
20
-187.089
11
68.6908
21
-187.184
0
LINE
8
BLACK
6
CONTINUOUS
10
68.6908
20
-187.184
11
68.5955
21
-187.374
0
LINE
8
BLACK
6
CONTINUOUS
10
68.5955
20
-187.374
11
68.5955
21
-187.755
0
LINE
8
BLACK
6
CONTINUOUS
10
68.5955
20
-187.755
11
68.6908
21
-187.946
0
LINE
8
BLACK
6
CONTINUOUS
10
68.6908
20
-187.946
11
68.786
21
-188.041
0
LINE
8
BLACK
6
CONTINUOUS
10
68.786
20
-188.041
11
68.9765
21
-188.136
0
LINE
8
BLACK
6
CONTINUOUS
10
68.9765
20
-188.136
11
69.3574
21
-188.136
0
LINE
8
BLACK
6
CONTINUOUS
10
69.3574
20
-188.136
11
69.5479
21
-188.041
0
LINE
8
BLACK
6
CONTINUOUS
10
69.5479
20
-188.041
11
69.6431
21
-187.946
0
LINE
8
BLACK
6
CONTINUOUS
10
69.6431
20
-187.946
11
69.7384
21
-187.755
0
LINE
8
BLACK
6
CONTINUOUS
10
69.7384
20
-187.755
11
69.7384
21
-187.374
0
LINE
8
BLACK
6
CONTINUOUS
10
69.7384
20
-187.374
11
69.6431
21
-187.184
0
LINE
8
BLACK
6
CONTINUOUS
10
69.6431
20
-187.184
11
69.5479
21
-187.089
0
LINE
8
BLACK
6
CONTINUOUS
10
69.5479
20
-187.089
11
69.3574
21
-186.993
0
LINE
8
BLACK
6
CONTINUOUS
10
70.5955
20
-188.136
11
70.5955
21
-186.803
0
LINE
8
BLACK
6
CONTINUOUS
10
70.5955
20
-186.993
11
70.6908
21
-186.898
0
LINE
8
BLACK
6
CONTINUOUS
10
70.6908
20
-186.898
11
70.8812
21
-186.803
0
LINE
8
BLACK
6
CONTINUOUS
10
70.8812
20
-186.803
11
71.1669
21
-186.803
0
LINE
8
BLACK
6
CONTINUOUS
10
71.1669
20
-186.803
11
71.3574
21
-186.898
0
LINE
8
BLACK
6
CONTINUOUS
10
71.3574
20
-186.898
11
71.4527
21
-187.089
0
LINE
8
BLACK
6
CONTINUOUS
10
71.4527
20
-187.089
11
71.4527
21
-188.136
0
LINE
8
BLACK
6
CONTINUOUS
10
71.4527
20
-187.089
11
71.5479
21
-186.898
0
LINE
8
BLACK
6
CONTINUOUS
10
71.5479
20
-186.898
11
71.7384
21
-186.803
0
LINE
8
BLACK
6
CONTINUOUS
10
71.7384
20
-186.803
11
72.0241
21
-186.803
0
LINE
8
BLACK
6
CONTINUOUS
10
72.0241
20
-186.803
11
72.2146
21
-186.898
0
LINE
8
BLACK
6
CONTINUOUS
10
72.2146
20
-186.898
11
72.3098
21
-187.089
0
LINE
8
BLACK
6
CONTINUOUS
10
72.3098
20
-187.089
11
72.3098
21
-188.136
0
LINE
8
BLACK
6
CONTINUOUS
10
73.2622
20
-188.136
11
73.2622
21
-186.803
0
LINE
8
BLACK
6
CONTINUOUS
10
73.2622
20
-186.993
11
73.3574
21
-186.898
0
LINE
8
BLACK
6
CONTINUOUS
10
73.3574
20
-186.898
11
73.5479
21
-186.803
0
LINE
8
BLACK
6
CONTINUOUS
10
73.5479
20
-186.803
11
73.8336
21
-186.803
0
LINE
8
BLACK
6
CONTINUOUS
10
73.8336
20
-186.803
11
74.0241
21
-186.898
0
LINE
8
BLACK
6
CONTINUOUS
10
74.0241
20
-186.898
11
74.1193
21
-187.089
0
LINE
8
BLACK
6
CONTINUOUS
10
74.1193
20
-187.089
11
74.1193
21
-188.136
0
LINE
8
BLACK
6
CONTINUOUS
10
74.1193
20
-187.089
11
74.2146
21
-186.898
0
LINE
8
BLACK
6
CONTINUOUS
10
74.2146
20
-186.898
11
74.405
21
-186.803
0
LINE
8
BLACK
6
CONTINUOUS
10
74.405
20
-186.803
11
74.6908
21
-186.803
0
LINE
8
BLACK
6
CONTINUOUS
10
74.6908
20
-186.803
11
74.8812
21
-186.898
0
LINE
8
BLACK
6
CONTINUOUS
10
74.8812
20
-186.898
11
74.9765
21
-187.089
0
LINE
8
BLACK
6
CONTINUOUS
10
74.9765
20
-187.089
11
74.9765
21
-188.136
0
LINE
8
BLACK
6
CONTINUOUS
10
78.8812
20
-186.041
11
77.1669
21
-188.613
0
LINE
8
BLACK
6
CONTINUOUS
10
81.4527
20
-186.136
11
81.6431
21
-186.136
0
LINE
8
BLACK
6
CONTINUOUS
10
81.6431
20
-186.136
11
81.8336
21
-186.232
0
LINE
8
BLACK
6
CONTINUOUS
10
81.8336
20
-186.232
11
81.9288
21
-186.327
0
LINE
8
BLACK
6
CONTINUOUS
10
81.9288
20
-186.327
11
82.0241
21
-186.517
0
LINE
8
BLACK
6
CONTINUOUS
10
82.0241
20
-186.517
11
82.1193
21
-186.898
0
LINE
8
BLACK
6
CONTINUOUS
10
82.1193
20
-186.898
11
82.1193
21
-187.374
0
LINE
8
BLACK
6
CONTINUOUS
10
82.1193
20
-187.374
11
82.0241
21
-187.755
0
LINE
8
BLACK
6
CONTINUOUS
10
82.0241
20
-187.755
11
81.9288
21
-187.946
0
LINE
8
BLACK
6
CONTINUOUS
10
81.9288
20
-187.946
11
81.8336
21
-188.041
0
LINE
8
BLACK
6
CONTINUOUS
10
81.8336
20
-188.041
11
81.6431
21
-188.136
0
LINE
8
BLACK
6
CONTINUOUS
10
81.6431
20
-188.136
11
81.4527
21
-188.136
0
LINE
8
BLACK
6
CONTINUOUS
10
81.4527
20
-188.136
11
81.2622
21
-188.041
0
LINE
8
BLACK
6
CONTINUOUS
10
81.2622
20
-188.041
11
81.1669
21
-187.946
0
LINE
8
BLACK
6
CONTINUOUS
10
81.1669
20
-187.946
11
81.0717
21
-187.755
0
LINE
8
BLACK
6
CONTINUOUS
10
81.0717
20
-187.755
11
80.9765
21
-187.374
0
LINE
8
BLACK
6
CONTINUOUS
10
80.9765
20
-187.374
11
80.9765
21
-186.898
0
LINE
8
BLACK
6
CONTINUOUS
10
80.9765
20
-186.898
11
81.0717
21
-186.517
0
LINE
8
BLACK
6
CONTINUOUS
10
81.0717
20
-186.517
11
81.1669
21
-186.327
0
LINE
8
BLACK
6
CONTINUOUS
10
81.1669
20
-186.327
11
81.2622
21
-186.232
0
LINE
8
BLACK
6
CONTINUOUS
10
81.2622
20
-186.232
11
81.4527
21
-186.136
0
LINE
8
BLACK
6
CONTINUOUS
10
82.9765
20
-187.946
11
83.0717
21
-188.041
0
LINE
8
BLACK
6
CONTINUOUS
10
83.0717
20
-188.041
11
82.9765
21
-188.136
0
LINE
8
BLACK
6
CONTINUOUS
10
82.9765
20
-188.136
11
82.8812
21
-188.041
0
LINE
8
BLACK
6
CONTINUOUS
10
82.8812
20
-188.041
11
82.9765
21
-187.946
0
LINE
8
BLACK
6
CONTINUOUS
10
82.9765
20
-187.946
11
82.9765
21
-188.136
0
LINE
8
BLACK
6
CONTINUOUS
10
84.9765
20
-188.136
11
83.8336
21
-188.136
0
LINE
8
BLACK
6
CONTINUOUS
10
84.405
20
-188.136
11
84.405
21
-186.136
0
LINE
8
BLACK
6
CONTINUOUS
10
84.405
20
-186.136
11
84.2146
21
-186.422
0
LINE
8
BLACK
6
CONTINUOUS
10
84.2146
20
-186.422
11
84.0241
21
-186.613
0
LINE
8
BLACK
6
CONTINUOUS
10
84.0241
20
-186.613
11
83.8336
21
-186.708
0
LINE
8
BLACK
6
CONTINUOUS
10
86.786
20
-186.136
11
85.8336
21
-186.136
0
LINE
8
BLACK
6
CONTINUOUS
10
85.8336
20
-186.136
11
85.7384
21
-187.089
0
LINE
8
BLACK
6
CONTINUOUS
10
85.7384
20
-187.089
11
85.8336
21
-186.993
0
LINE
8
BLACK
6
CONTINUOUS
10
85.8336
20
-186.993
11
86.0241
21
-186.898
0
LINE
8
BLACK
6
CONTINUOUS
10
86.0241
20
-186.898
11
86.5003
21
-186.898
0
LINE
8
BLACK
6
CONTINUOUS
10
86.5003
20
-186.898
11
86.6908
21
-186.993
0
LINE
8
BLACK
6
CONTINUOUS
10
86.6908
20
-186.993
11
86.786
21
-187.089
0
LINE
8
BLACK
6
CONTINUOUS
10
86.786
20
-187.089
11
86.8812
21
-187.279
0
LINE
8
BLACK
6
CONTINUOUS
10
86.8812
20
-187.279
11
86.8812
21
-187.755
0
LINE
8
BLACK
6
CONTINUOUS
10
86.8812
20
-187.755
11
86.786
21
-187.946
0
LINE
8
BLACK
6
CONTINUOUS
10
86.786
20
-187.946
11
86.6908
21
-188.041
0
LINE
8
BLACK
6
CONTINUOUS
10
86.6908
20
-188.041
11
86.5003
21
-188.136
0
LINE
8
BLACK
6
CONTINUOUS
10
86.5003
20
-188.136
11
86.0241
21
-188.136
0
LINE
8
BLACK
6
CONTINUOUS
10
86.0241
20
-188.136
11
85.8336
21
-188.041
0
LINE
8
BLACK
6
CONTINUOUS
10
85.8336
20
-188.041
11
85.7384
21
-187.946
0
LINE
8
BLACK
6
CONTINUOUS
10
87.5479
20
-186.136
11
88.8812
21
-186.136
0
LINE
8
BLACK
6
CONTINUOUS
10
88.8812
20
-186.136
11
88.0241
21
-188.136
0
LINE
8
BLACK
6
CONTINUOUS
10
90.0241
20
-186.136
11
90.2146
21
-186.136
0
LINE
8
BLACK
6
CONTINUOUS
10
90.2146
20
-186.136
11
90.405
21
-186.232
0
LINE
8
BLACK
6
CONTINUOUS
10
90.405
20
-186.232
11
90.5003
21
-186.327
0
LINE
8
BLACK
6
CONTINUOUS
10
90.5003
20
-186.327
11
90.5955
21
-186.517
0
LINE
8
BLACK
6
CONTINUOUS
10
90.5955
20
-186.517
11
90.6908
21
-186.898
0
LINE
8
BLACK
6
CONTINUOUS
10
90.6908
20
-186.898
11
90.6908
21
-187.374
0
LINE
8
BLACK
6
CONTINUOUS
10
90.6908
20
-187.374
11
90.5955
21
-187.755
0
LINE
8
BLACK
6
CONTINUOUS
10
90.5955
20
-187.755
11
90.5003
21
-187.946
0
LINE
8
BLACK
6
CONTINUOUS
10
90.5003
20
-187.946
11
90.405
21
-188.041
0
LINE
8
BLACK
6
CONTINUOUS
10
90.405
20
-188.041
11
90.2146
21
-188.136
0
LINE
8
BLACK
6
CONTINUOUS
10
90.2146
20
-188.136
11
90.0241
21
-188.136
0
LINE
8
BLACK
6
CONTINUOUS
10
90.0241
20
-188.136
11
89.8336
21
-188.041
0
LINE
8
BLACK
6
CONTINUOUS
10
89.8336
20
-188.041
11
89.7384
21
-187.946
0
LINE
8
BLACK
6
CONTINUOUS
10
89.7384
20
-187.946
11
89.6431
21
-187.755
0
LINE
8
BLACK
6
CONTINUOUS
10
89.6431
20
-187.755
11
89.5479
21
-187.374
0
LINE
8
BLACK
6
CONTINUOUS
10
89.5479
20
-187.374
11
89.5479
21
-186.898
0
LINE
8
BLACK
6
CONTINUOUS
10
89.5479
20
-186.898
11
89.6431
21
-186.517
0
LINE
8
BLACK
6
CONTINUOUS
10
89.6431
20
-186.517
11
89.7384
21
-186.327
0
LINE
8
BLACK
6
CONTINUOUS
10
89.7384
20
-186.327
11
89.8336
21
-186.232
0
LINE
8
BLACK
6
CONTINUOUS
10
89.8336
20
-186.232
11
90.0241
21
-186.136
0
LINE
8
BLACK
6
CONTINUOUS
10
91.4527
20
-186.136
11
91.4527
21
-186.517
0
LINE
8
BLACK
6
CONTINUOUS
10
92.2146
20
-186.136
11
92.2146
21
-186.517
0
LINE
8
BLACK
6
CONTINUOUS
10
95.1669
20
-188.898
11
95.0717
21
-188.803
0
LINE
8
BLACK
6
CONTINUOUS
10
95.0717
20
-188.803
11
94.8812
21
-188.517
0
LINE
8
BLACK
6
CONTINUOUS
10
94.8812
20
-188.517
11
94.786
21
-188.327
0
LINE
8
BLACK
6
CONTINUOUS
10
94.786
20
-188.327
11
94.6908
21
-188.041
0
LINE
8
BLACK
6
CONTINUOUS
10
94.6908
20
-188.041
11
94.5955
21
-187.565
0
LINE
8
BLACK
6
CONTINUOUS
10
94.5955
20
-187.565
11
94.5955
21
-187.184
0
LINE
8
BLACK
6
CONTINUOUS
10
94.5955
20
-187.184
11
94.6908
21
-186.708
0
LINE
8
BLACK
6
CONTINUOUS
10
94.6908
20
-186.708
11
94.786
21
-186.422
0
LINE
8
BLACK
6
CONTINUOUS
10
94.786
20
-186.422
11
94.8812
21
-186.232
0
LINE
8
BLACK
6
CONTINUOUS
10
94.8812
20
-186.232
11
95.0717
21
-185.946
0
LINE
8
BLACK
6
CONTINUOUS
10
95.0717
20
-185.946
11
95.1669
21
-185.851
0
LINE
8
BLACK
6
CONTINUOUS
10
96.9765
20
-188.136
11
95.8336
21
-188.136
0
LINE
8
BLACK
6
CONTINUOUS
10
96.405
20
-188.136
11
96.405
21
-186.136
0
LINE
8
BLACK
6
CONTINUOUS
10
96.405
20
-186.136
11
96.2146
21
-186.422
0
LINE
8
BLACK
6
CONTINUOUS
10
96.2146
20
-186.422
11
96.0241
21
-186.613
0
LINE
8
BLACK
6
CONTINUOUS
10
96.0241
20
-186.613
11
95.8336
21
-186.708
0
LINE
8
BLACK
6
CONTINUOUS
10
98.2146
20
-186.136
11
98.405
21
-186.136
0
LINE
8
BLACK
6
CONTINUOUS
10
98.405
20
-186.136
11
98.5955
21
-186.232
0
LINE
8
BLACK
6
CONTINUOUS
10
98.5955
20
-186.232
11
98.6908
21
-186.327
0
LINE
8
BLACK
6
CONTINUOUS
10
98.6908
20
-186.327
11
98.786
21
-186.517
0
LINE
8
BLACK
6
CONTINUOUS
10
98.786
20
-186.517
11
98.8812
21
-186.898
0
LINE
8
BLACK
6
CONTINUOUS
10
98.8812
20
-186.898
11
98.8812
21
-187.374
0
LINE
8
BLACK
6
CONTINUOUS
10
98.8812
20
-187.374
11
98.786
21
-187.755
0
LINE
8
BLACK
6
CONTINUOUS
10
98.786
20
-187.755
11
98.6908
21
-187.946
0
LINE
8
BLACK
6
CONTINUOUS
10
98.6908
20
-187.946
11
98.5955
21
-188.041
0
LINE
8
BLACK
6
CONTINUOUS
10
98.5955
20
-188.041
11
98.405
21
-188.136
0
LINE
8
BLACK
6
CONTINUOUS
10
98.405
20
-188.136
11
98.2146
21
-188.136
0
LINE
8
BLACK
6
CONTINUOUS
10
98.2146
20
-188.136
11
98.0241
21
-188.041
0
LINE
8
BLACK
6
CONTINUOUS
10
98.0241
20
-188.041
11
97.9288
21
-187.946
0
LINE
8
BLACK
6
CONTINUOUS
10
97.9288
20
-187.946
11
97.8336
21
-187.755
0
LINE
8
BLACK
6
CONTINUOUS
10
97.8336
20
-187.755
11
97.7384
21
-187.374
0
LINE
8
BLACK
6
CONTINUOUS
10
97.7384
20
-187.374
11
97.7384
21
-186.898
0
LINE
8
BLACK
6
CONTINUOUS
10
97.7384
20
-186.898
11
97.8336
21
-186.517
0
LINE
8
BLACK
6
CONTINUOUS
10
97.8336
20
-186.517
11
97.9288
21
-186.327
0
LINE
8
BLACK
6
CONTINUOUS
10
97.9288
20
-186.327
11
98.0241
21
-186.232
0
LINE
8
BLACK
6
CONTINUOUS
10
98.0241
20
-186.232
11
98.2146
21
-186.136
0
LINE
8
BLACK
6
CONTINUOUS
10
100.596
20
-186.136
11
100.215
21
-186.136
0
LINE
8
BLACK
6
CONTINUOUS
10
100.215
20
-186.136
11
100.024
21
-186.232
0
LINE
8
BLACK
6
CONTINUOUS
10
100.024
20
-186.232
11
99.9288
21
-186.327
0
LINE
8
BLACK
6
CONTINUOUS
10
99.9288
20
-186.327
11
99.7384
21
-186.613
0
LINE
8
BLACK
6
CONTINUOUS
10
99.7384
20
-186.613
11
99.6431
21
-186.993
0
LINE
8
BLACK
6
CONTINUOUS
10
99.6431
20
-186.993
11
99.6431
21
-187.755
0
LINE
8
BLACK
6
CONTINUOUS
10
99.6431
20
-187.755
11
99.7384
21
-187.946
0
LINE
8
BLACK
6
CONTINUOUS
10
99.7384
20
-187.946
11
99.8336
21
-188.041
0
LINE
8
BLACK
6
CONTINUOUS
10
99.8336
20
-188.041
11
100.024
21
-188.136
0
LINE
8
BLACK
6
CONTINUOUS
10
100.024
20
-188.136
11
100.405
21
-188.136
0
LINE
8
BLACK
6
CONTINUOUS
10
100.405
20
-188.136
11
100.596
21
-188.041
0
LINE
8
BLACK
6
CONTINUOUS
10
100.596
20
-188.041
11
100.691
21
-187.946
0
LINE
8
BLACK
6
CONTINUOUS
10
100.691
20
-187.946
11
100.786
21
-187.755
0
LINE
8
BLACK
6
CONTINUOUS
10
100.786
20
-187.755
11
100.786
21
-187.279
0
LINE
8
BLACK
6
CONTINUOUS
10
100.786
20
-187.279
11
100.691
21
-187.089
0
LINE
8
BLACK
6
CONTINUOUS
10
100.691
20
-187.089
11
100.596
21
-186.993
0
LINE
8
BLACK
6
CONTINUOUS
10
100.596
20
-186.993
11
100.405
21
-186.898
0
LINE
8
BLACK
6
CONTINUOUS
10
100.405
20
-186.898
11
100.024
21
-186.898
0
LINE
8
BLACK
6
CONTINUOUS
10
100.024
20
-186.898
11
99.8336
21
-186.993
0
LINE
8
BLACK
6
CONTINUOUS
10
99.8336
20
-186.993
11
99.7384
21
-187.089
0
LINE
8
BLACK
6
CONTINUOUS
10
99.7384
20
-187.089
11
99.6431
21
-187.279
0
LINE
8
BLACK
6
CONTINUOUS
10
103.167
20
-188.136
11
103.167
21
-186.136
0
LINE
8
BLACK
6
CONTINUOUS
10
104.024
20
-188.136
11
104.024
21
-187.089
0
LINE
8
BLACK
6
CONTINUOUS
10
104.024
20
-187.089
11
103.929
21
-186.898
0
LINE
8
BLACK
6
CONTINUOUS
10
103.929
20
-186.898
11
103.738
21
-186.803
0
LINE
8
BLACK
6
CONTINUOUS
10
103.738
20
-186.803
11
103.453
21
-186.803
0
LINE
8
BLACK
6
CONTINUOUS
10
103.453
20
-186.803
11
103.262
21
-186.898
0
LINE
8
BLACK
6
CONTINUOUS
10
103.262
20
-186.898
11
103.167
21
-186.993
0
LINE
8
BLACK
6
CONTINUOUS
10
105.262
20
-188.136
11
105.072
21
-188.041
0
LINE
8
BLACK
6
CONTINUOUS
10
105.072
20
-188.041
11
104.976
21
-187.946
0
LINE
8
BLACK
6
CONTINUOUS
10
104.976
20
-187.946
11
104.881
21
-187.755
0
LINE
8
BLACK
6
CONTINUOUS
10
104.881
20
-187.755
11
104.881
21
-187.184
0
LINE
8
BLACK
6
CONTINUOUS
10
104.881
20
-187.184
11
104.976
21
-186.993
0
LINE
8
BLACK
6
CONTINUOUS
10
104.976
20
-186.993
11
105.072
21
-186.898
0
LINE
8
BLACK
6
CONTINUOUS
10
105.072
20
-186.898
11
105.262
21
-186.803
0
LINE
8
BLACK
6
CONTINUOUS
10
105.262
20
-186.803
11
105.548
21
-186.803
0
LINE
8
BLACK
6
CONTINUOUS
10
105.548
20
-186.803
11
105.738
21
-186.898
0
LINE
8
BLACK
6
CONTINUOUS
10
105.738
20
-186.898
11
105.834
21
-186.993
0
LINE
8
BLACK
6
CONTINUOUS
10
105.834
20
-186.993
11
105.929
21
-187.184
0
LINE
8
BLACK
6
CONTINUOUS
10
105.929
20
-187.184
11
105.929
21
-187.755
0
LINE
8
BLACK
6
CONTINUOUS
10
105.929
20
-187.755
11
105.834
21
-187.946
0
LINE
8
BLACK
6
CONTINUOUS
10
105.834
20
-187.946
11
105.738
21
-188.041
0
LINE
8
BLACK
6
CONTINUOUS
10
105.738
20
-188.041
11
105.548
21
-188.136
0
LINE
8
BLACK
6
CONTINUOUS
10
105.548
20
-188.136
11
105.262
21
-188.136
0
LINE
8
BLACK
6
CONTINUOUS
10
107.072
20
-188.136
11
106.881
21
-188.041
0
LINE
8
BLACK
6
CONTINUOUS
10
106.881
20
-188.041
11
106.786
21
-187.851
0
LINE
8
BLACK
6
CONTINUOUS
10
106.786
20
-187.851
11
106.786
21
-186.136
0
LINE
8
BLACK
6
CONTINUOUS
10
108.596
20
-188.041
11
108.405
21
-188.136
0
LINE
8
BLACK
6
CONTINUOUS
10
108.405
20
-188.136
11
108.024
21
-188.136
0
LINE
8
BLACK
6
CONTINUOUS
10
108.024
20
-188.136
11
107.834
21
-188.041
0
LINE
8
BLACK
6
CONTINUOUS
10
107.834
20
-188.041
11
107.738
21
-187.851
0
LINE
8
BLACK
6
CONTINUOUS
10
107.738
20
-187.851
11
107.738
21
-187.089
0
LINE
8
BLACK
6
CONTINUOUS
10
107.738
20
-187.089
11
107.834
21
-186.898
0
LINE
8
BLACK
6
CONTINUOUS
10
107.834
20
-186.898
11
108.024
21
-186.803
0
LINE
8
BLACK
6
CONTINUOUS
10
108.024
20
-186.803
11
108.405
21
-186.803
0
LINE
8
BLACK
6
CONTINUOUS
10
108.405
20
-186.803
11
108.596
21
-186.898
0
LINE
8
BLACK
6
CONTINUOUS
10
108.596
20
-186.898
11
108.691
21
-187.089
0
LINE
8
BLACK
6
CONTINUOUS
10
108.691
20
-187.089
11
108.691
21
-187.279
0
LINE
8
BLACK
6
CONTINUOUS
10
108.691
20
-187.279
11
107.738
21
-187.47
0
LINE
8
BLACK
6
CONTINUOUS
10
109.453
20
-188.041
11
109.643
21
-188.136
0
LINE
8
BLACK
6
CONTINUOUS
10
109.643
20
-188.136
11
110.024
21
-188.136
0
LINE
8
BLACK
6
CONTINUOUS
10
110.024
20
-188.136
11
110.215
21
-188.041
0
LINE
8
BLACK
6
CONTINUOUS
10
110.215
20
-188.041
11
110.31
21
-187.851
0
LINE
8
BLACK
6
CONTINUOUS
10
110.31
20
-187.851
11
110.31
21
-187.755
0
LINE
8
BLACK
6
CONTINUOUS
10
110.31
20
-187.755
11
110.215
21
-187.565
0
LINE
8
BLACK
6
CONTINUOUS
10
110.215
20
-187.565
11
110.024
21
-187.47
0
LINE
8
BLACK
6
CONTINUOUS
10
110.024
20
-187.47
11
109.738
21
-187.47
0
LINE
8
BLACK
6
CONTINUOUS
10
109.738
20
-187.47
11
109.548
21
-187.374
0
LINE
8
BLACK
6
CONTINUOUS
10
109.548
20
-187.374
11
109.453
21
-187.184
0
LINE
8
BLACK
6
CONTINUOUS
10
109.453
20
-187.184
11
109.453
21
-187.089
0
LINE
8
BLACK
6
CONTINUOUS
10
109.453
20
-187.089
11
109.548
21
-186.898
0
LINE
8
BLACK
6
CONTINUOUS
10
109.548
20
-186.898
11
109.738
21
-186.803
0
LINE
8
BLACK
6
CONTINUOUS
10
109.738
20
-186.803
11
110.024
21
-186.803
0
LINE
8
BLACK
6
CONTINUOUS
10
110.024
20
-186.803
11
110.215
21
-186.898
0
LINE
8
BLACK
6
CONTINUOUS
10
110.976
20
-188.898
11
111.072
21
-188.803
0
LINE
8
BLACK
6
CONTINUOUS
10
111.072
20
-188.803
11
111.262
21
-188.517
0
LINE
8
BLACK
6
CONTINUOUS
10
111.262
20
-188.517
11
111.357
21
-188.327
0
LINE
8
BLACK
6
CONTINUOUS
10
111.357
20
-188.327
11
111.453
21
-188.041
0
LINE
8
BLACK
6
CONTINUOUS
10
111.453
20
-188.041
11
111.548
21
-187.565
0
LINE
8
BLACK
6
CONTINUOUS
10
111.548
20
-187.565
11
111.548
21
-187.184
0
LINE
8
BLACK
6
CONTINUOUS
10
111.548
20
-187.184
11
111.453
21
-186.708
0
LINE
8
BLACK
6
CONTINUOUS
10
111.453
20
-186.708
11
111.357
21
-186.422
0
LINE
8
BLACK
6
CONTINUOUS
10
111.357
20
-186.422
11
111.262
21
-186.232
0
LINE
8
BLACK
6
CONTINUOUS
10
111.262
20
-186.232
11
111.072
21
-185.946
0
LINE
8
BLACK
6
CONTINUOUS
10
111.072
20
-185.946
11
110.976
21
-185.851
0
LINE
8
BLACK
6
CONTINUOUS
10
114.596
20
-188.898
11
114.5
21
-188.803
0
LINE
8
BLACK
6
CONTINUOUS
10
114.5
20
-188.803
11
114.31
21
-188.517
0
LINE
8
BLACK
6
CONTINUOUS
10
114.31
20
-188.517
11
114.215
21
-188.327
0
LINE
8
BLACK
6
CONTINUOUS
10
114.215
20
-188.327
11
114.119
21
-188.041
0
LINE
8
BLACK
6
CONTINUOUS
10
114.119
20
-188.041
11
114.024
21
-187.565
0
LINE
8
BLACK
6
CONTINUOUS
10
114.024
20
-187.565
11
114.024
21
-187.184
0
LINE
8
BLACK
6
CONTINUOUS
10
114.024
20
-187.184
11
114.119
21
-186.708
0
LINE
8
BLACK
6
CONTINUOUS
10
114.119
20
-186.708
11
114.215
21
-186.422
0
LINE
8
BLACK
6
CONTINUOUS
10
114.215
20
-186.422
11
114.31
21
-186.232
0
LINE
8
BLACK
6
CONTINUOUS
10
114.31
20
-186.232
11
114.5
21
-185.946
0
LINE
8
BLACK
6
CONTINUOUS
10
114.5
20
-185.946
11
114.596
21
-185.851
0
LINE
8
BLACK
6
CONTINUOUS
10
115.357
20
-186.803
11
115.357
21
-188.136
0
LINE
8
BLACK
6
CONTINUOUS
10
115.357
20
-186.993
11
115.453
21
-186.898
0
LINE
8
BLACK
6
CONTINUOUS
10
115.453
20
-186.898
11
115.643
21
-186.803
0
LINE
8
BLACK
6
CONTINUOUS
10
115.643
20
-186.803
11
115.929
21
-186.803
0
LINE
8
BLACK
6
CONTINUOUS
10
115.929
20
-186.803
11
116.119
21
-186.898
0
LINE
8
BLACK
6
CONTINUOUS
10
116.119
20
-186.898
11
116.215
21
-187.089
0
LINE
8
BLACK
6
CONTINUOUS
10
116.215
20
-187.089
11
116.215
21
-188.136
0
LINE
8
BLACK
6
CONTINUOUS
10
117.453
20
-188.136
11
117.262
21
-188.041
0
LINE
8
BLACK
6
CONTINUOUS
10
117.262
20
-188.041
11
117.167
21
-187.946
0
LINE
8
BLACK
6
CONTINUOUS
10
117.167
20
-187.946
11
117.072
21
-187.755
0
LINE
8
BLACK
6
CONTINUOUS
10
117.072
20
-187.755
11
117.072
21
-187.184
0
LINE
8
BLACK
6
CONTINUOUS
10
117.072
20
-187.184
11
117.167
21
-186.993
0
LINE
8
BLACK
6
CONTINUOUS
10
117.167
20
-186.993
11
117.262
21
-186.898
0
LINE
8
BLACK
6
CONTINUOUS
10
117.262
20
-186.898
11
117.453
21
-186.803
0
LINE
8
BLACK
6
CONTINUOUS
10
117.453
20
-186.803
11
117.738
21
-186.803
0
LINE
8
BLACK
6
CONTINUOUS
10
117.738
20
-186.803
11
117.929
21
-186.898
0
LINE
8
BLACK
6
CONTINUOUS
10
117.929
20
-186.898
11
118.024
21
-186.993
0
LINE
8
BLACK
6
CONTINUOUS
10
118.024
20
-186.993
11
118.119
21
-187.184
0
LINE
8
BLACK
6
CONTINUOUS
10
118.119
20
-187.184
11
118.119
21
-187.755
0
LINE
8
BLACK
6
CONTINUOUS
10
118.119
20
-187.755
11
118.024
21
-187.946
0
LINE
8
BLACK
6
CONTINUOUS
10
118.024
20
-187.946
11
117.929
21
-188.041
0
LINE
8
BLACK
6
CONTINUOUS
10
117.929
20
-188.041
11
117.738
21
-188.136
0
LINE
8
BLACK
6
CONTINUOUS
10
117.738
20
-188.136
11
117.453
21
-188.136
0
LINE
8
BLACK
6
CONTINUOUS
10
118.691
20
-186.803
11
119.453
21
-186.803
0
LINE
8
BLACK
6
CONTINUOUS
10
118.976
20
-186.136
11
118.976
21
-187.851
0
LINE
8
BLACK
6
CONTINUOUS
10
118.976
20
-187.851
11
119.072
21
-188.041
0
LINE
8
BLACK
6
CONTINUOUS
10
119.072
20
-188.041
11
119.262
21
-188.136
0
LINE
8
BLACK
6
CONTINUOUS
10
119.262
20
-188.136
11
119.453
21
-188.136
0
LINE
8
BLACK
6
CONTINUOUS
10
121.643
20
-186.803
11
121.643
21
-188.803
0
LINE
8
BLACK
6
CONTINUOUS
10
121.643
20
-186.898
11
121.834
21
-186.803
0
LINE
8
BLACK
6
CONTINUOUS
10
121.834
20
-186.803
11
122.215
21
-186.803
0
LINE
8
BLACK
6
CONTINUOUS
10
122.215
20
-186.803
11
122.405
21
-186.898
0
LINE
8
BLACK
6
CONTINUOUS
10
122.405
20
-186.898
11
122.5
21
-186.993
0
LINE
8
BLACK
6
CONTINUOUS
10
122.5
20
-186.993
11
122.596
21
-187.184
0
LINE
8
BLACK
6
CONTINUOUS
10
122.596
20
-187.184
11
122.596
21
-187.755
0
LINE
8
BLACK
6
CONTINUOUS
10
122.596
20
-187.755
11
122.5
21
-187.946
0
LINE
8
BLACK
6
CONTINUOUS
10
122.5
20
-187.946
11
122.405
21
-188.041
0
LINE
8
BLACK
6
CONTINUOUS
10
122.405
20
-188.041
11
122.215
21
-188.136
0
LINE
8
BLACK
6
CONTINUOUS
10
122.215
20
-188.136
11
121.834
21
-188.136
0
LINE
8
BLACK
6
CONTINUOUS
10
121.834
20
-188.136
11
121.643
21
-188.041
0
LINE
8
BLACK
6
CONTINUOUS
10
123.738
20
-188.136
11
123.548
21
-188.041
0
LINE
8
BLACK
6
CONTINUOUS
10
123.548
20
-188.041
11
123.453
21
-187.851
0
LINE
8
BLACK
6
CONTINUOUS
10
123.453
20
-187.851
11
123.453
21
-186.136
0
LINE
8
BLACK
6
CONTINUOUS
10
125.357
20
-188.136
11
125.357
21
-187.089
0
LINE
8
BLACK
6
CONTINUOUS
10
125.357
20
-187.089
11
125.262
21
-186.898
0
LINE
8
BLACK
6
CONTINUOUS
10
125.262
20
-186.898
11
125.072
21
-186.803
0
LINE
8
BLACK
6
CONTINUOUS
10
125.072
20
-186.803
11
124.691
21
-186.803
0
LINE
8
BLACK
6
CONTINUOUS
10
124.691
20
-186.803
11
124.5
21
-186.898
0
LINE
8
BLACK
6
CONTINUOUS
10
125.357
20
-188.041
11
125.167
21
-188.136
0
LINE
8
BLACK
6
CONTINUOUS
10
125.167
20
-188.136
11
124.691
21
-188.136
0
LINE
8
BLACK
6
CONTINUOUS
10
124.691
20
-188.136
11
124.5
21
-188.041
0
LINE
8
BLACK
6
CONTINUOUS
10
124.5
20
-188.041
11
124.405
21
-187.851
0
LINE
8
BLACK
6
CONTINUOUS
10
124.405
20
-187.851
11
124.405
21
-187.66
0
LINE
8
BLACK
6
CONTINUOUS
10
124.405
20
-187.66
11
124.5
21
-187.47
0
LINE
8
BLACK
6
CONTINUOUS
10
124.5
20
-187.47
11
124.691
21
-187.374
0
LINE
8
BLACK
6
CONTINUOUS
10
124.691
20
-187.374
11
125.167
21
-187.374
0
LINE
8
BLACK
6
CONTINUOUS
10
125.167
20
-187.374
11
125.357
21
-187.279
0
LINE
8
BLACK
6
CONTINUOUS
10
126.024
20
-186.803
11
126.786
21
-186.803
0
LINE
8
BLACK
6
CONTINUOUS
10
126.31
20
-186.136
11
126.31
21
-187.851
0
LINE
8
BLACK
6
CONTINUOUS
10
126.31
20
-187.851
11
126.405
21
-188.041
0
LINE
8
BLACK
6
CONTINUOUS
10
126.405
20
-188.041
11
126.596
21
-188.136
0
LINE
8
BLACK
6
CONTINUOUS
10
126.596
20
-188.136
11
126.786
21
-188.136
0
LINE
8
BLACK
6
CONTINUOUS
10
128.215
20
-188.041
11
128.024
21
-188.136
0
LINE
8
BLACK
6
CONTINUOUS
10
128.024
20
-188.136
11
127.643
21
-188.136
0
LINE
8
BLACK
6
CONTINUOUS
10
127.643
20
-188.136
11
127.453
21
-188.041
0
LINE
8
BLACK
6
CONTINUOUS
10
127.453
20
-188.041
11
127.357
21
-187.851
0
LINE
8
BLACK
6
CONTINUOUS
10
127.357
20
-187.851
11
127.357
21
-187.089
0
LINE
8
BLACK
6
CONTINUOUS
10
127.357
20
-187.089
11
127.453
21
-186.898
0
LINE
8
BLACK
6
CONTINUOUS
10
127.453
20
-186.898
11
127.643
21
-186.803
0
LINE
8
BLACK
6
CONTINUOUS
10
127.643
20
-186.803
11
128.024
21
-186.803
0
LINE
8
BLACK
6
CONTINUOUS
10
128.024
20
-186.803
11
128.215
21
-186.898
0
LINE
8
BLACK
6
CONTINUOUS
10
128.215
20
-186.898
11
128.31
21
-187.089
0
LINE
8
BLACK
6
CONTINUOUS
10
128.31
20
-187.089
11
128.31
21
-187.279
0
LINE
8
BLACK
6
CONTINUOUS
10
128.31
20
-187.279
11
127.357
21
-187.47
0
LINE
8
BLACK
6
CONTINUOUS
10
130.024
20
-188.136
11
130.024
21
-186.136
0
LINE
8
BLACK
6
CONTINUOUS
10
130.024
20
-188.041
11
129.834
21
-188.136
0
LINE
8
BLACK
6
CONTINUOUS
10
129.834
20
-188.136
11
129.453
21
-188.136
0
LINE
8
BLACK
6
CONTINUOUS
10
129.453
20
-188.136
11
129.262
21
-188.041
0
LINE
8
BLACK
6
CONTINUOUS
10
129.262
20
-188.041
11
129.167
21
-187.946
0
LINE
8
BLACK
6
CONTINUOUS
10
129.167
20
-187.946
11
129.072
21
-187.755
0
LINE
8
BLACK
6
CONTINUOUS
10
129.072
20
-187.755
11
129.072
21
-187.184
0
LINE
8
BLACK
6
CONTINUOUS
10
129.072
20
-187.184
11
129.167
21
-186.993
0
LINE
8
BLACK
6
CONTINUOUS
10
129.167
20
-186.993
11
129.262
21
-186.898
0
LINE
8
BLACK
6
CONTINUOUS
10
129.262
20
-186.898
11
129.453
21
-186.803
0
LINE
8
BLACK
6
CONTINUOUS
10
129.453
20
-186.803
11
129.834
21
-186.803
0
LINE
8
BLACK
6
CONTINUOUS
10
129.834
20
-186.803
11
130.024
21
-186.898
0
LINE
8
BLACK
6
CONTINUOUS
10
130.786
20
-188.898
11
130.881
21
-188.803
0
LINE
8
BLACK
6
CONTINUOUS
10
130.881
20
-188.803
11
131.072
21
-188.517
0
LINE
8
BLACK
6
CONTINUOUS
10
131.072
20
-188.517
11
131.167
21
-188.327
0
LINE
8
BLACK
6
CONTINUOUS
10
131.167
20
-188.327
11
131.262
21
-188.041
0
LINE
8
BLACK
6
CONTINUOUS
10
131.262
20
-188.041
11
131.357
21
-187.565
0
LINE
8
BLACK
6
CONTINUOUS
10
131.357
20
-187.565
11
131.357
21
-187.184
0
LINE
8
BLACK
6
CONTINUOUS
10
131.357
20
-187.184
11
131.262
21
-186.708
0
LINE
8
BLACK
6
CONTINUOUS
10
131.262
20
-186.708
11
131.167
21
-186.422
0
LINE
8
BLACK
6
CONTINUOUS
10
131.167
20
-186.422
11
131.072
21
-186.232
0
LINE
8
BLACK
6
CONTINUOUS
10
131.072
20
-186.232
11
130.881
21
-185.946
0
LINE
8
BLACK
6
CONTINUOUS
10
130.881
20
-185.946
11
130.786
21
-185.851
  0
ENDSEC
  0
EOF
