  0
SECTION
  2
HEADER
  9
$ANGBASE
  50
0.0
  9
$ANGDIR
  70
1
  9
$MEASUREMENT
  70
1
  0
ENDSEC
  0
SECTION
  2
TABLES
  0
TABLE
  2
LTYPE
  70
4
  0
LTYPE
  5
40F
  2
CONTINUOUS
  70
0
  3
Solid line
  72
65
  73
0
  40
0.0
  0
LTYPE
  5
410
  2
DASHDOT
 70
0
  3
Dash Dot ____ _ ____ _
 72
65
 73
4
 40
2.0
 49
1.25
 49
-0.25
 49
0.25
 49
-0.25
  0
LTYPE
  5
411
  2
DASHED
 70
0
  3
Dashed __ __ __ __ __
 72
65
 73
2
 40
0.75
 49
0.5
 49
-0.25
  0
LTYPE
  5
43B
  2
DOTTED
 70
0
  3
Dotted .  .  .  .
 72
65
 73
2
 40
0.2
 49
0.0
 49
-0.2
  0
ENDTAB
  0
TABLE
  2
STYLE
  70
4
  0
STYLE
  2
KICAD
  70
0
  40
0
  41
1
  42
1
  50
0
  71
0
  3
isocp.shx
  0
STYLE
  2
KICADB
  70
0
  40
0
  41
1
  42
1
  50
0
  71
0
  3
isocp.shx
  0
STYLE
  2
KICADI
  70
0
  40
0
  41
1
  42
1
  50
15
  71
0
  3
isocp.shx
  0
STYLE
  2
KICADBI
  70
0
  40
0
  41
1
  42
1
  50
15
  71
0
  3
isocp.shx
  0
ENDTAB
  0
TABLE
  2
LAYER
  70
1
  0
LAYER
  2
BLACK
  70
0
  62
7
  6
CONTINUOUS
  0
ENDTAB
  0
ENDSEC
  0
SECTION
  2
ENTITIES
0
ARC
8
BLACK
10
61.8979
20
-175.511
40
2.24999
50
-180
51
-90.0002
0
ARC
8
BLACK
10
297.973
20
-159.961
40
1.24991
50
-270.004
51
-179.996
0
ARC
8
BLACK
10
61.8978
20
-85.811
40
2.24991
50
-270.002
51
-179.998
0
ARC
8
BLACK
10
82.2959
20
-85.061
40
1.49987
50
89.9962
51
152.462
0
LINE
8
BLACK
6
CONTINUOUS
10
294.473
20
-177.761
11
277.558
21
-177.761
0
LINE
8
BLACK
6
CONTINUOUS
10
107.387
20
-177.761
11
61.8979
21
-177.761
0
ARC
8
BLACK
10
269.312
20
-176.261
40
1.50012
50
-89.9966
51
-27.5415
0
LINE
8
BLACK
6
CONTINUOUS
10
321.7
20
-177.761
11
309.548
21
-177.761
0
ARC
8
BLACK
10
344.873
20
-82.9111
40
3.15
50
-152.46
51
-27.5398
0
ARC
8
BLACK
10
309.548
20
-175.511
40
2.24999
50
-180
51
-90.0002
0
ARC
8
BLACK
10
361.148
20
-175.511
40
2.25009
50
-89.9976
51
-0.00241905
0
ARC
8
BLACK
10
107.387
20
-176.261
40
1.50012
50
-89.9966
51
-27.5415
0
ARC
8
BLACK
10
188.35
20
-85.061
40
1.4999
50
27.5369
51
90.0004
0
LINE
8
BLACK
6
CONTINUOUS
10
297.973
20
-158.711
11
306.048
21
-158.711
0
LINE
8
BLACK
6
CONTINUOUS
10
269.312
20
-177.761
11
115.633
21
-177.761
0
LINE
8
BLACK
6
CONTINUOUS
10
340.75
20
-83.5611
11
196.596
21
-83.5611
0
LINE
8
BLACK
6
CONTINUOUS
10
307.298
20
-159.961
11
307.298
21
-175.511
0
LINE
8
BLACK
6
CONTINUOUS
10
188.35
20
-83.5611
11
82.296
21
-83.5611
0
LINE
8
BLACK
6
CONTINUOUS
10
361.148
20
-177.761
11
329.946
21
-177.761
0
ARC
8
BLACK
10
329.946
20
-176.261
40
1.49989
50
-152.464
51
-90
0
ARC
8
BLACK
10
361.148
20
-85.8111
40
2.25
50
0.000127324
51
90.0002
0
ARC
8
BLACK
10
74.0498
20
-85.061
40
1.4999
50
27.5369
51
90.0004
0
ARC
8
BLACK
10
115.633
20
-176.261
40
1.49989
50
-152.464
51
-90
0
ARC
8
BLACK
10
321.7
20
-176.261
40
1.50012
50
-89.9966
51
-27.5415
0
ARC
8
BLACK
10
325.823
20
-178.411
40
3.15
50
27.5398
51
152.46
0
LINE
8
BLACK
6
CONTINUOUS
10
361.148
20
-83.5611
11
348.996
21
-83.5611
0
ARC
8
BLACK
10
273.435
20
-178.411
40
3.15
50
27.5398
51
152.46
0
LINE
8
BLACK
6
CONTINUOUS
10
296.723
20
-159.961
11
296.723
21
-175.511
0
ARC
8
BLACK
10
306.048
20
-159.961
40
1.25001
50
0.000229184
51
90.0003
0
ARC
8
BLACK
10
78.1729
20
-82.9111
40
3.15
50
-152.46
51
-27.5398
0
CIRCLE
8
BLACK
10
125.698
20
-101.061
40
0.5
0
ARC
8
BLACK
10
348.996
20
-85.061
40
1.49987
50
89.9962
51
152.462
0
ARC
8
BLACK
10
111.51
20
-178.411
40
3.15
50
27.5398
51
152.46
0
ARC
8
BLACK
10
192.473
20
-82.9111
40
3.15
50
-152.46
51
-27.5398
0
ARC
8
BLACK
10
196.596
20
-85.061
40
1.49987
50
89.9962
51
152.462
0
LINE
8
BLACK
6
CONTINUOUS
10
363.398
20
-175.511
11
363.398
21
-85.8111
0
ARC
8
BLACK
10
294.473
20
-175.511
40
2.25009
50
-89.9976
51
-0.00241905
0
ARC
8
BLACK
10
277.558
20
-176.261
40
1.49989
50
-152.464
51
-90
0
ARC
8
BLACK
10
340.75
20
-85.061
40
1.4999
50
27.5369
51
90.0004
0
LINE
8
BLACK
6
CONTINUOUS
10
74.0498
20
-83.5611
11
61.8979
21
-83.5611
0
LINE
8
BLACK
6
CONTINUOUS
10
59.6479
20
-175.511
11
59.6479
21
-85.8111
0
LINE
8
BLACK
6
CONTINUOUS
10
63.35
20
-150.472
11
63.65
21
-150.772
0
LINE
8
BLACK
6
CONTINUOUS
10
63.65
20
-150.472
11
63.35
21
-150.772
0
LINE
8
BLACK
6
CONTINUOUS
10
64.62
20
-144.884
11
64.92
21
-145.184
0
LINE
8
BLACK
6
CONTINUOUS
10
64.92
20
-144.884
11
64.62
21
-145.184
0
LINE
8
BLACK
6
CONTINUOUS
10
64.62
20
-147.17
11
64.92
21
-147.47
0
LINE
8
BLACK
6
CONTINUOUS
10
64.92
20
-147.17
11
64.62
21
-147.47
0
LINE
8
BLACK
6
CONTINUOUS
10
67.414
20
-140.693
11
67.714
21
-140.993
0
LINE
8
BLACK
6
CONTINUOUS
10
67.714
20
-140.693
11
67.414
21
-140.993
0
LINE
8
BLACK
6
CONTINUOUS
10
71.4272
20
-137.569
11
71.7272
21
-137.869
0
LINE
8
BLACK
6
CONTINUOUS
10
71.7272
20
-137.569
11
71.4272
21
-137.869
0
LINE
8
BLACK
6
CONTINUOUS
10
79.098
20
-132.946
11
79.398
21
-133.246
0
LINE
8
BLACK
6
CONTINUOUS
10
79.398
20
-132.946
11
79.098
21
-133.246
0
LINE
8
BLACK
6
CONTINUOUS
10
82.047
20
-121.858
11
82.347
21
-122.158
0
LINE
8
BLACK
6
CONTINUOUS
10
82.347
20
-121.858
11
82.047
21
-122.158
0
LINE
8
BLACK
6
CONTINUOUS
10
85.448
20
-122.278
11
85.748
21
-122.578
0
LINE
8
BLACK
6
CONTINUOUS
10
85.748
20
-122.278
11
85.448
21
-122.578
0
LINE
8
BLACK
6
CONTINUOUS
10
85.8036
20
-126.901
11
86.1036
21
-127.201
0
LINE
8
BLACK
6
CONTINUOUS
10
86.1036
20
-126.901
11
85.8036
21
-127.201
0
LINE
8
BLACK
6
CONTINUOUS
10
86.5021
20
-130.454
11
86.8021
21
-130.754
0
LINE
8
BLACK
6
CONTINUOUS
10
86.8021
20
-130.454
11
86.5021
21
-130.754
0
LINE
8
BLACK
6
CONTINUOUS
10
89.258
20
-118.214
11
89.558
21
-118.514
0
LINE
8
BLACK
6
CONTINUOUS
10
89.558
20
-118.214
11
89.258
21
-118.514
0
LINE
8
BLACK
6
CONTINUOUS
10
89.338
20
-129.944
11
89.638
21
-130.244
0
LINE
8
BLACK
6
CONTINUOUS
10
89.638
20
-129.944
11
89.338
21
-130.244
0
LINE
8
BLACK
6
CONTINUOUS
10
89.893
20
-122.659
11
90.193
21
-122.959
0
LINE
8
BLACK
6
CONTINUOUS
10
90.193
20
-122.659
11
89.893
21
-122.959
0
LINE
8
BLACK
6
CONTINUOUS
10
89.893
20
-126.811
11
90.193
21
-127.111
0
LINE
8
BLACK
6
CONTINUOUS
10
90.193
20
-126.811
11
89.893
21
-127.111
0
LINE
8
BLACK
6
CONTINUOUS
10
92.56
20
-131.422
11
92.86
21
-131.722
0
LINE
8
BLACK
6
CONTINUOUS
10
92.86
20
-131.422
11
92.56
21
-131.722
0
LINE
8
BLACK
6
CONTINUOUS
10
94.8666
20
-125.559
11
95.1666
21
-125.859
0
LINE
8
BLACK
6
CONTINUOUS
10
95.1666
20
-125.559
11
94.8666
21
-125.859
0
LINE
8
BLACK
6
CONTINUOUS
10
99.6212
20
-120.602
11
99.9212
21
-120.902
0
LINE
8
BLACK
6
CONTINUOUS
10
99.9212
20
-120.602
11
99.6212
21
-120.902
0
LINE
8
BLACK
6
CONTINUOUS
10
101.831
20
-95.735
11
102.131
21
-96.035
0
LINE
8
BLACK
6
CONTINUOUS
10
102.131
20
-95.735
11
101.831
21
-96.035
0
LINE
8
BLACK
6
CONTINUOUS
10
104.371
20
-95.735
11
104.671
21
-96.035
0
LINE
8
BLACK
6
CONTINUOUS
10
104.671
20
-95.735
11
104.371
21
-96.035
0
CIRCLE
8
BLACK
10
61.722
20
-155.702
40
0.2
0
CIRCLE
8
BLACK
10
63.246
20
-125.73
40
0.2
0
CIRCLE
8
BLACK
10
63.373
20
-133.223
40
0.2
0
CIRCLE
8
BLACK
10
63.754
20
-154.813
40
0.2
0
CIRCLE
8
BLACK
10
65.278
20
-126.873
40
0.2
0
CIRCLE
8
BLACK
10
65.278
20
-175.641
40
0.2
0
CIRCLE
8
BLACK
10
65.6336
20
-132.613
40
0.2
0
CIRCLE
8
BLACK
10
66.167
20
-107.442
40
0.2
0
CIRCLE
8
BLACK
10
66.167
20
-156.718
40
0.2
0
CIRCLE
8
BLACK
10
66.548
20
-124.079
40
0.2
0
CIRCLE
8
BLACK
10
67.564
20
-124.587
40
0.2
0
CIRCLE
8
BLACK
10
67.564
20
-133.604
40
0.2
0
CIRCLE
8
BLACK
10
68.072
20
-132.207
40
0.2
0
CIRCLE
8
BLACK
10
68.199
20
-136.271
40
0.2
0
CIRCLE
8
BLACK
10
68.199
20
-154.813
40
0.2
0
CIRCLE
8
BLACK
10
68.707
20
-125.349
40
0.2
0
CIRCLE
8
BLACK
10
69.088
20
-133.985
40
0.2
0
CIRCLE
8
BLACK
10
69.596
20
-137.16
40
0.2
0
CIRCLE
8
BLACK
10
69.85
20
-107.442
40
0.2
0
CIRCLE
8
BLACK
10
70.104
20
-134.239
40
0.2
0
CIRCLE
8
BLACK
10
70.231
20
-136.271
40
0.2
0
CIRCLE
8
BLACK
10
72.009
20
-125.603
40
0.2
0
CIRCLE
8
BLACK
10
72.39
20
-133.985
40
0.2
0
CIRCLE
8
BLACK
10
72.517
20
-138.43
40
0.2
0
CIRCLE
8
BLACK
10
72.771
20
-101.6
40
0.2
0
CIRCLE
8
BLACK
10
72.771
20
-103.886
40
0.2
0
CIRCLE
8
BLACK
10
73.279
20
-139.446
40
0.2
0
CIRCLE
8
BLACK
10
73.66
20
-133.096
40
0.2
0
CIRCLE
8
BLACK
10
74.041
20
-104.775
40
0.2
0
CIRCLE
8
BLACK
10
74.93
20
-100.838
40
0.2
0
CIRCLE
8
BLACK
10
74.93
20
-128.27
40
0.2
0
CIRCLE
8
BLACK
10
75.438
20
-101.727
40
0.2
0
CIRCLE
8
BLACK
10
75.438
20
-104.013
40
0.2
0
CIRCLE
8
BLACK
10
76.327
20
-126.619
40
0.2
0
CIRCLE
8
BLACK
10
76.454
20
-139.446
40
0.2
0
CIRCLE
8
BLACK
10
77.216
20
-128.143
40
0.2
0
CIRCLE
8
BLACK
10
77.216
20
-138.684
40
0.2
0
CIRCLE
8
BLACK
10
78.105
20
-116.586
40
0.2
0
CIRCLE
8
BLACK
10
79.502
20
-122.428
40
0.2
0
CIRCLE
8
BLACK
10
80.518
20
-114.935
40
0.2
0
CIRCLE
8
BLACK
10
81.026
20
-125.476
40
0.2
0
CIRCLE
8
BLACK
10
82.423
20
-139.065
40
0.2
0
CIRCLE
8
BLACK
10
83.312
20
-98.933
40
0.2
0
CIRCLE
8
BLACK
10
83.947
20
-132.715
40
0.2
0
CIRCLE
8
BLACK
10
84.201
20
-117.856
40
0.2
0
CIRCLE
8
BLACK
10
84.455
20
-101.219
40
0.2
0
CIRCLE
8
BLACK
10
85.471
20
-98.171
40
0.2
0
CIRCLE
8
BLACK
10
85.725
20
-100.076
40
0.2
0
CIRCLE
8
BLACK
10
86.261
20
-133.057
40
0.2
0
CIRCLE
8
BLACK
10
87.0202
20
-123.869
40
0.2
0
CIRCLE
8
BLACK
10
87.0202
20
-124.885
40
0.2
0
CIRCLE
8
BLACK
10
87.0202
20
-125.901
40
0.2
0
CIRCLE
8
BLACK
10
87.6905
20
-119.047
40
0.2
0
CIRCLE
8
BLACK
10
88.0362
20
-123.869
40
0.2
0
CIRCLE
8
BLACK
10
88.0362
20
-124.885
40
0.2
0
CIRCLE
8
BLACK
10
88.0362
20
-125.901
40
0.2
0
CIRCLE
8
BLACK
10
89.027
20
-106.045
40
0.2
0
CIRCLE
8
BLACK
10
89.0522
20
-123.869
40
0.2
0
CIRCLE
8
BLACK
10
89.0522
20
-124.885
40
0.2
0
CIRCLE
8
BLACK
10
89.0522
20
-125.901
40
0.2
0
CIRCLE
8
BLACK
10
89.182
20
-136.779
40
0.2
0
CIRCLE
8
BLACK
10
90.17
20
-115.468
40
0.2
0
CIRCLE
8
BLACK
10
90.297
20
-104.394
40
0.2
0
CIRCLE
8
BLACK
10
90.678
20
-107.315
40
0.2
0
CIRCLE
8
BLACK
10
90.932
20
-116.586
40
0.2
0
CIRCLE
8
BLACK
10
90.932
20
-154.813
40
0.2
0
CIRCLE
8
BLACK
10
91.44
20
-113.538
40
0.2
0
CIRCLE
8
BLACK
10
91.948
20
-106.172
40
0.2
0
CIRCLE
8
BLACK
10
92.075
20
-109.093
40
0.2
0
CIRCLE
8
BLACK
10
93.853
20
-107.442
40
0.2
0
CIRCLE
8
BLACK
10
94.996
20
-121.666
40
0.2
0
CIRCLE
8
BLACK
10
98.044
20
-101.854
40
0.2
0
CIRCLE
8
BLACK
10
98.425
20
-138.43
40
0.2
0
CIRCLE
8
BLACK
10
98.933
20
-98.425
40
0.2
0
CIRCLE
8
BLACK
10
99.822
20
-109.728
40
0.2
0
CIRCLE
8
BLACK
10
102.362
20
-97.79
40
0.2
0
CIRCLE
8
BLACK
10
104.775
20
-102.489
40
0.2
0
CIRCLE
8
BLACK
10
106.553
20
-101.727
40
0.2
0
CIRCLE
8
BLACK
10
106.807
20
-104.521
40
0.2
0
CIRCLE
8
BLACK
10
106.934
20
-138.557
40
0.2
0
CIRCLE
8
BLACK
10
107.569
20
-157.48
40
0.2
0
CIRCLE
8
BLACK
10
108.077
20
-103.124
40
0.2
0
CIRCLE
8
BLACK
10
110.109
20
-155.321
40
0.2
0
CIRCLE
8
BLACK
10
110.998
20
-103.251
40
0.2
0
CIRCLE
8
BLACK
10
112.776
20
-114.427
40
0.2
0
CIRCLE
8
BLACK
10
114.3
20
-116.332
40
0.2
0
CIRCLE
8
BLACK
10
116.586
20
-118.872
40
0.2
0
CIRCLE
8
BLACK
10
116.713
20
-115.062
40
0.2
0
CIRCLE
8
BLACK
10
116.967
20
-136.398
40
0.2
0
CIRCLE
8
BLACK
10
118.872
20
-117.221
40
0.2
0
CIRCLE
8
BLACK
10
119.253
20
-138.557
40
0.2
0
CIRCLE
8
BLACK
10
121.92
20
-101.727
40
0.2
0
CIRCLE
8
BLACK
10
123.444
20
-96.393
40
0.2
0
CIRCLE
8
BLACK
10
131.318
20
-119.507
40
0.2
0
CIRCLE
8
BLACK
10
133.604
20
-117.221
40
0.2
0
CIRCLE
8
BLACK
10
136.017
20
-136.271
40
0.2
0
CIRCLE
8
BLACK
10
138.176
20
-138.43
40
0.2
0
CIRCLE
8
BLACK
10
140.843
20
-100.33
40
0.2
0
CIRCLE
8
BLACK
10
143.51
20
-98.044
40
0.2
0
CIRCLE
8
BLACK
10
150.622
20
-117.475
40
0.2
0
CIRCLE
8
BLACK
10
152.781
20
-119.253
40
0.2
0
CIRCLE
8
BLACK
10
155.194
20
-136.144
40
0.2
0
CIRCLE
8
BLACK
10
157.353
20
-138.303
40
0.2
0
CIRCLE
8
BLACK
10
159.893
20
-100.33
40
0.2
0
CIRCLE
8
BLACK
10
162.433
20
-98.171
40
0.2
0
CIRCLE
8
BLACK
10
164.846
20
-157.353
40
0.2
0
CIRCLE
8
BLACK
10
167.259
20
-155.448
40
0.2
0
CIRCLE
8
BLACK
10
169.291
20
-119.507
40
0.2
0
CIRCLE
8
BLACK
10
171.958
20
-117.094
40
0.2
0
CIRCLE
8
BLACK
10
174.117
20
-136.017
40
0.2
0
CIRCLE
8
BLACK
10
176.403
20
-138.43
40
0.2
0
CIRCLE
8
BLACK
10
178.435
20
-100.457
40
0.2
0
CIRCLE
8
BLACK
10
181.737
20
-98.044
40
0.2
0
CIRCLE
8
BLACK
10
183.515
20
-155.448
40
0.2
0
CIRCLE
8
BLACK
10
186.055
20
-157.861
40
0.2
0
CIRCLE
8
BLACK
10
188.087
20
-119.507
40
0.2
0
CIRCLE
8
BLACK
10
191.008
20
-117.094
40
0.2
0
CIRCLE
8
BLACK
10
193.04
20
-136.144
40
0.2
0
CIRCLE
8
BLACK
10
195.453
20
-138.557
40
0.2
0
CIRCLE
8
BLACK
10
197.866
20
-100.33
40
0.2
0
CIRCLE
8
BLACK
10
200.533
20
-98.171
40
0.2
0
CIRCLE
8
BLACK
10
207.645
20
-119.253
40
0.2
0
CIRCLE
8
BLACK
10
209.677
20
-117.348
40
0.2
0
CIRCLE
8
BLACK
10
212.344
20
-136.271
40
0.2
0
CIRCLE
8
BLACK
10
214.884
20
-138.557
40
0.2
0
CIRCLE
8
BLACK
10
217.17
20
-100.203
40
0.2
0
CIRCLE
8
BLACK
10
219.71
20
-98.171
40
0.2
0
CIRCLE
8
BLACK
10
222.504
20
-157.48
40
0.2
0
CIRCLE
8
BLACK
10
224.028
20
-155.321
40
0.2
0
CIRCLE
8
BLACK
10
226.06
20
-119.253
40
0.2
0
CIRCLE
8
BLACK
10
228.219
20
-117.348
40
0.2
0
CIRCLE
8
BLACK
10
231.521
20
-136.271
40
0.2
0
CIRCLE
8
BLACK
10
233.426
20
-138.303
40
0.2
0
CIRCLE
8
BLACK
10
235.966
20
-100.457
40
0.2
0
CIRCLE
8
BLACK
10
238.633
20
-98.171
40
0.2
0
CIRCLE
8
BLACK
10
244.729
20
-155.575
40
0.2
0
CIRCLE
8
BLACK
10
244.983
20
-119.126
40
0.2
0
CIRCLE
8
BLACK
10
247.269
20
-117.348
40
0.2
0
CIRCLE
8
BLACK
10
249.174
20
-157.353
40
0.2
0
CIRCLE
8
BLACK
10
250.444
20
-136.398
40
0.2
0
CIRCLE
8
BLACK
10
252.476
20
-138.557
40
0.2
0
CIRCLE
8
BLACK
10
255.016
20
-100.457
40
0.2
0
CIRCLE
8
BLACK
10
257.81
20
-98.044
40
0.2
0
CIRCLE
8
BLACK
10
264.16
20
-119.126
40
0.2
0
CIRCLE
8
BLACK
10
266.319
20
-117.348
40
0.2
0
CIRCLE
8
BLACK
10
269.494
20
-136.398
40
0.2
0
CIRCLE
8
BLACK
10
271.526
20
-138.43
40
0.2
0
CIRCLE
8
BLACK
10
274.32
20
-100.203
40
0.2
0
CIRCLE
8
BLACK
10
276.733
20
-98.298
40
0.2
0
CIRCLE
8
BLACK
10
278.384
20
-155.321
40
0.2
0
CIRCLE
8
BLACK
10
281.305
20
-157.607
40
0.2
0
CIRCLE
8
BLACK
10
283.083
20
-119.38
40
0.2
0
CIRCLE
8
BLACK
10
285.369
20
-117.348
40
0.2
0
CIRCLE
8
BLACK
10
287.909
20
-136.271
40
0.2
0
CIRCLE
8
BLACK
10
290.449
20
-138.557
40
0.2
0
CIRCLE
8
BLACK
10
293.116
20
-100.33
40
0.2
0
CIRCLE
8
BLACK
10
293.624
20
-136.652
40
0.2
0
CIRCLE
8
BLACK
10
295.148
20
-137.541
40
0.2
0
CIRCLE
8
BLACK
10
295.529
20
-98.298
40
0.2
0
CIRCLE
8
BLACK
10
297.307
20
-137.541
40
0.2
0
CIRCLE
8
BLACK
10
297.942
20
-136.144
40
0.2
0
CIRCLE
8
BLACK
10
302.133
20
-119.253
40
0.2
0
CIRCLE
8
BLACK
10
302.387
20
-136.906
40
0.2
0
CIRCLE
8
BLACK
10
304.419
20
-117.221
40
0.2
0
CIRCLE
8
BLACK
10
304.419
20
-134.874
40
0.2
0
CIRCLE
8
BLACK
10
305.689
20
-118.364
40
0.2
0
CIRCLE
8
BLACK
10
307.848
20
-155.321
40
0.2
0
CIRCLE
8
BLACK
10
309.372
20
-157.353
40
0.2
0
CIRCLE
8
BLACK
10
311.785
20
-118.364
40
0.2
0
CIRCLE
8
BLACK
10
313.69
20
-123.952
40
0.2
0
CIRCLE
8
BLACK
10
314.452
20
-110.871
40
0.2
0
CIRCLE
8
BLACK
10
314.452
20
-113.411
40
0.2
0
CIRCLE
8
BLACK
10
315.341
20
-119.888
40
0.2
0
CIRCLE
8
BLACK
10
315.722
20
-98.679
40
0.2
0
CIRCLE
8
BLACK
10
315.722
20
-112.522
40
0.2
0
CIRCLE
8
BLACK
10
316.23
20
-127.508
40
0.2
0
CIRCLE
8
BLACK
10
317.373
20
-97.663
40
0.2
0
CIRCLE
8
BLACK
10
318.262
20
-101.6
40
0.2
0
CIRCLE
8
BLACK
10
318.389
20
-96.52
40
0.2
0
CIRCLE
8
BLACK
10
319.151
20
-116.205
40
0.2
0
CIRCLE
8
BLACK
10
320.548
20
-100.711
40
0.2
0
CIRCLE
8
BLACK
10
320.548
20
-118.745
40
0.2
0
CIRCLE
8
BLACK
10
320.675
20
-97.663
40
0.2
0
CIRCLE
8
BLACK
10
320.675
20
-99.441
40
0.2
0
CIRCLE
8
BLACK
10
322.707
20
-120.142
40
0.2
0
CIRCLE
8
BLACK
10
323.215
20
-116.459
40
0.2
0
CIRCLE
8
BLACK
10
327.279
20
-115.57
40
0.2
0
CIRCLE
8
BLACK
10
328.295
20
-124.968
40
0.2
0
CIRCLE
8
BLACK
10
330.708
20
-127.381
40
0.2
0
CIRCLE
8
BLACK
10
330.962
20
-137.668
40
0.2
0
CIRCLE
8
BLACK
10
330.962
20
-155.321
40
0.2
0
CIRCLE
8
BLACK
10
331.343
20
-128.397
40
0.2
0
CIRCLE
8
BLACK
10
332.232
20
-125.73
40
0.2
0
CIRCLE
8
BLACK
10
333.375
20
-135.382
40
0.2
0
CIRCLE
8
BLACK
10
333.375
20
-157.353
40
0.2
0
CIRCLE
8
BLACK
10
340.868
20
-119.507
40
0.2
0
CIRCLE
8
BLACK
10
341.249
20
-115.57
40
0.2
0
CIRCLE
8
BLACK
10
343.535
20
-117.348
40
0.2
0
CIRCLE
8
BLACK
10
349.631
20
-119.761
40
0.2
0
CIRCLE
8
BLACK
10
350.139
20
-97.155
40
0.2
0
CIRCLE
8
BLACK
10
350.139
20
-137.541
40
0.2
0
CIRCLE
8
BLACK
10
350.139
20
-157.607
40
0.2
0
CIRCLE
8
BLACK
10
352.425
20
-135.382
40
0.2
0
CIRCLE
8
BLACK
10
352.425
20
-155.321
40
0.2
0
CIRCLE
8
BLACK
10
352.552
20
-117.221
40
0.2
0
CIRCLE
8
BLACK
10
352.933
20
-99.695
40
0.2
0
LINE
8
BLACK
6
CONTINUOUS
10
62.23
20
-140.724
11
62.23
21
-141.724
0
LINE
8
BLACK
6
CONTINUOUS
10
61.73
20
-141.224
11
62.73
21
-141.224
0
LINE
8
BLACK
6
CONTINUOUS
10
62.23
20
-143.264
11
62.23
21
-144.264
0
LINE
8
BLACK
6
CONTINUOUS
10
61.73
20
-143.764
11
62.73
21
-143.764
0
LINE
8
BLACK
6
CONTINUOUS
10
62.23
20
-145.804
11
62.23
21
-146.804
0
LINE
8
BLACK
6
CONTINUOUS
10
61.73
20
-146.304
11
62.73
21
-146.304
0
LINE
8
BLACK
6
CONTINUOUS
10
62.23
20
-148.344
11
62.23
21
-149.344
0
LINE
8
BLACK
6
CONTINUOUS
10
61.73
20
-148.844
11
62.73
21
-148.844
0
LINE
8
BLACK
6
CONTINUOUS
10
62.23
20
-150.884
11
62.23
21
-151.884
0
LINE
8
BLACK
6
CONTINUOUS
10
61.73
20
-151.384
11
62.73
21
-151.384
0
LINE
8
BLACK
6
CONTINUOUS
10
65.7851
20
-90.8676
11
65.7851
21
-89.7899
0
LINE
8
BLACK
6
CONTINUOUS
10
65.7851
20
-89.7899
11
64.7074
21
-89.7899
0
LINE
8
BLACK
6
CONTINUOUS
10
64.7074
20
-89.7899
11
64.7074
21
-90.8676
0
LINE
8
BLACK
6
CONTINUOUS
10
64.7074
20
-90.8676
11
65.7851
21
-90.8676
0
LINE
8
BLACK
6
CONTINUOUS
10
68.1663
20
-128.968
11
68.1663
21
-127.89
0
LINE
8
BLACK
6
CONTINUOUS
10
68.1663
20
-127.89
11
67.0887
21
-127.89
0
LINE
8
BLACK
6
CONTINUOUS
10
67.0887
20
-127.89
11
67.0887
21
-128.968
0
LINE
8
BLACK
6
CONTINUOUS
10
67.0887
20
-128.968
11
68.1663
21
-128.968
0
LINE
8
BLACK
6
CONTINUOUS
10
68.1663
20
-148.018
11
68.1663
21
-146.94
0
LINE
8
BLACK
6
CONTINUOUS
10
68.1663
20
-146.94
11
67.0887
21
-146.94
0
LINE
8
BLACK
6
CONTINUOUS
10
67.0887
20
-146.94
11
67.0887
21
-148.018
0
LINE
8
BLACK
6
CONTINUOUS
10
67.0887
20
-148.018
11
68.1663
21
-148.018
0
LINE
8
BLACK
6
CONTINUOUS
10
68.1663
20
-167.068
11
68.1663
21
-165.99
0
LINE
8
BLACK
6
CONTINUOUS
10
68.1663
20
-165.99
11
67.0887
21
-165.99
0
LINE
8
BLACK
6
CONTINUOUS
10
67.0887
20
-165.99
11
67.0887
21
-167.068
0
LINE
8
BLACK
6
CONTINUOUS
10
67.0887
20
-167.068
11
68.1663
21
-167.068
0
LINE
8
BLACK
6
CONTINUOUS
10
70.5476
20
-109.918
11
70.5476
21
-108.84
0
LINE
8
BLACK
6
CONTINUOUS
10
70.5476
20
-108.84
11
69.4699
21
-108.84
0
LINE
8
BLACK
6
CONTINUOUS
10
69.4699
20
-108.84
11
69.4699
21
-109.918
0
LINE
8
BLACK
6
CONTINUOUS
10
69.4699
20
-109.918
11
70.5476
21
-109.918
0
LINE
8
BLACK
6
CONTINUOUS
10
70.5476
20
-167.068
11
70.5476
21
-165.99
0
LINE
8
BLACK
6
CONTINUOUS
10
70.5476
20
-165.99
11
69.4699
21
-165.99
0
LINE
8
BLACK
6
CONTINUOUS
10
69.4699
20
-165.99
11
69.4699
21
-167.068
0
LINE
8
BLACK
6
CONTINUOUS
10
69.4699
20
-167.068
11
70.5476
21
-167.068
0
LINE
8
BLACK
6
CONTINUOUS
10
72.1351
20
-88.3276
11
72.1351
21
-87.2499
0
LINE
8
BLACK
6
CONTINUOUS
10
72.1351
20
-87.2499
11
71.0574
21
-87.2499
0
LINE
8
BLACK
6
CONTINUOUS
10
71.0574
20
-87.2499
11
71.0574
21
-88.3276
0
LINE
8
BLACK
6
CONTINUOUS
10
71.0574
20
-88.3276
11
72.1351
21
-88.3276
0
LINE
8
BLACK
6
CONTINUOUS
10
72.9288
20
-128.968
11
72.9288
21
-127.89
0
LINE
8
BLACK
6
CONTINUOUS
10
72.9288
20
-127.89
11
71.8512
21
-127.89
0
LINE
8
BLACK
6
CONTINUOUS
10
71.8512
20
-127.89
11
71.8512
21
-128.968
0
LINE
8
BLACK
6
CONTINUOUS
10
71.8512
20
-128.968
11
72.9288
21
-128.968
0
LINE
8
BLACK
6
CONTINUOUS
10
74.5163
20
-126.428
11
74.5163
21
-125.35
0
LINE
8
BLACK
6
CONTINUOUS
10
74.5163
20
-125.35
11
73.4387
21
-125.35
0
LINE
8
BLACK
6
CONTINUOUS
10
73.4387
20
-125.35
11
73.4387
21
-126.428
0
LINE
8
BLACK
6
CONTINUOUS
10
73.4387
20
-126.428
11
74.5163
21
-126.428
0
LINE
8
BLACK
6
CONTINUOUS
10
74.5163
20
-145.478
11
74.5163
21
-144.4
0
LINE
8
BLACK
6
CONTINUOUS
10
74.5163
20
-144.4
11
73.4387
21
-144.4
0
LINE
8
BLACK
6
CONTINUOUS
10
73.4387
20
-144.4
11
73.4387
21
-145.478
0
LINE
8
BLACK
6
CONTINUOUS
10
73.4387
20
-145.478
11
74.5163
21
-145.478
0
LINE
8
BLACK
6
CONTINUOUS
10
74.5163
20
-164.528
11
74.5163
21
-163.45
0
LINE
8
BLACK
6
CONTINUOUS
10
74.5163
20
-163.45
11
73.4387
21
-163.45
0
LINE
8
BLACK
6
CONTINUOUS
10
73.4387
20
-163.45
11
73.4387
21
-164.528
0
LINE
8
BLACK
6
CONTINUOUS
10
73.4387
20
-164.528
11
74.5163
21
-164.528
0
LINE
8
BLACK
6
CONTINUOUS
10
76.8976
20
-107.378
11
76.8976
21
-106.3
0
LINE
8
BLACK
6
CONTINUOUS
10
76.8976
20
-106.3
11
75.8199
21
-106.3
0
LINE
8
BLACK
6
CONTINUOUS
10
75.8199
20
-106.3
11
75.8199
21
-107.378
0
LINE
8
BLACK
6
CONTINUOUS
10
75.8199
20
-107.378
11
76.8976
21
-107.378
0
LINE
8
BLACK
6
CONTINUOUS
10
76.8976
20
-164.528
11
76.8976
21
-163.45
0
LINE
8
BLACK
6
CONTINUOUS
10
76.8976
20
-163.45
11
75.8199
21
-163.45
0
LINE
8
BLACK
6
CONTINUOUS
10
75.8199
20
-163.45
11
75.8199
21
-164.528
0
LINE
8
BLACK
6
CONTINUOUS
10
75.8199
20
-164.528
11
76.8976
21
-164.528
0
LINE
8
BLACK
6
CONTINUOUS
10
77.6913
20
-148.018
11
77.6913
21
-146.94
0
LINE
8
BLACK
6
CONTINUOUS
10
77.6913
20
-146.94
11
76.6137
21
-146.94
0
LINE
8
BLACK
6
CONTINUOUS
10
76.6137
20
-146.94
11
76.6137
21
-148.018
0
LINE
8
BLACK
6
CONTINUOUS
10
76.6137
20
-148.018
11
77.6913
21
-148.018
0
LINE
8
BLACK
6
CONTINUOUS
10
79.2788
20
-126.428
11
79.2788
21
-125.35
0
LINE
8
BLACK
6
CONTINUOUS
10
79.2788
20
-125.35
11
78.2012
21
-125.35
0
LINE
8
BLACK
6
CONTINUOUS
10
78.2012
20
-125.35
11
78.2012
21
-126.428
0
LINE
8
BLACK
6
CONTINUOUS
10
78.2012
20
-126.428
11
79.2788
21
-126.428
0
LINE
8
BLACK
6
CONTINUOUS
10
84.0413
20
-145.478
11
84.0413
21
-144.4
0
LINE
8
BLACK
6
CONTINUOUS
10
84.0413
20
-144.4
11
82.9637
21
-144.4
0
LINE
8
BLACK
6
CONTINUOUS
10
82.9637
20
-144.4
11
82.9637
21
-145.478
0
LINE
8
BLACK
6
CONTINUOUS
10
82.9637
20
-145.478
11
84.0413
21
-145.478
0
LINE
8
BLACK
6
CONTINUOUS
10
84.8351
20
-90.8676
11
84.8351
21
-89.7899
0
LINE
8
BLACK
6
CONTINUOUS
10
84.8351
20
-89.7899
11
83.7574
21
-89.7899
0
LINE
8
BLACK
6
CONTINUOUS
10
83.7574
20
-89.7899
11
83.7574
21
-90.8676
0
LINE
8
BLACK
6
CONTINUOUS
10
83.7574
20
-90.8676
11
84.8351
21
-90.8676
0
LINE
8
BLACK
6
CONTINUOUS
10
89.5976
20
-148.018
11
89.5976
21
-146.94
0
LINE
8
BLACK
6
CONTINUOUS
10
89.5976
20
-146.94
11
88.5199
21
-146.94
0
LINE
8
BLACK
6
CONTINUOUS
10
88.5199
20
-146.94
11
88.5199
21
-148.018
0
LINE
8
BLACK
6
CONTINUOUS
10
88.5199
20
-148.018
11
89.5976
21
-148.018
0
LINE
8
BLACK
6
CONTINUOUS
10
91.1851
20
-88.3276
11
91.1851
21
-87.2499
0
LINE
8
BLACK
6
CONTINUOUS
10
91.1851
20
-87.2499
11
90.1074
21
-87.2499
0
LINE
8
BLACK
6
CONTINUOUS
10
90.1074
20
-87.2499
11
90.1074
21
-88.3276
0
LINE
8
BLACK
6
CONTINUOUS
10
90.1074
20
-88.3276
11
91.1851
21
-88.3276
0
LINE
8
BLACK
6
CONTINUOUS
10
91.9788
20
-167.068
11
91.9788
21
-165.99
0
LINE
8
BLACK
6
CONTINUOUS
10
91.9788
20
-165.99
11
90.9012
21
-165.99
0
LINE
8
BLACK
6
CONTINUOUS
10
90.9012
20
-165.99
11
90.9012
21
-167.068
0
LINE
8
BLACK
6
CONTINUOUS
10
90.9012
20
-167.068
11
91.9788
21
-167.068
0
LINE
8
BLACK
6
CONTINUOUS
10
94.3601
20
-109.918
11
94.3601
21
-108.84
0
LINE
8
BLACK
6
CONTINUOUS
10
94.3601
20
-108.84
11
93.2824
21
-108.84
0
LINE
8
BLACK
6
CONTINUOUS
10
93.2824
20
-108.84
11
93.2824
21
-109.918
0
LINE
8
BLACK
6
CONTINUOUS
10
93.2824
20
-109.918
11
94.3601
21
-109.918
0
LINE
8
BLACK
6
CONTINUOUS
10
94.3601
20
-167.068
11
94.3601
21
-165.99
0
LINE
8
BLACK
6
CONTINUOUS
10
94.3601
20
-165.99
11
93.2824
21
-165.99
0
LINE
8
BLACK
6
CONTINUOUS
10
93.2824
20
-165.99
11
93.2824
21
-167.068
0
LINE
8
BLACK
6
CONTINUOUS
10
93.2824
20
-167.068
11
94.3601
21
-167.068
0
LINE
8
BLACK
6
CONTINUOUS
10
95.9476
20
-145.478
11
95.9476
21
-144.4
0
LINE
8
BLACK
6
CONTINUOUS
10
95.9476
20
-144.4
11
94.8699
21
-144.4
0
LINE
8
BLACK
6
CONTINUOUS
10
94.8699
20
-144.4
11
94.8699
21
-145.478
0
LINE
8
BLACK
6
CONTINUOUS
10
94.8699
20
-145.478
11
95.9476
21
-145.478
0
LINE
8
BLACK
6
CONTINUOUS
10
98.3288
20
-164.528
11
98.3288
21
-163.45
0
LINE
8
BLACK
6
CONTINUOUS
10
98.3288
20
-163.45
11
97.2512
21
-163.45
0
LINE
8
BLACK
6
CONTINUOUS
10
97.2512
20
-163.45
11
97.2512
21
-164.528
0
LINE
8
BLACK
6
CONTINUOUS
10
97.2512
20
-164.528
11
98.3288
21
-164.528
0
LINE
8
BLACK
6
CONTINUOUS
10
99.1226
20
-128.968
11
99.1226
21
-127.89
0
LINE
8
BLACK
6
CONTINUOUS
10
99.1226
20
-127.89
11
98.0449
21
-127.89
0
LINE
8
BLACK
6
CONTINUOUS
10
98.0449
20
-127.89
11
98.0449
21
-128.968
0
LINE
8
BLACK
6
CONTINUOUS
10
98.0449
20
-128.968
11
99.1226
21
-128.968
0
LINE
8
BLACK
6
CONTINUOUS
10
100.71
20
-107.378
11
100.71
21
-106.3
0
LINE
8
BLACK
6
CONTINUOUS
10
100.71
20
-106.3
11
99.6324
21
-106.3
0
LINE
8
BLACK
6
CONTINUOUS
10
99.6324
20
-106.3
11
99.6324
21
-107.378
0
LINE
8
BLACK
6
CONTINUOUS
10
99.6324
20
-107.378
11
100.71
21
-107.378
0
LINE
8
BLACK
6
CONTINUOUS
10
100.71
20
-164.528
11
100.71
21
-163.45
0
LINE
8
BLACK
6
CONTINUOUS
10
100.71
20
-163.45
11
99.6324
21
-163.45
0
LINE
8
BLACK
6
CONTINUOUS
10
99.6324
20
-163.45
11
99.6324
21
-164.528
0
LINE
8
BLACK
6
CONTINUOUS
10
99.6324
20
-164.528
11
100.71
21
-164.528
0
LINE
8
BLACK
6
CONTINUOUS
10
103.885
20
-90.8676
11
103.885
21
-89.7899
0
LINE
8
BLACK
6
CONTINUOUS
10
103.885
20
-89.7899
11
102.807
21
-89.7899
0
LINE
8
BLACK
6
CONTINUOUS
10
102.807
20
-89.7899
11
102.807
21
-90.8676
0
LINE
8
BLACK
6
CONTINUOUS
10
102.807
20
-90.8676
11
103.885
21
-90.8676
0
LINE
8
BLACK
6
CONTINUOUS
10
105.473
20
-126.428
11
105.473
21
-125.35
0
LINE
8
BLACK
6
CONTINUOUS
10
105.473
20
-125.35
11
104.395
21
-125.35
0
LINE
8
BLACK
6
CONTINUOUS
10
104.395
20
-125.35
11
104.395
21
-126.428
0
LINE
8
BLACK
6
CONTINUOUS
10
104.395
20
-126.428
11
105.473
21
-126.428
0
LINE
8
BLACK
6
CONTINUOUS
10
108.648
20
-148.018
11
108.648
21
-146.94
0
LINE
8
BLACK
6
CONTINUOUS
10
108.648
20
-146.94
11
107.57
21
-146.94
0
LINE
8
BLACK
6
CONTINUOUS
10
107.57
20
-146.94
11
107.57
21
-148.018
0
LINE
8
BLACK
6
CONTINUOUS
10
107.57
20
-148.018
11
108.648
21
-148.018
0
LINE
8
BLACK
6
CONTINUOUS
10
110.235
20
-88.3276
11
110.235
21
-87.2499
0
LINE
8
BLACK
6
CONTINUOUS
10
110.235
20
-87.2499
11
109.157
21
-87.2499
0
LINE
8
BLACK
6
CONTINUOUS
10
109.157
20
-87.2499
11
109.157
21
-88.3276
0
LINE
8
BLACK
6
CONTINUOUS
10
109.157
20
-88.3276
11
110.235
21
-88.3276
0
LINE
8
BLACK
6
CONTINUOUS
10
113.41
20
-109.918
11
113.41
21
-108.84
0
LINE
8
BLACK
6
CONTINUOUS
10
113.41
20
-108.84
11
112.332
21
-108.84
0
LINE
8
BLACK
6
CONTINUOUS
10
112.332
20
-108.84
11
112.332
21
-109.918
0
LINE
8
BLACK
6
CONTINUOUS
10
112.332
20
-109.918
11
113.41
21
-109.918
0
LINE
8
BLACK
6
CONTINUOUS
10
114.998
20
-145.478
11
114.998
21
-144.4
0
LINE
8
BLACK
6
CONTINUOUS
10
114.998
20
-144.4
11
113.92
21
-144.4
0
LINE
8
BLACK
6
CONTINUOUS
10
113.92
20
-144.4
11
113.92
21
-145.478
0
LINE
8
BLACK
6
CONTINUOUS
10
113.92
20
-145.478
11
114.998
21
-145.478
0
LINE
8
BLACK
6
CONTINUOUS
10
115.791
20
-167.068
11
115.791
21
-165.99
0
LINE
8
BLACK
6
CONTINUOUS
10
115.791
20
-165.99
11
114.714
21
-165.99
0
LINE
8
BLACK
6
CONTINUOUS
10
114.714
20
-165.99
11
114.714
21
-167.068
0
LINE
8
BLACK
6
CONTINUOUS
10
114.714
20
-167.068
11
115.791
21
-167.068
0
LINE
8
BLACK
6
CONTINUOUS
10
118.173
20
-128.968
11
118.173
21
-127.89
0
LINE
8
BLACK
6
CONTINUOUS
10
118.173
20
-127.89
11
117.095
21
-127.89
0
LINE
8
BLACK
6
CONTINUOUS
10
117.095
20
-127.89
11
117.095
21
-128.968
0
LINE
8
BLACK
6
CONTINUOUS
10
117.095
20
-128.968
11
118.173
21
-128.968
0
LINE
8
BLACK
6
CONTINUOUS
10
118.173
20
-167.068
11
118.173
21
-165.99
0
LINE
8
BLACK
6
CONTINUOUS
10
118.173
20
-165.99
11
117.095
21
-165.99
0
LINE
8
BLACK
6
CONTINUOUS
10
117.095
20
-165.99
11
117.095
21
-167.068
0
LINE
8
BLACK
6
CONTINUOUS
10
117.095
20
-167.068
11
118.173
21
-167.068
0
LINE
8
BLACK
6
CONTINUOUS
10
119.76
20
-107.378
11
119.76
21
-106.3
0
LINE
8
BLACK
6
CONTINUOUS
10
119.76
20
-106.3
11
118.682
21
-106.3
0
LINE
8
BLACK
6
CONTINUOUS
10
118.682
20
-106.3
11
118.682
21
-107.378
0
LINE
8
BLACK
6
CONTINUOUS
10
118.682
20
-107.378
11
119.76
21
-107.378
0
LINE
8
BLACK
6
CONTINUOUS
10
122.141
20
-164.528
11
122.141
21
-163.45
0
LINE
8
BLACK
6
CONTINUOUS
10
122.141
20
-163.45
11
121.064
21
-163.45
0
LINE
8
BLACK
6
CONTINUOUS
10
121.064
20
-163.45
11
121.064
21
-164.528
0
LINE
8
BLACK
6
CONTINUOUS
10
121.064
20
-164.528
11
122.141
21
-164.528
0
LINE
8
BLACK
6
CONTINUOUS
10
122.935
20
-90.8676
11
122.935
21
-89.7899
0
LINE
8
BLACK
6
CONTINUOUS
10
122.935
20
-89.7899
11
121.857
21
-89.7899
0
LINE
8
BLACK
6
CONTINUOUS
10
121.857
20
-89.7899
11
121.857
21
-90.8676
0
LINE
8
BLACK
6
CONTINUOUS
10
121.857
20
-90.8676
11
122.935
21
-90.8676
0
LINE
8
BLACK
6
CONTINUOUS
10
124.523
20
-126.428
11
124.523
21
-125.35
0
LINE
8
BLACK
6
CONTINUOUS
10
124.523
20
-125.35
11
123.445
21
-125.35
0
LINE
8
BLACK
6
CONTINUOUS
10
123.445
20
-125.35
11
123.445
21
-126.428
0
LINE
8
BLACK
6
CONTINUOUS
10
123.445
20
-126.428
11
124.523
21
-126.428
0
LINE
8
BLACK
6
CONTINUOUS
10
124.523
20
-164.528
11
124.523
21
-163.45
0
LINE
8
BLACK
6
CONTINUOUS
10
124.523
20
-163.45
11
123.445
21
-163.45
0
LINE
8
BLACK
6
CONTINUOUS
10
123.445
20
-163.45
11
123.445
21
-164.528
0
LINE
8
BLACK
6
CONTINUOUS
10
123.445
20
-164.528
11
124.523
21
-164.528
0
LINE
8
BLACK
6
CONTINUOUS
10
127.698
20
-148.018
11
127.698
21
-146.94
0
LINE
8
BLACK
6
CONTINUOUS
10
127.698
20
-146.94
11
126.62
21
-146.94
0
LINE
8
BLACK
6
CONTINUOUS
10
126.62
20
-146.94
11
126.62
21
-148.018
0
LINE
8
BLACK
6
CONTINUOUS
10
126.62
20
-148.018
11
127.698
21
-148.018
0
LINE
8
BLACK
6
CONTINUOUS
10
129.285
20
-88.3276
11
129.285
21
-87.2499
0
LINE
8
BLACK
6
CONTINUOUS
10
129.285
20
-87.2499
11
128.207
21
-87.2499
0
LINE
8
BLACK
6
CONTINUOUS
10
128.207
20
-87.2499
11
128.207
21
-88.3276
0
LINE
8
BLACK
6
CONTINUOUS
10
128.207
20
-88.3276
11
129.285
21
-88.3276
0
LINE
8
BLACK
6
CONTINUOUS
10
132.46
20
-109.918
11
132.46
21
-108.84
0
LINE
8
BLACK
6
CONTINUOUS
10
132.46
20
-108.84
11
131.382
21
-108.84
0
LINE
8
BLACK
6
CONTINUOUS
10
131.382
20
-108.84
11
131.382
21
-109.918
0
LINE
8
BLACK
6
CONTINUOUS
10
131.382
20
-109.918
11
132.46
21
-109.918
0
LINE
8
BLACK
6
CONTINUOUS
10
134.048
20
-145.478
11
134.048
21
-144.4
0
LINE
8
BLACK
6
CONTINUOUS
10
134.048
20
-144.4
11
132.97
21
-144.4
0
LINE
8
BLACK
6
CONTINUOUS
10
132.97
20
-144.4
11
132.97
21
-145.478
0
LINE
8
BLACK
6
CONTINUOUS
10
132.97
20
-145.478
11
134.048
21
-145.478
0
LINE
8
BLACK
6
CONTINUOUS
10
137.223
20
-128.968
11
137.223
21
-127.89
0
LINE
8
BLACK
6
CONTINUOUS
10
137.223
20
-127.89
11
136.145
21
-127.89
0
LINE
8
BLACK
6
CONTINUOUS
10
136.145
20
-127.89
11
136.145
21
-128.968
0
LINE
8
BLACK
6
CONTINUOUS
10
136.145
20
-128.968
11
137.223
21
-128.968
0
LINE
8
BLACK
6
CONTINUOUS
10
138.81
20
-107.378
11
138.81
21
-106.3
0
LINE
8
BLACK
6
CONTINUOUS
10
138.81
20
-106.3
11
137.732
21
-106.3
0
LINE
8
BLACK
6
CONTINUOUS
10
137.732
20
-106.3
11
137.732
21
-107.378
0
LINE
8
BLACK
6
CONTINUOUS
10
137.732
20
-107.378
11
138.81
21
-107.378
0
LINE
8
BLACK
6
CONTINUOUS
10
141.985
20
-90.8676
11
141.985
21
-89.7899
0
LINE
8
BLACK
6
CONTINUOUS
10
141.985
20
-89.7899
11
140.907
21
-89.7899
0
LINE
8
BLACK
6
CONTINUOUS
10
140.907
20
-89.7899
11
140.907
21
-90.8676
0
LINE
8
BLACK
6
CONTINUOUS
10
140.907
20
-90.8676
11
141.985
21
-90.8676
0
LINE
8
BLACK
6
CONTINUOUS
10
143.573
20
-126.428
11
143.573
21
-125.35
0
LINE
8
BLACK
6
CONTINUOUS
10
143.573
20
-125.35
11
142.495
21
-125.35
0
LINE
8
BLACK
6
CONTINUOUS
10
142.495
20
-125.35
11
142.495
21
-126.428
0
LINE
8
BLACK
6
CONTINUOUS
10
142.495
20
-126.428
11
143.573
21
-126.428
0
LINE
8
BLACK
6
CONTINUOUS
10
146.748
20
-148.018
11
146.748
21
-146.94
0
LINE
8
BLACK
6
CONTINUOUS
10
146.748
20
-146.94
11
145.67
21
-146.94
0
LINE
8
BLACK
6
CONTINUOUS
10
145.67
20
-146.94
11
145.67
21
-148.018
0
LINE
8
BLACK
6
CONTINUOUS
10
145.67
20
-148.018
11
146.748
21
-148.018
0
LINE
8
BLACK
6
CONTINUOUS
10
148.335
20
-88.3276
11
148.335
21
-87.2499
0
LINE
8
BLACK
6
CONTINUOUS
10
148.335
20
-87.2499
11
147.257
21
-87.2499
0
LINE
8
BLACK
6
CONTINUOUS
10
147.257
20
-87.2499
11
147.257
21
-88.3276
0
LINE
8
BLACK
6
CONTINUOUS
10
147.257
20
-88.3276
11
148.335
21
-88.3276
0
LINE
8
BLACK
6
CONTINUOUS
10
151.51
20
-109.918
11
151.51
21
-108.84
0
LINE
8
BLACK
6
CONTINUOUS
10
151.51
20
-108.84
11
150.432
21
-108.84
0
LINE
8
BLACK
6
CONTINUOUS
10
150.432
20
-108.84
11
150.432
21
-109.918
0
LINE
8
BLACK
6
CONTINUOUS
10
150.432
20
-109.918
11
151.51
21
-109.918
0
LINE
8
BLACK
6
CONTINUOUS
10
153.098
20
-145.478
11
153.098
21
-144.4
0
LINE
8
BLACK
6
CONTINUOUS
10
153.098
20
-144.4
11
152.02
21
-144.4
0
LINE
8
BLACK
6
CONTINUOUS
10
152.02
20
-144.4
11
152.02
21
-145.478
0
LINE
8
BLACK
6
CONTINUOUS
10
152.02
20
-145.478
11
153.098
21
-145.478
0
LINE
8
BLACK
6
CONTINUOUS
10
153.891
20
-167.068
11
153.891
21
-165.99
0
LINE
8
BLACK
6
CONTINUOUS
10
153.891
20
-165.99
11
152.814
21
-165.99
0
LINE
8
BLACK
6
CONTINUOUS
10
152.814
20
-165.99
11
152.814
21
-167.068
0
LINE
8
BLACK
6
CONTINUOUS
10
152.814
20
-167.068
11
153.891
21
-167.068
0
LINE
8
BLACK
6
CONTINUOUS
10
156.273
20
-128.968
11
156.273
21
-127.89
0
LINE
8
BLACK
6
CONTINUOUS
10
156.273
20
-127.89
11
155.195
21
-127.89
0
LINE
8
BLACK
6
CONTINUOUS
10
155.195
20
-127.89
11
155.195
21
-128.968
0
LINE
8
BLACK
6
CONTINUOUS
10
155.195
20
-128.968
11
156.273
21
-128.968
0
LINE
8
BLACK
6
CONTINUOUS
10
157.86
20
-107.378
11
157.86
21
-106.3
0
LINE
8
BLACK
6
CONTINUOUS
10
157.86
20
-106.3
11
156.782
21
-106.3
0
LINE
8
BLACK
6
CONTINUOUS
10
156.782
20
-106.3
11
156.782
21
-107.378
0
LINE
8
BLACK
6
CONTINUOUS
10
156.782
20
-107.378
11
157.86
21
-107.378
0
LINE
8
BLACK
6
CONTINUOUS
10
160.241
20
-164.528
11
160.241
21
-163.45
0
LINE
8
BLACK
6
CONTINUOUS
10
160.241
20
-163.45
11
159.164
21
-163.45
0
LINE
8
BLACK
6
CONTINUOUS
10
159.164
20
-163.45
11
159.164
21
-164.528
0
LINE
8
BLACK
6
CONTINUOUS
10
159.164
20
-164.528
11
160.241
21
-164.528
0
LINE
8
BLACK
6
CONTINUOUS
10
161.035
20
-90.8676
11
161.035
21
-89.7899
0
LINE
8
BLACK
6
CONTINUOUS
10
161.035
20
-89.7899
11
159.957
21
-89.7899
0
LINE
8
BLACK
6
CONTINUOUS
10
159.957
20
-89.7899
11
159.957
21
-90.8676
0
LINE
8
BLACK
6
CONTINUOUS
10
159.957
20
-90.8676
11
161.035
21
-90.8676
0
LINE
8
BLACK
6
CONTINUOUS
10
161.035
20
-167.068
11
161.035
21
-165.99
0
LINE
8
BLACK
6
CONTINUOUS
10
161.035
20
-165.99
11
159.957
21
-165.99
0
LINE
8
BLACK
6
CONTINUOUS
10
159.957
20
-165.99
11
159.957
21
-167.068
0
LINE
8
BLACK
6
CONTINUOUS
10
159.957
20
-167.068
11
161.035
21
-167.068
0
LINE
8
BLACK
6
CONTINUOUS
10
162.623
20
-126.428
11
162.623
21
-125.35
0
LINE
8
BLACK
6
CONTINUOUS
10
162.623
20
-125.35
11
161.545
21
-125.35
0
LINE
8
BLACK
6
CONTINUOUS
10
161.545
20
-125.35
11
161.545
21
-126.428
0
LINE
8
BLACK
6
CONTINUOUS
10
161.545
20
-126.428
11
162.623
21
-126.428
0
LINE
8
BLACK
6
CONTINUOUS
10
165.798
20
-148.018
11
165.798
21
-146.94
0
LINE
8
BLACK
6
CONTINUOUS
10
165.798
20
-146.94
11
164.72
21
-146.94
0
LINE
8
BLACK
6
CONTINUOUS
10
164.72
20
-146.94
11
164.72
21
-148.018
0
LINE
8
BLACK
6
CONTINUOUS
10
164.72
20
-148.018
11
165.798
21
-148.018
0
LINE
8
BLACK
6
CONTINUOUS
10
167.385
20
-88.3276
11
167.385
21
-87.2499
0
LINE
8
BLACK
6
CONTINUOUS
10
167.385
20
-87.2499
11
166.307
21
-87.2499
0
LINE
8
BLACK
6
CONTINUOUS
10
166.307
20
-87.2499
11
166.307
21
-88.3276
0
LINE
8
BLACK
6
CONTINUOUS
10
166.307
20
-88.3276
11
167.385
21
-88.3276
0
LINE
8
BLACK
6
CONTINUOUS
10
167.385
20
-164.528
11
167.385
21
-163.45
0
LINE
8
BLACK
6
CONTINUOUS
10
167.385
20
-163.45
11
166.307
21
-163.45
0
LINE
8
BLACK
6
CONTINUOUS
10
166.307
20
-163.45
11
166.307
21
-164.528
0
LINE
8
BLACK
6
CONTINUOUS
10
166.307
20
-164.528
11
167.385
21
-164.528
0
LINE
8
BLACK
6
CONTINUOUS
10
170.56
20
-109.918
11
170.56
21
-108.84
0
LINE
8
BLACK
6
CONTINUOUS
10
170.56
20
-108.84
11
169.482
21
-108.84
0
LINE
8
BLACK
6
CONTINUOUS
10
169.482
20
-108.84
11
169.482
21
-109.918
0
LINE
8
BLACK
6
CONTINUOUS
10
169.482
20
-109.918
11
170.56
21
-109.918
0
LINE
8
BLACK
6
CONTINUOUS
10
172.148
20
-145.478
11
172.148
21
-144.4
0
LINE
8
BLACK
6
CONTINUOUS
10
172.148
20
-144.4
11
171.07
21
-144.4
0
LINE
8
BLACK
6
CONTINUOUS
10
171.07
20
-144.4
11
171.07
21
-145.478
0
LINE
8
BLACK
6
CONTINUOUS
10
171.07
20
-145.478
11
172.148
21
-145.478
0
LINE
8
BLACK
6
CONTINUOUS
10
175.323
20
-128.968
11
175.323
21
-127.89
0
LINE
8
BLACK
6
CONTINUOUS
10
175.323
20
-127.89
11
174.245
21
-127.89
0
LINE
8
BLACK
6
CONTINUOUS
10
174.245
20
-127.89
11
174.245
21
-128.968
0
LINE
8
BLACK
6
CONTINUOUS
10
174.245
20
-128.968
11
175.323
21
-128.968
0
LINE
8
BLACK
6
CONTINUOUS
10
176.91
20
-107.378
11
176.91
21
-106.3
0
LINE
8
BLACK
6
CONTINUOUS
10
176.91
20
-106.3
11
175.832
21
-106.3
0
LINE
8
BLACK
6
CONTINUOUS
10
175.832
20
-106.3
11
175.832
21
-107.378
0
LINE
8
BLACK
6
CONTINUOUS
10
175.832
20
-107.378
11
176.91
21
-107.378
0
LINE
8
BLACK
6
CONTINUOUS
10
180.085
20
-90.8676
11
180.085
21
-89.7899
0
LINE
8
BLACK
6
CONTINUOUS
10
180.085
20
-89.7899
11
179.007
21
-89.7899
0
LINE
8
BLACK
6
CONTINUOUS
10
179.007
20
-89.7899
11
179.007
21
-90.8676
0
LINE
8
BLACK
6
CONTINUOUS
10
179.007
20
-90.8676
11
180.085
21
-90.8676
0
LINE
8
BLACK
6
CONTINUOUS
10
181.673
20
-126.428
11
181.673
21
-125.35
0
LINE
8
BLACK
6
CONTINUOUS
10
181.673
20
-125.35
11
180.595
21
-125.35
0
LINE
8
BLACK
6
CONTINUOUS
10
180.595
20
-125.35
11
180.595
21
-126.428
0
LINE
8
BLACK
6
CONTINUOUS
10
180.595
20
-126.428
11
181.673
21
-126.428
0
LINE
8
BLACK
6
CONTINUOUS
10
184.848
20
-148.018
11
184.848
21
-146.94
0
LINE
8
BLACK
6
CONTINUOUS
10
184.848
20
-146.94
11
183.77
21
-146.94
0
LINE
8
BLACK
6
CONTINUOUS
10
183.77
20
-146.94
11
183.77
21
-148.018
0
LINE
8
BLACK
6
CONTINUOUS
10
183.77
20
-148.018
11
184.848
21
-148.018
0
LINE
8
BLACK
6
CONTINUOUS
10
186.435
20
-88.3276
11
186.435
21
-87.2499
0
LINE
8
BLACK
6
CONTINUOUS
10
186.435
20
-87.2499
11
185.357
21
-87.2499
0
LINE
8
BLACK
6
CONTINUOUS
10
185.357
20
-87.2499
11
185.357
21
-88.3276
0
LINE
8
BLACK
6
CONTINUOUS
10
185.357
20
-88.3276
11
186.435
21
-88.3276
0
LINE
8
BLACK
6
CONTINUOUS
10
187.229
20
-167.068
11
187.229
21
-165.99
0
LINE
8
BLACK
6
CONTINUOUS
10
187.229
20
-165.99
11
186.151
21
-165.99
0
LINE
8
BLACK
6
CONTINUOUS
10
186.151
20
-165.99
11
186.151
21
-167.068
0
LINE
8
BLACK
6
CONTINUOUS
10
186.151
20
-167.068
11
187.229
21
-167.068
0
LINE
8
BLACK
6
CONTINUOUS
10
189.61
20
-109.918
11
189.61
21
-108.84
0
LINE
8
BLACK
6
CONTINUOUS
10
189.61
20
-108.84
11
188.532
21
-108.84
0
LINE
8
BLACK
6
CONTINUOUS
10
188.532
20
-108.84
11
188.532
21
-109.918
0
LINE
8
BLACK
6
CONTINUOUS
10
188.532
20
-109.918
11
189.61
21
-109.918
0
LINE
8
BLACK
6
CONTINUOUS
10
191.198
20
-145.478
11
191.198
21
-144.4
0
LINE
8
BLACK
6
CONTINUOUS
10
191.198
20
-144.4
11
190.12
21
-144.4
0
LINE
8
BLACK
6
CONTINUOUS
10
190.12
20
-144.4
11
190.12
21
-145.478
0
LINE
8
BLACK
6
CONTINUOUS
10
190.12
20
-145.478
11
191.198
21
-145.478
0
LINE
8
BLACK
6
CONTINUOUS
10
193.579
20
-164.528
11
193.579
21
-163.45
0
LINE
8
BLACK
6
CONTINUOUS
10
193.579
20
-163.45
11
192.501
21
-163.45
0
LINE
8
BLACK
6
CONTINUOUS
10
192.501
20
-163.45
11
192.501
21
-164.528
0
LINE
8
BLACK
6
CONTINUOUS
10
192.501
20
-164.528
11
193.579
21
-164.528
0
LINE
8
BLACK
6
CONTINUOUS
10
194.373
20
-128.968
11
194.373
21
-127.89
0
LINE
8
BLACK
6
CONTINUOUS
10
194.373
20
-127.89
11
193.295
21
-127.89
0
LINE
8
BLACK
6
CONTINUOUS
10
193.295
20
-127.89
11
193.295
21
-128.968
0
LINE
8
BLACK
6
CONTINUOUS
10
193.295
20
-128.968
11
194.373
21
-128.968
0
LINE
8
BLACK
6
CONTINUOUS
10
194.373
20
-167.068
11
194.373
21
-165.99
0
LINE
8
BLACK
6
CONTINUOUS
10
194.373
20
-165.99
11
193.295
21
-165.99
0
LINE
8
BLACK
6
CONTINUOUS
10
193.295
20
-165.99
11
193.295
21
-167.068
0
LINE
8
BLACK
6
CONTINUOUS
10
193.295
20
-167.068
11
194.373
21
-167.068
0
LINE
8
BLACK
6
CONTINUOUS
10
195.96
20
-107.378
11
195.96
21
-106.3
0
LINE
8
BLACK
6
CONTINUOUS
10
195.96
20
-106.3
11
194.882
21
-106.3
0
LINE
8
BLACK
6
CONTINUOUS
10
194.882
20
-106.3
11
194.882
21
-107.378
0
LINE
8
BLACK
6
CONTINUOUS
10
194.882
20
-107.378
11
195.96
21
-107.378
0
LINE
8
BLACK
6
CONTINUOUS
10
199.135
20
-90.8676
11
199.135
21
-89.7899
0
LINE
8
BLACK
6
CONTINUOUS
10
199.135
20
-89.7899
11
198.057
21
-89.7899
0
LINE
8
BLACK
6
CONTINUOUS
10
198.057
20
-89.7899
11
198.057
21
-90.8676
0
LINE
8
BLACK
6
CONTINUOUS
10
198.057
20
-90.8676
11
199.135
21
-90.8676
0
LINE
8
BLACK
6
CONTINUOUS
10
199.135
20
-167.068
11
199.135
21
-165.99
0
LINE
8
BLACK
6
CONTINUOUS
10
199.135
20
-165.99
11
198.057
21
-165.99
0
LINE
8
BLACK
6
CONTINUOUS
10
198.057
20
-165.99
11
198.057
21
-167.068
0
LINE
8
BLACK
6
CONTINUOUS
10
198.057
20
-167.068
11
199.135
21
-167.068
0
LINE
8
BLACK
6
CONTINUOUS
10
200.723
20
-126.428
11
200.723
21
-125.35
0
LINE
8
BLACK
6
CONTINUOUS
10
200.723
20
-125.35
11
199.645
21
-125.35
0
LINE
8
BLACK
6
CONTINUOUS
10
199.645
20
-125.35
11
199.645
21
-126.428
0
LINE
8
BLACK
6
CONTINUOUS
10
199.645
20
-126.428
11
200.723
21
-126.428
0
LINE
8
BLACK
6
CONTINUOUS
10
200.723
20
-164.528
11
200.723
21
-163.45
0
LINE
8
BLACK
6
CONTINUOUS
10
200.723
20
-163.45
11
199.645
21
-163.45
0
LINE
8
BLACK
6
CONTINUOUS
10
199.645
20
-163.45
11
199.645
21
-164.528
0
LINE
8
BLACK
6
CONTINUOUS
10
199.645
20
-164.528
11
200.723
21
-164.528
0
LINE
8
BLACK
6
CONTINUOUS
10
203.898
20
-148.018
11
203.898
21
-146.94
0
LINE
8
BLACK
6
CONTINUOUS
10
203.898
20
-146.94
11
202.82
21
-146.94
0
LINE
8
BLACK
6
CONTINUOUS
10
202.82
20
-146.94
11
202.82
21
-148.018
0
LINE
8
BLACK
6
CONTINUOUS
10
202.82
20
-148.018
11
203.898
21
-148.018
0
LINE
8
BLACK
6
CONTINUOUS
10
205.485
20
-88.3276
11
205.485
21
-87.2499
0
LINE
8
BLACK
6
CONTINUOUS
10
205.485
20
-87.2499
11
204.407
21
-87.2499
0
LINE
8
BLACK
6
CONTINUOUS
10
204.407
20
-87.2499
11
204.407
21
-88.3276
0
LINE
8
BLACK
6
CONTINUOUS
10
204.407
20
-88.3276
11
205.485
21
-88.3276
0
LINE
8
BLACK
6
CONTINUOUS
10
205.485
20
-164.528
11
205.485
21
-163.45
0
LINE
8
BLACK
6
CONTINUOUS
10
205.485
20
-163.45
11
204.407
21
-163.45
0
LINE
8
BLACK
6
CONTINUOUS
10
204.407
20
-163.45
11
204.407
21
-164.528
0
LINE
8
BLACK
6
CONTINUOUS
10
204.407
20
-164.528
11
205.485
21
-164.528
0
LINE
8
BLACK
6
CONTINUOUS
10
208.66
20
-109.918
11
208.66
21
-108.84
0
LINE
8
BLACK
6
CONTINUOUS
10
208.66
20
-108.84
11
207.582
21
-108.84
0
LINE
8
BLACK
6
CONTINUOUS
10
207.582
20
-108.84
11
207.582
21
-109.918
0
LINE
8
BLACK
6
CONTINUOUS
10
207.582
20
-109.918
11
208.66
21
-109.918
0
LINE
8
BLACK
6
CONTINUOUS
10
210.248
20
-145.478
11
210.248
21
-144.4
0
LINE
8
BLACK
6
CONTINUOUS
10
210.248
20
-144.4
11
209.17
21
-144.4
0
LINE
8
BLACK
6
CONTINUOUS
10
209.17
20
-144.4
11
209.17
21
-145.478
0
LINE
8
BLACK
6
CONTINUOUS
10
209.17
20
-145.478
11
210.248
21
-145.478
0
LINE
8
BLACK
6
CONTINUOUS
10
213.423
20
-128.968
11
213.423
21
-127.89
0
LINE
8
BLACK
6
CONTINUOUS
10
213.423
20
-127.89
11
212.345
21
-127.89
0
LINE
8
BLACK
6
CONTINUOUS
10
212.345
20
-127.89
11
212.345
21
-128.968
0
LINE
8
BLACK
6
CONTINUOUS
10
212.345
20
-128.968
11
213.423
21
-128.968
0
LINE
8
BLACK
6
CONTINUOUS
10
215.01
20
-107.378
11
215.01
21
-106.3
0
LINE
8
BLACK
6
CONTINUOUS
10
215.01
20
-106.3
11
213.932
21
-106.3
0
LINE
8
BLACK
6
CONTINUOUS
10
213.932
20
-106.3
11
213.932
21
-107.378
0
LINE
8
BLACK
6
CONTINUOUS
10
213.932
20
-107.378
11
215.01
21
-107.378
0
LINE
8
BLACK
6
CONTINUOUS
10
218.185
20
-90.8676
11
218.185
21
-89.7899
0
LINE
8
BLACK
6
CONTINUOUS
10
218.185
20
-89.7899
11
217.107
21
-89.7899
0
LINE
8
BLACK
6
CONTINUOUS
10
217.107
20
-89.7899
11
217.107
21
-90.8676
0
LINE
8
BLACK
6
CONTINUOUS
10
217.107
20
-90.8676
11
218.185
21
-90.8676
0
LINE
8
BLACK
6
CONTINUOUS
10
219.773
20
-126.428
11
219.773
21
-125.35
0
LINE
8
BLACK
6
CONTINUOUS
10
219.773
20
-125.35
11
218.695
21
-125.35
0
LINE
8
BLACK
6
CONTINUOUS
10
218.695
20
-125.35
11
218.695
21
-126.428
0
LINE
8
BLACK
6
CONTINUOUS
10
218.695
20
-126.428
11
219.773
21
-126.428
0
LINE
8
BLACK
6
CONTINUOUS
10
222.948
20
-148.018
11
222.948
21
-146.94
0
LINE
8
BLACK
6
CONTINUOUS
10
222.948
20
-146.94
11
221.87
21
-146.94
0
LINE
8
BLACK
6
CONTINUOUS
10
221.87
20
-146.94
11
221.87
21
-148.018
0
LINE
8
BLACK
6
CONTINUOUS
10
221.87
20
-148.018
11
222.948
21
-148.018
0
LINE
8
BLACK
6
CONTINUOUS
10
224.535
20
-88.3276
11
224.535
21
-87.2499
0
LINE
8
BLACK
6
CONTINUOUS
10
224.535
20
-87.2499
11
223.457
21
-87.2499
0
LINE
8
BLACK
6
CONTINUOUS
10
223.457
20
-87.2499
11
223.457
21
-88.3276
0
LINE
8
BLACK
6
CONTINUOUS
10
223.457
20
-88.3276
11
224.535
21
-88.3276
0
LINE
8
BLACK
6
CONTINUOUS
10
227.71
20
-109.918
11
227.71
21
-108.84
0
LINE
8
BLACK
6
CONTINUOUS
10
227.71
20
-108.84
11
226.632
21
-108.84
0
LINE
8
BLACK
6
CONTINUOUS
10
226.632
20
-108.84
11
226.632
21
-109.918
0
LINE
8
BLACK
6
CONTINUOUS
10
226.632
20
-109.918
11
227.71
21
-109.918
0
LINE
8
BLACK
6
CONTINUOUS
10
229.298
20
-145.478
11
229.298
21
-144.4
0
LINE
8
BLACK
6
CONTINUOUS
10
229.298
20
-144.4
11
228.22
21
-144.4
0
LINE
8
BLACK
6
CONTINUOUS
10
228.22
20
-144.4
11
228.22
21
-145.478
0
LINE
8
BLACK
6
CONTINUOUS
10
228.22
20
-145.478
11
229.298
21
-145.478
0
LINE
8
BLACK
6
CONTINUOUS
10
232.473
20
-128.968
11
232.473
21
-127.89
0
LINE
8
BLACK
6
CONTINUOUS
10
232.473
20
-127.89
11
231.395
21
-127.89
0
LINE
8
BLACK
6
CONTINUOUS
10
231.395
20
-127.89
11
231.395
21
-128.968
0
LINE
8
BLACK
6
CONTINUOUS
10
231.395
20
-128.968
11
232.473
21
-128.968
0
LINE
8
BLACK
6
CONTINUOUS
10
234.06
20
-107.378
11
234.06
21
-106.3
0
LINE
8
BLACK
6
CONTINUOUS
10
234.06
20
-106.3
11
232.982
21
-106.3
0
LINE
8
BLACK
6
CONTINUOUS
10
232.982
20
-106.3
11
232.982
21
-107.378
0
LINE
8
BLACK
6
CONTINUOUS
10
232.982
20
-107.378
11
234.06
21
-107.378
0
LINE
8
BLACK
6
CONTINUOUS
10
237.235
20
-90.8676
11
237.235
21
-89.7899
0
LINE
8
BLACK
6
CONTINUOUS
10
237.235
20
-89.7899
11
236.157
21
-89.7899
0
LINE
8
BLACK
6
CONTINUOUS
10
236.157
20
-89.7899
11
236.157
21
-90.8676
0
LINE
8
BLACK
6
CONTINUOUS
10
236.157
20
-90.8676
11
237.235
21
-90.8676
0
LINE
8
BLACK
6
CONTINUOUS
10
237.235
20
-167.068
11
237.235
21
-165.99
0
LINE
8
BLACK
6
CONTINUOUS
10
237.235
20
-165.99
11
236.157
21
-165.99
0
LINE
8
BLACK
6
CONTINUOUS
10
236.157
20
-165.99
11
236.157
21
-167.068
0
LINE
8
BLACK
6
CONTINUOUS
10
236.157
20
-167.068
11
237.235
21
-167.068
0
LINE
8
BLACK
6
CONTINUOUS
10
238.823
20
-126.428
11
238.823
21
-125.35
0
LINE
8
BLACK
6
CONTINUOUS
10
238.823
20
-125.35
11
237.745
21
-125.35
0
LINE
8
BLACK
6
CONTINUOUS
10
237.745
20
-125.35
11
237.745
21
-126.428
0
LINE
8
BLACK
6
CONTINUOUS
10
237.745
20
-126.428
11
238.823
21
-126.428
0
LINE
8
BLACK
6
CONTINUOUS
10
239.616
20
-167.068
11
239.616
21
-165.99
0
LINE
8
BLACK
6
CONTINUOUS
10
239.616
20
-165.99
11
238.539
21
-165.99
0
LINE
8
BLACK
6
CONTINUOUS
10
238.539
20
-165.99
11
238.539
21
-167.068
0
LINE
8
BLACK
6
CONTINUOUS
10
238.539
20
-167.068
11
239.616
21
-167.068
0
LINE
8
BLACK
6
CONTINUOUS
10
241.998
20
-148.018
11
241.998
21
-146.94
0
LINE
8
BLACK
6
CONTINUOUS
10
241.998
20
-146.94
11
240.92
21
-146.94
0
LINE
8
BLACK
6
CONTINUOUS
10
240.92
20
-146.94
11
240.92
21
-148.018
0
LINE
8
BLACK
6
CONTINUOUS
10
240.92
20
-148.018
11
241.998
21
-148.018
0
LINE
8
BLACK
6
CONTINUOUS
10
243.585
20
-88.3276
11
243.585
21
-87.2499
0
LINE
8
BLACK
6
CONTINUOUS
10
243.585
20
-87.2499
11
242.507
21
-87.2499
0
LINE
8
BLACK
6
CONTINUOUS
10
242.507
20
-87.2499
11
242.507
21
-88.3276
0
LINE
8
BLACK
6
CONTINUOUS
10
242.507
20
-88.3276
11
243.585
21
-88.3276
0
LINE
8
BLACK
6
CONTINUOUS
10
243.585
20
-164.528
11
243.585
21
-163.45
0
LINE
8
BLACK
6
CONTINUOUS
10
243.585
20
-163.45
11
242.507
21
-163.45
0
LINE
8
BLACK
6
CONTINUOUS
10
242.507
20
-163.45
11
242.507
21
-164.528
0
LINE
8
BLACK
6
CONTINUOUS
10
242.507
20
-164.528
11
243.585
21
-164.528
0
LINE
8
BLACK
6
CONTINUOUS
10
245.966
20
-164.528
11
245.966
21
-163.45
0
LINE
8
BLACK
6
CONTINUOUS
10
245.966
20
-163.45
11
244.889
21
-163.45
0
LINE
8
BLACK
6
CONTINUOUS
10
244.889
20
-163.45
11
244.889
21
-164.528
0
LINE
8
BLACK
6
CONTINUOUS
10
244.889
20
-164.528
11
245.966
21
-164.528
0
LINE
8
BLACK
6
CONTINUOUS
10
246.76
20
-109.918
11
246.76
21
-108.84
0
LINE
8
BLACK
6
CONTINUOUS
10
246.76
20
-108.84
11
245.682
21
-108.84
0
LINE
8
BLACK
6
CONTINUOUS
10
245.682
20
-108.84
11
245.682
21
-109.918
0
LINE
8
BLACK
6
CONTINUOUS
10
245.682
20
-109.918
11
246.76
21
-109.918
0
LINE
8
BLACK
6
CONTINUOUS
10
248.348
20
-145.478
11
248.348
21
-144.4
0
LINE
8
BLACK
6
CONTINUOUS
10
248.348
20
-144.4
11
247.27
21
-144.4
0
LINE
8
BLACK
6
CONTINUOUS
10
247.27
20
-144.4
11
247.27
21
-145.478
0
LINE
8
BLACK
6
CONTINUOUS
10
247.27
20
-145.478
11
248.348
21
-145.478
0
LINE
8
BLACK
6
CONTINUOUS
10
251.523
20
-128.968
11
251.523
21
-127.89
0
LINE
8
BLACK
6
CONTINUOUS
10
251.523
20
-127.89
11
250.445
21
-127.89
0
LINE
8
BLACK
6
CONTINUOUS
10
250.445
20
-127.89
11
250.445
21
-128.968
0
LINE
8
BLACK
6
CONTINUOUS
10
250.445
20
-128.968
11
251.523
21
-128.968
0
LINE
8
BLACK
6
CONTINUOUS
10
253.11
20
-107.378
11
253.11
21
-106.3
0
LINE
8
BLACK
6
CONTINUOUS
10
253.11
20
-106.3
11
252.032
21
-106.3
0
LINE
8
BLACK
6
CONTINUOUS
10
252.032
20
-106.3
11
252.032
21
-107.378
0
LINE
8
BLACK
6
CONTINUOUS
10
252.032
20
-107.378
11
253.11
21
-107.378
0
LINE
8
BLACK
6
CONTINUOUS
10
256.285
20
-90.8676
11
256.285
21
-89.7899
0
LINE
8
BLACK
6
CONTINUOUS
10
256.285
20
-89.7899
11
255.207
21
-89.7899
0
LINE
8
BLACK
6
CONTINUOUS
10
255.207
20
-89.7899
11
255.207
21
-90.8676
0
LINE
8
BLACK
6
CONTINUOUS
10
255.207
20
-90.8676
11
256.285
21
-90.8676
0
LINE
8
BLACK
6
CONTINUOUS
10
257.873
20
-126.428
11
257.873
21
-125.35
0
LINE
8
BLACK
6
CONTINUOUS
10
257.873
20
-125.35
11
256.795
21
-125.35
0
LINE
8
BLACK
6
CONTINUOUS
10
256.795
20
-125.35
11
256.795
21
-126.428
0
LINE
8
BLACK
6
CONTINUOUS
10
256.795
20
-126.428
11
257.873
21
-126.428
0
LINE
8
BLACK
6
CONTINUOUS
10
258.666
20
-167.068
11
258.666
21
-165.99
0
LINE
8
BLACK
6
CONTINUOUS
10
258.666
20
-165.99
11
257.589
21
-165.99
0
LINE
8
BLACK
6
CONTINUOUS
10
257.589
20
-165.99
11
257.589
21
-167.068
0
LINE
8
BLACK
6
CONTINUOUS
10
257.589
20
-167.068
11
258.666
21
-167.068
0
LINE
8
BLACK
6
CONTINUOUS
10
261.048
20
-148.018
11
261.048
21
-146.94
0
LINE
8
BLACK
6
CONTINUOUS
10
261.048
20
-146.94
11
259.97
21
-146.94
0
LINE
8
BLACK
6
CONTINUOUS
10
259.97
20
-146.94
11
259.97
21
-148.018
0
LINE
8
BLACK
6
CONTINUOUS
10
259.97
20
-148.018
11
261.048
21
-148.018
0
LINE
8
BLACK
6
CONTINUOUS
10
262.635
20
-88.3276
11
262.635
21
-87.2499
0
LINE
8
BLACK
6
CONTINUOUS
10
262.635
20
-87.2499
11
261.557
21
-87.2499
0
LINE
8
BLACK
6
CONTINUOUS
10
261.557
20
-87.2499
11
261.557
21
-88.3276
0
LINE
8
BLACK
6
CONTINUOUS
10
261.557
20
-88.3276
11
262.635
21
-88.3276
0
LINE
8
BLACK
6
CONTINUOUS
10
265.016
20
-164.528
11
265.016
21
-163.45
0
LINE
8
BLACK
6
CONTINUOUS
10
265.016
20
-163.45
11
263.939
21
-163.45
0
LINE
8
BLACK
6
CONTINUOUS
10
263.939
20
-163.45
11
263.939
21
-164.528
0
LINE
8
BLACK
6
CONTINUOUS
10
263.939
20
-164.528
11
265.016
21
-164.528
0
LINE
8
BLACK
6
CONTINUOUS
10
265.81
20
-109.918
11
265.81
21
-108.84
0
LINE
8
BLACK
6
CONTINUOUS
10
265.81
20
-108.84
11
264.732
21
-108.84
0
LINE
8
BLACK
6
CONTINUOUS
10
264.732
20
-108.84
11
264.732
21
-109.918
0
LINE
8
BLACK
6
CONTINUOUS
10
264.732
20
-109.918
11
265.81
21
-109.918
0
LINE
8
BLACK
6
CONTINUOUS
10
267.398
20
-145.478
11
267.398
21
-144.4
0
LINE
8
BLACK
6
CONTINUOUS
10
267.398
20
-144.4
11
266.32
21
-144.4
0
LINE
8
BLACK
6
CONTINUOUS
10
266.32
20
-144.4
11
266.32
21
-145.478
0
LINE
8
BLACK
6
CONTINUOUS
10
266.32
20
-145.478
11
267.398
21
-145.478
0
LINE
8
BLACK
6
CONTINUOUS
10
270.573
20
-128.968
11
270.573
21
-127.89
0
LINE
8
BLACK
6
CONTINUOUS
10
270.573
20
-127.89
11
269.495
21
-127.89
0
LINE
8
BLACK
6
CONTINUOUS
10
269.495
20
-127.89
11
269.495
21
-128.968
0
LINE
8
BLACK
6
CONTINUOUS
10
269.495
20
-128.968
11
270.573
21
-128.968
0
LINE
8
BLACK
6
CONTINUOUS
10
272.16
20
-107.378
11
272.16
21
-106.3
0
LINE
8
BLACK
6
CONTINUOUS
10
272.16
20
-106.3
11
271.082
21
-106.3
0
LINE
8
BLACK
6
CONTINUOUS
10
271.082
20
-106.3
11
271.082
21
-107.378
0
LINE
8
BLACK
6
CONTINUOUS
10
271.082
20
-107.378
11
272.16
21
-107.378
0
LINE
8
BLACK
6
CONTINUOUS
10
275.335
20
-90.8676
11
275.335
21
-89.7899
0
LINE
8
BLACK
6
CONTINUOUS
10
275.335
20
-89.7899
11
274.257
21
-89.7899
0
LINE
8
BLACK
6
CONTINUOUS
10
274.257
20
-89.7899
11
274.257
21
-90.8676
0
LINE
8
BLACK
6
CONTINUOUS
10
274.257
20
-90.8676
11
275.335
21
-90.8676
0
LINE
8
BLACK
6
CONTINUOUS
10
276.923
20
-126.428
11
276.923
21
-125.35
0
LINE
8
BLACK
6
CONTINUOUS
10
276.923
20
-125.35
11
275.845
21
-125.35
0
LINE
8
BLACK
6
CONTINUOUS
10
275.845
20
-125.35
11
275.845
21
-126.428
0
LINE
8
BLACK
6
CONTINUOUS
10
275.845
20
-126.428
11
276.923
21
-126.428
0
LINE
8
BLACK
6
CONTINUOUS
10
280.098
20
-148.018
11
280.098
21
-146.94
0
LINE
8
BLACK
6
CONTINUOUS
10
280.098
20
-146.94
11
279.02
21
-146.94
0
LINE
8
BLACK
6
CONTINUOUS
10
279.02
20
-146.94
11
279.02
21
-148.018
0
LINE
8
BLACK
6
CONTINUOUS
10
279.02
20
-148.018
11
280.098
21
-148.018
0
LINE
8
BLACK
6
CONTINUOUS
10
280.098
20
-167.068
11
280.098
21
-165.99
0
LINE
8
BLACK
6
CONTINUOUS
10
280.098
20
-165.99
11
279.02
21
-165.99
0
LINE
8
BLACK
6
CONTINUOUS
10
279.02
20
-165.99
11
279.02
21
-167.068
0
LINE
8
BLACK
6
CONTINUOUS
10
279.02
20
-167.068
11
280.098
21
-167.068
0
LINE
8
BLACK
6
CONTINUOUS
10
281.685
20
-88.3276
11
281.685
21
-87.2499
0
LINE
8
BLACK
6
CONTINUOUS
10
281.685
20
-87.2499
11
280.607
21
-87.2499
0
LINE
8
BLACK
6
CONTINUOUS
10
280.607
20
-87.2499
11
280.607
21
-88.3276
0
LINE
8
BLACK
6
CONTINUOUS
10
280.607
20
-88.3276
11
281.685
21
-88.3276
0
LINE
8
BLACK
6
CONTINUOUS
10
282.479
20
-167.068
11
282.479
21
-165.99
0
LINE
8
BLACK
6
CONTINUOUS
10
282.479
20
-165.99
11
281.401
21
-165.99
0
LINE
8
BLACK
6
CONTINUOUS
10
281.401
20
-165.99
11
281.401
21
-167.068
0
LINE
8
BLACK
6
CONTINUOUS
10
281.401
20
-167.068
11
282.479
21
-167.068
0
LINE
8
BLACK
6
CONTINUOUS
10
284.86
20
-109.918
11
284.86
21
-108.84
0
LINE
8
BLACK
6
CONTINUOUS
10
284.86
20
-108.84
11
283.782
21
-108.84
0
LINE
8
BLACK
6
CONTINUOUS
10
283.782
20
-108.84
11
283.782
21
-109.918
0
LINE
8
BLACK
6
CONTINUOUS
10
283.782
20
-109.918
11
284.86
21
-109.918
0
LINE
8
BLACK
6
CONTINUOUS
10
286.448
20
-145.478
11
286.448
21
-144.4
0
LINE
8
BLACK
6
CONTINUOUS
10
286.448
20
-144.4
11
285.37
21
-144.4
0
LINE
8
BLACK
6
CONTINUOUS
10
285.37
20
-144.4
11
285.37
21
-145.478
0
LINE
8
BLACK
6
CONTINUOUS
10
285.37
20
-145.478
11
286.448
21
-145.478
0
LINE
8
BLACK
6
CONTINUOUS
10
286.448
20
-164.528
11
286.448
21
-163.45
0
LINE
8
BLACK
6
CONTINUOUS
10
286.448
20
-163.45
11
285.37
21
-163.45
0
LINE
8
BLACK
6
CONTINUOUS
10
285.37
20
-163.45
11
285.37
21
-164.528
0
LINE
8
BLACK
6
CONTINUOUS
10
285.37
20
-164.528
11
286.448
21
-164.528
0
LINE
8
BLACK
6
CONTINUOUS
10
288.829
20
-164.528
11
288.829
21
-163.45
0
LINE
8
BLACK
6
CONTINUOUS
10
288.829
20
-163.45
11
287.751
21
-163.45
0
LINE
8
BLACK
6
CONTINUOUS
10
287.751
20
-163.45
11
287.751
21
-164.528
0
LINE
8
BLACK
6
CONTINUOUS
10
287.751
20
-164.528
11
288.829
21
-164.528
0
LINE
8
BLACK
6
CONTINUOUS
10
289.623
20
-128.968
11
289.623
21
-127.89
0
LINE
8
BLACK
6
CONTINUOUS
10
289.623
20
-127.89
11
288.545
21
-127.89
0
LINE
8
BLACK
6
CONTINUOUS
10
288.545
20
-127.89
11
288.545
21
-128.968
0
LINE
8
BLACK
6
CONTINUOUS
10
288.545
20
-128.968
11
289.623
21
-128.968
0
LINE
8
BLACK
6
CONTINUOUS
10
291.21
20
-107.378
11
291.21
21
-106.3
0
LINE
8
BLACK
6
CONTINUOUS
10
291.21
20
-106.3
11
290.132
21
-106.3
0
LINE
8
BLACK
6
CONTINUOUS
10
290.132
20
-106.3
11
290.132
21
-107.378
0
LINE
8
BLACK
6
CONTINUOUS
10
290.132
20
-107.378
11
291.21
21
-107.378
0
LINE
8
BLACK
6
CONTINUOUS
10
294.385
20
-90.8676
11
294.385
21
-89.7899
0
LINE
8
BLACK
6
CONTINUOUS
10
294.385
20
-89.7899
11
293.307
21
-89.7899
0
LINE
8
BLACK
6
CONTINUOUS
10
293.307
20
-89.7899
11
293.307
21
-90.8676
0
LINE
8
BLACK
6
CONTINUOUS
10
293.307
20
-90.8676
11
294.385
21
-90.8676
0
LINE
8
BLACK
6
CONTINUOUS
10
295.973
20
-126.428
11
295.973
21
-125.35
0
LINE
8
BLACK
6
CONTINUOUS
10
295.973
20
-125.35
11
294.895
21
-125.35
0
LINE
8
BLACK
6
CONTINUOUS
10
294.895
20
-125.35
11
294.895
21
-126.428
0
LINE
8
BLACK
6
CONTINUOUS
10
294.895
20
-126.428
11
295.973
21
-126.428
0
LINE
8
BLACK
6
CONTINUOUS
10
300.735
20
-88.3276
11
300.735
21
-87.2499
0
LINE
8
BLACK
6
CONTINUOUS
10
300.735
20
-87.2499
11
299.657
21
-87.2499
0
LINE
8
BLACK
6
CONTINUOUS
10
299.657
20
-87.2499
11
299.657
21
-88.3276
0
LINE
8
BLACK
6
CONTINUOUS
10
299.657
20
-88.3276
11
300.735
21
-88.3276
0
LINE
8
BLACK
6
CONTINUOUS
10
303.91
20
-109.918
11
303.91
21
-108.84
0
LINE
8
BLACK
6
CONTINUOUS
10
303.91
20
-108.84
11
302.832
21
-108.84
0
LINE
8
BLACK
6
CONTINUOUS
10
302.832
20
-108.84
11
302.832
21
-109.918
0
LINE
8
BLACK
6
CONTINUOUS
10
302.832
20
-109.918
11
303.91
21
-109.918
0
LINE
8
BLACK
6
CONTINUOUS
10
306.291
20
-148.018
11
306.291
21
-146.94
0
LINE
8
BLACK
6
CONTINUOUS
10
306.291
20
-146.94
11
305.214
21
-146.94
0
LINE
8
BLACK
6
CONTINUOUS
10
305.214
20
-146.94
11
305.214
21
-148.018
0
LINE
8
BLACK
6
CONTINUOUS
10
305.214
20
-148.018
11
306.291
21
-148.018
0
LINE
8
BLACK
6
CONTINUOUS
10
308.673
20
-128.968
11
308.673
21
-127.89
0
LINE
8
BLACK
6
CONTINUOUS
10
308.673
20
-127.89
11
307.595
21
-127.89
0
LINE
8
BLACK
6
CONTINUOUS
10
307.595
20
-127.89
11
307.595
21
-128.968
0
LINE
8
BLACK
6
CONTINUOUS
10
307.595
20
-128.968
11
308.673
21
-128.968
0
LINE
8
BLACK
6
CONTINUOUS
10
310.26
20
-107.378
11
310.26
21
-106.3
0
LINE
8
BLACK
6
CONTINUOUS
10
310.26
20
-106.3
11
309.182
21
-106.3
0
LINE
8
BLACK
6
CONTINUOUS
10
309.182
20
-106.3
11
309.182
21
-107.378
0
LINE
8
BLACK
6
CONTINUOUS
10
309.182
20
-107.378
11
310.26
21
-107.378
0
LINE
8
BLACK
6
CONTINUOUS
10
312.641
20
-145.478
11
312.641
21
-144.4
0
LINE
8
BLACK
6
CONTINUOUS
10
312.641
20
-144.4
11
311.564
21
-144.4
0
LINE
8
BLACK
6
CONTINUOUS
10
311.564
20
-144.4
11
311.564
21
-145.478
0
LINE
8
BLACK
6
CONTINUOUS
10
311.564
20
-145.478
11
312.641
21
-145.478
0
LINE
8
BLACK
6
CONTINUOUS
10
313.435
20
-90.8676
11
313.435
21
-89.7899
0
LINE
8
BLACK
6
CONTINUOUS
10
313.435
20
-89.7899
11
312.357
21
-89.7899
0
LINE
8
BLACK
6
CONTINUOUS
10
312.357
20
-89.7899
11
312.357
21
-90.8676
0
LINE
8
BLACK
6
CONTINUOUS
10
312.357
20
-90.8676
11
313.435
21
-90.8676
0
LINE
8
BLACK
6
CONTINUOUS
10
313.435
20
-167.068
11
313.435
21
-165.99
0
LINE
8
BLACK
6
CONTINUOUS
10
313.435
20
-165.99
11
312.357
21
-165.99
0
LINE
8
BLACK
6
CONTINUOUS
10
312.357
20
-165.99
11
312.357
21
-167.068
0
LINE
8
BLACK
6
CONTINUOUS
10
312.357
20
-167.068
11
313.435
21
-167.068
0
LINE
8
BLACK
6
CONTINUOUS
10
315.023
20
-126.428
11
315.023
21
-125.35
0
LINE
8
BLACK
6
CONTINUOUS
10
315.023
20
-125.35
11
313.945
21
-125.35
0
LINE
8
BLACK
6
CONTINUOUS
10
313.945
20
-125.35
11
313.945
21
-126.428
0
LINE
8
BLACK
6
CONTINUOUS
10
313.945
20
-126.428
11
315.023
21
-126.428
0
LINE
8
BLACK
6
CONTINUOUS
10
319.785
20
-88.3276
11
319.785
21
-87.2499
0
LINE
8
BLACK
6
CONTINUOUS
10
319.785
20
-87.2499
11
318.707
21
-87.2499
0
LINE
8
BLACK
6
CONTINUOUS
10
318.707
20
-87.2499
11
318.707
21
-88.3276
0
LINE
8
BLACK
6
CONTINUOUS
10
318.707
20
-88.3276
11
319.785
21
-88.3276
0
LINE
8
BLACK
6
CONTINUOUS
10
319.785
20
-164.528
11
319.785
21
-163.45
0
LINE
8
BLACK
6
CONTINUOUS
10
319.785
20
-163.45
11
318.707
21
-163.45
0
LINE
8
BLACK
6
CONTINUOUS
10
318.707
20
-163.45
11
318.707
21
-164.528
0
LINE
8
BLACK
6
CONTINUOUS
10
318.707
20
-164.528
11
319.785
21
-164.528
0
LINE
8
BLACK
6
CONTINUOUS
10
320.579
20
-128.968
11
320.579
21
-127.89
0
LINE
8
BLACK
6
CONTINUOUS
10
320.579
20
-127.89
11
319.501
21
-127.89
0
LINE
8
BLACK
6
CONTINUOUS
10
319.501
20
-127.89
11
319.501
21
-128.968
0
LINE
8
BLACK
6
CONTINUOUS
10
319.501
20
-128.968
11
320.579
21
-128.968
0
LINE
8
BLACK
6
CONTINUOUS
10
322.96
20
-90.8676
11
322.96
21
-89.7899
0
LINE
8
BLACK
6
CONTINUOUS
10
322.96
20
-89.7899
11
321.882
21
-89.7899
0
LINE
8
BLACK
6
CONTINUOUS
10
321.882
20
-89.7899
11
321.882
21
-90.8676
0
LINE
8
BLACK
6
CONTINUOUS
10
321.882
20
-90.8676
11
322.96
21
-90.8676
0
LINE
8
BLACK
6
CONTINUOUS
10
326.929
20
-126.428
11
326.929
21
-125.35
0
LINE
8
BLACK
6
CONTINUOUS
10
326.929
20
-125.35
11
325.851
21
-125.35
0
LINE
8
BLACK
6
CONTINUOUS
10
325.851
20
-125.35
11
325.851
21
-126.428
0
LINE
8
BLACK
6
CONTINUOUS
10
325.851
20
-126.428
11
326.929
21
-126.428
0
LINE
8
BLACK
6
CONTINUOUS
10
327.723
20
-109.918
11
327.723
21
-108.84
0
LINE
8
BLACK
6
CONTINUOUS
10
327.723
20
-108.84
11
326.645
21
-108.84
0
LINE
8
BLACK
6
CONTINUOUS
10
326.645
20
-108.84
11
326.645
21
-109.918
0
LINE
8
BLACK
6
CONTINUOUS
10
326.645
20
-109.918
11
327.723
21
-109.918
0
LINE
8
BLACK
6
CONTINUOUS
10
329.31
20
-88.3276
11
329.31
21
-87.2499
0
LINE
8
BLACK
6
CONTINUOUS
10
329.31
20
-87.2499
11
328.232
21
-87.2499
0
LINE
8
BLACK
6
CONTINUOUS
10
328.232
20
-87.2499
11
328.232
21
-88.3276
0
LINE
8
BLACK
6
CONTINUOUS
10
328.232
20
-88.3276
11
329.31
21
-88.3276
0
LINE
8
BLACK
6
CONTINUOUS
10
330.104
20
-119.443
11
330.104
21
-118.365
0
LINE
8
BLACK
6
CONTINUOUS
10
330.104
20
-118.365
11
329.026
21
-118.365
0
LINE
8
BLACK
6
CONTINUOUS
10
329.026
20
-118.365
11
329.026
21
-119.443
0
LINE
8
BLACK
6
CONTINUOUS
10
329.026
20
-119.443
11
330.104
21
-119.443
0
LINE
8
BLACK
6
CONTINUOUS
10
332.485
20
-148.018
11
332.485
21
-146.94
0
LINE
8
BLACK
6
CONTINUOUS
10
332.485
20
-146.94
11
331.407
21
-146.94
0
LINE
8
BLACK
6
CONTINUOUS
10
331.407
20
-146.94
11
331.407
21
-148.018
0
LINE
8
BLACK
6
CONTINUOUS
10
331.407
20
-148.018
11
332.485
21
-148.018
0
LINE
8
BLACK
6
CONTINUOUS
10
332.485
20
-167.068
11
332.485
21
-165.99
0
LINE
8
BLACK
6
CONTINUOUS
10
332.485
20
-165.99
11
331.407
21
-165.99
0
LINE
8
BLACK
6
CONTINUOUS
10
331.407
20
-165.99
11
331.407
21
-167.068
0
LINE
8
BLACK
6
CONTINUOUS
10
331.407
20
-167.068
11
332.485
21
-167.068
0
LINE
8
BLACK
6
CONTINUOUS
10
332.517
20
-90.8358
11
332.517
21
-89.7582
0
LINE
8
BLACK
6
CONTINUOUS
10
332.517
20
-89.7582
11
331.439
21
-89.7582
0
LINE
8
BLACK
6
CONTINUOUS
10
331.439
20
-89.7582
11
331.439
21
-90.8358
0
LINE
8
BLACK
6
CONTINUOUS
10
331.439
20
-90.8358
11
332.517
21
-90.8358
0
LINE
8
BLACK
6
CONTINUOUS
10
334.073
20
-107.378
11
334.073
21
-106.3
0
LINE
8
BLACK
6
CONTINUOUS
10
334.073
20
-106.3
11
332.995
21
-106.3
0
LINE
8
BLACK
6
CONTINUOUS
10
332.995
20
-106.3
11
332.995
21
-107.378
0
LINE
8
BLACK
6
CONTINUOUS
10
332.995
20
-107.378
11
334.073
21
-107.378
0
LINE
8
BLACK
6
CONTINUOUS
10
336.454
20
-116.903
11
336.454
21
-115.825
0
LINE
8
BLACK
6
CONTINUOUS
10
336.454
20
-115.825
11
335.376
21
-115.825
0
LINE
8
BLACK
6
CONTINUOUS
10
335.376
20
-115.825
11
335.376
21
-116.903
0
LINE
8
BLACK
6
CONTINUOUS
10
335.376
20
-116.903
11
336.454
21
-116.903
0
LINE
8
BLACK
6
CONTINUOUS
10
338.835
20
-145.478
11
338.835
21
-144.4
0
LINE
8
BLACK
6
CONTINUOUS
10
338.835
20
-144.4
11
337.757
21
-144.4
0
LINE
8
BLACK
6
CONTINUOUS
10
337.757
20
-144.4
11
337.757
21
-145.478
0
LINE
8
BLACK
6
CONTINUOUS
10
337.757
20
-145.478
11
338.835
21
-145.478
0
LINE
8
BLACK
6
CONTINUOUS
10
338.835
20
-164.528
11
338.835
21
-163.45
0
LINE
8
BLACK
6
CONTINUOUS
10
338.835
20
-163.45
11
337.757
21
-163.45
0
LINE
8
BLACK
6
CONTINUOUS
10
337.757
20
-163.45
11
337.757
21
-164.528
0
LINE
8
BLACK
6
CONTINUOUS
10
337.757
20
-164.528
11
338.835
21
-164.528
0
LINE
8
BLACK
6
CONTINUOUS
10
338.867
20
-88.2958
11
338.867
21
-87.2182
0
LINE
8
BLACK
6
CONTINUOUS
10
338.867
20
-87.2182
11
337.789
21
-87.2182
0
LINE
8
BLACK
6
CONTINUOUS
10
337.789
20
-87.2182
11
337.789
21
-88.2958
0
LINE
8
BLACK
6
CONTINUOUS
10
337.789
20
-88.2958
11
338.867
21
-88.2958
0
LINE
8
BLACK
6
CONTINUOUS
10
351.535
20
-109.918
11
351.535
21
-108.84
0
LINE
8
BLACK
6
CONTINUOUS
10
351.535
20
-108.84
11
350.457
21
-108.84
0
LINE
8
BLACK
6
CONTINUOUS
10
350.457
20
-108.84
11
350.457
21
-109.918
0
LINE
8
BLACK
6
CONTINUOUS
10
350.457
20
-109.918
11
351.535
21
-109.918
0
LINE
8
BLACK
6
CONTINUOUS
10
351.535
20
-128.968
11
351.535
21
-127.89
0
LINE
8
BLACK
6
CONTINUOUS
10
351.535
20
-127.89
11
350.457
21
-127.89
0
LINE
8
BLACK
6
CONTINUOUS
10
350.457
20
-127.89
11
350.457
21
-128.968
0
LINE
8
BLACK
6
CONTINUOUS
10
350.457
20
-128.968
11
351.535
21
-128.968
0
LINE
8
BLACK
6
CONTINUOUS
10
351.535
20
-148.018
11
351.535
21
-146.94
0
LINE
8
BLACK
6
CONTINUOUS
10
351.535
20
-146.94
11
350.457
21
-146.94
0
LINE
8
BLACK
6
CONTINUOUS
10
350.457
20
-146.94
11
350.457
21
-148.018
0
LINE
8
BLACK
6
CONTINUOUS
10
350.457
20
-148.018
11
351.535
21
-148.018
0
LINE
8
BLACK
6
CONTINUOUS
10
351.535
20
-167.068
11
351.535
21
-165.99
0
LINE
8
BLACK
6
CONTINUOUS
10
351.535
20
-165.99
11
350.457
21
-165.99
0
LINE
8
BLACK
6
CONTINUOUS
10
350.457
20
-165.99
11
350.457
21
-167.068
0
LINE
8
BLACK
6
CONTINUOUS
10
350.457
20
-167.068
11
351.535
21
-167.068
0
LINE
8
BLACK
6
CONTINUOUS
10
351.567
20
-90.8358
11
351.567
21
-89.7582
0
LINE
8
BLACK
6
CONTINUOUS
10
351.567
20
-89.7582
11
350.489
21
-89.7582
0
LINE
8
BLACK
6
CONTINUOUS
10
350.489
20
-89.7582
11
350.489
21
-90.8358
0
LINE
8
BLACK
6
CONTINUOUS
10
350.489
20
-90.8358
11
351.567
21
-90.8358
0
LINE
8
BLACK
6
CONTINUOUS
10
357.885
20
-107.378
11
357.885
21
-106.3
0
LINE
8
BLACK
6
CONTINUOUS
10
357.885
20
-106.3
11
356.807
21
-106.3
0
LINE
8
BLACK
6
CONTINUOUS
10
356.807
20
-106.3
11
356.807
21
-107.378
0
LINE
8
BLACK
6
CONTINUOUS
10
356.807
20
-107.378
11
357.885
21
-107.378
0
LINE
8
BLACK
6
CONTINUOUS
10
357.885
20
-126.428
11
357.885
21
-125.35
0
LINE
8
BLACK
6
CONTINUOUS
10
357.885
20
-125.35
11
356.807
21
-125.35
0
LINE
8
BLACK
6
CONTINUOUS
10
356.807
20
-125.35
11
356.807
21
-126.428
0
LINE
8
BLACK
6
CONTINUOUS
10
356.807
20
-126.428
11
357.885
21
-126.428
0
LINE
8
BLACK
6
CONTINUOUS
10
357.885
20
-145.478
11
357.885
21
-144.4
0
LINE
8
BLACK
6
CONTINUOUS
10
357.885
20
-144.4
11
356.807
21
-144.4
0
LINE
8
BLACK
6
CONTINUOUS
10
356.807
20
-144.4
11
356.807
21
-145.478
0
LINE
8
BLACK
6
CONTINUOUS
10
356.807
20
-145.478
11
357.885
21
-145.478
0
LINE
8
BLACK
6
CONTINUOUS
10
357.885
20
-164.528
11
357.885
21
-163.45
0
LINE
8
BLACK
6
CONTINUOUS
10
357.885
20
-163.45
11
356.807
21
-163.45
0
LINE
8
BLACK
6
CONTINUOUS
10
356.807
20
-163.45
11
356.807
21
-164.528
0
LINE
8
BLACK
6
CONTINUOUS
10
356.807
20
-164.528
11
357.885
21
-164.528
0
LINE
8
BLACK
6
CONTINUOUS
10
357.917
20
-88.2958
11
357.917
21
-87.2182
0
LINE
8
BLACK
6
CONTINUOUS
10
357.917
20
-87.2182
11
356.839
21
-87.2182
0
LINE
8
BLACK
6
CONTINUOUS
10
356.839
20
-87.2182
11
356.839
21
-88.2958
0
LINE
8
BLACK
6
CONTINUOUS
10
356.839
20
-88.2958
11
357.917
21
-88.2958
0
LINE
8
BLACK
6
CONTINUOUS
10
69.0562
20
-144.558
11
70.5802
21
-143.034
0
LINE
8
BLACK
6
CONTINUOUS
10
70.5802
20
-143.034
11
69.0562
21
-141.51
0
LINE
8
BLACK
6
CONTINUOUS
10
69.0562
20
-141.51
11
67.5322
21
-143.034
0
LINE
8
BLACK
6
CONTINUOUS
10
67.5322
20
-143.034
11
69.0562
21
-144.558
0
LINE
8
BLACK
6
CONTINUOUS
10
92.8687
20
-144.558
11
94.3927
21
-143.034
0
LINE
8
BLACK
6
CONTINUOUS
10
94.3927
20
-143.034
11
92.8687
21
-141.51
0
LINE
8
BLACK
6
CONTINUOUS
10
92.8687
20
-141.51
11
91.3447
21
-143.034
0
LINE
8
BLACK
6
CONTINUOUS
10
91.3447
20
-143.034
11
92.8687
21
-144.558
0
LINE
8
BLACK
6
CONTINUOUS
10
133.35
20
-177.578
11
134.874
21
-176.054
0
LINE
8
BLACK
6
CONTINUOUS
10
134.874
20
-176.054
11
133.35
21
-174.53
0
LINE
8
BLACK
6
CONTINUOUS
10
133.35
20
-174.53
11
131.826
21
-176.054
0
LINE
8
BLACK
6
CONTINUOUS
10
131.826
20
-176.054
11
133.35
21
-177.578
0
LINE
8
BLACK
6
CONTINUOUS
10
138.112
20
-177.578
11
139.636
21
-176.054
0
LINE
8
BLACK
6
CONTINUOUS
10
139.636
20
-176.054
11
138.112
21
-174.53
0
LINE
8
BLACK
6
CONTINUOUS
10
138.112
20
-174.53
11
136.588
21
-176.054
0
LINE
8
BLACK
6
CONTINUOUS
10
136.588
20
-176.054
11
138.112
21
-177.578
0
LINE
8
BLACK
6
CONTINUOUS
10
147.637
20
-177.578
11
149.161
21
-176.054
0
LINE
8
BLACK
6
CONTINUOUS
10
149.161
20
-176.054
11
147.637
21
-174.53
0
LINE
8
BLACK
6
CONTINUOUS
10
147.637
20
-174.53
11
146.113
21
-176.054
0
LINE
8
BLACK
6
CONTINUOUS
10
146.113
20
-176.054
11
147.637
21
-177.578
0
LINE
8
BLACK
6
CONTINUOUS
10
152.4
20
-177.578
11
153.924
21
-176.054
0
LINE
8
BLACK
6
CONTINUOUS
10
153.924
20
-176.054
11
152.4
21
-174.53
0
LINE
8
BLACK
6
CONTINUOUS
10
152.4
20
-174.53
11
150.876
21
-176.054
0
LINE
8
BLACK
6
CONTINUOUS
10
150.876
20
-176.054
11
152.4
21
-177.578
0
LINE
8
BLACK
6
CONTINUOUS
10
176.213
20
-177.578
11
177.736
21
-176.054
0
LINE
8
BLACK
6
CONTINUOUS
10
177.736
20
-176.054
11
176.213
21
-174.53
0
LINE
8
BLACK
6
CONTINUOUS
10
176.213
20
-174.53
11
174.689
21
-176.054
0
LINE
8
BLACK
6
CONTINUOUS
10
174.689
20
-176.054
11
176.213
21
-177.578
0
LINE
8
BLACK
6
CONTINUOUS
10
176.213
20
-177.578
11
177.736
21
-176.054
0
LINE
8
BLACK
6
CONTINUOUS
10
177.736
20
-176.054
11
176.213
21
-174.53
0
LINE
8
BLACK
6
CONTINUOUS
10
176.213
20
-174.53
11
174.689
21
-176.054
0
LINE
8
BLACK
6
CONTINUOUS
10
174.689
20
-176.054
11
176.213
21
-177.578
0
LINE
8
BLACK
6
CONTINUOUS
10
190.5
20
-177.578
11
192.024
21
-176.054
0
LINE
8
BLACK
6
CONTINUOUS
10
192.024
20
-176.054
11
190.5
21
-174.53
0
LINE
8
BLACK
6
CONTINUOUS
10
190.5
20
-174.53
11
188.976
21
-176.054
0
LINE
8
BLACK
6
CONTINUOUS
10
188.976
20
-176.054
11
190.5
21
-177.578
0
LINE
8
BLACK
6
CONTINUOUS
10
214.312
20
-177.578
11
215.837
21
-176.054
0
LINE
8
BLACK
6
CONTINUOUS
10
215.837
20
-176.054
11
214.312
21
-174.53
0
LINE
8
BLACK
6
CONTINUOUS
10
214.312
20
-174.53
11
212.788
21
-176.054
0
LINE
8
BLACK
6
CONTINUOUS
10
212.788
20
-176.054
11
214.312
21
-177.578
0
LINE
8
BLACK
6
CONTINUOUS
10
221.456
20
-177.578
11
222.98
21
-176.054
0
LINE
8
BLACK
6
CONTINUOUS
10
222.98
20
-176.054
11
221.456
21
-174.53
0
LINE
8
BLACK
6
CONTINUOUS
10
221.456
20
-174.53
11
219.932
21
-176.054
0
LINE
8
BLACK
6
CONTINUOUS
10
219.932
20
-176.054
11
221.456
21
-177.578
0
LINE
8
BLACK
6
CONTINUOUS
10
230.981
20
-177.578
11
232.505
21
-176.054
0
LINE
8
BLACK
6
CONTINUOUS
10
232.505
20
-176.054
11
230.981
21
-174.53
0
LINE
8
BLACK
6
CONTINUOUS
10
230.981
20
-174.53
11
229.457
21
-176.054
0
LINE
8
BLACK
6
CONTINUOUS
10
229.457
20
-176.054
11
230.981
21
-177.578
0
LINE
8
BLACK
6
CONTINUOUS
10
247.65
20
-177.578
11
249.174
21
-176.054
0
LINE
8
BLACK
6
CONTINUOUS
10
249.174
20
-176.054
11
247.65
21
-174.53
0
LINE
8
BLACK
6
CONTINUOUS
10
247.65
20
-174.53
11
246.126
21
-176.054
0
LINE
8
BLACK
6
CONTINUOUS
10
246.126
20
-176.054
11
247.65
21
-177.578
0
LINE
8
BLACK
6
CONTINUOUS
10
247.65
20
-177.578
11
249.174
21
-176.054
0
LINE
8
BLACK
6
CONTINUOUS
10
249.174
20
-176.054
11
247.65
21
-174.53
0
LINE
8
BLACK
6
CONTINUOUS
10
247.65
20
-174.53
11
246.126
21
-176.054
0
LINE
8
BLACK
6
CONTINUOUS
10
246.126
20
-176.054
11
247.65
21
-177.578
0
LINE
8
BLACK
6
CONTINUOUS
10
254.794
20
-177.578
11
256.318
21
-176.054
0
LINE
8
BLACK
6
CONTINUOUS
10
256.318
20
-176.054
11
254.794
21
-174.53
0
LINE
8
BLACK
6
CONTINUOUS
10
254.794
20
-174.53
11
253.27
21
-176.054
0
LINE
8
BLACK
6
CONTINUOUS
10
253.27
20
-176.054
11
254.794
21
-177.578
0
LINE
8
BLACK
6
CONTINUOUS
10
259.556
20
-177.578
11
261.08
21
-176.054
0
LINE
8
BLACK
6
CONTINUOUS
10
261.08
20
-176.054
11
259.556
21
-174.53
0
LINE
8
BLACK
6
CONTINUOUS
10
259.556
20
-174.53
11
258.032
21
-176.054
0
LINE
8
BLACK
6
CONTINUOUS
10
258.032
20
-176.054
11
259.556
21
-177.578
0
LINE
8
BLACK
6
CONTINUOUS
10
300.037
20
-125.508
11
301.561
21
-123.984
0
LINE
8
BLACK
6
CONTINUOUS
10
301.561
20
-123.984
11
300.037
21
-122.46
0
LINE
8
BLACK
6
CONTINUOUS
10
300.037
20
-122.46
11
298.513
21
-123.984
0
LINE
8
BLACK
6
CONTINUOUS
10
298.513
20
-123.984
11
300.037
21
-125.508
0
LINE
8
BLACK
6
CONTINUOUS
10
314.325
20
-87.376
11
315.849
21
-85.852
0
LINE
8
BLACK
6
CONTINUOUS
10
315.849
20
-85.852
11
314.325
21
-84.328
0
LINE
8
BLACK
6
CONTINUOUS
10
314.325
20
-84.328
11
312.801
21
-85.852
0
LINE
8
BLACK
6
CONTINUOUS
10
312.801
20
-85.852
11
314.325
21
-87.376
0
LINE
8
BLACK
6
CONTINUOUS
10
323.85
20
-125.508
11
325.374
21
-123.984
0
LINE
8
BLACK
6
CONTINUOUS
10
325.374
20
-123.984
11
323.85
21
-122.46
0
LINE
8
BLACK
6
CONTINUOUS
10
323.85
20
-122.46
11
322.326
21
-123.984
0
LINE
8
BLACK
6
CONTINUOUS
10
322.326
20
-123.984
11
323.85
21
-125.508
0
LINE
8
BLACK
6
CONTINUOUS
10
338.137
20
-87.376
11
339.661
21
-85.852
0
LINE
8
BLACK
6
CONTINUOUS
10
339.661
20
-85.852
11
338.137
21
-84.328
0
LINE
8
BLACK
6
CONTINUOUS
10
338.137
20
-84.328
11
336.613
21
-85.852
0
LINE
8
BLACK
6
CONTINUOUS
10
336.613
20
-85.852
11
338.137
21
-87.376
0
LINE
8
BLACK
6
CONTINUOUS
10
340.36
20
-111.061
11
341.884
21
-109.537
0
LINE
8
BLACK
6
CONTINUOUS
10
341.884
20
-109.537
11
340.36
21
-108.013
0
LINE
8
BLACK
6
CONTINUOUS
10
340.36
20
-108.013
11
338.836
21
-109.537
0
LINE
8
BLACK
6
CONTINUOUS
10
338.836
20
-109.537
11
340.36
21
-111.061
0
LINE
8
BLACK
6
CONTINUOUS
10
340.36
20
-134.874
11
341.884
21
-133.35
0
LINE
8
BLACK
6
CONTINUOUS
10
341.884
20
-133.35
11
340.36
21
-131.826
0
LINE
8
BLACK
6
CONTINUOUS
10
340.36
20
-131.826
11
338.836
21
-133.35
0
LINE
8
BLACK
6
CONTINUOUS
10
338.836
20
-133.35
11
340.36
21
-134.874
0
LINE
8
BLACK
6
CONTINUOUS
10
62.0241
20
-180.986
11
62.0241
21
-178.986
0
LINE
8
BLACK
6
CONTINUOUS
10
62.0241
20
-178.986
11
62.5003
21
-178.986
0
LINE
8
BLACK
6
CONTINUOUS
10
62.5003
20
-178.986
11
62.786
21
-179.082
0
LINE
8
BLACK
6
CONTINUOUS
10
62.786
20
-179.082
11
62.9765
21
-179.272
0
LINE
8
BLACK
6
CONTINUOUS
10
62.9765
20
-179.272
11
63.0717
21
-179.463
0
LINE
8
BLACK
6
CONTINUOUS
10
63.0717
20
-179.463
11
63.1669
21
-179.843
0
LINE
8
BLACK
6
CONTINUOUS
10
63.1669
20
-179.843
11
63.1669
21
-180.129
0
LINE
8
BLACK
6
CONTINUOUS
10
63.1669
20
-180.129
11
63.0717
21
-180.51
0
LINE
8
BLACK
6
CONTINUOUS
10
63.0717
20
-180.51
11
62.9765
21
-180.701
0
LINE
8
BLACK
6
CONTINUOUS
10
62.9765
20
-180.701
11
62.786
21
-180.891
0
LINE
8
BLACK
6
CONTINUOUS
10
62.786
20
-180.891
11
62.5003
21
-180.986
0
LINE
8
BLACK
6
CONTINUOUS
10
62.5003
20
-180.986
11
62.0241
21
-180.986
0
LINE
8
BLACK
6
CONTINUOUS
10
64.0241
20
-180.986
11
64.0241
21
-179.653
0
LINE
8
BLACK
6
CONTINUOUS
10
64.0241
20
-180.034
11
64.1193
21
-179.843
0
LINE
8
BLACK
6
CONTINUOUS
10
64.1193
20
-179.843
11
64.2146
21
-179.748
0
LINE
8
BLACK
6
CONTINUOUS
10
64.2146
20
-179.748
11
64.405
21
-179.653
0
LINE
8
BLACK
6
CONTINUOUS
10
64.405
20
-179.653
11
64.5955
21
-179.653
0
LINE
8
BLACK
6
CONTINUOUS
10
65.2622
20
-180.986
11
65.2622
21
-179.653
0
LINE
8
BLACK
6
CONTINUOUS
10
65.2622
20
-178.986
11
65.1669
21
-179.082
0
LINE
8
BLACK
6
CONTINUOUS
10
65.1669
20
-179.082
11
65.2622
21
-179.177
0
LINE
8
BLACK
6
CONTINUOUS
10
65.2622
20
-179.177
11
65.3574
21
-179.082
0
LINE
8
BLACK
6
CONTINUOUS
10
65.3574
20
-179.082
11
65.2622
21
-178.986
0
LINE
8
BLACK
6
CONTINUOUS
10
65.2622
20
-178.986
11
65.2622
21
-179.177
0
LINE
8
BLACK
6
CONTINUOUS
10
66.5003
20
-180.986
11
66.3098
21
-180.891
0
LINE
8
BLACK
6
CONTINUOUS
10
66.3098
20
-180.891
11
66.2146
21
-180.701
0
LINE
8
BLACK
6
CONTINUOUS
10
66.2146
20
-180.701
11
66.2146
21
-178.986
0
LINE
8
BLACK
6
CONTINUOUS
10
67.5479
20
-180.986
11
67.3574
21
-180.891
0
LINE
8
BLACK
6
CONTINUOUS
10
67.3574
20
-180.891
11
67.2622
21
-180.701
0
LINE
8
BLACK
6
CONTINUOUS
10
67.2622
20
-180.701
11
67.2622
21
-178.986
0
LINE
8
BLACK
6
CONTINUOUS
10
69.8336
20
-180.986
11
69.8336
21
-178.986
0
LINE
8
BLACK
6
CONTINUOUS
10
69.8336
20
-178.986
11
70.5003
21
-180.415
0
LINE
8
BLACK
6
CONTINUOUS
10
70.5003
20
-180.415
11
71.1669
21
-178.986
0
LINE
8
BLACK
6
CONTINUOUS
10
71.1669
20
-178.986
11
71.1669
21
-180.986
0
LINE
8
BLACK
6
CONTINUOUS
10
72.9765
20
-180.986
11
72.9765
21
-179.939
0
LINE
8
BLACK
6
CONTINUOUS
10
72.9765
20
-179.939
11
72.8812
21
-179.748
0
LINE
8
BLACK
6
CONTINUOUS
10
72.8812
20
-179.748
11
72.6908
21
-179.653
0
LINE
8
BLACK
6
CONTINUOUS
10
72.6908
20
-179.653
11
72.3098
21
-179.653
0
LINE
8
BLACK
6
CONTINUOUS
10
72.3098
20
-179.653
11
72.1193
21
-179.748
0
LINE
8
BLACK
6
CONTINUOUS
10
72.9765
20
-180.891
11
72.786
21
-180.986
0
LINE
8
BLACK
6
CONTINUOUS
10
72.786
20
-180.986
11
72.3098
21
-180.986
0
LINE
8
BLACK
6
CONTINUOUS
10
72.3098
20
-180.986
11
72.1193
21
-180.891
0
LINE
8
BLACK
6
CONTINUOUS
10
72.1193
20
-180.891
11
72.0241
21
-180.701
0
LINE
8
BLACK
6
CONTINUOUS
10
72.0241
20
-180.701
11
72.0241
21
-180.51
0
LINE
8
BLACK
6
CONTINUOUS
10
72.0241
20
-180.51
11
72.1193
21
-180.32
0
LINE
8
BLACK
6
CONTINUOUS
10
72.1193
20
-180.32
11
72.3098
21
-180.224
0
LINE
8
BLACK
6
CONTINUOUS
10
72.3098
20
-180.224
11
72.786
21
-180.224
0
LINE
8
BLACK
6
CONTINUOUS
10
72.786
20
-180.224
11
72.9765
21
-180.129
0
LINE
8
BLACK
6
CONTINUOUS
10
73.9288
20
-179.653
11
73.9288
21
-181.653
0
LINE
8
BLACK
6
CONTINUOUS
10
73.9288
20
-179.748
11
74.1193
21
-179.653
0
LINE
8
BLACK
6
CONTINUOUS
10
74.1193
20
-179.653
11
74.5003
21
-179.653
0
LINE
8
BLACK
6
CONTINUOUS
10
74.5003
20
-179.653
11
74.6908
21
-179.748
0
LINE
8
BLACK
6
CONTINUOUS
10
74.6908
20
-179.748
11
74.786
21
-179.843
0
LINE
8
BLACK
6
CONTINUOUS
10
74.786
20
-179.843
11
74.8812
21
-180.034
0
LINE
8
BLACK
6
CONTINUOUS
10
74.8812
20
-180.034
11
74.8812
21
-180.605
0
LINE
8
BLACK
6
CONTINUOUS
10
74.8812
20
-180.605
11
74.786
21
-180.796
0
LINE
8
BLACK
6
CONTINUOUS
10
74.786
20
-180.796
11
74.6908
21
-180.891
0
LINE
8
BLACK
6
CONTINUOUS
10
74.6908
20
-180.891
11
74.5003
21
-180.986
0
LINE
8
BLACK
6
CONTINUOUS
10
74.5003
20
-180.986
11
74.1193
21
-180.986
0
LINE
8
BLACK
6
CONTINUOUS
10
74.1193
20
-180.986
11
73.9288
21
-180.891
0
LINE
8
BLACK
6
CONTINUOUS
10
75.7384
20
-180.796
11
75.8336
21
-180.891
0
LINE
8
BLACK
6
CONTINUOUS
10
75.8336
20
-180.891
11
75.7384
21
-180.986
0
LINE
8
BLACK
6
CONTINUOUS
10
75.7384
20
-180.986
11
75.6431
21
-180.891
0
LINE
8
BLACK
6
CONTINUOUS
10
75.6431
20
-180.891
11
75.7384
21
-180.796
0
LINE
8
BLACK
6
CONTINUOUS
10
75.7384
20
-180.796
11
75.7384
21
-180.986
0
LINE
8
BLACK
6
CONTINUOUS
10
75.7384
20
-179.748
11
75.8336
21
-179.843
0
LINE
8
BLACK
6
CONTINUOUS
10
75.8336
20
-179.843
11
75.7384
21
-179.939
0
LINE
8
BLACK
6
CONTINUOUS
10
75.7384
20
-179.939
11
75.6431
21
-179.843
0
LINE
8
BLACK
6
CONTINUOUS
10
75.6431
20
-179.843
11
75.7384
21
-179.748
0
LINE
8
BLACK
6
CONTINUOUS
10
75.7384
20
-179.748
11
75.7384
21
-179.939
0
LINE
8
BLACK
6
CONTINUOUS
10
59.2479
20
-184.111
11
59.5479
21
-184.411
0
LINE
8
BLACK
6
CONTINUOUS
10
59.5479
20
-184.111
11
59.2479
21
-184.411
0
LINE
8
BLACK
6
CONTINUOUS
10
62.405
20
-183.186
11
62.5955
21
-183.186
0
LINE
8
BLACK
6
CONTINUOUS
10
62.5955
20
-183.186
11
62.786
21
-183.282
0
LINE
8
BLACK
6
CONTINUOUS
10
62.786
20
-183.282
11
62.8812
21
-183.377
0
LINE
8
BLACK
6
CONTINUOUS
10
62.8812
20
-183.377
11
62.9765
21
-183.567
0
LINE
8
BLACK
6
CONTINUOUS
10
62.9765
20
-183.567
11
63.0717
21
-183.948
0
LINE
8
BLACK
6
CONTINUOUS
10
63.0717
20
-183.948
11
63.0717
21
-184.424
0
LINE
8
BLACK
6
CONTINUOUS
10
63.0717
20
-184.424
11
62.9765
21
-184.805
0
LINE
8
BLACK
6
CONTINUOUS
10
62.9765
20
-184.805
11
62.8812
21
-184.996
0
LINE
8
BLACK
6
CONTINUOUS
10
62.8812
20
-184.996
11
62.786
21
-185.091
0
LINE
8
BLACK
6
CONTINUOUS
10
62.786
20
-185.091
11
62.5955
21
-185.186
0
LINE
8
BLACK
6
CONTINUOUS
10
62.5955
20
-185.186
11
62.405
21
-185.186
0
LINE
8
BLACK
6
CONTINUOUS
10
62.405
20
-185.186
11
62.2146
21
-185.091
0
LINE
8
BLACK
6
CONTINUOUS
10
62.2146
20
-185.091
11
62.1193
21
-184.996
0
LINE
8
BLACK
6
CONTINUOUS
10
62.1193
20
-184.996
11
62.0241
21
-184.805
0
LINE
8
BLACK
6
CONTINUOUS
10
62.0241
20
-184.805
11
61.9288
21
-184.424
0
LINE
8
BLACK
6
CONTINUOUS
10
61.9288
20
-184.424
11
61.9288
21
-183.948
0
LINE
8
BLACK
6
CONTINUOUS
10
61.9288
20
-183.948
11
62.0241
21
-183.567
0
LINE
8
BLACK
6
CONTINUOUS
10
62.0241
20
-183.567
11
62.1193
21
-183.377
0
LINE
8
BLACK
6
CONTINUOUS
10
62.1193
20
-183.377
11
62.2146
21
-183.282
0
LINE
8
BLACK
6
CONTINUOUS
10
62.2146
20
-183.282
11
62.405
21
-183.186
0
LINE
8
BLACK
6
CONTINUOUS
10
63.9288
20
-184.996
11
64.0241
21
-185.091
0
LINE
8
BLACK
6
CONTINUOUS
10
64.0241
20
-185.091
11
63.9288
21
-185.186
0
LINE
8
BLACK
6
CONTINUOUS
10
63.9288
20
-185.186
11
63.8336
21
-185.091
0
LINE
8
BLACK
6
CONTINUOUS
10
63.8336
20
-185.091
11
63.9288
21
-184.996
0
LINE
8
BLACK
6
CONTINUOUS
10
63.9288
20
-184.996
11
63.9288
21
-185.186
0
LINE
8
BLACK
6
CONTINUOUS
10
64.6908
20
-183.186
11
65.9288
21
-183.186
0
LINE
8
BLACK
6
CONTINUOUS
10
65.9288
20
-183.186
11
65.2622
21
-183.948
0
LINE
8
BLACK
6
CONTINUOUS
10
65.2622
20
-183.948
11
65.5479
21
-183.948
0
LINE
8
BLACK
6
CONTINUOUS
10
65.5479
20
-183.948
11
65.7384
21
-184.043
0
LINE
8
BLACK
6
CONTINUOUS
10
65.7384
20
-184.043
11
65.8336
21
-184.139
0
LINE
8
BLACK
6
CONTINUOUS
10
65.8336
20
-184.139
11
65.9288
21
-184.329
0
LINE
8
BLACK
6
CONTINUOUS
10
65.9288
20
-184.329
11
65.9288
21
-184.805
0
LINE
8
BLACK
6
CONTINUOUS
10
65.9288
20
-184.805
11
65.8336
21
-184.996
0
LINE
8
BLACK
6
CONTINUOUS
10
65.8336
20
-184.996
11
65.7384
21
-185.091
0
LINE
8
BLACK
6
CONTINUOUS
10
65.7384
20
-185.091
11
65.5479
21
-185.186
0
LINE
8
BLACK
6
CONTINUOUS
10
65.5479
20
-185.186
11
64.9765
21
-185.186
0
LINE
8
BLACK
6
CONTINUOUS
10
64.9765
20
-185.186
11
64.786
21
-185.091
0
LINE
8
BLACK
6
CONTINUOUS
10
64.786
20
-185.091
11
64.6908
21
-184.996
0
LINE
8
BLACK
6
CONTINUOUS
10
67.1669
20
-183.186
11
67.3574
21
-183.186
0
LINE
8
BLACK
6
CONTINUOUS
10
67.3574
20
-183.186
11
67.5479
21
-183.282
0
LINE
8
BLACK
6
CONTINUOUS
10
67.5479
20
-183.282
11
67.6431
21
-183.377
0
LINE
8
BLACK
6
CONTINUOUS
10
67.6431
20
-183.377
11
67.7384
21
-183.567
0
LINE
8
BLACK
6
CONTINUOUS
10
67.7384
20
-183.567
11
67.8336
21
-183.948
0
LINE
8
BLACK
6
CONTINUOUS
10
67.8336
20
-183.948
11
67.8336
21
-184.424
0
LINE
8
BLACK
6
CONTINUOUS
10
67.8336
20
-184.424
11
67.7384
21
-184.805
0
LINE
8
BLACK
6
CONTINUOUS
10
67.7384
20
-184.805
11
67.6431
21
-184.996
0
LINE
8
BLACK
6
CONTINUOUS
10
67.6431
20
-184.996
11
67.5479
21
-185.091
0
LINE
8
BLACK
6
CONTINUOUS
10
67.5479
20
-185.091
11
67.3574
21
-185.186
0
LINE
8
BLACK
6
CONTINUOUS
10
67.3574
20
-185.186
11
67.1669
21
-185.186
0
LINE
8
BLACK
6
CONTINUOUS
10
67.1669
20
-185.186
11
66.9765
21
-185.091
0
LINE
8
BLACK
6
CONTINUOUS
10
66.9765
20
-185.091
11
66.8812
21
-184.996
0
LINE
8
BLACK
6
CONTINUOUS
10
66.8812
20
-184.996
11
66.786
21
-184.805
0
LINE
8
BLACK
6
CONTINUOUS
10
66.786
20
-184.805
11
66.6908
21
-184.424
0
LINE
8
BLACK
6
CONTINUOUS
10
66.6908
20
-184.424
11
66.6908
21
-183.948
0
LINE
8
BLACK
6
CONTINUOUS
10
66.6908
20
-183.948
11
66.786
21
-183.567
0
LINE
8
BLACK
6
CONTINUOUS
10
66.786
20
-183.567
11
66.8812
21
-183.377
0
LINE
8
BLACK
6
CONTINUOUS
10
66.8812
20
-183.377
11
66.9765
21
-183.282
0
LINE
8
BLACK
6
CONTINUOUS
10
66.9765
20
-183.282
11
67.1669
21
-183.186
0
LINE
8
BLACK
6
CONTINUOUS
10
69.0717
20
-183.186
11
69.2622
21
-183.186
0
LINE
8
BLACK
6
CONTINUOUS
10
69.2622
20
-183.186
11
69.4527
21
-183.282
0
LINE
8
BLACK
6
CONTINUOUS
10
69.4527
20
-183.282
11
69.5479
21
-183.377
0
LINE
8
BLACK
6
CONTINUOUS
10
69.5479
20
-183.377
11
69.6431
21
-183.567
0
LINE
8
BLACK
6
CONTINUOUS
10
69.6431
20
-183.567
11
69.7384
21
-183.948
0
LINE
8
BLACK
6
CONTINUOUS
10
69.7384
20
-183.948
11
69.7384
21
-184.424
0
LINE
8
BLACK
6
CONTINUOUS
10
69.7384
20
-184.424
11
69.6431
21
-184.805
0
LINE
8
BLACK
6
CONTINUOUS
10
69.6431
20
-184.805
11
69.5479
21
-184.996
0
LINE
8
BLACK
6
CONTINUOUS
10
69.5479
20
-184.996
11
69.4527
21
-185.091
0
LINE
8
BLACK
6
CONTINUOUS
10
69.4527
20
-185.091
11
69.2622
21
-185.186
0
LINE
8
BLACK
6
CONTINUOUS
10
69.2622
20
-185.186
11
69.0717
21
-185.186
0
LINE
8
BLACK
6
CONTINUOUS
10
69.0717
20
-185.186
11
68.8812
21
-185.091
0
LINE
8
BLACK
6
CONTINUOUS
10
68.8812
20
-185.091
11
68.786
21
-184.996
0
LINE
8
BLACK
6
CONTINUOUS
10
68.786
20
-184.996
11
68.6908
21
-184.805
0
LINE
8
BLACK
6
CONTINUOUS
10
68.6908
20
-184.805
11
68.5955
21
-184.424
0
LINE
8
BLACK
6
CONTINUOUS
10
68.5955
20
-184.424
11
68.5955
21
-183.948
0
LINE
8
BLACK
6
CONTINUOUS
10
68.5955
20
-183.948
11
68.6908
21
-183.567
0
LINE
8
BLACK
6
CONTINUOUS
10
68.6908
20
-183.567
11
68.786
21
-183.377
0
LINE
8
BLACK
6
CONTINUOUS
10
68.786
20
-183.377
11
68.8812
21
-183.282
0
LINE
8
BLACK
6
CONTINUOUS
10
68.8812
20
-183.282
11
69.0717
21
-183.186
0
LINE
8
BLACK
6
CONTINUOUS
10
70.5955
20
-185.186
11
70.5955
21
-183.853
0
LINE
8
BLACK
6
CONTINUOUS
10
70.5955
20
-184.043
11
70.6908
21
-183.948
0
LINE
8
BLACK
6
CONTINUOUS
10
70.6908
20
-183.948
11
70.8812
21
-183.853
0
LINE
8
BLACK
6
CONTINUOUS
10
70.8812
20
-183.853
11
71.1669
21
-183.853
0
LINE
8
BLACK
6
CONTINUOUS
10
71.1669
20
-183.853
11
71.3574
21
-183.948
0
LINE
8
BLACK
6
CONTINUOUS
10
71.3574
20
-183.948
11
71.4527
21
-184.139
0
LINE
8
BLACK
6
CONTINUOUS
10
71.4527
20
-184.139
11
71.4527
21
-185.186
0
LINE
8
BLACK
6
CONTINUOUS
10
71.4527
20
-184.139
11
71.5479
21
-183.948
0
LINE
8
BLACK
6
CONTINUOUS
10
71.5479
20
-183.948
11
71.7384
21
-183.853
0
LINE
8
BLACK
6
CONTINUOUS
10
71.7384
20
-183.853
11
72.0241
21
-183.853
0
LINE
8
BLACK
6
CONTINUOUS
10
72.0241
20
-183.853
11
72.2146
21
-183.948
0
LINE
8
BLACK
6
CONTINUOUS
10
72.2146
20
-183.948
11
72.3098
21
-184.139
0
LINE
8
BLACK
6
CONTINUOUS
10
72.3098
20
-184.139
11
72.3098
21
-185.186
0
LINE
8
BLACK
6
CONTINUOUS
10
73.2622
20
-185.186
11
73.2622
21
-183.853
0
LINE
8
BLACK
6
CONTINUOUS
10
73.2622
20
-184.043
11
73.3574
21
-183.948
0
LINE
8
BLACK
6
CONTINUOUS
10
73.3574
20
-183.948
11
73.5479
21
-183.853
0
LINE
8
BLACK
6
CONTINUOUS
10
73.5479
20
-183.853
11
73.8336
21
-183.853
0
LINE
8
BLACK
6
CONTINUOUS
10
73.8336
20
-183.853
11
74.0241
21
-183.948
0
LINE
8
BLACK
6
CONTINUOUS
10
74.0241
20
-183.948
11
74.1193
21
-184.139
0
LINE
8
BLACK
6
CONTINUOUS
10
74.1193
20
-184.139
11
74.1193
21
-185.186
0
LINE
8
BLACK
6
CONTINUOUS
10
74.1193
20
-184.139
11
74.2146
21
-183.948
0
LINE
8
BLACK
6
CONTINUOUS
10
74.2146
20
-183.948
11
74.405
21
-183.853
0
LINE
8
BLACK
6
CONTINUOUS
10
74.405
20
-183.853
11
74.6908
21
-183.853
0
LINE
8
BLACK
6
CONTINUOUS
10
74.6908
20
-183.853
11
74.8812
21
-183.948
0
LINE
8
BLACK
6
CONTINUOUS
10
74.8812
20
-183.948
11
74.9765
21
-184.139
0
LINE
8
BLACK
6
CONTINUOUS
10
74.9765
20
-184.139
11
74.9765
21
-185.186
0
LINE
8
BLACK
6
CONTINUOUS
10
78.8812
20
-183.091
11
77.1669
21
-185.663
0
LINE
8
BLACK
6
CONTINUOUS
10
81.4527
20
-183.186
11
81.6431
21
-183.186
0
LINE
8
BLACK
6
CONTINUOUS
10
81.6431
20
-183.186
11
81.8336
21
-183.282
0
LINE
8
BLACK
6
CONTINUOUS
10
81.8336
20
-183.282
11
81.9288
21
-183.377
0
LINE
8
BLACK
6
CONTINUOUS
10
81.9288
20
-183.377
11
82.0241
21
-183.567
0
LINE
8
BLACK
6
CONTINUOUS
10
82.0241
20
-183.567
11
82.1193
21
-183.948
0
LINE
8
BLACK
6
CONTINUOUS
10
82.1193
20
-183.948
11
82.1193
21
-184.424
0
LINE
8
BLACK
6
CONTINUOUS
10
82.1193
20
-184.424
11
82.0241
21
-184.805
0
LINE
8
BLACK
6
CONTINUOUS
10
82.0241
20
-184.805
11
81.9288
21
-184.996
0
LINE
8
BLACK
6
CONTINUOUS
10
81.9288
20
-184.996
11
81.8336
21
-185.091
0
LINE
8
BLACK
6
CONTINUOUS
10
81.8336
20
-185.091
11
81.6431
21
-185.186
0
LINE
8
BLACK
6
CONTINUOUS
10
81.6431
20
-185.186
11
81.4527
21
-185.186
0
LINE
8
BLACK
6
CONTINUOUS
10
81.4527
20
-185.186
11
81.2622
21
-185.091
0
LINE
8
BLACK
6
CONTINUOUS
10
81.2622
20
-185.091
11
81.1669
21
-184.996
0
LINE
8
BLACK
6
CONTINUOUS
10
81.1669
20
-184.996
11
81.0717
21
-184.805
0
LINE
8
BLACK
6
CONTINUOUS
10
81.0717
20
-184.805
11
80.9765
21
-184.424
0
LINE
8
BLACK
6
CONTINUOUS
10
80.9765
20
-184.424
11
80.9765
21
-183.948
0
LINE
8
BLACK
6
CONTINUOUS
10
80.9765
20
-183.948
11
81.0717
21
-183.567
0
LINE
8
BLACK
6
CONTINUOUS
10
81.0717
20
-183.567
11
81.1669
21
-183.377
0
LINE
8
BLACK
6
CONTINUOUS
10
81.1669
20
-183.377
11
81.2622
21
-183.282
0
LINE
8
BLACK
6
CONTINUOUS
10
81.2622
20
-183.282
11
81.4527
21
-183.186
0
LINE
8
BLACK
6
CONTINUOUS
10
82.9765
20
-184.996
11
83.0717
21
-185.091
0
LINE
8
BLACK
6
CONTINUOUS
10
83.0717
20
-185.091
11
82.9765
21
-185.186
0
LINE
8
BLACK
6
CONTINUOUS
10
82.9765
20
-185.186
11
82.8812
21
-185.091
0
LINE
8
BLACK
6
CONTINUOUS
10
82.8812
20
-185.091
11
82.9765
21
-184.996
0
LINE
8
BLACK
6
CONTINUOUS
10
82.9765
20
-184.996
11
82.9765
21
-185.186
0
LINE
8
BLACK
6
CONTINUOUS
10
84.3098
20
-183.186
11
84.5003
21
-183.186
0
LINE
8
BLACK
6
CONTINUOUS
10
84.5003
20
-183.186
11
84.6908
21
-183.282
0
LINE
8
BLACK
6
CONTINUOUS
10
84.6908
20
-183.282
11
84.786
21
-183.377
0
LINE
8
BLACK
6
CONTINUOUS
10
84.786
20
-183.377
11
84.8812
21
-183.567
0
LINE
8
BLACK
6
CONTINUOUS
10
84.8812
20
-183.567
11
84.9765
21
-183.948
0
LINE
8
BLACK
6
CONTINUOUS
10
84.9765
20
-183.948
11
84.9765
21
-184.424
0
LINE
8
BLACK
6
CONTINUOUS
10
84.9765
20
-184.424
11
84.8812
21
-184.805
0
LINE
8
BLACK
6
CONTINUOUS
10
84.8812
20
-184.805
11
84.786
21
-184.996
0
LINE
8
BLACK
6
CONTINUOUS
10
84.786
20
-184.996
11
84.6908
21
-185.091
0
LINE
8
BLACK
6
CONTINUOUS
10
84.6908
20
-185.091
11
84.5003
21
-185.186
0
LINE
8
BLACK
6
CONTINUOUS
10
84.5003
20
-185.186
11
84.3098
21
-185.186
0
LINE
8
BLACK
6
CONTINUOUS
10
84.3098
20
-185.186
11
84.1193
21
-185.091
0
LINE
8
BLACK
6
CONTINUOUS
10
84.1193
20
-185.091
11
84.0241
21
-184.996
0
LINE
8
BLACK
6
CONTINUOUS
10
84.0241
20
-184.996
11
83.9288
21
-184.805
0
LINE
8
BLACK
6
CONTINUOUS
10
83.9288
20
-184.805
11
83.8336
21
-184.424
0
LINE
8
BLACK
6
CONTINUOUS
10
83.8336
20
-184.424
11
83.8336
21
-183.948
0
LINE
8
BLACK
6
CONTINUOUS
10
83.8336
20
-183.948
11
83.9288
21
-183.567
0
LINE
8
BLACK
6
CONTINUOUS
10
83.9288
20
-183.567
11
84.0241
21
-183.377
0
LINE
8
BLACK
6
CONTINUOUS
10
84.0241
20
-183.377
11
84.1193
21
-183.282
0
LINE
8
BLACK
6
CONTINUOUS
10
84.1193
20
-183.282
11
84.3098
21
-183.186
0
LINE
8
BLACK
6
CONTINUOUS
10
86.8812
20
-185.186
11
85.7384
21
-185.186
0
LINE
8
BLACK
6
CONTINUOUS
10
86.3098
20
-185.186
11
86.3098
21
-183.186
0
LINE
8
BLACK
6
CONTINUOUS
10
86.3098
20
-183.186
11
86.1193
21
-183.472
0
LINE
8
BLACK
6
CONTINUOUS
10
86.1193
20
-183.472
11
85.9288
21
-183.663
0
LINE
8
BLACK
6
CONTINUOUS
10
85.9288
20
-183.663
11
85.7384
21
-183.758
0
LINE
8
BLACK
6
CONTINUOUS
10
88.786
20
-185.186
11
87.6431
21
-185.186
0
LINE
8
BLACK
6
CONTINUOUS
10
88.2146
20
-185.186
11
88.2146
21
-183.186
0
LINE
8
BLACK
6
CONTINUOUS
10
88.2146
20
-183.186
11
88.0241
21
-183.472
0
LINE
8
BLACK
6
CONTINUOUS
10
88.0241
20
-183.472
11
87.8336
21
-183.663
0
LINE
8
BLACK
6
CONTINUOUS
10
87.8336
20
-183.663
11
87.6431
21
-183.758
0
LINE
8
BLACK
6
CONTINUOUS
10
89.9288
20
-184.043
11
89.7384
21
-183.948
0
LINE
8
BLACK
6
CONTINUOUS
10
89.7384
20
-183.948
11
89.6431
21
-183.853
0
LINE
8
BLACK
6
CONTINUOUS
10
89.6431
20
-183.853
11
89.5479
21
-183.663
0
LINE
8
BLACK
6
CONTINUOUS
10
89.5479
20
-183.663
11
89.5479
21
-183.567
0
LINE
8
BLACK
6
CONTINUOUS
10
89.5479
20
-183.567
11
89.6431
21
-183.377
0
LINE
8
BLACK
6
CONTINUOUS
10
89.6431
20
-183.377
11
89.7384
21
-183.282
0
LINE
8
BLACK
6
CONTINUOUS
10
89.7384
20
-183.282
11
89.9288
21
-183.186
0
LINE
8
BLACK
6
CONTINUOUS
10
89.9288
20
-183.186
11
90.3098
21
-183.186
0
LINE
8
BLACK
6
CONTINUOUS
10
90.3098
20
-183.186
11
90.5003
21
-183.282
0
LINE
8
BLACK
6
CONTINUOUS
10
90.5003
20
-183.282
11
90.5955
21
-183.377
0
LINE
8
BLACK
6
CONTINUOUS
10
90.5955
20
-183.377
11
90.6908
21
-183.567
0
LINE
8
BLACK
6
CONTINUOUS
10
90.6908
20
-183.567
11
90.6908
21
-183.663
0
LINE
8
BLACK
6
CONTINUOUS
10
90.6908
20
-183.663
11
90.5955
21
-183.853
0
LINE
8
BLACK
6
CONTINUOUS
10
90.5955
20
-183.853
11
90.5003
21
-183.948
0
LINE
8
BLACK
6
CONTINUOUS
10
90.5003
20
-183.948
11
90.3098
21
-184.043
0
LINE
8
BLACK
6
CONTINUOUS
10
90.3098
20
-184.043
11
89.9288
21
-184.043
0
LINE
8
BLACK
6
CONTINUOUS
10
89.9288
20
-184.043
11
89.7384
21
-184.139
0
LINE
8
BLACK
6
CONTINUOUS
10
89.7384
20
-184.139
11
89.6431
21
-184.234
0
LINE
8
BLACK
6
CONTINUOUS
10
89.6431
20
-184.234
11
89.5479
21
-184.424
0
LINE
8
BLACK
6
CONTINUOUS
10
89.5479
20
-184.424
11
89.5479
21
-184.805
0
LINE
8
BLACK
6
CONTINUOUS
10
89.5479
20
-184.805
11
89.6431
21
-184.996
0
LINE
8
BLACK
6
CONTINUOUS
10
89.6431
20
-184.996
11
89.7384
21
-185.091
0
LINE
8
BLACK
6
CONTINUOUS
10
89.7384
20
-185.091
11
89.9288
21
-185.186
0
LINE
8
BLACK
6
CONTINUOUS
10
89.9288
20
-185.186
11
90.3098
21
-185.186
0
LINE
8
BLACK
6
CONTINUOUS
10
90.3098
20
-185.186
11
90.5003
21
-185.091
0
LINE
8
BLACK
6
CONTINUOUS
10
90.5003
20
-185.091
11
90.5955
21
-184.996
0
LINE
8
BLACK
6
CONTINUOUS
10
90.5955
20
-184.996
11
90.6908
21
-184.805
0
LINE
8
BLACK
6
CONTINUOUS
10
90.6908
20
-184.805
11
90.6908
21
-184.424
0
LINE
8
BLACK
6
CONTINUOUS
10
90.6908
20
-184.424
11
90.5955
21
-184.234
0
LINE
8
BLACK
6
CONTINUOUS
10
90.5955
20
-184.234
11
90.5003
21
-184.139
0
LINE
8
BLACK
6
CONTINUOUS
10
90.5003
20
-184.139
11
90.3098
21
-184.043
0
LINE
8
BLACK
6
CONTINUOUS
10
91.4527
20
-183.186
11
91.4527
21
-183.567
0
LINE
8
BLACK
6
CONTINUOUS
10
92.2146
20
-183.186
11
92.2146
21
-183.567
0
LINE
8
BLACK
6
CONTINUOUS
10
95.1669
20
-185.948
11
95.0717
21
-185.853
0
LINE
8
BLACK
6
CONTINUOUS
10
95.0717
20
-185.853
11
94.8812
21
-185.567
0
LINE
8
BLACK
6
CONTINUOUS
10
94.8812
20
-185.567
11
94.786
21
-185.377
0
LINE
8
BLACK
6
CONTINUOUS
10
94.786
20
-185.377
11
94.6908
21
-185.091
0
LINE
8
BLACK
6
CONTINUOUS
10
94.6908
20
-185.091
11
94.5955
21
-184.615
0
LINE
8
BLACK
6
CONTINUOUS
10
94.5955
20
-184.615
11
94.5955
21
-184.234
0
LINE
8
BLACK
6
CONTINUOUS
10
94.5955
20
-184.234
11
94.6908
21
-183.758
0
LINE
8
BLACK
6
CONTINUOUS
10
94.6908
20
-183.758
11
94.786
21
-183.472
0
LINE
8
BLACK
6
CONTINUOUS
10
94.786
20
-183.472
11
94.8812
21
-183.282
0
LINE
8
BLACK
6
CONTINUOUS
10
94.8812
20
-183.282
11
95.0717
21
-182.996
0
LINE
8
BLACK
6
CONTINUOUS
10
95.0717
20
-182.996
11
95.1669
21
-182.901
0
LINE
8
BLACK
6
CONTINUOUS
10
96.9765
20
-185.186
11
95.8336
21
-185.186
0
LINE
8
BLACK
6
CONTINUOUS
10
96.405
20
-185.186
11
96.405
21
-183.186
0
LINE
8
BLACK
6
CONTINUOUS
10
96.405
20
-183.186
11
96.2146
21
-183.472
0
LINE
8
BLACK
6
CONTINUOUS
10
96.2146
20
-183.472
11
96.0241
21
-183.663
0
LINE
8
BLACK
6
CONTINUOUS
10
96.0241
20
-183.663
11
95.8336
21
-183.758
0
LINE
8
BLACK
6
CONTINUOUS
10
97.9288
20
-185.186
11
98.3098
21
-185.186
0
LINE
8
BLACK
6
CONTINUOUS
10
98.3098
20
-185.186
11
98.5003
21
-185.091
0
LINE
8
BLACK
6
CONTINUOUS
10
98.5003
20
-185.091
11
98.5955
21
-184.996
0
LINE
8
BLACK
6
CONTINUOUS
10
98.5955
20
-184.996
11
98.786
21
-184.71
0
LINE
8
BLACK
6
CONTINUOUS
10
98.786
20
-184.71
11
98.8812
21
-184.329
0
LINE
8
BLACK
6
CONTINUOUS
10
98.8812
20
-184.329
11
98.8812
21
-183.567
0
LINE
8
BLACK
6
CONTINUOUS
10
98.8812
20
-183.567
11
98.786
21
-183.377
0
LINE
8
BLACK
6
CONTINUOUS
10
98.786
20
-183.377
11
98.6908
21
-183.282
0
LINE
8
BLACK
6
CONTINUOUS
10
98.6908
20
-183.282
11
98.5003
21
-183.186
0
LINE
8
BLACK
6
CONTINUOUS
10
98.5003
20
-183.186
11
98.1193
21
-183.186
0
LINE
8
BLACK
6
CONTINUOUS
10
98.1193
20
-183.186
11
97.9288
21
-183.282
0
LINE
8
BLACK
6
CONTINUOUS
10
97.9288
20
-183.282
11
97.8336
21
-183.377
0
LINE
8
BLACK
6
CONTINUOUS
10
97.8336
20
-183.377
11
97.7384
21
-183.567
0
LINE
8
BLACK
6
CONTINUOUS
10
97.7384
20
-183.567
11
97.7384
21
-184.043
0
LINE
8
BLACK
6
CONTINUOUS
10
97.7384
20
-184.043
11
97.8336
21
-184.234
0
LINE
8
BLACK
6
CONTINUOUS
10
97.8336
20
-184.234
11
97.9288
21
-184.329
0
LINE
8
BLACK
6
CONTINUOUS
10
97.9288
20
-184.329
11
98.1193
21
-184.424
0
LINE
8
BLACK
6
CONTINUOUS
10
98.1193
20
-184.424
11
98.5003
21
-184.424
0
LINE
8
BLACK
6
CONTINUOUS
10
98.5003
20
-184.424
11
98.6908
21
-184.329
0
LINE
8
BLACK
6
CONTINUOUS
10
98.6908
20
-184.329
11
98.786
21
-184.234
0
LINE
8
BLACK
6
CONTINUOUS
10
98.786
20
-184.234
11
98.8812
21
-184.043
0
LINE
8
BLACK
6
CONTINUOUS
10
101.262
20
-185.186
11
101.262
21
-183.186
0
LINE
8
BLACK
6
CONTINUOUS
10
102.119
20
-185.186
11
102.119
21
-184.139
0
LINE
8
BLACK
6
CONTINUOUS
10
102.119
20
-184.139
11
102.024
21
-183.948
0
LINE
8
BLACK
6
CONTINUOUS
10
102.024
20
-183.948
11
101.834
21
-183.853
0
LINE
8
BLACK
6
CONTINUOUS
10
101.834
20
-183.853
11
101.548
21
-183.853
0
LINE
8
BLACK
6
CONTINUOUS
10
101.548
20
-183.853
11
101.357
21
-183.948
0
LINE
8
BLACK
6
CONTINUOUS
10
101.357
20
-183.948
11
101.262
21
-184.043
0
LINE
8
BLACK
6
CONTINUOUS
10
103.357
20
-185.186
11
103.167
21
-185.091
0
LINE
8
BLACK
6
CONTINUOUS
10
103.167
20
-185.091
11
103.072
21
-184.996
0
LINE
8
BLACK
6
CONTINUOUS
10
103.072
20
-184.996
11
102.976
21
-184.805
0
LINE
8
BLACK
6
CONTINUOUS
10
102.976
20
-184.805
11
102.976
21
-184.234
0
LINE
8
BLACK
6
CONTINUOUS
10
102.976
20
-184.234
11
103.072
21
-184.043
0
LINE
8
BLACK
6
CONTINUOUS
10
103.072
20
-184.043
11
103.167
21
-183.948
0
LINE
8
BLACK
6
CONTINUOUS
10
103.167
20
-183.948
11
103.357
21
-183.853
0
LINE
8
BLACK
6
CONTINUOUS
10
103.357
20
-183.853
11
103.643
21
-183.853
0
LINE
8
BLACK
6
CONTINUOUS
10
103.643
20
-183.853
11
103.834
21
-183.948
0
LINE
8
BLACK
6
CONTINUOUS
10
103.834
20
-183.948
11
103.929
21
-184.043
0
LINE
8
BLACK
6
CONTINUOUS
10
103.929
20
-184.043
11
104.024
21
-184.234
0
LINE
8
BLACK
6
CONTINUOUS
10
104.024
20
-184.234
11
104.024
21
-184.805
0
LINE
8
BLACK
6
CONTINUOUS
10
104.024
20
-184.805
11
103.929
21
-184.996
0
LINE
8
BLACK
6
CONTINUOUS
10
103.929
20
-184.996
11
103.834
21
-185.091
0
LINE
8
BLACK
6
CONTINUOUS
10
103.834
20
-185.091
11
103.643
21
-185.186
0
LINE
8
BLACK
6
CONTINUOUS
10
103.643
20
-185.186
11
103.357
21
-185.186
0
LINE
8
BLACK
6
CONTINUOUS
10
105.167
20
-185.186
11
104.976
21
-185.091
0
LINE
8
BLACK
6
CONTINUOUS
10
104.976
20
-185.091
11
104.881
21
-184.901
0
LINE
8
BLACK
6
CONTINUOUS
10
104.881
20
-184.901
11
104.881
21
-183.186
0
LINE
8
BLACK
6
CONTINUOUS
10
106.691
20
-185.091
11
106.5
21
-185.186
0
LINE
8
BLACK
6
CONTINUOUS
10
106.5
20
-185.186
11
106.119
21
-185.186
0
LINE
8
BLACK
6
CONTINUOUS
10
106.119
20
-185.186
11
105.929
21
-185.091
0
LINE
8
BLACK
6
CONTINUOUS
10
105.929
20
-185.091
11
105.834
21
-184.901
0
LINE
8
BLACK
6
CONTINUOUS
10
105.834
20
-184.901
11
105.834
21
-184.139
0
LINE
8
BLACK
6
CONTINUOUS
10
105.834
20
-184.139
11
105.929
21
-183.948
0
LINE
8
BLACK
6
CONTINUOUS
10
105.929
20
-183.948
11
106.119
21
-183.853
0
LINE
8
BLACK
6
CONTINUOUS
10
106.119
20
-183.853
11
106.5
21
-183.853
0
LINE
8
BLACK
6
CONTINUOUS
10
106.5
20
-183.853
11
106.691
21
-183.948
0
LINE
8
BLACK
6
CONTINUOUS
10
106.691
20
-183.948
11
106.786
21
-184.139
0
LINE
8
BLACK
6
CONTINUOUS
10
106.786
20
-184.139
11
106.786
21
-184.329
0
LINE
8
BLACK
6
CONTINUOUS
10
106.786
20
-184.329
11
105.834
21
-184.52
0
LINE
8
BLACK
6
CONTINUOUS
10
107.548
20
-185.091
11
107.738
21
-185.186
0
LINE
8
BLACK
6
CONTINUOUS
10
107.738
20
-185.186
11
108.119
21
-185.186
0
LINE
8
BLACK
6
CONTINUOUS
10
108.119
20
-185.186
11
108.31
21
-185.091
0
LINE
8
BLACK
6
CONTINUOUS
10
108.31
20
-185.091
11
108.405
21
-184.901
0
LINE
8
BLACK
6
CONTINUOUS
10
108.405
20
-184.901
11
108.405
21
-184.805
0
LINE
8
BLACK
6
CONTINUOUS
10
108.405
20
-184.805
11
108.31
21
-184.615
0
LINE
8
BLACK
6
CONTINUOUS
10
108.31
20
-184.615
11
108.119
21
-184.52
0
LINE
8
BLACK
6
CONTINUOUS
10
108.119
20
-184.52
11
107.834
21
-184.52
0
LINE
8
BLACK
6
CONTINUOUS
10
107.834
20
-184.52
11
107.643
21
-184.424
0
LINE
8
BLACK
6
CONTINUOUS
10
107.643
20
-184.424
11
107.548
21
-184.234
0
LINE
8
BLACK
6
CONTINUOUS
10
107.548
20
-184.234
11
107.548
21
-184.139
0
LINE
8
BLACK
6
CONTINUOUS
10
107.548
20
-184.139
11
107.643
21
-183.948
0
LINE
8
BLACK
6
CONTINUOUS
10
107.643
20
-183.948
11
107.834
21
-183.853
0
LINE
8
BLACK
6
CONTINUOUS
10
107.834
20
-183.853
11
108.119
21
-183.853
0
LINE
8
BLACK
6
CONTINUOUS
10
108.119
20
-183.853
11
108.31
21
-183.948
0
LINE
8
BLACK
6
CONTINUOUS
10
109.072
20
-185.948
11
109.167
21
-185.853
0
LINE
8
BLACK
6
CONTINUOUS
10
109.167
20
-185.853
11
109.357
21
-185.567
0
LINE
8
BLACK
6
CONTINUOUS
10
109.357
20
-185.567
11
109.453
21
-185.377
0
LINE
8
BLACK
6
CONTINUOUS
10
109.453
20
-185.377
11
109.548
21
-185.091
0
LINE
8
BLACK
6
CONTINUOUS
10
109.548
20
-185.091
11
109.643
21
-184.615
0
LINE
8
BLACK
6
CONTINUOUS
10
109.643
20
-184.615
11
109.643
21
-184.234
0
LINE
8
BLACK
6
CONTINUOUS
10
109.643
20
-184.234
11
109.548
21
-183.758
0
LINE
8
BLACK
6
CONTINUOUS
10
109.548
20
-183.758
11
109.453
21
-183.472
0
LINE
8
BLACK
6
CONTINUOUS
10
109.453
20
-183.472
11
109.357
21
-183.282
0
LINE
8
BLACK
6
CONTINUOUS
10
109.357
20
-183.282
11
109.167
21
-182.996
0
LINE
8
BLACK
6
CONTINUOUS
10
109.167
20
-182.996
11
109.072
21
-182.901
0
CIRCLE
8
BLACK
10
59.3479
20
-186.901
40
0.2
0
LINE
8
BLACK
6
CONTINUOUS
10
62.405
20
-185.826
11
62.5955
21
-185.826
0
LINE
8
BLACK
6
CONTINUOUS
10
62.5955
20
-185.826
11
62.786
21
-185.922
0
LINE
8
BLACK
6
CONTINUOUS
10
62.786
20
-185.922
11
62.8812
21
-186.017
0
LINE
8
BLACK
6
CONTINUOUS
10
62.8812
20
-186.017
11
62.9765
21
-186.207
0
LINE
8
BLACK
6
CONTINUOUS
10
62.9765
20
-186.207
11
63.0717
21
-186.588
0
LINE
8
BLACK
6
CONTINUOUS
10
63.0717
20
-186.588
11
63.0717
21
-187.064
0
LINE
8
BLACK
6
CONTINUOUS
10
63.0717
20
-187.064
11
62.9765
21
-187.445
0
LINE
8
BLACK
6
CONTINUOUS
10
62.9765
20
-187.445
11
62.8812
21
-187.636
0
LINE
8
BLACK
6
CONTINUOUS
10
62.8812
20
-187.636
11
62.786
21
-187.731
0
LINE
8
BLACK
6
CONTINUOUS
10
62.786
20
-187.731
11
62.5955
21
-187.826
0
LINE
8
BLACK
6
CONTINUOUS
10
62.5955
20
-187.826
11
62.405
21
-187.826
0
LINE
8
BLACK
6
CONTINUOUS
10
62.405
20
-187.826
11
62.2146
21
-187.731
0
LINE
8
BLACK
6
CONTINUOUS
10
62.2146
20
-187.731
11
62.1193
21
-187.636
0
LINE
8
BLACK
6
CONTINUOUS
10
62.1193
20
-187.636
11
62.0241
21
-187.445
0
LINE
8
BLACK
6
CONTINUOUS
10
62.0241
20
-187.445
11
61.9288
21
-187.064
0
LINE
8
BLACK
6
CONTINUOUS
10
61.9288
20
-187.064
11
61.9288
21
-186.588
0
LINE
8
BLACK
6
CONTINUOUS
10
61.9288
20
-186.588
11
62.0241
21
-186.207
0
LINE
8
BLACK
6
CONTINUOUS
10
62.0241
20
-186.207
11
62.1193
21
-186.017
0
LINE
8
BLACK
6
CONTINUOUS
10
62.1193
20
-186.017
11
62.2146
21
-185.922
0
LINE
8
BLACK
6
CONTINUOUS
10
62.2146
20
-185.922
11
62.405
21
-185.826
0
LINE
8
BLACK
6
CONTINUOUS
10
63.9288
20
-187.636
11
64.0241
21
-187.731
0
LINE
8
BLACK
6
CONTINUOUS
10
64.0241
20
-187.731
11
63.9288
21
-187.826
0
LINE
8
BLACK
6
CONTINUOUS
10
63.9288
20
-187.826
11
63.8336
21
-187.731
0
LINE
8
BLACK
6
CONTINUOUS
10
63.8336
20
-187.731
11
63.9288
21
-187.636
0
LINE
8
BLACK
6
CONTINUOUS
10
63.9288
20
-187.636
11
63.9288
21
-187.826
0
LINE
8
BLACK
6
CONTINUOUS
10
65.7384
20
-186.493
11
65.7384
21
-187.826
0
LINE
8
BLACK
6
CONTINUOUS
10
65.2622
20
-185.731
11
64.786
21
-187.16
0
LINE
8
BLACK
6
CONTINUOUS
10
64.786
20
-187.16
11
66.0241
21
-187.16
0
LINE
8
BLACK
6
CONTINUOUS
10
67.1669
20
-185.826
11
67.3574
21
-185.826
0
LINE
8
BLACK
6
CONTINUOUS
10
67.3574
20
-185.826
11
67.5479
21
-185.922
0
LINE
8
BLACK
6
CONTINUOUS
10
67.5479
20
-185.922
11
67.6431
21
-186.017
0
LINE
8
BLACK
6
CONTINUOUS
10
67.6431
20
-186.017
11
67.7384
21
-186.207
0
LINE
8
BLACK
6
CONTINUOUS
10
67.7384
20
-186.207
11
67.8336
21
-186.588
0
LINE
8
BLACK
6
CONTINUOUS
10
67.8336
20
-186.588
11
67.8336
21
-187.064
0
LINE
8
BLACK
6
CONTINUOUS
10
67.8336
20
-187.064
11
67.7384
21
-187.445
0
LINE
8
BLACK
6
CONTINUOUS
10
67.7384
20
-187.445
11
67.6431
21
-187.636
0
LINE
8
BLACK
6
CONTINUOUS
10
67.6431
20
-187.636
11
67.5479
21
-187.731
0
LINE
8
BLACK
6
CONTINUOUS
10
67.5479
20
-187.731
11
67.3574
21
-187.826
0
LINE
8
BLACK
6
CONTINUOUS
10
67.3574
20
-187.826
11
67.1669
21
-187.826
0
LINE
8
BLACK
6
CONTINUOUS
10
67.1669
20
-187.826
11
66.9765
21
-187.731
0
LINE
8
BLACK
6
CONTINUOUS
10
66.9765
20
-187.731
11
66.8812
21
-187.636
0
LINE
8
BLACK
6
CONTINUOUS
10
66.8812
20
-187.636
11
66.786
21
-187.445
0
LINE
8
BLACK
6
CONTINUOUS
10
66.786
20
-187.445
11
66.6908
21
-187.064
0
LINE
8
BLACK
6
CONTINUOUS
10
66.6908
20
-187.064
11
66.6908
21
-186.588
0
LINE
8
BLACK
6
CONTINUOUS
10
66.6908
20
-186.588
11
66.786
21
-186.207
0
LINE
8
BLACK
6
CONTINUOUS
10
66.786
20
-186.207
11
66.8812
21
-186.017
0
LINE
8
BLACK
6
CONTINUOUS
10
66.8812
20
-186.017
11
66.9765
21
-185.922
0
LINE
8
BLACK
6
CONTINUOUS
10
66.9765
20
-185.922
11
67.1669
21
-185.826
0
LINE
8
BLACK
6
CONTINUOUS
10
69.0717
20
-185.826
11
69.2622
21
-185.826
0
LINE
8
BLACK
6
CONTINUOUS
10
69.2622
20
-185.826
11
69.4527
21
-185.922
0
LINE
8
BLACK
6
CONTINUOUS
10
69.4527
20
-185.922
11
69.5479
21
-186.017
0
LINE
8
BLACK
6
CONTINUOUS
10
69.5479
20
-186.017
11
69.6431
21
-186.207
0
LINE
8
BLACK
6
CONTINUOUS
10
69.6431
20
-186.207
11
69.7384
21
-186.588
0
LINE
8
BLACK
6
CONTINUOUS
10
69.7384
20
-186.588
11
69.7384
21
-187.064
0
LINE
8
BLACK
6
CONTINUOUS
10
69.7384
20
-187.064
11
69.6431
21
-187.445
0
LINE
8
BLACK
6
CONTINUOUS
10
69.6431
20
-187.445
11
69.5479
21
-187.636
0
LINE
8
BLACK
6
CONTINUOUS
10
69.5479
20
-187.636
11
69.4527
21
-187.731
0
LINE
8
BLACK
6
CONTINUOUS
10
69.4527
20
-187.731
11
69.2622
21
-187.826
0
LINE
8
BLACK
6
CONTINUOUS
10
69.2622
20
-187.826
11
69.0717
21
-187.826
0
LINE
8
BLACK
6
CONTINUOUS
10
69.0717
20
-187.826
11
68.8812
21
-187.731
0
LINE
8
BLACK
6
CONTINUOUS
10
68.8812
20
-187.731
11
68.786
21
-187.636
0
LINE
8
BLACK
6
CONTINUOUS
10
68.786
20
-187.636
11
68.6908
21
-187.445
0
LINE
8
BLACK
6
CONTINUOUS
10
68.6908
20
-187.445
11
68.5955
21
-187.064
0
LINE
8
BLACK
6
CONTINUOUS
10
68.5955
20
-187.064
11
68.5955
21
-186.588
0
LINE
8
BLACK
6
CONTINUOUS
10
68.5955
20
-186.588
11
68.6908
21
-186.207
0
LINE
8
BLACK
6
CONTINUOUS
10
68.6908
20
-186.207
11
68.786
21
-186.017
0
LINE
8
BLACK
6
CONTINUOUS
10
68.786
20
-186.017
11
68.8812
21
-185.922
0
LINE
8
BLACK
6
CONTINUOUS
10
68.8812
20
-185.922
11
69.0717
21
-185.826
0
LINE
8
BLACK
6
CONTINUOUS
10
70.5955
20
-187.826
11
70.5955
21
-186.493
0
LINE
8
BLACK
6
CONTINUOUS
10
70.5955
20
-186.683
11
70.6908
21
-186.588
0
LINE
8
BLACK
6
CONTINUOUS
10
70.6908
20
-186.588
11
70.8812
21
-186.493
0
LINE
8
BLACK
6
CONTINUOUS
10
70.8812
20
-186.493
11
71.1669
21
-186.493
0
LINE
8
BLACK
6
CONTINUOUS
10
71.1669
20
-186.493
11
71.3574
21
-186.588
0
LINE
8
BLACK
6
CONTINUOUS
10
71.3574
20
-186.588
11
71.4527
21
-186.779
0
LINE
8
BLACK
6
CONTINUOUS
10
71.4527
20
-186.779
11
71.4527
21
-187.826
0
LINE
8
BLACK
6
CONTINUOUS
10
71.4527
20
-186.779
11
71.5479
21
-186.588
0
LINE
8
BLACK
6
CONTINUOUS
10
71.5479
20
-186.588
11
71.7384
21
-186.493
0
LINE
8
BLACK
6
CONTINUOUS
10
71.7384
20
-186.493
11
72.0241
21
-186.493
0
LINE
8
BLACK
6
CONTINUOUS
10
72.0241
20
-186.493
11
72.2146
21
-186.588
0
LINE
8
BLACK
6
CONTINUOUS
10
72.2146
20
-186.588
11
72.3098
21
-186.779
0
LINE
8
BLACK
6
CONTINUOUS
10
72.3098
20
-186.779
11
72.3098
21
-187.826
0
LINE
8
BLACK
6
CONTINUOUS
10
73.2622
20
-187.826
11
73.2622
21
-186.493
0
LINE
8
BLACK
6
CONTINUOUS
10
73.2622
20
-186.683
11
73.3574
21
-186.588
0
LINE
8
BLACK
6
CONTINUOUS
10
73.3574
20
-186.588
11
73.5479
21
-186.493
0
LINE
8
BLACK
6
CONTINUOUS
10
73.5479
20
-186.493
11
73.8336
21
-186.493
0
LINE
8
BLACK
6
CONTINUOUS
10
73.8336
20
-186.493
11
74.0241
21
-186.588
0
LINE
8
BLACK
6
CONTINUOUS
10
74.0241
20
-186.588
11
74.1193
21
-186.779
0
LINE
8
BLACK
6
CONTINUOUS
10
74.1193
20
-186.779
11
74.1193
21
-187.826
0
LINE
8
BLACK
6
CONTINUOUS
10
74.1193
20
-186.779
11
74.2146
21
-186.588
0
LINE
8
BLACK
6
CONTINUOUS
10
74.2146
20
-186.588
11
74.405
21
-186.493
0
LINE
8
BLACK
6
CONTINUOUS
10
74.405
20
-186.493
11
74.6908
21
-186.493
0
LINE
8
BLACK
6
CONTINUOUS
10
74.6908
20
-186.493
11
74.8812
21
-186.588
0
LINE
8
BLACK
6
CONTINUOUS
10
74.8812
20
-186.588
11
74.9765
21
-186.779
0
LINE
8
BLACK
6
CONTINUOUS
10
74.9765
20
-186.779
11
74.9765
21
-187.826
0
LINE
8
BLACK
6
CONTINUOUS
10
78.8812
20
-185.731
11
77.1669
21
-188.303
0
LINE
8
BLACK
6
CONTINUOUS
10
81.4527
20
-185.826
11
81.6431
21
-185.826
0
LINE
8
BLACK
6
CONTINUOUS
10
81.6431
20
-185.826
11
81.8336
21
-185.922
0
LINE
8
BLACK
6
CONTINUOUS
10
81.8336
20
-185.922
11
81.9288
21
-186.017
0
LINE
8
BLACK
6
CONTINUOUS
10
81.9288
20
-186.017
11
82.0241
21
-186.207
0
LINE
8
BLACK
6
CONTINUOUS
10
82.0241
20
-186.207
11
82.1193
21
-186.588
0
LINE
8
BLACK
6
CONTINUOUS
10
82.1193
20
-186.588
11
82.1193
21
-187.064
0
LINE
8
BLACK
6
CONTINUOUS
10
82.1193
20
-187.064
11
82.0241
21
-187.445
0
LINE
8
BLACK
6
CONTINUOUS
10
82.0241
20
-187.445
11
81.9288
21
-187.636
0
LINE
8
BLACK
6
CONTINUOUS
10
81.9288
20
-187.636
11
81.8336
21
-187.731
0
LINE
8
BLACK
6
CONTINUOUS
10
81.8336
20
-187.731
11
81.6431
21
-187.826
0
LINE
8
BLACK
6
CONTINUOUS
10
81.6431
20
-187.826
11
81.4527
21
-187.826
0
LINE
8
BLACK
6
CONTINUOUS
10
81.4527
20
-187.826
11
81.2622
21
-187.731
0
LINE
8
BLACK
6
CONTINUOUS
10
81.2622
20
-187.731
11
81.1669
21
-187.636
0
LINE
8
BLACK
6
CONTINUOUS
10
81.1669
20
-187.636
11
81.0717
21
-187.445
0
LINE
8
BLACK
6
CONTINUOUS
10
81.0717
20
-187.445
11
80.9765
21
-187.064
0
LINE
8
BLACK
6
CONTINUOUS
10
80.9765
20
-187.064
11
80.9765
21
-186.588
0
LINE
8
BLACK
6
CONTINUOUS
10
80.9765
20
-186.588
11
81.0717
21
-186.207
0
LINE
8
BLACK
6
CONTINUOUS
10
81.0717
20
-186.207
11
81.1669
21
-186.017
0
LINE
8
BLACK
6
CONTINUOUS
10
81.1669
20
-186.017
11
81.2622
21
-185.922
0
LINE
8
BLACK
6
CONTINUOUS
10
81.2622
20
-185.922
11
81.4527
21
-185.826
0
LINE
8
BLACK
6
CONTINUOUS
10
82.9765
20
-187.636
11
83.0717
21
-187.731
0
LINE
8
BLACK
6
CONTINUOUS
10
83.0717
20
-187.731
11
82.9765
21
-187.826
0
LINE
8
BLACK
6
CONTINUOUS
10
82.9765
20
-187.826
11
82.8812
21
-187.731
0
LINE
8
BLACK
6
CONTINUOUS
10
82.8812
20
-187.731
11
82.9765
21
-187.636
0
LINE
8
BLACK
6
CONTINUOUS
10
82.9765
20
-187.636
11
82.9765
21
-187.826
0
LINE
8
BLACK
6
CONTINUOUS
10
84.3098
20
-185.826
11
84.5003
21
-185.826
0
LINE
8
BLACK
6
CONTINUOUS
10
84.5003
20
-185.826
11
84.6908
21
-185.922
0
LINE
8
BLACK
6
CONTINUOUS
10
84.6908
20
-185.922
11
84.786
21
-186.017
0
LINE
8
BLACK
6
CONTINUOUS
10
84.786
20
-186.017
11
84.8812
21
-186.207
0
LINE
8
BLACK
6
CONTINUOUS
10
84.8812
20
-186.207
11
84.9765
21
-186.588
0
LINE
8
BLACK
6
CONTINUOUS
10
84.9765
20
-186.588
11
84.9765
21
-187.064
0
LINE
8
BLACK
6
CONTINUOUS
10
84.9765
20
-187.064
11
84.8812
21
-187.445
0
LINE
8
BLACK
6
CONTINUOUS
10
84.8812
20
-187.445
11
84.786
21
-187.636
0
LINE
8
BLACK
6
CONTINUOUS
10
84.786
20
-187.636
11
84.6908
21
-187.731
0
LINE
8
BLACK
6
CONTINUOUS
10
84.6908
20
-187.731
11
84.5003
21
-187.826
0
LINE
8
BLACK
6
CONTINUOUS
10
84.5003
20
-187.826
11
84.3098
21
-187.826
0
LINE
8
BLACK
6
CONTINUOUS
10
84.3098
20
-187.826
11
84.1193
21
-187.731
0
LINE
8
BLACK
6
CONTINUOUS
10
84.1193
20
-187.731
11
84.0241
21
-187.636
0
LINE
8
BLACK
6
CONTINUOUS
10
84.0241
20
-187.636
11
83.9288
21
-187.445
0
LINE
8
BLACK
6
CONTINUOUS
10
83.9288
20
-187.445
11
83.8336
21
-187.064
0
LINE
8
BLACK
6
CONTINUOUS
10
83.8336
20
-187.064
11
83.8336
21
-186.588
0
LINE
8
BLACK
6
CONTINUOUS
10
83.8336
20
-186.588
11
83.9288
21
-186.207
0
LINE
8
BLACK
6
CONTINUOUS
10
83.9288
20
-186.207
11
84.0241
21
-186.017
0
LINE
8
BLACK
6
CONTINUOUS
10
84.0241
20
-186.017
11
84.1193
21
-185.922
0
LINE
8
BLACK
6
CONTINUOUS
10
84.1193
20
-185.922
11
84.3098
21
-185.826
0
LINE
8
BLACK
6
CONTINUOUS
10
86.8812
20
-187.826
11
85.7384
21
-187.826
0
LINE
8
BLACK
6
CONTINUOUS
10
86.3098
20
-187.826
11
86.3098
21
-185.826
0
LINE
8
BLACK
6
CONTINUOUS
10
86.3098
20
-185.826
11
86.1193
21
-186.112
0
LINE
8
BLACK
6
CONTINUOUS
10
86.1193
20
-186.112
11
85.9288
21
-186.303
0
LINE
8
BLACK
6
CONTINUOUS
10
85.9288
20
-186.303
11
85.7384
21
-186.398
0
LINE
8
BLACK
6
CONTINUOUS
10
88.6908
20
-185.826
11
87.7384
21
-185.826
0
LINE
8
BLACK
6
CONTINUOUS
10
87.7384
20
-185.826
11
87.6431
21
-186.779
0
LINE
8
BLACK
6
CONTINUOUS
10
87.6431
20
-186.779
11
87.7384
21
-186.683
0
LINE
8
BLACK
6
CONTINUOUS
10
87.7384
20
-186.683
11
87.9288
21
-186.588
0
LINE
8
BLACK
6
CONTINUOUS
10
87.9288
20
-186.588
11
88.405
21
-186.588
0
LINE
8
BLACK
6
CONTINUOUS
10
88.405
20
-186.588
11
88.5955
21
-186.683
0
LINE
8
BLACK
6
CONTINUOUS
10
88.5955
20
-186.683
11
88.6908
21
-186.779
0
LINE
8
BLACK
6
CONTINUOUS
10
88.6908
20
-186.779
11
88.786
21
-186.969
0
LINE
8
BLACK
6
CONTINUOUS
10
88.786
20
-186.969
11
88.786
21
-187.445
0
LINE
8
BLACK
6
CONTINUOUS
10
88.786
20
-187.445
11
88.6908
21
-187.636
0
LINE
8
BLACK
6
CONTINUOUS
10
88.6908
20
-187.636
11
88.5955
21
-187.731
0
LINE
8
BLACK
6
CONTINUOUS
10
88.5955
20
-187.731
11
88.405
21
-187.826
0
LINE
8
BLACK
6
CONTINUOUS
10
88.405
20
-187.826
11
87.9288
21
-187.826
0
LINE
8
BLACK
6
CONTINUOUS
10
87.9288
20
-187.826
11
87.7384
21
-187.731
0
LINE
8
BLACK
6
CONTINUOUS
10
87.7384
20
-187.731
11
87.6431
21
-187.636
0
LINE
8
BLACK
6
CONTINUOUS
10
89.4527
20
-185.826
11
90.786
21
-185.826
0
LINE
8
BLACK
6
CONTINUOUS
10
90.786
20
-185.826
11
89.9288
21
-187.826
0
LINE
8
BLACK
6
CONTINUOUS
10
91.4527
20
-185.826
11
91.4527
21
-186.207
0
LINE
8
BLACK
6
CONTINUOUS
10
92.2146
20
-185.826
11
92.2146
21
-186.207
0
LINE
8
BLACK
6
CONTINUOUS
10
95.1669
20
-188.588
11
95.0717
21
-188.493
0
LINE
8
BLACK
6
CONTINUOUS
10
95.0717
20
-188.493
11
94.8812
21
-188.207
0
LINE
8
BLACK
6
CONTINUOUS
10
94.8812
20
-188.207
11
94.786
21
-188.017
0
LINE
8
BLACK
6
CONTINUOUS
10
94.786
20
-188.017
11
94.6908
21
-187.731
0
LINE
8
BLACK
6
CONTINUOUS
10
94.6908
20
-187.731
11
94.5955
21
-187.255
0
LINE
8
BLACK
6
CONTINUOUS
10
94.5955
20
-187.255
11
94.5955
21
-186.874
0
LINE
8
BLACK
6
CONTINUOUS
10
94.5955
20
-186.874
11
94.6908
21
-186.398
0
LINE
8
BLACK
6
CONTINUOUS
10
94.6908
20
-186.398
11
94.786
21
-186.112
0
LINE
8
BLACK
6
CONTINUOUS
10
94.786
20
-186.112
11
94.8812
21
-185.922
0
LINE
8
BLACK
6
CONTINUOUS
10
94.8812
20
-185.922
11
95.0717
21
-185.636
0
LINE
8
BLACK
6
CONTINUOUS
10
95.0717
20
-185.636
11
95.1669
21
-185.541
0
LINE
8
BLACK
6
CONTINUOUS
10
95.8336
20
-186.017
11
95.9288
21
-185.922
0
LINE
8
BLACK
6
CONTINUOUS
10
95.9288
20
-185.922
11
96.1193
21
-185.826
0
LINE
8
BLACK
6
CONTINUOUS
10
96.1193
20
-185.826
11
96.5955
21
-185.826
0
LINE
8
BLACK
6
CONTINUOUS
10
96.5955
20
-185.826
11
96.786
21
-185.922
0
LINE
8
BLACK
6
CONTINUOUS
10
96.786
20
-185.922
11
96.8812
21
-186.017
0
LINE
8
BLACK
6
CONTINUOUS
10
96.8812
20
-186.017
11
96.9765
21
-186.207
0
LINE
8
BLACK
6
CONTINUOUS
10
96.9765
20
-186.207
11
96.9765
21
-186.398
0
LINE
8
BLACK
6
CONTINUOUS
10
96.9765
20
-186.398
11
96.8812
21
-186.683
0
LINE
8
BLACK
6
CONTINUOUS
10
96.8812
20
-186.683
11
95.7384
21
-187.826
0
LINE
8
BLACK
6
CONTINUOUS
10
95.7384
20
-187.826
11
96.9765
21
-187.826
0
LINE
8
BLACK
6
CONTINUOUS
10
98.2146
20
-185.826
11
98.405
21
-185.826
0
LINE
8
BLACK
6
CONTINUOUS
10
98.405
20
-185.826
11
98.5955
21
-185.922
0
LINE
8
BLACK
6
CONTINUOUS
10
98.5955
20
-185.922
11
98.6908
21
-186.017
0
LINE
8
BLACK
6
CONTINUOUS
10
98.6908
20
-186.017
11
98.786
21
-186.207
0
LINE
8
BLACK
6
CONTINUOUS
10
98.786
20
-186.207
11
98.8812
21
-186.588
0
LINE
8
BLACK
6
CONTINUOUS
10
98.8812
20
-186.588
11
98.8812
21
-187.064
0
LINE
8
BLACK
6
CONTINUOUS
10
98.8812
20
-187.064
11
98.786
21
-187.445
0
LINE
8
BLACK
6
CONTINUOUS
10
98.786
20
-187.445
11
98.6908
21
-187.636
0
LINE
8
BLACK
6
CONTINUOUS
10
98.6908
20
-187.636
11
98.5955
21
-187.731
0
LINE
8
BLACK
6
CONTINUOUS
10
98.5955
20
-187.731
11
98.405
21
-187.826
0
LINE
8
BLACK
6
CONTINUOUS
10
98.405
20
-187.826
11
98.2146
21
-187.826
0
LINE
8
BLACK
6
CONTINUOUS
10
98.2146
20
-187.826
11
98.0241
21
-187.731
0
LINE
8
BLACK
6
CONTINUOUS
10
98.0241
20
-187.731
11
97.9288
21
-187.636
0
LINE
8
BLACK
6
CONTINUOUS
10
97.9288
20
-187.636
11
97.8336
21
-187.445
0
LINE
8
BLACK
6
CONTINUOUS
10
97.8336
20
-187.445
11
97.7384
21
-187.064
0
LINE
8
BLACK
6
CONTINUOUS
10
97.7384
20
-187.064
11
97.7384
21
-186.588
0
LINE
8
BLACK
6
CONTINUOUS
10
97.7384
20
-186.588
11
97.8336
21
-186.207
0
LINE
8
BLACK
6
CONTINUOUS
10
97.8336
20
-186.207
11
97.9288
21
-186.017
0
LINE
8
BLACK
6
CONTINUOUS
10
97.9288
20
-186.017
11
98.0241
21
-185.922
0
LINE
8
BLACK
6
CONTINUOUS
10
98.0241
20
-185.922
11
98.2146
21
-185.826
0
LINE
8
BLACK
6
CONTINUOUS
10
100.596
20
-185.826
11
100.215
21
-185.826
0
LINE
8
BLACK
6
CONTINUOUS
10
100.215
20
-185.826
11
100.024
21
-185.922
0
LINE
8
BLACK
6
CONTINUOUS
10
100.024
20
-185.922
11
99.9288
21
-186.017
0
LINE
8
BLACK
6
CONTINUOUS
10
99.9288
20
-186.017
11
99.7384
21
-186.303
0
LINE
8
BLACK
6
CONTINUOUS
10
99.7384
20
-186.303
11
99.6431
21
-186.683
0
LINE
8
BLACK
6
CONTINUOUS
10
99.6431
20
-186.683
11
99.6431
21
-187.445
0
LINE
8
BLACK
6
CONTINUOUS
10
99.6431
20
-187.445
11
99.7384
21
-187.636
0
LINE
8
BLACK
6
CONTINUOUS
10
99.7384
20
-187.636
11
99.8336
21
-187.731
0
LINE
8
BLACK
6
CONTINUOUS
10
99.8336
20
-187.731
11
100.024
21
-187.826
0
LINE
8
BLACK
6
CONTINUOUS
10
100.024
20
-187.826
11
100.405
21
-187.826
0
LINE
8
BLACK
6
CONTINUOUS
10
100.405
20
-187.826
11
100.596
21
-187.731
0
LINE
8
BLACK
6
CONTINUOUS
10
100.596
20
-187.731
11
100.691
21
-187.636
0
LINE
8
BLACK
6
CONTINUOUS
10
100.691
20
-187.636
11
100.786
21
-187.445
0
LINE
8
BLACK
6
CONTINUOUS
10
100.786
20
-187.445
11
100.786
21
-186.969
0
LINE
8
BLACK
6
CONTINUOUS
10
100.786
20
-186.969
11
100.691
21
-186.779
0
LINE
8
BLACK
6
CONTINUOUS
10
100.691
20
-186.779
11
100.596
21
-186.683
0
LINE
8
BLACK
6
CONTINUOUS
10
100.596
20
-186.683
11
100.405
21
-186.588
0
LINE
8
BLACK
6
CONTINUOUS
10
100.405
20
-186.588
11
100.024
21
-186.588
0
LINE
8
BLACK
6
CONTINUOUS
10
100.024
20
-186.588
11
99.8336
21
-186.683
0
LINE
8
BLACK
6
CONTINUOUS
10
99.8336
20
-186.683
11
99.7384
21
-186.779
0
LINE
8
BLACK
6
CONTINUOUS
10
99.7384
20
-186.779
11
99.6431
21
-186.969
0
LINE
8
BLACK
6
CONTINUOUS
10
103.167
20
-187.826
11
103.167
21
-185.826
0
LINE
8
BLACK
6
CONTINUOUS
10
104.024
20
-187.826
11
104.024
21
-186.779
0
LINE
8
BLACK
6
CONTINUOUS
10
104.024
20
-186.779
11
103.929
21
-186.588
0
LINE
8
BLACK
6
CONTINUOUS
10
103.929
20
-186.588
11
103.738
21
-186.493
0
LINE
8
BLACK
6
CONTINUOUS
10
103.738
20
-186.493
11
103.453
21
-186.493
0
LINE
8
BLACK
6
CONTINUOUS
10
103.453
20
-186.493
11
103.262
21
-186.588
0
LINE
8
BLACK
6
CONTINUOUS
10
103.262
20
-186.588
11
103.167
21
-186.683
0
LINE
8
BLACK
6
CONTINUOUS
10
105.262
20
-187.826
11
105.072
21
-187.731
0
LINE
8
BLACK
6
CONTINUOUS
10
105.072
20
-187.731
11
104.976
21
-187.636
0
LINE
8
BLACK
6
CONTINUOUS
10
104.976
20
-187.636
11
104.881
21
-187.445
0
LINE
8
BLACK
6
CONTINUOUS
10
104.881
20
-187.445
11
104.881
21
-186.874
0
LINE
8
BLACK
6
CONTINUOUS
10
104.881
20
-186.874
11
104.976
21
-186.683
0
LINE
8
BLACK
6
CONTINUOUS
10
104.976
20
-186.683
11
105.072
21
-186.588
0
LINE
8
BLACK
6
CONTINUOUS
10
105.072
20
-186.588
11
105.262
21
-186.493
0
LINE
8
BLACK
6
CONTINUOUS
10
105.262
20
-186.493
11
105.548
21
-186.493
0
LINE
8
BLACK
6
CONTINUOUS
10
105.548
20
-186.493
11
105.738
21
-186.588
0
LINE
8
BLACK
6
CONTINUOUS
10
105.738
20
-186.588
11
105.834
21
-186.683
0
LINE
8
BLACK
6
CONTINUOUS
10
105.834
20
-186.683
11
105.929
21
-186.874
0
LINE
8
BLACK
6
CONTINUOUS
10
105.929
20
-186.874
11
105.929
21
-187.445
0
LINE
8
BLACK
6
CONTINUOUS
10
105.929
20
-187.445
11
105.834
21
-187.636
0
LINE
8
BLACK
6
CONTINUOUS
10
105.834
20
-187.636
11
105.738
21
-187.731
0
LINE
8
BLACK
6
CONTINUOUS
10
105.738
20
-187.731
11
105.548
21
-187.826
0
LINE
8
BLACK
6
CONTINUOUS
10
105.548
20
-187.826
11
105.262
21
-187.826
0
LINE
8
BLACK
6
CONTINUOUS
10
107.072
20
-187.826
11
106.881
21
-187.731
0
LINE
8
BLACK
6
CONTINUOUS
10
106.881
20
-187.731
11
106.786
21
-187.541
0
LINE
8
BLACK
6
CONTINUOUS
10
106.786
20
-187.541
11
106.786
21
-185.826
0
LINE
8
BLACK
6
CONTINUOUS
10
108.596
20
-187.731
11
108.405
21
-187.826
0
LINE
8
BLACK
6
CONTINUOUS
10
108.405
20
-187.826
11
108.024
21
-187.826
0
LINE
8
BLACK
6
CONTINUOUS
10
108.024
20
-187.826
11
107.834
21
-187.731
0
LINE
8
BLACK
6
CONTINUOUS
10
107.834
20
-187.731
11
107.738
21
-187.541
0
LINE
8
BLACK
6
CONTINUOUS
10
107.738
20
-187.541
11
107.738
21
-186.779
0
LINE
8
BLACK
6
CONTINUOUS
10
107.738
20
-186.779
11
107.834
21
-186.588
0
LINE
8
BLACK
6
CONTINUOUS
10
107.834
20
-186.588
11
108.024
21
-186.493
0
LINE
8
BLACK
6
CONTINUOUS
10
108.024
20
-186.493
11
108.405
21
-186.493
0
LINE
8
BLACK
6
CONTINUOUS
10
108.405
20
-186.493
11
108.596
21
-186.588
0
LINE
8
BLACK
6
CONTINUOUS
10
108.596
20
-186.588
11
108.691
21
-186.779
0
LINE
8
BLACK
6
CONTINUOUS
10
108.691
20
-186.779
11
108.691
21
-186.969
0
LINE
8
BLACK
6
CONTINUOUS
10
108.691
20
-186.969
11
107.738
21
-187.16
0
LINE
8
BLACK
6
CONTINUOUS
10
109.453
20
-187.731
11
109.643
21
-187.826
0
LINE
8
BLACK
6
CONTINUOUS
10
109.643
20
-187.826
11
110.024
21
-187.826
0
LINE
8
BLACK
6
CONTINUOUS
10
110.024
20
-187.826
11
110.215
21
-187.731
0
LINE
8
BLACK
6
CONTINUOUS
10
110.215
20
-187.731
11
110.31
21
-187.541
0
LINE
8
BLACK
6
CONTINUOUS
10
110.31
20
-187.541
11
110.31
21
-187.445
0
LINE
8
BLACK
6
CONTINUOUS
10
110.31
20
-187.445
11
110.215
21
-187.255
0
LINE
8
BLACK
6
CONTINUOUS
10
110.215
20
-187.255
11
110.024
21
-187.16
0
LINE
8
BLACK
6
CONTINUOUS
10
110.024
20
-187.16
11
109.738
21
-187.16
0
LINE
8
BLACK
6
CONTINUOUS
10
109.738
20
-187.16
11
109.548
21
-187.064
0
LINE
8
BLACK
6
CONTINUOUS
10
109.548
20
-187.064
11
109.453
21
-186.874
0
LINE
8
BLACK
6
CONTINUOUS
10
109.453
20
-186.874
11
109.453
21
-186.779
0
LINE
8
BLACK
6
CONTINUOUS
10
109.453
20
-186.779
11
109.548
21
-186.588
0
LINE
8
BLACK
6
CONTINUOUS
10
109.548
20
-186.588
11
109.738
21
-186.493
0
LINE
8
BLACK
6
CONTINUOUS
10
109.738
20
-186.493
11
110.024
21
-186.493
0
LINE
8
BLACK
6
CONTINUOUS
10
110.024
20
-186.493
11
110.215
21
-186.588
0
LINE
8
BLACK
6
CONTINUOUS
10
110.976
20
-188.588
11
111.072
21
-188.493
0
LINE
8
BLACK
6
CONTINUOUS
10
111.072
20
-188.493
11
111.262
21
-188.207
0
LINE
8
BLACK
6
CONTINUOUS
10
111.262
20
-188.207
11
111.357
21
-188.017
0
LINE
8
BLACK
6
CONTINUOUS
10
111.357
20
-188.017
11
111.453
21
-187.731
0
LINE
8
BLACK
6
CONTINUOUS
10
111.453
20
-187.731
11
111.548
21
-187.255
0
LINE
8
BLACK
6
CONTINUOUS
10
111.548
20
-187.255
11
111.548
21
-186.874
0
LINE
8
BLACK
6
CONTINUOUS
10
111.548
20
-186.874
11
111.453
21
-186.398
0
LINE
8
BLACK
6
CONTINUOUS
10
111.453
20
-186.398
11
111.357
21
-186.112
0
LINE
8
BLACK
6
CONTINUOUS
10
111.357
20
-186.112
11
111.262
21
-185.922
0
LINE
8
BLACK
6
CONTINUOUS
10
111.262
20
-185.922
11
111.072
21
-185.636
0
LINE
8
BLACK
6
CONTINUOUS
10
111.072
20
-185.636
11
110.976
21
-185.541
0
LINE
8
BLACK
6
CONTINUOUS
10
59.0479
20
-189.041
11
59.0479
21
-190.041
0
LINE
8
BLACK
6
CONTINUOUS
10
58.5479
20
-189.541
11
59.5479
21
-189.541
0
LINE
8
BLACK
6
CONTINUOUS
10
63.0717
20
-190.466
11
61.9288
21
-190.466
0
LINE
8
BLACK
6
CONTINUOUS
10
62.5003
20
-190.466
11
62.5003
21
-188.466
0
LINE
8
BLACK
6
CONTINUOUS
10
62.5003
20
-188.466
11
62.3098
21
-188.752
0
LINE
8
BLACK
6
CONTINUOUS
10
62.3098
20
-188.752
11
62.1193
21
-188.943
0
LINE
8
BLACK
6
CONTINUOUS
10
62.1193
20
-188.943
11
61.9288
21
-189.038
0
LINE
8
BLACK
6
CONTINUOUS
10
63.9288
20
-190.276
11
64.0241
21
-190.371
0
LINE
8
BLACK
6
CONTINUOUS
10
64.0241
20
-190.371
11
63.9288
21
-190.466
0
LINE
8
BLACK
6
CONTINUOUS
10
63.9288
20
-190.466
11
63.8336
21
-190.371
0
LINE
8
BLACK
6
CONTINUOUS
10
63.8336
20
-190.371
11
63.9288
21
-190.276
0
LINE
8
BLACK
6
CONTINUOUS
10
63.9288
20
-190.276
11
63.9288
21
-190.466
0
LINE
8
BLACK
6
CONTINUOUS
10
65.2622
20
-188.466
11
65.4527
21
-188.466
0
LINE
8
BLACK
6
CONTINUOUS
10
65.4527
20
-188.466
11
65.6431
21
-188.562
0
LINE
8
BLACK
6
CONTINUOUS
10
65.6431
20
-188.562
11
65.7384
21
-188.657
0
LINE
8
BLACK
6
CONTINUOUS
10
65.7384
20
-188.657
11
65.8336
21
-188.847
0
LINE
8
BLACK
6
CONTINUOUS
10
65.8336
20
-188.847
11
65.9288
21
-189.228
0
LINE
8
BLACK
6
CONTINUOUS
10
65.9288
20
-189.228
11
65.9288
21
-189.704
0
LINE
8
BLACK
6
CONTINUOUS
10
65.9288
20
-189.704
11
65.8336
21
-190.085
0
LINE
8
BLACK
6
CONTINUOUS
10
65.8336
20
-190.085
11
65.7384
21
-190.276
0
LINE
8
BLACK
6
CONTINUOUS
10
65.7384
20
-190.276
11
65.6431
21
-190.371
0
LINE
8
BLACK
6
CONTINUOUS
10
65.6431
20
-190.371
11
65.4527
21
-190.466
0
LINE
8
BLACK
6
CONTINUOUS
10
65.4527
20
-190.466
11
65.2622
21
-190.466
0
LINE
8
BLACK
6
CONTINUOUS
10
65.2622
20
-190.466
11
65.0717
21
-190.371
0
LINE
8
BLACK
6
CONTINUOUS
10
65.0717
20
-190.371
11
64.9765
21
-190.276
0
LINE
8
BLACK
6
CONTINUOUS
10
64.9765
20
-190.276
11
64.8812
21
-190.085
0
LINE
8
BLACK
6
CONTINUOUS
10
64.8812
20
-190.085
11
64.786
21
-189.704
0
LINE
8
BLACK
6
CONTINUOUS
10
64.786
20
-189.704
11
64.786
21
-189.228
0
LINE
8
BLACK
6
CONTINUOUS
10
64.786
20
-189.228
11
64.8812
21
-188.847
0
LINE
8
BLACK
6
CONTINUOUS
10
64.8812
20
-188.847
11
64.9765
21
-188.657
0
LINE
8
BLACK
6
CONTINUOUS
10
64.9765
20
-188.657
11
65.0717
21
-188.562
0
LINE
8
BLACK
6
CONTINUOUS
10
65.0717
20
-188.562
11
65.2622
21
-188.466
0
LINE
8
BLACK
6
CONTINUOUS
10
67.1669
20
-188.466
11
67.3574
21
-188.466
0
LINE
8
BLACK
6
CONTINUOUS
10
67.3574
20
-188.466
11
67.5479
21
-188.562
0
LINE
8
BLACK
6
CONTINUOUS
10
67.5479
20
-188.562
11
67.6431
21
-188.657
0
LINE
8
BLACK
6
CONTINUOUS
10
67.6431
20
-188.657
11
67.7384
21
-188.847
0
LINE
8
BLACK
6
CONTINUOUS
10
67.7384
20
-188.847
11
67.8336
21
-189.228
0
LINE
8
BLACK
6
CONTINUOUS
10
67.8336
20
-189.228
11
67.8336
21
-189.704
0
LINE
8
BLACK
6
CONTINUOUS
10
67.8336
20
-189.704
11
67.7384
21
-190.085
0
LINE
8
BLACK
6
CONTINUOUS
10
67.7384
20
-190.085
11
67.6431
21
-190.276
0
LINE
8
BLACK
6
CONTINUOUS
10
67.6431
20
-190.276
11
67.5479
21
-190.371
0
LINE
8
BLACK
6
CONTINUOUS
10
67.5479
20
-190.371
11
67.3574
21
-190.466
0
LINE
8
BLACK
6
CONTINUOUS
10
67.3574
20
-190.466
11
67.1669
21
-190.466
0
LINE
8
BLACK
6
CONTINUOUS
10
67.1669
20
-190.466
11
66.9765
21
-190.371
0
LINE
8
BLACK
6
CONTINUOUS
10
66.9765
20
-190.371
11
66.8812
21
-190.276
0
LINE
8
BLACK
6
CONTINUOUS
10
66.8812
20
-190.276
11
66.786
21
-190.085
0
LINE
8
BLACK
6
CONTINUOUS
10
66.786
20
-190.085
11
66.6908
21
-189.704
0
LINE
8
BLACK
6
CONTINUOUS
10
66.6908
20
-189.704
11
66.6908
21
-189.228
0
LINE
8
BLACK
6
CONTINUOUS
10
66.6908
20
-189.228
11
66.786
21
-188.847
0
LINE
8
BLACK
6
CONTINUOUS
10
66.786
20
-188.847
11
66.8812
21
-188.657
0
LINE
8
BLACK
6
CONTINUOUS
10
66.8812
20
-188.657
11
66.9765
21
-188.562
0
LINE
8
BLACK
6
CONTINUOUS
10
66.9765
20
-188.562
11
67.1669
21
-188.466
0
LINE
8
BLACK
6
CONTINUOUS
10
69.0717
20
-188.466
11
69.2622
21
-188.466
0
LINE
8
BLACK
6
CONTINUOUS
10
69.2622
20
-188.466
11
69.4527
21
-188.562
0
LINE
8
BLACK
6
CONTINUOUS
10
69.4527
20
-188.562
11
69.5479
21
-188.657
0
LINE
8
BLACK
6
CONTINUOUS
10
69.5479
20
-188.657
11
69.6431
21
-188.847
0
LINE
8
BLACK
6
CONTINUOUS
10
69.6431
20
-188.847
11
69.7384
21
-189.228
0
LINE
8
BLACK
6
CONTINUOUS
10
69.7384
20
-189.228
11
69.7384
21
-189.704
0
LINE
8
BLACK
6
CONTINUOUS
10
69.7384
20
-189.704
11
69.6431
21
-190.085
0
LINE
8
BLACK
6
CONTINUOUS
10
69.6431
20
-190.085
11
69.5479
21
-190.276
0
LINE
8
BLACK
6
CONTINUOUS
10
69.5479
20
-190.276
11
69.4527
21
-190.371
0
LINE
8
BLACK
6
CONTINUOUS
10
69.4527
20
-190.371
11
69.2622
21
-190.466
0
LINE
8
BLACK
6
CONTINUOUS
10
69.2622
20
-190.466
11
69.0717
21
-190.466
0
LINE
8
BLACK
6
CONTINUOUS
10
69.0717
20
-190.466
11
68.8812
21
-190.371
0
LINE
8
BLACK
6
CONTINUOUS
10
68.8812
20
-190.371
11
68.786
21
-190.276
0
LINE
8
BLACK
6
CONTINUOUS
10
68.786
20
-190.276
11
68.6908
21
-190.085
0
LINE
8
BLACK
6
CONTINUOUS
10
68.6908
20
-190.085
11
68.5955
21
-189.704
0
LINE
8
BLACK
6
CONTINUOUS
10
68.5955
20
-189.704
11
68.5955
21
-189.228
0
LINE
8
BLACK
6
CONTINUOUS
10
68.5955
20
-189.228
11
68.6908
21
-188.847
0
LINE
8
BLACK
6
CONTINUOUS
10
68.6908
20
-188.847
11
68.786
21
-188.657
0
LINE
8
BLACK
6
CONTINUOUS
10
68.786
20
-188.657
11
68.8812
21
-188.562
0
LINE
8
BLACK
6
CONTINUOUS
10
68.8812
20
-188.562
11
69.0717
21
-188.466
0
LINE
8
BLACK
6
CONTINUOUS
10
70.5955
20
-190.466
11
70.5955
21
-189.133
0
LINE
8
BLACK
6
CONTINUOUS
10
70.5955
20
-189.323
11
70.6908
21
-189.228
0
LINE
8
BLACK
6
CONTINUOUS
10
70.6908
20
-189.228
11
70.8812
21
-189.133
0
LINE
8
BLACK
6
CONTINUOUS
10
70.8812
20
-189.133
11
71.1669
21
-189.133
0
LINE
8
BLACK
6
CONTINUOUS
10
71.1669
20
-189.133
11
71.3574
21
-189.228
0
LINE
8
BLACK
6
CONTINUOUS
10
71.3574
20
-189.228
11
71.4527
21
-189.419
0
LINE
8
BLACK
6
CONTINUOUS
10
71.4527
20
-189.419
11
71.4527
21
-190.466
0
LINE
8
BLACK
6
CONTINUOUS
10
71.4527
20
-189.419
11
71.5479
21
-189.228
0
LINE
8
BLACK
6
CONTINUOUS
10
71.5479
20
-189.228
11
71.7384
21
-189.133
0
LINE
8
BLACK
6
CONTINUOUS
10
71.7384
20
-189.133
11
72.0241
21
-189.133
0
LINE
8
BLACK
6
CONTINUOUS
10
72.0241
20
-189.133
11
72.2146
21
-189.228
0
LINE
8
BLACK
6
CONTINUOUS
10
72.2146
20
-189.228
11
72.3098
21
-189.419
0
LINE
8
BLACK
6
CONTINUOUS
10
72.3098
20
-189.419
11
72.3098
21
-190.466
0
LINE
8
BLACK
6
CONTINUOUS
10
73.2622
20
-190.466
11
73.2622
21
-189.133
0
LINE
8
BLACK
6
CONTINUOUS
10
73.2622
20
-189.323
11
73.3574
21
-189.228
0
LINE
8
BLACK
6
CONTINUOUS
10
73.3574
20
-189.228
11
73.5479
21
-189.133
0
LINE
8
BLACK
6
CONTINUOUS
10
73.5479
20
-189.133
11
73.8336
21
-189.133
0
LINE
8
BLACK
6
CONTINUOUS
10
73.8336
20
-189.133
11
74.0241
21
-189.228
0
LINE
8
BLACK
6
CONTINUOUS
10
74.0241
20
-189.228
11
74.1193
21
-189.419
0
LINE
8
BLACK
6
CONTINUOUS
10
74.1193
20
-189.419
11
74.1193
21
-190.466
0
LINE
8
BLACK
6
CONTINUOUS
10
74.1193
20
-189.419
11
74.2146
21
-189.228
0
LINE
8
BLACK
6
CONTINUOUS
10
74.2146
20
-189.228
11
74.405
21
-189.133
0
LINE
8
BLACK
6
CONTINUOUS
10
74.405
20
-189.133
11
74.6908
21
-189.133
0
LINE
8
BLACK
6
CONTINUOUS
10
74.6908
20
-189.133
11
74.8812
21
-189.228
0
LINE
8
BLACK
6
CONTINUOUS
10
74.8812
20
-189.228
11
74.9765
21
-189.419
0
LINE
8
BLACK
6
CONTINUOUS
10
74.9765
20
-189.419
11
74.9765
21
-190.466
0
LINE
8
BLACK
6
CONTINUOUS
10
78.8812
20
-188.371
11
77.1669
21
-190.943
0
LINE
8
BLACK
6
CONTINUOUS
10
81.4527
20
-188.466
11
81.6431
21
-188.466
0
LINE
8
BLACK
6
CONTINUOUS
10
81.6431
20
-188.466
11
81.8336
21
-188.562
0
LINE
8
BLACK
6
CONTINUOUS
10
81.8336
20
-188.562
11
81.9288
21
-188.657
0
LINE
8
BLACK
6
CONTINUOUS
10
81.9288
20
-188.657
11
82.0241
21
-188.847
0
LINE
8
BLACK
6
CONTINUOUS
10
82.0241
20
-188.847
11
82.1193
21
-189.228
0
LINE
8
BLACK
6
CONTINUOUS
10
82.1193
20
-189.228
11
82.1193
21
-189.704
0
LINE
8
BLACK
6
CONTINUOUS
10
82.1193
20
-189.704
11
82.0241
21
-190.085
0
LINE
8
BLACK
6
CONTINUOUS
10
82.0241
20
-190.085
11
81.9288
21
-190.276
0
LINE
8
BLACK
6
CONTINUOUS
10
81.9288
20
-190.276
11
81.8336
21
-190.371
0
LINE
8
BLACK
6
CONTINUOUS
10
81.8336
20
-190.371
11
81.6431
21
-190.466
0
LINE
8
BLACK
6
CONTINUOUS
10
81.6431
20
-190.466
11
81.4527
21
-190.466
0
LINE
8
BLACK
6
CONTINUOUS
10
81.4527
20
-190.466
11
81.2622
21
-190.371
0
LINE
8
BLACK
6
CONTINUOUS
10
81.2622
20
-190.371
11
81.1669
21
-190.276
0
LINE
8
BLACK
6
CONTINUOUS
10
81.1669
20
-190.276
11
81.0717
21
-190.085
0
LINE
8
BLACK
6
CONTINUOUS
10
81.0717
20
-190.085
11
80.9765
21
-189.704
0
LINE
8
BLACK
6
CONTINUOUS
10
80.9765
20
-189.704
11
80.9765
21
-189.228
0
LINE
8
BLACK
6
CONTINUOUS
10
80.9765
20
-189.228
11
81.0717
21
-188.847
0
LINE
8
BLACK
6
CONTINUOUS
10
81.0717
20
-188.847
11
81.1669
21
-188.657
0
LINE
8
BLACK
6
CONTINUOUS
10
81.1669
20
-188.657
11
81.2622
21
-188.562
0
LINE
8
BLACK
6
CONTINUOUS
10
81.2622
20
-188.562
11
81.4527
21
-188.466
0
LINE
8
BLACK
6
CONTINUOUS
10
82.9765
20
-190.276
11
83.0717
21
-190.371
0
LINE
8
BLACK
6
CONTINUOUS
10
83.0717
20
-190.371
11
82.9765
21
-190.466
0
LINE
8
BLACK
6
CONTINUOUS
10
82.9765
20
-190.466
11
82.8812
21
-190.371
0
LINE
8
BLACK
6
CONTINUOUS
10
82.8812
20
-190.371
11
82.9765
21
-190.276
0
LINE
8
BLACK
6
CONTINUOUS
10
82.9765
20
-190.276
11
82.9765
21
-190.466
0
LINE
8
BLACK
6
CONTINUOUS
10
84.3098
20
-188.466
11
84.5003
21
-188.466
0
LINE
8
BLACK
6
CONTINUOUS
10
84.5003
20
-188.466
11
84.6908
21
-188.562
0
LINE
8
BLACK
6
CONTINUOUS
10
84.6908
20
-188.562
11
84.786
21
-188.657
0
LINE
8
BLACK
6
CONTINUOUS
10
84.786
20
-188.657
11
84.8812
21
-188.847
0
LINE
8
BLACK
6
CONTINUOUS
10
84.8812
20
-188.847
11
84.9765
21
-189.228
0
LINE
8
BLACK
6
CONTINUOUS
10
84.9765
20
-189.228
11
84.9765
21
-189.704
0
LINE
8
BLACK
6
CONTINUOUS
10
84.9765
20
-189.704
11
84.8812
21
-190.085
0
LINE
8
BLACK
6
CONTINUOUS
10
84.8812
20
-190.085
11
84.786
21
-190.276
0
LINE
8
BLACK
6
CONTINUOUS
10
84.786
20
-190.276
11
84.6908
21
-190.371
0
LINE
8
BLACK
6
CONTINUOUS
10
84.6908
20
-190.371
11
84.5003
21
-190.466
0
LINE
8
BLACK
6
CONTINUOUS
10
84.5003
20
-190.466
11
84.3098
21
-190.466
0
LINE
8
BLACK
6
CONTINUOUS
10
84.3098
20
-190.466
11
84.1193
21
-190.371
0
LINE
8
BLACK
6
CONTINUOUS
10
84.1193
20
-190.371
11
84.0241
21
-190.276
0
LINE
8
BLACK
6
CONTINUOUS
10
84.0241
20
-190.276
11
83.9288
21
-190.085
0
LINE
8
BLACK
6
CONTINUOUS
10
83.9288
20
-190.085
11
83.8336
21
-189.704
0
LINE
8
BLACK
6
CONTINUOUS
10
83.8336
20
-189.704
11
83.8336
21
-189.228
0
LINE
8
BLACK
6
CONTINUOUS
10
83.8336
20
-189.228
11
83.9288
21
-188.847
0
LINE
8
BLACK
6
CONTINUOUS
10
83.9288
20
-188.847
11
84.0241
21
-188.657
0
LINE
8
BLACK
6
CONTINUOUS
10
84.0241
20
-188.657
11
84.1193
21
-188.562
0
LINE
8
BLACK
6
CONTINUOUS
10
84.1193
20
-188.562
11
84.3098
21
-188.466
0
LINE
8
BLACK
6
CONTINUOUS
10
85.6431
20
-188.466
11
86.8812
21
-188.466
0
LINE
8
BLACK
6
CONTINUOUS
10
86.8812
20
-188.466
11
86.2146
21
-189.228
0
LINE
8
BLACK
6
CONTINUOUS
10
86.2146
20
-189.228
11
86.5003
21
-189.228
0
LINE
8
BLACK
6
CONTINUOUS
10
86.5003
20
-189.228
11
86.6908
21
-189.323
0
LINE
8
BLACK
6
CONTINUOUS
10
86.6908
20
-189.323
11
86.786
21
-189.419
0
LINE
8
BLACK
6
CONTINUOUS
10
86.786
20
-189.419
11
86.8812
21
-189.609
0
LINE
8
BLACK
6
CONTINUOUS
10
86.8812
20
-189.609
11
86.8812
21
-190.085
0
LINE
8
BLACK
6
CONTINUOUS
10
86.8812
20
-190.085
11
86.786
21
-190.276
0
LINE
8
BLACK
6
CONTINUOUS
10
86.786
20
-190.276
11
86.6908
21
-190.371
0
LINE
8
BLACK
6
CONTINUOUS
10
86.6908
20
-190.371
11
86.5003
21
-190.466
0
LINE
8
BLACK
6
CONTINUOUS
10
86.5003
20
-190.466
11
85.9288
21
-190.466
0
LINE
8
BLACK
6
CONTINUOUS
10
85.9288
20
-190.466
11
85.7384
21
-190.371
0
LINE
8
BLACK
6
CONTINUOUS
10
85.7384
20
-190.371
11
85.6431
21
-190.276
0
LINE
8
BLACK
6
CONTINUOUS
10
87.8336
20
-190.466
11
88.2146
21
-190.466
0
LINE
8
BLACK
6
CONTINUOUS
10
88.2146
20
-190.466
11
88.405
21
-190.371
0
LINE
8
BLACK
6
CONTINUOUS
10
88.405
20
-190.371
11
88.5003
21
-190.276
0
LINE
8
BLACK
6
CONTINUOUS
10
88.5003
20
-190.276
11
88.6908
21
-189.99
0
LINE
8
BLACK
6
CONTINUOUS
10
88.6908
20
-189.99
11
88.786
21
-189.609
0
LINE
8
BLACK
6
CONTINUOUS
10
88.786
20
-189.609
11
88.786
21
-188.847
0
LINE
8
BLACK
6
CONTINUOUS
10
88.786
20
-188.847
11
88.6908
21
-188.657
0
LINE
8
BLACK
6
CONTINUOUS
10
88.6908
20
-188.657
11
88.5955
21
-188.562
0
LINE
8
BLACK
6
CONTINUOUS
10
88.5955
20
-188.562
11
88.405
21
-188.466
0
LINE
8
BLACK
6
CONTINUOUS
10
88.405
20
-188.466
11
88.0241
21
-188.466
0
LINE
8
BLACK
6
CONTINUOUS
10
88.0241
20
-188.466
11
87.8336
21
-188.562
0
LINE
8
BLACK
6
CONTINUOUS
10
87.8336
20
-188.562
11
87.7384
21
-188.657
0
LINE
8
BLACK
6
CONTINUOUS
10
87.7384
20
-188.657
11
87.6431
21
-188.847
0
LINE
8
BLACK
6
CONTINUOUS
10
87.6431
20
-188.847
11
87.6431
21
-189.323
0
LINE
8
BLACK
6
CONTINUOUS
10
87.6431
20
-189.323
11
87.7384
21
-189.514
0
LINE
8
BLACK
6
CONTINUOUS
10
87.7384
20
-189.514
11
87.8336
21
-189.609
0
LINE
8
BLACK
6
CONTINUOUS
10
87.8336
20
-189.609
11
88.0241
21
-189.704
0
LINE
8
BLACK
6
CONTINUOUS
10
88.0241
20
-189.704
11
88.405
21
-189.704
0
LINE
8
BLACK
6
CONTINUOUS
10
88.405
20
-189.704
11
88.5955
21
-189.609
0
LINE
8
BLACK
6
CONTINUOUS
10
88.5955
20
-189.609
11
88.6908
21
-189.514
0
LINE
8
BLACK
6
CONTINUOUS
10
88.6908
20
-189.514
11
88.786
21
-189.323
0
LINE
8
BLACK
6
CONTINUOUS
10
90.5003
20
-189.133
11
90.5003
21
-190.466
0
LINE
8
BLACK
6
CONTINUOUS
10
90.0241
20
-188.371
11
89.5479
21
-189.8
0
LINE
8
BLACK
6
CONTINUOUS
10
89.5479
20
-189.8
11
90.786
21
-189.8
0
LINE
8
BLACK
6
CONTINUOUS
10
91.4527
20
-188.466
11
91.4527
21
-188.847
0
LINE
8
BLACK
6
CONTINUOUS
10
92.2146
20
-188.466
11
92.2146
21
-188.847
0
LINE
8
BLACK
6
CONTINUOUS
10
95.1669
20
-191.228
11
95.0717
21
-191.133
0
LINE
8
BLACK
6
CONTINUOUS
10
95.0717
20
-191.133
11
94.8812
21
-190.847
0
LINE
8
BLACK
6
CONTINUOUS
10
94.8812
20
-190.847
11
94.786
21
-190.657
0
LINE
8
BLACK
6
CONTINUOUS
10
94.786
20
-190.657
11
94.6908
21
-190.371
0
LINE
8
BLACK
6
CONTINUOUS
10
94.6908
20
-190.371
11
94.5955
21
-189.895
0
LINE
8
BLACK
6
CONTINUOUS
10
94.5955
20
-189.895
11
94.5955
21
-189.514
0
LINE
8
BLACK
6
CONTINUOUS
10
94.5955
20
-189.514
11
94.6908
21
-189.038
0
LINE
8
BLACK
6
CONTINUOUS
10
94.6908
20
-189.038
11
94.786
21
-188.752
0
LINE
8
BLACK
6
CONTINUOUS
10
94.786
20
-188.752
11
94.8812
21
-188.562
0
LINE
8
BLACK
6
CONTINUOUS
10
94.8812
20
-188.562
11
95.0717
21
-188.276
0
LINE
8
BLACK
6
CONTINUOUS
10
95.0717
20
-188.276
11
95.1669
21
-188.181
0
LINE
8
BLACK
6
CONTINUOUS
10
96.8812
20
-188.466
11
95.9288
21
-188.466
0
LINE
8
BLACK
6
CONTINUOUS
10
95.9288
20
-188.466
11
95.8336
21
-189.419
0
LINE
8
BLACK
6
CONTINUOUS
10
95.8336
20
-189.419
11
95.9288
21
-189.323
0
LINE
8
BLACK
6
CONTINUOUS
10
95.9288
20
-189.323
11
96.1193
21
-189.228
0
LINE
8
BLACK
6
CONTINUOUS
10
96.1193
20
-189.228
11
96.5955
21
-189.228
0
LINE
8
BLACK
6
CONTINUOUS
10
96.5955
20
-189.228
11
96.786
21
-189.323
0
LINE
8
BLACK
6
CONTINUOUS
10
96.786
20
-189.323
11
96.8812
21
-189.419
0
LINE
8
BLACK
6
CONTINUOUS
10
96.8812
20
-189.419
11
96.9765
21
-189.609
0
LINE
8
BLACK
6
CONTINUOUS
10
96.9765
20
-189.609
11
96.9765
21
-190.085
0
LINE
8
BLACK
6
CONTINUOUS
10
96.9765
20
-190.085
11
96.8812
21
-190.276
0
LINE
8
BLACK
6
CONTINUOUS
10
96.8812
20
-190.276
11
96.786
21
-190.371
0
LINE
8
BLACK
6
CONTINUOUS
10
96.786
20
-190.371
11
96.5955
21
-190.466
0
LINE
8
BLACK
6
CONTINUOUS
10
96.5955
20
-190.466
11
96.1193
21
-190.466
0
LINE
8
BLACK
6
CONTINUOUS
10
96.1193
20
-190.466
11
95.9288
21
-190.371
0
LINE
8
BLACK
6
CONTINUOUS
10
95.9288
20
-190.371
11
95.8336
21
-190.276
0
LINE
8
BLACK
6
CONTINUOUS
10
99.3574
20
-190.466
11
99.3574
21
-188.466
0
LINE
8
BLACK
6
CONTINUOUS
10
100.215
20
-190.466
11
100.215
21
-189.419
0
LINE
8
BLACK
6
CONTINUOUS
10
100.215
20
-189.419
11
100.119
21
-189.228
0
LINE
8
BLACK
6
CONTINUOUS
10
100.119
20
-189.228
11
99.9288
21
-189.133
0
LINE
8
BLACK
6
CONTINUOUS
10
99.9288
20
-189.133
11
99.6431
21
-189.133
0
LINE
8
BLACK
6
CONTINUOUS
10
99.6431
20
-189.133
11
99.4527
21
-189.228
0
LINE
8
BLACK
6
CONTINUOUS
10
99.4527
20
-189.228
11
99.3574
21
-189.323
0
LINE
8
BLACK
6
CONTINUOUS
10
101.453
20
-190.466
11
101.262
21
-190.371
0
LINE
8
BLACK
6
CONTINUOUS
10
101.262
20
-190.371
11
101.167
21
-190.276
0
LINE
8
BLACK
6
CONTINUOUS
10
101.167
20
-190.276
11
101.072
21
-190.085
0
LINE
8
BLACK
6
CONTINUOUS
10
101.072
20
-190.085
11
101.072
21
-189.514
0
LINE
8
BLACK
6
CONTINUOUS
10
101.072
20
-189.514
11
101.167
21
-189.323
0
LINE
8
BLACK
6
CONTINUOUS
10
101.167
20
-189.323
11
101.262
21
-189.228
0
LINE
8
BLACK
6
CONTINUOUS
10
101.262
20
-189.228
11
101.453
21
-189.133
0
LINE
8
BLACK
6
CONTINUOUS
10
101.453
20
-189.133
11
101.738
21
-189.133
0
LINE
8
BLACK
6
CONTINUOUS
10
101.738
20
-189.133
11
101.929
21
-189.228
0
LINE
8
BLACK
6
CONTINUOUS
10
101.929
20
-189.228
11
102.024
21
-189.323
0
LINE
8
BLACK
6
CONTINUOUS
10
102.024
20
-189.323
11
102.119
21
-189.514
0
LINE
8
BLACK
6
CONTINUOUS
10
102.119
20
-189.514
11
102.119
21
-190.085
0
LINE
8
BLACK
6
CONTINUOUS
10
102.119
20
-190.085
11
102.024
21
-190.276
0
LINE
8
BLACK
6
CONTINUOUS
10
102.024
20
-190.276
11
101.929
21
-190.371
0
LINE
8
BLACK
6
CONTINUOUS
10
101.929
20
-190.371
11
101.738
21
-190.466
0
LINE
8
BLACK
6
CONTINUOUS
10
101.738
20
-190.466
11
101.453
21
-190.466
0
LINE
8
BLACK
6
CONTINUOUS
10
103.262
20
-190.466
11
103.072
21
-190.371
0
LINE
8
BLACK
6
CONTINUOUS
10
103.072
20
-190.371
11
102.976
21
-190.181
0
LINE
8
BLACK
6
CONTINUOUS
10
102.976
20
-190.181
11
102.976
21
-188.466
0
LINE
8
BLACK
6
CONTINUOUS
10
104.786
20
-190.371
11
104.596
21
-190.466
0
LINE
8
BLACK
6
CONTINUOUS
10
104.596
20
-190.466
11
104.215
21
-190.466
0
LINE
8
BLACK
6
CONTINUOUS
10
104.215
20
-190.466
11
104.024
21
-190.371
0
LINE
8
BLACK
6
CONTINUOUS
10
104.024
20
-190.371
11
103.929
21
-190.181
0
LINE
8
BLACK
6
CONTINUOUS
10
103.929
20
-190.181
11
103.929
21
-189.419
0
LINE
8
BLACK
6
CONTINUOUS
10
103.929
20
-189.419
11
104.024
21
-189.228
0
LINE
8
BLACK
6
CONTINUOUS
10
104.024
20
-189.228
11
104.215
21
-189.133
0
LINE
8
BLACK
6
CONTINUOUS
10
104.215
20
-189.133
11
104.596
21
-189.133
0
LINE
8
BLACK
6
CONTINUOUS
10
104.596
20
-189.133
11
104.786
21
-189.228
0
LINE
8
BLACK
6
CONTINUOUS
10
104.786
20
-189.228
11
104.881
21
-189.419
0
LINE
8
BLACK
6
CONTINUOUS
10
104.881
20
-189.419
11
104.881
21
-189.609
0
LINE
8
BLACK
6
CONTINUOUS
10
104.881
20
-189.609
11
103.929
21
-189.8
0
LINE
8
BLACK
6
CONTINUOUS
10
105.643
20
-190.371
11
105.834
21
-190.466
0
LINE
8
BLACK
6
CONTINUOUS
10
105.834
20
-190.466
11
106.215
21
-190.466
0
LINE
8
BLACK
6
CONTINUOUS
10
106.215
20
-190.466
11
106.405
21
-190.371
0
LINE
8
BLACK
6
CONTINUOUS
10
106.405
20
-190.371
11
106.5
21
-190.181
0
LINE
8
BLACK
6
CONTINUOUS
10
106.5
20
-190.181
11
106.5
21
-190.085
0
LINE
8
BLACK
6
CONTINUOUS
10
106.5
20
-190.085
11
106.405
21
-189.895
0
LINE
8
BLACK
6
CONTINUOUS
10
106.405
20
-189.895
11
106.215
21
-189.8
0
LINE
8
BLACK
6
CONTINUOUS
10
106.215
20
-189.8
11
105.929
21
-189.8
0
LINE
8
BLACK
6
CONTINUOUS
10
105.929
20
-189.8
11
105.738
21
-189.704
0
LINE
8
BLACK
6
CONTINUOUS
10
105.738
20
-189.704
11
105.643
21
-189.514
0
LINE
8
BLACK
6
CONTINUOUS
10
105.643
20
-189.514
11
105.643
21
-189.419
0
LINE
8
BLACK
6
CONTINUOUS
10
105.643
20
-189.419
11
105.738
21
-189.228
0
LINE
8
BLACK
6
CONTINUOUS
10
105.738
20
-189.228
11
105.929
21
-189.133
0
LINE
8
BLACK
6
CONTINUOUS
10
105.929
20
-189.133
11
106.215
21
-189.133
0
LINE
8
BLACK
6
CONTINUOUS
10
106.215
20
-189.133
11
106.405
21
-189.228
0
LINE
8
BLACK
6
CONTINUOUS
10
107.167
20
-191.228
11
107.262
21
-191.133
0
LINE
8
BLACK
6
CONTINUOUS
10
107.262
20
-191.133
11
107.453
21
-190.847
0
LINE
8
BLACK
6
CONTINUOUS
10
107.453
20
-190.847
11
107.548
21
-190.657
0
LINE
8
BLACK
6
CONTINUOUS
10
107.548
20
-190.657
11
107.643
21
-190.371
0
LINE
8
BLACK
6
CONTINUOUS
10
107.643
20
-190.371
11
107.738
21
-189.895
0
LINE
8
BLACK
6
CONTINUOUS
10
107.738
20
-189.895
11
107.738
21
-189.514
0
LINE
8
BLACK
6
CONTINUOUS
10
107.738
20
-189.514
11
107.643
21
-189.038
0
LINE
8
BLACK
6
CONTINUOUS
10
107.643
20
-189.038
11
107.548
21
-188.752
0
LINE
8
BLACK
6
CONTINUOUS
10
107.548
20
-188.752
11
107.453
21
-188.562
0
LINE
8
BLACK
6
CONTINUOUS
10
107.453
20
-188.562
11
107.262
21
-188.276
0
LINE
8
BLACK
6
CONTINUOUS
10
107.262
20
-188.276
11
107.167
21
-188.181
0
LINE
8
BLACK
6
CONTINUOUS
10
59.3247
20
-192.72
11
59.3247
21
-191.642
0
LINE
8
BLACK
6
CONTINUOUS
10
59.3247
20
-191.642
11
58.2471
21
-191.642
0
LINE
8
BLACK
6
CONTINUOUS
10
58.2471
20
-191.642
11
58.2471
21
-192.72
0
LINE
8
BLACK
6
CONTINUOUS
10
58.2471
20
-192.72
11
59.3247
21
-192.72
0
LINE
8
BLACK
6
CONTINUOUS
10
63.0717
20
-193.106
11
61.9288
21
-193.106
0
LINE
8
BLACK
6
CONTINUOUS
10
62.5003
20
-193.106
11
62.5003
21
-191.106
0
LINE
8
BLACK
6
CONTINUOUS
10
62.5003
20
-191.106
11
62.3098
21
-191.392
0
LINE
8
BLACK
6
CONTINUOUS
10
62.3098
20
-191.392
11
62.1193
21
-191.583
0
LINE
8
BLACK
6
CONTINUOUS
10
62.1193
20
-191.583
11
61.9288
21
-191.678
0
LINE
8
BLACK
6
CONTINUOUS
10
63.9288
20
-192.916
11
64.0241
21
-193.011
0
LINE
8
BLACK
6
CONTINUOUS
10
64.0241
20
-193.011
11
63.9288
21
-193.106
0
LINE
8
BLACK
6
CONTINUOUS
10
63.9288
20
-193.106
11
63.8336
21
-193.011
0
LINE
8
BLACK
6
CONTINUOUS
10
63.8336
20
-193.011
11
63.9288
21
-192.916
0
LINE
8
BLACK
6
CONTINUOUS
10
63.9288
20
-192.916
11
63.9288
21
-193.106
0
LINE
8
BLACK
6
CONTINUOUS
10
65.8336
20
-191.106
11
64.8812
21
-191.106
0
LINE
8
BLACK
6
CONTINUOUS
10
64.8812
20
-191.106
11
64.786
21
-192.059
0
LINE
8
BLACK
6
CONTINUOUS
10
64.786
20
-192.059
11
64.8812
21
-191.963
0
LINE
8
BLACK
6
CONTINUOUS
10
64.8812
20
-191.963
11
65.0717
21
-191.868
0
LINE
8
BLACK
6
CONTINUOUS
10
65.0717
20
-191.868
11
65.5479
21
-191.868
0
LINE
8
BLACK
6
CONTINUOUS
10
65.5479
20
-191.868
11
65.7384
21
-191.963
0
LINE
8
BLACK
6
CONTINUOUS
10
65.7384
20
-191.963
11
65.8336
21
-192.059
0
LINE
8
BLACK
6
CONTINUOUS
10
65.8336
20
-192.059
11
65.9288
21
-192.249
0
LINE
8
BLACK
6
CONTINUOUS
10
65.9288
20
-192.249
11
65.9288
21
-192.725
0
LINE
8
BLACK
6
CONTINUOUS
10
65.9288
20
-192.725
11
65.8336
21
-192.916
0
LINE
8
BLACK
6
CONTINUOUS
10
65.8336
20
-192.916
11
65.7384
21
-193.011
0
LINE
8
BLACK
6
CONTINUOUS
10
65.7384
20
-193.011
11
65.5479
21
-193.106
0
LINE
8
BLACK
6
CONTINUOUS
10
65.5479
20
-193.106
11
65.0717
21
-193.106
0
LINE
8
BLACK
6
CONTINUOUS
10
65.0717
20
-193.106
11
64.8812
21
-193.011
0
LINE
8
BLACK
6
CONTINUOUS
10
64.8812
20
-193.011
11
64.786
21
-192.916
0
LINE
8
BLACK
6
CONTINUOUS
10
66.6908
20
-191.297
11
66.786
21
-191.202
0
LINE
8
BLACK
6
CONTINUOUS
10
66.786
20
-191.202
11
66.9765
21
-191.106
0
LINE
8
BLACK
6
CONTINUOUS
10
66.9765
20
-191.106
11
67.4527
21
-191.106
0
LINE
8
BLACK
6
CONTINUOUS
10
67.4527
20
-191.106
11
67.6431
21
-191.202
0
LINE
8
BLACK
6
CONTINUOUS
10
67.6431
20
-191.202
11
67.7384
21
-191.297
0
LINE
8
BLACK
6
CONTINUOUS
10
67.7384
20
-191.297
11
67.8336
21
-191.487
0
LINE
8
BLACK
6
CONTINUOUS
10
67.8336
20
-191.487
11
67.8336
21
-191.678
0
LINE
8
BLACK
6
CONTINUOUS
10
67.8336
20
-191.678
11
67.7384
21
-191.963
0
LINE
8
BLACK
6
CONTINUOUS
10
67.7384
20
-191.963
11
66.5955
21
-193.106
0
LINE
8
BLACK
6
CONTINUOUS
10
66.5955
20
-193.106
11
67.8336
21
-193.106
0
LINE
8
BLACK
6
CONTINUOUS
10
69.5479
20
-191.773
11
69.5479
21
-193.106
0
LINE
8
BLACK
6
CONTINUOUS
10
69.0717
20
-191.011
11
68.5955
21
-192.44
0
LINE
8
BLACK
6
CONTINUOUS
10
68.5955
20
-192.44
11
69.8336
21
-192.44
0
LINE
8
BLACK
6
CONTINUOUS
10
70.5955
20
-193.106
11
70.5955
21
-191.773
0
LINE
8
BLACK
6
CONTINUOUS
10
70.5955
20
-191.963
11
70.6908
21
-191.868
0
LINE
8
BLACK
6
CONTINUOUS
10
70.6908
20
-191.868
11
70.8812
21
-191.773
0
LINE
8
BLACK
6
CONTINUOUS
10
70.8812
20
-191.773
11
71.1669
21
-191.773
0
LINE
8
BLACK
6
CONTINUOUS
10
71.1669
20
-191.773
11
71.3574
21
-191.868
0
LINE
8
BLACK
6
CONTINUOUS
10
71.3574
20
-191.868
11
71.4527
21
-192.059
0
LINE
8
BLACK
6
CONTINUOUS
10
71.4527
20
-192.059
11
71.4527
21
-193.106
0
LINE
8
BLACK
6
CONTINUOUS
10
71.4527
20
-192.059
11
71.5479
21
-191.868
0
LINE
8
BLACK
6
CONTINUOUS
10
71.5479
20
-191.868
11
71.7384
21
-191.773
0
LINE
8
BLACK
6
CONTINUOUS
10
71.7384
20
-191.773
11
72.0241
21
-191.773
0
LINE
8
BLACK
6
CONTINUOUS
10
72.0241
20
-191.773
11
72.2146
21
-191.868
0
LINE
8
BLACK
6
CONTINUOUS
10
72.2146
20
-191.868
11
72.3098
21
-192.059
0
LINE
8
BLACK
6
CONTINUOUS
10
72.3098
20
-192.059
11
72.3098
21
-193.106
0
LINE
8
BLACK
6
CONTINUOUS
10
73.2622
20
-193.106
11
73.2622
21
-191.773
0
LINE
8
BLACK
6
CONTINUOUS
10
73.2622
20
-191.963
11
73.3574
21
-191.868
0
LINE
8
BLACK
6
CONTINUOUS
10
73.3574
20
-191.868
11
73.5479
21
-191.773
0
LINE
8
BLACK
6
CONTINUOUS
10
73.5479
20
-191.773
11
73.8336
21
-191.773
0
LINE
8
BLACK
6
CONTINUOUS
10
73.8336
20
-191.773
11
74.0241
21
-191.868
0
LINE
8
BLACK
6
CONTINUOUS
10
74.0241
20
-191.868
11
74.1193
21
-192.059
0
LINE
8
BLACK
6
CONTINUOUS
10
74.1193
20
-192.059
11
74.1193
21
-193.106
0
LINE
8
BLACK
6
CONTINUOUS
10
74.1193
20
-192.059
11
74.2146
21
-191.868
0
LINE
8
BLACK
6
CONTINUOUS
10
74.2146
20
-191.868
11
74.405
21
-191.773
0
LINE
8
BLACK
6
CONTINUOUS
10
74.405
20
-191.773
11
74.6908
21
-191.773
0
LINE
8
BLACK
6
CONTINUOUS
10
74.6908
20
-191.773
11
74.8812
21
-191.868
0
LINE
8
BLACK
6
CONTINUOUS
10
74.8812
20
-191.868
11
74.9765
21
-192.059
0
LINE
8
BLACK
6
CONTINUOUS
10
74.9765
20
-192.059
11
74.9765
21
-193.106
0
LINE
8
BLACK
6
CONTINUOUS
10
78.8812
20
-191.011
11
77.1669
21
-193.583
0
LINE
8
BLACK
6
CONTINUOUS
10
81.4527
20
-191.106
11
81.6431
21
-191.106
0
LINE
8
BLACK
6
CONTINUOUS
10
81.6431
20
-191.106
11
81.8336
21
-191.202
0
LINE
8
BLACK
6
CONTINUOUS
10
81.8336
20
-191.202
11
81.9288
21
-191.297
0
LINE
8
BLACK
6
CONTINUOUS
10
81.9288
20
-191.297
11
82.0241
21
-191.487
0
LINE
8
BLACK
6
CONTINUOUS
10
82.0241
20
-191.487
11
82.1193
21
-191.868
0
LINE
8
BLACK
6
CONTINUOUS
10
82.1193
20
-191.868
11
82.1193
21
-192.344
0
LINE
8
BLACK
6
CONTINUOUS
10
82.1193
20
-192.344
11
82.0241
21
-192.725
0
LINE
8
BLACK
6
CONTINUOUS
10
82.0241
20
-192.725
11
81.9288
21
-192.916
0
LINE
8
BLACK
6
CONTINUOUS
10
81.9288
20
-192.916
11
81.8336
21
-193.011
0
LINE
8
BLACK
6
CONTINUOUS
10
81.8336
20
-193.011
11
81.6431
21
-193.106
0
LINE
8
BLACK
6
CONTINUOUS
10
81.6431
20
-193.106
11
81.4527
21
-193.106
0
LINE
8
BLACK
6
CONTINUOUS
10
81.4527
20
-193.106
11
81.2622
21
-193.011
0
LINE
8
BLACK
6
CONTINUOUS
10
81.2622
20
-193.011
11
81.1669
21
-192.916
0
LINE
8
BLACK
6
CONTINUOUS
10
81.1669
20
-192.916
11
81.0717
21
-192.725
0
LINE
8
BLACK
6
CONTINUOUS
10
81.0717
20
-192.725
11
80.9765
21
-192.344
0
LINE
8
BLACK
6
CONTINUOUS
10
80.9765
20
-192.344
11
80.9765
21
-191.868
0
LINE
8
BLACK
6
CONTINUOUS
10
80.9765
20
-191.868
11
81.0717
21
-191.487
0
LINE
8
BLACK
6
CONTINUOUS
10
81.0717
20
-191.487
11
81.1669
21
-191.297
0
LINE
8
BLACK
6
CONTINUOUS
10
81.1669
20
-191.297
11
81.2622
21
-191.202
0
LINE
8
BLACK
6
CONTINUOUS
10
81.2622
20
-191.202
11
81.4527
21
-191.106
0
LINE
8
BLACK
6
CONTINUOUS
10
82.9765
20
-192.916
11
83.0717
21
-193.011
0
LINE
8
BLACK
6
CONTINUOUS
10
83.0717
20
-193.011
11
82.9765
21
-193.106
0
LINE
8
BLACK
6
CONTINUOUS
10
82.9765
20
-193.106
11
82.8812
21
-193.011
0
LINE
8
BLACK
6
CONTINUOUS
10
82.8812
20
-193.011
11
82.9765
21
-192.916
0
LINE
8
BLACK
6
CONTINUOUS
10
82.9765
20
-192.916
11
82.9765
21
-193.106
0
LINE
8
BLACK
6
CONTINUOUS
10
84.3098
20
-191.106
11
84.5003
21
-191.106
0
LINE
8
BLACK
6
CONTINUOUS
10
84.5003
20
-191.106
11
84.6908
21
-191.202
0
LINE
8
BLACK
6
CONTINUOUS
10
84.6908
20
-191.202
11
84.786
21
-191.297
0
LINE
8
BLACK
6
CONTINUOUS
10
84.786
20
-191.297
11
84.8812
21
-191.487
0
LINE
8
BLACK
6
CONTINUOUS
10
84.8812
20
-191.487
11
84.9765
21
-191.868
0
LINE
8
BLACK
6
CONTINUOUS
10
84.9765
20
-191.868
11
84.9765
21
-192.344
0
LINE
8
BLACK
6
CONTINUOUS
10
84.9765
20
-192.344
11
84.8812
21
-192.725
0
LINE
8
BLACK
6
CONTINUOUS
10
84.8812
20
-192.725
11
84.786
21
-192.916
0
LINE
8
BLACK
6
CONTINUOUS
10
84.786
20
-192.916
11
84.6908
21
-193.011
0
LINE
8
BLACK
6
CONTINUOUS
10
84.6908
20
-193.011
11
84.5003
21
-193.106
0
LINE
8
BLACK
6
CONTINUOUS
10
84.5003
20
-193.106
11
84.3098
21
-193.106
0
LINE
8
BLACK
6
CONTINUOUS
10
84.3098
20
-193.106
11
84.1193
21
-193.011
0
LINE
8
BLACK
6
CONTINUOUS
10
84.1193
20
-193.011
11
84.0241
21
-192.916
0
LINE
8
BLACK
6
CONTINUOUS
10
84.0241
20
-192.916
11
83.9288
21
-192.725
0
LINE
8
BLACK
6
CONTINUOUS
10
83.9288
20
-192.725
11
83.8336
21
-192.344
0
LINE
8
BLACK
6
CONTINUOUS
10
83.8336
20
-192.344
11
83.8336
21
-191.868
0
LINE
8
BLACK
6
CONTINUOUS
10
83.8336
20
-191.868
11
83.9288
21
-191.487
0
LINE
8
BLACK
6
CONTINUOUS
10
83.9288
20
-191.487
11
84.0241
21
-191.297
0
LINE
8
BLACK
6
CONTINUOUS
10
84.0241
20
-191.297
11
84.1193
21
-191.202
0
LINE
8
BLACK
6
CONTINUOUS
10
84.1193
20
-191.202
11
84.3098
21
-191.106
0
LINE
8
BLACK
6
CONTINUOUS
10
86.6908
20
-191.106
11
86.3098
21
-191.106
0
LINE
8
BLACK
6
CONTINUOUS
10
86.3098
20
-191.106
11
86.1193
21
-191.202
0
LINE
8
BLACK
6
CONTINUOUS
10
86.1193
20
-191.202
11
86.0241
21
-191.297
0
LINE
8
BLACK
6
CONTINUOUS
10
86.0241
20
-191.297
11
85.8336
21
-191.583
0
LINE
8
BLACK
6
CONTINUOUS
10
85.8336
20
-191.583
11
85.7384
21
-191.963
0
LINE
8
BLACK
6
CONTINUOUS
10
85.7384
20
-191.963
11
85.7384
21
-192.725
0
LINE
8
BLACK
6
CONTINUOUS
10
85.7384
20
-192.725
11
85.8336
21
-192.916
0
LINE
8
BLACK
6
CONTINUOUS
10
85.8336
20
-192.916
11
85.9288
21
-193.011
0
LINE
8
BLACK
6
CONTINUOUS
10
85.9288
20
-193.011
11
86.1193
21
-193.106
0
LINE
8
BLACK
6
CONTINUOUS
10
86.1193
20
-193.106
11
86.5003
21
-193.106
0
LINE
8
BLACK
6
CONTINUOUS
10
86.5003
20
-193.106
11
86.6908
21
-193.011
0
LINE
8
BLACK
6
CONTINUOUS
10
86.6908
20
-193.011
11
86.786
21
-192.916
0
LINE
8
BLACK
6
CONTINUOUS
10
86.786
20
-192.916
11
86.8812
21
-192.725
0
LINE
8
BLACK
6
CONTINUOUS
10
86.8812
20
-192.725
11
86.8812
21
-192.249
0
LINE
8
BLACK
6
CONTINUOUS
10
86.8812
20
-192.249
11
86.786
21
-192.059
0
LINE
8
BLACK
6
CONTINUOUS
10
86.786
20
-192.059
11
86.6908
21
-191.963
0
LINE
8
BLACK
6
CONTINUOUS
10
86.6908
20
-191.963
11
86.5003
21
-191.868
0
LINE
8
BLACK
6
CONTINUOUS
10
86.5003
20
-191.868
11
86.1193
21
-191.868
0
LINE
8
BLACK
6
CONTINUOUS
10
86.1193
20
-191.868
11
85.9288
21
-191.963
0
LINE
8
BLACK
6
CONTINUOUS
10
85.9288
20
-191.963
11
85.8336
21
-192.059
0
LINE
8
BLACK
6
CONTINUOUS
10
85.8336
20
-192.059
11
85.7384
21
-192.249
0
LINE
8
BLACK
6
CONTINUOUS
10
88.1193
20
-191.106
11
88.3098
21
-191.106
0
LINE
8
BLACK
6
CONTINUOUS
10
88.3098
20
-191.106
11
88.5003
21
-191.202
0
LINE
8
BLACK
6
CONTINUOUS
10
88.5003
20
-191.202
11
88.5955
21
-191.297
0
LINE
8
BLACK
6
CONTINUOUS
10
88.5955
20
-191.297
11
88.6908
21
-191.487
0
LINE
8
BLACK
6
CONTINUOUS
10
88.6908
20
-191.487
11
88.786
21
-191.868
0
LINE
8
BLACK
6
CONTINUOUS
10
88.786
20
-191.868
11
88.786
21
-192.344
0
LINE
8
BLACK
6
CONTINUOUS
10
88.786
20
-192.344
11
88.6908
21
-192.725
0
LINE
8
BLACK
6
CONTINUOUS
10
88.6908
20
-192.725
11
88.5955
21
-192.916
0
LINE
8
BLACK
6
CONTINUOUS
10
88.5955
20
-192.916
11
88.5003
21
-193.011
0
LINE
8
BLACK
6
CONTINUOUS
10
88.5003
20
-193.011
11
88.3098
21
-193.106
0
LINE
8
BLACK
6
CONTINUOUS
10
88.3098
20
-193.106
11
88.1193
21
-193.106
0
LINE
8
BLACK
6
CONTINUOUS
10
88.1193
20
-193.106
11
87.9288
21
-193.011
0
LINE
8
BLACK
6
CONTINUOUS
10
87.9288
20
-193.011
11
87.8336
21
-192.916
0
LINE
8
BLACK
6
CONTINUOUS
10
87.8336
20
-192.916
11
87.7384
21
-192.725
0
LINE
8
BLACK
6
CONTINUOUS
10
87.7384
20
-192.725
11
87.6431
21
-192.344
0
LINE
8
BLACK
6
CONTINUOUS
10
87.6431
20
-192.344
11
87.6431
21
-191.868
0
LINE
8
BLACK
6
CONTINUOUS
10
87.6431
20
-191.868
11
87.7384
21
-191.487
0
LINE
8
BLACK
6
CONTINUOUS
10
87.7384
20
-191.487
11
87.8336
21
-191.297
0
LINE
8
BLACK
6
CONTINUOUS
10
87.8336
20
-191.297
11
87.9288
21
-191.202
0
LINE
8
BLACK
6
CONTINUOUS
10
87.9288
20
-191.202
11
88.1193
21
-191.106
0
LINE
8
BLACK
6
CONTINUOUS
10
90.0241
20
-191.106
11
90.2146
21
-191.106
0
LINE
8
BLACK
6
CONTINUOUS
10
90.2146
20
-191.106
11
90.405
21
-191.202
0
LINE
8
BLACK
6
CONTINUOUS
10
90.405
20
-191.202
11
90.5003
21
-191.297
0
LINE
8
BLACK
6
CONTINUOUS
10
90.5003
20
-191.297
11
90.5955
21
-191.487
0
LINE
8
BLACK
6
CONTINUOUS
10
90.5955
20
-191.487
11
90.6908
21
-191.868
0
LINE
8
BLACK
6
CONTINUOUS
10
90.6908
20
-191.868
11
90.6908
21
-192.344
0
LINE
8
BLACK
6
CONTINUOUS
10
90.6908
20
-192.344
11
90.5955
21
-192.725
0
LINE
8
BLACK
6
CONTINUOUS
10
90.5955
20
-192.725
11
90.5003
21
-192.916
0
LINE
8
BLACK
6
CONTINUOUS
10
90.5003
20
-192.916
11
90.405
21
-193.011
0
LINE
8
BLACK
6
CONTINUOUS
10
90.405
20
-193.011
11
90.2146
21
-193.106
0
LINE
8
BLACK
6
CONTINUOUS
10
90.2146
20
-193.106
11
90.0241
21
-193.106
0
LINE
8
BLACK
6
CONTINUOUS
10
90.0241
20
-193.106
11
89.8336
21
-193.011
0
LINE
8
BLACK
6
CONTINUOUS
10
89.8336
20
-193.011
11
89.7384
21
-192.916
0
LINE
8
BLACK
6
CONTINUOUS
10
89.7384
20
-192.916
11
89.6431
21
-192.725
0
LINE
8
BLACK
6
CONTINUOUS
10
89.6431
20
-192.725
11
89.5479
21
-192.344
0
LINE
8
BLACK
6
CONTINUOUS
10
89.5479
20
-192.344
11
89.5479
21
-191.868
0
LINE
8
BLACK
6
CONTINUOUS
10
89.5479
20
-191.868
11
89.6431
21
-191.487
0
LINE
8
BLACK
6
CONTINUOUS
10
89.6431
20
-191.487
11
89.7384
21
-191.297
0
LINE
8
BLACK
6
CONTINUOUS
10
89.7384
20
-191.297
11
89.8336
21
-191.202
0
LINE
8
BLACK
6
CONTINUOUS
10
89.8336
20
-191.202
11
90.0241
21
-191.106
0
LINE
8
BLACK
6
CONTINUOUS
10
91.4527
20
-191.106
11
91.4527
21
-191.487
0
LINE
8
BLACK
6
CONTINUOUS
10
92.2146
20
-191.106
11
92.2146
21
-191.487
0
LINE
8
BLACK
6
CONTINUOUS
10
95.1669
20
-193.868
11
95.0717
21
-193.773
0
LINE
8
BLACK
6
CONTINUOUS
10
95.0717
20
-193.773
11
94.8812
21
-193.487
0
LINE
8
BLACK
6
CONTINUOUS
10
94.8812
20
-193.487
11
94.786
21
-193.297
0
LINE
8
BLACK
6
CONTINUOUS
10
94.786
20
-193.297
11
94.6908
21
-193.011
0
LINE
8
BLACK
6
CONTINUOUS
10
94.6908
20
-193.011
11
94.5955
21
-192.535
0
LINE
8
BLACK
6
CONTINUOUS
10
94.5955
20
-192.535
11
94.5955
21
-192.154
0
LINE
8
BLACK
6
CONTINUOUS
10
94.5955
20
-192.154
11
94.6908
21
-191.678
0
LINE
8
BLACK
6
CONTINUOUS
10
94.6908
20
-191.678
11
94.786
21
-191.392
0
LINE
8
BLACK
6
CONTINUOUS
10
94.786
20
-191.392
11
94.8812
21
-191.202
0
LINE
8
BLACK
6
CONTINUOUS
10
94.8812
20
-191.202
11
95.0717
21
-190.916
0
LINE
8
BLACK
6
CONTINUOUS
10
95.0717
20
-190.916
11
95.1669
21
-190.821
0
LINE
8
BLACK
6
CONTINUOUS
10
96.9765
20
-193.106
11
95.8336
21
-193.106
0
LINE
8
BLACK
6
CONTINUOUS
10
96.405
20
-193.106
11
96.405
21
-191.106
0
LINE
8
BLACK
6
CONTINUOUS
10
96.405
20
-191.106
11
96.2146
21
-191.392
0
LINE
8
BLACK
6
CONTINUOUS
10
96.2146
20
-191.392
11
96.0241
21
-191.583
0
LINE
8
BLACK
6
CONTINUOUS
10
96.0241
20
-191.583
11
95.8336
21
-191.678
0
LINE
8
BLACK
6
CONTINUOUS
10
98.6908
20
-191.106
11
98.3098
21
-191.106
0
LINE
8
BLACK
6
CONTINUOUS
10
98.3098
20
-191.106
11
98.1193
21
-191.202
0
LINE
8
BLACK
6
CONTINUOUS
10
98.1193
20
-191.202
11
98.0241
21
-191.297
0
LINE
8
BLACK
6
CONTINUOUS
10
98.0241
20
-191.297
11
97.8336
21
-191.583
0
LINE
8
BLACK
6
CONTINUOUS
10
97.8336
20
-191.583
11
97.7384
21
-191.963
0
LINE
8
BLACK
6
CONTINUOUS
10
97.7384
20
-191.963
11
97.7384
21
-192.725
0
LINE
8
BLACK
6
CONTINUOUS
10
97.7384
20
-192.725
11
97.8336
21
-192.916
0
LINE
8
BLACK
6
CONTINUOUS
10
97.8336
20
-192.916
11
97.9288
21
-193.011
0
LINE
8
BLACK
6
CONTINUOUS
10
97.9288
20
-193.011
11
98.1193
21
-193.106
0
LINE
8
BLACK
6
CONTINUOUS
10
98.1193
20
-193.106
11
98.5003
21
-193.106
0
LINE
8
BLACK
6
CONTINUOUS
10
98.5003
20
-193.106
11
98.6908
21
-193.011
0
LINE
8
BLACK
6
CONTINUOUS
10
98.6908
20
-193.011
11
98.786
21
-192.916
0
LINE
8
BLACK
6
CONTINUOUS
10
98.786
20
-192.916
11
98.8812
21
-192.725
0
LINE
8
BLACK
6
CONTINUOUS
10
98.8812
20
-192.725
11
98.8812
21
-192.249
0
LINE
8
BLACK
6
CONTINUOUS
10
98.8812
20
-192.249
11
98.786
21
-192.059
0
LINE
8
BLACK
6
CONTINUOUS
10
98.786
20
-192.059
11
98.6908
21
-191.963
0
LINE
8
BLACK
6
CONTINUOUS
10
98.6908
20
-191.963
11
98.5003
21
-191.868
0
LINE
8
BLACK
6
CONTINUOUS
10
98.5003
20
-191.868
11
98.1193
21
-191.868
0
LINE
8
BLACK
6
CONTINUOUS
10
98.1193
20
-191.868
11
97.9288
21
-191.963
0
LINE
8
BLACK
6
CONTINUOUS
10
97.9288
20
-191.963
11
97.8336
21
-192.059
0
LINE
8
BLACK
6
CONTINUOUS
10
97.8336
20
-192.059
11
97.7384
21
-192.249
0
LINE
8
BLACK
6
CONTINUOUS
10
100.024
20
-191.963
11
99.8336
21
-191.868
0
LINE
8
BLACK
6
CONTINUOUS
10
99.8336
20
-191.868
11
99.7384
21
-191.773
0
LINE
8
BLACK
6
CONTINUOUS
10
99.7384
20
-191.773
11
99.6431
21
-191.583
0
LINE
8
BLACK
6
CONTINUOUS
10
99.6431
20
-191.583
11
99.6431
21
-191.487
0
LINE
8
BLACK
6
CONTINUOUS
10
99.6431
20
-191.487
11
99.7384
21
-191.297
0
LINE
8
BLACK
6
CONTINUOUS
10
99.7384
20
-191.297
11
99.8336
21
-191.202
0
LINE
8
BLACK
6
CONTINUOUS
10
99.8336
20
-191.202
11
100.024
21
-191.106
0
LINE
8
BLACK
6
CONTINUOUS
10
100.024
20
-191.106
11
100.405
21
-191.106
0
LINE
8
BLACK
6
CONTINUOUS
10
100.405
20
-191.106
11
100.596
21
-191.202
0
LINE
8
BLACK
6
CONTINUOUS
10
100.596
20
-191.202
11
100.691
21
-191.297
0
LINE
8
BLACK
6
CONTINUOUS
10
100.691
20
-191.297
11
100.786
21
-191.487
0
LINE
8
BLACK
6
CONTINUOUS
10
100.786
20
-191.487
11
100.786
21
-191.583
0
LINE
8
BLACK
6
CONTINUOUS
10
100.786
20
-191.583
11
100.691
21
-191.773
0
LINE
8
BLACK
6
CONTINUOUS
10
100.691
20
-191.773
11
100.596
21
-191.868
0
LINE
8
BLACK
6
CONTINUOUS
10
100.596
20
-191.868
11
100.405
21
-191.963
0
LINE
8
BLACK
6
CONTINUOUS
10
100.405
20
-191.963
11
100.024
21
-191.963
0
LINE
8
BLACK
6
CONTINUOUS
10
100.024
20
-191.963
11
99.8336
21
-192.059
0
LINE
8
BLACK
6
CONTINUOUS
10
99.8336
20
-192.059
11
99.7384
21
-192.154
0
LINE
8
BLACK
6
CONTINUOUS
10
99.7384
20
-192.154
11
99.6431
21
-192.344
0
LINE
8
BLACK
6
CONTINUOUS
10
99.6431
20
-192.344
11
99.6431
21
-192.725
0
LINE
8
BLACK
6
CONTINUOUS
10
99.6431
20
-192.725
11
99.7384
21
-192.916
0
LINE
8
BLACK
6
CONTINUOUS
10
99.7384
20
-192.916
11
99.8336
21
-193.011
0
LINE
8
BLACK
6
CONTINUOUS
10
99.8336
20
-193.011
11
100.024
21
-193.106
0
LINE
8
BLACK
6
CONTINUOUS
10
100.024
20
-193.106
11
100.405
21
-193.106
0
LINE
8
BLACK
6
CONTINUOUS
10
100.405
20
-193.106
11
100.596
21
-193.011
0
LINE
8
BLACK
6
CONTINUOUS
10
100.596
20
-193.011
11
100.691
21
-192.916
0
LINE
8
BLACK
6
CONTINUOUS
10
100.691
20
-192.916
11
100.786
21
-192.725
0
LINE
8
BLACK
6
CONTINUOUS
10
100.786
20
-192.725
11
100.786
21
-192.344
0
LINE
8
BLACK
6
CONTINUOUS
10
100.786
20
-192.344
11
100.691
21
-192.154
0
LINE
8
BLACK
6
CONTINUOUS
10
100.691
20
-192.154
11
100.596
21
-192.059
0
LINE
8
BLACK
6
CONTINUOUS
10
100.596
20
-192.059
11
100.405
21
-191.963
0
LINE
8
BLACK
6
CONTINUOUS
10
103.167
20
-193.106
11
103.167
21
-191.106
0
LINE
8
BLACK
6
CONTINUOUS
10
104.024
20
-193.106
11
104.024
21
-192.059
0
LINE
8
BLACK
6
CONTINUOUS
10
104.024
20
-192.059
11
103.929
21
-191.868
0
LINE
8
BLACK
6
CONTINUOUS
10
103.929
20
-191.868
11
103.738
21
-191.773
0
LINE
8
BLACK
6
CONTINUOUS
10
103.738
20
-191.773
11
103.453
21
-191.773
0
LINE
8
BLACK
6
CONTINUOUS
10
103.453
20
-191.773
11
103.262
21
-191.868
0
LINE
8
BLACK
6
CONTINUOUS
10
103.262
20
-191.868
11
103.167
21
-191.963
0
LINE
8
BLACK
6
CONTINUOUS
10
105.262
20
-193.106
11
105.072
21
-193.011
0
LINE
8
BLACK
6
CONTINUOUS
10
105.072
20
-193.011
11
104.976
21
-192.916
0
LINE
8
BLACK
6
CONTINUOUS
10
104.976
20
-192.916
11
104.881
21
-192.725
0
LINE
8
BLACK
6
CONTINUOUS
10
104.881
20
-192.725
11
104.881
21
-192.154
0
LINE
8
BLACK
6
CONTINUOUS
10
104.881
20
-192.154
11
104.976
21
-191.963
0
LINE
8
BLACK
6
CONTINUOUS
10
104.976
20
-191.963
11
105.072
21
-191.868
0
LINE
8
BLACK
6
CONTINUOUS
10
105.072
20
-191.868
11
105.262
21
-191.773
0
LINE
8
BLACK
6
CONTINUOUS
10
105.262
20
-191.773
11
105.548
21
-191.773
0
LINE
8
BLACK
6
CONTINUOUS
10
105.548
20
-191.773
11
105.738
21
-191.868
0
LINE
8
BLACK
6
CONTINUOUS
10
105.738
20
-191.868
11
105.834
21
-191.963
0
LINE
8
BLACK
6
CONTINUOUS
10
105.834
20
-191.963
11
105.929
21
-192.154
0
LINE
8
BLACK
6
CONTINUOUS
10
105.929
20
-192.154
11
105.929
21
-192.725
0
LINE
8
BLACK
6
CONTINUOUS
10
105.929
20
-192.725
11
105.834
21
-192.916
0
LINE
8
BLACK
6
CONTINUOUS
10
105.834
20
-192.916
11
105.738
21
-193.011
0
LINE
8
BLACK
6
CONTINUOUS
10
105.738
20
-193.011
11
105.548
21
-193.106
0
LINE
8
BLACK
6
CONTINUOUS
10
105.548
20
-193.106
11
105.262
21
-193.106
0
LINE
8
BLACK
6
CONTINUOUS
10
107.072
20
-193.106
11
106.881
21
-193.011
0
LINE
8
BLACK
6
CONTINUOUS
10
106.881
20
-193.011
11
106.786
21
-192.821
0
LINE
8
BLACK
6
CONTINUOUS
10
106.786
20
-192.821
11
106.786
21
-191.106
0
LINE
8
BLACK
6
CONTINUOUS
10
108.596
20
-193.011
11
108.405
21
-193.106
0
LINE
8
BLACK
6
CONTINUOUS
10
108.405
20
-193.106
11
108.024
21
-193.106
0
LINE
8
BLACK
6
CONTINUOUS
10
108.024
20
-193.106
11
107.834
21
-193.011
0
LINE
8
BLACK
6
CONTINUOUS
10
107.834
20
-193.011
11
107.738
21
-192.821
0
LINE
8
BLACK
6
CONTINUOUS
10
107.738
20
-192.821
11
107.738
21
-192.059
0
LINE
8
BLACK
6
CONTINUOUS
10
107.738
20
-192.059
11
107.834
21
-191.868
0
LINE
8
BLACK
6
CONTINUOUS
10
107.834
20
-191.868
11
108.024
21
-191.773
0
LINE
8
BLACK
6
CONTINUOUS
10
108.024
20
-191.773
11
108.405
21
-191.773
0
LINE
8
BLACK
6
CONTINUOUS
10
108.405
20
-191.773
11
108.596
21
-191.868
0
LINE
8
BLACK
6
CONTINUOUS
10
108.596
20
-191.868
11
108.691
21
-192.059
0
LINE
8
BLACK
6
CONTINUOUS
10
108.691
20
-192.059
11
108.691
21
-192.249
0
LINE
8
BLACK
6
CONTINUOUS
10
108.691
20
-192.249
11
107.738
21
-192.44
0
LINE
8
BLACK
6
CONTINUOUS
10
109.453
20
-193.011
11
109.643
21
-193.106
0
LINE
8
BLACK
6
CONTINUOUS
10
109.643
20
-193.106
11
110.024
21
-193.106
0
LINE
8
BLACK
6
CONTINUOUS
10
110.024
20
-193.106
11
110.215
21
-193.011
0
LINE
8
BLACK
6
CONTINUOUS
10
110.215
20
-193.011
11
110.31
21
-192.821
0
LINE
8
BLACK
6
CONTINUOUS
10
110.31
20
-192.821
11
110.31
21
-192.725
0
LINE
8
BLACK
6
CONTINUOUS
10
110.31
20
-192.725
11
110.215
21
-192.535
0
LINE
8
BLACK
6
CONTINUOUS
10
110.215
20
-192.535
11
110.024
21
-192.44
0
LINE
8
BLACK
6
CONTINUOUS
10
110.024
20
-192.44
11
109.738
21
-192.44
0
LINE
8
BLACK
6
CONTINUOUS
10
109.738
20
-192.44
11
109.548
21
-192.344
0
LINE
8
BLACK
6
CONTINUOUS
10
109.548
20
-192.344
11
109.453
21
-192.154
0
LINE
8
BLACK
6
CONTINUOUS
10
109.453
20
-192.154
11
109.453
21
-192.059
0
LINE
8
BLACK
6
CONTINUOUS
10
109.453
20
-192.059
11
109.548
21
-191.868
0
LINE
8
BLACK
6
CONTINUOUS
10
109.548
20
-191.868
11
109.738
21
-191.773
0
LINE
8
BLACK
6
CONTINUOUS
10
109.738
20
-191.773
11
110.024
21
-191.773
0
LINE
8
BLACK
6
CONTINUOUS
10
110.024
20
-191.773
11
110.215
21
-191.868
0
LINE
8
BLACK
6
CONTINUOUS
10
110.976
20
-193.868
11
111.072
21
-193.773
0
LINE
8
BLACK
6
CONTINUOUS
10
111.072
20
-193.773
11
111.262
21
-193.487
0
LINE
8
BLACK
6
CONTINUOUS
10
111.262
20
-193.487
11
111.357
21
-193.297
0
LINE
8
BLACK
6
CONTINUOUS
10
111.357
20
-193.297
11
111.453
21
-193.011
0
LINE
8
BLACK
6
CONTINUOUS
10
111.453
20
-193.011
11
111.548
21
-192.535
0
LINE
8
BLACK
6
CONTINUOUS
10
111.548
20
-192.535
11
111.548
21
-192.154
0
LINE
8
BLACK
6
CONTINUOUS
10
111.548
20
-192.154
11
111.453
21
-191.678
0
LINE
8
BLACK
6
CONTINUOUS
10
111.453
20
-191.678
11
111.357
21
-191.392
0
LINE
8
BLACK
6
CONTINUOUS
10
111.357
20
-191.392
11
111.262
21
-191.202
0
LINE
8
BLACK
6
CONTINUOUS
10
111.262
20
-191.202
11
111.072
21
-190.916
0
LINE
8
BLACK
6
CONTINUOUS
10
111.072
20
-190.916
11
110.976
21
-190.821
0
LINE
8
BLACK
6
CONTINUOUS
10
58.5479
20
-195.905
11
59.5479
21
-194.905
0
LINE
8
BLACK
6
CONTINUOUS
10
59.5479
20
-194.905
11
58.5479
21
-193.905
0
LINE
8
BLACK
6
CONTINUOUS
10
58.5479
20
-193.905
11
57.5479
21
-194.905
0
LINE
8
BLACK
6
CONTINUOUS
10
57.5479
20
-194.905
11
58.5479
21
-195.905
0
LINE
8
BLACK
6
CONTINUOUS
10
61.8336
20
-193.83
11
63.0717
21
-193.83
0
LINE
8
BLACK
6
CONTINUOUS
10
63.0717
20
-193.83
11
62.405
21
-194.592
0
LINE
8
BLACK
6
CONTINUOUS
10
62.405
20
-194.592
11
62.6908
21
-194.592
0
LINE
8
BLACK
6
CONTINUOUS
10
62.6908
20
-194.592
11
62.8812
21
-194.687
0
LINE
8
BLACK
6
CONTINUOUS
10
62.8812
20
-194.687
11
62.9765
21
-194.783
0
LINE
8
BLACK
6
CONTINUOUS
10
62.9765
20
-194.783
11
63.0717
21
-194.973
0
LINE
8
BLACK
6
CONTINUOUS
10
63.0717
20
-194.973
11
63.0717
21
-195.449
0
LINE
8
BLACK
6
CONTINUOUS
10
63.0717
20
-195.449
11
62.9765
21
-195.64
0
LINE
8
BLACK
6
CONTINUOUS
10
62.9765
20
-195.64
11
62.8812
21
-195.735
0
LINE
8
BLACK
6
CONTINUOUS
10
62.8812
20
-195.735
11
62.6908
21
-195.83
0
LINE
8
BLACK
6
CONTINUOUS
10
62.6908
20
-195.83
11
62.1193
21
-195.83
0
LINE
8
BLACK
6
CONTINUOUS
10
62.1193
20
-195.83
11
61.9288
21
-195.735
0
LINE
8
BLACK
6
CONTINUOUS
10
61.9288
20
-195.735
11
61.8336
21
-195.64
0
LINE
8
BLACK
6
CONTINUOUS
10
63.9288
20
-195.64
11
64.0241
21
-195.735
0
LINE
8
BLACK
6
CONTINUOUS
10
64.0241
20
-195.735
11
63.9288
21
-195.83
0
LINE
8
BLACK
6
CONTINUOUS
10
63.9288
20
-195.83
11
63.8336
21
-195.735
0
LINE
8
BLACK
6
CONTINUOUS
10
63.8336
20
-195.735
11
63.9288
21
-195.64
0
LINE
8
BLACK
6
CONTINUOUS
10
63.9288
20
-195.64
11
63.9288
21
-195.83
0
LINE
8
BLACK
6
CONTINUOUS
10
65.2622
20
-193.83
11
65.4527
21
-193.83
0
LINE
8
BLACK
6
CONTINUOUS
10
65.4527
20
-193.83
11
65.6431
21
-193.926
0
LINE
8
BLACK
6
CONTINUOUS
10
65.6431
20
-193.926
11
65.7384
21
-194.021
0
LINE
8
BLACK
6
CONTINUOUS
10
65.7384
20
-194.021
11
65.8336
21
-194.211
0
LINE
8
BLACK
6
CONTINUOUS
10
65.8336
20
-194.211
11
65.9288
21
-194.592
0
LINE
8
BLACK
6
CONTINUOUS
10
65.9288
20
-194.592
11
65.9288
21
-195.068
0
LINE
8
BLACK
6
CONTINUOUS
10
65.9288
20
-195.068
11
65.8336
21
-195.449
0
LINE
8
BLACK
6
CONTINUOUS
10
65.8336
20
-195.449
11
65.7384
21
-195.64
0
LINE
8
BLACK
6
CONTINUOUS
10
65.7384
20
-195.64
11
65.6431
21
-195.735
0
LINE
8
BLACK
6
CONTINUOUS
10
65.6431
20
-195.735
11
65.4527
21
-195.83
0
LINE
8
BLACK
6
CONTINUOUS
10
65.4527
20
-195.83
11
65.2622
21
-195.83
0
LINE
8
BLACK
6
CONTINUOUS
10
65.2622
20
-195.83
11
65.0717
21
-195.735
0
LINE
8
BLACK
6
CONTINUOUS
10
65.0717
20
-195.735
11
64.9765
21
-195.64
0
LINE
8
BLACK
6
CONTINUOUS
10
64.9765
20
-195.64
11
64.8812
21
-195.449
0
LINE
8
BLACK
6
CONTINUOUS
10
64.8812
20
-195.449
11
64.786
21
-195.068
0
LINE
8
BLACK
6
CONTINUOUS
10
64.786
20
-195.068
11
64.786
21
-194.592
0
LINE
8
BLACK
6
CONTINUOUS
10
64.786
20
-194.592
11
64.8812
21
-194.211
0
LINE
8
BLACK
6
CONTINUOUS
10
64.8812
20
-194.211
11
64.9765
21
-194.021
0
LINE
8
BLACK
6
CONTINUOUS
10
64.9765
20
-194.021
11
65.0717
21
-193.926
0
LINE
8
BLACK
6
CONTINUOUS
10
65.0717
20
-193.926
11
65.2622
21
-193.83
0
LINE
8
BLACK
6
CONTINUOUS
10
67.6431
20
-194.497
11
67.6431
21
-195.83
0
LINE
8
BLACK
6
CONTINUOUS
10
67.1669
20
-193.735
11
66.6908
21
-195.164
0
LINE
8
BLACK
6
CONTINUOUS
10
66.6908
20
-195.164
11
67.9288
21
-195.164
0
LINE
8
BLACK
6
CONTINUOUS
10
68.9765
20
-194.687
11
68.786
21
-194.592
0
LINE
8
BLACK
6
CONTINUOUS
10
68.786
20
-194.592
11
68.6908
21
-194.497
0
LINE
8
BLACK
6
CONTINUOUS
10
68.6908
20
-194.497
11
68.5955
21
-194.307
0
LINE
8
BLACK
6
CONTINUOUS
10
68.5955
20
-194.307
11
68.5955
21
-194.211
0
LINE
8
BLACK
6
CONTINUOUS
10
68.5955
20
-194.211
11
68.6908
21
-194.021
0
LINE
8
BLACK
6
CONTINUOUS
10
68.6908
20
-194.021
11
68.786
21
-193.926
0
LINE
8
BLACK
6
CONTINUOUS
10
68.786
20
-193.926
11
68.9765
21
-193.83
0
LINE
8
BLACK
6
CONTINUOUS
10
68.9765
20
-193.83
11
69.3574
21
-193.83
0
LINE
8
BLACK
6
CONTINUOUS
10
69.3574
20
-193.83
11
69.5479
21
-193.926
0
LINE
8
BLACK
6
CONTINUOUS
10
69.5479
20
-193.926
11
69.6431
21
-194.021
0
LINE
8
BLACK
6
CONTINUOUS
10
69.6431
20
-194.021
11
69.7384
21
-194.211
0
LINE
8
BLACK
6
CONTINUOUS
10
69.7384
20
-194.211
11
69.7384
21
-194.307
0
LINE
8
BLACK
6
CONTINUOUS
10
69.7384
20
-194.307
11
69.6431
21
-194.497
0
LINE
8
BLACK
6
CONTINUOUS
10
69.6431
20
-194.497
11
69.5479
21
-194.592
0
LINE
8
BLACK
6
CONTINUOUS
10
69.5479
20
-194.592
11
69.3574
21
-194.687
0
LINE
8
BLACK
6
CONTINUOUS
10
69.3574
20
-194.687
11
68.9765
21
-194.687
0
LINE
8
BLACK
6
CONTINUOUS
10
68.9765
20
-194.687
11
68.786
21
-194.783
0
LINE
8
BLACK
6
CONTINUOUS
10
68.786
20
-194.783
11
68.6908
21
-194.878
0
LINE
8
BLACK
6
CONTINUOUS
10
68.6908
20
-194.878
11
68.5955
21
-195.068
0
LINE
8
BLACK
6
CONTINUOUS
10
68.5955
20
-195.068
11
68.5955
21
-195.449
0
LINE
8
BLACK
6
CONTINUOUS
10
68.5955
20
-195.449
11
68.6908
21
-195.64
0
LINE
8
BLACK
6
CONTINUOUS
10
68.6908
20
-195.64
11
68.786
21
-195.735
0
LINE
8
BLACK
6
CONTINUOUS
10
68.786
20
-195.735
11
68.9765
21
-195.83
0
LINE
8
BLACK
6
CONTINUOUS
10
68.9765
20
-195.83
11
69.3574
21
-195.83
0
LINE
8
BLACK
6
CONTINUOUS
10
69.3574
20
-195.83
11
69.5479
21
-195.735
0
LINE
8
BLACK
6
CONTINUOUS
10
69.5479
20
-195.735
11
69.6431
21
-195.64
0
LINE
8
BLACK
6
CONTINUOUS
10
69.6431
20
-195.64
11
69.7384
21
-195.449
0
LINE
8
BLACK
6
CONTINUOUS
10
69.7384
20
-195.449
11
69.7384
21
-195.068
0
LINE
8
BLACK
6
CONTINUOUS
10
69.7384
20
-195.068
11
69.6431
21
-194.878
0
LINE
8
BLACK
6
CONTINUOUS
10
69.6431
20
-194.878
11
69.5479
21
-194.783
0
LINE
8
BLACK
6
CONTINUOUS
10
69.5479
20
-194.783
11
69.3574
21
-194.687
0
LINE
8
BLACK
6
CONTINUOUS
10
70.5955
20
-195.83
11
70.5955
21
-194.497
0
LINE
8
BLACK
6
CONTINUOUS
10
70.5955
20
-194.687
11
70.6908
21
-194.592
0
LINE
8
BLACK
6
CONTINUOUS
10
70.6908
20
-194.592
11
70.8812
21
-194.497
0
LINE
8
BLACK
6
CONTINUOUS
10
70.8812
20
-194.497
11
71.1669
21
-194.497
0
LINE
8
BLACK
6
CONTINUOUS
10
71.1669
20
-194.497
11
71.3574
21
-194.592
0
LINE
8
BLACK
6
CONTINUOUS
10
71.3574
20
-194.592
11
71.4527
21
-194.783
0
LINE
8
BLACK
6
CONTINUOUS
10
71.4527
20
-194.783
11
71.4527
21
-195.83
0
LINE
8
BLACK
6
CONTINUOUS
10
71.4527
20
-194.783
11
71.5479
21
-194.592
0
LINE
8
BLACK
6
CONTINUOUS
10
71.5479
20
-194.592
11
71.7384
21
-194.497
0
LINE
8
BLACK
6
CONTINUOUS
10
71.7384
20
-194.497
11
72.0241
21
-194.497
0
LINE
8
BLACK
6
CONTINUOUS
10
72.0241
20
-194.497
11
72.2146
21
-194.592
0
LINE
8
BLACK
6
CONTINUOUS
10
72.2146
20
-194.592
11
72.3098
21
-194.783
0
LINE
8
BLACK
6
CONTINUOUS
10
72.3098
20
-194.783
11
72.3098
21
-195.83
0
LINE
8
BLACK
6
CONTINUOUS
10
73.2622
20
-195.83
11
73.2622
21
-194.497
0
LINE
8
BLACK
6
CONTINUOUS
10
73.2622
20
-194.687
11
73.3574
21
-194.592
0
LINE
8
BLACK
6
CONTINUOUS
10
73.3574
20
-194.592
11
73.5479
21
-194.497
0
LINE
8
BLACK
6
CONTINUOUS
10
73.5479
20
-194.497
11
73.8336
21
-194.497
0
LINE
8
BLACK
6
CONTINUOUS
10
73.8336
20
-194.497
11
74.0241
21
-194.592
0
LINE
8
BLACK
6
CONTINUOUS
10
74.0241
20
-194.592
11
74.1193
21
-194.783
0
LINE
8
BLACK
6
CONTINUOUS
10
74.1193
20
-194.783
11
74.1193
21
-195.83
0
LINE
8
BLACK
6
CONTINUOUS
10
74.1193
20
-194.783
11
74.2146
21
-194.592
0
LINE
8
BLACK
6
CONTINUOUS
10
74.2146
20
-194.592
11
74.405
21
-194.497
0
LINE
8
BLACK
6
CONTINUOUS
10
74.405
20
-194.497
11
74.6908
21
-194.497
0
LINE
8
BLACK
6
CONTINUOUS
10
74.6908
20
-194.497
11
74.8812
21
-194.592
0
LINE
8
BLACK
6
CONTINUOUS
10
74.8812
20
-194.592
11
74.9765
21
-194.783
0
LINE
8
BLACK
6
CONTINUOUS
10
74.9765
20
-194.783
11
74.9765
21
-195.83
0
LINE
8
BLACK
6
CONTINUOUS
10
78.8812
20
-193.735
11
77.1669
21
-196.307
0
LINE
8
BLACK
6
CONTINUOUS
10
81.4527
20
-193.83
11
81.6431
21
-193.83
0
LINE
8
BLACK
6
CONTINUOUS
10
81.6431
20
-193.83
11
81.8336
21
-193.926
0
LINE
8
BLACK
6
CONTINUOUS
10
81.8336
20
-193.926
11
81.9288
21
-194.021
0
LINE
8
BLACK
6
CONTINUOUS
10
81.9288
20
-194.021
11
82.0241
21
-194.211
0
LINE
8
BLACK
6
CONTINUOUS
10
82.0241
20
-194.211
11
82.1193
21
-194.592
0
LINE
8
BLACK
6
CONTINUOUS
10
82.1193
20
-194.592
11
82.1193
21
-195.068
0
LINE
8
BLACK
6
CONTINUOUS
10
82.1193
20
-195.068
11
82.0241
21
-195.449
0
LINE
8
BLACK
6
CONTINUOUS
10
82.0241
20
-195.449
11
81.9288
21
-195.64
0
LINE
8
BLACK
6
CONTINUOUS
10
81.9288
20
-195.64
11
81.8336
21
-195.735
0
LINE
8
BLACK
6
CONTINUOUS
10
81.8336
20
-195.735
11
81.6431
21
-195.83
0
LINE
8
BLACK
6
CONTINUOUS
10
81.6431
20
-195.83
11
81.4527
21
-195.83
0
LINE
8
BLACK
6
CONTINUOUS
10
81.4527
20
-195.83
11
81.2622
21
-195.735
0
LINE
8
BLACK
6
CONTINUOUS
10
81.2622
20
-195.735
11
81.1669
21
-195.64
0
LINE
8
BLACK
6
CONTINUOUS
10
81.1669
20
-195.64
11
81.0717
21
-195.449
0
LINE
8
BLACK
6
CONTINUOUS
10
81.0717
20
-195.449
11
80.9765
21
-195.068
0
LINE
8
BLACK
6
CONTINUOUS
10
80.9765
20
-195.068
11
80.9765
21
-194.592
0
LINE
8
BLACK
6
CONTINUOUS
10
80.9765
20
-194.592
11
81.0717
21
-194.211
0
LINE
8
BLACK
6
CONTINUOUS
10
81.0717
20
-194.211
11
81.1669
21
-194.021
0
LINE
8
BLACK
6
CONTINUOUS
10
81.1669
20
-194.021
11
81.2622
21
-193.926
0
LINE
8
BLACK
6
CONTINUOUS
10
81.2622
20
-193.926
11
81.4527
21
-193.83
0
LINE
8
BLACK
6
CONTINUOUS
10
82.9765
20
-195.64
11
83.0717
21
-195.735
0
LINE
8
BLACK
6
CONTINUOUS
10
83.0717
20
-195.735
11
82.9765
21
-195.83
0
LINE
8
BLACK
6
CONTINUOUS
10
82.9765
20
-195.83
11
82.8812
21
-195.735
0
LINE
8
BLACK
6
CONTINUOUS
10
82.8812
20
-195.735
11
82.9765
21
-195.64
0
LINE
8
BLACK
6
CONTINUOUS
10
82.9765
20
-195.64
11
82.9765
21
-195.83
0
LINE
8
BLACK
6
CONTINUOUS
10
84.9765
20
-195.83
11
83.8336
21
-195.83
0
LINE
8
BLACK
6
CONTINUOUS
10
84.405
20
-195.83
11
84.405
21
-193.83
0
LINE
8
BLACK
6
CONTINUOUS
10
84.405
20
-193.83
11
84.2146
21
-194.116
0
LINE
8
BLACK
6
CONTINUOUS
10
84.2146
20
-194.116
11
84.0241
21
-194.307
0
LINE
8
BLACK
6
CONTINUOUS
10
84.0241
20
-194.307
11
83.8336
21
-194.402
0
LINE
8
BLACK
6
CONTINUOUS
10
85.7384
20
-194.021
11
85.8336
21
-193.926
0
LINE
8
BLACK
6
CONTINUOUS
10
85.8336
20
-193.926
11
86.0241
21
-193.83
0
LINE
8
BLACK
6
CONTINUOUS
10
86.0241
20
-193.83
11
86.5003
21
-193.83
0
LINE
8
BLACK
6
CONTINUOUS
10
86.5003
20
-193.83
11
86.6908
21
-193.926
0
LINE
8
BLACK
6
CONTINUOUS
10
86.6908
20
-193.926
11
86.786
21
-194.021
0
LINE
8
BLACK
6
CONTINUOUS
10
86.786
20
-194.021
11
86.8812
21
-194.211
0
LINE
8
BLACK
6
CONTINUOUS
10
86.8812
20
-194.211
11
86.8812
21
-194.402
0
LINE
8
BLACK
6
CONTINUOUS
10
86.8812
20
-194.402
11
86.786
21
-194.687
0
LINE
8
BLACK
6
CONTINUOUS
10
86.786
20
-194.687
11
85.6431
21
-195.83
0
LINE
8
BLACK
6
CONTINUOUS
10
85.6431
20
-195.83
11
86.8812
21
-195.83
0
LINE
8
BLACK
6
CONTINUOUS
10
88.1193
20
-193.83
11
88.3098
21
-193.83
0
LINE
8
BLACK
6
CONTINUOUS
10
88.3098
20
-193.83
11
88.5003
21
-193.926
0
LINE
8
BLACK
6
CONTINUOUS
10
88.5003
20
-193.926
11
88.5955
21
-194.021
0
LINE
8
BLACK
6
CONTINUOUS
10
88.5955
20
-194.021
11
88.6908
21
-194.211
0
LINE
8
BLACK
6
CONTINUOUS
10
88.6908
20
-194.211
11
88.786
21
-194.592
0
LINE
8
BLACK
6
CONTINUOUS
10
88.786
20
-194.592
11
88.786
21
-195.068
0
LINE
8
BLACK
6
CONTINUOUS
10
88.786
20
-195.068
11
88.6908
21
-195.449
0
LINE
8
BLACK
6
CONTINUOUS
10
88.6908
20
-195.449
11
88.5955
21
-195.64
0
LINE
8
BLACK
6
CONTINUOUS
10
88.5955
20
-195.64
11
88.5003
21
-195.735
0
LINE
8
BLACK
6
CONTINUOUS
10
88.5003
20
-195.735
11
88.3098
21
-195.83
0
LINE
8
BLACK
6
CONTINUOUS
10
88.3098
20
-195.83
11
88.1193
21
-195.83
0
LINE
8
BLACK
6
CONTINUOUS
10
88.1193
20
-195.83
11
87.9288
21
-195.735
0
LINE
8
BLACK
6
CONTINUOUS
10
87.9288
20
-195.735
11
87.8336
21
-195.64
0
LINE
8
BLACK
6
CONTINUOUS
10
87.8336
20
-195.64
11
87.7384
21
-195.449
0
LINE
8
BLACK
6
CONTINUOUS
10
87.7384
20
-195.449
11
87.6431
21
-195.068
0
LINE
8
BLACK
6
CONTINUOUS
10
87.6431
20
-195.068
11
87.6431
21
-194.592
0
LINE
8
BLACK
6
CONTINUOUS
10
87.6431
20
-194.592
11
87.7384
21
-194.211
0
LINE
8
BLACK
6
CONTINUOUS
10
87.7384
20
-194.211
11
87.8336
21
-194.021
0
LINE
8
BLACK
6
CONTINUOUS
10
87.8336
20
-194.021
11
87.9288
21
-193.926
0
LINE
8
BLACK
6
CONTINUOUS
10
87.9288
20
-193.926
11
88.1193
21
-193.83
0
LINE
8
BLACK
6
CONTINUOUS
10
90.0241
20
-193.83
11
90.2146
21
-193.83
0
LINE
8
BLACK
6
CONTINUOUS
10
90.2146
20
-193.83
11
90.405
21
-193.926
0
LINE
8
BLACK
6
CONTINUOUS
10
90.405
20
-193.926
11
90.5003
21
-194.021
0
LINE
8
BLACK
6
CONTINUOUS
10
90.5003
20
-194.021
11
90.5955
21
-194.211
0
LINE
8
BLACK
6
CONTINUOUS
10
90.5955
20
-194.211
11
90.6908
21
-194.592
0
LINE
8
BLACK
6
CONTINUOUS
10
90.6908
20
-194.592
11
90.6908
21
-195.068
0
LINE
8
BLACK
6
CONTINUOUS
10
90.6908
20
-195.068
11
90.5955
21
-195.449
0
LINE
8
BLACK
6
CONTINUOUS
10
90.5955
20
-195.449
11
90.5003
21
-195.64
0
LINE
8
BLACK
6
CONTINUOUS
10
90.5003
20
-195.64
11
90.405
21
-195.735
0
LINE
8
BLACK
6
CONTINUOUS
10
90.405
20
-195.735
11
90.2146
21
-195.83
0
LINE
8
BLACK
6
CONTINUOUS
10
90.2146
20
-195.83
11
90.0241
21
-195.83
0
LINE
8
BLACK
6
CONTINUOUS
10
90.0241
20
-195.83
11
89.8336
21
-195.735
0
LINE
8
BLACK
6
CONTINUOUS
10
89.8336
20
-195.735
11
89.7384
21
-195.64
0
LINE
8
BLACK
6
CONTINUOUS
10
89.7384
20
-195.64
11
89.6431
21
-195.449
0
LINE
8
BLACK
6
CONTINUOUS
10
89.6431
20
-195.449
11
89.5479
21
-195.068
0
LINE
8
BLACK
6
CONTINUOUS
10
89.5479
20
-195.068
11
89.5479
21
-194.592
0
LINE
8
BLACK
6
CONTINUOUS
10
89.5479
20
-194.592
11
89.6431
21
-194.211
0
LINE
8
BLACK
6
CONTINUOUS
10
89.6431
20
-194.211
11
89.7384
21
-194.021
0
LINE
8
BLACK
6
CONTINUOUS
10
89.7384
20
-194.021
11
89.8336
21
-193.926
0
LINE
8
BLACK
6
CONTINUOUS
10
89.8336
20
-193.926
11
90.0241
21
-193.83
0
LINE
8
BLACK
6
CONTINUOUS
10
91.4527
20
-193.83
11
91.4527
21
-194.211
0
LINE
8
BLACK
6
CONTINUOUS
10
92.2146
20
-193.83
11
92.2146
21
-194.211
0
LINE
8
BLACK
6
CONTINUOUS
10
95.1669
20
-196.592
11
95.0717
21
-196.497
0
LINE
8
BLACK
6
CONTINUOUS
10
95.0717
20
-196.497
11
94.8812
21
-196.211
0
LINE
8
BLACK
6
CONTINUOUS
10
94.8812
20
-196.211
11
94.786
21
-196.021
0
LINE
8
BLACK
6
CONTINUOUS
10
94.786
20
-196.021
11
94.6908
21
-195.735
0
LINE
8
BLACK
6
CONTINUOUS
10
94.6908
20
-195.735
11
94.5955
21
-195.259
0
LINE
8
BLACK
6
CONTINUOUS
10
94.5955
20
-195.259
11
94.5955
21
-194.878
0
LINE
8
BLACK
6
CONTINUOUS
10
94.5955
20
-194.878
11
94.6908
21
-194.402
0
LINE
8
BLACK
6
CONTINUOUS
10
94.6908
20
-194.402
11
94.786
21
-194.116
0
LINE
8
BLACK
6
CONTINUOUS
10
94.786
20
-194.116
11
94.8812
21
-193.926
0
LINE
8
BLACK
6
CONTINUOUS
10
94.8812
20
-193.926
11
95.0717
21
-193.64
0
LINE
8
BLACK
6
CONTINUOUS
10
95.0717
20
-193.64
11
95.1669
21
-193.545
0
LINE
8
BLACK
6
CONTINUOUS
10
95.8336
20
-194.021
11
95.9288
21
-193.926
0
LINE
8
BLACK
6
CONTINUOUS
10
95.9288
20
-193.926
11
96.1193
21
-193.83
0
LINE
8
BLACK
6
CONTINUOUS
10
96.1193
20
-193.83
11
96.5955
21
-193.83
0
LINE
8
BLACK
6
CONTINUOUS
10
96.5955
20
-193.83
11
96.786
21
-193.926
0
LINE
8
BLACK
6
CONTINUOUS
10
96.786
20
-193.926
11
96.8812
21
-194.021
0
LINE
8
BLACK
6
CONTINUOUS
10
96.8812
20
-194.021
11
96.9765
21
-194.211
0
LINE
8
BLACK
6
CONTINUOUS
10
96.9765
20
-194.211
11
96.9765
21
-194.402
0
LINE
8
BLACK
6
CONTINUOUS
10
96.9765
20
-194.402
11
96.8812
21
-194.687
0
LINE
8
BLACK
6
CONTINUOUS
10
96.8812
20
-194.687
11
95.7384
21
-195.83
0
LINE
8
BLACK
6
CONTINUOUS
10
95.7384
20
-195.83
11
96.9765
21
-195.83
0
LINE
8
BLACK
6
CONTINUOUS
10
97.7384
20
-194.021
11
97.8336
21
-193.926
0
LINE
8
BLACK
6
CONTINUOUS
10
97.8336
20
-193.926
11
98.0241
21
-193.83
0
LINE
8
BLACK
6
CONTINUOUS
10
98.0241
20
-193.83
11
98.5003
21
-193.83
0
LINE
8
BLACK
6
CONTINUOUS
10
98.5003
20
-193.83
11
98.6908
21
-193.926
0
LINE
8
BLACK
6
CONTINUOUS
10
98.6908
20
-193.926
11
98.786
21
-194.021
0
LINE
8
BLACK
6
CONTINUOUS
10
98.786
20
-194.021
11
98.8812
21
-194.211
0
LINE
8
BLACK
6
CONTINUOUS
10
98.8812
20
-194.211
11
98.8812
21
-194.402
0
LINE
8
BLACK
6
CONTINUOUS
10
98.8812
20
-194.402
11
98.786
21
-194.687
0
LINE
8
BLACK
6
CONTINUOUS
10
98.786
20
-194.687
11
97.6431
21
-195.83
0
LINE
8
BLACK
6
CONTINUOUS
10
97.6431
20
-195.83
11
98.8812
21
-195.83
0
LINE
8
BLACK
6
CONTINUOUS
10
101.262
20
-195.83
11
101.262
21
-193.83
0
LINE
8
BLACK
6
CONTINUOUS
10
102.119
20
-195.83
11
102.119
21
-194.783
0
LINE
8
BLACK
6
CONTINUOUS
10
102.119
20
-194.783
11
102.024
21
-194.592
0
LINE
8
BLACK
6
CONTINUOUS
10
102.024
20
-194.592
11
101.834
21
-194.497
0
LINE
8
BLACK
6
CONTINUOUS
10
101.834
20
-194.497
11
101.548
21
-194.497
0
LINE
8
BLACK
6
CONTINUOUS
10
101.548
20
-194.497
11
101.357
21
-194.592
0
LINE
8
BLACK
6
CONTINUOUS
10
101.357
20
-194.592
11
101.262
21
-194.687
0
LINE
8
BLACK
6
CONTINUOUS
10
103.357
20
-195.83
11
103.167
21
-195.735
0
LINE
8
BLACK
6
CONTINUOUS
10
103.167
20
-195.735
11
103.072
21
-195.64
0
LINE
8
BLACK
6
CONTINUOUS
10
103.072
20
-195.64
11
102.976
21
-195.449
0
LINE
8
BLACK
6
CONTINUOUS
10
102.976
20
-195.449
11
102.976
21
-194.878
0
LINE
8
BLACK
6
CONTINUOUS
10
102.976
20
-194.878
11
103.072
21
-194.687
0
LINE
8
BLACK
6
CONTINUOUS
10
103.072
20
-194.687
11
103.167
21
-194.592
0
LINE
8
BLACK
6
CONTINUOUS
10
103.167
20
-194.592
11
103.357
21
-194.497
0
LINE
8
BLACK
6
CONTINUOUS
10
103.357
20
-194.497
11
103.643
21
-194.497
0
LINE
8
BLACK
6
CONTINUOUS
10
103.643
20
-194.497
11
103.834
21
-194.592
0
LINE
8
BLACK
6
CONTINUOUS
10
103.834
20
-194.592
11
103.929
21
-194.687
0
LINE
8
BLACK
6
CONTINUOUS
10
103.929
20
-194.687
11
104.024
21
-194.878
0
LINE
8
BLACK
6
CONTINUOUS
10
104.024
20
-194.878
11
104.024
21
-195.449
0
LINE
8
BLACK
6
CONTINUOUS
10
104.024
20
-195.449
11
103.929
21
-195.64
0
LINE
8
BLACK
6
CONTINUOUS
10
103.929
20
-195.64
11
103.834
21
-195.735
0
LINE
8
BLACK
6
CONTINUOUS
10
103.834
20
-195.735
11
103.643
21
-195.83
0
LINE
8
BLACK
6
CONTINUOUS
10
103.643
20
-195.83
11
103.357
21
-195.83
0
LINE
8
BLACK
6
CONTINUOUS
10
105.167
20
-195.83
11
104.976
21
-195.735
0
LINE
8
BLACK
6
CONTINUOUS
10
104.976
20
-195.735
11
104.881
21
-195.545
0
LINE
8
BLACK
6
CONTINUOUS
10
104.881
20
-195.545
11
104.881
21
-193.83
0
LINE
8
BLACK
6
CONTINUOUS
10
106.691
20
-195.735
11
106.5
21
-195.83
0
LINE
8
BLACK
6
CONTINUOUS
10
106.5
20
-195.83
11
106.119
21
-195.83
0
LINE
8
BLACK
6
CONTINUOUS
10
106.119
20
-195.83
11
105.929
21
-195.735
0
LINE
8
BLACK
6
CONTINUOUS
10
105.929
20
-195.735
11
105.834
21
-195.545
0
LINE
8
BLACK
6
CONTINUOUS
10
105.834
20
-195.545
11
105.834
21
-194.783
0
LINE
8
BLACK
6
CONTINUOUS
10
105.834
20
-194.783
11
105.929
21
-194.592
0
LINE
8
BLACK
6
CONTINUOUS
10
105.929
20
-194.592
11
106.119
21
-194.497
0
LINE
8
BLACK
6
CONTINUOUS
10
106.119
20
-194.497
11
106.5
21
-194.497
0
LINE
8
BLACK
6
CONTINUOUS
10
106.5
20
-194.497
11
106.691
21
-194.592
0
LINE
8
BLACK
6
CONTINUOUS
10
106.691
20
-194.592
11
106.786
21
-194.783
0
LINE
8
BLACK
6
CONTINUOUS
10
106.786
20
-194.783
11
106.786
21
-194.973
0
LINE
8
BLACK
6
CONTINUOUS
10
106.786
20
-194.973
11
105.834
21
-195.164
0
LINE
8
BLACK
6
CONTINUOUS
10
107.548
20
-195.735
11
107.738
21
-195.83
0
LINE
8
BLACK
6
CONTINUOUS
10
107.738
20
-195.83
11
108.119
21
-195.83
0
LINE
8
BLACK
6
CONTINUOUS
10
108.119
20
-195.83
11
108.31
21
-195.735
0
LINE
8
BLACK
6
CONTINUOUS
10
108.31
20
-195.735
11
108.405
21
-195.545
0
LINE
8
BLACK
6
CONTINUOUS
10
108.405
20
-195.545
11
108.405
21
-195.449
0
LINE
8
BLACK
6
CONTINUOUS
10
108.405
20
-195.449
11
108.31
21
-195.259
0
LINE
8
BLACK
6
CONTINUOUS
10
108.31
20
-195.259
11
108.119
21
-195.164
0
LINE
8
BLACK
6
CONTINUOUS
10
108.119
20
-195.164
11
107.834
21
-195.164
0
LINE
8
BLACK
6
CONTINUOUS
10
107.834
20
-195.164
11
107.643
21
-195.068
0
LINE
8
BLACK
6
CONTINUOUS
10
107.643
20
-195.068
11
107.548
21
-194.878
0
LINE
8
BLACK
6
CONTINUOUS
10
107.548
20
-194.878
11
107.548
21
-194.783
0
LINE
8
BLACK
6
CONTINUOUS
10
107.548
20
-194.783
11
107.643
21
-194.592
0
LINE
8
BLACK
6
CONTINUOUS
10
107.643
20
-194.592
11
107.834
21
-194.497
0
LINE
8
BLACK
6
CONTINUOUS
10
107.834
20
-194.497
11
108.119
21
-194.497
0
LINE
8
BLACK
6
CONTINUOUS
10
108.119
20
-194.497
11
108.31
21
-194.592
0
LINE
8
BLACK
6
CONTINUOUS
10
109.072
20
-196.592
11
109.167
21
-196.497
0
LINE
8
BLACK
6
CONTINUOUS
10
109.167
20
-196.497
11
109.357
21
-196.211
0
LINE
8
BLACK
6
CONTINUOUS
10
109.357
20
-196.211
11
109.453
21
-196.021
0
LINE
8
BLACK
6
CONTINUOUS
10
109.453
20
-196.021
11
109.548
21
-195.735
0
LINE
8
BLACK
6
CONTINUOUS
10
109.548
20
-195.735
11
109.643
21
-195.259
0
LINE
8
BLACK
6
CONTINUOUS
10
109.643
20
-195.259
11
109.643
21
-194.878
0
LINE
8
BLACK
6
CONTINUOUS
10
109.643
20
-194.878
11
109.548
21
-194.402
0
LINE
8
BLACK
6
CONTINUOUS
10
109.548
20
-194.402
11
109.453
21
-194.116
0
LINE
8
BLACK
6
CONTINUOUS
10
109.453
20
-194.116
11
109.357
21
-193.926
0
LINE
8
BLACK
6
CONTINUOUS
10
109.357
20
-193.926
11
109.167
21
-193.64
0
LINE
8
BLACK
6
CONTINUOUS
10
109.167
20
-193.64
11
109.072
21
-193.545
  0
ENDSEC
  0
EOF
