0
SECTION
2
HEADER
9
$INSUNITS
70
4
0
ENDSEC
0
SECTION
2
TABLES
0
TABLE
2
LTYPE
0
LTYPE
72
65
70
64
2
CONTINUOUS
3
______
73
0
40
0
0
ENDTAB
0
TABLE
2
LAYER
0
ENDTAB
0
ENDSEC
0
SECTION
2
ENTITIES
0
ARC
8
0
10
50.65
20
-39.8375
40
0.5
50
180
51
270
0
ARC
8
0
10
63.65
20
-39.8375
40
0.5
50
270
51
0
0
ARC
8
0
10
63.65
20
-26.8375
40
0.5
50
0
51
90
0
ARC
8
0
10
50.65
20
-26.8375
40
0.5
50
90
51
180
0
LINE
8
0
10
50.65
20
-40.3375
11
63.65
21
-40.3375
0
LINE
8
0
10
63.65
20
-26.3375
11
50.65
21
-26.3375
0
LINE
8
0
10
64.15
20
-39.8375
11
64.15
21
-26.8375
0
LINE
8
0
10
50.15
20
-26.8375
11
50.15
21
-39.8375
0
ARC
8
0
10
69.7
20
-39.8375
40
0.5
50
180
51
270
0
ARC
8
0
10
82.7
20
-39.8375
40
0.5
50
270
51
0
0
ARC
8
0
10
82.7
20
-26.8375
40
0.5
50
0
51
90
0
ARC
8
0
10
69.7
20
-26.8375
40
0.5
50
90
51
180
0
LINE
8
0
10
69.7
20
-40.3375
11
82.7
21
-40.3375
0
LINE
8
0
10
82.7
20
-26.3375
11
69.7
21
-26.3375
0
LINE
8
0
10
83.2
20
-39.8375
11
83.2
21
-26.8375
0
LINE
8
0
10
69.2
20
-26.8375
11
69.2
21
-39.8375
0
ARC
8
0
10
88.75
20
-39.8375
40
0.5
50
180
51
270
0
ARC
8
0
10
101.75
20
-39.8375
40
0.5
50
270
51
0
0
ARC
8
0
10
101.75
20
-26.8375
40
0.5
50
0
51
90
0
ARC
8
0
10
88.75
20
-26.8375
40
0.5
50
90
51
180
0
LINE
8
0
10
88.75
20
-40.3375
11
101.75
21
-40.3375
0
LINE
8
0
10
101.75
20
-26.3375
11
88.75
21
-26.3375
0
LINE
8
0
10
102.25
20
-39.8375
11
102.25
21
-26.8375
0
LINE
8
0
10
88.25
20
-26.8375
11
88.25
21
-39.8375
0
ARC
8
0
10
107.8
20
-39.8375
40
0.5
50
180
51
270
0
ARC
8
0
10
120.8
20
-39.8375
40
0.5
50
270
51
0
0
ARC
8
0
10
120.8
20
-26.8375
40
0.5
50
0
51
90
0
ARC
8
0
10
107.8
20
-26.8375
40
0.5
50
90
51
180
0
LINE
8
0
10
107.8
20
-40.3375
11
120.8
21
-40.3375
0
LINE
8
0
10
120.8
20
-26.3375
11
107.8
21
-26.3375
0
LINE
8
0
10
121.3
20
-39.8375
11
121.3
21
-26.8375
0
LINE
8
0
10
107.3
20
-26.8375
11
107.3
21
-39.8375
0
ARC
8
0
10
126.85
20
-39.8375
40
0.5
50
180
51
270
0
ARC
8
0
10
139.85
20
-39.8375
40
0.5
50
270
51
0
0
ARC
8
0
10
139.85
20
-26.8375
40
0.5
50
0
51
90
0
ARC
8
0
10
126.85
20
-26.8375
40
0.5
50
90
51
180
0
LINE
8
0
10
126.85
20
-40.3375
11
139.85
21
-40.3375
0
LINE
8
0
10
139.85
20
-26.3375
11
126.85
21
-26.3375
0
LINE
8
0
10
140.35
20
-39.8375
11
140.35
21
-26.8375
0
LINE
8
0
10
126.35
20
-26.8375
11
126.35
21
-39.8375
0
ARC
8
0
10
145.9
20
-39.8375
40
0.5
50
180
51
270
0
ARC
8
0
10
158.9
20
-39.8375
40
0.5
50
270
51
0
0
ARC
8
0
10
158.9
20
-26.8375
40
0.5
50
0
51
90
0
ARC
8
0
10
145.9
20
-26.8375
40
0.5
50
90
51
180
0
LINE
8
0
10
145.9
20
-40.3375
11
158.9
21
-40.3375
0
LINE
8
0
10
158.9
20
-26.3375
11
145.9
21
-26.3375
0
LINE
8
0
10
159.4
20
-39.8375
11
159.4
21
-26.8375
0
LINE
8
0
10
145.4
20
-26.8375
11
145.4
21
-39.8375
0
ARC
8
0
10
164.95
20
-39.8375
40
0.5
50
180
51
270
0
ARC
8
0
10
177.95
20
-39.8375
40
0.5
50
270
51
0
0
ARC
8
0
10
177.95
20
-26.8375
40
0.5
50
0
51
90
0
ARC
8
0
10
164.95
20
-26.8375
40
0.5
50
90
51
180
0
LINE
8
0
10
164.95
20
-40.3375
11
177.95
21
-40.3375
0
LINE
8
0
10
177.95
20
-26.3375
11
164.95
21
-26.3375
0
LINE
8
0
10
178.45
20
-39.8375
11
178.45
21
-26.8375
0
LINE
8
0
10
164.45
20
-26.8375
11
164.45
21
-39.8375
0
ARC
8
0
10
184
20
-39.8375
40
0.5
50
180
51
270
0
ARC
8
0
10
197
20
-39.8375
40
0.5
50
270
51
0
0
ARC
8
0
10
197
20
-26.8375
40
0.5
50
0
51
90
0
ARC
8
0
10
184
20
-26.8375
40
0.5
50
90
51
180
0
LINE
8
0
10
184
20
-40.3375
11
197
21
-40.3375
0
LINE
8
0
10
197
20
-26.3375
11
184
21
-26.3375
0
LINE
8
0
10
197.5
20
-39.8375
11
197.5
21
-26.8375
0
LINE
8
0
10
183.5
20
-26.8375
11
183.5
21
-39.8375
0
ARC
8
0
10
203.05
20
-39.8375
40
0.5
50
180
51
270
0
ARC
8
0
10
216.05
20
-39.8375
40
0.5
50
270
51
0
0
ARC
8
0
10
216.05
20
-26.8375
40
0.5
50
0
51
90
0
ARC
8
0
10
203.05
20
-26.8375
40
0.5
50
90
51
180
0
LINE
8
0
10
203.05
20
-40.3375
11
216.05
21
-40.3375
0
LINE
8
0
10
216.05
20
-26.3375
11
203.05
21
-26.3375
0
LINE
8
0
10
216.55
20
-39.8375
11
216.55
21
-26.8375
0
LINE
8
0
10
202.55
20
-26.8375
11
202.55
21
-39.8375
0
ARC
8
0
10
222.1
20
-39.8375
40
0.5
50
180
51
270
0
ARC
8
0
10
235.1
20
-39.8375
40
0.5
50
270
51
0
0
ARC
8
0
10
235.1
20
-26.8375
40
0.5
50
0
51
90
0
ARC
8
0
10
222.1
20
-26.8375
40
0.5
50
90
51
180
0
LINE
8
0
10
222.1
20
-40.3375
11
235.1
21
-40.3375
0
LINE
8
0
10
235.1
20
-26.3375
11
222.1
21
-26.3375
0
LINE
8
0
10
235.6
20
-39.8375
11
235.6
21
-26.8375
0
LINE
8
0
10
221.6
20
-26.8375
11
221.6
21
-39.8375
0
ARC
8
0
10
241.15
20
-39.8375
40
0.5
50
180
51
270
0
ARC
8
0
10
254.15
20
-39.8375
40
0.5
50
270
51
0
0
ARC
8
0
10
254.15
20
-26.8375
40
0.5
50
0
51
90
0
ARC
8
0
10
241.15
20
-26.8375
40
0.5
50
90
51
180
0
LINE
8
0
10
241.15
20
-40.3375
11
254.15
21
-40.3375
0
LINE
8
0
10
254.15
20
-26.3375
11
241.15
21
-26.3375
0
LINE
8
0
10
254.65
20
-39.8375
11
254.65
21
-26.8375
0
LINE
8
0
10
240.65
20
-26.8375
11
240.65
21
-39.8375
0
ARC
8
0
10
260.2
20
-39.8375
40
0.5
50
180
51
270
0
ARC
8
0
10
273.2
20
-39.8375
40
0.5
50
270
51
0
0
ARC
8
0
10
273.2
20
-26.8375
40
0.5
50
0
51
90
0
ARC
8
0
10
260.2
20
-26.8375
40
0.5
50
90
51
180
0
LINE
8
0
10
260.2
20
-40.3375
11
273.2
21
-40.3375
0
LINE
8
0
10
273.2
20
-26.3375
11
260.2
21
-26.3375
0
LINE
8
0
10
273.7
20
-39.8375
11
273.7
21
-26.8375
0
LINE
8
0
10
259.7
20
-26.8375
11
259.7
21
-39.8375
0
ARC
8
0
10
279.25
20
-39.8375
40
0.5
50
180
51
270
0
ARC
8
0
10
292.25
20
-39.8375
40
0.5
50
270
51
0
0
ARC
8
0
10
292.25
20
-26.8375
40
0.5
50
0
51
90
0
ARC
8
0
10
279.25
20
-26.8375
40
0.5
50
90
51
180
0
LINE
8
0
10
279.25
20
-40.3375
11
292.25
21
-40.3375
0
LINE
8
0
10
292.25
20
-26.3375
11
279.25
21
-26.3375
0
LINE
8
0
10
292.75
20
-39.8375
11
292.75
21
-26.8375
0
LINE
8
0
10
278.75
20
-26.8375
11
278.75
21
-39.8375
0
ARC
8
0
10
298.3
20
-39.8375
40
0.5
50
180
51
270
0
ARC
8
0
10
298.3
20
-26.8375
40
0.5
50
90
51
180
0
LINE
8
0
10
298.3
20
-40.3375
11
298.887
21
-40.3375
0
LINE
8
0
10
307.825
20
-40.3375
11
311.3
21
-40.3375
0
LINE
8
0
10
305.887
20
-40.3375
11
307.825
21
-40.3375
0
LINE
8
0
10
311.3
20
-26.3375
11
307.825
21
-26.3375
0
LINE
8
0
10
307.825
20
-26.3375
11
305.387
21
-26.3375
0
LINE
8
0
10
305.387
20
-26.3375
11
299.387
21
-26.3375
0
LINE
8
0
10
299.387
20
-26.3375
11
298.3
21
-26.3375
0
LINE
8
0
10
297.8
20
-26.8375
11
297.8
21
-39.8375
0
LINE
8
0
10
311.3
20
-40.3375
11
317.35
21
-40.3375
0
LINE
8
0
10
317.35
20
-40.3375
11
320.825
21
-40.3375
0
LINE
8
0
10
320.825
20
-26.3375
11
317.35
21
-26.3375
0
LINE
8
0
10
317.35
20
-26.3375
11
311.3
21
-26.3375
0
ARC
8
0
10
299.387
20
-40.8375
40
0.5
50
180
51
270
0
ARC
8
0
10
305.387
20
-40.8375
40
0.5
50
270
51
0
0
LINE
8
0
10
299.387
20
-41.3375
11
305.387
21
-41.3375
0
LINE
8
0
10
305.887
20
-40.8375
11
305.887
21
-40.3375
0
LINE
8
0
10
298.887
20
-40.3375
11
298.887
21
-40.8375
0
ARC
8
0
10
323.263
20
-40.8375
40
0.5
50
180
51
270
0
ARC
8
0
10
329.263
20
-40.8375
40
0.5
50
270
51
0
0
LINE
8
0
10
323.263
20
-41.3375
11
329.263
21
-41.3375
0
LINE
8
0
10
329.263
20
-26.3375
11
323.263
21
-26.3375
0
LINE
8
0
10
329.763
20
-40.8375
11
329.763
21
-40.3375
0
LINE
8
0
10
322.763
20
-40.3375
11
322.763
21
-40.8375
0
ARC
8
0
10
330.35
20
-39.8375
40
0.5
50
270
51
0
0
ARC
8
0
10
330.35
20
-26.8375
40
0.5
50
0
51
90
0
LINE
8
0
10
320.825
20
-40.3375
11
322.763
21
-40.3375
0
LINE
8
0
10
329.763
20
-40.3375
11
330.35
21
-40.3375
0
LINE
8
0
10
330.35
20
-26.3375
11
329.263
21
-26.3375
0
LINE
8
0
10
323.263
20
-26.3375
11
320.825
21
-26.3375
0
LINE
8
0
10
330.85
20
-39.8375
11
330.85
21
-26.8375
0
ARC
8
0
10
336.4
20
-39.8375
40
0.5
50
180
51
270
0
ARC
8
0
10
349.4
20
-39.8375
40
0.5
50
270
51
0
0
ARC
8
0
10
349.4
20
-26.8375
40
0.5
50
0
51
90
0
ARC
8
0
10
336.4
20
-26.8375
40
0.5
50
90
51
180
0
LINE
8
0
10
336.4
20
-40.3375
11
349.4
21
-40.3375
0
LINE
8
0
10
349.4
20
-26.3375
11
336.4
21
-26.3375
0
LINE
8
0
10
349.9
20
-39.8375
11
349.9
21
-26.8375
0
LINE
8
0
10
335.9
20
-26.8375
11
335.9
21
-39.8375
0
ARC
8
0
10
55.4125
20
-58.8875
40
0.5
50
180
51
270
0
ARC
8
0
10
68.4125
20
-58.8875
40
0.5
50
270
51
0
0
ARC
8
0
10
68.4125
20
-45.8875
40
0.5
50
0
51
90
0
ARC
8
0
10
55.4125
20
-45.8875
40
0.5
50
90
51
180
0
LINE
8
0
10
55.4125
20
-59.3875
11
68.4125
21
-59.3875
0
LINE
8
0
10
68.4125
20
-45.3875
11
55.4125
21
-45.3875
0
LINE
8
0
10
68.9125
20
-58.8875
11
68.9125
21
-45.8875
0
LINE
8
0
10
54.9125
20
-45.8875
11
54.9125
21
-58.8875
0
ARC
8
0
10
79.225
20
-58.8875
40
0.5
50
180
51
270
0
ARC
8
0
10
92.225
20
-58.8875
40
0.5
50
270
51
0
0
ARC
8
0
10
92.225
20
-45.8875
40
0.5
50
0
51
90
0
ARC
8
0
10
79.225
20
-45.8875
40
0.5
50
90
51
180
0
LINE
8
0
10
79.225
20
-59.3875
11
92.225
21
-59.3875
0
LINE
8
0
10
92.225
20
-45.3875
11
79.225
21
-45.3875
0
LINE
8
0
10
92.725
20
-58.8875
11
92.725
21
-45.8875
0
LINE
8
0
10
78.725
20
-45.8875
11
78.725
21
-58.8875
0
ARC
8
0
10
98.275
20
-58.8875
40
0.5
50
180
51
270
0
ARC
8
0
10
111.275
20
-58.8875
40
0.5
50
270
51
0
0
ARC
8
0
10
111.275
20
-45.8875
40
0.5
50
0
51
90
0
ARC
8
0
10
98.275
20
-45.8875
40
0.5
50
90
51
180
0
LINE
8
0
10
98.275
20
-59.3875
11
111.275
21
-59.3875
0
LINE
8
0
10
111.275
20
-45.3875
11
98.275
21
-45.3875
0
LINE
8
0
10
111.775
20
-58.8875
11
111.775
21
-45.8875
0
LINE
8
0
10
97.775
20
-45.8875
11
97.775
21
-58.8875
0
ARC
8
0
10
117.325
20
-58.8875
40
0.5
50
180
51
270
0
ARC
8
0
10
130.325
20
-58.8875
40
0.5
50
270
51
0
0
ARC
8
0
10
130.325
20
-45.8875
40
0.5
50
0
51
90
0
ARC
8
0
10
117.325
20
-45.8875
40
0.5
50
90
51
180
0
LINE
8
0
10
117.325
20
-59.3875
11
130.325
21
-59.3875
0
LINE
8
0
10
130.325
20
-45.3875
11
117.325
21
-45.3875
0
LINE
8
0
10
130.825
20
-58.8875
11
130.825
21
-45.8875
0
LINE
8
0
10
116.825
20
-45.8875
11
116.825
21
-58.8875
0
ARC
8
0
10
136.375
20
-58.8875
40
0.5
50
180
51
270
0
ARC
8
0
10
149.375
20
-58.8875
40
0.5
50
270
51
0
0
ARC
8
0
10
149.375
20
-45.8875
40
0.5
50
0
51
90
0
ARC
8
0
10
136.375
20
-45.8875
40
0.5
50
90
51
180
0
LINE
8
0
10
136.375
20
-59.3875
11
149.375
21
-59.3875
0
LINE
8
0
10
149.375
20
-45.3875
11
136.375
21
-45.3875
0
LINE
8
0
10
149.875
20
-58.8875
11
149.875
21
-45.8875
0
LINE
8
0
10
135.875
20
-45.8875
11
135.875
21
-58.8875
0
ARC
8
0
10
155.425
20
-58.8875
40
0.5
50
180
51
270
0
ARC
8
0
10
168.425
20
-58.8875
40
0.5
50
270
51
0
0
ARC
8
0
10
168.425
20
-45.8875
40
0.5
50
0
51
90
0
ARC
8
0
10
155.425
20
-45.8875
40
0.5
50
90
51
180
0
LINE
8
0
10
155.425
20
-59.3875
11
168.425
21
-59.3875
0
LINE
8
0
10
168.425
20
-45.3875
11
155.425
21
-45.3875
0
LINE
8
0
10
168.925
20
-58.8875
11
168.925
21
-45.8875
0
LINE
8
0
10
154.925
20
-45.8875
11
154.925
21
-58.8875
0
ARC
8
0
10
174.475
20
-58.8875
40
0.5
50
180
51
270
0
ARC
8
0
10
187.475
20
-58.8875
40
0.5
50
270
51
0
0
ARC
8
0
10
187.475
20
-45.8875
40
0.5
50
0
51
90
0
ARC
8
0
10
174.475
20
-45.8875
40
0.5
50
90
51
180
0
LINE
8
0
10
174.475
20
-59.3875
11
187.475
21
-59.3875
0
LINE
8
0
10
187.475
20
-45.3875
11
174.475
21
-45.3875
0
LINE
8
0
10
187.975
20
-58.8875
11
187.975
21
-45.8875
0
LINE
8
0
10
173.975
20
-45.8875
11
173.975
21
-58.8875
0
ARC
8
0
10
193.525
20
-58.8875
40
0.5
50
180
51
270
0
ARC
8
0
10
206.525
20
-58.8875
40
0.5
50
270
51
0
0
ARC
8
0
10
206.525
20
-45.8875
40
0.5
50
0
51
90
0
ARC
8
0
10
193.525
20
-45.8875
40
0.5
50
90
51
180
0
LINE
8
0
10
193.525
20
-59.3875
11
206.525
21
-59.3875
0
LINE
8
0
10
206.525
20
-45.3875
11
193.525
21
-45.3875
0
LINE
8
0
10
207.025
20
-58.8875
11
207.025
21
-45.8875
0
LINE
8
0
10
193.025
20
-45.8875
11
193.025
21
-58.8875
0
ARC
8
0
10
212.575
20
-58.8875
40
0.5
50
180
51
270
0
ARC
8
0
10
225.575
20
-58.8875
40
0.5
50
270
51
0
0
ARC
8
0
10
225.575
20
-45.8875
40
0.5
50
0
51
90
0
ARC
8
0
10
212.575
20
-45.8875
40
0.5
50
90
51
180
0
LINE
8
0
10
212.575
20
-59.3875
11
225.575
21
-59.3875
0
LINE
8
0
10
225.575
20
-45.3875
11
212.575
21
-45.3875
0
LINE
8
0
10
226.075
20
-58.8875
11
226.075
21
-45.8875
0
LINE
8
0
10
212.075
20
-45.8875
11
212.075
21
-58.8875
0
ARC
8
0
10
231.625
20
-58.8875
40
0.5
50
180
51
270
0
ARC
8
0
10
244.625
20
-58.8875
40
0.5
50
270
51
0
0
ARC
8
0
10
244.625
20
-45.8875
40
0.5
50
0
51
90
0
ARC
8
0
10
231.625
20
-45.8875
40
0.5
50
90
51
180
0
LINE
8
0
10
231.625
20
-59.3875
11
244.625
21
-59.3875
0
LINE
8
0
10
244.625
20
-45.3875
11
231.625
21
-45.3875
0
LINE
8
0
10
245.125
20
-58.8875
11
245.125
21
-45.8875
0
LINE
8
0
10
231.125
20
-45.8875
11
231.125
21
-58.8875
0
ARC
8
0
10
250.675
20
-58.8875
40
0.5
50
180
51
270
0
ARC
8
0
10
263.675
20
-58.8875
40
0.5
50
270
51
0
0
ARC
8
0
10
263.675
20
-45.8875
40
0.5
50
0
51
90
0
ARC
8
0
10
250.675
20
-45.8875
40
0.5
50
90
51
180
0
LINE
8
0
10
250.675
20
-59.3875
11
263.675
21
-59.3875
0
LINE
8
0
10
263.675
20
-45.3875
11
250.675
21
-45.3875
0
LINE
8
0
10
264.175
20
-58.8875
11
264.175
21
-45.8875
0
LINE
8
0
10
250.175
20
-45.8875
11
250.175
21
-58.8875
0
ARC
8
0
10
269.725
20
-58.8875
40
0.5
50
180
51
270
0
ARC
8
0
10
282.725
20
-58.8875
40
0.5
50
270
51
0
0
ARC
8
0
10
282.725
20
-45.8875
40
0.5
50
0
51
90
0
ARC
8
0
10
269.725
20
-45.8875
40
0.5
50
90
51
180
0
LINE
8
0
10
269.725
20
-59.3875
11
282.725
21
-59.3875
0
LINE
8
0
10
282.725
20
-45.3875
11
269.725
21
-45.3875
0
LINE
8
0
10
283.225
20
-58.8875
11
283.225
21
-45.8875
0
LINE
8
0
10
269.225
20
-45.8875
11
269.225
21
-58.8875
0
ARC
8
0
10
288.775
20
-58.8875
40
0.5
50
180
51
270
0
ARC
8
0
10
301.775
20
-58.8875
40
0.5
50
270
51
0
0
ARC
8
0
10
301.775
20
-45.8875
40
0.5
50
0
51
90
0
ARC
8
0
10
288.775
20
-45.8875
40
0.5
50
90
51
180
0
LINE
8
0
10
288.775
20
-59.3875
11
301.775
21
-59.3875
0
LINE
8
0
10
301.775
20
-45.3875
11
288.775
21
-45.3875
0
LINE
8
0
10
302.275
20
-58.8875
11
302.275
21
-45.8875
0
LINE
8
0
10
288.275
20
-45.8875
11
288.275
21
-58.8875
0
ARC
8
0
10
312.5875
20
-58.8875
40
0.5
50
180
51
270
0
ARC
8
0
10
325.5875
20
-45.8875
40
0.5
50
0
51
90
0
ARC
8
0
10
312.5875
20
-45.8875
40
0.5
50
90
51
180
0
LINE
8
0
10
312.5875
20
-59.3875
11
314.46875
21
-59.3875
0
LINE
8
0
10
325.5875
20
-45.3875
11
312.5875
21
-45.3875
0
LINE
8
0
10
326.0875
20
-54.9125
11
326.0875
21
-53.4745
0
LINE
8
0
10
326.0875
20
-46.4745
11
326.0875
21
-45.8875
0
LINE
8
0
10
312.0875
20
-45.8875
11
312.0875
21
-58.8875
0
ARC
8
0
10
327.96875
20
-68.4125
40
0.5
50
270
51
0
0
ARC
8
0
10
327.96875
20
-55.4125
40
0.5
50
0
51
90
0
LINE
8
0
10
318.94375
20
-68.9125
11
320.38175
21
-68.9125
0
LINE
8
0
10
327.38175
20
-68.9125
11
327.96875
21
-68.9125
0
LINE
8
0
10
327.96875
20
-54.9125
11
326.0875
21
-54.9125
0
LINE
8
0
10
328.46875
20
-68.4125
11
328.46875
21
-55.4125
0
LINE
8
0
10
314.46875
20
-59.3875
11
314.46875
21
-64.4375
0
ARC
8
0
10
328.96875
20
-76.8505
40
0.5
50
270
51
0
0
ARC
8
0
10
328.96875
20
-70.8505
40
0.5
50
0
51
90
0
LINE
8
0
10
329.46875
20
-76.8505
11
329.46875
21
-70.8505
0
LINE
8
0
10
328.96875
20
-70.3505
11
327.38175
21
-70.3505
0
LINE
8
0
10
320.38175
20
-70.3505
11
318.94375
21
-70.3505
0
LINE
8
0
10
318.94375
20
-77.3505
11
320.38175
21
-77.3505
0
LINE
8
0
10
327.38175
20
-77.3505
11
328.96875
21
-77.3505
0
ARC
8
0
10
328.96875
20
-52.9745
40
0.5
50
270
51
0
0
ARC
8
0
10
328.96875
20
-46.9745
40
0.5
50
0
51
90
0
LINE
8
0
10
329.46875
20
-52.9745
11
329.46875
21
-46.9745
0
LINE
8
0
10
328.96875
20
-46.4745
11
326.0875
21
-46.4745
0
LINE
8
0
10
326.0875
20
-53.4745
11
328.96875
21
-53.4745
0
ARC
8
0
10
336.4
20
-58.8875
40
0.5
50
180
51
270
0
ARC
8
0
10
349.4
20
-58.8875
40
0.5
50
270
51
0
0
ARC
8
0
10
349.4
20
-45.8875
40
0.5
50
0
51
90
0
ARC
8
0
10
336.4
20
-45.8875
40
0.5
50
90
51
180
0
LINE
8
0
10
336.4
20
-59.3875
11
349.4
21
-59.3875
0
LINE
8
0
10
349.4
20
-45.3875
11
336.4
21
-45.3875
0
LINE
8
0
10
349.9
20
-58.8875
11
349.9
21
-45.8875
0
LINE
8
0
10
335.9
20
-45.8875
11
335.9
21
-58.8875
0
ARC
8
0
10
53.03125
20
-77.9375
40
0.5
50
180
51
270
0
ARC
8
0
10
53.03125
20
-64.9375
40
0.5
50
90
51
180
0
LINE
8
0
10
53.03125
20
-78.4375
11
57.79375
21
-78.4375
0
LINE
8
0
10
57.79375
20
-78.4375
11
66.03125
21
-78.4375
0
LINE
8
0
10
66.03125
20
-64.4375
11
57.79375
21
-64.4375
0
LINE
8
0
10
57.79375
20
-64.4375
11
53.03125
21
-64.4375
0
LINE
8
0
10
52.53125
20
-64.9375
11
52.53125
21
-77.9375
0
ARC
8
0
10
70.79375
20
-77.9375
40
0.5
50
270
51
0
0
ARC
8
0
10
70.79375
20
-64.9375
40
0.5
50
0
51
90
0
LINE
8
0
10
66.03125
20
-78.4375
11
70.79375
21
-78.4375
0
LINE
8
0
10
70.79375
20
-64.4375
11
66.03125
21
-64.4375
0
LINE
8
0
10
71.29375
20
-77.9375
11
71.29375
21
-64.9375
0
ARC
8
0
10
83.9875
20
-77.9375
40
0.5
50
180
51
270
0
ARC
8
0
10
96.9875
20
-77.9375
40
0.5
50
270
51
0
0
ARC
8
0
10
96.9875
20
-64.9375
40
0.5
50
0
51
90
0
ARC
8
0
10
83.9875
20
-64.9375
40
0.5
50
90
51
180
0
LINE
8
0
10
83.9875
20
-78.4375
11
96.9875
21
-78.4375
0
LINE
8
0
10
96.9875
20
-64.4375
11
83.9875
21
-64.4375
0
LINE
8
0
10
97.4875
20
-77.9375
11
97.4875
21
-64.9375
0
LINE
8
0
10
83.4875
20
-64.9375
11
83.4875
21
-77.9375
0
ARC
8
0
10
103.0375
20
-77.9375
40
0.5
50
180
51
270
0
ARC
8
0
10
116.0375
20
-77.9375
40
0.5
50
270
51
0
0
ARC
8
0
10
116.0375
20
-64.9375
40
0.5
50
0
51
90
0
ARC
8
0
10
103.0375
20
-64.9375
40
0.5
50
90
51
180
0
LINE
8
0
10
103.0375
20
-78.4375
11
116.0375
21
-78.4375
0
LINE
8
0
10
116.0375
20
-64.4375
11
103.0375
21
-64.4375
0
LINE
8
0
10
116.5375
20
-77.9375
11
116.5375
21
-64.9375
0
LINE
8
0
10
102.5375
20
-64.9375
11
102.5375
21
-77.9375
0
ARC
8
0
10
122.0875
20
-77.9375
40
0.5
50
180
51
270
0
ARC
8
0
10
135.0875
20
-77.9375
40
0.5
50
270
51
0
0
ARC
8
0
10
135.0875
20
-64.9375
40
0.5
50
0
51
90
0
ARC
8
0
10
122.0875
20
-64.9375
40
0.5
50
90
51
180
0
LINE
8
0
10
122.0875
20
-78.4375
11
135.0875
21
-78.4375
0
LINE
8
0
10
135.0875
20
-64.4375
11
122.0875
21
-64.4375
0
LINE
8
0
10
135.5875
20
-77.9375
11
135.5875
21
-64.9375
0
LINE
8
0
10
121.5875
20
-64.9375
11
121.5875
21
-77.9375
0
ARC
8
0
10
141.1375
20
-77.9375
40
0.5
50
180
51
270
0
ARC
8
0
10
154.1375
20
-77.9375
40
0.5
50
270
51
0
0
ARC
8
0
10
154.1375
20
-64.9375
40
0.5
50
0
51
90
0
ARC
8
0
10
141.1375
20
-64.9375
40
0.5
50
90
51
180
0
LINE
8
0
10
141.1375
20
-78.4375
11
154.1375
21
-78.4375
0
LINE
8
0
10
154.1375
20
-64.4375
11
141.1375
21
-64.4375
0
LINE
8
0
10
154.6375
20
-77.9375
11
154.6375
21
-64.9375
0
LINE
8
0
10
140.6375
20
-64.9375
11
140.6375
21
-77.9375
0
ARC
8
0
10
160.1875
20
-77.9375
40
0.5
50
180
51
270
0
ARC
8
0
10
173.1875
20
-77.9375
40
0.5
50
270
51
0
0
ARC
8
0
10
173.1875
20
-64.9375
40
0.5
50
0
51
90
0
ARC
8
0
10
160.1875
20
-64.9375
40
0.5
50
90
51
180
0
LINE
8
0
10
160.1875
20
-78.4375
11
173.1875
21
-78.4375
0
LINE
8
0
10
173.1875
20
-64.4375
11
160.1875
21
-64.4375
0
LINE
8
0
10
173.6875
20
-77.9375
11
173.6875
21
-64.9375
0
LINE
8
0
10
159.6875
20
-64.9375
11
159.6875
21
-77.9375
0
ARC
8
0
10
179.2375
20
-77.9375
40
0.5
50
180
51
270
0
ARC
8
0
10
192.2375
20
-77.9375
40
0.5
50
270
51
0
0
ARC
8
0
10
192.2375
20
-64.9375
40
0.5
50
0
51
90
0
ARC
8
0
10
179.2375
20
-64.9375
40
0.5
50
90
51
180
0
LINE
8
0
10
179.2375
20
-78.4375
11
192.2375
21
-78.4375
0
LINE
8
0
10
192.2375
20
-64.4375
11
179.2375
21
-64.4375
0
LINE
8
0
10
192.7375
20
-77.9375
11
192.7375
21
-64.9375
0
LINE
8
0
10
178.7375
20
-64.9375
11
178.7375
21
-77.9375
0
ARC
8
0
10
198.2875
20
-77.9375
40
0.5
50
180
51
270
0
ARC
8
0
10
211.2875
20
-77.9375
40
0.5
50
270
51
0
0
ARC
8
0
10
211.2875
20
-64.9375
40
0.5
50
0
51
90
0
ARC
8
0
10
198.2875
20
-64.9375
40
0.5
50
90
51
180
0
LINE
8
0
10
198.2875
20
-78.4375
11
211.2875
21
-78.4375
0
LINE
8
0
10
211.2875
20
-64.4375
11
198.2875
21
-64.4375
0
LINE
8
0
10
211.7875
20
-77.9375
11
211.7875
21
-64.9375
0
LINE
8
0
10
197.7875
20
-64.9375
11
197.7875
21
-77.9375
0
ARC
8
0
10
217.3375
20
-77.9375
40
0.5
50
180
51
270
0
ARC
8
0
10
230.3375
20
-77.9375
40
0.5
50
270
51
0
0
ARC
8
0
10
230.3375
20
-64.9375
40
0.5
50
0
51
90
0
ARC
8
0
10
217.3375
20
-64.9375
40
0.5
50
90
51
180
0
LINE
8
0
10
217.3375
20
-78.4375
11
230.3375
21
-78.4375
0
LINE
8
0
10
230.3375
20
-64.4375
11
217.3375
21
-64.4375
0
LINE
8
0
10
230.8375
20
-77.9375
11
230.8375
21
-64.9375
0
LINE
8
0
10
216.8375
20
-64.9375
11
216.8375
21
-77.9375
0
ARC
8
0
10
236.3875
20
-77.9375
40
0.5
50
180
51
270
0
ARC
8
0
10
249.3875
20
-77.9375
40
0.5
50
270
51
0
0
ARC
8
0
10
249.3875
20
-64.9375
40
0.5
50
0
51
90
0
ARC
8
0
10
236.3875
20
-64.9375
40
0.5
50
90
51
180
0
LINE
8
0
10
236.3875
20
-78.4375
11
249.3875
21
-78.4375
0
LINE
8
0
10
249.3875
20
-64.4375
11
236.3875
21
-64.4375
0
LINE
8
0
10
249.8875
20
-77.9375
11
249.8875
21
-64.9375
0
LINE
8
0
10
235.8875
20
-64.9375
11
235.8875
21
-77.9375
0
ARC
8
0
10
255.4375
20
-77.9375
40
0.5
50
180
51
270
0
ARC
8
0
10
268.4375
20
-77.9375
40
0.5
50
270
51
0
0
ARC
8
0
10
268.4375
20
-64.9375
40
0.5
50
0
51
90
0
ARC
8
0
10
255.4375
20
-64.9375
40
0.5
50
90
51
180
0
LINE
8
0
10
255.4375
20
-78.4375
11
268.4375
21
-78.4375
0
LINE
8
0
10
268.4375
20
-64.4375
11
255.4375
21
-64.4375
0
LINE
8
0
10
268.9375
20
-77.9375
11
268.9375
21
-64.9375
0
LINE
8
0
10
254.9375
20
-64.9375
11
254.9375
21
-77.9375
0
ARC
8
0
10
274.4875
20
-77.9375
40
0.5
50
180
51
270
0
ARC
8
0
10
287.4875
20
-77.9375
40
0.5
50
270
51
0
0
ARC
8
0
10
287.4875
20
-64.9375
40
0.5
50
0
51
90
0
ARC
8
0
10
274.4875
20
-64.9375
40
0.5
50
90
51
180
0
LINE
8
0
10
274.4875
20
-78.4375
11
287.4875
21
-78.4375
0
LINE
8
0
10
287.4875
20
-64.4375
11
274.4875
21
-64.4375
0
LINE
8
0
10
287.9875
20
-77.9375
11
287.9875
21
-64.9375
0
LINE
8
0
10
273.9875
20
-64.9375
11
273.9875
21
-77.9375
0
ARC
8
0
10
318.44375
20
-77.9375
40
0.5
50
270
51
0
0
LINE
8
0
10
305.44375
20
-78.4375
11
306.5375
21
-78.4375
0
LINE
8
0
10
306.5375
20
-78.4375
11
318.44375
21
-78.4375
0
LINE
8
0
10
314.46875
20
-64.4375
11
306.5375
21
-64.4375
0
LINE
8
0
10
306.5375
20
-64.4375
11
305.44375
21
-64.4375
0
LINE
8
0
10
318.94375
20
-77.9375
11
318.94375
21
-77.3505
0
LINE
8
0
10
318.94375
20
-70.3505
11
318.94375
21
-68.9125
0
ARC
8
0
10
297.00575
20
-78.9375
40
0.5
50
180
51
270
0
ARC
8
0
10
303.00575
20
-78.9375
40
0.5
50
270
51
0
0
LINE
8
0
10
297.00575
20
-79.4375
11
303.00575
21
-79.4375
0
LINE
8
0
10
303.00575
20
-64.4375
11
297.00575
21
-64.4375
0
LINE
8
0
10
303.50575
20
-78.9375
11
303.50575
21
-78.4375
0
LINE
8
0
10
296.50575
20
-78.4375
11
296.50575
21
-78.9375
0
ARC
8
0
10
320.88175
20
-78.9375
40
0.5
50
180
51
270
0
ARC
8
0
10
326.88175
20
-78.9375
40
0.5
50
270
51
0
0
LINE
8
0
10
320.88175
20
-79.4375
11
326.88175
21
-79.4375
0
LINE
8
0
10
327.38175
20
-78.9375
11
327.38175
21
-77.3505
0
LINE
8
0
10
327.38175
20
-70.3505
11
327.38175
21
-68.9125
0
LINE
8
0
10
320.38175
20
-68.9125
11
320.38175
21
-70.3505
0
LINE
8
0
10
320.38175
20
-77.3505
11
320.38175
21
-78.9375
0
ARC
8
0
10
293.5375
20
-77.9375
40
0.5
50
180
51
270
0
ARC
8
0
10
293.5375
20
-64.9375
40
0.5
50
90
51
180
0
LINE
8
0
10
293.5375
20
-78.4375
11
296.50575
21
-78.4375
0
LINE
8
0
10
303.50575
20
-78.4375
11
305.44375
21
-78.4375
0
LINE
8
0
10
305.44375
20
-64.4375
11
303.00575
21
-64.4375
0
LINE
8
0
10
297.00575
20
-64.4375
11
293.5375
21
-64.4375
0
LINE
8
0
10
293.0375
20
-64.9375
11
293.0375
21
-77.9375
0
ARC
8
0
10
336.4
20
-77.9375
40
0.5
50
180
51
270
0
ARC
8
0
10
349.4
20
-77.9375
40
0.5
50
270
51
0
0
ARC
8
0
10
349.4
20
-64.9375
40
0.5
50
0
51
90
0
ARC
8
0
10
336.4
20
-64.9375
40
0.5
50
90
51
180
0
LINE
8
0
10
336.4
20
-78.4375
11
349.4
21
-78.4375
0
LINE
8
0
10
349.4
20
-64.4375
11
336.4
21
-64.4375
0
LINE
8
0
10
349.9
20
-77.9375
11
349.9
21
-64.9375
0
LINE
8
0
10
335.9
20
-64.9375
11
335.9
21
-77.9375
0
ARC
8
0
10
53.03125
20
-96.9875
40
0.5
50
180
51
270
0
ARC
8
0
10
53.03125
20
-83.9875
40
0.5
50
90
51
180
0
LINE
8
0
10
53.03125
20
-97.4875
11
53.61825
21
-97.4875
0
LINE
8
0
10
62.55625
20
-97.4875
11
66.03125
21
-97.4875
0
LINE
8
0
10
60.61825
20
-97.4875
11
62.55625
21
-97.4875
0
LINE
8
0
10
66.03125
20
-83.4875
11
62.55625
21
-83.4875
0
LINE
8
0
10
62.55625
20
-83.4875
11
60.11825
21
-83.4875
0
LINE
8
0
10
60.11825
20
-83.4875
11
54.11825
21
-83.4875
0
LINE
8
0
10
54.11825
20
-83.4875
11
53.03125
21
-83.4875
0
LINE
8
0
10
52.53125
20
-83.9875
11
52.53125
21
-96.9875
0
LINE
8
0
10
66.03125
20
-97.4875
11
74.4625
21
-97.4875
0
LINE
8
0
10
74.4625
20
-97.4875
11
75.55625
21
-97.4875
0
LINE
8
0
10
75.55625
20
-83.4875
11
74.4625
21
-83.4875
0
LINE
8
0
10
74.4625
20
-83.4875
11
66.03125
21
-83.4875
0
ARC
8
0
10
54.11825
20
-97.9875
40
0.5
50
180
51
270
0
ARC
8
0
10
60.11825
20
-97.9875
40
0.5
50
270
51
0
0
LINE
8
0
10
54.11825
20
-98.4875
11
60.11825
21
-98.4875
0
LINE
8
0
10
60.61825
20
-97.9875
11
60.61825
21
-97.4875
0
LINE
8
0
10
53.61825
20
-97.4875
11
53.61825
21
-97.9875
0
ARC
8
0
10
77.99425
20
-97.9875
40
0.5
50
180
51
270
0
ARC
8
0
10
83.99425
20
-97.9875
40
0.5
50
270
51
0
0
LINE
8
0
10
77.99425
20
-98.4875
11
83.99425
21
-98.4875
0
LINE
8
0
10
83.99425
20
-83.4875
11
77.99425
21
-83.4875
0
LINE
8
0
10
84.49425
20
-97.9875
11
84.49425
21
-97.4875
0
LINE
8
0
10
77.49425
20
-97.4875
11
77.49425
21
-97.9875
0
ARC
8
0
10
87.4625
20
-96.9875
40
0.5
50
270
51
0
0
ARC
8
0
10
87.4625
20
-83.9875
40
0.5
50
0
51
90
0
LINE
8
0
10
75.55625
20
-97.4875
11
77.49425
21
-97.4875
0
LINE
8
0
10
84.49425
20
-97.4875
11
87.4625
21
-97.4875
0
LINE
8
0
10
87.4625
20
-83.4875
11
83.99425
21
-83.4875
0
LINE
8
0
10
77.99425
20
-83.4875
11
75.55625
21
-83.4875
0
LINE
8
0
10
87.9625
20
-96.9875
11
87.9625
21
-83.9875
0
ARC
8
0
10
93.5125
20
-96.9875
40
0.5
50
180
51
270
0
ARC
8
0
10
106.5125
20
-96.9875
40
0.5
50
270
51
0
0
ARC
8
0
10
106.5125
20
-83.9875
40
0.5
50
0
51
90
0
ARC
8
0
10
93.5125
20
-83.9875
40
0.5
50
90
51
180
0
LINE
8
0
10
93.5125
20
-97.4875
11
106.5125
21
-97.4875
0
LINE
8
0
10
106.5125
20
-83.4875
11
93.5125
21
-83.4875
0
LINE
8
0
10
107.0125
20
-96.9875
11
107.0125
21
-83.9875
0
LINE
8
0
10
93.0125
20
-83.9875
11
93.0125
21
-96.9875
0
ARC
8
0
10
112.5625
20
-96.9875
40
0.5
50
180
51
270
0
ARC
8
0
10
125.5625
20
-96.9875
40
0.5
50
270
51
0
0
ARC
8
0
10
125.5625
20
-83.9875
40
0.5
50
0
51
90
0
ARC
8
0
10
112.5625
20
-83.9875
40
0.5
50
90
51
180
0
LINE
8
0
10
112.5625
20
-97.4875
11
125.5625
21
-97.4875
0
LINE
8
0
10
125.5625
20
-83.4875
11
112.5625
21
-83.4875
0
LINE
8
0
10
126.0625
20
-96.9875
11
126.0625
21
-83.9875
0
LINE
8
0
10
112.0625
20
-83.9875
11
112.0625
21
-96.9875
0
ARC
8
0
10
131.6125
20
-96.9875
40
0.5
50
180
51
270
0
ARC
8
0
10
144.6125
20
-96.9875
40
0.5
50
270
51
0
0
ARC
8
0
10
144.6125
20
-83.9875
40
0.5
50
0
51
90
0
ARC
8
0
10
131.6125
20
-83.9875
40
0.5
50
90
51
180
0
LINE
8
0
10
131.6125
20
-97.4875
11
144.6125
21
-97.4875
0
LINE
8
0
10
144.6125
20
-83.4875
11
131.6125
21
-83.4875
0
LINE
8
0
10
145.1125
20
-96.9875
11
145.1125
21
-83.9875
0
LINE
8
0
10
131.1125
20
-83.9875
11
131.1125
21
-96.9875
0
ARC
8
0
10
150.6625
20
-96.9875
40
0.5
50
180
51
270
0
ARC
8
0
10
163.6625
20
-96.9875
40
0.5
50
270
51
0
0
ARC
8
0
10
163.6625
20
-83.9875
40
0.5
50
0
51
90
0
ARC
8
0
10
150.6625
20
-83.9875
40
0.5
50
90
51
180
0
LINE
8
0
10
150.6625
20
-97.4875
11
163.6625
21
-97.4875
0
LINE
8
0
10
163.6625
20
-83.4875
11
150.6625
21
-83.4875
0
LINE
8
0
10
164.1625
20
-96.9875
11
164.1625
21
-83.9875
0
LINE
8
0
10
150.1625
20
-83.9875
11
150.1625
21
-96.9875
0
ARC
8
0
10
169.7125
20
-96.9875
40
0.5
50
180
51
270
0
ARC
8
0
10
182.7125
20
-96.9875
40
0.5
50
270
51
0
0
ARC
8
0
10
182.7125
20
-83.9875
40
0.5
50
0
51
90
0
ARC
8
0
10
169.7125
20
-83.9875
40
0.5
50
90
51
180
0
LINE
8
0
10
169.7125
20
-97.4875
11
182.7125
21
-97.4875
0
LINE
8
0
10
182.7125
20
-83.4875
11
169.7125
21
-83.4875
0
LINE
8
0
10
183.2125
20
-96.9875
11
183.2125
21
-83.9875
0
LINE
8
0
10
169.2125
20
-83.9875
11
169.2125
21
-96.9875
0
ARC
8
0
10
188.7625
20
-96.9875
40
0.5
50
180
51
270
0
ARC
8
0
10
201.7625
20
-96.9875
40
0.5
50
270
51
0
0
ARC
8
0
10
201.7625
20
-83.9875
40
0.5
50
0
51
90
0
ARC
8
0
10
188.7625
20
-83.9875
40
0.5
50
90
51
180
0
LINE
8
0
10
188.7625
20
-97.4875
11
201.7625
21
-97.4875
0
LINE
8
0
10
201.7625
20
-83.4875
11
188.7625
21
-83.4875
0
LINE
8
0
10
202.2625
20
-96.9875
11
202.2625
21
-83.9875
0
LINE
8
0
10
188.2625
20
-83.9875
11
188.2625
21
-96.9875
0
ARC
8
0
10
207.8125
20
-96.9875
40
0.5
50
180
51
270
0
ARC
8
0
10
220.8125
20
-96.9875
40
0.5
50
270
51
0
0
ARC
8
0
10
220.8125
20
-83.9875
40
0.5
50
0
51
90
0
ARC
8
0
10
207.8125
20
-83.9875
40
0.5
50
90
51
180
0
LINE
8
0
10
207.8125
20
-97.4875
11
220.8125
21
-97.4875
0
LINE
8
0
10
220.8125
20
-83.4875
11
207.8125
21
-83.4875
0
LINE
8
0
10
221.3125
20
-96.9875
11
221.3125
21
-83.9875
0
LINE
8
0
10
207.3125
20
-83.9875
11
207.3125
21
-96.9875
0
ARC
8
0
10
226.8625
20
-96.9875
40
0.5
50
180
51
270
0
ARC
8
0
10
239.8625
20
-96.9875
40
0.5
50
270
51
0
0
ARC
8
0
10
239.8625
20
-83.9875
40
0.5
50
0
51
90
0
ARC
8
0
10
226.8625
20
-83.9875
40
0.5
50
90
51
180
0
LINE
8
0
10
226.8625
20
-97.4875
11
239.8625
21
-97.4875
0
LINE
8
0
10
239.8625
20
-83.4875
11
226.8625
21
-83.4875
0
LINE
8
0
10
240.3625
20
-96.9875
11
240.3625
21
-83.9875
0
LINE
8
0
10
226.3625
20
-83.9875
11
226.3625
21
-96.9875
0
ARC
8
0
10
245.9125
20
-96.9875
40
0.5
50
180
51
270
0
ARC
8
0
10
258.9125
20
-96.9875
40
0.5
50
270
51
0
0
ARC
8
0
10
258.9125
20
-83.9875
40
0.5
50
0
51
90
0
ARC
8
0
10
245.9125
20
-83.9875
40
0.5
50
90
51
180
0
LINE
8
0
10
245.9125
20
-97.4875
11
258.9125
21
-97.4875
0
LINE
8
0
10
258.9125
20
-83.4875
11
245.9125
21
-83.4875
0
LINE
8
0
10
259.4125
20
-96.9875
11
259.4125
21
-83.9875
0
LINE
8
0
10
245.4125
20
-83.9875
11
245.4125
21
-96.9875
0
ARC
8
0
10
264.9625
20
-96.9875
40
0.5
50
180
51
270
0
ARC
8
0
10
277.9625
20
-96.9875
40
0.5
50
270
51
0
0
ARC
8
0
10
277.9625
20
-83.9875
40
0.5
50
0
51
90
0
ARC
8
0
10
264.9625
20
-83.9875
40
0.5
50
90
51
180
0
LINE
8
0
10
264.9625
20
-97.4875
11
277.9625
21
-97.4875
0
LINE
8
0
10
277.9625
20
-83.4875
11
264.9625
21
-83.4875
0
LINE
8
0
10
278.4625
20
-96.9875
11
278.4625
21
-83.9875
0
LINE
8
0
10
264.4625
20
-83.9875
11
264.4625
21
-96.9875
0
ARC
8
0
10
291.15625
20
-96.9875
40
0.5
50
180
51
270
0
ARC
8
0
10
304.15625
20
-96.9875
40
0.5
50
270
51
0
0
ARC
8
0
10
304.15625
20
-83.9875
40
0.5
50
0
51
90
0
ARC
8
0
10
291.15625
20
-83.9875
40
0.5
50
90
51
180
0
LINE
8
0
10
291.15625
20
-97.4875
11
304.15625
21
-97.4875
0
LINE
8
0
10
304.15625
20
-83.4875
11
291.15625
21
-83.4875
0
LINE
8
0
10
304.65625
20
-96.9875
11
304.65625
21
-83.9875
0
LINE
8
0
10
290.65625
20
-83.9875
11
290.65625
21
-96.9875
0
ARC
8
0
10
317.35
20
-96.9875
40
0.5
50
180
51
270
0
ARC
8
0
10
330.35
20
-96.9875
40
0.5
50
270
51
0
0
ARC
8
0
10
330.35
20
-83.9875
40
0.5
50
0
51
90
0
ARC
8
0
10
317.35
20
-83.9875
40
0.5
50
90
51
180
0
LINE
8
0
10
317.35
20
-97.4875
11
330.35
21
-97.4875
0
LINE
8
0
10
330.35
20
-83.4875
11
317.35
21
-83.4875
0
LINE
8
0
10
330.85
20
-96.9875
11
330.85
21
-83.9875
0
LINE
8
0
10
316.85
20
-83.9875
11
316.85
21
-96.9875
0
ARC
8
0
10
336.4
20
-96.9875
40
0.5
50
180
51
270
0
ARC
8
0
10
349.4
20
-96.9875
40
0.5
50
270
51
0
0
ARC
8
0
10
349.4
20
-83.9875
40
0.5
50
0
51
90
0
ARC
8
0
10
336.4
20
-83.9875
40
0.5
50
90
51
180
0
LINE
8
0
10
336.4
20
-97.4875
11
349.4
21
-97.4875
0
LINE
8
0
10
349.4
20
-83.4875
11
336.4
21
-83.4875
0
LINE
8
0
10
349.9
20
-96.9875
11
349.9
21
-83.9875
0
LINE
8
0
10
335.9
20
-83.9875
11
335.9
21
-96.9875
0
ARC
8
0
10
53.03125
20
-116.0375
40
0.5
50
180
51
270
0
ARC
8
0
10
53.03125
20
-103.0375
40
0.5
50
90
51
180
0
LINE
8
0
10
53.03125
20
-116.5375
11
55.4125
21
-116.5375
0
LINE
8
0
10
55.4125
20
-116.5375
11
66.03125
21
-116.5375
0
LINE
8
0
10
66.03125
20
-102.5375
11
55.4125
21
-102.5375
0
LINE
8
0
10
55.4125
20
-102.5375
11
53.03125
21
-102.5375
0
LINE
8
0
10
52.53125
20
-103.0375
11
52.53125
21
-116.0375
0
ARC
8
0
10
68.4125
20
-116.0375
40
0.5
50
270
51
0
0
ARC
8
0
10
68.4125
20
-103.0375
40
0.5
50
0
51
90
0
LINE
8
0
10
66.03125
20
-116.5375
11
68.4125
21
-116.5375
0
LINE
8
0
10
68.4125
20
-102.5375
11
66.03125
21
-102.5375
0
LINE
8
0
10
68.9125
20
-116.0375
11
68.9125
21
-103.0375
0
ARC
8
0
10
76.84375
20
-116.0375
40
0.5
50
180
51
270
0
ARC
8
0
10
76.84375
20
-103.0375
40
0.5
50
90
51
180
0
LINE
8
0
10
76.84375
20
-116.5375
11
79.225
21
-116.5375
0
LINE
8
0
10
79.225
20
-116.5375
11
89.84375
21
-116.5375
0
LINE
8
0
10
89.84375
20
-102.5375
11
79.225
21
-102.5375
0
LINE
8
0
10
79.225
20
-102.5375
11
76.84375
21
-102.5375
0
LINE
8
0
10
76.34375
20
-103.0375
11
76.34375
21
-116.0375
0
ARC
8
0
10
92.225
20
-116.0375
40
0.5
50
270
51
0
0
ARC
8
0
10
92.225
20
-103.0375
40
0.5
50
0
51
90
0
LINE
8
0
10
89.84375
20
-116.5375
11
92.225
21
-116.5375
0
LINE
8
0
10
92.225
20
-102.5375
11
89.84375
21
-102.5375
0
LINE
8
0
10
92.725
20
-116.0375
11
92.725
21
-103.0375
0
ARC
8
0
10
100.65625
20
-116.0375
40
0.5
50
180
51
270
0
ARC
8
0
10
100.65625
20
-103.0375
40
0.5
50
90
51
180
0
LINE
8
0
10
100.65625
20
-116.5375
11
103.0375
21
-116.5375
0
LINE
8
0
10
103.0375
20
-116.5375
11
113.65625
21
-116.5375
0
LINE
8
0
10
113.65625
20
-102.5375
11
103.0375
21
-102.5375
0
LINE
8
0
10
103.0375
20
-102.5375
11
100.65625
21
-102.5375
0
LINE
8
0
10
100.15625
20
-103.0375
11
100.15625
21
-116.0375
0
ARC
8
0
10
116.0375
20
-116.0375
40
0.5
50
270
51
0
0
ARC
8
0
10
116.0375
20
-103.0375
40
0.5
50
0
51
90
0
LINE
8
0
10
113.65625
20
-116.5375
11
116.0375
21
-116.5375
0
LINE
8
0
10
116.0375
20
-102.5375
11
113.65625
21
-102.5375
0
LINE
8
0
10
116.5375
20
-116.0375
11
116.5375
21
-103.0375
0
LINE
8
0
10
172.09375
20
-116.5375
11
174.45
21
-116.5375
0
LINE
8
0
10
174.45
20
-116.5375
11
176.7995
21
-116.5375
0
LINE
8
0
10
179.2375
20
-116.5375
11
184
21
-116.5375
0
LINE
8
0
10
176.7995
20
-116.5375
11
179.2375
21
-116.5375
0
LINE
8
0
10
184
20
-116.5375
11
185.09375
21
-116.5375
0
LINE
8
0
10
185.09375
20
-102.5375
11
184
21
-102.5375
0
LINE
8
0
10
184
20
-102.5375
11
179.2375
21
-102.5375
0
LINE
8
0
10
179.2375
20
-102.5375
11
177.2995
21
-102.5375
0
ARC
8
0
10
231.59375
20
-102.0375
40
0.5
50
0
51
90
0
ARC
8
0
10
225.59375
20
-102.0375
40
0.5
50
90
51
180
0
LINE
8
0
10
231.59375
20
-101.5375
11
225.59375
21
-101.5375
0
LINE
8
0
10
225.59375
20
-116.5375
11
231.59375
21
-116.5375
0
LINE
8
0
10
225.09375
20
-102.0375
11
225.09375
21
-102.5375
0
LINE
8
0
10
232.09375
20
-102.5375
11
232.09375
21
-102.0375
0
ARC
8
0
10
125.59375
20
-102.0375
40
0.5
50
90
51
180
0
ARC
8
0
10
125.59375
20
-116.0375
40
0.5
50
180
51
270
0
LINE
8
0
10
131.59375
20
-101.5375
11
130.35
21
-101.5375
0
LINE
8
0
10
130.35
20
-101.5375
11
130.31825
21
-101.5375
0
LINE
8
0
10
130.31825
20
-101.5375
11
125.59375
21
-101.5375
0
LINE
8
0
10
125.59375
20
-116.5375
11
130.31825
21
-116.5375
0
LINE
8
0
10
130.31825
20
-116.5375
11
130.35
21
-116.5375
0
LINE
8
0
10
130.35
20
-116.5375
11
131.59375
21
-116.5375
0
LINE
8
0
10
125.09375
20
-102.0375
11
125.09375
21
-116.0375
0
ARC
8
0
10
138.75625
20
-116.0375
40
0.5
50
180
51
270
0
ARC
8
0
10
138.75625
20
-103.0375
40
0.5
50
90
51
180
0
LINE
8
0
10
138.75625
20
-116.5375
11
145.9
21
-116.5375
0
LINE
8
0
10
145.9
20
-116.5375
11
151.75625
21
-116.5375
0
LINE
8
0
10
151.75625
20
-102.5375
11
145.9
21
-102.5375
0
LINE
8
0
10
145.9
20
-102.5375
11
138.75625
21
-102.5375
0
LINE
8
0
10
138.25625
20
-103.0375
11
138.25625
21
-116.0375
0
ARC
8
0
10
160.19425
20
-102.0375
40
0.5
50
0
51
90
0
ARC
8
0
10
154.19425
20
-102.0375
40
0.5
50
90
51
180
0
ARC
8
0
10
160.19425
20
-116.0375
40
0.5
50
270
51
0
0
LINE
8
0
10
160.19425
20
-101.5375
11
154.19425
21
-101.5375
0
LINE
8
0
10
154.19425
20
-116.5375
11
158.9
21
-116.5375
0
LINE
8
0
10
158.9
20
-116.5375
11
160.19425
21
-116.5375
0
LINE
8
0
10
153.69425
20
-102.0375
11
153.69425
21
-102.5375
0
LINE
8
0
10
160.69425
20
-116.0375
11
160.69425
21
-102.0375
0
LINE
8
0
10
136.31825
20
-101.5375
11
131.59375
21
-101.5375
0
LINE
8
0
10
131.59375
20
-116.5375
11
136.31825
21
-116.5375
0
LINE
8
0
10
151.75625
20
-116.5375
11
154.19425
21
-116.5375
0
LINE
8
0
10
153.69425
20
-102.5375
11
151.75625
21
-102.5375
0
ARC
8
0
10
168.45
20
-102.0375
40
0.5
50
90
51
180
0
ARC
8
0
10
168.45
20
-116.0375
40
0.5
50
180
51
270
0
LINE
8
0
10
174.45
20
-101.5375
11
170.7995
21
-101.5375
0
LINE
8
0
10
170.7995
20
-101.5375
11
168.45
21
-101.5375
0
LINE
8
0
10
168.45
20
-116.5375
11
170.7995
21
-116.5375
0
LINE
8
0
10
170.7995
20
-116.5375
11
172.09375
21
-116.5375
0
LINE
8
0
10
167.95
20
-102.0375
11
167.95
21
-116.0375
0
ARC
8
0
10
136.35
20
-102.0375
40
0.5
50
0
51
90
0
ARC
8
0
10
136.35
20
-116.0375
40
0.5
50
270
51
0
0
LINE
8
0
10
136.35
20
-101.5375
11
136.31825
21
-101.5375
0
LINE
8
0
10
136.31825
20
-116.5375
11
136.35
21
-116.5375
0
LINE
8
0
10
136.85
20
-116.0375
11
136.85
21
-102.0375
0
LINE
8
0
10
185.09375
20
-116.5375
11
192.2375
21
-116.5375
0
LINE
8
0
10
192.2375
20
-116.5375
11
194.6755
21
-116.5375
0
LINE
8
0
10
194.6755
20
-116.5375
11
197
21
-116.5375
0
LINE
8
0
10
192.2375
20
-102.5375
11
185.09375
21
-102.5375
0
LINE
8
0
10
194.1755
20
-102.5375
11
192.2375
21
-102.5375
0
ARC
8
0
10
250.65
20
-102.0375
40
0.5
50
0
51
90
0
LINE
8
0
10
250.65
20
-101.5375
11
245.91925
21
-101.5375
0
LINE
8
0
10
245.91925
20
-101.5375
11
244.65
21
-101.5375
0
LINE
8
0
10
244.65
20
-116.5375
11
245.91925
21
-116.5375
0
LINE
8
0
10
245.91925
20
-116.5375
11
250.65
21
-116.5375
0
LINE
8
0
10
251.15
20
-102.5375
11
251.15
21
-102.0375
0
ARC
8
0
10
200.6755
20
-102.0375
40
0.5
50
0
51
90
0
ARC
8
0
10
194.6755
20
-102.0375
40
0.5
50
90
51
180
0
ARC
8
0
10
200.6755
20
-116.0375
40
0.5
50
270
51
0
0
LINE
8
0
10
200.6755
20
-101.5375
11
194.6755
21
-101.5375
0
LINE
8
0
10
197
20
-116.5375
11
200.6755
21
-116.5375
0
LINE
8
0
10
194.1755
20
-102.0375
11
194.1755
21
-102.5375
0
LINE
8
0
10
201.1755
20
-116.0375
11
201.1755
21
-102.0375
0
ARC
8
0
10
176.7995
20
-102.0375
40
0.5
50
0
51
90
0
LINE
8
0
10
176.7995
20
-101.5375
11
174.45
21
-101.5375
0
LINE
8
0
10
177.2995
20
-102.5375
11
177.2995
21
-102.0375
0
ARC
8
0
10
222.1
20
-116.0375
40
0.5
50
266.746717
51
270
0
LINE
8
0
10
222.1
20
-116.5375
11
224.48125
21
-116.5375
0
LINE
8
0
10
224.48125
20
-116.5375
11
225.59375
21
-116.5375
0
LINE
8
0
10
231.59375
20
-116.5375
11
235.1
21
-116.5375
0
LINE
8
0
10
235.1
20
-102.5375
11
232.09375
21
-102.5375
0
LINE
8
0
10
225.09375
20
-102.5375
11
224.48125
21
-102.5375
0
LINE
8
0
10
224.48125
20
-102.5375
11
222.54325
21
-102.5375
0
ARC
8
0
10
212.55
20
-102.0375
40
0.5
50
0
51
90
0
ARC
8
0
10
206.55
20
-102.0375
40
0.5
50
90
51
180
0
ARC
8
0
10
206.55
20
-116.0375
40
0.5
50
180
51
270
0
ARC
8
0
10
212.55
20
-116.0375
40
0.5
50
270
51
0
0
LINE
8
0
10
212.55
20
-101.5375
11
206.55
21
-101.5375
0
LINE
8
0
10
206.55
20
-116.5375
11
212.55
21
-116.5375
0
LINE
8
0
10
206.05
20
-102.0375
11
206.05
21
-116.0375
0
LINE
8
0
10
213.05
20
-116.0375
11
213.05
21
-102.0375
0
ARC
8
0
10
237.48125
20
-116.0375
40
0.5
50
270
51
0
0
ARC
8
0
10
237.48125
20
-103.0375
40
0.5
50
0
51
90
0
LINE
8
0
10
235.1
20
-116.5375
11
237.48125
21
-116.5375
0
LINE
8
0
10
237.48125
20
-102.5375
11
235.1
21
-102.5375
0
LINE
8
0
10
237.98125
20
-116.0375
11
237.98125
21
-103.0375
0
ARC
8
0
10
239.91925
20
-102.0375
40
0.5
50
90
51
180
0
ARC
8
0
10
239.91925
20
-116.0375
40
0.5
50
180
51
270
0
LINE
8
0
10
244.65
20
-101.5375
11
239.91925
21
-101.5375
0
LINE
8
0
10
239.91925
20
-116.5375
11
243.53125
21
-116.5375
0
LINE
8
0
10
243.53125
20
-116.5375
11
244.65
21
-116.5375
0
LINE
8
0
10
239.41925
20
-102.0375
11
239.41925
21
-116.0375
0
ARC
8
0
10
222.04325
20
-102.0375
40
0.5
50
0
51
90
0
ARC
8
0
10
216.04325
20
-102.0375
40
0.5
50
90
51
180
0
ARC
8
0
10
216.04325
20
-116.0375
40
0.5
50
180
51
270
0
ARC
8
0
10
222.04325
20
-116.0375
40
0.5
50
270
51
273.253283
0
LINE
8
0
10
222.04325
20
-101.5375
11
216.04325
21
-101.5375
0
LINE
8
0
10
216.04325
20
-116.5375
11
222.04325
21
-116.5375
0
LINE
8
0
10
215.54325
20
-102.0375
11
215.54325
21
-116.0375
0
LINE
8
0
10
222.54325
20
-102.5375
11
222.54325
21
-102.0375
0
ARC
8
0
10
256.53125
20
-116.0375
40
0.5
50
270
51
0
0
ARC
8
0
10
256.53125
20
-103.0375
40
0.5
50
0
51
90
0
LINE
8
0
10
250.65
20
-116.5375
11
256.53125
21
-116.5375
0
LINE
8
0
10
256.53125
20
-102.5375
11
251.15
21
-102.5375
0
LINE
8
0
10
257.03125
20
-116.0375
11
257.03125
21
-103.0375
0
ARC
8
0
10
264.9625
20
-116.0375
40
0.5
50
180
51
270
0
ARC
8
0
10
264.9625
20
-103.0375
40
0.5
50
90
51
180
0
LINE
8
0
10
264.9625
20
-116.5375
11
267.34375
21
-116.5375
0
LINE
8
0
10
267.34375
20
-116.5375
11
277.9625
21
-116.5375
0
LINE
8
0
10
277.9625
20
-102.5375
11
267.34375
21
-102.5375
0
LINE
8
0
10
267.34375
20
-102.5375
11
264.9625
21
-102.5375
0
LINE
8
0
10
264.4625
20
-103.0375
11
264.4625
21
-116.0375
0
ARC
8
0
10
280.34375
20
-116.0375
40
0.5
50
270
51
0
0
ARC
8
0
10
280.34375
20
-103.0375
40
0.5
50
0
51
90
0
LINE
8
0
10
277.9625
20
-116.5375
11
280.34375
21
-116.5375
0
LINE
8
0
10
280.34375
20
-102.5375
11
277.9625
21
-102.5375
0
LINE
8
0
10
280.84375
20
-116.0375
11
280.84375
21
-103.0375
0
ARC
8
0
10
298.3
20
-116.0375
40
0.5
50
180
51
270
0
ARC
8
0
10
311.3
20
-116.0375
40
0.5
50
270
51
0
0
ARC
8
0
10
311.3
20
-103.0375
40
0.5
50
0
51
90
0
ARC
8
0
10
298.3
20
-103.0375
40
0.5
50
90
51
180
0
LINE
8
0
10
298.3
20
-116.5375
11
311.3
21
-116.5375
0
LINE
8
0
10
311.3
20
-102.5375
11
298.3
21
-102.5375
0
LINE
8
0
10
311.8
20
-116.0375
11
311.8
21
-103.0375
0
LINE
8
0
10
297.8
20
-103.0375
11
297.8
21
-116.0375
0
ARC
8
0
10
317.35
20
-116.0375
40
0.5
50
180
51
270
0
ARC
8
0
10
330.35
20
-116.0375
40
0.5
50
270
51
0
0
ARC
8
0
10
330.35
20
-103.0375
40
0.5
50
0
51
90
0
ARC
8
0
10
317.35
20
-103.0375
40
0.5
50
90
51
180
0
LINE
8
0
10
317.35
20
-116.5375
11
330.35
21
-116.5375
0
LINE
8
0
10
330.35
20
-102.5375
11
317.35
21
-102.5375
0
LINE
8
0
10
330.85
20
-116.0375
11
330.85
21
-103.0375
0
LINE
8
0
10
316.85
20
-103.0375
11
316.85
21
-116.0375
0
ARC
8
0
10
336.4
20
-116.0375
40
0.5
50
180
51
270
0
ARC
8
0
10
349.4
20
-116.0375
40
0.5
50
270
51
0
0
ARC
8
0
10
349.4
20
-103.0375
40
0.5
50
0
51
90
0
ARC
8
0
10
336.4
20
-103.0375
40
0.5
50
90
51
180
0
LINE
8
0
10
336.4
20
-116.5375
11
349.4
21
-116.5375
0
LINE
8
0
10
349.4
20
-102.5375
11
336.4
21
-102.5375
0
LINE
8
0
10
349.9
20
-116.0375
11
349.9
21
-103.0375
0
LINE
8
0
10
335.9
20
-103.0375
11
335.9
21
-116.0375
0
ENDSEC
0
EOF