%TF.GenerationSoftware,KiCad,Pcbnew,7.0.1*%
%TF.CreationDate,2023-05-02T20:58:12+03:00*%
%TF.ProjectId,rp2040-bakeneko65,72703230-3430-42d6-9261-6b656e656b6f,rev?*%
%TF.SameCoordinates,Original*%
%TF.FileFunction,Soldermask,Bot*%
%TF.FilePolarity,Negative*%
%FSLAX46Y46*%
G04 Gerber Fmt 4.6, Leading zero omitted, Abs format (unit mm)*
G04 Created by KiCad (PCBNEW 7.0.1) date 2023-05-02 20:58:12*
%MOMM*%
%LPD*%
G01*
G04 APERTURE LIST*
G04 Aperture macros list*
%AMRoundRect*
0 Rectangle with rounded corners*
0 $1 Rounding radius*
0 $2 $3 $4 $5 $6 $7 $8 $9 X,Y pos of 4 corners*
0 Add a 4 corners polygon primitive as box body*
4,1,4,$2,$3,$4,$5,$6,$7,$8,$9,$2,$3,0*
0 Add four circle primitives for the rounded corners*
1,1,$1+$1,$2,$3*
1,1,$1+$1,$4,$5*
1,1,$1+$1,$6,$7*
1,1,$1+$1,$8,$9*
0 Add four rect primitives between the rounded corners*
20,1,$1+$1,$2,$3,$4,$5,0*
20,1,$1+$1,$4,$5,$6,$7,0*
20,1,$1+$1,$6,$7,$8,$9,0*
20,1,$1+$1,$8,$9,$2,$3,0*%
%AMRotRect*
0 Rectangle, with rotation*
0 The origin of the aperture is its center*
0 $1 length*
0 $2 width*
0 $3 Rotation angle, in degrees counterclockwise*
0 Add horizontal line*
21,1,$1,$2,0,0,$3*%
%AMFreePoly0*
4,1,18,-0.410000,0.593000,-0.403758,0.624380,-0.385983,0.650983,-0.359380,0.668758,-0.328000,0.675000,0.328000,0.675000,0.359380,0.668758,0.385983,0.650983,0.403758,0.624380,0.410000,0.593000,0.410000,-0.593000,0.403758,-0.624380,0.385983,-0.650983,0.359380,-0.668758,0.328000,-0.675000,0.000000,-0.675000,-0.410000,-0.265000,-0.410000,0.593000,-0.410000,0.593000,$1*%
G04 Aperture macros list end*
%ADD10C,1.750000*%
%ADD11C,3.987800*%
%ADD12C,2.300000*%
%ADD13C,4.000000*%
%ADD14R,1.700000X1.700000*%
%ADD15O,1.700000X1.700000*%
%ADD16RoundRect,0.140000X0.140000X0.170000X-0.140000X0.170000X-0.140000X-0.170000X0.140000X-0.170000X0*%
%ADD17R,1.200000X0.900000*%
%ADD18RoundRect,0.140000X0.170000X-0.140000X0.170000X0.140000X-0.170000X0.140000X-0.170000X-0.140000X0*%
%ADD19RoundRect,0.135000X-0.185000X0.135000X-0.185000X-0.135000X0.185000X-0.135000X0.185000X0.135000X0*%
%ADD20RoundRect,0.082000X0.593000X-0.328000X0.593000X0.328000X-0.593000X0.328000X-0.593000X-0.328000X0*%
%ADD21FreePoly0,90.000000*%
%ADD22RoundRect,0.140000X-0.021213X0.219203X-0.219203X0.021213X0.021213X-0.219203X0.219203X-0.021213X0*%
%ADD23R,1.800000X1.100000*%
%ADD24RoundRect,0.140000X-0.140000X-0.170000X0.140000X-0.170000X0.140000X0.170000X-0.140000X0.170000X0*%
%ADD25RoundRect,0.050000X0.387500X0.050000X-0.387500X0.050000X-0.387500X-0.050000X0.387500X-0.050000X0*%
%ADD26RoundRect,0.050000X0.050000X0.387500X-0.050000X0.387500X-0.050000X-0.387500X0.050000X-0.387500X0*%
%ADD27R,3.200000X3.200000*%
%ADD28RoundRect,0.140000X-0.219203X-0.021213X-0.021213X-0.219203X0.219203X0.021213X0.021213X0.219203X0*%
%ADD29RotRect,1.400000X1.200000X45.000000*%
%ADD30RoundRect,0.135000X0.185000X-0.135000X0.185000X0.135000X-0.185000X0.135000X-0.185000X-0.135000X0*%
%ADD31RoundRect,0.140000X0.219203X0.021213X0.021213X0.219203X-0.219203X-0.021213X-0.021213X-0.219203X0*%
%ADD32RoundRect,0.150000X-0.587500X-0.150000X0.587500X-0.150000X0.587500X0.150000X-0.587500X0.150000X0*%
%ADD33RoundRect,0.150000X0.650000X0.150000X-0.650000X0.150000X-0.650000X-0.150000X0.650000X-0.150000X0*%
%ADD34RoundRect,0.140000X-0.170000X0.140000X-0.170000X-0.140000X0.170000X-0.140000X0.170000X0.140000X0*%
%ADD35RoundRect,0.150000X0.150000X-0.475000X0.150000X0.475000X-0.150000X0.475000X-0.150000X-0.475000X0*%
%ADD36RoundRect,0.150000X-0.625000X0.150000X-0.625000X-0.150000X0.625000X-0.150000X0.625000X0.150000X0*%
%ADD37RoundRect,0.250000X-0.650000X0.350000X-0.650000X-0.350000X0.650000X-0.350000X0.650000X0.350000X0*%
%ADD38RoundRect,0.135000X0.035355X-0.226274X0.226274X-0.035355X-0.035355X0.226274X-0.226274X0.035355X0*%
%ADD39RoundRect,0.243750X-0.243750X-0.456250X0.243750X-0.456250X0.243750X0.456250X-0.243750X0.456250X0*%
G04 APERTURE END LIST*
D10*
%TO.C,SW42*%
X211613750Y-130968750D03*
D11*
X216693750Y-130968750D03*
D10*
X221773750Y-130968750D03*
D12*
X212883750Y-128428750D03*
X219233750Y-125888750D03*
%TD*%
D10*
%TO.C,SW27*%
X244951250Y-111918750D03*
D11*
X250031250Y-111918750D03*
D10*
X255111250Y-111918750D03*
D12*
X246221250Y-109378750D03*
X252571250Y-106838750D03*
%TD*%
D10*
%TO.C,SW76*%
X197326250Y-169068750D03*
D11*
X202406250Y-169068750D03*
D10*
X207486250Y-169068750D03*
D12*
X198596250Y-166528750D03*
X204946250Y-163988750D03*
%TD*%
D10*
%TO.C,SW14*%
X311626250Y-92868750D03*
D11*
X316706250Y-92868750D03*
D10*
X321786250Y-92868750D03*
D12*
X312896250Y-90328750D03*
X319246250Y-87788750D03*
%TD*%
D10*
%TO.C,SW41*%
X192563750Y-130968750D03*
D11*
X197643750Y-130968750D03*
D10*
X202723750Y-130968750D03*
D12*
X193833750Y-128428750D03*
X200183750Y-125888750D03*
%TD*%
D10*
%TO.C,SW39*%
X154463750Y-130968750D03*
D11*
X159543750Y-130968750D03*
D10*
X164623750Y-130968750D03*
D12*
X155733750Y-128428750D03*
X162083750Y-125888750D03*
%TD*%
D10*
%TO.C,SW33*%
X349726250Y-111918750D03*
D11*
X354806250Y-111918750D03*
D10*
X359886250Y-111918750D03*
D12*
X350996250Y-109378750D03*
X357346250Y-106838750D03*
%TD*%
D10*
%TO.C,SW37*%
X116363750Y-130968750D03*
D11*
X121443750Y-130968750D03*
D10*
X126523750Y-130968750D03*
D12*
X117633750Y-128428750D03*
X123983750Y-125888750D03*
%TD*%
D10*
%TO.C,SW43*%
X230663750Y-130968750D03*
D11*
X235743750Y-130968750D03*
D10*
X240823750Y-130968750D03*
D12*
X231933750Y-128428750D03*
X238283750Y-125888750D03*
%TD*%
D10*
%TO.C,SW52*%
X87788750Y-150018750D03*
D11*
X92868750Y-150018750D03*
D10*
X97948750Y-150018750D03*
D12*
X89058750Y-147478750D03*
X95408750Y-144938750D03*
%TD*%
D10*
%TO.C,SW17*%
X330708000Y-92837000D03*
D11*
X335788000Y-92837000D03*
D10*
X340868000Y-92837000D03*
D12*
X331978000Y-90297000D03*
X338328000Y-87757000D03*
%TD*%
D10*
%TO.C,SW68*%
X90170000Y-169068750D03*
D11*
X95250000Y-169068750D03*
D10*
X100330000Y-169068750D03*
D12*
X91440000Y-166528750D03*
X97790000Y-163988750D03*
%TD*%
D10*
%TO.C,SW21*%
X130651250Y-111918750D03*
D11*
X135731250Y-111918750D03*
D10*
X140811250Y-111918750D03*
D12*
X131921250Y-109378750D03*
X138271250Y-106838750D03*
%TD*%
D10*
%TO.C,SW40*%
X173513750Y-130968750D03*
D11*
X178593750Y-130968750D03*
D10*
X183673750Y-130968750D03*
D12*
X174783750Y-128428750D03*
X181133750Y-125888750D03*
%TD*%
D13*
%TO.C,S73*%
X176212500Y-176053750D03*
D11*
X176212500Y-160813750D03*
D13*
X152400000Y-176053750D03*
D11*
X152400000Y-160813750D03*
%TD*%
D10*
%TO.C,SW75*%
X192563750Y-169068750D03*
D11*
X197643750Y-169068750D03*
D10*
X202723750Y-169068750D03*
D12*
X193833750Y-166528750D03*
X200183750Y-163988750D03*
%TD*%
D10*
%TO.C,SW45*%
X268763750Y-130968750D03*
D11*
X273843750Y-130968750D03*
D10*
X278923750Y-130968750D03*
D12*
X270033750Y-128428750D03*
X276383750Y-125888750D03*
%TD*%
D10*
%TO.C,SW7*%
X178276250Y-92868750D03*
D11*
X183356250Y-92868750D03*
D10*
X188436250Y-92868750D03*
D12*
X179546250Y-90328750D03*
X185896250Y-87788750D03*
%TD*%
D10*
%TO.C,SW77*%
X235426250Y-169068750D03*
D11*
X240506250Y-169068750D03*
D10*
X245586250Y-169068750D03*
D12*
X236696250Y-166528750D03*
X243046250Y-163988750D03*
%TD*%
D10*
%TO.C,SW53*%
X106838750Y-150018750D03*
D11*
X111918750Y-150018750D03*
D10*
X116998750Y-150018750D03*
D12*
X108108750Y-147478750D03*
X114458750Y-144938750D03*
%TD*%
D10*
%TO.C,SW56*%
X163988750Y-150018750D03*
D11*
X169068750Y-150018750D03*
D10*
X174148750Y-150018750D03*
D12*
X165258750Y-147478750D03*
X171608750Y-144938750D03*
%TD*%
D10*
%TO.C,SW4*%
X121126250Y-92868750D03*
D11*
X126206250Y-92868750D03*
D10*
X131286250Y-92868750D03*
D12*
X122396250Y-90328750D03*
X128746250Y-87788750D03*
%TD*%
D10*
%TO.C,SW1*%
X63976250Y-92868750D03*
D11*
X69056250Y-92868750D03*
D10*
X74136250Y-92868750D03*
D12*
X65246250Y-90328750D03*
X71596250Y-87788750D03*
%TD*%
D10*
%TO.C,SW80*%
X278288750Y-169068750D03*
D11*
X283368750Y-169068750D03*
D10*
X288448750Y-169068750D03*
D12*
X279558750Y-166528750D03*
X285908750Y-163988750D03*
%TD*%
D10*
%TO.C,SW34*%
X66357500Y-130968750D03*
D11*
X71437500Y-130968750D03*
D10*
X76517500Y-130968750D03*
D12*
X67627500Y-128428750D03*
X73977500Y-125888750D03*
%TD*%
D10*
%TO.C,SW59*%
X221138750Y-150018750D03*
D11*
X226218750Y-150018750D03*
D10*
X231298750Y-150018750D03*
D12*
X222408750Y-147478750D03*
X228758750Y-144938750D03*
%TD*%
D10*
%TO.C,SW9*%
X216376250Y-92868750D03*
D11*
X221456250Y-92868750D03*
D10*
X226536250Y-92868750D03*
D12*
X217646250Y-90328750D03*
X223996250Y-87788750D03*
%TD*%
D14*
%TO.C,J2*%
X62230000Y-141224000D03*
D15*
X62230000Y-143764000D03*
X62230000Y-146304000D03*
X62230000Y-148844000D03*
X62230000Y-151384000D03*
%TD*%
D10*
%TO.C,SW6*%
X159226250Y-92868750D03*
D11*
X164306250Y-92868750D03*
D10*
X169386250Y-92868750D03*
D12*
X160496250Y-90328750D03*
X166846250Y-87788750D03*
%TD*%
D10*
%TO.C,SW81*%
X280670000Y-169068750D03*
D11*
X285750000Y-169068750D03*
D10*
X290830000Y-169068750D03*
D12*
X281940000Y-166528750D03*
X288290000Y-163988750D03*
%TD*%
D13*
%TO.C,S77*%
X259556250Y-176053750D03*
D11*
X259556250Y-160813750D03*
D13*
X221456250Y-176053750D03*
D11*
X221456250Y-160813750D03*
%TD*%
D10*
%TO.C,SW38*%
X135413750Y-130968750D03*
D11*
X140493750Y-130968750D03*
D10*
X145573750Y-130968750D03*
D12*
X136683750Y-128428750D03*
X143033750Y-125888750D03*
%TD*%
D13*
%TO.C,S50*%
X69056250Y-143033750D03*
D11*
X69056250Y-158273750D03*
D13*
X92868750Y-143033750D03*
D11*
X92868750Y-158273750D03*
%TD*%
D10*
%TO.C,SW66*%
X66357500Y-169068750D03*
D11*
X71437500Y-169068750D03*
D10*
X76517500Y-169068750D03*
D12*
X67627500Y-166528750D03*
X73977500Y-163988750D03*
%TD*%
D10*
%TO.C,SW51*%
X75882500Y-150018750D03*
D11*
X80962500Y-150018750D03*
D10*
X86042500Y-150018750D03*
D12*
X77152500Y-147478750D03*
X83502500Y-144938750D03*
%TD*%
D10*
%TO.C,SW55*%
X144938750Y-150018750D03*
D11*
X150018750Y-150018750D03*
D10*
X155098750Y-150018750D03*
D12*
X146208750Y-147478750D03*
X152558750Y-144938750D03*
%TD*%
D10*
%TO.C,SW44*%
X249713750Y-130968750D03*
D11*
X254793750Y-130968750D03*
D10*
X259873750Y-130968750D03*
D12*
X250983750Y-128428750D03*
X257333750Y-125888750D03*
%TD*%
D10*
%TO.C,SW57*%
X183038750Y-150018750D03*
D11*
X188118750Y-150018750D03*
D10*
X193198750Y-150018750D03*
D12*
X184308750Y-147478750D03*
X190658750Y-144938750D03*
%TD*%
D10*
%TO.C,SW30*%
X302101250Y-111918750D03*
D11*
X307181250Y-111918750D03*
D10*
X312261250Y-111918750D03*
D12*
X303371250Y-109378750D03*
X309721250Y-106838750D03*
%TD*%
D10*
%TO.C,SW2*%
X83026250Y-92868750D03*
D11*
X88106250Y-92868750D03*
D10*
X93186250Y-92868750D03*
D12*
X84296250Y-90328750D03*
X90646250Y-87788750D03*
%TD*%
D13*
%TO.C,S78*%
X254793750Y-176053750D03*
D11*
X254793750Y-160813750D03*
D13*
X230981250Y-176053750D03*
D11*
X230981250Y-160813750D03*
%TD*%
D10*
%TO.C,SW84*%
X349726250Y-169068750D03*
D11*
X354806250Y-169068750D03*
D10*
X359886250Y-169068750D03*
D12*
X350996250Y-166528750D03*
X357346250Y-163988750D03*
%TD*%
D10*
%TO.C,SW20*%
X111601250Y-111918750D03*
D11*
X116681250Y-111918750D03*
D10*
X121761250Y-111918750D03*
D12*
X112871250Y-109378750D03*
X119221250Y-106838750D03*
%TD*%
D10*
%TO.C,SW35*%
X71120000Y-130968750D03*
D11*
X76200000Y-130968750D03*
D10*
X81280000Y-130968750D03*
D12*
X72390000Y-128428750D03*
X78740000Y-125888750D03*
%TD*%
D10*
%TO.C,SW18*%
X68738750Y-111918750D03*
D11*
X73818750Y-111918750D03*
D10*
X78898750Y-111918750D03*
D12*
X70008750Y-109378750D03*
X76358750Y-106838750D03*
%TD*%
D10*
%TO.C,SW49*%
X349726250Y-130968750D03*
D11*
X354806250Y-130968750D03*
D10*
X359886250Y-130968750D03*
D12*
X350996250Y-128428750D03*
X357346250Y-125888750D03*
%TD*%
D10*
%TO.C,SW54*%
X125888750Y-150018750D03*
D11*
X130968750Y-150018750D03*
D10*
X136048750Y-150018750D03*
D12*
X127158750Y-147478750D03*
X133508750Y-144938750D03*
%TD*%
D10*
%TO.C,SW73*%
X159226250Y-169068750D03*
D11*
X164306250Y-169068750D03*
D10*
X169386250Y-169068750D03*
D12*
X160496250Y-166528750D03*
X166846250Y-163988750D03*
%TD*%
D10*
%TO.C,SW22*%
X149701250Y-111918750D03*
D11*
X154781250Y-111918750D03*
D10*
X159861250Y-111918750D03*
D12*
X150971250Y-109378750D03*
X157321250Y-106838750D03*
%TD*%
D10*
%TO.C,SW12*%
X273526250Y-92868750D03*
D11*
X278606250Y-92868750D03*
D10*
X283686250Y-92868750D03*
D12*
X274796250Y-90328750D03*
X281146250Y-87788750D03*
%TD*%
D10*
%TO.C,SW62*%
X278288750Y-150018750D03*
D11*
X283368750Y-150018750D03*
D10*
X288448750Y-150018750D03*
D12*
X279558750Y-147478750D03*
X285908750Y-144938750D03*
%TD*%
D10*
%TO.C,SW8*%
X197326250Y-92868750D03*
D11*
X202406250Y-92868750D03*
D10*
X207486250Y-92868750D03*
D12*
X198596250Y-90328750D03*
X204946250Y-87788750D03*
%TD*%
D10*
%TO.C,SW83*%
X330676250Y-169068750D03*
D11*
X335756250Y-169068750D03*
D10*
X340836250Y-169068750D03*
D12*
X331946250Y-166528750D03*
X338296250Y-163988750D03*
%TD*%
D13*
%TO.C,S32*%
X340360000Y-133350000D03*
X340360000Y-109537500D03*
D11*
X325120000Y-133350000D03*
X325120000Y-109537500D03*
%TD*%
D10*
%TO.C,SW46*%
X287813750Y-130968750D03*
D11*
X292893750Y-130968750D03*
D10*
X297973750Y-130968750D03*
D12*
X289083750Y-128428750D03*
X295433750Y-125888750D03*
%TD*%
D10*
%TO.C,SW48*%
X318770000Y-130968750D03*
D11*
X323850000Y-130968750D03*
D10*
X328930000Y-130968750D03*
D12*
X320040000Y-128428750D03*
X326390000Y-125888750D03*
%TD*%
D10*
%TO.C,SW67*%
X68738750Y-169068750D03*
D11*
X73818750Y-169068750D03*
D10*
X78898750Y-169068750D03*
D12*
X70008750Y-166528750D03*
X76358750Y-163988750D03*
%TD*%
D10*
%TO.C,SW61*%
X259238750Y-150018750D03*
D11*
X264318750Y-150018750D03*
D10*
X269398750Y-150018750D03*
D12*
X260508750Y-147478750D03*
X266858750Y-144938750D03*
%TD*%
D10*
%TO.C,SW82*%
X311626250Y-169068750D03*
D11*
X316706250Y-169068750D03*
D10*
X321786250Y-169068750D03*
D12*
X312896250Y-166528750D03*
X319246250Y-163988750D03*
%TD*%
D10*
%TO.C,SW26*%
X225901250Y-111918750D03*
D11*
X230981250Y-111918750D03*
D10*
X236061250Y-111918750D03*
D12*
X227171250Y-109378750D03*
X233521250Y-106838750D03*
%TD*%
D13*
%TO.C,S75*%
X247650000Y-176053750D03*
D11*
X247650000Y-160813750D03*
D13*
X147637500Y-176053750D03*
D11*
X147637500Y-160813750D03*
%TD*%
D10*
%TO.C,SW79*%
X256857500Y-169068750D03*
D11*
X261937500Y-169068750D03*
D10*
X267017500Y-169068750D03*
D12*
X258127500Y-166528750D03*
X264477500Y-163988750D03*
%TD*%
D10*
%TO.C,SW47*%
X306863750Y-130968750D03*
D11*
X311943750Y-130968750D03*
D10*
X317023750Y-130968750D03*
D12*
X308133750Y-128428750D03*
X314483750Y-125888750D03*
%TD*%
D10*
%TO.C,SW32*%
X328295000Y-121443750D03*
D11*
X333375000Y-121443750D03*
D10*
X338455000Y-121443750D03*
D12*
X329565000Y-118903750D03*
X335915000Y-116363750D03*
%TD*%
D13*
%TO.C,S74*%
X247650000Y-176053750D03*
D11*
X247650000Y-160813750D03*
D13*
X133350000Y-176053750D03*
D11*
X133350000Y-160813750D03*
%TD*%
D13*
%TO.C,S47*%
X300037500Y-123983750D03*
D11*
X300037500Y-139223750D03*
D13*
X323850000Y-123983750D03*
D11*
X323850000Y-139223750D03*
%TD*%
D10*
%TO.C,SW10*%
X235426250Y-92868750D03*
D11*
X240506250Y-92868750D03*
D10*
X245586250Y-92868750D03*
D12*
X236696250Y-90328750D03*
X243046250Y-87788750D03*
%TD*%
D10*
%TO.C,SW31*%
X325913750Y-111918750D03*
D11*
X330993750Y-111918750D03*
D10*
X336073750Y-111918750D03*
D12*
X327183750Y-109378750D03*
X333533750Y-106838750D03*
%TD*%
D10*
%TO.C,SW11*%
X254476250Y-92868750D03*
D11*
X259556250Y-92868750D03*
D10*
X264636250Y-92868750D03*
D12*
X255746250Y-90328750D03*
X262096250Y-87788750D03*
%TD*%
D10*
%TO.C,SW70*%
X113982500Y-169068750D03*
D11*
X119062500Y-169068750D03*
D10*
X124142500Y-169068750D03*
D12*
X115252500Y-166528750D03*
X121602500Y-163988750D03*
%TD*%
D10*
%TO.C,SW5*%
X140176250Y-92868750D03*
D11*
X145256250Y-92868750D03*
D10*
X150336250Y-92868750D03*
D12*
X141446250Y-90328750D03*
X147796250Y-87788750D03*
%TD*%
D10*
%TO.C,SW78*%
X237807500Y-169068750D03*
D11*
X242887500Y-169068750D03*
D10*
X247967500Y-169068750D03*
D12*
X239077500Y-166528750D03*
X245427500Y-163988750D03*
%TD*%
D10*
%TO.C,SW16*%
X349758000Y-92837000D03*
D11*
X354838000Y-92837000D03*
D10*
X359918000Y-92837000D03*
D12*
X351028000Y-90297000D03*
X357378000Y-87757000D03*
%TD*%
D10*
%TO.C,SW13*%
X292576250Y-92868750D03*
D11*
X297656250Y-92868750D03*
D10*
X302736250Y-92868750D03*
D12*
X293846250Y-90328750D03*
X300196250Y-87788750D03*
%TD*%
D10*
%TO.C,SW3*%
X102076250Y-92868750D03*
D11*
X107156250Y-92868750D03*
D10*
X112236250Y-92868750D03*
D12*
X103346250Y-90328750D03*
X109696250Y-87788750D03*
%TD*%
D10*
%TO.C,SW72*%
X152082500Y-169068750D03*
D11*
X157162500Y-169068750D03*
D10*
X162242500Y-169068750D03*
D12*
X153352500Y-166528750D03*
X159702500Y-163988750D03*
%TD*%
D10*
%TO.C,SW23*%
X168751250Y-111918750D03*
D11*
X173831250Y-111918750D03*
D10*
X178911250Y-111918750D03*
D12*
X170021250Y-109378750D03*
X176371250Y-106838750D03*
%TD*%
D10*
%TO.C,SW65*%
X349726250Y-150018750D03*
D11*
X354806250Y-150018750D03*
D10*
X359886250Y-150018750D03*
D12*
X350996250Y-147478750D03*
X357346250Y-144938750D03*
%TD*%
D10*
%TO.C,SW69*%
X92551250Y-169068750D03*
D11*
X97631250Y-169068750D03*
D10*
X102711250Y-169068750D03*
D12*
X93821250Y-166528750D03*
X100171250Y-163988750D03*
%TD*%
D10*
%TO.C,SW19*%
X92551250Y-111918750D03*
D11*
X97631250Y-111918750D03*
D10*
X102711250Y-111918750D03*
D12*
X93821250Y-109378750D03*
X100171250Y-106838750D03*
%TD*%
D10*
%TO.C,SW25*%
X206851250Y-111918750D03*
D11*
X211931250Y-111918750D03*
D10*
X217011250Y-111918750D03*
D12*
X208121250Y-109378750D03*
X214471250Y-106838750D03*
%TD*%
D10*
%TO.C,SW74*%
X185420000Y-169068750D03*
D11*
X190500000Y-169068750D03*
D10*
X195580000Y-169068750D03*
D12*
X186690000Y-166528750D03*
X193040000Y-163988750D03*
%TD*%
D10*
%TO.C,SW71*%
X116363750Y-169068750D03*
D11*
X121443750Y-169068750D03*
D10*
X126523750Y-169068750D03*
D12*
X117633750Y-166528750D03*
X123983750Y-163988750D03*
%TD*%
D10*
%TO.C,SW24*%
X187801250Y-111918750D03*
D11*
X192881250Y-111918750D03*
D10*
X197961250Y-111918750D03*
D12*
X189071250Y-109378750D03*
X195421250Y-106838750D03*
%TD*%
D10*
%TO.C,SW60*%
X240188750Y-150018750D03*
D11*
X245268750Y-150018750D03*
D10*
X250348750Y-150018750D03*
D12*
X241458750Y-147478750D03*
X247808750Y-144938750D03*
%TD*%
D13*
%TO.C,S76*%
X214312500Y-176053750D03*
D11*
X214312500Y-160813750D03*
D13*
X190500000Y-176053750D03*
D11*
X190500000Y-160813750D03*
%TD*%
D10*
%TO.C,SW63*%
X304482500Y-150018750D03*
D11*
X309562500Y-150018750D03*
D10*
X314642500Y-150018750D03*
D12*
X305752500Y-147478750D03*
X312102500Y-144938750D03*
%TD*%
D10*
%TO.C,SW50*%
X66357500Y-150018750D03*
D11*
X71437500Y-150018750D03*
D10*
X76517500Y-150018750D03*
D12*
X67627500Y-147478750D03*
X73977500Y-144938750D03*
%TD*%
D10*
%TO.C,SW58*%
X202088750Y-150018750D03*
D11*
X207168750Y-150018750D03*
D10*
X212248750Y-150018750D03*
D12*
X203358750Y-147478750D03*
X209708750Y-144938750D03*
%TD*%
D13*
%TO.C,S72*%
X176212500Y-176053750D03*
D11*
X176212500Y-160813750D03*
D13*
X138112500Y-176053750D03*
D11*
X138112500Y-160813750D03*
%TD*%
D10*
%TO.C,SW36*%
X97313750Y-130968750D03*
D11*
X102393750Y-130968750D03*
D10*
X107473750Y-130968750D03*
D12*
X98583750Y-128428750D03*
X104933750Y-125888750D03*
%TD*%
D10*
%TO.C,SW28*%
X264001250Y-111918750D03*
D11*
X269081250Y-111918750D03*
D10*
X274161250Y-111918750D03*
D12*
X265271250Y-109378750D03*
X271621250Y-106838750D03*
%TD*%
D10*
%TO.C,SW64*%
X330676250Y-150018750D03*
D11*
X335756250Y-150018750D03*
D10*
X340836250Y-150018750D03*
D12*
X331946250Y-147478750D03*
X338296250Y-144938750D03*
%TD*%
D13*
%TO.C,S17*%
X314325000Y-85852000D03*
D11*
X314325000Y-101092000D03*
D13*
X338137500Y-85852000D03*
D11*
X338137500Y-101092000D03*
%TD*%
D10*
%TO.C,SW15*%
X321151250Y-92868750D03*
D11*
X326231250Y-92868750D03*
D10*
X331311250Y-92868750D03*
D12*
X322421250Y-90328750D03*
X328771250Y-87788750D03*
%TD*%
D10*
%TO.C,SW29*%
X283051250Y-111918750D03*
D11*
X288131250Y-111918750D03*
D10*
X293211250Y-111918750D03*
D12*
X284321250Y-109378750D03*
X290671250Y-106838750D03*
%TD*%
D16*
%TO.C,C15*%
X83309194Y-121074731D03*
X82349194Y-121074731D03*
%TD*%
D17*
%TO.C,D29*%
X295275000Y-118331250D03*
X295275000Y-115031250D03*
%TD*%
%TO.C,D56*%
X176212500Y-156431250D03*
X176212500Y-153131250D03*
%TD*%
%TO.C,D40*%
X185737500Y-137381250D03*
X185737500Y-134081250D03*
%TD*%
%TO.C,D14*%
X323850000Y-99281250D03*
X323850000Y-95981250D03*
%TD*%
%TO.C,D39*%
X166687500Y-137381250D03*
X166687500Y-134081250D03*
%TD*%
%TO.C,D49*%
X361950000Y-137381250D03*
X361950000Y-134081250D03*
%TD*%
%TO.C,D43*%
X242887500Y-137381250D03*
X242887500Y-134081250D03*
%TD*%
D16*
%TO.C,C14*%
X83309194Y-120058731D03*
X82349194Y-120058731D03*
%TD*%
D17*
%TO.C,D84*%
X361950000Y-175481250D03*
X361950000Y-172181250D03*
%TD*%
D18*
%TO.C,C5*%
X96266000Y-99893000D03*
X96266000Y-98933000D03*
%TD*%
D17*
%TO.C,D52*%
X100012500Y-156431250D03*
X100012500Y-153131250D03*
%TD*%
%TO.C,D77*%
X251206000Y-173099000D03*
X251206000Y-169799000D03*
%TD*%
%TO.C,D1*%
X76200000Y-99281250D03*
X76200000Y-95981250D03*
%TD*%
D18*
%TO.C,C6*%
X85372006Y-118296732D03*
X85372006Y-117336732D03*
%TD*%
%TO.C,C1*%
X91440000Y-115514000D03*
X91440000Y-114554000D03*
%TD*%
D17*
%TO.C,D70*%
X126238000Y-175514000D03*
X126238000Y-172214000D03*
%TD*%
D19*
%TO.C,R2*%
X86388006Y-117306732D03*
X86388006Y-118326732D03*
%TD*%
D20*
%TO.C,LED1*%
X73475000Y-135298750D03*
X73475000Y-136798750D03*
X78925000Y-135298750D03*
D21*
X78925000Y-136798750D03*
%TD*%
D16*
%TO.C,C16*%
X83157000Y-125476000D03*
X82197000Y-125476000D03*
%TD*%
D17*
%TO.C,D24*%
X200025000Y-118331250D03*
X200025000Y-115031250D03*
%TD*%
%TO.C,D68*%
X102393750Y-175481250D03*
X102393750Y-172181250D03*
%TD*%
D18*
%TO.C,C8*%
X89817006Y-117534732D03*
X89817006Y-116574732D03*
%TD*%
D17*
%TO.C,D72*%
X170561000Y-175513000D03*
X170561000Y-172213000D03*
%TD*%
%TO.C,D33*%
X361950000Y-118331250D03*
X361950000Y-115031250D03*
%TD*%
%TO.C,D18*%
X81661000Y-112013000D03*
X81661000Y-108713000D03*
%TD*%
%TO.C,D38*%
X147637500Y-137381250D03*
X147637500Y-134081250D03*
%TD*%
D22*
%TO.C,C11*%
X86385194Y-131742731D03*
X85706372Y-132421553D03*
%TD*%
D17*
%TO.C,D35*%
X83439000Y-137285000D03*
X83439000Y-133985000D03*
%TD*%
%TO.C,D51*%
X88106250Y-156431250D03*
X88106250Y-153131250D03*
%TD*%
%TO.C,D37*%
X128587500Y-137381250D03*
X128587500Y-134081250D03*
%TD*%
%TO.C,D30*%
X314325000Y-118331250D03*
X314325000Y-115031250D03*
%TD*%
%TO.C,D46*%
X300482000Y-136016000D03*
X300482000Y-132716000D03*
%TD*%
%TO.C,D7*%
X190500000Y-99281250D03*
X190500000Y-95981250D03*
%TD*%
D23*
%TO.C,SW85*%
X110796000Y-114355000D03*
X104596000Y-114355000D03*
X110796000Y-118055000D03*
X104596000Y-118055000D03*
%TD*%
D17*
%TO.C,D58*%
X214312500Y-156431250D03*
X214312500Y-153131250D03*
%TD*%
%TO.C,D82*%
X320167000Y-175481250D03*
X320167000Y-172181250D03*
%TD*%
%TO.C,D27*%
X257175000Y-118331250D03*
X257175000Y-115031250D03*
%TD*%
D24*
%TO.C,C12*%
X92992000Y-121666000D03*
X93952000Y-121666000D03*
%TD*%
D17*
%TO.C,D80*%
X290512500Y-175481250D03*
X290512500Y-172181250D03*
%TD*%
%TO.C,D5*%
X152400000Y-99281250D03*
X152400000Y-95981250D03*
%TD*%
%TO.C,D64*%
X342900000Y-156431250D03*
X342900000Y-153131250D03*
%TD*%
%TO.C,D61*%
X271462500Y-156431250D03*
X271462500Y-153131250D03*
%TD*%
D25*
%TO.C,U1*%
X91468006Y-122287732D03*
X91468006Y-122687732D03*
X91468006Y-123087732D03*
X91468006Y-123487732D03*
X91468006Y-123887732D03*
X91468006Y-124287732D03*
X91468006Y-124687732D03*
X91468006Y-125087732D03*
X91468006Y-125487732D03*
X91468006Y-125887732D03*
X91468006Y-126287732D03*
X91468006Y-126687732D03*
X91468006Y-127087732D03*
X91468006Y-127487732D03*
D26*
X90630506Y-128325232D03*
X90230506Y-128325232D03*
X89830506Y-128325232D03*
X89430506Y-128325232D03*
X89030506Y-128325232D03*
X88630506Y-128325232D03*
X88230506Y-128325232D03*
X87830506Y-128325232D03*
X87430506Y-128325232D03*
X87030506Y-128325232D03*
X86630506Y-128325232D03*
X86230506Y-128325232D03*
X85830506Y-128325232D03*
X85430506Y-128325232D03*
D25*
X84593006Y-127487732D03*
X84593006Y-127087732D03*
X84593006Y-126687732D03*
X84593006Y-126287732D03*
X84593006Y-125887732D03*
X84593006Y-125487732D03*
X84593006Y-125087732D03*
X84593006Y-124687732D03*
X84593006Y-124287732D03*
X84593006Y-123887732D03*
X84593006Y-123487732D03*
X84593006Y-123087732D03*
X84593006Y-122687732D03*
X84593006Y-122287732D03*
D26*
X85430506Y-121450232D03*
X85830506Y-121450232D03*
X86230506Y-121450232D03*
X86630506Y-121450232D03*
X87030506Y-121450232D03*
X87430506Y-121450232D03*
X87830506Y-121450232D03*
X88230506Y-121450232D03*
X88630506Y-121450232D03*
X89030506Y-121450232D03*
X89430506Y-121450232D03*
X89830506Y-121450232D03*
X90230506Y-121450232D03*
X90630506Y-121450232D03*
D27*
X88030506Y-124887732D03*
%TD*%
D17*
%TO.C,D11*%
X266700000Y-99281250D03*
X266700000Y-95981250D03*
%TD*%
D28*
%TO.C,C3*%
X87677441Y-132438663D03*
X88356263Y-133117485D03*
%TD*%
D17*
%TO.C,D54*%
X138112500Y-156431250D03*
X138112500Y-153131250D03*
%TD*%
%TO.C,D21*%
X142875000Y-118331250D03*
X142875000Y-115031250D03*
%TD*%
%TO.C,D15*%
X333375000Y-99281250D03*
X333375000Y-95981250D03*
%TD*%
D16*
%TO.C,C10*%
X83309194Y-119042731D03*
X82349194Y-119042731D03*
%TD*%
D17*
%TO.C,D65*%
X361950000Y-156431250D03*
X361950000Y-153131250D03*
%TD*%
D29*
%TO.C,Y1*%
X89636218Y-134206708D03*
X91191853Y-132651073D03*
X92393934Y-133853154D03*
X90838299Y-135408789D03*
%TD*%
D17*
%TO.C,D62*%
X290512500Y-156431250D03*
X290512500Y-153131250D03*
%TD*%
%TO.C,D2*%
X96520000Y-92582000D03*
X96520000Y-89282000D03*
%TD*%
%TO.C,D22*%
X161925000Y-118331250D03*
X161925000Y-115031250D03*
%TD*%
%TO.C,D28*%
X276225000Y-118331250D03*
X276225000Y-115031250D03*
%TD*%
D30*
%TO.C,R5*%
X71577200Y-140260800D03*
X71577200Y-139240800D03*
%TD*%
D22*
%TO.C,C7*%
X85623194Y-130980731D03*
X84944372Y-131659553D03*
%TD*%
D17*
%TO.C,D59*%
X233362500Y-156431250D03*
X233362500Y-153131250D03*
%TD*%
%TO.C,D8*%
X209550000Y-99281250D03*
X209550000Y-95981250D03*
%TD*%
%TO.C,D25*%
X219075000Y-118331250D03*
X219075000Y-115031250D03*
%TD*%
%TO.C,D4*%
X133350000Y-99281250D03*
X133350000Y-95981250D03*
%TD*%
%TO.C,D41*%
X204787500Y-137381250D03*
X204787500Y-134081250D03*
%TD*%
%TO.C,D74*%
X197643750Y-175481250D03*
X197643750Y-172181250D03*
%TD*%
%TO.C,D57*%
X195262500Y-156431250D03*
X195262500Y-153131250D03*
%TD*%
%TO.C,D26*%
X238125000Y-118331250D03*
X238125000Y-115031250D03*
%TD*%
%TO.C,D55*%
X157162500Y-156431250D03*
X157162500Y-153131250D03*
%TD*%
%TO.C,D44*%
X261937500Y-137381250D03*
X261937500Y-134081250D03*
%TD*%
%TO.C,D16*%
X358648000Y-98551000D03*
X358648000Y-95251000D03*
%TD*%
D31*
%TO.C,C2*%
X95278006Y-135088732D03*
X94599184Y-134409910D03*
%TD*%
D32*
%TO.C,U3*%
X99900500Y-101788000D03*
X99900500Y-99888000D03*
X101775500Y-100838000D03*
%TD*%
D17*
%TO.C,D19*%
X106172000Y-111632000D03*
X106172000Y-108332000D03*
%TD*%
%TO.C,D36*%
X109537500Y-137381250D03*
X109537500Y-134081250D03*
%TD*%
D24*
%TO.C,C17*%
X93373000Y-125730000D03*
X94333000Y-125730000D03*
%TD*%
D19*
%TO.C,R1*%
X87404006Y-117306732D03*
X87404006Y-118326732D03*
%TD*%
D17*
%TO.C,D12*%
X285750000Y-99281250D03*
X285750000Y-95981250D03*
%TD*%
%TO.C,D10*%
X247650000Y-99281250D03*
X247650000Y-95981250D03*
%TD*%
D33*
%TO.C,U2*%
X100533200Y-115570000D03*
X100533200Y-116840000D03*
X100533200Y-118110000D03*
X100533200Y-119380000D03*
X93333200Y-119380000D03*
X93333200Y-118110000D03*
X93333200Y-116840000D03*
X93333200Y-115570000D03*
%TD*%
D17*
%TO.C,D9*%
X228600000Y-99281250D03*
X228600000Y-95981250D03*
%TD*%
D34*
%TO.C,C4*%
X103632000Y-100866000D03*
X103632000Y-101826000D03*
%TD*%
D35*
%TO.C,U4*%
X112075000Y-101378000D03*
X111125000Y-101378000D03*
X110175000Y-101378000D03*
X110175000Y-99028000D03*
X111125000Y-99028000D03*
X112075000Y-99028000D03*
%TD*%
D36*
%TO.C,J1*%
X124014000Y-98709000D03*
X124014000Y-99709000D03*
X124014000Y-100709000D03*
X124014000Y-101709000D03*
D37*
X127889000Y-97409000D03*
X127889000Y-103009000D03*
%TD*%
D18*
%TO.C,C9*%
X97917000Y-99921000D03*
X97917000Y-98961000D03*
%TD*%
D17*
%TO.C,D83*%
X342900000Y-175481250D03*
X342900000Y-172181250D03*
%TD*%
%TO.C,D20*%
X123825000Y-118331250D03*
X123825000Y-115031250D03*
%TD*%
D24*
%TO.C,C18*%
X70104000Y-135255000D03*
X71064000Y-135255000D03*
%TD*%
D17*
%TO.C,D31*%
X338137500Y-118331250D03*
X338137500Y-115031250D03*
%TD*%
%TO.C,D13*%
X304800000Y-99281250D03*
X304800000Y-95981250D03*
%TD*%
%TO.C,D63*%
X316706250Y-156431250D03*
X316706250Y-153131250D03*
%TD*%
%TO.C,D42*%
X223837500Y-137381250D03*
X223837500Y-134081250D03*
%TD*%
%TO.C,D45*%
X280987500Y-137381250D03*
X280987500Y-134081250D03*
%TD*%
%TO.C,D3*%
X115189000Y-93217000D03*
X115189000Y-89917000D03*
%TD*%
%TO.C,D53*%
X119062500Y-156431250D03*
X119062500Y-153131250D03*
%TD*%
%TO.C,D66*%
X78581250Y-175481250D03*
X78581250Y-172181250D03*
%TD*%
D19*
%TO.C,R3*%
X102260400Y-114501200D03*
X102260400Y-115521200D03*
%TD*%
D38*
%TO.C,R4*%
X89454604Y-132229322D03*
X90175852Y-131508074D03*
%TD*%
D17*
%TO.C,D47*%
X319087500Y-137381250D03*
X319087500Y-134081250D03*
%TD*%
D18*
%TO.C,C13*%
X88420006Y-118296732D03*
X88420006Y-117336732D03*
%TD*%
D17*
%TO.C,D60*%
X252412500Y-156431250D03*
X252412500Y-153131250D03*
%TD*%
D39*
%TO.C,F1*%
X111584500Y-96774000D03*
X113459500Y-96774000D03*
%TD*%
D17*
%TO.C,D23*%
X180975000Y-118331250D03*
X180975000Y-115031250D03*
%TD*%
%TO.C,D6*%
X171450000Y-99281250D03*
X171450000Y-95981250D03*
%TD*%
%TO.C,D79*%
X269081250Y-175481250D03*
X269081250Y-172181250D03*
%TD*%
M02*
