%TF.GenerationSoftware,KiCad,Pcbnew,7.0.2-0*%
%TF.CreationDate,2023-05-06T20:32:05+03:00*%
%TF.ProjectId,rp2040-bakeneko65,72703230-3430-42d6-9261-6b656e656b6f,rev?*%
%TF.SameCoordinates,Original*%
%TF.FileFunction,Legend,Top*%
%TF.FilePolarity,Positive*%
%FSLAX46Y46*%
G04 Gerber Fmt 4.6, Leading zero omitted, Abs format (unit mm)*
G04 Created by KiCad (PCBNEW 7.0.2-0) date 2023-05-06 20:32:05*
%MOMM*%
%LPD*%
G01*
G04 APERTURE LIST*
%ADD10C,0.150000*%
%ADD11C,0.120000*%
%ADD12C,1.750000*%
%ADD13C,3.987800*%
%ADD14R,1.700000X1.700000*%
%ADD15O,1.700000X1.700000*%
G04 APERTURE END LIST*
D10*
X60309095Y-154690619D02*
X60309095Y-153690619D01*
X60309095Y-153690619D02*
X60547190Y-153690619D01*
X60547190Y-153690619D02*
X60690047Y-153738238D01*
X60690047Y-153738238D02*
X60785285Y-153833476D01*
X60785285Y-153833476D02*
X60832904Y-153928714D01*
X60832904Y-153928714D02*
X60880523Y-154119190D01*
X60880523Y-154119190D02*
X60880523Y-154262047D01*
X60880523Y-154262047D02*
X60832904Y-154452523D01*
X60832904Y-154452523D02*
X60785285Y-154547761D01*
X60785285Y-154547761D02*
X60690047Y-154643000D01*
X60690047Y-154643000D02*
X60547190Y-154690619D01*
X60547190Y-154690619D02*
X60309095Y-154690619D01*
X61690047Y-154643000D02*
X61594809Y-154690619D01*
X61594809Y-154690619D02*
X61404333Y-154690619D01*
X61404333Y-154690619D02*
X61309095Y-154643000D01*
X61309095Y-154643000D02*
X61261476Y-154547761D01*
X61261476Y-154547761D02*
X61261476Y-154166809D01*
X61261476Y-154166809D02*
X61309095Y-154071571D01*
X61309095Y-154071571D02*
X61404333Y-154023952D01*
X61404333Y-154023952D02*
X61594809Y-154023952D01*
X61594809Y-154023952D02*
X61690047Y-154071571D01*
X61690047Y-154071571D02*
X61737666Y-154166809D01*
X61737666Y-154166809D02*
X61737666Y-154262047D01*
X61737666Y-154262047D02*
X61261476Y-154357285D01*
X62166238Y-154690619D02*
X62166238Y-153690619D01*
X62166238Y-154071571D02*
X62261476Y-154023952D01*
X62261476Y-154023952D02*
X62451952Y-154023952D01*
X62451952Y-154023952D02*
X62547190Y-154071571D01*
X62547190Y-154071571D02*
X62594809Y-154119190D01*
X62594809Y-154119190D02*
X62642428Y-154214428D01*
X62642428Y-154214428D02*
X62642428Y-154500142D01*
X62642428Y-154500142D02*
X62594809Y-154595380D01*
X62594809Y-154595380D02*
X62547190Y-154643000D01*
X62547190Y-154643000D02*
X62451952Y-154690619D01*
X62451952Y-154690619D02*
X62261476Y-154690619D01*
X62261476Y-154690619D02*
X62166238Y-154643000D01*
X63499571Y-154023952D02*
X63499571Y-154690619D01*
X63071000Y-154023952D02*
X63071000Y-154547761D01*
X63071000Y-154547761D02*
X63118619Y-154643000D01*
X63118619Y-154643000D02*
X63213857Y-154690619D01*
X63213857Y-154690619D02*
X63356714Y-154690619D01*
X63356714Y-154690619D02*
X63451952Y-154643000D01*
X63451952Y-154643000D02*
X63499571Y-154595380D01*
X64404333Y-154023952D02*
X64404333Y-154833476D01*
X64404333Y-154833476D02*
X64356714Y-154928714D01*
X64356714Y-154928714D02*
X64309095Y-154976333D01*
X64309095Y-154976333D02*
X64213857Y-155023952D01*
X64213857Y-155023952D02*
X64071000Y-155023952D01*
X64071000Y-155023952D02*
X63975762Y-154976333D01*
X64404333Y-154643000D02*
X64309095Y-154690619D01*
X64309095Y-154690619D02*
X64118619Y-154690619D01*
X64118619Y-154690619D02*
X64023381Y-154643000D01*
X64023381Y-154643000D02*
X63975762Y-154595380D01*
X63975762Y-154595380D02*
X63928143Y-154500142D01*
X63928143Y-154500142D02*
X63928143Y-154214428D01*
X63928143Y-154214428D02*
X63975762Y-154119190D01*
X63975762Y-154119190D02*
X64023381Y-154071571D01*
X64023381Y-154071571D02*
X64118619Y-154023952D01*
X64118619Y-154023952D02*
X64309095Y-154023952D01*
X64309095Y-154023952D02*
X64404333Y-154071571D01*
D11*
%TO.C,J2*%
X60900000Y-142494000D02*
X60900000Y-152714000D01*
X60900000Y-142494000D02*
X63560000Y-142494000D01*
X60900000Y-152714000D02*
X63560000Y-152714000D01*
X62230000Y-139894000D02*
X63560000Y-139894000D01*
X63560000Y-139894000D02*
X63560000Y-141224000D01*
X63560000Y-142494000D02*
X63560000Y-152714000D01*
%TD*%
%LPC*%
D12*
%TO.C,SW42*%
X211613750Y-130968750D03*
D13*
X216693750Y-130968750D03*
D12*
X221773750Y-130968750D03*
%TD*%
%TO.C,SW27*%
X244951250Y-111918750D03*
D13*
X250031250Y-111918750D03*
D12*
X255111250Y-111918750D03*
%TD*%
%TO.C,SW76*%
X197326250Y-169068750D03*
D13*
X202406250Y-169068750D03*
D12*
X207486250Y-169068750D03*
%TD*%
%TO.C,SW14*%
X311626250Y-92868750D03*
D13*
X316706250Y-92868750D03*
D12*
X321786250Y-92868750D03*
%TD*%
%TO.C,SW41*%
X192563750Y-130968750D03*
D13*
X197643750Y-130968750D03*
D12*
X202723750Y-130968750D03*
%TD*%
%TO.C,SW39*%
X154463750Y-130968750D03*
D13*
X159543750Y-130968750D03*
D12*
X164623750Y-130968750D03*
%TD*%
%TO.C,SW33*%
X349726250Y-111918750D03*
D13*
X354806250Y-111918750D03*
D12*
X359886250Y-111918750D03*
%TD*%
%TO.C,SW37*%
X116363750Y-130968750D03*
D13*
X121443750Y-130968750D03*
D12*
X126523750Y-130968750D03*
%TD*%
%TO.C,SW43*%
X230663750Y-130968750D03*
D13*
X235743750Y-130968750D03*
D12*
X240823750Y-130968750D03*
%TD*%
%TO.C,SW52*%
X87788750Y-150018750D03*
D13*
X92868750Y-150018750D03*
D12*
X97948750Y-150018750D03*
%TD*%
%TO.C,SW17*%
X330708000Y-92837000D03*
D13*
X335788000Y-92837000D03*
D12*
X340868000Y-92837000D03*
%TD*%
%TO.C,SW68*%
X90170000Y-169068750D03*
D13*
X95250000Y-169068750D03*
D12*
X100330000Y-169068750D03*
%TD*%
%TO.C,SW21*%
X130651250Y-111918750D03*
D13*
X135731250Y-111918750D03*
D12*
X140811250Y-111918750D03*
%TD*%
%TO.C,SW40*%
X173513750Y-130968750D03*
D13*
X178593750Y-130968750D03*
D12*
X183673750Y-130968750D03*
%TD*%
D13*
%TO.C,S73*%
X176212500Y-160813750D03*
X152400000Y-160813750D03*
%TD*%
D12*
%TO.C,SW75*%
X192563750Y-169068750D03*
D13*
X197643750Y-169068750D03*
D12*
X202723750Y-169068750D03*
%TD*%
%TO.C,SW45*%
X268763750Y-130968750D03*
D13*
X273843750Y-130968750D03*
D12*
X278923750Y-130968750D03*
%TD*%
%TO.C,SW7*%
X178276250Y-92868750D03*
D13*
X183356250Y-92868750D03*
D12*
X188436250Y-92868750D03*
%TD*%
%TO.C,SW77*%
X235426250Y-169068750D03*
D13*
X240506250Y-169068750D03*
D12*
X245586250Y-169068750D03*
%TD*%
%TO.C,SW53*%
X106838750Y-150018750D03*
D13*
X111918750Y-150018750D03*
D12*
X116998750Y-150018750D03*
%TD*%
%TO.C,SW56*%
X163988750Y-150018750D03*
D13*
X169068750Y-150018750D03*
D12*
X174148750Y-150018750D03*
%TD*%
%TO.C,SW4*%
X121126250Y-92868750D03*
D13*
X126206250Y-92868750D03*
D12*
X131286250Y-92868750D03*
%TD*%
%TO.C,SW1*%
X63976250Y-92868750D03*
D13*
X69056250Y-92868750D03*
D12*
X74136250Y-92868750D03*
%TD*%
%TO.C,SW80*%
X278288750Y-169068750D03*
D13*
X283368750Y-169068750D03*
D12*
X288448750Y-169068750D03*
%TD*%
%TO.C,SW34*%
X66357500Y-130968750D03*
D13*
X71437500Y-130968750D03*
D12*
X76517500Y-130968750D03*
%TD*%
%TO.C,SW59*%
X221138750Y-150018750D03*
D13*
X226218750Y-150018750D03*
D12*
X231298750Y-150018750D03*
%TD*%
%TO.C,SW9*%
X216376250Y-92868750D03*
D13*
X221456250Y-92868750D03*
D12*
X226536250Y-92868750D03*
%TD*%
D14*
%TO.C,J2*%
X62230000Y-141224000D03*
D15*
X62230000Y-143764000D03*
X62230000Y-146304000D03*
X62230000Y-148844000D03*
X62230000Y-151384000D03*
%TD*%
D12*
%TO.C,SW6*%
X159226250Y-92868750D03*
D13*
X164306250Y-92868750D03*
D12*
X169386250Y-92868750D03*
%TD*%
%TO.C,SW81*%
X280670000Y-169068750D03*
D13*
X285750000Y-169068750D03*
D12*
X290830000Y-169068750D03*
%TD*%
D13*
%TO.C,S77*%
X259556250Y-160813750D03*
X221456250Y-160813750D03*
%TD*%
D12*
%TO.C,SW38*%
X135413750Y-130968750D03*
D13*
X140493750Y-130968750D03*
D12*
X145573750Y-130968750D03*
%TD*%
D13*
%TO.C,S50*%
X69056250Y-158273750D03*
X92868750Y-158273750D03*
%TD*%
D12*
%TO.C,SW66*%
X66357500Y-169068750D03*
D13*
X71437500Y-169068750D03*
D12*
X76517500Y-169068750D03*
%TD*%
%TO.C,SW51*%
X75882500Y-150018750D03*
D13*
X80962500Y-150018750D03*
D12*
X86042500Y-150018750D03*
%TD*%
%TO.C,SW55*%
X144938750Y-150018750D03*
D13*
X150018750Y-150018750D03*
D12*
X155098750Y-150018750D03*
%TD*%
%TO.C,SW44*%
X249713750Y-130968750D03*
D13*
X254793750Y-130968750D03*
D12*
X259873750Y-130968750D03*
%TD*%
%TO.C,SW57*%
X183038750Y-150018750D03*
D13*
X188118750Y-150018750D03*
D12*
X193198750Y-150018750D03*
%TD*%
%TO.C,SW30*%
X302101250Y-111918750D03*
D13*
X307181250Y-111918750D03*
D12*
X312261250Y-111918750D03*
%TD*%
%TO.C,SW2*%
X83026250Y-92868750D03*
D13*
X88106250Y-92868750D03*
D12*
X93186250Y-92868750D03*
%TD*%
D13*
%TO.C,S78*%
X254793750Y-160813750D03*
X230981250Y-160813750D03*
%TD*%
D12*
%TO.C,SW84*%
X349726250Y-169068750D03*
D13*
X354806250Y-169068750D03*
D12*
X359886250Y-169068750D03*
%TD*%
%TO.C,SW20*%
X111601250Y-111918750D03*
D13*
X116681250Y-111918750D03*
D12*
X121761250Y-111918750D03*
%TD*%
%TO.C,SW35*%
X71120000Y-130968750D03*
D13*
X76200000Y-130968750D03*
D12*
X81280000Y-130968750D03*
%TD*%
%TO.C,SW18*%
X68738750Y-111918750D03*
D13*
X73818750Y-111918750D03*
D12*
X78898750Y-111918750D03*
%TD*%
%TO.C,SW49*%
X349726250Y-130968750D03*
D13*
X354806250Y-130968750D03*
D12*
X359886250Y-130968750D03*
%TD*%
%TO.C,SW54*%
X125888750Y-150018750D03*
D13*
X130968750Y-150018750D03*
D12*
X136048750Y-150018750D03*
%TD*%
%TO.C,SW73*%
X159226250Y-169068750D03*
D13*
X164306250Y-169068750D03*
D12*
X169386250Y-169068750D03*
%TD*%
%TO.C,SW22*%
X149701250Y-111918750D03*
D13*
X154781250Y-111918750D03*
D12*
X159861250Y-111918750D03*
%TD*%
%TO.C,SW12*%
X273526250Y-92868750D03*
D13*
X278606250Y-92868750D03*
D12*
X283686250Y-92868750D03*
%TD*%
%TO.C,SW62*%
X278288750Y-150018750D03*
D13*
X283368750Y-150018750D03*
D12*
X288448750Y-150018750D03*
%TD*%
%TO.C,SW8*%
X197326250Y-92868750D03*
D13*
X202406250Y-92868750D03*
D12*
X207486250Y-92868750D03*
%TD*%
%TO.C,SW83*%
X330676250Y-169068750D03*
D13*
X335756250Y-169068750D03*
D12*
X340836250Y-169068750D03*
%TD*%
D13*
%TO.C,S32*%
X325120000Y-133350000D03*
X325120000Y-109537500D03*
%TD*%
D12*
%TO.C,SW46*%
X287813750Y-130968750D03*
D13*
X292893750Y-130968750D03*
D12*
X297973750Y-130968750D03*
%TD*%
%TO.C,SW48*%
X318770000Y-130968750D03*
D13*
X323850000Y-130968750D03*
D12*
X328930000Y-130968750D03*
%TD*%
%TO.C,SW67*%
X68738750Y-169068750D03*
D13*
X73818750Y-169068750D03*
D12*
X78898750Y-169068750D03*
%TD*%
%TO.C,SW61*%
X259238750Y-150018750D03*
D13*
X264318750Y-150018750D03*
D12*
X269398750Y-150018750D03*
%TD*%
%TO.C,SW82*%
X311626250Y-169068750D03*
D13*
X316706250Y-169068750D03*
D12*
X321786250Y-169068750D03*
%TD*%
%TO.C,SW26*%
X225901250Y-111918750D03*
D13*
X230981250Y-111918750D03*
D12*
X236061250Y-111918750D03*
%TD*%
D13*
%TO.C,S75*%
X247650000Y-160813750D03*
X147637500Y-160813750D03*
%TD*%
D12*
%TO.C,SW79*%
X256857500Y-169068750D03*
D13*
X261937500Y-169068750D03*
D12*
X267017500Y-169068750D03*
%TD*%
%TO.C,SW47*%
X306863750Y-130968750D03*
D13*
X311943750Y-130968750D03*
D12*
X317023750Y-130968750D03*
%TD*%
%TO.C,SW32*%
X328295000Y-121443750D03*
D13*
X333375000Y-121443750D03*
D12*
X338455000Y-121443750D03*
%TD*%
D13*
%TO.C,S74*%
X247650000Y-160813750D03*
X133350000Y-160813750D03*
%TD*%
%TO.C,S47*%
X300037500Y-139223750D03*
X323850000Y-139223750D03*
%TD*%
D12*
%TO.C,SW10*%
X235426250Y-92868750D03*
D13*
X240506250Y-92868750D03*
D12*
X245586250Y-92868750D03*
%TD*%
%TO.C,SW31*%
X325913750Y-111918750D03*
D13*
X330993750Y-111918750D03*
D12*
X336073750Y-111918750D03*
%TD*%
%TO.C,SW11*%
X254476250Y-92868750D03*
D13*
X259556250Y-92868750D03*
D12*
X264636250Y-92868750D03*
%TD*%
%TO.C,SW70*%
X113982500Y-169068750D03*
D13*
X119062500Y-169068750D03*
D12*
X124142500Y-169068750D03*
%TD*%
%TO.C,SW5*%
X140176250Y-92868750D03*
D13*
X145256250Y-92868750D03*
D12*
X150336250Y-92868750D03*
%TD*%
%TO.C,SW78*%
X237807500Y-169068750D03*
D13*
X242887500Y-169068750D03*
D12*
X247967500Y-169068750D03*
%TD*%
%TO.C,SW16*%
X349758000Y-92837000D03*
D13*
X354838000Y-92837000D03*
D12*
X359918000Y-92837000D03*
%TD*%
%TO.C,SW13*%
X292576250Y-92868750D03*
D13*
X297656250Y-92868750D03*
D12*
X302736250Y-92868750D03*
%TD*%
%TO.C,SW3*%
X102076250Y-92868750D03*
D13*
X107156250Y-92868750D03*
D12*
X112236250Y-92868750D03*
%TD*%
%TO.C,SW72*%
X152082500Y-169068750D03*
D13*
X157162500Y-169068750D03*
D12*
X162242500Y-169068750D03*
%TD*%
%TO.C,SW23*%
X168751250Y-111918750D03*
D13*
X173831250Y-111918750D03*
D12*
X178911250Y-111918750D03*
%TD*%
%TO.C,SW65*%
X349726250Y-150018750D03*
D13*
X354806250Y-150018750D03*
D12*
X359886250Y-150018750D03*
%TD*%
%TO.C,SW69*%
X92551250Y-169068750D03*
D13*
X97631250Y-169068750D03*
D12*
X102711250Y-169068750D03*
%TD*%
%TO.C,SW19*%
X92551250Y-111918750D03*
D13*
X97631250Y-111918750D03*
D12*
X102711250Y-111918750D03*
%TD*%
%TO.C,SW25*%
X206851250Y-111918750D03*
D13*
X211931250Y-111918750D03*
D12*
X217011250Y-111918750D03*
%TD*%
%TO.C,SW74*%
X185420000Y-169068750D03*
D13*
X190500000Y-169068750D03*
D12*
X195580000Y-169068750D03*
%TD*%
%TO.C,SW71*%
X116363750Y-169068750D03*
D13*
X121443750Y-169068750D03*
D12*
X126523750Y-169068750D03*
%TD*%
%TO.C,SW24*%
X187801250Y-111918750D03*
D13*
X192881250Y-111918750D03*
D12*
X197961250Y-111918750D03*
%TD*%
%TO.C,SW60*%
X240188750Y-150018750D03*
D13*
X245268750Y-150018750D03*
D12*
X250348750Y-150018750D03*
%TD*%
D13*
%TO.C,S76*%
X214312500Y-160813750D03*
X190500000Y-160813750D03*
%TD*%
D12*
%TO.C,SW63*%
X304482500Y-150018750D03*
D13*
X309562500Y-150018750D03*
D12*
X314642500Y-150018750D03*
%TD*%
%TO.C,SW50*%
X66357500Y-150018750D03*
D13*
X71437500Y-150018750D03*
D12*
X76517500Y-150018750D03*
%TD*%
%TO.C,SW58*%
X202088750Y-150018750D03*
D13*
X207168750Y-150018750D03*
D12*
X212248750Y-150018750D03*
%TD*%
D13*
%TO.C,S72*%
X176212500Y-160813750D03*
X138112500Y-160813750D03*
%TD*%
D12*
%TO.C,SW36*%
X97313750Y-130968750D03*
D13*
X102393750Y-130968750D03*
D12*
X107473750Y-130968750D03*
%TD*%
%TO.C,SW28*%
X264001250Y-111918750D03*
D13*
X269081250Y-111918750D03*
D12*
X274161250Y-111918750D03*
%TD*%
%TO.C,SW64*%
X330676250Y-150018750D03*
D13*
X335756250Y-150018750D03*
D12*
X340836250Y-150018750D03*
%TD*%
D13*
%TO.C,S17*%
X314325000Y-101092000D03*
X338137500Y-101092000D03*
%TD*%
D12*
%TO.C,SW15*%
X321151250Y-92868750D03*
D13*
X326231250Y-92868750D03*
D12*
X331311250Y-92868750D03*
%TD*%
%TO.C,SW29*%
X283051250Y-111918750D03*
D13*
X288131250Y-111918750D03*
D12*
X293211250Y-111918750D03*
%TD*%
%LPD*%
M02*
