%TF.GenerationSoftware,KiCad,Pcbnew,7.0.2-0*%
%TF.CreationDate,2023-05-06T20:32:05+03:00*%
%TF.ProjectId,rp2040-bakeneko65,72703230-3430-42d6-9261-6b656e656b6f,rev?*%
%TF.SameCoordinates,Original*%
%TF.FileFunction,Other,Comment*%
%FSLAX46Y46*%
G04 Gerber Fmt 4.6, Leading zero omitted, Abs format (unit mm)*
G04 Created by KiCad (PCBNEW 7.0.2-0) date 2023-05-06 20:32:05*
%MOMM*%
%LPD*%
G01*
G04 APERTURE LIST*
%ADD10C,0.150000*%
%ADD11C,0.030000*%
%ADD12C,0.120000*%
G04 APERTURE END LIST*
D10*
%TO.C,LED1*%
X71342856Y-130213750D02*
X71438094Y-130261369D01*
X71438094Y-130261369D02*
X71628570Y-130261369D01*
X71628570Y-130261369D02*
X71723808Y-130213750D01*
X71723808Y-130213750D02*
X71771427Y-130118511D01*
X71771427Y-130118511D02*
X71771427Y-130070892D01*
X71771427Y-130070892D02*
X71723808Y-129975654D01*
X71723808Y-129975654D02*
X71628570Y-129928035D01*
X71628570Y-129928035D02*
X71485713Y-129928035D01*
X71485713Y-129928035D02*
X71390475Y-129880416D01*
X71390475Y-129880416D02*
X71342856Y-129785178D01*
X71342856Y-129785178D02*
X71342856Y-129737559D01*
X71342856Y-129737559D02*
X71390475Y-129642321D01*
X71390475Y-129642321D02*
X71485713Y-129594702D01*
X71485713Y-129594702D02*
X71628570Y-129594702D01*
X71628570Y-129594702D02*
X71723808Y-129642321D01*
X72104761Y-129594702D02*
X72295237Y-130261369D01*
X72295237Y-130261369D02*
X72485713Y-129785178D01*
X72485713Y-129785178D02*
X72676189Y-130261369D01*
X72676189Y-130261369D02*
X72866665Y-129594702D01*
X73247618Y-130261369D02*
X73247618Y-129594702D01*
X73247618Y-129261369D02*
X73199999Y-129308988D01*
X73199999Y-129308988D02*
X73247618Y-129356607D01*
X73247618Y-129356607D02*
X73295237Y-129308988D01*
X73295237Y-129308988D02*
X73247618Y-129261369D01*
X73247618Y-129261369D02*
X73247618Y-129356607D01*
X73580951Y-129594702D02*
X73961903Y-129594702D01*
X73723808Y-129261369D02*
X73723808Y-130118511D01*
X73723808Y-130118511D02*
X73771427Y-130213750D01*
X73771427Y-130213750D02*
X73866665Y-130261369D01*
X73866665Y-130261369D02*
X73961903Y-130261369D01*
X74723808Y-130213750D02*
X74628570Y-130261369D01*
X74628570Y-130261369D02*
X74438094Y-130261369D01*
X74438094Y-130261369D02*
X74342856Y-130213750D01*
X74342856Y-130213750D02*
X74295237Y-130166130D01*
X74295237Y-130166130D02*
X74247618Y-130070892D01*
X74247618Y-130070892D02*
X74247618Y-129785178D01*
X74247618Y-129785178D02*
X74295237Y-129689940D01*
X74295237Y-129689940D02*
X74342856Y-129642321D01*
X74342856Y-129642321D02*
X74438094Y-129594702D01*
X74438094Y-129594702D02*
X74628570Y-129594702D01*
X74628570Y-129594702D02*
X74723808Y-129642321D01*
X75152380Y-130261369D02*
X75152380Y-129261369D01*
X75580951Y-130261369D02*
X75580951Y-129737559D01*
X75580951Y-129737559D02*
X75533332Y-129642321D01*
X75533332Y-129642321D02*
X75438094Y-129594702D01*
X75438094Y-129594702D02*
X75295237Y-129594702D01*
X75295237Y-129594702D02*
X75199999Y-129642321D01*
X75199999Y-129642321D02*
X75152380Y-129689940D01*
X77247618Y-130213750D02*
X77152380Y-130261369D01*
X77152380Y-130261369D02*
X76961904Y-130261369D01*
X76961904Y-130261369D02*
X76866666Y-130213750D01*
X76866666Y-130213750D02*
X76819047Y-130166130D01*
X76819047Y-130166130D02*
X76771428Y-130070892D01*
X76771428Y-130070892D02*
X76771428Y-129785178D01*
X76771428Y-129785178D02*
X76819047Y-129689940D01*
X76819047Y-129689940D02*
X76866666Y-129642321D01*
X76866666Y-129642321D02*
X76961904Y-129594702D01*
X76961904Y-129594702D02*
X77152380Y-129594702D01*
X77152380Y-129594702D02*
X77247618Y-129642321D01*
X78057142Y-130213750D02*
X77961904Y-130261369D01*
X77961904Y-130261369D02*
X77771428Y-130261369D01*
X77771428Y-130261369D02*
X77676190Y-130213750D01*
X77676190Y-130213750D02*
X77628571Y-130118511D01*
X77628571Y-130118511D02*
X77628571Y-129737559D01*
X77628571Y-129737559D02*
X77676190Y-129642321D01*
X77676190Y-129642321D02*
X77771428Y-129594702D01*
X77771428Y-129594702D02*
X77961904Y-129594702D01*
X77961904Y-129594702D02*
X78057142Y-129642321D01*
X78057142Y-129642321D02*
X78104761Y-129737559D01*
X78104761Y-129737559D02*
X78104761Y-129832797D01*
X78104761Y-129832797D02*
X77628571Y-129928035D01*
X78533333Y-129594702D02*
X78533333Y-130261369D01*
X78533333Y-129689940D02*
X78580952Y-129642321D01*
X78580952Y-129642321D02*
X78676190Y-129594702D01*
X78676190Y-129594702D02*
X78819047Y-129594702D01*
X78819047Y-129594702D02*
X78914285Y-129642321D01*
X78914285Y-129642321D02*
X78961904Y-129737559D01*
X78961904Y-129737559D02*
X78961904Y-130261369D01*
X79295238Y-129594702D02*
X79676190Y-129594702D01*
X79438095Y-129261369D02*
X79438095Y-130118511D01*
X79438095Y-130118511D02*
X79485714Y-130213750D01*
X79485714Y-130213750D02*
X79580952Y-130261369D01*
X79580952Y-130261369D02*
X79676190Y-130261369D01*
X80390476Y-130213750D02*
X80295238Y-130261369D01*
X80295238Y-130261369D02*
X80104762Y-130261369D01*
X80104762Y-130261369D02*
X80009524Y-130213750D01*
X80009524Y-130213750D02*
X79961905Y-130118511D01*
X79961905Y-130118511D02*
X79961905Y-129737559D01*
X79961905Y-129737559D02*
X80009524Y-129642321D01*
X80009524Y-129642321D02*
X80104762Y-129594702D01*
X80104762Y-129594702D02*
X80295238Y-129594702D01*
X80295238Y-129594702D02*
X80390476Y-129642321D01*
X80390476Y-129642321D02*
X80438095Y-129737559D01*
X80438095Y-129737559D02*
X80438095Y-129832797D01*
X80438095Y-129832797D02*
X79961905Y-129928035D01*
X80866667Y-130261369D02*
X80866667Y-129594702D01*
X80866667Y-129785178D02*
X80914286Y-129689940D01*
X80914286Y-129689940D02*
X80961905Y-129642321D01*
X80961905Y-129642321D02*
X81057143Y-129594702D01*
X81057143Y-129594702D02*
X81152381Y-129594702D01*
D11*
%TO.C,SW85*%
X108981715Y-116097523D02*
X108981715Y-115897523D01*
X109096000Y-116097523D02*
X109010286Y-115983238D01*
X109096000Y-115897523D02*
X108981715Y-116011809D01*
X109181715Y-115992761D02*
X109248381Y-115992761D01*
X109276953Y-116097523D02*
X109181715Y-116097523D01*
X109181715Y-116097523D02*
X109181715Y-115897523D01*
X109181715Y-115897523D02*
X109276953Y-115897523D01*
X109362667Y-115992761D02*
X109429333Y-115992761D01*
X109457905Y-116097523D02*
X109362667Y-116097523D01*
X109362667Y-116097523D02*
X109362667Y-115897523D01*
X109362667Y-115897523D02*
X109457905Y-115897523D01*
X109543619Y-116097523D02*
X109543619Y-115897523D01*
X109543619Y-115897523D02*
X109619809Y-115897523D01*
X109619809Y-115897523D02*
X109638857Y-115907047D01*
X109638857Y-115907047D02*
X109648380Y-115916571D01*
X109648380Y-115916571D02*
X109657904Y-115935619D01*
X109657904Y-115935619D02*
X109657904Y-115964190D01*
X109657904Y-115964190D02*
X109648380Y-115983238D01*
X109648380Y-115983238D02*
X109638857Y-115992761D01*
X109638857Y-115992761D02*
X109619809Y-116002285D01*
X109619809Y-116002285D02*
X109543619Y-116002285D01*
X109743619Y-116021333D02*
X109896000Y-116021333D01*
X110029333Y-115897523D02*
X110067428Y-115897523D01*
X110067428Y-115897523D02*
X110086476Y-115907047D01*
X110086476Y-115907047D02*
X110105523Y-115926095D01*
X110105523Y-115926095D02*
X110115047Y-115964190D01*
X110115047Y-115964190D02*
X110115047Y-116030857D01*
X110115047Y-116030857D02*
X110105523Y-116068952D01*
X110105523Y-116068952D02*
X110086476Y-116088000D01*
X110086476Y-116088000D02*
X110067428Y-116097523D01*
X110067428Y-116097523D02*
X110029333Y-116097523D01*
X110029333Y-116097523D02*
X110010285Y-116088000D01*
X110010285Y-116088000D02*
X109991238Y-116068952D01*
X109991238Y-116068952D02*
X109981714Y-116030857D01*
X109981714Y-116030857D02*
X109981714Y-115964190D01*
X109981714Y-115964190D02*
X109991238Y-115926095D01*
X109991238Y-115926095D02*
X110010285Y-115907047D01*
X110010285Y-115907047D02*
X110029333Y-115897523D01*
X110200762Y-115897523D02*
X110200762Y-116059428D01*
X110200762Y-116059428D02*
X110210285Y-116078476D01*
X110210285Y-116078476D02*
X110219809Y-116088000D01*
X110219809Y-116088000D02*
X110238857Y-116097523D01*
X110238857Y-116097523D02*
X110276952Y-116097523D01*
X110276952Y-116097523D02*
X110296000Y-116088000D01*
X110296000Y-116088000D02*
X110305523Y-116078476D01*
X110305523Y-116078476D02*
X110315047Y-116059428D01*
X110315047Y-116059428D02*
X110315047Y-115897523D01*
X110381714Y-115897523D02*
X110496000Y-115897523D01*
X110438857Y-116097523D02*
X110438857Y-115897523D01*
X110696000Y-115897523D02*
X110829333Y-115897523D01*
X110829333Y-115897523D02*
X110696000Y-116097523D01*
X110696000Y-116097523D02*
X110829333Y-116097523D01*
X110943619Y-115897523D02*
X110981714Y-115897523D01*
X110981714Y-115897523D02*
X111000762Y-115907047D01*
X111000762Y-115907047D02*
X111019809Y-115926095D01*
X111019809Y-115926095D02*
X111029333Y-115964190D01*
X111029333Y-115964190D02*
X111029333Y-116030857D01*
X111029333Y-116030857D02*
X111019809Y-116068952D01*
X111019809Y-116068952D02*
X111000762Y-116088000D01*
X111000762Y-116088000D02*
X110981714Y-116097523D01*
X110981714Y-116097523D02*
X110943619Y-116097523D01*
X110943619Y-116097523D02*
X110924571Y-116088000D01*
X110924571Y-116088000D02*
X110905524Y-116068952D01*
X110905524Y-116068952D02*
X110896000Y-116030857D01*
X110896000Y-116030857D02*
X110896000Y-115964190D01*
X110896000Y-115964190D02*
X110905524Y-115926095D01*
X110905524Y-115926095D02*
X110924571Y-115907047D01*
X110924571Y-115907047D02*
X110943619Y-115897523D01*
X111115048Y-116097523D02*
X111115048Y-115897523D01*
X111115048Y-115897523D02*
X111229333Y-116097523D01*
X111229333Y-116097523D02*
X111229333Y-115897523D01*
X111324572Y-115992761D02*
X111391238Y-115992761D01*
X111419810Y-116097523D02*
X111324572Y-116097523D01*
X111324572Y-116097523D02*
X111324572Y-115897523D01*
X111324572Y-115897523D02*
X111419810Y-115897523D01*
X104115047Y-116497523D02*
X104115047Y-116297523D01*
X104115047Y-116297523D02*
X104229332Y-116497523D01*
X104229332Y-116497523D02*
X104229332Y-116297523D01*
X104353142Y-116497523D02*
X104334094Y-116488000D01*
X104334094Y-116488000D02*
X104324571Y-116478476D01*
X104324571Y-116478476D02*
X104315047Y-116459428D01*
X104315047Y-116459428D02*
X104315047Y-116402285D01*
X104315047Y-116402285D02*
X104324571Y-116383238D01*
X104324571Y-116383238D02*
X104334094Y-116373714D01*
X104334094Y-116373714D02*
X104353142Y-116364190D01*
X104353142Y-116364190D02*
X104381713Y-116364190D01*
X104381713Y-116364190D02*
X104400761Y-116373714D01*
X104400761Y-116373714D02*
X104410285Y-116383238D01*
X104410285Y-116383238D02*
X104419809Y-116402285D01*
X104419809Y-116402285D02*
X104419809Y-116459428D01*
X104419809Y-116459428D02*
X104410285Y-116478476D01*
X104410285Y-116478476D02*
X104400761Y-116488000D01*
X104400761Y-116488000D02*
X104381713Y-116497523D01*
X104381713Y-116497523D02*
X104353142Y-116497523D01*
X104724570Y-116392761D02*
X104657904Y-116392761D01*
X104657904Y-116497523D02*
X104657904Y-116297523D01*
X104657904Y-116297523D02*
X104753142Y-116297523D01*
X104829333Y-116478476D02*
X104838856Y-116488000D01*
X104838856Y-116488000D02*
X104829333Y-116497523D01*
X104829333Y-116497523D02*
X104819809Y-116488000D01*
X104819809Y-116488000D02*
X104829333Y-116478476D01*
X104829333Y-116478476D02*
X104829333Y-116497523D01*
X105038856Y-116478476D02*
X105029332Y-116488000D01*
X105029332Y-116488000D02*
X105000761Y-116497523D01*
X105000761Y-116497523D02*
X104981713Y-116497523D01*
X104981713Y-116497523D02*
X104953142Y-116488000D01*
X104953142Y-116488000D02*
X104934094Y-116468952D01*
X104934094Y-116468952D02*
X104924571Y-116449904D01*
X104924571Y-116449904D02*
X104915047Y-116411809D01*
X104915047Y-116411809D02*
X104915047Y-116383238D01*
X104915047Y-116383238D02*
X104924571Y-116345142D01*
X104924571Y-116345142D02*
X104934094Y-116326095D01*
X104934094Y-116326095D02*
X104953142Y-116307047D01*
X104953142Y-116307047D02*
X104981713Y-116297523D01*
X104981713Y-116297523D02*
X105000761Y-116297523D01*
X105000761Y-116297523D02*
X105029332Y-116307047D01*
X105029332Y-116307047D02*
X105038856Y-116316571D01*
X105210285Y-116364190D02*
X105210285Y-116497523D01*
X105124571Y-116364190D02*
X105124571Y-116468952D01*
X105124571Y-116468952D02*
X105134094Y-116488000D01*
X105134094Y-116488000D02*
X105153142Y-116497523D01*
X105153142Y-116497523D02*
X105181713Y-116497523D01*
X105181713Y-116497523D02*
X105200761Y-116488000D01*
X105200761Y-116488000D02*
X105210285Y-116478476D01*
X105429332Y-116364190D02*
X105505523Y-116364190D01*
X105457904Y-116297523D02*
X105457904Y-116468952D01*
X105457904Y-116468952D02*
X105467427Y-116488000D01*
X105467427Y-116488000D02*
X105486475Y-116497523D01*
X105486475Y-116497523D02*
X105505523Y-116497523D01*
X105572190Y-116497523D02*
X105572190Y-116364190D01*
X105572190Y-116402285D02*
X105581713Y-116383238D01*
X105581713Y-116383238D02*
X105591237Y-116373714D01*
X105591237Y-116373714D02*
X105610285Y-116364190D01*
X105610285Y-116364190D02*
X105629332Y-116364190D01*
X105781714Y-116497523D02*
X105781714Y-116392761D01*
X105781714Y-116392761D02*
X105772190Y-116373714D01*
X105772190Y-116373714D02*
X105753142Y-116364190D01*
X105753142Y-116364190D02*
X105715047Y-116364190D01*
X105715047Y-116364190D02*
X105696000Y-116373714D01*
X105781714Y-116488000D02*
X105762666Y-116497523D01*
X105762666Y-116497523D02*
X105715047Y-116497523D01*
X105715047Y-116497523D02*
X105696000Y-116488000D01*
X105696000Y-116488000D02*
X105686476Y-116468952D01*
X105686476Y-116468952D02*
X105686476Y-116449904D01*
X105686476Y-116449904D02*
X105696000Y-116430857D01*
X105696000Y-116430857D02*
X105715047Y-116421333D01*
X105715047Y-116421333D02*
X105762666Y-116421333D01*
X105762666Y-116421333D02*
X105781714Y-116411809D01*
X105962666Y-116488000D02*
X105943618Y-116497523D01*
X105943618Y-116497523D02*
X105905523Y-116497523D01*
X105905523Y-116497523D02*
X105886475Y-116488000D01*
X105886475Y-116488000D02*
X105876952Y-116478476D01*
X105876952Y-116478476D02*
X105867428Y-116459428D01*
X105867428Y-116459428D02*
X105867428Y-116402285D01*
X105867428Y-116402285D02*
X105876952Y-116383238D01*
X105876952Y-116383238D02*
X105886475Y-116373714D01*
X105886475Y-116373714D02*
X105905523Y-116364190D01*
X105905523Y-116364190D02*
X105943618Y-116364190D01*
X105943618Y-116364190D02*
X105962666Y-116373714D01*
X106048381Y-116497523D02*
X106048381Y-116297523D01*
X106067428Y-116421333D02*
X106124571Y-116497523D01*
X106124571Y-116364190D02*
X106048381Y-116440380D01*
X106200762Y-116488000D02*
X106219809Y-116497523D01*
X106219809Y-116497523D02*
X106257905Y-116497523D01*
X106257905Y-116497523D02*
X106276952Y-116488000D01*
X106276952Y-116488000D02*
X106286476Y-116468952D01*
X106286476Y-116468952D02*
X106286476Y-116459428D01*
X106286476Y-116459428D02*
X106276952Y-116440380D01*
X106276952Y-116440380D02*
X106257905Y-116430857D01*
X106257905Y-116430857D02*
X106229333Y-116430857D01*
X106229333Y-116430857D02*
X106210286Y-116421333D01*
X106210286Y-116421333D02*
X106200762Y-116402285D01*
X106200762Y-116402285D02*
X106200762Y-116392761D01*
X106200762Y-116392761D02*
X106210286Y-116373714D01*
X106210286Y-116373714D02*
X106229333Y-116364190D01*
X106229333Y-116364190D02*
X106257905Y-116364190D01*
X106257905Y-116364190D02*
X106276952Y-116373714D01*
X109115047Y-116497523D02*
X109115047Y-116297523D01*
X109115047Y-116297523D02*
X109229332Y-116497523D01*
X109229332Y-116497523D02*
X109229332Y-116297523D01*
X109353142Y-116497523D02*
X109334094Y-116488000D01*
X109334094Y-116488000D02*
X109324571Y-116478476D01*
X109324571Y-116478476D02*
X109315047Y-116459428D01*
X109315047Y-116459428D02*
X109315047Y-116402285D01*
X109315047Y-116402285D02*
X109324571Y-116383238D01*
X109324571Y-116383238D02*
X109334094Y-116373714D01*
X109334094Y-116373714D02*
X109353142Y-116364190D01*
X109353142Y-116364190D02*
X109381713Y-116364190D01*
X109381713Y-116364190D02*
X109400761Y-116373714D01*
X109400761Y-116373714D02*
X109410285Y-116383238D01*
X109410285Y-116383238D02*
X109419809Y-116402285D01*
X109419809Y-116402285D02*
X109419809Y-116459428D01*
X109419809Y-116459428D02*
X109410285Y-116478476D01*
X109410285Y-116478476D02*
X109400761Y-116488000D01*
X109400761Y-116488000D02*
X109381713Y-116497523D01*
X109381713Y-116497523D02*
X109353142Y-116497523D01*
X109724570Y-116392761D02*
X109657904Y-116392761D01*
X109657904Y-116497523D02*
X109657904Y-116297523D01*
X109657904Y-116297523D02*
X109753142Y-116297523D01*
X109829333Y-116478476D02*
X109838856Y-116488000D01*
X109838856Y-116488000D02*
X109829333Y-116497523D01*
X109829333Y-116497523D02*
X109819809Y-116488000D01*
X109819809Y-116488000D02*
X109829333Y-116478476D01*
X109829333Y-116478476D02*
X109829333Y-116497523D01*
X110038856Y-116478476D02*
X110029332Y-116488000D01*
X110029332Y-116488000D02*
X110000761Y-116497523D01*
X110000761Y-116497523D02*
X109981713Y-116497523D01*
X109981713Y-116497523D02*
X109953142Y-116488000D01*
X109953142Y-116488000D02*
X109934094Y-116468952D01*
X109934094Y-116468952D02*
X109924571Y-116449904D01*
X109924571Y-116449904D02*
X109915047Y-116411809D01*
X109915047Y-116411809D02*
X109915047Y-116383238D01*
X109915047Y-116383238D02*
X109924571Y-116345142D01*
X109924571Y-116345142D02*
X109934094Y-116326095D01*
X109934094Y-116326095D02*
X109953142Y-116307047D01*
X109953142Y-116307047D02*
X109981713Y-116297523D01*
X109981713Y-116297523D02*
X110000761Y-116297523D01*
X110000761Y-116297523D02*
X110029332Y-116307047D01*
X110029332Y-116307047D02*
X110038856Y-116316571D01*
X110210285Y-116364190D02*
X110210285Y-116497523D01*
X110124571Y-116364190D02*
X110124571Y-116468952D01*
X110124571Y-116468952D02*
X110134094Y-116488000D01*
X110134094Y-116488000D02*
X110153142Y-116497523D01*
X110153142Y-116497523D02*
X110181713Y-116497523D01*
X110181713Y-116497523D02*
X110200761Y-116488000D01*
X110200761Y-116488000D02*
X110210285Y-116478476D01*
X110429332Y-116364190D02*
X110505523Y-116364190D01*
X110457904Y-116297523D02*
X110457904Y-116468952D01*
X110457904Y-116468952D02*
X110467427Y-116488000D01*
X110467427Y-116488000D02*
X110486475Y-116497523D01*
X110486475Y-116497523D02*
X110505523Y-116497523D01*
X110572190Y-116497523D02*
X110572190Y-116364190D01*
X110572190Y-116402285D02*
X110581713Y-116383238D01*
X110581713Y-116383238D02*
X110591237Y-116373714D01*
X110591237Y-116373714D02*
X110610285Y-116364190D01*
X110610285Y-116364190D02*
X110629332Y-116364190D01*
X110781714Y-116497523D02*
X110781714Y-116392761D01*
X110781714Y-116392761D02*
X110772190Y-116373714D01*
X110772190Y-116373714D02*
X110753142Y-116364190D01*
X110753142Y-116364190D02*
X110715047Y-116364190D01*
X110715047Y-116364190D02*
X110696000Y-116373714D01*
X110781714Y-116488000D02*
X110762666Y-116497523D01*
X110762666Y-116497523D02*
X110715047Y-116497523D01*
X110715047Y-116497523D02*
X110696000Y-116488000D01*
X110696000Y-116488000D02*
X110686476Y-116468952D01*
X110686476Y-116468952D02*
X110686476Y-116449904D01*
X110686476Y-116449904D02*
X110696000Y-116430857D01*
X110696000Y-116430857D02*
X110715047Y-116421333D01*
X110715047Y-116421333D02*
X110762666Y-116421333D01*
X110762666Y-116421333D02*
X110781714Y-116411809D01*
X110962666Y-116488000D02*
X110943618Y-116497523D01*
X110943618Y-116497523D02*
X110905523Y-116497523D01*
X110905523Y-116497523D02*
X110886475Y-116488000D01*
X110886475Y-116488000D02*
X110876952Y-116478476D01*
X110876952Y-116478476D02*
X110867428Y-116459428D01*
X110867428Y-116459428D02*
X110867428Y-116402285D01*
X110867428Y-116402285D02*
X110876952Y-116383238D01*
X110876952Y-116383238D02*
X110886475Y-116373714D01*
X110886475Y-116373714D02*
X110905523Y-116364190D01*
X110905523Y-116364190D02*
X110943618Y-116364190D01*
X110943618Y-116364190D02*
X110962666Y-116373714D01*
X111048381Y-116497523D02*
X111048381Y-116297523D01*
X111067428Y-116421333D02*
X111124571Y-116497523D01*
X111124571Y-116364190D02*
X111048381Y-116440380D01*
X111200762Y-116488000D02*
X111219809Y-116497523D01*
X111219809Y-116497523D02*
X111257905Y-116497523D01*
X111257905Y-116497523D02*
X111276952Y-116488000D01*
X111276952Y-116488000D02*
X111286476Y-116468952D01*
X111286476Y-116468952D02*
X111286476Y-116459428D01*
X111286476Y-116459428D02*
X111276952Y-116440380D01*
X111276952Y-116440380D02*
X111257905Y-116430857D01*
X111257905Y-116430857D02*
X111229333Y-116430857D01*
X111229333Y-116430857D02*
X111210286Y-116421333D01*
X111210286Y-116421333D02*
X111200762Y-116402285D01*
X111200762Y-116402285D02*
X111200762Y-116392761D01*
X111200762Y-116392761D02*
X111210286Y-116373714D01*
X111210286Y-116373714D02*
X111229333Y-116364190D01*
X111229333Y-116364190D02*
X111257905Y-116364190D01*
X111257905Y-116364190D02*
X111276952Y-116373714D01*
X103981715Y-116097523D02*
X103981715Y-115897523D01*
X104096000Y-116097523D02*
X104010286Y-115983238D01*
X104096000Y-115897523D02*
X103981715Y-116011809D01*
X104181715Y-115992761D02*
X104248381Y-115992761D01*
X104276953Y-116097523D02*
X104181715Y-116097523D01*
X104181715Y-116097523D02*
X104181715Y-115897523D01*
X104181715Y-115897523D02*
X104276953Y-115897523D01*
X104362667Y-115992761D02*
X104429333Y-115992761D01*
X104457905Y-116097523D02*
X104362667Y-116097523D01*
X104362667Y-116097523D02*
X104362667Y-115897523D01*
X104362667Y-115897523D02*
X104457905Y-115897523D01*
X104543619Y-116097523D02*
X104543619Y-115897523D01*
X104543619Y-115897523D02*
X104619809Y-115897523D01*
X104619809Y-115897523D02*
X104638857Y-115907047D01*
X104638857Y-115907047D02*
X104648380Y-115916571D01*
X104648380Y-115916571D02*
X104657904Y-115935619D01*
X104657904Y-115935619D02*
X104657904Y-115964190D01*
X104657904Y-115964190D02*
X104648380Y-115983238D01*
X104648380Y-115983238D02*
X104638857Y-115992761D01*
X104638857Y-115992761D02*
X104619809Y-116002285D01*
X104619809Y-116002285D02*
X104543619Y-116002285D01*
X104743619Y-116021333D02*
X104896000Y-116021333D01*
X105029333Y-115897523D02*
X105067428Y-115897523D01*
X105067428Y-115897523D02*
X105086476Y-115907047D01*
X105086476Y-115907047D02*
X105105523Y-115926095D01*
X105105523Y-115926095D02*
X105115047Y-115964190D01*
X105115047Y-115964190D02*
X105115047Y-116030857D01*
X105115047Y-116030857D02*
X105105523Y-116068952D01*
X105105523Y-116068952D02*
X105086476Y-116088000D01*
X105086476Y-116088000D02*
X105067428Y-116097523D01*
X105067428Y-116097523D02*
X105029333Y-116097523D01*
X105029333Y-116097523D02*
X105010285Y-116088000D01*
X105010285Y-116088000D02*
X104991238Y-116068952D01*
X104991238Y-116068952D02*
X104981714Y-116030857D01*
X104981714Y-116030857D02*
X104981714Y-115964190D01*
X104981714Y-115964190D02*
X104991238Y-115926095D01*
X104991238Y-115926095D02*
X105010285Y-115907047D01*
X105010285Y-115907047D02*
X105029333Y-115897523D01*
X105200762Y-115897523D02*
X105200762Y-116059428D01*
X105200762Y-116059428D02*
X105210285Y-116078476D01*
X105210285Y-116078476D02*
X105219809Y-116088000D01*
X105219809Y-116088000D02*
X105238857Y-116097523D01*
X105238857Y-116097523D02*
X105276952Y-116097523D01*
X105276952Y-116097523D02*
X105296000Y-116088000D01*
X105296000Y-116088000D02*
X105305523Y-116078476D01*
X105305523Y-116078476D02*
X105315047Y-116059428D01*
X105315047Y-116059428D02*
X105315047Y-115897523D01*
X105381714Y-115897523D02*
X105496000Y-115897523D01*
X105438857Y-116097523D02*
X105438857Y-115897523D01*
X105696000Y-115897523D02*
X105829333Y-115897523D01*
X105829333Y-115897523D02*
X105696000Y-116097523D01*
X105696000Y-116097523D02*
X105829333Y-116097523D01*
X105943619Y-115897523D02*
X105981714Y-115897523D01*
X105981714Y-115897523D02*
X106000762Y-115907047D01*
X106000762Y-115907047D02*
X106019809Y-115926095D01*
X106019809Y-115926095D02*
X106029333Y-115964190D01*
X106029333Y-115964190D02*
X106029333Y-116030857D01*
X106029333Y-116030857D02*
X106019809Y-116068952D01*
X106019809Y-116068952D02*
X106000762Y-116088000D01*
X106000762Y-116088000D02*
X105981714Y-116097523D01*
X105981714Y-116097523D02*
X105943619Y-116097523D01*
X105943619Y-116097523D02*
X105924571Y-116088000D01*
X105924571Y-116088000D02*
X105905524Y-116068952D01*
X105905524Y-116068952D02*
X105896000Y-116030857D01*
X105896000Y-116030857D02*
X105896000Y-115964190D01*
X105896000Y-115964190D02*
X105905524Y-115926095D01*
X105905524Y-115926095D02*
X105924571Y-115907047D01*
X105924571Y-115907047D02*
X105943619Y-115897523D01*
X106115048Y-116097523D02*
X106115048Y-115897523D01*
X106115048Y-115897523D02*
X106229333Y-116097523D01*
X106229333Y-116097523D02*
X106229333Y-115897523D01*
X106324572Y-115992761D02*
X106391238Y-115992761D01*
X106419810Y-116097523D02*
X106324572Y-116097523D01*
X106324572Y-116097523D02*
X106324572Y-115897523D01*
X106324572Y-115897523D02*
X106419810Y-115897523D01*
D12*
%TO.C,LED1*%
X76450000Y-131218750D02*
X76200000Y-130968750D01*
X76200000Y-130968750D02*
X76450000Y-130718750D01*
X76200000Y-130968750D02*
X75950000Y-130718750D01*
X75950000Y-131218750D02*
X76200000Y-130968750D01*
%TD*%
M02*
